<?xml version="1.0" encoding="UTF-8" standalone="no"?>
<!-- Generator: Adobe Illustrator 15.0.0, SVG Export Plug-In . SVG Version: 6.00 Build 0)  -->

<svg
   xmlns:dc="http://purl.org/dc/elements/1.1/"
   xmlns:cc="http://creativecommons.org/ns#"
   xmlns:rdf="http://www.w3.org/1999/02/22-rdf-syntax-ns#"
   xmlns:svg="http://www.w3.org/2000/svg"
   xmlns="http://www.w3.org/2000/svg"
   xmlns:sodipodi="http://sodipodi.sourceforge.net/DTD/sodipodi-0.dtd"
   xmlns:inkscape="http://www.inkscape.org/namespaces/inkscape"
   version="1.1"
   id="svg2064"
   sodipodi:version="0.32"
   inkscape:version="0.48.3.1 r9886"
   sodipodi:modified="true"
   sodipodi:docname="anchor_prova2.svg"
   inkscape:output_extension="org.inkscape.output.svg.inkscape"
   x="0px"
   y="0px"
   width="250px"
   height="250px"
   viewBox="0 0 250 250"
   enable-background="new 0 0 250 250"
   xml:space="preserve"><metadata
   id="metadata21"><rdf:RDF><cc:Work
       rdf:about=""><dc:format>image/svg+xml</dc:format><dc:type
         rdf:resource="http://purl.org/dc/dcmitype/StillImage" /></cc:Work></rdf:RDF></metadata>
<sodipodi:namedview
   id="base"
   inkscape:current-layer="svg2064"
   inkscape:window-y="17"
   inkscape:window-x="124"
   inkscape:window-width="1020"
   inkscape:pageopacity="0.0"
   inkscape:pageshadow="2"
   inkscape:window-height="701"
   showgrid="false"
   bordercolor="#666666"
   borderopacity="1.0"
   objecttolerance="10.0"
   inkscape:cy="150.41626"
   gridtolerance="10.0"
   guidetolerance="10.0"
   inkscape:cx="174.63433"
   inkscape:zoom="1.2432166"
   pagecolor="#ffffff"
   inkscape:window-maximized="0">
	</sodipodi:namedview>
<defs
   id="defs4">
	
	
		<inkscape:perspective
   id="perspective9"
   inkscape:persp3d-origin="125.5 : 101.35 : 1"
   inkscape:vp_z="251 : 152.02499 : 1"
   inkscape:vp_y="0 : 1000 : 0"
   inkscape:vp_x="0 : 152.02499 : 1"
   sodipodi:type="inkscape:persp3d">
		</inkscape:perspective>
	
		<inkscape:perspective
   id="perspective3907"
   inkscape:persp3d-origin="24 : 16 : 1"
   inkscape:vp_z="48 : 24 : 1"
   inkscape:vp_y="0 : 1000 : 0"
   inkscape:vp_x="0 : 24 : 1"
   sodipodi:type="inkscape:persp3d">
		</inkscape:perspective>
	
		<inkscape:perspective
   id="perspective148"
   inkscape:persp3d-origin="24 : 16 : 1"
   inkscape:vp_z="48 : 24 : 1"
   inkscape:vp_y="0 : 1000 : 0"
   inkscape:vp_x="0 : 24 : 1"
   sodipodi:type="inkscape:persp3d">
		</inkscape:perspective>
	
		<inkscape:perspective
   id="perspective3907-9"
   inkscape:persp3d-origin="24 : 16 : 1"
   inkscape:vp_z="48 : 24 : 1"
   inkscape:vp_y="0 : 1000 : 0"
   inkscape:vp_x="0 : 24 : 1"
   sodipodi:type="inkscape:persp3d">
		</inkscape:perspective>
	
		<inkscape:perspective
   id="perspective148-1"
   inkscape:persp3d-origin="24 : 16 : 1"
   inkscape:vp_z="48 : 24 : 1"
   inkscape:vp_y="0 : 1000 : 0"
   inkscape:vp_x="0 : 24 : 1"
   sodipodi:type="inkscape:persp3d">
		</inkscape:perspective>
</defs>
<path
   fill="none"
   d="M126.406,21.463c-1.434,0-2.771,0.525-3.764,1.478c-0.93,0.892-1.442,2.06-1.441,3.292  c0,1.229,0.511,2.396,1.441,3.289c0.994,0.953,2.331,1.478,3.764,1.478s2.771-0.525,3.765-1.478c0.93-0.892,1.441-2.06,1.441-3.292  c0-1.229-0.512-2.396-1.441-3.289C129.177,21.988,127.84,21.463,126.406,21.463z"
   id="path11" />
<path
   d="M224.611,141.169c-0.58-0.311-1.029-0.484-1.428-0.484c-0.765,0-1.34,0.641-2.292,2.178  c-2.519,4.065-6.036,7.262-12.812,11.642c-8.113,5.243-13.01,10.649-14.516,16.025c-1.134,4.051-0.979,6.09,0.452,6.09  c0.403,0,0.909-0.162,1.516-0.487c1.176-0.629,2.192-0.945,3.063-0.945c1.357,0,2.361,0.769,3.067,2.319  c1.633,3.583-0.819,6.465-10.299,12.104c-16.191,9.631-37.9,17.519-48.216,17.519c-4.868,0-9.438-1.883-10.171-4.189  c-0.353-1.111-0.371-14.236-0.04-29.166s0.866-42.664,1.189-61.633s0.739-34.734,0.925-35.034c0.143-0.231,6.309-0.374,14.815-0.374  c2.526,0,5.258,0.013,8.101,0.039c4.644,0.043,8.408,0.095,11.456,0.095c13.858,0,12.914-1.059,12.739-8.738l-0.125-5.5  c-3.722-0.261-7.465-0.341-11.218-0.341c-5.875,0-11.775,0.195-17.656,0.195c-5.896,0-11.771-0.196-17.586-0.981  c-0.289-0.29-0.592-3.854-0.672-7.92l-0.105-6.578c8.464-3.072,14.484-10.936,14.481-20.148  c0.004-11.885-10.015-21.531-22.375-21.531s-22.379,9.646-22.375,21.531c-0.003,8.917,5.637,16.575,13.675,19.842  c0.138,1.419,0.331,3.514,0.331,6.515v9.084l-21.881-0.306c-4.081-0.057-7.479-0.088-10.302-0.088  c-9.076,0-12.228,0.32-13.198,1.126c-2.036,1.689-2.356,13.078-0.369,13.135l44.75-0.104c0.05,10.689,0.189,21.379,0.053,32.069  c-0.504,22.08-0.892,44.162-1.097,66.247c-0.09,11.961-0.545,23.436-1.011,25.5c-1.092,4.843-3.405,7.081-8.644,7.081  c-3.177,0-7.431-0.824-13.141-2.389c-15.728-4.313-35.264-13.896-38.552-18.914c-2.614-3.99-3.022-7.41-1.133-9.498  c0.781-0.863,1.877-1.43,2.668-1.43c0.163,0,0.313,0.023,0.444,0.074c0.137,0.053,0.276,0.078,0.414,0.078  c0.717,0,1.419-0.694,1.87-1.895c1.893-5.041-4.426-12.49-16.872-19.891c-3.025-1.799-7.975-5.662-11-8.584  c-2.889-2.791-5.468-4.652-6.394-4.652c-0.091,0-0.167,0.018-0.225,0.055c-2.009,1.287-6.12,10.584-7.383,16.697  c-2.54,12.289,0.682,30.422,6.668,37.535c1.595,1.896,2.833,2.843,3.764,2.843c0.914,0,1.53-0.913,1.895-2.737  c0.521-2.605,2.136-3.863,4.452-3.863c3.45,0,8.457,2.791,13.723,8.075c6.964,6.987,20.225,17.118,26,19.861  c2.2,1.046,5.35,2.745,7,3.776s6.6,3.107,11,4.612c9.218,3.152,20.013,8.734,24.287,12.559c1.624,1.453,4.076,3.378,5.45,4.278  c1.053,0.689,1.675,1.07,2.179,1.07c0.646,0,1.098-0.625,2.016-2.025c3.398-5.188,9.263-9.729,18.145-14.049  c4.993-2.429,9.828-4.416,10.744-4.416c1.949,0,18.395-7.275,28.301-12.52c7.764-4.111,11.26-6.588,19.934-14.122  c5.735-4.981,9.812-7.376,13.237-7.376c2.422,0,4.518,1.196,6.646,3.521l3.208,3.503l2.061-2.253  c3.727-4.075,5.098-8.173,5.818-17.384c0.551-7.043,0.316-10.867-1.037-16.979C230.884,150.859,227.295,142.605,224.611,141.169z   M126.406,36.669c-6,0-10.877-4.668-10.875-10.438c-0.002-5.77,4.875-10.438,10.875-10.438s10.877,4.668,10.875,10.438  C137.283,32.001,132.406,36.669,126.406,36.669z"
   id="path13" />
<path
   d="m 238.561,159.293 c -1.009,-4.55 -4.802,-19.658 -11.273,-23.122 -1.006,-0.538 -2.38,-1.155 -4.104,-1.155 -4.101,0 -6.134,3.283 -7.111,4.861 -2.042,3.295 -5.042,5.969 -11.07,9.866 -9.319,6.022 -15.004,12.502 -16.896,19.257 -1.004,3.586 -1.723,7.654 0.552,10.652 0.982,1.296 2.374,2.164 3.941,2.49 -1.07,0.721 -2.424,1.578 -4.134,2.596 -16.816,10.002 -37.009,16.722 -45.317,16.722 -2.154,0 -3.799,-0.492 -4.687,-0.891 -0.134,-3.616 -0.153,-13.297 0.144,-26.67 0.332,-14.954 0.865,-42.616 1.189,-61.662 0.236,-13.839 0.487,-24.167 0.667,-29.758 2.236,-0.044 5.344,-0.077 9.405,-0.077 2.581,0 5.289,0.013 8.048,0.039 l 3.688,0.037 c 3.003,0.031 5.597,0.058 7.821,0.058 7.818,0 12.771,-0.165 15.926,-3.418 2.731,-2.816 2.623,-6.373 2.518,-9.813 -0.013,-0.411 -0.025,-0.845 -0.036,-1.304 l -0.125,-5.5 -0.117,-5.165 -5.154,-0.361 c -3.449,-0.242 -7.14,-0.354 -11.614,-0.354 -2.983,0 -6,0.05 -8.918,0.098 -2.873,0.047 -5.845,0.097 -8.738,0.097 -4.856,0 -8.872,-0.143 -12.491,-0.454 -0.041,-0.833 -0.077,-1.8 -0.099,-2.89 l -0.045,-2.84 c 8.771,-4.747 14.426,-13.858 14.422,-23.776 0.003,-7.301 -2.941,-14.159 -8.288,-19.305 -5.289,-5.09 -12.305,-7.894 -19.756,-7.894 -7.451,0 -14.467,2.803 -19.755,7.894 -5.348,5.146 -8.292,12.004 -8.289,19.309 -0.003,9.797 5.365,18.689 13.939,23.516 0.04,0.824 0.067,1.769 0.067,2.839 V 56.55 L 96.739,56.324 c -4.267,-0.06 -7.662,-0.088 -10.381,-0.088 -11.422,0 -14.408,0.432 -16.819,2.433 -4.417,3.666 -4.219,14.684 -2.954,18.354 1.499,4.347 5.005,4.781 6.044,4.811 l 0.087,0.002 H 72.8 l 39.101,-0.091 c 0.004,0.718 0.009,1.437 0.014,2.155 0.053,7.917 0.108,16.104 0.006,24.129 -0.546,23.906 -0.905,45.591 -1.098,66.296 -0.096,12.63 -0.576,22.657 -0.88,24.34 -0.572,2.526 -0.886,2.624 -3.105,2.624 -2.465,0 -6.274,-0.715 -11.643,-2.187 -16.585,-4.547 -33.283,-13.714 -35.317,-16.567 -0.567,-0.866 -0.91,-1.569 -1.11,-2.096 2.613,-0.48 4.828,-2.48 5.947,-5.458 2.142,-5.705 0.536,-14.976 -19.281,-26.759 -2.673,-1.59 -7.233,-5.156 -9.959,-7.789 -6.462,-6.243 -9.075,-6.244 -10.331,-6.244 -10e-4,0 -0.002,0 -0.003,0 -1.174,0 -2.308,0.328 -3.279,0.949 -4.664,2.987 -8.898,15.578 -9.879,20.326 -2.913,14.098 0.77,33.88 7.882,42.332 1.904,2.263 4.546,4.861 8.102,4.861 1.343,0 5.687,-0.48 7.252,-6.421 1.579,0.483 4.661,2.074 8.801,6.229 7.525,7.551 21.188,17.942 27.583,20.98 2.008,0.954 4.952,2.54 6.428,3.463 2.335,1.459 7.89,3.705 12.17,5.169 9.274,3.172 19.04,8.465 22.341,11.419 1.832,1.64 4.521,3.746 6.122,4.795 1.43,0.938 3.05,1.998 5.287,1.998 3.75,0 5.633,-2.871 6.757,-4.586 2.804,-4.28 7.999,-8.224 15.883,-12.059 4.481,-2.181 7.864,-3.531 8.94,-3.871 1.271,-0.121 3.877,-0.812 12.784,-4.752 6.19,-2.738 12.73,-5.879 17.493,-8.4 8.124,-4.302 12.049,-7.078 20.999,-14.853 5.996,-5.209 8.538,-5.986 9.52,-5.986 0.229,0 0.927,0 2.466,1.68 l 3.208,3.503 4.184,4.568 4.181,-4.571 2.061,-2.253 c 5.205,-5.692 6.576,-11.69 7.287,-20.768 0.596,-7.611 0.326,-11.967 -1.153,-18.648 z m -15.585,34.339 c -2.129,-2.324 -4.225,-3.521 -6.646,-3.521 -3.426,0 -7.502,2.395 -13.237,7.376 -8.674,7.534 -12.17,10.011 -19.934,14.122 -9.906,5.244 -26.352,12.52 -28.301,12.52 -0.916,0 -5.751,1.987 -10.744,4.416 -8.882,4.32 -14.746,8.861 -18.145,14.049 -0.918,1.4 -1.37,2.025 -2.016,2.025 -0.504,0 -1.126,-0.381 -2.179,-1.07 -1.374,-0.9 -3.826,-2.825 -5.45,-4.278 -4.274,-3.824 -15.069,-9.406 -24.287,-12.559 -4.4,-1.505 -9.35,-3.581 -11,-4.612 -1.65,-1.031 -4.8,-2.73 -7,-3.776 -5.775,-2.743 -19.036,-12.874 -26,-19.861 -5.266,-5.284 -10.272,-8.075 -13.723,-8.075 -2.315,0 -3.931,1.258 -4.452,3.863 -0.365,1.824 -0.981,2.737 -1.895,2.737 -0.931,0 -2.169,-0.947 -3.764,-2.843 -5.986,-7.113 -9.208,-25.246 -6.668,-37.535 1.263,-6.113 5.374,-15.41 7.383,-16.697 0.058,-0.037 0.133,-0.055 0.225,-0.055 0.926,0 3.505,1.861 6.394,4.652 3.025,2.922 7.975,6.785 11,8.584 12.446,7.4 18.765,14.85 16.872,19.891 -0.451,1.2 -1.153,1.895 -1.87,1.895 -0.138,0 -0.277,-0.025 -0.414,-0.078 -0.131,-0.051 -0.281,-0.074 -0.444,-0.074 -0.791,0 -1.887,0.566 -2.668,1.43 -1.889,2.088 -1.481,5.508 1.133,9.498 3.288,5.018 22.824,14.602 38.552,18.914 5.71,1.564 9.964,2.389 13.141,2.389 5.238,0 7.552,-2.238 8.644,-7.081 0.465,-2.064 0.92,-13.539 1.011,-25.5 0.206,-22.085 0.593,-44.167 1.097,-66.247 0.136,-10.689 -0.002,-21.379 -0.053,-32.069 l -44.75,0.104 C 70.8,76.108 71.121,64.72 73.156,63.03 c 0.971,-0.806 4.123,-1.126 13.198,-1.126 2.823,0 6.221,0.031 10.302,0.088 l 21.881,0.306 v -9.084 c 0,-3.001 -0.193,-5.096 -0.331,-6.515 -8.038,-3.268 -13.678,-10.925 -13.675,-19.842 -0.004,-11.885 10.015,-21.531 22.375,-21.531 12.36,0 22.379,9.646 22.375,21.531 0.003,9.212 -6.018,17.076 -14.481,20.148 l 0.105,6.578 c 0.08,4.067 0.383,7.631 0.672,7.92 5.815,0.785 11.69,0.981 17.586,0.981 5.881,0 11.781,-0.195 17.656,-0.195 3.753,0 7.496,0.08 11.218,0.341 l 0.125,5.5 c 0.175,7.679 1.119,8.738 -12.739,8.738 -3.048,0 -6.813,-0.051 -11.456,-0.095 -2.843,-0.026 -5.574,-0.039 -8.101,-0.039 -8.507,0 -14.673,0.143 -14.815,0.374 -0.186,0.3 -0.602,16.065 -0.925,35.034 -0.323,18.969 -0.858,46.703 -1.189,61.633 -0.331,14.93 -0.313,28.055 0.04,29.166 0.732,2.307 5.303,4.189 10.171,4.189 10.315,0 32.024,-7.888 48.216,-17.519 9.479,-5.64 11.932,-8.521 10.299,-12.104 -0.706,-1.551 -1.71,-2.319 -3.067,-2.319 -0.87,0 -1.887,0.316 -3.063,0.945 -0.606,0.325 -1.112,0.487 -1.516,0.487 -1.432,0 -1.586,-2.039 -0.452,-6.09 1.506,-5.376 6.402,-10.782 14.516,-16.025 6.775,-4.38 10.293,-7.576 12.812,-11.642 0.952,-1.537 1.527,-2.178 2.292,-2.178 0.398,0 0.848,0.174 1.428,0.484 2.684,1.437 6.272,9.69 8.414,19.35 1.354,6.112 1.588,9.937 1.037,16.979 -0.721,9.211 -2.092,13.309 -5.818,17.384 l -2.061,2.253 -3.209,-3.503 z"
   id="path15"
   inkscape:connector-curvature="0"
   style="fill:#b3b3b3" />
<path
   fill="#FF4A4A"
   d="M126.406,15.794c-6,0-10.877,4.668-10.875,10.438c-0.002,5.77,4.875,10.438,10.875,10.438  s10.877-4.668,10.875-10.438C137.283,20.462,132.406,15.794,126.406,15.794z M130.171,29.522C129.177,30.475,127.84,31,126.406,31  s-2.771-0.525-3.764-1.478c-0.93-0.892-1.442-2.06-1.441-3.289c0-1.233,0.511-2.4,1.441-3.292c0.994-0.953,2.331-1.478,3.764-1.478  s2.771,0.525,3.765,1.478c0.93,0.892,1.441,2.06,1.441,3.289C131.612,27.462,131.101,28.63,130.171,29.522z"
   id="path17"
   style="fill:#b3b3b3" />
<g
   id="layer6"
   transform="matrix(5.5120359,0,0,5.8818792,-615.03692,-172.818)"
   inkscape:label="Shadow">
</g>
<g
   id="layer1"
   transform="matrix(5.5120359,0,0,5.8818792,-615.03692,-172.818)"
   inkscape:label="Base">
</g>
</svg>