<?xml version="1.0" encoding="UTF-8" standalone="no"?>
<!-- Created with Inkscape (http://www.inkscape.org/) -->
<svg
   xmlns:dc="http://purl.org/dc/elements/1.1/"
   xmlns:cc="http://creativecommons.org/ns#"
   xmlns:rdf="http://www.w3.org/1999/02/22-rdf-syntax-ns#"
   xmlns:svg="http://www.w3.org/2000/svg"
   xmlns="http://www.w3.org/2000/svg"
   xmlns:xlink="http://www.w3.org/1999/xlink"
   xmlns:sodipodi="http://sodipodi.sourceforge.net/DTD/sodipodi-0.dtd"
   xmlns:inkscape="http://www.inkscape.org/namespaces/inkscape"
   width="48px"
   height="48px"
   id="svg7217"
   sodipodi:version="0.32"
   inkscape:version="0.46"
   sodipodi:docname="applications-system.svg"
   inkscape:output_extension="org.inkscape.output.svg.inkscape">
  <defs
     id="defs7219">
    <linearGradient
       inkscape:collect="always"
       id="linearGradient5781">
      <stop
         style="stop-color:#ffffff;stop-opacity:1;"
         offset="0"
         id="stop5783" />
      <stop
         style="stop-color:#ffffff;stop-opacity:0.1"
         offset="1"
         id="stop5785" />
    </linearGradient>
    <linearGradient
       inkscape:collect="always"
       xlink:href="#linearGradient5781"
       id="linearGradient5787"
       x1="24"
       y1="4.9285712"
       x2="24"
       y2="32.950001"
       gradientUnits="userSpaceOnUse" />
    <linearGradient
       inkscape:collect="always"
       id="linearGradient5769">
      <stop
         style="stop-color:#ffffff;stop-opacity:1;"
         offset="0"
         id="stop5771" />
      <stop
         style="stop-color:#ffffff;stop-opacity:0;"
         offset="1"
         id="stop5773" />
    </linearGradient>
    <linearGradient
       inkscape:collect="always"
       xlink:href="#linearGradient5769"
       id="linearGradient5775"
       x1="11.344039"
       y1="15.724428"
       x2="11.283378"
       y2="9.0953016"
       gradientUnits="userSpaceOnUse" />
    <linearGradient
       id="linearGradient7262">
      <stop
         id="stop7264"
         offset="0"
         style="stop-color:#eeeeec;stop-opacity:1" />
      <stop
         id="stop7266"
         offset="1"
         style="stop-color:#b0b0b0;stop-opacity:1" />
    </linearGradient>
    <linearGradient
       inkscape:collect="always"
       xlink:href="#linearGradient7262"
       id="linearGradient5779"
       gradientUnits="userSpaceOnUse"
       gradientTransform="matrix(0.1355388,0,0,-0.1513405,19.014574,90.535934)"
       x1="16.008299"
       y1="521.35834"
       x2="117.8379"
       y2="333.0986" />
    <linearGradient
       inkscape:collect="always"
       id="linearGradient5791">
      <stop
         style="stop-color:#000000;stop-opacity:1;"
         offset="0"
         id="stop5793" />
      <stop
         style="stop-color:#000000;stop-opacity:0;"
         offset="1"
         id="stop5795" />
    </linearGradient>
    <radialGradient
       inkscape:collect="always"
       xlink:href="#linearGradient5791"
       id="radialGradient5797"
       cx="11.313708"
       cy="19.083185"
       fx="11.313708"
       fy="19.083185"
       r="9.8994951"
       gradientTransform="matrix(1,0,0,0.2767857,0,13.801232)"
       gradientUnits="userSpaceOnUse" />
  </defs>
  <sodipodi:namedview
     id="base"
     pagecolor="#ffffff"
     bordercolor="#666666"
     borderopacity="1.0"
     inkscape:pageopacity="0.0"
     inkscape:pageshadow="2"
     inkscape:zoom="7"
     inkscape:cx="30.928571"
     inkscape:cy="24"
     inkscape:current-layer="layer1"
     showgrid="true"
     inkscape:grid-bbox="true"
     inkscape:document-units="px"
     inkscape:window-width="641"
     inkscape:window-height="690"
     inkscape:window-x="295"
     inkscape:window-y="273" />
  <metadata
     id="metadata7222">
    <rdf:RDF>
      <cc:Work
         rdf:about="">
        <dc:format>image/svg+xml</dc:format>
        <dc:type
           rdf:resource="http://purl.org/dc/dcmitype/StillImage" />
      </cc:Work>
    </rdf:RDF>
  </metadata>
  <g
     id="layer1"
     inkscape:label="Layer 1"
     inkscape:groupmode="layer">
    <path
       sodipodi:type="arc"
       style="opacity:0.4;fill:url(#radialGradient5797);fill-opacity:1;fill-rule:nonzero;stroke:none;stroke-width:1;stroke-linecap:butt;stroke-linejoin:miter;marker:none;marker-start:none;marker-mid:none;marker-end:none;stroke-miterlimit:10;stroke-dasharray:none;stroke-dashoffset:0;stroke-opacity:1;visibility:visible;display:block;overflow:visible;enable-background:accumulate"
       id="path5789"
       sodipodi:cx="11.313708"
       sodipodi:cy="19.083185"
       sodipodi:rx="9.8994951"
       sodipodi:ry="2.7400389"
       d="M 21.213203,19.083185 A 9.8994951,2.7400389 0 1 1 1.4142132,19.083185 A 9.8994951,2.7400389 0 1 1 21.213203,19.083185 z"
       transform="matrix(2.1213203,0,0,2.2809895,-2.6294975e-4,-3.278545)" />
    <path
       style="opacity:1;fill:url(#linearGradient5779);fill-opacity:1;fill-rule:nonzero;stroke:#888a85;stroke-width:1;stroke-linecap:butt;stroke-linejoin:miter;marker:none;marker-start:none;marker-mid:none;marker-end:none;stroke-miterlimit:10;stroke-dasharray:none;stroke-dashoffset:0;stroke-opacity:1;visibility:visible;display:block;overflow:visible;enable-background:accumulate"
       d="M 23.615816,2.5004924 C 21.443721,2.5362106 22.475887,6.7127287 20.352498,7.1715167 C 18.229106,7.6303038 17.418613,3.4278922 15.425528,4.2921177 C 13.432442,5.1563422 15.99597,8.6225048 14.209781,9.8589538 C 12.423593,11.095406 10.089604,7.4659678 8.5789571,9.0271278 C 7.0683111,10.588289 10.71581,12.832077 9.5387571,14.657953 C 8.3617041,16.48383 4.7701451,14.109222 3.9719201,16.129645 C 3.1736941,18.150069 7.4320011,18.791315 7.0432781,20.928643 C 6.6545561,23.065971 2.4645081,22.211826 2.5002271,24.383921 C 2.5359461,26.556016 6.7124641,25.523848 7.1712511,27.647239 C 7.6300391,29.770631 3.4276281,30.581124 4.2918531,32.57421 C 5.1560781,34.567296 8.6222391,32.003768 9.8586901,33.789957 C 11.095141,35.576144 7.4657031,37.910134 9.0268641,39.42078 C 10.588024,40.931427 12.831811,37.283925 14.657687,38.460979 C 16.483564,39.638033 14.108957,43.229594 16.12938,44.027818 C 18.149804,44.826044 18.791051,40.567736 20.928377,40.956459 C 23.065705,41.345182 22.211559,45.53523 24.383656,45.499509 C 26.555751,45.463793 25.523582,41.287275 27.646974,40.828486 C 29.770366,40.369698 30.58086,44.572108 32.573946,43.707885 C 34.567031,42.843659 32.003503,39.377496 33.789691,38.141047 C 35.575878,36.904596 37.909869,40.534034 39.420514,38.972873 C 40.931162,37.411712 37.283664,35.167925 38.460715,33.34205 C 39.637768,31.516174 43.229327,33.890781 44.027552,31.870358 C 44.825778,29.849934 40.56747,29.208687 40.956194,27.07136 C 41.344917,24.934032 45.534963,25.788177 45.499244,23.616081 C 45.463527,21.443986 41.287008,22.476155 40.82822,20.352763 C 40.369434,18.229371 44.571845,17.418879 43.707619,15.425792 C 42.843394,13.432706 39.377235,15.996234 38.140782,14.210047 C 36.904331,12.423859 40.533767,10.089869 38.972609,8.5792228 C 37.411447,7.0685747 35.167661,10.716074 33.341784,9.5390208 C 31.515909,8.3619688 33.890515,4.7704098 31.870093,3.9721844 C 29.849669,3.1739589 29.208422,7.4322658 27.071094,7.0435427 C 24.933766,6.6548197 25.787912,2.4647731 23.615816,2.5004924 z M 23.999736,12.5 C 30.216165,12.5 35.499736,17.783572 35.499736,24.000001 C 35.499736,30.216431 30.216165,35.5 23.999736,35.5 C 17.783306,35.5 12.499736,30.216431 12.499736,24.000001 C 12.499736,17.783572 17.783306,12.5 23.999736,12.5 z"
       id="path5665"
       sodipodi:nodetypes="csssssssssssssssssssssssssssssssccsssc" />
    <path
       sodipodi:type="arc"
       style="opacity:1;fill:none;fill-opacity:1;fill-rule:nonzero;stroke:url(#linearGradient5775);stroke-width:0.48864153;stroke-linecap:butt;stroke-linejoin:miter;marker:none;marker-start:none;marker-mid:none;marker-end:none;stroke-miterlimit:10;stroke-dasharray:none;stroke-dashoffset:0;stroke-opacity:1;visibility:visible;display:block;overflow:visible;enable-background:accumulate"
       id="path5767"
       sodipodi:cx="10.783379"
       sodipodi:cy="10.863069"
       sodipodi:rx="6.5407376"
       sodipodi:ry="6.5407376"
       d="M 17.324116,10.863069 A 6.5407376,6.5407376 0 1 1 4.242641,10.863069 A 6.5407376,6.5407376 0 1 1 17.324116,10.863069 z"
       transform="matrix(1.9159747,0,0,1.9159747,3.3390551,3.1866349)" />
    <path
       sodipodi:type="inkscape:offset"
       inkscape:radius="-1.0570278"
       inkscape:original="M 23.625 2.5 C 21.452905 2.5357183 22.467139 6.697462 20.34375 7.15625 C 18.220359 7.6150369 17.430585 3.4170245 15.4375 4.28125 C 13.444414 5.1454746 16.004939 8.607301 14.21875 9.84375 C 12.432562 11.080203 10.104397 7.47009 8.59375 9.03125 C 7.0831035 10.592411 10.708303 12.830374 9.53125 14.65625 C 8.3541968 16.482127 4.766975 14.104577 3.96875 16.125 C 3.1705241 18.145425 7.419973 18.800172 7.03125 20.9375 C 6.6425279 23.074829 2.464281 22.202905 2.5 24.375 C 2.5357189 26.547095 6.697463 25.532859 7.15625 27.65625 C 7.6150378 29.779641 3.417025 30.569414 4.28125 32.5625 C 5.1454751 34.555585 8.607299 31.995061 9.84375 33.78125 C 11.080201 35.567439 7.470089 37.895604 9.03125 39.40625 C 10.59241 40.916897 12.830374 37.291696 14.65625 38.46875 C 16.482127 39.645804 14.104577 43.233026 16.125 44.03125 C 18.145425 44.829477 18.800174 40.580027 20.9375 40.96875 C 23.074828 41.357473 22.202903 45.535721 24.375 45.5 C 26.547095 45.464285 25.532858 41.302539 27.65625 40.84375 C 29.779641 40.384961 30.569414 44.582973 32.5625 43.71875 C 34.555583 42.854523 31.995062 39.392699 33.78125 38.15625 C 35.567436 36.919798 37.895605 40.529911 39.40625 38.96875 C 40.916899 37.407588 37.291699 35.169625 38.46875 33.34375 C 39.645802 31.517875 43.233025 33.895423 44.03125 31.875 C 44.829474 29.854576 40.580026 29.199827 40.96875 27.0625 C 41.357471 24.925172 45.535719 25.797096 45.5 23.625 C 45.464282 21.452905 41.302538 22.467142 40.84375 20.34375 C 40.384964 18.220359 44.582976 17.430587 43.71875 15.4375 C 42.854525 13.444414 39.392703 16.004937 38.15625 14.21875 C 36.9198 12.432562 40.529908 10.104396 38.96875 8.59375 C 37.407587 7.083102 35.169627 10.708303 33.34375 9.53125 C 31.517874 8.3541983 33.895422 4.7669754 31.875 3.96875 C 29.854577 3.1705245 29.199828 7.4199731 27.0625 7.03125 C 24.925171 6.6425268 25.797096 2.4642807 23.625 2.5 z M 24 12.5 C 30.216428 12.5 35.5 17.783571 35.5 24 C 35.499999 30.216429 30.216429 35.5 24 35.5 C 17.783569 35.5 12.5 30.21643 12.5 24 C 12.5 17.78357 17.78357 12.5 24 12.5 z "
       xlink:href="#path5665"
       style="opacity:1;fill:none;fill-opacity:1;fill-rule:nonzero;stroke:url(#linearGradient5787);stroke-width:1;stroke-linecap:butt;stroke-linejoin:miter;marker:none;marker-start:none;marker-mid:none;marker-end:none;stroke-miterlimit:10;stroke-dasharray:none;stroke-dashoffset:0;stroke-opacity:1;visibility:visible;display:block;overflow:visible;enable-background:accumulate"
       id="path5777"
       inkscape:href="#path5665"
       d="M 23.65625,3.5625 C 23.451987,3.5658589 23.528742,3.5163841 23.40625,3.71875 C 23.283758,3.9211159 23.140219,4.3920916 23,4.9375 C 22.859781,5.4829084 22.699236,6.097142 22.375,6.71875 C 22.050764,7.340358 21.432772,7.9994654 20.5625,8.1875 C 19.693175,8.3753293 18.864281,8.0561967 18.3125,7.625 C 17.760719,7.1938033 17.383533,6.6561957 17.03125,6.21875 C 16.678967,5.7813043 16.350511,5.4452822 16.15625,5.3125 C 15.961989,5.1797178 16.032083,5.1683364 15.84375,5.25 C 15.657576,5.3307273 15.752901,5.2667436 15.71875,5.5 C 15.684599,5.7332564 15.69824,6.2229559 15.78125,6.78125 C 15.86426,7.3395441 15.995289,7.9564734 15.9375,8.65625 C 15.879711,9.3560266 15.546016,10.21099 14.8125,10.71875 C 14.079673,11.226035 13.174672,11.223065 12.5,11.03125 C 11.825328,10.839435 11.273251,10.523593 10.78125,10.25 C 10.289249,9.9764068 9.8539004,9.7684574 9.625,9.71875 C 9.3960996,9.6690426 9.4854915,9.634769 9.34375,9.78125 C 9.2007636,9.9290177 9.2260907,9.8308695 9.28125,10.0625 C 9.3364093,10.294131 9.5616095,10.732533 9.84375,11.21875 C 10.12589,11.704967 10.482032,12.237012 10.6875,12.90625 C 10.892968,13.575488 10.887675,14.47195 10.40625,15.21875 C 9.9229041,15.968529 9.1039927,16.317471 8.40625,16.40625 C 7.7085073,16.495029 7.0659032,16.431209 6.5,16.375 C 5.9340968,16.318791 5.4593544,16.297501 5.21875,16.34375 C 4.9781456,16.389999 5.0116103,16.312416 4.9375,16.5 C 4.862879,16.688876 4.8588667,16.621558 5,16.8125 C 5.1411333,17.003442 5.5164387,17.31805 5.96875,17.65625 C 6.4210613,17.99445 6.9541278,18.337894 7.40625,18.875 C 7.8583722,19.412106 8.2220497,20.247743 8.0625,21.125 C 7.9034033,21.999769 7.2965564,22.654692 6.6875,23 C 6.0784436,23.345308 5.4448876,23.497582 4.90625,23.65625 C 4.3676124,23.814918 3.9158291,23.964741 3.71875,24.09375 C 3.5216709,24.222759 3.5591216,24.13831 3.5625,24.34375 C 3.565859,24.548013 3.516384,24.471259 3.71875,24.59375 C 3.921116,24.716241 4.3920915,24.859781 4.9375,25 C 5.4829085,25.140219 6.0971419,25.300764 6.71875,25.625 C 7.3403581,25.949236 7.9994659,26.567227 8.1875,27.4375 C 8.3753297,28.306825 8.0561967,29.135719 7.625,29.6875 C 7.1938033,30.239281 6.6561957,30.616467 6.21875,30.96875 C 5.7813043,31.321033 5.4452823,31.649489 5.3125,31.84375 C 5.1797177,32.038011 5.1683364,31.967916 5.25,32.15625 C 5.3307273,32.342424 5.2667436,32.2471 5.5,32.28125 C 5.7332564,32.3154 6.222956,32.301759 6.78125,32.21875 C 7.339544,32.135741 7.9564734,32.004711 8.65625,32.0625 C 9.3560266,32.120289 10.21099,32.453984 10.71875,33.1875 C 11.226034,33.920327 11.223065,34.825328 11.03125,35.5 C 10.839435,36.174672 10.523593,36.726749 10.25,37.21875 C 9.9764069,37.710751 9.7684572,38.1461 9.71875,38.375 C 9.6690428,38.6039 9.6347688,38.514509 9.78125,38.65625 C 9.9290174,38.799236 9.8308696,38.773909 10.0625,38.71875 C 10.29413,38.663591 10.732533,38.438391 11.21875,38.15625 C 11.704967,37.874109 12.237012,37.517968 12.90625,37.3125 C 13.575488,37.107032 14.47195,37.112324 15.21875,37.59375 C 15.968529,38.077096 16.317471,38.896007 16.40625,39.59375 C 16.495029,40.291493 16.431209,40.934097 16.375,41.5 C 16.318791,42.065903 16.297501,42.540646 16.34375,42.78125 C 16.389999,43.021854 16.312416,42.98839 16.5,43.0625 C 16.688877,43.137121 16.621558,43.141133 16.8125,43 C 17.003442,42.858867 17.31805,42.483561 17.65625,42.03125 C 17.99445,41.578939 18.337894,41.045872 18.875,40.59375 C 19.412106,40.141628 20.247743,39.77795 21.125,39.9375 C 21.999769,40.096597 22.654693,40.703444 23,41.3125 C 23.345307,41.921556 23.497582,42.555112 23.65625,43.09375 C 23.814918,43.632388 23.964741,44.084171 24.09375,44.28125 C 24.222759,44.478329 24.138309,44.440879 24.34375,44.4375 C 24.548013,44.434141 24.471259,44.483615 24.59375,44.28125 C 24.716241,44.078885 24.859781,43.607909 25,43.0625 C 25.140219,42.517091 25.300764,41.902858 25.625,41.28125 C 25.949236,40.659642 26.567227,40.000535 27.4375,39.8125 C 28.306825,39.62467 29.135719,39.943803 29.6875,40.375 C 30.239281,40.806197 30.616467,41.343804 30.96875,41.78125 C 31.321033,42.218696 31.649488,42.554717 31.84375,42.6875 C 32.038012,42.820283 31.967917,42.831663 32.15625,42.75 C 32.342424,42.669273 32.247099,42.733257 32.28125,42.5 C 32.315401,42.266743 32.301759,41.777044 32.21875,41.21875 C 32.135741,40.660456 32.004711,40.043526 32.0625,39.34375 C 32.120289,38.643974 32.453984,37.78901 33.1875,37.28125 C 33.920327,36.773965 34.825328,36.776935 35.5,36.96875 C 36.174672,37.160565 36.726748,37.476407 37.21875,37.75 C 37.710752,38.023593 38.1461,38.231543 38.375,38.28125 C 38.6039,38.330957 38.514509,38.365231 38.65625,38.21875 C 38.799237,38.070982 38.773909,38.16913 38.71875,37.9375 C 38.663591,37.70587 38.43839,37.267466 38.15625,36.78125 C 37.87411,36.295034 37.517969,35.762988 37.3125,35.09375 C 37.107031,34.424512 37.112325,33.52805 37.59375,32.78125 C 38.077096,32.031471 38.896008,31.682529 39.59375,31.59375 C 40.291492,31.504971 40.934097,31.568792 41.5,31.625 C 42.065903,31.681208 42.540645,31.702499 42.78125,31.65625 C 43.021855,31.610001 42.98839,31.687584 43.0625,31.5 C 43.137121,31.311124 43.141134,31.378442 43,31.1875 C 42.858866,30.996558 42.483561,30.68195 42.03125,30.34375 C 41.578939,30.00555 41.045872,29.662106 40.59375,29.125 C 40.141628,28.587894 39.77795,27.752257 39.9375,26.875 C 40.096596,26.000231 40.703444,25.345307 41.3125,25 C 41.921556,24.654693 42.555112,24.502418 43.09375,24.34375 C 43.632388,24.185082 44.084171,24.035259 44.28125,23.90625 C 44.478329,23.777241 44.440878,23.86169 44.4375,23.65625 C 44.434141,23.451987 44.483616,23.528741 44.28125,23.40625 C 44.078884,23.283759 43.607909,23.140219 43.0625,23 C 42.517091,22.859781 41.902858,22.699236 41.28125,22.375 C 40.659642,22.050764 40.000534,21.432773 39.8125,20.5625 C 39.624671,19.693175 39.943803,18.864281 40.375,18.3125 C 40.806197,17.760719 41.343804,17.383533 41.78125,17.03125 C 42.218696,16.678967 42.554718,16.350511 42.6875,16.15625 C 42.820282,15.961989 42.831664,16.032084 42.75,15.84375 C 42.669272,15.657575 42.733256,15.752901 42.5,15.71875 C 42.266744,15.684599 41.777044,15.698241 41.21875,15.78125 C 40.660456,15.864259 40.043526,15.995288 39.34375,15.9375 C 38.643974,15.879712 37.789011,15.546015 37.28125,14.8125 C 36.773966,14.079673 36.776935,13.174672 36.96875,12.5 C 37.160565,11.825328 37.476407,11.273251 37.75,10.78125 C 38.023593,10.289249 38.231543,9.8539005 38.28125,9.625 C 38.330957,9.3960995 38.365231,9.4854911 38.21875,9.34375 C 38.070982,9.2007629 38.16913,9.2260908 37.9375,9.28125 C 37.70587,9.3364092 37.267466,9.5616095 36.78125,9.84375 C 36.295034,10.125891 35.762988,10.482031 35.09375,10.6875 C 34.424512,10.892969 33.52805,10.887675 32.78125,10.40625 C 32.031471,9.9229045 31.682529,9.1039925 31.59375,8.40625 C 31.504971,7.7085075 31.568792,7.0659033 31.625,6.5 C 31.681208,5.9340967 31.702499,5.4593547 31.65625,5.21875 C 31.610001,4.9781453 31.687584,5.0116102 31.5,4.9375 C 31.311124,4.8628793 31.378442,4.8588666 31.1875,5 C 30.996558,5.1411334 30.68195,5.5164386 30.34375,5.96875 C 30.00555,6.4210614 29.662106,6.9541279 29.125,7.40625 C 28.587894,7.8583721 27.752257,8.2220498 26.875,8.0625 C 26.000231,7.9034029 25.345307,7.2965564 25,6.6875 C 24.654693,6.0784436 24.502418,5.4448875 24.34375,4.90625 C 24.185082,4.3676125 24.035259,3.9158289 23.90625,3.71875 C 23.777241,3.5216711 23.861691,3.5591216 23.65625,3.5625 z M 24,11.4375 C 30.815366,11.4375 36.5625,17.184633 36.5625,24 C 36.562499,30.815367 30.815367,36.5625 24,36.5625 C 17.184632,36.5625 11.4375,30.815367 11.4375,24 C 11.4375,17.184632 17.184632,11.4375 24,11.4375 z"
       transform="translate(4.8984189e-4,0)" />
  </g>
</svg>
