<?xml version="1.0" encoding="UTF-8" standalone="no"?>
<!-- Created with Inkscape (http://www.inkscape.org/) -->

<svg
   xmlns:dc="http://purl.org/dc/elements/1.1/"
   xmlns:cc="http://creativecommons.org/ns#"
   xmlns:rdf="http://www.w3.org/1999/02/22-rdf-syntax-ns#"
   xmlns:svg="http://www.w3.org/2000/svg"
   xmlns="http://www.w3.org/2000/svg"
   xmlns:xlink="http://www.w3.org/1999/xlink"
   xmlns:sodipodi="http://sodipodi.sourceforge.net/DTD/sodipodi-0.dtd"
   xmlns:inkscape="http://www.inkscape.org/namespaces/inkscape"
   id="svg1"
   sodipodi:docname="codebox_insert.svg"
   viewBox="0 0 60 60"
   sodipodi:version="0.32"
   version="1.0"
   y="0"
   x="0"
   inkscape:version="0.91 r">
  <defs
     id="defs12">
    <linearGradient
       id="linearGradient2378">
      <stop
         id="stop2380"
         offset="0"
         style="stop-color:#ffffff;stop-opacity:1;" />
      <stop
         style="stop-color:#fefede;stop-opacity:0.91836733;"
         offset="0.25"
         id="stop4146" />
      <stop
         style="stop-color:#f5f328;stop-opacity:1;"
         offset="0.5"
         id="stop2386" />
      <stop
         id="stop2382"
         offset="1"
         style="stop-color:#f5f32d;stop-opacity:0.12234043;" />
    </linearGradient>
    <radialGradient
       inkscape:collect="always"
       xlink:href="#linearGradient2378"
       id="radialGradient3722"
       gradientUnits="userSpaceOnUse"
       cx="38.658855"
       cy="9.3411446"
       fx="38.658855"
       fy="9.3411446"
       r="8.341651" />
  </defs>
  <sodipodi:namedview
     id="base"
     bordercolor="#666666"
     inkscape:pageshadow="2"
     inkscape:window-width="1366"
     pagecolor="#ffffff"
     inkscape:zoom="6.9465337"
     inkscape:window-x="0"
     borderopacity="1.0"
     inkscape:cx="40.206217"
     inkscape:cy="34.643892"
     inkscape:window-y="0"
     inkscape:window-height="716"
     inkscape:pageopacity="0.0"
     showgrid="false"
     inkscape:window-maximized="1"
     inkscape:current-layer="svg1" />
  <rect
     id="rect831"
     style="fill:#cccccc;fill-rule:evenodd"
     rx="2.3759193"
     height="36.157131"
     width="45.717308"
     y="12.016244"
     x="7.2638826" />
  <rect
     id="rect837"
     style="fill:none;stroke:#333333;stroke-width:3.28466082;stroke-linecap:round;stroke-linejoin:round"
     rx="2.4951549"
     height="36.157131"
     width="45.717308"
     sodipodi:stroke-cmyk="(0.0000000 0.0000000 0.0000000 0.80000001)"
     y="12.016244"
     x="7.2638826" />
  <metadata
     id="metadata10">
    <rdf:RDF>
      <cc:Work>
        <dc:format>image/svg+xml</dc:format>
        <dc:type
           rdf:resource="http://purl.org/dc/dcmitype/StillImage" />
        <cc:license
           rdf:resource="http://creativecommons.org/publicdomain/zero/1.0/" />
        <dc:publisher>
          <cc:Agent
             rdf:about="http://openclipart.org/">
            <dc:title>Openclipart</dc:title>
          </cc:Agent>
        </dc:publisher>
        <dc:title>ftinline table</dc:title>
        <dc:date>2011-01-31T02:01:35</dc:date>
        <dc:description>Originally uploaded by Danny Allen for OCAL 0.18 this icon is part of the flat theme</dc:description>
        <dc:source>https://openclipart.org/detail/112849/ftinline-table-by-anonymous</dc:source>
        <dc:creator>
          <cc:Agent>
            <dc:title>Anonymous</dc:title>
          </cc:Agent>
        </dc:creator>
        <dc:subject>
          <rdf:Bag>
            <rdf:li>flat</rdf:li>
            <rdf:li>icon</rdf:li>
            <rdf:li>theme</rdf:li>
          </rdf:Bag>
        </dc:subject>
      </cc:Work>
      <cc:License
         rdf:about="http://creativecommons.org/publicdomain/zero/1.0/">
        <cc:permits
           rdf:resource="http://creativecommons.org/ns#Reproduction" />
        <cc:permits
           rdf:resource="http://creativecommons.org/ns#Distribution" />
        <cc:permits
           rdf:resource="http://creativecommons.org/ns#DerivativeWorks" />
      </cc:License>
    </rdf:RDF>
  </metadata>
  <text
     xml:space="preserve"
     style="font-style:normal;font-weight:normal;font-size:30px;line-height:125%;font-family:Sans;letter-spacing:0px;word-spacing:0px;fill:#000000;fill-opacity:1;stroke:none;stroke-width:1px;stroke-linecap:butt;stroke-linejoin:miter;stroke-opacity:1"
     x="19.290195"
     y="4.8645878"
     id="text3343"
     sodipodi:linespacing="125%"><tspan
       sodipodi:role="line"
       id="tspan3345"
       x="19.290195"
       y="4.8645878" /></text>
  <g
     id="g3341"
     transform="matrix(0.40257973,0,0,0.58152125,9.7420264,17.426237)"
     style="fill:#d45500">
    <path
       d="M 2.343,25.944 C 0.938,25.006 0,23.133 0,21.492 0,19.852 0.703,18.33 2.46,17.51 l -0.117,0 C 10.66,12.59 22.258,6.03 29.99,1.461 l 0,10.895 c -3.046,1.757 -7.146,3.749 -17.455,9.255 l 0.117,0.116 c 5.506,2.461 11.832,6.209 17.338,9.489 l 0,11.012 L 2.343,25.944 Z"
       inkscape:connector-curvature="0"
       id="path3051"
       style="fill:#d45500" />
    <path
       d="m 97.657,17.744 c 1.404,0.938 2.343,2.812 2.343,4.452 0,1.64 -0.703,3.162 -2.461,3.982 l 0.118,0 C 89.34,31.098 77.741,37.658 70.01,42.227 l 0,-10.895 c 3.046,-1.756 7.146,-3.748 17.455,-9.254 L 87.348,21.962 C 81.843,19.501 75.516,15.753 70.01,12.473 l 0,-11.012 27.647,16.283 z"
       inkscape:connector-curvature="0"
       id="path3053"
       style="fill:#d45500" />
    <path
       d="m 46.401,43.688 -7.011,0 L 53.48,0 60.61,0 46.401,43.688 Z"
       inkscape:connector-curvature="0"
       id="path3055"
       style="fill:#d45500" />
  </g>
  <g
     id="g14103"
     transform="matrix(1.4499463,0,0,1.4487606,-10.253021,-4.3537384)">
    <circle
       r="8.341651"
       cy="9.3411446"
       cx="38.658855"
       style="fill:url(#radialGradient3722);fill-opacity:1;fill-rule:evenodd;stroke:none"
       id="path2388"
       transform="matrix(1.14985,0,0,1.14985,-7.595328,0.490895)" />
    <path
       sodipodi:type="star"
       style="color:#000000;display:inline;overflow:visible;visibility:visible;fill:#ffffff;fill-opacity:1;fill-rule:evenodd;stroke:none;stroke-width:0.5;marker:none"
       id="path1345"
       sodipodi:sides="5"
       sodipodi:cx="36.9375"
       sodipodi:cy="11.125"
       sodipodi:r1="8.755579"
       sodipodi:r2="5.0676599"
       sodipodi:arg1="0.52359878"
       sodipodi:arg2="1.1519173"
       inkscape:flatsided="false"
       inkscape:rounded="0.18352206"
       inkscape:randomized="0"
       d="m 44.520054,15.50279 c -0.507171,0.878446 -4.594703,-0.160823 -5.521351,0.251748 -0.926648,0.41257 -2.889414,4.145604 -3.88159,3.934711 -0.992177,-0.210894 -1.266891,-4.419519 -1.945618,-5.173323 -0.678728,-0.753803 -4.835582,-1.466933 -4.94161,-2.475719 -0.106028,-1.008786 3.811722,-2.5705906 4.318893,-3.4490369 0.507171,-0.8784463 -0.09914,-5.0522193 0.827507,-5.4647895 0.926648,-0.4125703 3.622664,2.8308064 4.614841,3.0417001 0.992176,0.2108936 4.77431,-1.6555099 5.453037,-0.9017066 0.678728,0.7538034 -1.572792,4.3201254 -1.466764,5.3289109 0.106027,1.008786 3.049826,4.029058 2.542655,4.907505 z"
       transform="matrix(0.674116,0.299577,-0.299577,0.674116,15.46413,-7.192469)" />
  </g>
</svg>
