<?xml version="1.0" encoding="UTF-8"?>
<!-- Created with Inkscape (http://www.inkscape.org/) -->
<svg id="svg2527" width="48" height="48" version="1.0" xmlns="http://www.w3.org/2000/svg" xmlns:xlink="http://www.w3.org/1999/xlink">
 <defs id="defs2529">
  <linearGradient id="linearGradient3326" x1="32.036" x2="32.036" y1="19" y2="47.012" gradientTransform="matrix(.93928 .34315 -.34315 .93928 -1.7937 -25.634)" gradientUnits="userSpaceOnUse">
   <stop id="stop3311-4" style="stop-color:#f6f6f6" offset="0"/>
   <stop id="stop3313-8" style="stop-color:#d2d2d2" offset="1"/>
  </linearGradient>
  <linearGradient id="linearGradient3328" x1="25.923" x2="25.923" y1="19" y2="47.045" gradientTransform="matrix(.93928 .34315 -.34315 .93928 -1.7937 -25.634)" gradientUnits="userSpaceOnUse">
   <stop id="stop3399-0" style="stop-color:#aaa" offset="0"/>
   <stop id="stop3401-3" style="stop-color:#8c8c8c" offset="1"/>
  </linearGradient>
  <linearGradient id="linearGradient2868" x1="86.133" x2="84.639" y1="105.1" y2="20.895" gradientTransform="matrix(.2014 0 0 .2014 3.1103 3.3117)" gradientUnits="userSpaceOnUse">
   <stop id="stop5130-4" style="stop-color:#fff" offset="0"/>
   <stop id="stop5132-4" style="stop-color:#959595" offset="1"/>
  </linearGradient>
  <linearGradient id="linearGradient3218" x1="34" x2="34" y1="1" y2="23" gradientTransform="translate(-24.5)" gradientUnits="userSpaceOnUse">
   <stop id="stop3311-8" style="stop-color:#f6f6f6" offset="0"/>
   <stop id="stop3313-88" style="stop-color:#d2d2d2" offset="1"/>
  </linearGradient>
  <linearGradient id="linearGradient3228" x1="40" x2="40" y1="1" y2="23.02" gradientTransform="translate(-24.5)" gradientUnits="userSpaceOnUse">
   <stop id="stop3399-7" style="stop-color:#aaa" offset="0"/>
   <stop id="stop3401-7" style="stop-color:#8c8c8c" offset="1"/>
  </linearGradient>
  <linearGradient id="linearGradient3241" x1="86.133" x2="84.639" y1="105.1" y2="20.895" gradientTransform="matrix(.15623 0 0 .15623 2.0012 2.1574)" gradientUnits="userSpaceOnUse">
   <stop id="stop5130-43" style="stop-color:#eee" offset="0"/>
   <stop id="stop5132-0" style="stop-color:#a2a2a2" offset="1"/>
  </linearGradient>
  <linearGradient id="linearGradient3262" x1="25" x2="25" y2="16" gradientTransform="translate(-17.058)" gradientUnits="userSpaceOnUse">
   <stop id="stop3311-2" style="stop-color:#f6f6f6" offset="0"/>
   <stop id="stop3313-9" style="stop-color:#ccc" offset="1"/>
  </linearGradient>
  <linearGradient id="linearGradient3264" x1="21" x2="21" y2="16.005" gradientTransform="translate(-17.058)" gradientUnits="userSpaceOnUse">
   <stop id="stop3399-8" style="stop-color:#aaa" offset="0"/>
   <stop id="stop3401-1" style="stop-color:#8c8c8c" offset="1"/>
  </linearGradient>
  <linearGradient id="linearGradient3260" x1="86.133" x2="84.639" y1="105.1" y2="20.895" gradientTransform="matrix(.096142 0 0 .096142 1.8469 1.943)" gradientUnits="userSpaceOnUse">
   <stop id="stop5130-1" style="stop-color:#e5e5e5" offset="0"/>
   <stop id="stop5132-1" style="stop-color:#ababab" offset="1"/>
  </linearGradient>
 </defs>
 <g id="layer1" transform="translate(16 12)">
  <path id="rect2576" d="m18.637 2.5905c-0.70328-0.25693-1.4957 0.08705-1.7526 0.79032l-0.60052 1.6437c-0.49918-0.013219-0.99396 0.00248-1.4845 0.056512l-0.72653-1.563c-0.31562-0.67897-1.1115-0.96975-1.7905-0.65413l-3.9167 1.7963c-0.67897 0.31561-0.96974 1.1115-0.65413 1.7905l0.72653 1.563c-0.3651 0.34563-0.69335 0.73035-1.0109 1.1278l-1.6144-0.58979c-0.70328-0.25693-1.4957 0.087049-1.7526 0.79032l-1.4798 4.0506c-0.25693 0.70328 0.12713 1.4771 0.8304 1.734l1.6144 0.58979c-0.013469 0.50858-0.010523 1.0143 0.045789 1.5139l-1.563 0.72653c-0.67897 0.31561-0.96975 1.1115-0.65413 1.7905l1.8364 3.8981c0.31561 0.67897 1.1115 0.96974 1.7905 0.65413l1.563-0.72653c0.34021 0.35755 0.70835 0.6885 1.0985 1.0002l-0.60051 1.6437c-0.25693 0.70328 0.12713 1.4771 0.8304 1.734l4.0213 1.4691c0.70328 0.25693 1.4663-0.09777 1.7233-0.80105l0.60052-1.6437c0.50858 0.01347 1.0143 0.01052 1.5139-0.04579l0.72653 1.563c0.31561 0.67897 1.1115 0.96974 1.7905 0.65413l3.9167-1.7963c0.67897-0.31561 0.96974-1.1115 0.65413-1.7905l-0.74516-1.603c0.35755-0.34021 0.6885-0.70835 1.0002-1.0985l1.6437 0.60052c0.70328 0.25693 1.4663-0.09778 1.7233-0.80105l1.4798-4.0506c0.25693-0.70328-0.09778-1.4663-0.80105-1.7233l-1.6437-0.60051c0.01322-0.49918-0.0025-0.99396-0.05651-1.4845l1.603-0.74516c0.67897-0.31561 0.96974-1.1115 0.65413-1.7905l-1.8364-3.8981c-0.31561-0.67897-1.1115-0.96975-1.7905-0.65413l-1.563 0.72653c-0.34563-0.3651-0.73035-0.69335-1.1278-1.0109l0.60052-1.6437c0.25693-0.70327-0.097778-1.4663-0.80105-1.7233l-4.0213-1.4691zm-1.4355 10.122c1.8147 0.66297 2.7494 2.6738 2.0865 4.4885-0.66297 1.8147-2.6738 2.7494-4.4885 2.0865-1.8147-0.66297-2.7494-2.6738-2.0865-4.4885 0.66297-1.8147 2.6738-2.7494 4.4885-2.0865z" style="display:block;fill:url(#linearGradient3326);stroke-linejoin:round;stroke:url(#linearGradient3328)"/>
  <path id="path3315" d="m16 8c-4.4113 0-8 3.5887-8 8 0 4.4113 3.5887 8 8 8s8-3.5887 8-8c0-4.4113-3.5887-8-8-8zm0 3.6923c2.3778 0 4.3077 1.9298 4.3077 4.3077 0 2.3778-1.9298 4.3077-4.3077 4.3077-2.3778 0-4.3077-1.9298-4.3077-4.3077 0-2.3778 1.9298-4.3077 4.3077-4.3077z" style="opacity:.05"/>
  <path id="path28" d="m16 7.6207c-4.6204 0-8.3793 3.759-8.3793 8.3793 0 4.6204 3.759 8.3793 8.3793 8.3793s8.3793-3.759 8.3793-8.3793c0-4.6204-3.759-8.3793-8.3793-8.3793z" style="fill:none;stroke:url(#linearGradient2868)"/>
 </g>
 <g id="layer1-3" transform="translate(2,-1)">
  <g id="g2486">
   <path id="rect2426" d="m10.188 1.5c-0.38837 0-0.6875 0.29913-0.6875 0.6875v1.6875c-0.51167 0.15722-1.0032 0.37877-1.4688 0.625l-1.1875-1.1875c-0.27462-0.27462-0.72538-0.27462-1 0l-2.5312 2.5312c-0.27462 0.27462-0.27462 0.72538 0 1l1.1875 1.1875c-0.24623 0.46557-0.46778 0.95708-0.625 1.4688h-1.6875c-0.38837 0-0.6875 0.29913-0.6875 0.6875v3.625c0 0.38837 0.29913 0.6875 0.6875 0.6875h1.6875c0.15722 0.51167 0.37877 1.0032 0.625 1.4688l-1.1875 1.1875c-0.27462 0.27462-0.27462 0.72538 0 1l2.5312 2.5312c0.27462 0.27462 0.72538 0.27462 1 0l1.1875-1.1875c0.46557 0.24623 0.95708 0.46778 1.4688 0.625v1.6875c0 0.38837 0.29914 0.6875 0.6875 0.6875h3.625c0.38837 0 0.6875-0.29913 0.6875-0.6875v-1.6875c0.51167-0.15722 1.0032-0.37877 1.4688-0.625l1.1875 1.1875c0.27462 0.27462 0.72538 0.27462 1 0l2.5312-2.5312c0.27462-0.27462 0.27462-0.72538 0-1l-1.1875-1.1875c0.24623-0.46556 0.46778-0.95708 0.625-1.4688h1.6875c0.38837 0 0.6875-0.29913 0.6875-0.6875v-3.625c0-0.38837-0.29913-0.6875-0.6875-0.6875h-1.6875c-0.15722-0.51167-0.37877-1.0032-0.625-1.4688l1.1875-1.1875c0.27462-0.27462 0.27462-0.72538 0-1l-2.5312-2.5312c-0.27462-0.27462-0.72538-0.27462-1 0l-1.1875 1.1875c-0.46556-0.24623-0.95708-0.46778-1.4688-0.625v-1.6875c0-0.38837-0.29913-0.6875-0.6875-0.6875h-3.625zm1.8125 7.5c1.656 0 3 1.344 3 3s-1.344 3-3 3-3-1.344-3-3 1.344-3 3-3z" style="display:block;fill:url(#linearGradient3218);stroke-linejoin:round;stroke:url(#linearGradient3228)"/>
   <path id="path3315-9" d="m12 6c-3.3085-2e-7 -6 2.6915-6 6 0 3.3085 2.6915 6 6 6 3.3085-1e-6 6-2.6915 6-6 0-3.3085-2.6915-6-6-6zm0 2.7692c1.7834 0 3.2308 1.4474 3.2308 3.2308s-1.4474 3.2308-3.2308 3.2308-3.2308-1.4474-3.2308-3.2308 1.4474-3.2308 3.2308-3.2308z" style="opacity:.05"/>
   <path id="path28-2" d="m12 5.5c-3.5841 0-6.5 2.9159-6.5 6.5 0 3.5841 2.9159 6.5 6.5 6.5 3.5841 0 6.5-2.9159 6.5-6.5 0-3.5841-2.9159-6.5-6.5-6.5z" style="fill:none;stroke:url(#linearGradient3241)"/>
  </g>
 </g>
 <g id="layer1-0" transform="translate(3,29)">
  <g id="g2479">
   <path id="path2426" d="m6.9375 0.5c-0.24842 0-0.4375 0.18908-0.4375 0.4375v1.25c-0.5539 0.1422-1.0512 0.37188-1.5312 0.65625l-0.90625-0.90625c-0.17566-0.17566-0.44934-0.17566-0.625 0l-1.5 1.5c-0.17566 0.17566-0.17566 0.44934 0 0.625l0.90625 0.90625c-0.28437 0.48009-0.51405 0.97735-0.65625 1.5312h-1.25c-0.24842 0-0.4375 0.18908-0.4375 0.4375v2.125c1e-8 0.24842 0.18908 0.4375 0.4375 0.4375h1.25c0.1422 0.5539 0.37188 1.0512 0.65625 1.5312l-0.90625 0.90625c-0.17566 0.17566-0.17566 0.44934 0 0.625l1.5 1.5c0.17566 0.17566 0.44934 0.17566 0.625 0l0.90625-0.90625c0.48009 0.28437 0.97735 0.51405 1.5312 0.65625v1.25c1e-7 0.24842 0.18908 0.4375 0.4375 0.4375h2.125c0.24842 0 0.4375-0.18908 0.4375-0.4375v-1.25c0.5539-0.1422 1.0512-0.37188 1.5312-0.65625l0.90625 0.90625c0.17566 0.17566 0.44934 0.17566 0.625 0l1.5-1.5c0.17566-0.17566 0.17566-0.44934 0-0.625l-0.90625-0.90625c0.28437-0.48009 0.51405-0.97735 0.65625-1.5312h1.25c0.24842 0 0.4375-0.18908 0.4375-0.4375v-2.125c0-0.24842-0.18908-0.4375-0.4375-0.4375h-1.25c-0.1422-0.5539-0.37188-1.0512-0.65625-1.5312l0.90625-0.90625c0.17566-0.17566 0.17566-0.44934 0-0.625l-1.5-1.5c-0.17566-0.17566-0.44934-0.17566-0.625 0l-0.90625 0.90625c-0.48009-0.28437-0.97735-0.51405-1.5312-0.65625v-1.25c-4e-7 -0.24842-0.18908-0.4375-0.4375-0.4375h-2.125zm1.0625 5.5c1.104 0 2 0.896 2 2s-0.896 2-2 2-2-0.896-2-2 0.896-2 2-2z" style="display:block;fill:url(#linearGradient3262);stroke-linejoin:round;stroke:url(#linearGradient3264)"/>
   <path id="path3315-3" d="m8 3.4651c-2.5006 0-4.5349 2.0343-4.5349 4.5349s2.0343 4.5349 4.5349 4.5349c2.5006-1e-6 4.5349-2.0343 4.5349-4.5349s-2.0343-4.5349-4.5349-4.5349zm0 2.093c1.3479 0 2.4419 1.094 2.4419 2.4419s-1.094 2.4419-2.4419 2.4419-2.4419-1.094-2.4419-2.4419 1.094-2.4419 2.4419-2.4419z" style="opacity:.05"/>
   <path id="path28-4" d="m8 4c-2.2056 0-4 1.7944-4 4 0 2.2056 1.7944 4 4 4 2.2056 0 4-1.7944 4-4 0-2.2056-1.7944-4-4-4z" style="fill:none;stroke:url(#linearGradient3260)"/>
  </g>
 </g>
</svg>
