<?xml version="1.0" encoding="iso-8859-1"?>
<!-- Generator: Adobe Illustrator 19.0.0, SVG Export Plug-In . SVG Version: 6.00 Build 0)  -->
<svg version="1.1" id="Layer_1" xmlns="http://www.w3.org/2000/svg" xmlns:xlink="http://www.w3.org/1999/xlink" x="0px" y="0px"
	 viewBox="0 0 512.667 512.667" style="enable-background:new 0 0 512.667 512.667;" xml:space="preserve">
<g>
	<g>
		<g>
			<path d="M416,480.333H10.667C4.8,480.333,0,485.133,0,491c0,5.867,4.8,10.667,10.667,10.667H416
				c5.867,0,10.667-4.8,10.667-10.667C426.667,485.133,421.867,480.333,416,480.333z"/>
			<path d="M10.667,32.333H416c5.867,0,10.667-4.8,10.667-10.667C426.667,15.8,421.867,11,416,11H10.667C4.8,11,0,15.8,0,21.667
				C0,27.533,4.693,32.333,10.667,32.333z"/>
			<path d="M10.667,96.333H320c5.867,0,10.667-4.8,10.667-10.667C330.667,79.8,325.867,75,320,75H10.667C4.8,75,0,79.8,0,85.667
				C0,91.533,4.693,96.333,10.667,96.333z"/>
			<path d="M10.667,160.333H320c5.867,0,10.667-4.8,10.667-10.667c0-5.867-4.8-10.667-10.667-10.667H10.667
				C4.8,139,0,143.8,0,149.667C0,155.533,4.693,160.333,10.667,160.333z"/>
			<path d="M10.667,235H320c5.867,0,10.667-4.8,10.667-10.667c0-5.867-4.8-10.667-10.667-10.667H10.667
				C4.8,213.667,0,218.467,0,224.333C0,230.2,4.693,235,10.667,235z"/>
			<path d="M10.667,299H320c5.867,0,10.667-4.8,10.667-10.667c0-5.867-4.8-10.667-10.667-10.667H10.667
				C4.8,277.667,0,282.467,0,288.333C0,294.2,4.693,299,10.667,299z"/>
			<path d="M10.667,373.667H320c5.867,0,10.667-4.8,10.667-10.667s-4.8-10.667-10.667-10.667H10.667C4.8,352.333,0,357.133,0,363
				S4.693,373.667,10.667,373.667z"/>
			<path d="M10.667,437.667H320c5.867,0,10.667-4.8,10.667-10.667c0-5.867-4.8-10.667-10.667-10.667H10.667
				C4.8,416.333,0,421.133,0,427C0,432.867,4.693,437.667,10.667,437.667z"/>
			<path d="M509.547,247.8L391.68,131.213c-4.16-4.16-10.987-4.053-15.04,0.107c-1.92,2.027-3.093,4.693-3.093,7.467v234.667
				c0,5.867,4.8,10.667,10.667,10.667c2.88,0,5.547-1.173,7.573-3.093l117.76-118.08C513.707,258.787,513.707,251.96,509.547,247.8z
				 M394.88,347.853V164.6l92.053,91.093L394.88,347.853z"/>
		</g>
	</g>
</g>
<g>
</g>
<g>
</g>
<g>
</g>
<g>
</g>
<g>
</g>
<g>
</g>
<g>
</g>
<g>
</g>
<g>
</g>
<g>
</g>
<g>
</g>
<g>
</g>
<g>
</g>
<g>
</g>
<g>
</g>
</svg>
