<?xml version="1.0" encoding="iso-8859-1"?>
<!-- Generator: Adobe Illustrator 19.0.0, SVG Export Plug-In . SVG Version: 6.00 Build 0)  -->
<svg version="1.1" id="Layer_1" xmlns="http://www.w3.org/2000/svg" xmlns:xlink="http://www.w3.org/1999/xlink" x="0px" y="0px"
	 viewBox="0 0 511.92 511.92" style="enable-background:new 0 0 511.92 511.92;" xml:space="preserve">
<g>
	<g>
		<g>
			<path d="M501.253,479.96H95.92c-5.867,0-10.667,4.8-10.667,10.667c0,5.867,4.8,10.667,10.667,10.667h405.333
				c5.867,0,10.667-4.8,10.667-10.667C511.92,484.76,507.12,479.96,501.253,479.96z"/>
			<path d="M95.92,31.96h405.333c5.867,0,10.667-4.8,10.667-10.667c0-5.867-4.8-10.667-10.667-10.667H95.92
				c-5.867,0-10.667,4.8-10.667,10.667C85.253,27.16,90.053,31.96,95.92,31.96z"/>
			<path d="M501.253,74.627H202.587c-5.867,0-10.667,4.8-10.667,10.667c0,5.867,4.8,10.667,10.667,10.667h298.667
				c5.867,0,10.667-4.8,10.667-10.667C511.92,79.427,507.12,74.627,501.253,74.627z"/>
			<path d="M501.253,138.627H202.587c-5.867,0-10.667,4.8-10.667,10.667c0,5.867,4.8,10.667,10.667,10.667h298.667
				c5.867,0,10.667-4.8,10.667-10.667C511.92,143.427,507.12,138.627,501.253,138.627z"/>
			<path d="M501.253,213.293H202.587c-5.867,0-10.667,4.8-10.667,10.667c0,5.867,4.8,10.667,10.667,10.667h298.667
				c5.867,0,10.667-4.8,10.667-10.667C511.92,218.093,507.12,213.293,501.253,213.293z"/>
			<path d="M501.253,277.293H202.587c-5.867,0-10.667,4.8-10.667,10.667c0,5.867,4.8,10.667,10.667,10.667h298.667
				c5.867,0,10.667-4.8,10.667-10.667C511.92,282.093,507.12,277.293,501.253,277.293z"/>
			<path d="M501.253,351.96H202.587c-5.867,0-10.667,4.8-10.667,10.667s4.8,10.667,10.667,10.667h298.667
				c5.867,0,10.667-4.8,10.667-10.667S507.12,351.96,501.253,351.96z"/>
			<path d="M501.253,415.96H202.587c-5.867,0-10.667,4.8-10.667,10.667c0,5.867,4.8,10.667,10.667,10.667h298.667
				c5.867,0,10.667-4.8,10.667-10.667C511.92,420.76,507.12,415.96,501.253,415.96z"/>
			<path d="M127.92,383.96c5.867,0,10.667-4.8,10.667-10.667V138.627c0-5.867-4.8-10.667-10.667-10.667
				c-2.773,0-5.547,1.067-7.467,3.093L3.12,247.64c-4.16,4.16-4.16,10.88,0,15.04l117.333,118.08
				C122.373,382.787,125.147,383.96,127.92,383.96z M117.253,347.48l-91.627-92.16l91.627-91.093V347.48z"/>
		</g>
	</g>
</g>
<g>
</g>
<g>
</g>
<g>
</g>
<g>
</g>
<g>
</g>
<g>
</g>
<g>
</g>
<g>
</g>
<g>
</g>
<g>
</g>
<g>
</g>
<g>
</g>
<g>
</g>
<g>
</g>
<g>
</g>
</svg>
