<?xml version="1.0" encoding="UTF-8" standalone="no"?>
<!-- Generator: Adobe Illustrator 15.0.0, SVG Export Plug-In . SVG Version: 6.00 Build 0)  -->

<svg
   xmlns:dc="http://purl.org/dc/elements/1.1/"
   xmlns:cc="http://creativecommons.org/ns#"
   xmlns:rdf="http://www.w3.org/1999/02/22-rdf-syntax-ns#"
   xmlns:svg="http://www.w3.org/2000/svg"
   xmlns="http://www.w3.org/2000/svg"
   xmlns:sodipodi="http://sodipodi.sourceforge.net/DTD/sodipodi-0.dtd"
   xmlns:inkscape="http://www.inkscape.org/namespaces/inkscape"
   version="1.1"
   id="Layer_1"
   inkscape:version="0.48.4 r9939"
   sodipodi:docname="list_todo.svg"
   x="0px"
   y="0px"
   width="489.309px"
   height="494.244px"
   viewBox="0 0 489.309 494.244"
   enable-background="new 0 0 489.309 494.244"
   xml:space="preserve"><metadata
     id="metadata76"><rdf:RDF><cc:Work
         rdf:about=""><dc:format>image/svg+xml</dc:format><dc:type
           rdf:resource="http://purl.org/dc/dcmitype/StillImage" /></cc:Work></rdf:RDF></metadata><defs
     id="defs74" /><sodipodi:namedview
     pagecolor="#ffffff"
     bordercolor="#666666"
     borderopacity="1"
     objecttolerance="10"
     gridtolerance="10"
     guidetolerance="10"
     inkscape:pageopacity="0"
     inkscape:pageshadow="2"
     inkscape:window-width="1366"
     inkscape:window-height="720"
     id="namedview72"
     showgrid="false"
     inkscape:zoom="1.2436362"
     inkscape:cx="161.88408"
     inkscape:cy="248.2502"
     inkscape:window-x="0"
     inkscape:window-y="0"
     inkscape:window-maximized="1"
     inkscape:current-layer="Layer_1" /><inkscape:perspective
     sodipodi:type="inkscape:persp3d"
     inkscape:vp_x="0 : 247.12199 : 1"
     inkscape:vp_y="0 : 1000 : 0"
     inkscape:vp_z="489.31 : 247.12199 : 1"
     id="perspective248"
     inkscape:persp3d-origin="244.655 : 164.748 : 1" /><inkscape:perspective
     sodipodi:type="inkscape:persp3d"
     inkscape:vp_x="0 : 24 : 1"
     inkscape:vp_y="0 : 1000 : 0"
     inkscape:vp_z="48 : 24 : 1"
     id="perspective3079"
     inkscape:persp3d-origin="24 : 16 : 1" /><inkscape:perspective
     sodipodi:type="inkscape:persp3d"
     inkscape:vp_x="0 : 0.5 : 1"
     inkscape:vp_y="0 : 1000 : 0"
     inkscape:vp_z="1 : 0.5 : 1"
     id="perspective2910"
     inkscape:persp3d-origin="0.5 : 0.33333333 : 1" /><inkscape:perspective
     sodipodi:type="inkscape:persp3d"
     inkscape:vp_x="0 : 0.5 : 1"
     inkscape:vp_y="0 : 1000 : 0"
     inkscape:vp_z="1 : 0.5 : 1"
     id="perspective2871"
     inkscape:persp3d-origin="0.5 : 0.33333333 : 1" /><inkscape:perspective
     sodipodi:type="inkscape:persp3d"
     inkscape:vp_x="0 : 0.5 : 1"
     inkscape:vp_y="0 : 1000 : 0"
     inkscape:vp_z="1 : 0.5 : 1"
     id="perspective2949"
     inkscape:persp3d-origin="0.5 : 0.33333333 : 1" /><inkscape:perspective
     sodipodi:type="inkscape:persp3d"
     inkscape:vp_x="0 : 0.5 : 1"
     inkscape:vp_y="0 : 1000 : 0"
     inkscape:vp_z="1 : 0.5 : 1"
     id="perspective4045"
     inkscape:persp3d-origin="0.5 : 0.33333333 : 1" /><inkscape:perspective
     sodipodi:type="inkscape:persp3d"
     inkscape:vp_x="0 : 0.5 : 1"
     inkscape:vp_y="0 : 1000 : 0"
     inkscape:vp_z="1 : 0.5 : 1"
     id="perspective2935"
     inkscape:persp3d-origin="0.5 : 0.33333333 : 1" /><inkscape:perspective
     sodipodi:type="inkscape:persp3d"
     inkscape:vp_x="0 : 0.5 : 1"
     inkscape:vp_y="0 : 1000 : 0"
     inkscape:vp_z="1 : 0.5 : 1"
     id="perspective3899"
     inkscape:persp3d-origin="0.5 : 0.33333333 : 1" /><inkscape:perspective
     sodipodi:type="inkscape:persp3d"
     inkscape:vp_x="0 : 0.5 : 1"
     inkscape:vp_y="0 : 1000 : 0"
     inkscape:vp_z="1 : 0.5 : 1"
     id="perspective3738"
     inkscape:persp3d-origin="0.5 : 0.33333333 : 1" /><inkscape:perspective
     sodipodi:type="inkscape:persp3d"
     inkscape:vp_x="0 : 24 : 1"
     inkscape:vp_y="0 : 1000 : 0"
     inkscape:vp_z="48 : 24 : 1"
     id="perspective57"
     inkscape:persp3d-origin="24 : 16 : 1" /><inkscape:perspective
     sodipodi:type="inkscape:persp3d"
     inkscape:vp_x="0 : 0.5 : 1"
     inkscape:vp_y="0 : 1000 : 0"
     inkscape:vp_z="1 : 0.5 : 1"
     id="perspective3254"
     inkscape:persp3d-origin="0.5 : 0.33333333 : 1" /><inkscape:perspective
     sodipodi:type="inkscape:persp3d"
     inkscape:vp_x="0 : 0.5 : 1"
     inkscape:vp_y="0 : 1000 : 0"
     inkscape:vp_z="1 : 0.5 : 1"
     id="perspective2880"
     inkscape:persp3d-origin="0.5 : 0.33333333 : 1" /><inkscape:perspective
     sodipodi:type="inkscape:persp3d"
     inkscape:vp_x="0 : 0.5 : 1"
     inkscape:vp_y="0 : 1000 : 0"
     inkscape:vp_z="1 : 0.5 : 1"
     id="perspective2949-7"
     inkscape:persp3d-origin="0.5 : 0.33333333 : 1" /><inkscape:perspective
     sodipodi:type="inkscape:persp3d"
     inkscape:vp_x="0 : 0.5 : 1"
     inkscape:vp_y="0 : 1000 : 0"
     inkscape:vp_z="1 : 0.5 : 1"
     id="perspective4045-3"
     inkscape:persp3d-origin="0.5 : 0.33333333 : 1" /><inkscape:perspective
     sodipodi:type="inkscape:persp3d"
     inkscape:vp_x="0 : 0.5 : 1"
     inkscape:vp_y="0 : 1000 : 0"
     inkscape:vp_z="1 : 0.5 : 1"
     id="perspective2935-8"
     inkscape:persp3d-origin="0.5 : 0.33333333 : 1" /><inkscape:perspective
     sodipodi:type="inkscape:persp3d"
     inkscape:vp_x="0 : 0.5 : 1"
     inkscape:vp_y="0 : 1000 : 0"
     inkscape:vp_z="1 : 0.5 : 1"
     id="perspective3899-8"
     inkscape:persp3d-origin="0.5 : 0.33333333 : 1" /><inkscape:perspective
     sodipodi:type="inkscape:persp3d"
     inkscape:vp_x="0 : 0.5 : 1"
     inkscape:vp_y="0 : 1000 : 0"
     inkscape:vp_z="1 : 0.5 : 1"
     id="perspective3738-1"
     inkscape:persp3d-origin="0.5 : 0.33333333 : 1" /><inkscape:perspective
     sodipodi:type="inkscape:persp3d"
     inkscape:vp_x="0 : 24 : 1"
     inkscape:vp_y="0 : 1000 : 0"
     inkscape:vp_z="48 : 24 : 1"
     id="perspective57-2"
     inkscape:persp3d-origin="24 : 16 : 1" /><inkscape:perspective
     sodipodi:type="inkscape:persp3d"
     inkscape:vp_x="0 : 0.5 : 1"
     inkscape:vp_y="0 : 1000 : 0"
     inkscape:vp_z="1 : 0.5 : 1"
     id="perspective3667"
     inkscape:persp3d-origin="0.5 : 0.33333333 : 1" /><inkscape:perspective
     sodipodi:type="inkscape:persp3d"
     inkscape:vp_x="0 : 0.5 : 1"
     inkscape:vp_y="0 : 1000 : 0"
     inkscape:vp_z="1 : 0.5 : 1"
     id="perspective3830"
     inkscape:persp3d-origin="0.5 : 0.33333333 : 1" /><inkscape:perspective
     sodipodi:type="inkscape:persp3d"
     inkscape:vp_x="0 : 526.18109 : 1"
     inkscape:vp_y="0 : 1000 : 0"
     inkscape:vp_z="744.09448 : 526.18109 : 1"
     id="perspective2390"
     inkscape:persp3d-origin="372.04724 : 350.78739 : 1" /><inkscape:perspective
     sodipodi:type="inkscape:persp3d"
     inkscape:vp_x="0 : 526.18109 : 1"
     inkscape:vp_y="0 : 1000 : 0"
     inkscape:vp_z="744.09448 : 526.18109 : 1"
     id="perspective10"
     inkscape:persp3d-origin="372.04724 : 350.78739 : 1" /><inkscape:perspective
     sodipodi:type="inkscape:persp3d"
     inkscape:vp_x="0 : 0.5 : 1"
     inkscape:vp_y="0 : 1000 : 0"
     inkscape:vp_z="1 : 0.5 : 1"
     id="perspective3353"
     inkscape:persp3d-origin="0.5 : 0.33333333 : 1" /><inkscape:perspective
     sodipodi:type="inkscape:persp3d"
     inkscape:vp_x="0 : 0.5 : 1"
     inkscape:vp_y="0 : 1000 : 0"
     inkscape:vp_z="1 : 0.5 : 1"
     id="perspective3353-3"
     inkscape:persp3d-origin="0.5 : 0.33333333 : 1" /><inkscape:perspective
     sodipodi:type="inkscape:persp3d"
     inkscape:vp_x="0 : 0.5 : 1"
     inkscape:vp_y="0 : 1000 : 0"
     inkscape:vp_z="1 : 0.5 : 1"
     id="perspective3389"
     inkscape:persp3d-origin="0.5 : 0.33333333 : 1" /><inkscape:perspective
     sodipodi:type="inkscape:persp3d"
     inkscape:vp_x="0 : 0.5 : 1"
     inkscape:vp_y="0 : 1000 : 0"
     inkscape:vp_z="1 : 0.5 : 1"
     id="perspective3414"
     inkscape:persp3d-origin="0.5 : 0.33333333 : 1" /><inkscape:perspective
     sodipodi:type="inkscape:persp3d"
     inkscape:vp_x="0 : 0.5 : 1"
     inkscape:vp_y="0 : 1000 : 0"
     inkscape:vp_z="1 : 0.5 : 1"
     id="perspective3283"
     inkscape:persp3d-origin="0.5 : 0.33333333 : 1" /><inkscape:perspective
     sodipodi:type="inkscape:persp3d"
     inkscape:vp_x="0 : 0.5 : 1"
     inkscape:vp_y="0 : 1000 : 0"
     inkscape:vp_z="1 : 0.5 : 1"
     id="perspective3283-0"
     inkscape:persp3d-origin="0.5 : 0.33333333 : 1" /><inkscape:perspective
     sodipodi:type="inkscape:persp3d"
     inkscape:vp_x="0 : 0.5 : 1"
     inkscape:vp_y="0 : 1000 : 0"
     inkscape:vp_z="1 : 0.5 : 1"
     id="perspective3285"
     inkscape:persp3d-origin="0.5 : 0.33333333 : 1" /><inkscape:perspective
     sodipodi:type="inkscape:persp3d"
     inkscape:vp_x="0 : 0.5 : 1"
     inkscape:vp_y="0 : 1000 : 0"
     inkscape:vp_z="1 : 0.5 : 1"
     id="perspective3285-0"
     inkscape:persp3d-origin="0.5 : 0.33333333 : 1" /><inkscape:perspective
     sodipodi:type="inkscape:persp3d"
     inkscape:vp_x="0 : 0.5 : 1"
     inkscape:vp_y="0 : 1000 : 0"
     inkscape:vp_z="1 : 0.5 : 1"
     id="perspective3287"
     inkscape:persp3d-origin="0.5 : 0.33333333 : 1" /><inkscape:perspective
     sodipodi:type="inkscape:persp3d"
     inkscape:vp_x="0 : 0.5 : 1"
     inkscape:vp_y="0 : 1000 : 0"
     inkscape:vp_z="1 : 0.5 : 1"
     id="perspective3312"
     inkscape:persp3d-origin="0.5 : 0.33333333 : 1" /><inkscape:perspective
     sodipodi:type="inkscape:persp3d"
     inkscape:vp_x="0 : 0.5 : 1"
     inkscape:vp_y="0 : 1000 : 0"
     inkscape:vp_z="1 : 0.5 : 1"
     id="perspective3337"
     inkscape:persp3d-origin="0.5 : 0.33333333 : 1" /><rect
     x="168.315"
     y="85.676"
     width="295.289"
     height="37.697"
     id="rect36" /><path
     fill="#B3B3B3"
     d="M463.604,77.172H168.315c-4.697,0-8.504,3.807-8.504,8.504v37.697c0,4.697,3.807,8.504,8.504,8.504h295.289  c4.696,0,8.504-3.807,8.504-8.504V85.676C472.108,80.979,468.3,77.172,463.604,77.172z M168.315,85.676h295.289v37.697H168.315  V85.676z"
     id="path38" /><rect
     x="170.246"
     y="228.356"
     width="295.29"
     height="37.696"
     id="rect40" /><path
     fill="#B3B3B3"
     d="M465.536,219.853h-295.29c-4.697,0-8.504,3.808-8.504,8.504v37.696c0,4.696,3.807,8.504,8.504,8.504h295.29  c4.696,0,8.504-3.808,8.504-8.504v-37.696C474.04,223.66,470.232,219.853,465.536,219.853z M170.246,228.356h295.29v37.696h-295.29  V228.356z"
     id="path42" /><rect
     x="171.839"
     y="374.138"
     width="295.29"
     height="37.697"
     id="rect44" /><path
     fill="#B3B3B3"
     d="M467.129,365.634h-295.29c-4.697,0-8.504,3.808-8.504,8.504v37.697c0,4.696,3.807,8.504,8.504,8.504h295.29  c4.696,0,8.504-3.808,8.504-8.504v-37.697C475.633,369.441,471.826,365.634,467.129,365.634z M171.839,374.138h295.29v37.697  h-295.29V374.138z"
     id="path46" /><polygon
     points="52.021,54.405 52.021,40.21 26.718,40.21 26.718,160.894 52.021,160.894 52.021,146.7 40.284,146.7 40.284,54.405 "
     id="polygon48"
     transform="translate(-10,-12)" /><path
     d="m 42.021,50.909 c 4.697,0 8.504,-3.807 8.504,-8.504 V 28.21 c 0,-4.697 -3.807,-8.504 -8.504,-8.504 H 16.718 c -4.697,0 -8.504,3.807 -8.504,8.504 v 120.684 c 0,4.697 3.807,8.504 8.504,8.504 h 25.303 c 4.697,0 8.504,-3.807 8.504,-8.504 V 134.7 c 0,-4.697 -3.807,-8.504 -8.504,-8.504 H 38.788 V 50.909 h 3.233 z m 0,97.985 H 16.718 V 28.21 H 42.021 V 42.404 H 30.284 V 134.7 h 11.737 v 14.194 z"
     id="path50"
     inkscape:connector-curvature="0"
     style="fill:#b3b3b3" /><polygon
     points="84.792,160.894 110.095,160.894 110.095,40.21 84.792,40.21 84.792,54.276 96.529,54.276 96.529,146.7 84.792,146.7 "
     id="polygon52"
     transform="translate(16,-12)" /><path
     d="m 126.095,19.707 h -25.303 c -4.697,0 -8.504,3.807 -8.504,8.504 v 14.066 c 0,4.697 3.807,8.504 8.504,8.504 h 3.233 v 75.416 h -3.233 c -4.697,0 -8.504,3.807 -8.504,8.504 v 14.194 c 0,4.697 3.807,8.504 8.504,8.504 h 25.303 c 4.697,0 8.504,-3.807 8.504,-8.504 V 28.21 c 0,-4.696 -3.807,-8.503 -8.504,-8.503 z M 100.792,134.7 h 11.737 V 42.276 H 100.792 V 28.21 h 25.303 V 148.894 H 100.792 V 134.7 z"
     id="path54"
     inkscape:connector-curvature="0"
     style="fill:#b3b3b3" /><rect
     style="fill:#b3b3b3;stroke-width:0.60000002;stroke-miterlimit:4;stroke-dasharray:none"
     id="rect3053"
     width="77.972031"
     height="8.3916082"
     x="35.412586"
     y="19.796432" /><rect
     style="fill:#cccccc;stroke-width:0.60000002;stroke-miterlimit:4;stroke-dasharray:none"
     id="rect3055"
     width="2.7972028"
     height="3.1468532"
     x="72.027969"
     y="30.146088" /><rect
     style="fill:#b3b3b3;stroke-width:0.60000002;stroke-miterlimit:4;stroke-dasharray:none"
     id="rect3053-8"
     width="69.930069"
     height="8.3916082"
     x="38.713287"
     y="42.48175" /><rect
     style="fill:#b3b3b3;stroke-width:0.60000002;stroke-miterlimit:4;stroke-dasharray:none"
     id="rect3053-6"
     width="76.923073"
     height="8.3916082"
     x="35.342659"
     y="126.11812" /><rect
     style="fill:#b3b3b3;stroke-width:0.60000002;stroke-miterlimit:4;stroke-dasharray:none"
     id="rect3053-6-9"
     width="76.923073"
     height="8.3916082"
     x="38.209793"
     y="148.99927" /><rect
     style="fill:#000000;stroke-width:0.60000002;stroke-miterlimit:4;stroke-dasharray:none"
     id="rect3100"
     width="108.67353"
     height="14.335665"
     x="16.965031"
     y="28.146088" /><rect
     style="fill:#000000;stroke-width:0.60000002;stroke-miterlimit:4;stroke-dasharray:none"
     id="rect3100-9"
     width="108.15033"
     height="14.335665"
     x="17.097902"
     y="134.67056" /><polygon
     points="40.284,146.7 40.284,54.405 52.021,54.405 52.021,40.21 26.718,40.21 26.718,160.894 52.021,160.894 52.021,146.7 "
     id="polygon48-0"
     transform="translate(-7.552694,145.53649)" /><path
     d="m 44.468308,208.44549 c 4.697,0 8.504,-3.807 8.504,-8.504 v -14.195 c 0,-4.697 -3.807,-8.504 -8.504,-8.504 h -25.303 c -4.697001,0 -8.504001,3.807 -8.504001,8.504 v 120.684 c 0,4.697 3.807,8.504 8.504001,8.504 h 25.303 c 4.697,0 8.504,-3.807 8.504,-8.504 v -14.194 c 0,-4.697 -3.807,-8.504 -8.504,-8.504 h -3.233 v -75.287 h 3.233 z m 0,97.985 h -25.303 v -120.684 h 25.303 v 14.194 H 32.731307 v 92.296 h 11.737001 v 14.194 z"
     id="path50-6"
     inkscape:connector-curvature="0"
     style="fill:#b3b3b3" /><polygon
     points="96.529,146.7 84.792,146.7 84.792,160.894 110.095,160.894 110.095,40.21 84.792,40.21 84.792,54.276 96.529,54.276 "
     id="polygon52-4"
     transform="translate(18.447307,145.53649)" /><path
     d="m 128.54231,177.24349 h -25.303 c -4.697001,0 -8.504001,3.807 -8.504001,8.504 v 14.066 c 0,4.697 3.807,8.504 8.504001,8.504 h 3.233 v 75.416 h -3.233 c -4.697001,0 -8.504001,3.807 -8.504001,8.504 v 14.194 c 0,4.697 3.807,8.504 8.504001,8.504 h 25.303 c 4.697,0 8.504,-3.807 8.504,-8.504 v -120.685 c 0,-4.696 -3.807,-8.503 -8.504,-8.503 z m -25.303,114.993 h 11.737 v -92.424 h -11.737 v -14.066 h 25.303 v 120.684 h -25.303 v -14.194 z"
     id="path54-6"
     inkscape:connector-curvature="0"
     style="fill:#b3b3b3" /><rect
     style="fill:#b3b3b3;stroke-width:0.60000002;stroke-miterlimit:4;stroke-dasharray:none"
     id="rect3053-3"
     width="77.972031"
     height="8.3916082"
     x="37.859894"
     y="177.33292" /><rect
     style="fill:#cccccc;stroke-width:0.60000002;stroke-miterlimit:4;stroke-dasharray:none"
     id="rect3055-6"
     width="2.7972028"
     height="3.1468532"
     x="74.475281"
     y="187.68257" /><rect
     style="fill:#b3b3b3;stroke-width:0.60000002;stroke-miterlimit:4;stroke-dasharray:none"
     id="rect3053-8-3"
     width="69.930069"
     height="8.3916082"
     x="41.160595"
     y="200.01823" /><rect
     style="fill:#b3b3b3;stroke-width:0.60000002;stroke-miterlimit:4;stroke-dasharray:none"
     id="rect3053-6-2"
     width="76.923073"
     height="8.3916082"
     x="37.789967"
     y="283.6546" /><rect
     style="fill:#b3b3b3;stroke-width:0.60000002;stroke-miterlimit:4;stroke-dasharray:none"
     id="rect3053-6-9-1"
     width="76.923073"
     height="8.3916082"
     x="40.657101"
     y="306.53577" /><rect
     style="fill:#000000;stroke-width:0.60000002;stroke-miterlimit:4;stroke-dasharray:none"
     id="rect3100-3"
     width="108.67353"
     height="14.335665"
     x="19.41234"
     y="185.68257" /><rect
     style="fill:#000000;stroke-width:0.60000002;stroke-miterlimit:4;stroke-dasharray:none"
     id="rect3100-9-8"
     width="108.15033"
     height="14.335665"
     x="19.545212"
     y="292.20706" /><polygon
     points="40.284,146.7 40.284,54.405 52.021,54.405 52.021,40.21 26.718,40.21 26.718,160.894 52.021,160.894 52.021,146.7 "
     id="polygon48-3"
     transform="translate(-7.3480091,301.38738)" /><path
     d="m 44.672993,364.29639 c 4.697,0 8.504,-3.807 8.504,-8.504 v -14.195 c 0,-4.69701 -3.807,-8.50401 -8.504,-8.50401 H 19.369992 c -4.697,0 -8.504,3.807 -8.504,8.50401 v 120.68399 c 0,4.697 3.807,8.504 8.504,8.504 h 25.303001 c 4.697,0 8.504,-3.807 8.504,-8.504 v -14.194 c 0,-4.697 -3.807,-8.504 -8.504,-8.504 h -3.233 v -75.28699 h 3.233 z m 0,97.98499 H 19.369992 V 341.59739 h 25.303001 v 14.194 H 32.935992 v 92.29599 h 11.737001 v 14.194 z"
     id="path50-4"
     inkscape:connector-curvature="0"
     style="fill:#b3b3b3" /><polygon
     points="96.529,146.7 84.792,146.7 84.792,160.894 110.095,160.894 110.095,40.21 84.792,40.21 84.792,54.276 96.529,54.276 "
     id="polygon52-1"
     transform="translate(18.651992,301.38738)" /><path
     d="m 128.74699,333.09438 h -25.303 c -4.697,0 -8.504,3.807 -8.504,8.50401 v 14.066 c 0,4.697 3.807,8.504 8.504,8.504 h 3.233 v 75.41599 h -3.233 c -4.697,0 -8.504,3.807 -8.504,8.504 v 14.194 c 0,4.697 3.807,8.504 8.504,8.504 h 25.303 c 4.697,0 8.504,-3.807 8.504,-8.504 V 341.59739 c 0,-4.69601 -3.807,-8.50301 -8.504,-8.50301 z m -25.303,114.993 h 11.737 v -92.42399 h -11.737 v -14.066 h 25.303 v 120.68399 h -25.303 v -14.194 z"
     id="path54-8"
     inkscape:connector-curvature="0"
     style="fill:#b3b3b3" /><rect
     style="fill:#b3b3b3;stroke-width:0.60000002;stroke-miterlimit:4;stroke-dasharray:none"
     id="rect3053-87"
     width="77.972031"
     height="8.3916082"
     x="38.064579"
     y="333.18381" /><rect
     style="fill:#cccccc;stroke-width:0.60000002;stroke-miterlimit:4;stroke-dasharray:none"
     id="rect3055-7"
     width="2.7972028"
     height="3.1468532"
     x="74.679962"
     y="343.53348" /><rect
     style="fill:#b3b3b3;stroke-width:0.60000002;stroke-miterlimit:4;stroke-dasharray:none"
     id="rect3053-8-4"
     width="69.930069"
     height="8.3916082"
     x="41.36528"
     y="355.86914" /><rect
     style="fill:#b3b3b3;stroke-width:0.60000002;stroke-miterlimit:4;stroke-dasharray:none"
     id="rect3053-6-0"
     width="76.923073"
     height="8.3916082"
     x="37.994652"
     y="439.50549" /><rect
     style="fill:#b3b3b3;stroke-width:0.60000002;stroke-miterlimit:4;stroke-dasharray:none"
     id="rect3053-6-9-17"
     width="76.923073"
     height="8.3916082"
     x="40.861786"
     y="462.38666" /><rect
     style="fill:#000000;stroke-width:0.60000002;stroke-miterlimit:4;stroke-dasharray:none"
     id="rect3100-1"
     width="108.67353"
     height="14.335665"
     x="19.617023"
     y="341.53348" /><rect
     style="fill:#000000;stroke-width:0.60000002;stroke-miterlimit:4;stroke-dasharray:none"
     id="rect3100-9-6"
     width="108.15033"
     height="14.335665"
     x="19.749893"
     y="448.05795" /></svg>