<?xml version="1.0" encoding="UTF-8" standalone="no"?>
<!-- Created with Inkscape (http://www.inkscape.org/) -->

<svg
   xmlns:svg="http://www.w3.org/2000/svg"
   xmlns="http://www.w3.org/2000/svg"
   xmlns:xlink="http://www.w3.org/1999/xlink"
   version="1.1"
   width="48"
   height="48"
   id="svg15137">
  <defs
     id="defs15139">
    <linearGradient
       id="linearGradient8838">
      <stop
         id="stop8840"
         style="stop-color:black;stop-opacity:1"
         offset="0" />
      <stop
         id="stop8842"
         style="stop-color:black;stop-opacity:0"
         offset="1" />
    </linearGradient>
    <radialGradient
       cx="62.625"
       cy="4.625"
       r="10.625"
       fx="62.625"
       fy="4.625"
       id="radialGradient2612"
       xlink:href="#linearGradient8838"
       gradientUnits="userSpaceOnUse"
       gradientTransform="matrix(1,0,0,0.341176,0,3.047059)" />
    <linearGradient
       id="linearGradient4873">
      <stop
         id="stop4875"
         style="stop-color:white;stop-opacity:1"
         offset="0" />
      <stop
         id="stop4877"
         style="stop-color:white;stop-opacity:0"
         offset="1" />
    </linearGradient>
    <linearGradient
       x1="62.200409"
       y1="-12.489107"
       x2="62.200409"
       y2="0.24325986"
       id="linearGradient15133"
       xlink:href="#linearGradient4873"
       gradientUnits="userSpaceOnUse"
       gradientTransform="matrix(2.149872,0,0,2.149872,-110.11554,31.935342)" />
    <linearGradient
       id="linearGradient8740-304-201-142-419-164">
      <stop
         id="stop14118"
         style="stop-color:#9e9e9e;stop-opacity:1"
         offset="0" />
      <stop
         id="stop14120"
         style="stop-color:#9e9e9e;stop-opacity:0"
         offset="1" />
    </linearGradient>
    <linearGradient
       id="linearGradient12067-267-678-820-366-564">
      <stop
         id="stop14112"
         style="stop-color:#557695;stop-opacity:1"
         offset="0" />
      <stop
         id="stop14114"
         style="stop-color:#15395c;stop-opacity:1"
         offset="1" />
    </linearGradient>
    <linearGradient
       id="linearGradient8647">
      <stop
         id="stop8649"
         style="stop-color:#8fb1dc;stop-opacity:1"
         offset="0" />
      <stop
         id="stop8651"
         style="stop-color:#3465a4;stop-opacity:1"
         offset="1" />
    </linearGradient>
    <radialGradient
       cx="62.200352"
       cy="-8.7256308"
       r="9.7552834"
       fx="62.200352"
       fy="-8.7256308"
       id="radialGradient15127"
       xlink:href="#linearGradient8647"
       gradientUnits="userSpaceOnUse"
       gradientTransform="matrix(2.4129174,0,0,2.4129712,-126.47708,34.230797)" />
    <linearGradient
       id="linearGradient4845">
      <stop
         id="stop4847"
         style="stop-color:white;stop-opacity:1"
         offset="0" />
      <stop
         id="stop4849"
         style="stop-color:#b6b6b6;stop-opacity:1"
         offset="1" />
    </linearGradient>
    <radialGradient
       cx="17.81411"
       cy="24.149399"
       r="9.125"
       fx="17.81411"
       fy="24.149399"
       id="radialGradient2418"
       xlink:href="#linearGradient4845"
       gradientUnits="userSpaceOnUse"
       gradientTransform="matrix(-2.643979,0,2.93653e-8,2.534421,78.72514,-37.986139)" />
    <radialGradient
       cx="23.859564"
       cy="13.066691"
       r="18.09778"
       fx="23.859564"
       fy="13.066691"
       id="radialGradient5145"
       xlink:href="#linearGradient12067-267-678-820-366-564"
       gradientUnits="userSpaceOnUse"
       gradientTransform="matrix(-1.5425322,0,0,-0.8455253,60.718461,23.829235)" />
    <radialGradient
       cx="62.225391"
       cy="-3.4420195"
       r="10.081216"
       fx="62.225391"
       fy="-3.4420195"
       id="radialGradient5147"
       xlink:href="#linearGradient8740-304-201-142-419-164"
       gradientUnits="userSpaceOnUse"
       gradientTransform="matrix(1.103501,0,0,1.0265131,-4.1555224,-1.8158014)" />
  </defs>
  <g
     id="layer1">
    <path
       d="m 73.25,4.625 a 10.625,3.625 0 1 1 -21.25,0 10.625,3.625 0 1 1 21.25,0 z"
       transform="matrix(2.1647059,0,0,2.5636643,-111.56471,26.849769)"
       id="path8836"
       style="opacity:0.4;fill:url(#radialGradient2612);fill-opacity:1;fill-rule:evenodd;stroke:none;stroke-width:0.99999988;marker:none;visibility:visible;display:inline;overflow:visible" />
    <g
       transform="translate(0.7904165,-0.78563)"
       id="g15122">
      <path
         d="m 43.504933,24.386797 c 0,10.989786 -8.909149,19.898833 -19.897424,19.898833 -10.989282,0 -19.8979255,-8.909148 -19.8979255,-19.898833 0,-10.989282 8.9086435,-19.8974234 19.8979255,-19.8974234 10.988275,0 19.897424,8.9081414 19.897424,19.8974234 l 0,0 z"
         id="path6495"
         style="fill:url(#radialGradient15127);fill-opacity:1;fill-rule:nonzero;stroke:#204a87;stroke-width:1;stroke-miterlimit:4;stroke-dasharray:none" />
      <path
         d="m 23.725962,5.3140582 c -1.528324,0.120671 -3.03278,0.3654356 -4.491944,0.8456712 -1.230041,0.4884305 0.886886,-0.4298791 -0.374864,-0.6046801 -0.759419,-0.1299387 -1.077634,0.6525071 -1.756088,0.6704595 -0.774104,0.023841 -1.304791,0.7157155 -2.031884,0.7989801 -0.26187,1.4431941 -0.599244,-0.5689445 -0.839487,0.1317257 0.190469,0.7212014 -0.07796,1.1928296 -0.63582,1.6119193 -0.601558,0.6824876 -0.03584,1.2933991 0.542117,0.6939508 0.277502,-0.8344626 1.182456,-1.7618333 2.065532,-1.2049346 0.883695,0.4844844 1.758161,1.6524907 2.493772,0.4093523 -0.754876,-0.090735 -1.046192,-0.7363718 -1.407929,-1.2095745 -0.400233,0.031761 -2.079351,-0.320191 -1.005924,-0.240242 0.528399,-0.1724879 1.548988,-0.6855834 1.923885,-0.6653687 -0.940131,0.4902594 0.35015,0.812682 0.732016,1.2034621 0.686707,0.2035723 0.997757,1.075678 0.374142,1.5270425 -0.801813,0.4162027 0.05573,1.1016812 0.221002,1.6748212 0.128283,0.998271 0.996232,0.432823 1.271624,-0.180458 0.398032,-1.1153303 1.673311,-1.0767432 2.595774,-1.5521801 1.00805,-0.5175431 1.024757,-0.5357546 1.503364,0.2019472 0.367641,0.2115121 1.594693,-0.5582458 0.789007,-0.9290042 -0.689574,0.03713 -1.141988,0.4602884 -0.563635,-0.6080057 0.139147,-0.5740437 0.679101,-1.323498 0.580915,-1.7936739 C 25.049679,5.8348649 24.38782,5.5744616 23.725962,5.3140582 z m -9.373161,3.6945304 c 0.35612,0.3643043 1.556392,1.0233524 1.436763,0.1125492 -0.144187,-0.6174442 -1.04181,-0.6230842 -1.436763,-0.1125492 z m 18.164774,-0.444712 c -0.824117,0.1692211 -1.641196,0.3546719 -2.291976,0.9236326 0.194571,0.7853048 -0.8341,0.8978588 -1.28514,1.3280948 -0.120357,0.252418 -0.02467,1.840317 0.511054,1.157279 0.581616,-0.77246 0.833677,0.408679 1.447786,0.526874 0.445096,-0.143236 0.500197,-1.143766 0.332752,-1.60429 0.285248,-0.469841 0.750579,-1.1194917 1.353942,-1.0658716 -0.374191,0.5709866 -0.801632,2.0315026 0.391104,1.4344916 0.345182,-0.006 -0.939578,0.754515 -1.01663,1.273024 -0.482576,0.512839 -0.993396,0.905866 -1.690546,0.508474 -0.333554,-0.281619 -0.503052,-1.099159 -0.714142,-0.175655 0.433408,0.732515 -1.08895,0.04718 -1.051401,1.035589 -0.319721,0.615142 -0.896227,0.867096 -1.562953,0.911486 0.241983,0.191414 1.192381,1.331434 0.249527,1.170141 -0.603522,0.06628 -1.485668,0.407006 -1.241433,1.165313 -0.274861,0.944398 0.424895,0.706545 0.855215,1.297707 0.701165,-0.199162 1.148794,-0.629076 1.263401,-1.362088 0.656176,-0.19273 0.735573,-0.93195 1.456035,-0.917024 0.718201,-0.403814 0.885589,0.737379 1.55866,0.821807 0.07058,0.408703 -0.334643,1.281014 0.456589,0.469298 0.764409,-0.553867 -0.795124,-1.271585 -0.309631,-1.406596 0.690989,0.220706 0.940057,0.876708 1.050955,1.519027 0.563056,0.963405 0.701854,0.44404 0.746719,-0.403616 0.87723,-0.39439 1.147271,1.641022 2.388148,1.1397 0.926779,0.191741 0.599494,0.8304 -0.01904,1.220269 -0.500665,0.471116 -1.338221,0.173377 -1.926544,-0.01558 -0.564718,-0.277564 -1.319586,-0.248133 -1.621381,0.383469 -0.465287,-0.217643 -0.946425,-0.911348 -1.4178,-1.311823 -1.164706,-0.513896 -2.431369,-0.07571 -3.591904,0.23946 -0.995629,1.163172 -2.194915,2.219007 -2.623575,3.735923 -0.62778,0.638531 0.543365,1.008235 -0.24392,1.555959 -0.642804,0.512786 0.108054,1.162937 0.245795,1.752656 0.604453,0.743954 1.630572,3.072289 2.570832,2.145163 0.52705,-0.802448 0.819633,0.615819 1.439904,-0.30194 0.495201,-0.399486 0.969503,0.458021 1.689739,0.143313 0.693719,0.428396 0.560946,1.043283 0.27484,1.692767 0.155832,0.540871 0.930981,0.934395 0.629776,1.66773 -0.273665,0.683092 0.583115,1.200971 0.410383,1.798736 -0.574803,1.151241 -0.439285,2.574712 0.09386,3.715661 0.426682,1.032524 0.676993,2.148432 0.643656,3.269164 0.742774,0.222201 1.136694,-0.72912 1.877622,-0.513129 0.72333,0.09324 0.991911,-0.829745 1.50078,-1.215761 0.56704,-0.467472 -0.07223,-1.187296 0.827945,-1.518534 0.873313,-0.42523 -1.106001,-1.021317 0.0152,-1.402374 0.465146,-0.517611 1.413174,-0.697765 1.600847,-1.373511 -0.338335,-1.039776 -0.217966,-2.180084 -0.167379,-3.243635 0.325521,-0.841673 0.729746,-1.631205 1.426168,-2.22715 0.280823,-0.926691 0.94924,-1.777656 0.889424,-2.770898 -1.647591,0.50399 -1.148214,-0.214913 -0.22962,-0.873179 0.635078,-0.421993 1.405051,-0.845644 1.700591,-1.561704 0.144352,-0.810483 -0.45227,-2.129655 -1.007893,-0.90496 -0.245108,-0.470696 -1.154206,-0.717437 -1.113042,-1.330742 -0.176589,-1.26252 0.344621,-0.144268 0.860513,0.107888 1.11456,-0.605214 1.681841,1.776584 2.389313,0.35503 C 41.922649,17.057329 39.489254,12.999746 36.201113,9.9608924 35.630239,8.8661054 35.279981,10.710723 34.699845,10.640822 34.235503,10.156267 33.370375,9.5015667 34.578384,9.7269695 35.612407,9.4242 34.911034,9.0242673 34.152644,9.0427773 33.579406,8.9730728 33.051787,8.7722302 32.517575,8.5638766 z M 11.958198,9.0085886 C 11.683224,10.361903 9.9471227,10.203725 9.3417949,11.539195 6.3634591,14.692306 4.525215,18.841048 4.0218,23.136747 c 0.2658392,1.007124 1.110466,1.490822 1.9600868,1.937257 0.7218433,0.419316 1.7800672,0.234202 2.184825,1.112372 0.4518726,0.369832 0.9394807,1.09971 1.5855961,0.877218 0.9366431,-0.09099 0.3601851,0.858233 0.1997313,1.33918 -0.059277,0.607005 -0.807784,0.993719 -0.5201616,1.577801 -0.2413589,0.661665 -0.4330387,1.317658 0.1026175,1.890606 0.4555095,0.839876 0.8263219,1.747826 1.6708069,2.275071 0.592168,0.497279 1.262519,1.155295 1.030362,1.99745 -0.123375,0.681673 0.04306,1.309874 0.372495,1.908 -0.118159,0.671455 -0.360732,1.35839 -0.410503,2.018309 0.879491,0.622062 2.670456,2.060638 2.803106,0.494889 0.501762,-0.451609 0.532104,-1.178424 1.374291,-1.180378 0.390897,-0.477774 0.525492,-1.228273 0.81706,-1.81174 -0.425725,-0.538397 0.166314,-1.369673 0.8046,-1.347652 0.815936,0.06128 0.785928,-0.894481 1.111083,-1.423246 -0.0073,-0.772242 -0.388921,-1.647145 0.305419,-2.226959 0.522425,-0.473442 0.468268,-1.167509 0.549796,-1.809657 -1.171018,-0.724399 -2.711968,-1.091064 -3.638614,-2.068735 -0.183644,-0.765043 -0.7598,-1.022867 -1.492487,-1.078415 -0.309365,-0.432561 -0.256967,-1.462778 -0.797533,-1.513114 -0.696283,0.133691 -1.385744,0.240893 -1.891706,-0.364403 C 11.568576,24.96495 11.072993,25.940512 10.5492,26.286833 10.057449,27.143454 8.6806584,26.243908 8.8452147,25.279747 9.329092,23.945808 7.2027062,25.428303 8.0753362,23.85509 8.490356,22.139899 7.3685931,23.458552 6.7801058,23.844319 c -0.718215,0.0081 -0.9895316,-0.707468 -0.8614597,-1.362516 -0.091117,-0.787326 0.4828335,-1.187704 1.0669062,-1.582192 0.781607,0.120375 0.9798934,-0.56085 1.5653923,-0.472204 0.7360341,-0.03767 1.0049262,0.667825 1.4231546,1.135743 0.1751448,-0.667968 -0.1834517,-1.615214 0.5560648,-1.987879 0.564141,-0.427809 1.136977,-0.84927 1.272067,-1.590401 0.133042,-0.775978 1.289344,-0.467613 1.483698,-1.252629 0.268774,-0.820602 1.511435,-0.158229 1.789928,-0.968038 0.873302,-0.820856 -0.272424,-0.571782 -0.898536,-0.598064 -1.235273,0.126948 0.122797,-0.327633 0.585984,-0.581547 0.68608,0.09073 1.319479,-0.13384 1.949891,-0.376294 0.08445,0.858427 0.245971,1.311215 0.684173,0.307877 -0.85421,-0.202112 -0.116179,-1.040161 -0.959731,-1.261371 -0.667637,0.04697 0.0066,-1.41888 -0.815711,-1.257745 -1.069678,0.707815 -0.114008,-0.502513 -0.9854,-0.663466 -0.687356,-0.742215 -0.854361,0.476566 -1.227557,0.918297 0.242074,0.847015 -0.790951,0.665248 -0.979758,1.360612 -0.418138,1.253426 -0.241426,-0.08931 -0.740554,-0.41035 -0.616532,-0.247322 -1.359162,-0.378398 -1.363711,-1.189886 0.826578,-0.605122 2.066749,-0.961893 2.599432,-1.914753 0.309497,-0.7400825 -0.262151,-1.1445219 -0.966176,-1.0889242 l -5e-6,-2e-7 z m 14.675496,1.6420144 c -0.124906,0.657455 0.547504,1.008951 0.307878,1.710429 -0.214874,0.768418 -0.277281,1.378937 0.682887,0.930459 0.996683,-0.511834 0.360519,-0.901478 -0.03867,-1.572752 -0.271869,-0.446129 -0.245744,-1.274957 -0.952096,-1.068136 z m -0.75259,1.094674 c -0.794143,-0.240117 -0.617453,1.449282 -0.121641,1.011785 0.727599,-0.17916 0.237026,-0.525204 0.121641,-1.011785 z m 10.023125,8.996866 c 0.951838,0.844437 1.276954,2.09455 1.885771,3.15957 0.904276,0.399718 0.0415,1.0795 0.44521,1.57119 0.848967,0.922281 -1.175154,0.245156 -0.906064,-0.678991 -0.197101,-1.213915 -1.055896,-2.043971 -1.467752,-3.104454 -0.04294,-0.352604 -0.385517,-0.717884 0.04284,-0.947315 z"
         id="path6534"
         style="fill:url(#radialGradient5145);fill-opacity:1;fill-rule:nonzero;stroke:url(#radialGradient5147);stroke-width:1.10350108;stroke-miterlimit:4" />
      <path
         d="m 42.409081,24.386829 c 0,10.384468 -8.41843,18.802802 -18.801469,18.802802 -10.383989,0 -18.8019442,-8.41843 -18.8019442,-18.802802 0,-10.383988 8.4179552,-18.8014678 18.8019442,-18.8014678 10.383039,0 18.801469,8.4174798 18.801469,18.8014678 l 0,0 z"
         id="path8655"
         style="opacity:0.4;fill:none;stroke:url(#linearGradient15133);stroke-width:1.0000006;stroke-miterlimit:4;stroke-opacity:1;stroke-dasharray:none" />
    </g>
    <g
       transform="matrix(0.9999061,-0.01370139,0.01370139,0.9999061,-0.2886998,0.5358538)"
       id="g2414">
      <path
         d="m 30.5,20.93716 17,16.500001 -7.75,0.25 c 0,0 3.25,6.75 3.25,6.75 1,3 -3.5,4.125 -4.25,1.875 0,0 -3,-6.75 -3,-6.75 l -5.5,5.875 0.25,-24.500001 z"
         id="path3970"
         style="fill:url(#radialGradient2418);fill-opacity:1;fill-rule:evenodd;stroke:#666;stroke-width:1;stroke-linecap:butt;stroke-linejoin:round;stroke-miterlimit:4;stroke-opacity:1;stroke-dasharray:none;stroke-dashoffset:0;marker:none;visibility:visible;display:inline;overflow:visible" />
      <path
         d="m 31.657235,23.378571 13.475546,13.185793 -6.921861,0.277459 c 0,0 3.872136,7.756567 3.872136,7.756567 0.402731,1.650134 -2.028275,2.412565 -2.5071,1.152867 0,0 -3.683065,-7.844955 -3.683065,-7.844955 l -4.424727,4.708334 0.189071,-19.236065 z"
         id="path4853"
         style="opacity:0.4;fill:none;stroke:white;stroke-width:1;stroke-linecap:butt;stroke-linejoin:miter;stroke-miterlimit:4;stroke-opacity:1;stroke-dasharray:none;stroke-dashoffset:0;marker:none;visibility:visible;display:inline;overflow:visible" />
    </g>
  </g>
</svg>
