<?xml version="1.0" encoding="UTF-8" standalone="no"?>
<!-- Created with Inkscape (http://www.inkscape.org/) -->

<svg
   xmlns:svg="http://www.w3.org/2000/svg"
   xmlns="http://www.w3.org/2000/svg"
   xmlns:xlink="http://www.w3.org/1999/xlink"
   version="1.0"
   width="48"
   height="48"
   id="svg3252">
  <defs
     id="defs3254">
    <linearGradient
       id="linearGradient8838">
      <stop
         id="stop8840"
         style="stop-color:black;stop-opacity:1"
         offset="0" />
      <stop
         id="stop8842"
         style="stop-color:black;stop-opacity:0"
         offset="1" />
    </linearGradient>
    <radialGradient
       cx="62.625"
       cy="4.625"
       r="10.625"
       fx="62.625"
       fy="4.625"
       id="radialGradient3400"
       xlink:href="#linearGradient8838"
       gradientUnits="userSpaceOnUse"
       gradientTransform="matrix(2.0703833,0,0,0.65882263,-105.79371,37.953272)" />
    <linearGradient
       id="linearGradient4168">
      <stop
         id="stop4170"
         style="stop-color:#f8cd70;stop-opacity:1"
         offset="0" />
      <stop
         id="stop4172"
         style="stop-color:#cc9110;stop-opacity:1"
         offset="1" />
    </linearGradient>
    <linearGradient
       x1="20.137201"
       y1="4.4757133"
       x2="16.597107"
       y2="17.94278"
       id="linearGradient2428"
       xlink:href="#linearGradient4168"
       gradientUnits="userSpaceOnUse"
       gradientTransform="matrix(0.6892164,-0.6892162,0.6761527,0.6761527,-7.5101133,28.644755)" />
    <linearGradient
       id="linearGradient2476">
      <stop
         id="stop2478"
         style="stop-color:#bf8407;stop-opacity:1"
         offset="0" />
      <stop
         id="stop2480"
         style="stop-color:#bf8407;stop-opacity:0"
         offset="1" />
    </linearGradient>
    <linearGradient
       x1="33.686768"
       y1="35.773647"
       x2="37.039948"
       y2="29.856804"
       id="linearGradient2425"
       xlink:href="#linearGradient2476"
       gradientUnits="userSpaceOnUse"
       gradientTransform="matrix(1.0194607,0.0613533,-0.0601903,1.0001376,2.7044827,1.0170556)" />
    <linearGradient
       id="linearGradient2470">
      <stop
         id="stop2472"
         style="stop-color:#cc9110;stop-opacity:1"
         offset="0" />
      <stop
         id="stop2474"
         style="stop-color:#cc9110;stop-opacity:0"
         offset="1" />
    </linearGradient>
    <linearGradient
       x1="31.226292"
       y1="34.600941"
       x2="34.96563"
       y2="26.842505"
       id="linearGradient2423"
       xlink:href="#linearGradient2470"
       gradientUnits="userSpaceOnUse"
       gradientTransform="matrix(1.0194607,0.0613533,-0.0601903,1.0001376,2.7044827,1.0170556)" />
    <linearGradient
       id="linearGradient4873">
      <stop
         id="stop4875"
         style="stop-color:white;stop-opacity:1"
         offset="0" />
      <stop
         id="stop4877"
         style="stop-color:white;stop-opacity:0"
         offset="1" />
    </linearGradient>
    <linearGradient
       x1="32.325527"
       y1="5.0201149"
       x2="22.245434"
       y2="43.366352"
       id="linearGradient2436"
       xlink:href="#linearGradient4873"
       gradientUnits="userSpaceOnUse"
       gradientTransform="matrix(0.6892164,-0.6892162,0.6761527,0.6761527,-7.5101133,28.644755)" />
    <linearGradient
       id="linearGradient3319">
      <stop
         id="stop3321"
         style="stop-color:white;stop-opacity:0"
         offset="0" />
      <stop
         id="stop3323"
         style="stop-color:white;stop-opacity:0.27472529"
         offset="0.63129705" />
      <stop
         id="stop3325"
         style="stop-color:white;stop-opacity:0"
         offset="1" />
    </linearGradient>
    <linearGradient
       x1="28.116938"
       y1="41.67448"
       x2="39.686337"
       y2="28.50532"
       id="linearGradient2417"
       xlink:href="#linearGradient3319"
       gradientUnits="userSpaceOnUse"
       gradientTransform="matrix(0.9729387,0.05855337,-0.05744379,0.9544973,2.8218154,3.9296356)" />
  </defs>
  <g
     id="layer1">
    <path
       d="m 45.861867,41.00033 a 21.997823,7 0 0 1 -43.9956454,0 21.997823,7 0 1 1 43.9956454,0 z"
       id="path8836"
       style="opacity:0.4;fill:url(#radialGradient3400);fill-opacity:1;fill-rule:evenodd;stroke:none;stroke-width:0.99999988;marker:none;visibility:visible;display:inline;overflow:visible" />
    <path
       d="m 24.854767,37.634209 c -2.257232,0.131721 -5.717538,-0.686198 -7.811459,-2.780117 -3.49532,-3.49532 -4.317218,-11.773146 -0.03576,-15.923653 1.733556,-1.680532 5.850435,-3.861438 8.236871,-3.927174 l 0.02588,5.999407 12.193108,-9.617617 c 0,0 -12.193108,-10.3804058 -12.193108,-10.3804058 l -0.02808,5.6445851 c -5.259687,0.096267 -10.241614,1.8391042 -14.236648,5.7487817 -8.1271662,7.953524 -8.1141187,20.791703 -0.35002,28.733587 3.970511,4.061428 9.171384,5.997717 14.392779,5.856557"
       id="path3372"
       style="fill:url(#linearGradient2428);fill-opacity:1;stroke:#bf8407;stroke-width:1.00474763;stroke-linecap:butt;stroke-linejoin:round;stroke-miterlimit:4;stroke-opacity:1;stroke-dasharray:none" />
    <path
       d="m 24.141298,46.925838 c 9.485131,0.673693 20.758734,-5.918508 21.490103,-18.355936 l -8.736829,1.151728 c -0.490349,5.062027 -7.757644,8.631776 -12.146196,8.011866"
       id="path3453"
       style="fill:url(#linearGradient2423);fill-opacity:1;stroke:url(#linearGradient2425);stroke-width:1.00474763;stroke-linecap:butt;stroke-linejoin:miter;stroke-miterlimit:4;stroke-opacity:1;stroke-dasharray:none" />
    <path
       d="m 25.842916,38.846711 c -1.754983,0 -3.748305,0.09598 -5.421215,-0.8979 -2.962875,-0.970344 -5.418759,-3.259358 -6.478347,-6.205901 -1.766403,-4.579079 -1.142423,-10.443921 2.571039,-13.898283 2.583482,-2.450739 6.185255,-3.447861 9.673107,-3.563377 0.07491,1.078541 0.164902,3.117628 0.164902,4.563212 3.875225,-3.069107 7.046947,-5.531037 9.483214,-7.532472 C 32.868881,9 28.989698,5.5620062 26.280372,3 c 0,1.2452387 -0.07035,2.6075896 -0.09287,3.9244114 0.421741,1.5253785 -1.5989,0.6139414 -2.463105,0.9581614 C 18.300567,8.2763539 12.921774,10.801859 9.7088359,15.287223 4.7842637,21.689265 4.5785624,31.18939 9.1541174,37.831179 12.644068,42.987309 18.785419,46.588849 25.125,46"
       id="path2431"
       style="opacity:0.4;fill:none;stroke:url(#linearGradient2436);stroke-width:1.00474763;stroke-linecap:butt;stroke-linejoin:miter;stroke-miterlimit:4;stroke-opacity:1;stroke-dasharray:none" />
    <path
       d="m 26.848056,45.838626 c 5.342419,0.332363 16.919536,-5.279208 17.647182,-17.369984 l -5.534019,-1.805866 c 0,7.129818 -7.161651,11.970473 -13.37412,12.102346"
       id="path2557"
       style="fill:none;stroke:url(#linearGradient2417);stroke-width:1.00474763;stroke-linecap:butt;stroke-linejoin:round;stroke-miterlimit:4;stroke-opacity:1;stroke-dasharray:none" />
    <path
       d="m 13.751634,13.915468 a 1.1787115,1.1787115 0 1 1 -2.357423,0 1.1787115,1.1787115 0 1 1 2.357423,0 z"
       transform="matrix(1.9998021,0,0,1.9998021,0.07798297,-0.1835916)"
       id="path3347"
       style="fill:#d69f27;fill-opacity:1;stroke:#bf8407;stroke-width:0.50004947;stroke-linecap:round;stroke-linejoin:round;stroke-miterlimit:4;stroke-opacity:1;stroke-dasharray:none;stroke-dashoffset:0" />
  </g>
</svg>
