<?xml version="1.0" encoding="UTF-8"?>
<!-- Created with Inkscape (http://www.inkscape.org/) -->
<svg id="svg3718" width="48px" height="48px" version="1.1" xmlns="http://www.w3.org/2000/svg" xmlns:cc="http://creativecommons.org/ns#" xmlns:dc="http://purl.org/dc/elements/1.1/" xmlns:rdf="http://www.w3.org/1999/02/22-rdf-syntax-ns#" xmlns:xlink="http://www.w3.org/1999/xlink">
 <defs id="defs3720">
  <linearGradient id="linearGradient3621" x1="9.4342" x2="41.079" y1="18.498" y2="18.33" gradientTransform="matrix(0 1.0524 -.97832 0 45.58 -3.8327)" gradientUnits="userSpaceOnUse">
   <stop id="stop5115" style="stop-color:#fff" offset="0"/>
   <stop id="stop5117" style="stop-color:#fff;stop-opacity:0" offset="1"/>
  </linearGradient>
  <mask id="mask3689">
   <rect id="rect3691" x="2" y="4" width="42" height="38" style="fill:url(#linearGradient3693)"/>
  </mask>
  <linearGradient id="linearGradient3693" x1="2" x2="7" y1="13" y2="14" gradientUnits="userSpaceOnUse">
   <stop id="stop3683" offset="0"/>
   <stop id="stop3685" offset=".44974"/>
   <stop id="stop3687" style="stop-color:#fff" offset="1"/>
  </linearGradient>
  <linearGradient id="linearGradient3624" x1="8.394" x2="42.6" y1="17.891" y2="17.891" gradientTransform="matrix(0 1.0524 -.97832 0 45.58 -3.8326)" gradientUnits="userSpaceOnUse">
   <stop id="stop3618" style="stop-color:#f0c178" offset="0"/>
   <stop id="stop3270" style="stop-color:#e18941" offset=".5"/>
   <stop id="stop3620" style="stop-color:#ec4f18" offset="1"/>
  </linearGradient>
  <linearGradient id="linearGradient3668" x1="16.158" x2="16.158" y1="41.016" y2="5.0028" gradientUnits="userSpaceOnUse">
   <stop id="stop3624" style="stop-color:#bb2b12" offset="0"/>
   <stop id="stop3626" style="stop-color:#cd7233" offset="1"/>
  </linearGradient>
  <radialGradient id="radialGradient3716" cx="11.25" cy="19.031" r="8.0625" gradientTransform="matrix(2.2946 0 0 .68217 1.686 26.517)" gradientUnits="userSpaceOnUse">
   <stop id="stop5107" offset="0"/>
   <stop id="stop5109" style="stop-opacity:0" offset="1"/>
  </radialGradient>
 </defs>
 <metadata id="metadata3723">
  <rdf:RDF>
   <cc:Work rdf:about="">
    <dc:format>image/svg+xml</dc:format>
    <dc:type rdf:resource="http://purl.org/dc/dcmitype/StillImage"/>
    <dc:title/>
   </cc:Work>
  </rdf:RDF>
 </metadata>
 <g id="layer1">
  <path id="path4346" d="m46 39.5c0 3.0376-8.2827 5.5-18.5 5.5s-18.5-2.4624-18.5-5.5c-2e-7 -3.0376 8.2827-5.5 18.5-5.5s18.5 2.4624 18.5 5.5z" style="fill:url(#radialGradient3716);opacity:.16292"/>
  <path id="path3701" d="m3.4805 20.938c2.6796-21.48 31.215-20.241 31.015 1.6703h8.0301l-14.27 17.911-14.966-17.911h8.2161c0.57327-14.8-14.353-14.258-18.025-1.6703z" style="display:block;enable-background:new;fill:url(#linearGradient3624);stroke-linecap:round;stroke-linejoin:round;stroke-miterlimit:7;stroke-width:.961;stroke:url(#linearGradient3668)"/>
  <path id="path7426" d="m7.3587 12.991c7.0566-11.121 26.086-8.3743 26.136 10.617h7.031l-12.271 15.311-12.866-15.311h7.016c0.57327-14.8-10.361-14.804-15.046-10.617z" mask="url(#mask3689)" style="display:block;enable-background:new;fill:none;opacity:.4;stroke-linecap:square;stroke-linejoin:round;stroke-miterlimit:7;stroke-width:.961;stroke:url(#linearGradient3621)"/>
 </g>
</svg>
