<?xml version="1.0" encoding="utf-8"?>
<!-- Generator: Adobe Illustrator 15.0.0, SVG Export Plug-In . SVG Version: 6.00 Build 0)  -->
<!DOCTYPE svg PUBLIC "-//W3C//DTD SVG 1.1//EN" "http://www.w3.org/Graphics/SVG/1.1/DTD/svg11.dtd">
<svg version="1.1"
	 id="Layer_1" xmlns:dc="http://purl.org/dc/elements/1.1/" xmlns:cc="http://creativecommons.org/ns#" xmlns:rdf="http://www.w3.org/1999/02/22-rdf-syntax-ns#" xmlns:svg="http://www.w3.org/2000/svg" xmlns:sodipodi="http://sodipodi.sourceforge.net/DTD/sodipodi-0.dtd" xmlns:inkscape="http://www.inkscape.org/namespaces/inkscape" inkscape:version="0.47pre4 r22446" sodipodi:docname="list_number.svg"
	 xmlns="http://www.w3.org/2000/svg" xmlns:xlink="http://www.w3.org/1999/xlink" x="0px" y="0px" width="489.309px"
	 height="494.244px" viewBox="0 0 489.309 494.244" enable-background="new 0 0 489.309 494.244" xml:space="preserve">
<defs>
	
	
		<inkscape:perspective  sodipodi:type="inkscape:persp3d" inkscape:vp_x="0 : 247.12199 : 1" inkscape:vp_y="0 : 1000 : 0" inkscape:vp_z="489.31 : 247.12199 : 1" id="perspective248" inkscape:persp3d-origin="244.655 : 164.748 : 1">
		</inkscape:perspective>
	
		<inkscape:perspective  sodipodi:type="inkscape:persp3d" inkscape:vp_x="0 : 24 : 1" inkscape:vp_y="0 : 1000 : 0" inkscape:vp_z="48 : 24 : 1" id="perspective3079" inkscape:persp3d-origin="24 : 16 : 1">
		</inkscape:perspective>
	
		<inkscape:perspective  sodipodi:type="inkscape:persp3d" inkscape:vp_x="0 : 0.5 : 1" inkscape:vp_y="0 : 1000 : 0" inkscape:vp_z="1 : 0.5 : 1" id="perspective2910" inkscape:persp3d-origin="0.5 : 0.33333333 : 1">
		</inkscape:perspective>
	
		<inkscape:perspective  sodipodi:type="inkscape:persp3d" inkscape:vp_x="0 : 0.5 : 1" inkscape:vp_y="0 : 1000 : 0" inkscape:vp_z="1 : 0.5 : 1" id="perspective2871" inkscape:persp3d-origin="0.5 : 0.33333333 : 1">
		</inkscape:perspective>
	
		<inkscape:perspective  sodipodi:type="inkscape:persp3d" inkscape:vp_x="0 : 0.5 : 1" inkscape:vp_y="0 : 1000 : 0" inkscape:vp_z="1 : 0.5 : 1" id="perspective2949" inkscape:persp3d-origin="0.5 : 0.33333333 : 1">
		</inkscape:perspective>
	
		<inkscape:perspective  sodipodi:type="inkscape:persp3d" inkscape:vp_x="0 : 0.5 : 1" inkscape:vp_y="0 : 1000 : 0" inkscape:vp_z="1 : 0.5 : 1" id="perspective4045" inkscape:persp3d-origin="0.5 : 0.33333333 : 1">
		</inkscape:perspective>
	
		<inkscape:perspective  sodipodi:type="inkscape:persp3d" inkscape:vp_x="0 : 0.5 : 1" inkscape:vp_y="0 : 1000 : 0" inkscape:vp_z="1 : 0.5 : 1" id="perspective2935" inkscape:persp3d-origin="0.5 : 0.33333333 : 1">
		</inkscape:perspective>
	
		<inkscape:perspective  sodipodi:type="inkscape:persp3d" inkscape:vp_x="0 : 0.5 : 1" inkscape:vp_y="0 : 1000 : 0" inkscape:vp_z="1 : 0.5 : 1" id="perspective3899" inkscape:persp3d-origin="0.5 : 0.33333333 : 1">
		</inkscape:perspective>
	
		<inkscape:perspective  sodipodi:type="inkscape:persp3d" inkscape:vp_x="0 : 0.5 : 1" inkscape:vp_y="0 : 1000 : 0" inkscape:vp_z="1 : 0.5 : 1" id="perspective3738" inkscape:persp3d-origin="0.5 : 0.33333333 : 1">
		</inkscape:perspective>
	
		<inkscape:perspective  sodipodi:type="inkscape:persp3d" inkscape:vp_x="0 : 24 : 1" inkscape:vp_y="0 : 1000 : 0" inkscape:vp_z="48 : 24 : 1" id="perspective57" inkscape:persp3d-origin="24 : 16 : 1">
		</inkscape:perspective>
	
		<inkscape:perspective  sodipodi:type="inkscape:persp3d" inkscape:vp_x="0 : 0.5 : 1" inkscape:vp_y="0 : 1000 : 0" inkscape:vp_z="1 : 0.5 : 1" id="perspective3254" inkscape:persp3d-origin="0.5 : 0.33333333 : 1">
		</inkscape:perspective>
	
		<inkscape:perspective  sodipodi:type="inkscape:persp3d" inkscape:vp_x="0 : 0.5 : 1" inkscape:vp_y="0 : 1000 : 0" inkscape:vp_z="1 : 0.5 : 1" id="perspective2880" inkscape:persp3d-origin="0.5 : 0.33333333 : 1">
		</inkscape:perspective>
	
		<inkscape:perspective  sodipodi:type="inkscape:persp3d" inkscape:vp_x="0 : 0.5 : 1" inkscape:vp_y="0 : 1000 : 0" inkscape:vp_z="1 : 0.5 : 1" id="perspective2949-7" inkscape:persp3d-origin="0.5 : 0.33333333 : 1">
		</inkscape:perspective>
	
		<inkscape:perspective  sodipodi:type="inkscape:persp3d" inkscape:vp_x="0 : 0.5 : 1" inkscape:vp_y="0 : 1000 : 0" inkscape:vp_z="1 : 0.5 : 1" id="perspective4045-3" inkscape:persp3d-origin="0.5 : 0.33333333 : 1">
		</inkscape:perspective>
	
		<inkscape:perspective  sodipodi:type="inkscape:persp3d" inkscape:vp_x="0 : 0.5 : 1" inkscape:vp_y="0 : 1000 : 0" inkscape:vp_z="1 : 0.5 : 1" id="perspective2935-8" inkscape:persp3d-origin="0.5 : 0.33333333 : 1">
		</inkscape:perspective>
	
		<inkscape:perspective  sodipodi:type="inkscape:persp3d" inkscape:vp_x="0 : 0.5 : 1" inkscape:vp_y="0 : 1000 : 0" inkscape:vp_z="1 : 0.5 : 1" id="perspective3899-8" inkscape:persp3d-origin="0.5 : 0.33333333 : 1">
		</inkscape:perspective>
	
		<inkscape:perspective  sodipodi:type="inkscape:persp3d" inkscape:vp_x="0 : 0.5 : 1" inkscape:vp_y="0 : 1000 : 0" inkscape:vp_z="1 : 0.5 : 1" id="perspective3738-1" inkscape:persp3d-origin="0.5 : 0.33333333 : 1">
		</inkscape:perspective>
	
		<inkscape:perspective  sodipodi:type="inkscape:persp3d" inkscape:vp_x="0 : 24 : 1" inkscape:vp_y="0 : 1000 : 0" inkscape:vp_z="48 : 24 : 1" id="perspective57-2" inkscape:persp3d-origin="24 : 16 : 1">
		</inkscape:perspective>
	
		<inkscape:perspective  sodipodi:type="inkscape:persp3d" inkscape:vp_x="0 : 0.5 : 1" inkscape:vp_y="0 : 1000 : 0" inkscape:vp_z="1 : 0.5 : 1" id="perspective3667" inkscape:persp3d-origin="0.5 : 0.33333333 : 1">
		</inkscape:perspective>
	
		<inkscape:perspective  sodipodi:type="inkscape:persp3d" inkscape:vp_x="0 : 0.5 : 1" inkscape:vp_y="0 : 1000 : 0" inkscape:vp_z="1 : 0.5 : 1" id="perspective3830" inkscape:persp3d-origin="0.5 : 0.33333333 : 1">
		</inkscape:perspective>
	
		<inkscape:perspective  sodipodi:type="inkscape:persp3d" inkscape:vp_x="0 : 526.18109 : 1" inkscape:vp_y="0 : 1000 : 0" inkscape:vp_z="744.09448 : 526.18109 : 1" id="perspective2390" inkscape:persp3d-origin="372.04724 : 350.78739 : 1">
		</inkscape:perspective>
	
		<inkscape:perspective  sodipodi:type="inkscape:persp3d" inkscape:vp_x="0 : 526.18109 : 1" inkscape:vp_y="0 : 1000 : 0" inkscape:vp_z="744.09448 : 526.18109 : 1" id="perspective10" inkscape:persp3d-origin="372.04724 : 350.78739 : 1">
		</inkscape:perspective>
	
		<inkscape:perspective  sodipodi:type="inkscape:persp3d" inkscape:vp_x="0 : 0.5 : 1" inkscape:vp_y="0 : 1000 : 0" inkscape:vp_z="1 : 0.5 : 1" id="perspective3353" inkscape:persp3d-origin="0.5 : 0.33333333 : 1">
		</inkscape:perspective>
	
		<inkscape:perspective  sodipodi:type="inkscape:persp3d" inkscape:vp_x="0 : 0.5 : 1" inkscape:vp_y="0 : 1000 : 0" inkscape:vp_z="1 : 0.5 : 1" id="perspective3353-3" inkscape:persp3d-origin="0.5 : 0.33333333 : 1">
		</inkscape:perspective>
	
		<inkscape:perspective  sodipodi:type="inkscape:persp3d" inkscape:vp_x="0 : 0.5 : 1" inkscape:vp_y="0 : 1000 : 0" inkscape:vp_z="1 : 0.5 : 1" id="perspective3389" inkscape:persp3d-origin="0.5 : 0.33333333 : 1">
		</inkscape:perspective>
	
		<inkscape:perspective  sodipodi:type="inkscape:persp3d" inkscape:vp_x="0 : 0.5 : 1" inkscape:vp_y="0 : 1000 : 0" inkscape:vp_z="1 : 0.5 : 1" id="perspective3414" inkscape:persp3d-origin="0.5 : 0.33333333 : 1">
		</inkscape:perspective>
</defs>
<sodipodi:namedview  pagecolor="#ffffff" inkscape:zoom="0.47749696" inkscape:cx="244.655" bordercolor="#666666" guidetolerance="10" showgrid="false" gridtolerance="10" inkscape:cy="247.12199" objecttolerance="10" borderopacity="1" id="namedview242" inkscape:window-height="703" inkscape:pageshadow="2" inkscape:pageopacity="0" inkscape:current-layer="Layer_1" inkscape:window-y="25" inkscape:window-x="0" inkscape:window-width="1024" inkscape:window-maximized="1">
	</sodipodi:namedview>
<path fill="none" d="M69.59,377.032c0.636-0.557,1.315-1.325,1.315-3.409c0-1.681-0.439-2.12-0.602-2.282
	c-0.181-0.181-0.605-0.604-2.215-0.604c-1.144,0-1.899,0.304-2.694,1.083c-1.187,1.164-1.669,3.449-1.865,5.161
	c-0.056,0.488-0.153,0.968-0.29,1.433c0.193,0.004,0.384,0.007,0.572,0.007C66.515,378.42,68.568,377.927,69.59,377.032z"/>
<rect x="157.844" y="85.676" width="305.76" height="37.697"/>
<path fill="#B3B3B3" d="M463.604,77.172h-305.76c-4.697,0-8.504,3.807-8.504,8.504v37.697c0,4.697,3.807,8.504,8.504,8.504h305.76
	c4.696,0,8.504-3.807,8.504-8.504V85.676C472.108,80.979,468.3,77.172,463.604,77.172z M157.844,85.676h305.76v37.697h-305.76
	V85.676z"/>
<rect x="159.775" y="228.356" width="305.761" height="37.696"/>
<path fill="#B3B3B3" d="M465.536,219.853H159.775c-4.697,0-8.504,3.808-8.504,8.504v37.696c0,4.696,3.807,8.504,8.504,8.504h305.761
	c4.696,0,8.504-3.808,8.504-8.504v-37.696C474.04,223.66,470.232,219.853,465.536,219.853z M159.775,228.356h305.761v37.696H159.775
	V228.356z"/>
<rect x="161.368" y="374.138" width="305.761" height="37.697"/>
<path fill="#B3B3B3" d="M467.129,365.634H161.368c-4.697,0-8.504,3.808-8.504,8.504v37.697c0,4.696,3.807,8.504,8.504,8.504h305.761
	c4.696,0,8.504-3.808,8.504-8.504v-37.697C475.633,369.441,471.826,365.634,467.129,365.634z M161.368,374.138h305.761v37.697
	H161.368V374.138z"/>
<path d="M62.328,148.975h19.758v-103.5H66.055c-2.25,6.282-6.398,11.777-12.445,16.488s-11.649,7.91-16.805,9.598v17.93
	c9.796-3.234,18.304-8.227,25.523-14.977V148.975z"/>
<path fill="#B3B3B3" d="M82.086,36.971H66.055c-3.591,0-6.795,2.256-8.006,5.637c-1.71,4.775-4.872,8.913-9.666,12.647
	c-5.242,4.083-10.027,6.851-14.224,8.224c-3.495,1.144-5.859,4.405-5.859,8.082v17.93c0,2.729,1.31,5.292,3.521,6.892
	c1.468,1.062,3.216,1.612,4.983,1.612c0.895,0,1.794-0.141,2.666-0.429c5.07-1.674,9.863-3.791,14.354-6.334v57.743
	c0,4.697,3.807,8.504,8.504,8.504h19.758c4.697,0,8.504-3.807,8.504-8.504v-103.5C90.59,40.778,86.783,36.971,82.086,36.971z
	 M36.805,89.49v-17.93c5.156-1.688,10.758-4.887,16.805-9.598s10.195-10.206,12.445-16.488h16.031v103.5H62.328V74.514
	C55.109,81.264,46.601,86.256,36.805,89.49z"/>
<path d="M98.541,279.975H59.306c1.03-1.781,2.378-3.609,4.043-5.484c1.663-1.874,5.613-5.671,11.848-11.391
	c6.233-5.719,10.547-10.101,12.938-13.148c3.609-4.594,6.246-8.988,7.91-13.184c1.663-4.194,2.496-8.613,2.496-13.254
	c0-8.156-2.907-14.977-8.719-20.461c-5.813-5.484-13.806-8.227-23.977-8.227c-9.281,0-17.016,2.367-23.203,7.102
	c-6.188,4.735-9.868,12.54-11.039,23.414l19.688,1.969c0.375-5.766,1.781-9.89,4.219-12.375c2.437-2.484,5.718-3.727,9.844-3.727
	c4.171,0,7.441,1.185,9.809,3.551c2.366,2.367,3.551,5.755,3.551,10.16c0,3.984-1.36,8.016-4.078,12.094
	c-2.016,2.953-7.478,8.578-16.383,16.875c-11.063,10.266-18.469,18.504-22.219,24.715c-3.751,6.212-6.001,12.786-6.75,19.723h69.258
	V279.975z"/>
<path fill="#B3B3B3" d="M98.541,271.471h-19.88c0.708-0.655,1.468-1.355,2.285-2.104c6.644-6.095,11.184-10.729,13.88-14.167
	c4.094-5.211,7.165-10.359,9.123-15.295c2.055-5.181,3.096-10.695,3.096-16.39c0-10.551-3.831-19.516-11.386-26.646
	c-7.417-6.998-17.447-10.546-29.813-10.546c-11.149,0-20.694,2.978-28.371,8.852c-8.083,6.186-12.902,16.029-14.327,29.258
	c-0.243,2.253,0.424,4.51,1.853,6.27s3.5,2.876,5.756,3.102l19.688,1.969c0.283,0.028,0.565,0.042,0.847,0.042
	c2.004,0,3.955-0.709,5.498-2.017c1.76-1.491,2.838-3.634,2.988-5.936c0.347-5.342,1.655-6.82,1.803-6.971
	c0.346-0.353,1.155-1.178,3.773-1.178c2.735,0,3.534,0.799,3.797,1.062c0.874,0.875,1.058,2.737,1.058,4.145
	c0,2.244-0.882,4.71-2.621,7.333c-0.786,1.138-3.816,4.871-15.133,15.414c-11.744,10.896-19.5,19.582-23.702,26.541
	c-4.378,7.252-7.045,15.06-7.924,23.205c-0.259,2.4,0.514,4.798,2.127,6.595c1.613,1.796,3.914,2.822,6.328,2.822h69.258
	c4.697,0,8.504-3.808,8.504-8.504v-18.352C107.044,275.278,103.237,271.471,98.541,271.471z M74.634,237.014
	c2.718-4.078,4.078-8.109,4.078-12.094c0-4.405-1.185-7.793-3.551-10.16c-2.368-2.366-5.637-3.551-9.809-3.551
	c-4.125,0-7.407,1.242-9.844,3.727c-2.438,2.485-3.844,6.609-4.219,12.375l-19.688-1.969c1.171-10.874,4.852-18.679,11.039-23.414
	c6.188-4.734,13.922-7.102,23.203-7.102c10.171,0,18.164,2.742,23.977,8.227c5.812,5.484,8.719,12.305,8.719,20.461
	c0,4.641-0.833,9.06-2.496,13.254c-1.665,4.195-4.301,8.59-7.91,13.184c-2.391,3.048-6.704,7.43-12.938,13.148
	c-6.235,5.72-10.185,9.517-11.848,11.391c-1.665,1.875-3.013,3.703-4.043,5.484h39.234v18.352H29.283
	c0.749-6.937,2.999-13.511,6.75-19.723c3.75-6.211,11.155-14.449,22.219-24.715C67.157,245.592,72.618,239.967,74.634,237.014z"/>
<path d="M84.401,394.084c9.89-5.39,14.836-12.609,14.836-21.656c0-6.374-2.415-12.094-7.242-17.156
	c-5.86-6.188-13.641-9.281-23.344-9.281c-5.672,0-10.793,1.066-15.363,3.199c-4.57,2.134-8.133,5.063-10.688,8.789
	c-2.556,3.727-4.465,8.708-5.73,14.941l18.211,3.094c0.515-4.5,1.969-7.921,4.359-10.266c2.391-2.344,5.273-3.516,8.648-3.516
	c3.421,0,6.163,1.031,8.227,3.094c2.062,2.063,3.094,4.828,3.094,8.297c0,4.078-1.406,7.348-4.219,9.809
	c-2.661,2.328-6.453,3.492-11.379,3.492c-0.281,0-0.567-0.004-0.855-0.012l-2.18,16.102c3.516-0.984,6.539-1.477,9.07-1.477
	c3.843,0,7.102,1.453,9.773,4.359c2.672,2.907,4.008,6.845,4.008,11.813c0,5.25-1.396,9.422-4.184,12.516
	c-2.79,3.094-6.223,4.641-10.301,4.641c-3.797,0-7.031-1.289-9.703-3.867c-2.672-2.577-4.313-6.304-4.922-11.18l-19.125,2.32
	c0.984,8.673,4.546,15.691,10.688,21.059c6.14,5.368,13.875,8.051,23.203,8.051c9.844,0,18.07-3.188,24.68-9.563
	c6.609-6.374,9.914-14.086,9.914-23.133c0-6.233-1.77-11.555-5.309-15.961C95.029,398.187,90.308,395.35,84.401,394.084z"/>
<path fill="#B3B3B3" d="M105.2,397.267c-1.484-1.846-3.123-3.492-4.913-4.935c5.924-6.827,7.454-14.156,7.454-19.904
	c0-8.604-3.227-16.35-9.591-23.024c-7.483-7.9-17.414-11.917-29.499-11.917c-6.897,0-13.276,1.345-18.959,3.997
	c-5.948,2.777-10.693,6.709-14.106,11.688c-3.234,4.716-5.541,10.623-7.05,18.057c-0.458,2.257,0.019,4.603,1.321,6.502
	c1.302,1.898,3.319,3.188,5.589,3.574l18.211,3.094c0.379,0.064,0.76,0.103,1.14,0.115c-0.12,0.407-0.209,0.827-0.268,1.259
	l-2.18,16.102c-0.384,2.837,0.685,5.676,2.844,7.556c1.567,1.363,3.557,2.089,5.583,2.089c0.766,0,1.537-0.104,2.292-0.314
	c3.429-0.961,5.578-1.162,6.777-1.162c1.462,0,2.447,0.452,3.513,1.611c0.436,0.474,1.764,1.919,1.764,6.057
	c0,3.1-0.653,5.332-1.997,6.822c-1.172,1.3-2.326,1.83-3.984,1.83c-1.585,0-2.721-0.443-3.798-1.482
	c-1.227-1.184-2.03-3.24-2.388-6.113c-0.537-4.302-4.199-7.452-8.428-7.452c-0.342,0-0.687,0.021-1.035,0.063l-19.125,2.32
	c-4.637,0.563-7.952,4.76-7.425,9.401c1.227,10.806,5.782,19.723,13.541,26.503c7.705,6.735,17.395,10.151,28.799,10.151
	c12.076,0,22.365-4.02,30.583-11.945c8.304-8.009,12.514-17.851,12.514-29.254C112.382,410.362,109.965,403.201,105.2,397.267z
	 M69.284,451.248c-9.329,0-17.063-2.683-23.203-8.051c-6.142-5.367-9.703-12.386-10.688-21.059l19.125-2.32
	c0.608,4.876,2.25,8.603,4.922,11.18c2.672,2.578,5.906,3.867,9.703,3.867c4.078,0,7.511-1.547,10.301-4.641
	c2.788-3.094,4.184-7.266,4.184-12.516c0-4.968-1.336-8.905-4.008-11.813c-2.672-2.906-5.931-4.359-9.773-4.359
	c-2.531,0-5.555,0.492-9.07,1.477l2.18-16.102c0.289,0.008,0.574,0.012,0.855,0.012c4.926,0,8.718-1.164,11.379-3.492
	c2.813-2.461,4.219-5.73,4.219-9.809c0-3.469-1.032-6.233-3.094-8.297c-2.063-2.063-4.806-3.094-8.227-3.094
	c-3.375,0-6.258,1.172-8.648,3.516c-2.391,2.345-3.844,5.766-4.359,10.266L36.87,372.92c1.266-6.233,3.175-11.215,5.73-14.941
	c2.554-3.727,6.117-6.655,10.688-8.789c4.57-2.133,9.691-3.199,15.363-3.199c9.703,0,17.483,3.094,23.344,9.281
	c4.827,5.063,7.242,10.782,7.242,17.156c0,9.047-4.946,16.267-14.836,21.656c5.906,1.266,10.628,4.103,14.168,8.508
	c3.539,4.406,5.309,9.728,5.309,15.961c0,9.047-3.305,16.759-9.914,23.133C87.354,448.061,79.128,451.248,69.284,451.248z
	 M63.24,378.413c0.137-0.465,0.234-0.944,0.29-1.433c0.196-1.712,0.679-3.997,1.865-5.161c0.794-0.779,1.55-1.083,2.694-1.083
	c1.61,0,2.034,0.424,2.215,0.604c0.162,0.162,0.602,0.602,0.602,2.282c0,2.084-0.679,2.853-1.315,3.409
	c-1.022,0.895-3.075,1.388-5.779,1.388C63.624,378.42,63.433,378.417,63.24,378.413z"/>
</svg>
