<?xml version="1.0" encoding="iso-8859-1"?>
<!-- Generator: Adobe Illustrator 9.0, SVG Export Plug-In  -->
<!DOCTYPE svg PUBLIC "-//W3C//DTD SVG 20000303 Stylable//EN"   "http://www.w3.org/TR/2000/03/WD-SVG-20000303/DTD/svg-20000303-stylable.dtd" [
	<!ENTITY st0 "fill-rule:nonzero;clip-rule:nonzero;stroke:#FFFFFF;stroke-width:6.6871;stroke-linejoin:round;stroke-miterlimit:4;">
	<!ENTITY st1 "fill-rule:evenodd;clip-rule:evenodd;">
	<!ENTITY st2 "fill:none;stroke:none;">
	<!ENTITY st3 "fill-rule:evenodd;clip-rule:evenodd;stroke:none;">
	<!ENTITY st4 "fill-rule:nonzero;clip-rule:nonzero;stroke:#000000;stroke-miterlimit:4;">
	<!ENTITY st5 "stroke:none;">
]>
<svg  width="48pt" height="48pt" viewBox="0 0 48 48" xml:space="preserve">
	<g id="Layer_x0020_3" style="&st0;">
		<g>
			<path style="&st1;" d="M21.8,30.2c-2.8-2.8-6.5-6.5-6.5-6.5l-5.9,5.9l12.4,12.4l21.5-21.5l-5.9-5.9c0,0-11.5,11.5-15.7,15.7z"/>
			<path style="&st3;" d="M21.8,30.2c-2.8-2.8-6.5-6.5-6.5-6.5l-5.9,5.9l12.4,12.4l21.5-21.5l-5.9-5.9c0,0-11.5,11.5-15.7,15.7z"/>
			<g>
				<path d="M9.2,17.2l-1,3.8H4.6L9.2,6.2h4.4l4.6,14.9h-3.6l-1.1-3.8H9.2z M12.9,14.7L12,11.6c-0.2-0.9-0.5-2-0.7-2.9h-0.1c-0.2,0.9-0.4,2-0.7,2.9l-0.9,3.2h3.3z"/>
				<path d="M20.2,6.4c0.9-0.2,2.6-0.3,4.3-0.3c2,0,3.3,0.2,4.4,0.8c1,0.5,1.8,1.6,1.8,2.9c0,1.3-0.8,2.5-2.4,3.2v0c1.7,0.4,3,1.7,3,3.7c0,1.4-0.6,2.4-1.5,3.2c-1.1,0.9-2.9,1.3-5.8,1.3c-1.7,0-2.9-0.1-3.6-0.2V6.4z M23.5,12.1h1.1c1.8,0,2.7-0.7,2.7-1.8
					c0-1.1-0.9-1.7-2.4-1.7c-0.7,0-1.2,0-1.4,0.1v3.4z M23.5,18.7c0.3,0.1,0.7,0.1,1.3,0.1c1.5,0,2.9-0.6,2.9-2.2c0-1.5-1.3-2.1-3-2.1h-1.1v4.2z"/>
			</g>
			<g style="&st5;">
				<path d="M9.2,17.2l-1,3.8H4.6L9.2,6.2h4.4l4.6,14.9h-3.6l-1.1-3.8H9.2z M12.9,14.7L12,11.6c-0.2-0.9-0.5-2-0.7-2.9h-0.1c-0.2,0.9-0.4,2-0.7,2.9l-0.9,3.2h3.3z"/>
				<path d="M20.2,6.4c0.9-0.2,2.6-0.3,4.3-0.3c2,0,3.3,0.2,4.4,0.8c1,0.5,1.8,1.6,1.8,2.9c0,1.3-0.8,2.5-2.4,3.2v0c1.7,0.4,3,1.7,3,3.7c0,1.4-0.6,2.4-1.5,3.2c-1.1,0.9-2.9,1.3-5.8,1.3c-1.7,0-2.9-0.1-3.6-0.2V6.4z M23.5,12.1h1.1c1.8,0,2.7-0.7,2.7-1.8
					c0-1.1-0.9-1.7-2.4-1.7c-0.7,0-1.2,0-1.4,0.1v3.4z M23.5,18.7c0.3,0.1,0.7,0.1,1.3,0.1c1.5,0,2.9-0.6,2.9-2.2c0-1.5-1.3-2.1-3-2.1h-1.1v4.2z"/>
			</g>
		</g>
	</g>
	<g id="crop_x0020_marks" style="&st4;">
		<path style="&st2;" d="M48,48H0V0h48v48z"/>
	</g>
</svg>
