<?xml version="1.0" encoding="UTF-8" standalone="no"?>
<svg
   viewBox="0 0 16 16"
   version="1.1"
   id="svg6"
   sodipodi:docname="ct_anchor_insert.svg"
   inkscape:version="1.1 (c68e22c387, 2021-05-23)"
   xmlns:inkscape="http://www.inkscape.org/namespaces/inkscape"
   xmlns:sodipodi="http://sodipodi.sourceforge.net/DTD/sodipodi-0.dtd"
   xmlns="http://www.w3.org/2000/svg"
   xmlns:svg="http://www.w3.org/2000/svg">
  <sodipodi:namedview
     id="namedview8"
     pagecolor="#ffffff"
     bordercolor="#666666"
     borderopacity="1.0"
     inkscape:pageshadow="2"
     inkscape:pageopacity="0.0"
     inkscape:pagecheckerboard="0"
     showgrid="true"
     inkscape:zoom="25.375"
     inkscape:cx="9.5369458"
     inkscape:cy="11.704433"
     inkscape:window-width="1824"
     inkscape:window-height="1046"
     inkscape:window-x="85"
     inkscape:window-y="-11"
     inkscape:window-maximized="1"
     inkscape:current-layer="svg6">
    <inkscape:grid
       type="xygrid"
       id="grid825" />
  </sodipodi:namedview>
  <defs
     id="defs3051">
    <style
       type="text/css"
       id="current-color-scheme">
      .ColorScheme-Text {
        color:#232629;
      }
      </style>
  </defs>
  <path
     style="fill:#eff0f1;fill-opacity:1;stroke:none"
     d="M 8,2 C 6.89543,2 6,2.89543 6,4 6,4.93198 6.6373,5.71554 7.5,5.9375 V 8 H 5 v 1 h 2.5 v 1 2.96875 C 6.3123571,12.892642 4.936375,12.390014 3.9375,11.84375 L 4.4375,11.1875 3.59375,10.625 2,12.78125 c 0,0 0.84332,0.52706 0.84375,0.53125 L 3.3125,12.6875 C 4.6170785,13.429365 6.4060192,14 8,14 c 0.6588584,0 1.3439413,-0.10167 2.013023,-0.273359 l -4.54e-4,-1.050552 C 9.5079261,12.829846 8.9932225,12.937131 8.5,12.96875 V 10 9 H 11 V 8 H 8.5 V 5.9375 C 9.3627,5.71554 10,4.93198 10,4 10,2.89543 9.10457,2 8,2 Z M 8,3 C 8.55228,3 9,3.44772 9,4 9,4.55228 8.55228,5 8,5 7.44772,5 7,4.55228 7,4 7,3.44772 7.44772,3 8,3 Z"
     class="ColorScheme-Text"
     id="path4"
     sodipodi:nodetypes="sscccccccccccccscccccccccsssssss" />
  <path
     d="m 12.004904,8.9950755 v 2.0000205 h -1.99998 v 1 h 1.99998 v 2 h 1 v -2 h 2 v -1 h -2 V 8.9950755 Z"
     style="color:#232629;fill:#eff0f1;fill-opacity:1;stroke:none"
     id="path866" />
</svg>
