<?xml version="1.0" encoding="UTF-8" standalone="no"?>
<svg
   viewBox="0 0 16 16"
   version="1.1"
   id="svg6"
   sodipodi:docname="ct_anchor_link.svg"
   inkscape:version="1.1 (c68e22c387, 2021-05-23)"
   xmlns:inkscape="http://www.inkscape.org/namespaces/inkscape"
   xmlns:sodipodi="http://sodipodi.sourceforge.net/DTD/sodipodi-0.dtd"
   xmlns="http://www.w3.org/2000/svg"
   xmlns:svg="http://www.w3.org/2000/svg">
  <sodipodi:namedview
     id="namedview8"
     pagecolor="#ffffff"
     bordercolor="#666666"
     borderopacity="1.0"
     inkscape:pageshadow="2"
     inkscape:pageopacity="0.0"
     inkscape:pagecheckerboard="0"
     showgrid="true"
     inkscape:zoom="22.627417"
     inkscape:cx="8.3085047"
     inkscape:cy="12.81631"
     inkscape:window-width="1824"
     inkscape:window-height="1046"
     inkscape:window-x="85"
     inkscape:window-y="-11"
     inkscape:window-maximized="1"
     inkscape:current-layer="svg6">
    <inkscape:grid
       type="xygrid"
       id="grid825" />
  </sodipodi:namedview>
  <defs
     id="defs3051">
    <style
       type="text/css"
       id="current-color-scheme">
      .ColorScheme-Text {
        color:#232629;
      }
      </style>
  </defs>
  <path
     style="color:#232629;fill:#eff0f1;fill-opacity:1;stroke:none"
     d="m 7.0056305,2 c -1.10457,0 -2,0.89543 -2,2 0,0.93198 0.6373,1.71554 1.5,1.9375 V 8 h -2.5 v 1 h 2.5 v 1 2.96875 c -1.1876429,-0.07611 -2.563625,-0.578736 -3.5625,-1.125 l 0.5,-0.65625 -0.84375,-0.5625 -1.59375,2.15625 c 0,0 0.84332,0.52706 0.84375,0.53125 l 0.46875,-0.625 C 3.622709,13.429365 5.4116497,14 7.0056305,14 c 0.324876,0 0.6561282,-0.02472 0.9886944,-0.07037 l 0.020873,-1.018273 c -0.1715139,0.02712 -0.3417837,0.04663 -0.5095675,0.05739 V 10 9 H 10.005635 V 8 H 7.5056305 V 5.9375 c 0.8627,-0.22196 1.5,-1.00552 1.5,-1.9375 0,-1.10457 -0.89543,-2 -2,-2 z m 0,1 c 0.55228,0 1,0.44772 1,1 0,0.55228 -0.44772,1 -1,1 -0.55228,0 -1,-0.44772 -1,-1 0,-0.55228 0.44772,-1 1,-1 z"
     class="ColorScheme-Text"
     id="path4"
     sodipodi:nodetypes="sscccccccccccccscccccccccsssssss" />
  <path
     style="color:#232629;fill:#eff0f1;fill-opacity:1;stroke:none"
     d="m 11,9 v 2 H 9 v 1 h 2 v 2 h 3 v -1 h -2 v -3 h 2 V 9 h -2 z m 3,2 v 1 h 2 v -1 z"
     class="ColorScheme-Text"
     id="path4-1"
     sodipodi:nodetypes="ccccccccccccccccccc" />
</svg>
