<?xml version="1.0" encoding="UTF-8" standalone="no"?>
<svg
   viewBox="0 0 16 16"
   version="1.1"
   id="svg8"
   sodipodi:docname="ct_cherries.svg"
   inkscape:version="1.1 (c68e22c387, 2021-05-23)"
   xmlns:inkscape="http://www.inkscape.org/namespaces/inkscape"
   xmlns:sodipodi="http://sodipodi.sourceforge.net/DTD/sodipodi-0.dtd"
   xmlns="http://www.w3.org/2000/svg"
   xmlns:svg="http://www.w3.org/2000/svg">
  <g
     id="g923"
     transform="translate(-1.1520192,-0.6840855)">
    <g
       id="g831"
       transform="matrix(0.52118137,0,0,0.52118137,1.9133379,0.9246559)">
      <g
         style="fill:#9d072c;fill-opacity:1;stroke:none;stroke-opacity:1"
         id="cherry2-3"
         transform="matrix(0.433756,0.01851556,-0.01920771,0.43086823,-4.4180892,-7.5084042)">
        <path
           style="fill:#9d072c;fill-opacity:1;stroke:none;stroke-width:3.19438;stroke-opacity:1"
           id="p5-12"
           d="m 42.021325,38.735182 c -2.279722,6.288872 -8.636377,11.670921 -14.976424,9.411231 -6.70613,-0.642133 -10.13411,-8.200552 -9.485159,-14.85215 0.72889,-7.470957 6.639519,-10.416091 14.793381,-8.602451 8.153861,1.813641 12.228746,6.979824 9.668202,14.04337 z" />
      </g>
      <path
         id="path3964"
         style="fill:#232629;fill-opacity:1;stroke-width:1.01602"
         d="M 11.01031,5.6278947 C 10.742196,6.7057334 9.731924,7.3746514 8.7402,7.1309737 7.7484752,6.8872961 7.1416226,5.8210329 7.3765832,4.7350479 8.599217,4.540393 9.830776,4.9752116 11.01031,5.6278947 Z"
         sodipodi:nodetypes="cscc" />
      <path
         style="fill:none;fill-opacity:0.945098;stroke:#27ae60;stroke-width:1.52402;stroke-linecap:round;stroke-opacity:1;stop-color:#000000"
         d="M 9.0983,5.2594204 C 9.440445,4.3818494 10.241634,3.6858449 11.374664,2.8082739"
         id="path1009"
         sodipodi:nodetypes="cc" />
      <path
         d="M 7.6223903,7.1175767 A 2.0063451,1.3629116 20.77829 0 1 4.8882854,6.7195947 2.0063451,1.3629116 20.77829 0 1 4.7154988,4.6941756 a 2.0063451,1.3629116 20.77829 0 1 2.734105,0.3979821 2.0063451,1.3629116 20.77829 0 1 0.1727865,2.025419"
         style="opacity:0.5;fill:#ffffff;fill-opacity:1;stroke:none;stroke-width:1.78494;stroke-linecap:round;stroke-opacity:1;stop-color:#000000"
         id="path1046" />
    </g>
  </g>
  <sodipodi:namedview
     id="namedview10"
     pagecolor="#ffffff"
     bordercolor="#666666"
     borderopacity="1.0"
     inkscape:pageshadow="2"
     inkscape:pageopacity="0.0"
     inkscape:pagecheckerboard="0"
     showgrid="true"
     inkscape:zoom="26.3125"
     inkscape:cx="8.1330166"
     inkscape:cy="9.2731591"
     inkscape:window-width="1824"
     inkscape:window-height="1046"
     inkscape:window-x="85"
     inkscape:window-y="-11"
     inkscape:window-maximized="1"
     inkscape:current-layer="svg8">
    <inkscape:grid
       type="xygrid"
       id="grid827" />
  </sodipodi:namedview>
  <defs
     id="defs3051">
    <style
       type="text/css"
       id="current-color-scheme">
      .ColorScheme-Text {
        color:#232629;
      }
      .ColorScheme-Highlight {
        color:#3daee9;
      }
      </style>
  </defs>
  <g
     id="g1123"
     transform="matrix(0.52118137,0,0,0.52118137,6.96279,3.5053061)">
    <g
       style="fill:#0f9b71;fill-opacity:1;stroke:none;stroke-opacity:1"
       id="g1115"
       transform="matrix(0.433756,0.01851556,-0.01920771,0.43086823,-4.4180892,-7.5084042)">
      <path
         style="fill:#0f9b71;fill-opacity:1;stroke:none;stroke-width:3.19438;stroke-opacity:1"
         id="path1113"
         d="m 42.021325,38.735182 c -2.279722,6.288872 -8.636377,11.670921 -14.976424,9.411231 -6.70613,-0.642133 -10.13411,-8.200552 -9.485159,-14.85215 0.72889,-7.470957 6.639519,-10.416091 14.793381,-8.602451 8.153861,1.813641 12.228746,6.979824 9.668202,14.04337 z" />
    </g>
    <path
       id="path1117"
       style="fill:#232629;fill-opacity:1;stroke-width:1.01602"
       d="M 11.01031,5.6278947 C 10.742196,6.7057334 9.731924,7.3746514 8.7402,7.1309737 7.7484752,6.8872961 7.1416226,5.8210329 7.3765832,4.7350479 8.599217,4.540393 9.830776,4.9752116 11.01031,5.6278947 Z"
       sodipodi:nodetypes="cscc" />
    <path
       style="fill:none;fill-opacity:0.945098;stroke:#27ae60;stroke-width:1.52402;stroke-linecap:round;stroke-opacity:1;stop-color:#000000"
       d="M 9.0983,5.2594204 C 9.440445,4.3818494 10.241634,3.6858449 11.374664,2.8082739"
       id="path1119"
       sodipodi:nodetypes="cc" />
    <path
       d="M 7.6223903,7.1175767 A 2.0063451,1.3629116 20.77829 0 1 4.8882854,6.7195947 2.0063451,1.3629116 20.77829 0 1 4.7154988,4.6941756 a 2.0063451,1.3629116 20.77829 0 1 2.734105,0.3979821 2.0063451,1.3629116 20.77829 0 1 0.1727865,2.025419"
       style="opacity:0.5;fill:#ffffff;fill-opacity:1;stroke:none;stroke-width:1.78494;stroke-linecap:round;stroke-opacity:1;stop-color:#000000"
       id="path1121" />
  </g>
  <g
     id="g937"
     transform="translate(-1.1520192,5.809976)">
    <g
       id="g935"
       transform="matrix(0.52118137,0,0,0.52118137,1.9133379,0.9246559)">
      <g
         style="fill:#9d072c;fill-opacity:1;stroke:none;stroke-opacity:1"
         id="g927"
         transform="matrix(0.433756,0.01851556,-0.01920771,0.43086823,-4.4180892,-7.5084042)">
        <path
           style="fill:#1d99f3;fill-opacity:1;stroke:none;stroke-width:3.19438;stroke-opacity:1"
           id="path925"
           d="m 42.021325,38.735182 c -2.279722,6.288872 -8.636377,11.670921 -14.976424,9.411231 -6.70613,-0.642133 -10.13411,-8.200552 -9.485159,-14.85215 0.72889,-7.470957 6.639519,-10.416091 14.793381,-8.602451 8.153861,1.813641 12.228746,6.979824 9.668202,14.04337 z" />
      </g>
      <path
         id="path929"
         style="fill:#232629;fill-opacity:1;stroke-width:1.01602"
         d="M 11.01031,5.6278947 C 10.742196,6.7057334 9.731924,7.3746514 8.7402,7.1309737 7.7484752,6.8872961 7.1416226,5.8210329 7.3765832,4.7350479 8.599217,4.540393 9.830776,4.9752116 11.01031,5.6278947 Z"
         sodipodi:nodetypes="cscc" />
      <path
         style="fill:none;fill-opacity:0.945098;stroke:#27ae60;stroke-width:1.52402;stroke-linecap:round;stroke-opacity:1;stop-color:#000000"
         d="M 9.0983,5.2594204 C 9.440445,4.3818494 10.241634,3.6858449 11.374664,2.8082739"
         id="path931"
         sodipodi:nodetypes="cc" />
      <path
         d="M 7.6223903,7.1175767 A 2.0063451,1.3629116 20.77829 0 1 4.8882854,6.7195947 2.0063451,1.3629116 20.77829 0 1 4.7154988,4.6941756 a 2.0063451,1.3629116 20.77829 0 1 2.734105,0.3979821 2.0063451,1.3629116 20.77829 0 1 0.1727865,2.025419"
         style="opacity:0.5;fill:#ffffff;fill-opacity:1;stroke:none;stroke-width:1.78494;stroke-linecap:round;stroke-opacity:1;stop-color:#000000"
         id="path933" />
    </g>
  </g>
</svg>
