<?xml version="1.0" encoding="UTF-8" standalone="no"?>
<svg
   width="16"
   height="16"
   viewBox="0 0 16 16"
   version="1.1"
   id="svg4"
   sodipodi:docname="ct_from_cherrytree.svg"
   inkscape:version="1.1 (c68e22c387, 2021-05-23)"
   xmlns:inkscape="http://www.inkscape.org/namespaces/inkscape"
   xmlns:sodipodi="http://sodipodi.sourceforge.net/DTD/sodipodi-0.dtd"
   xmlns="http://www.w3.org/2000/svg"
   xmlns:svg="http://www.w3.org/2000/svg">
  <defs
     id="defs8" />
  <sodipodi:namedview
     id="namedview6"
     pagecolor="#ffffff"
     bordercolor="#666666"
     borderopacity="1.0"
     inkscape:pageshadow="2"
     inkscape:pageopacity="0.0"
     inkscape:pagecheckerboard="0"
     showgrid="true"
     inkscape:zoom="32"
     inkscape:cx="8.03125"
     inkscape:cy="8"
     inkscape:window-width="1824"
     inkscape:window-height="1046"
     inkscape:window-x="85"
     inkscape:window-y="-11"
     inkscape:window-maximized="1"
     inkscape:current-layer="svg4"
     inkscape:snap-global="false">
    <inkscape:grid
       type="xygrid"
       id="grid825" />
  </sodipodi:namedview>
  <path
     id="p5-12"
     style="fill:#9d072c;fill-opacity:1;stroke:none;stroke-width:1.38227;stroke-opacity:1"
     d="M 6.9824219 3.4179688 C 4.5956714 3.402821 2.9177034 4.6578108 2.5585938 7.1621094 C 2.1493454 10.016056 3.4921817 13.335486 6.3886719 13.736328 C 6.6024204 13.822488 6.816519 13.887107 7.03125 13.933594 L 7.03125 8 L 13.474609 8 C 13.440284 5.9720745 11.832232 4.4471241 9.140625 3.7304688 C 8.3745733 3.5265034 7.650712 3.4222101 6.9824219 3.4179688 z " />
  <path
     id="path3964"
     style="fill:#232629;fill-opacity:1;stroke-width:1.01602"
     d="M 11.01031,5.6278947 C 10.742196,6.7057334 9.731924,7.3746514 8.7402,7.1309737 7.7484752,6.8872961 7.1416226,5.8210329 7.3765832,4.7350479 8.599217,4.540393 9.830776,4.9752116 11.01031,5.6278947 Z"
     sodipodi:nodetypes="cscc" />
  <path
     style="fill:none;fill-opacity:0.945098;stroke:#27ae60;stroke-width:1.52402;stroke-linecap:round;stroke-opacity:1;stop-color:#000000"
     d="M 9.0983,5.2594204 C 9.440445,4.3818494 10.241634,3.6858449 11.374664,2.8082739"
     id="path1009"
     sodipodi:nodetypes="cc" />
  <path
     d="M 7.6223903,7.1175767 A 2.0063451,1.3629116 20.77829 0 1 4.8882854,6.7195947 2.0063451,1.3629116 20.77829 0 1 4.7154988,4.6941756 a 2.0063451,1.3629116 20.77829 0 1 2.734105,0.3979821 2.0063451,1.3629116 20.77829 0 1 0.1727865,2.025419"
     style="fill:#ffffff;fill-opacity:1;stroke:none;stroke-width:1.78494;stroke-linecap:round;stroke-opacity:1;stop-color:#000000;opacity:0.5"
     id="path1046" />
  <path
     style="fill:#eff0f1;fill-opacity:1;stroke:none"
     d="M 13.978824,12 H 9.8929108 l 1.6210602,1.6211 -0.70706,0.707 L 7.9788108,11.5 10.806911,8.67187 11.513971,9.37891 9.8929108,11 h 4.0859132 z"
     id="path5" />
</svg>
