<?xml version="1.0" encoding="UTF-8" standalone="no"?>
<svg
   viewBox="0 0 16 16"
   version="1.1"
   id="svg6"
   sodipodi:docname="ct_fmt-txt-h3.svg"
   inkscape:version="1.1 (c68e22c387, 2021-05-23)"
   xmlns:inkscape="http://www.inkscape.org/namespaces/inkscape"
   xmlns:sodipodi="http://sodipodi.sourceforge.net/DTD/sodipodi-0.dtd"
   xmlns="http://www.w3.org/2000/svg"
   xmlns:svg="http://www.w3.org/2000/svg">
  <sodipodi:namedview
     id="namedview8"
     pagecolor="#ffffff"
     bordercolor="#666666"
     borderopacity="1.0"
     inkscape:pageshadow="2"
     inkscape:pageopacity="0.0"
     inkscape:pagecheckerboard="0"
     showgrid="true"
     inkscape:zoom="52.625"
     inkscape:cx="8.0570071"
     inkscape:cy="6.6888361"
     inkscape:window-width="1824"
     inkscape:window-height="1046"
     inkscape:window-x="85"
     inkscape:window-y="-11"
     inkscape:window-maximized="1"
     inkscape:current-layer="svg6">
    <inkscape:grid
       type="xygrid"
       id="grid825" />
  </sodipodi:namedview>
  <defs
     id="defs3051">
    <style
       type="text/css"
       id="current-color-scheme">
      .ColorScheme-Text {
        color:#eff0f1;
      }
      </style>
  </defs>
  <path
     style="color:#000000;font-size:6.71279px;font-family:Hack;-inkscape-font-specification:'Hack Bold';letter-spacing:0px;word-spacing:0px;fill:#eff0f1;stroke-width:0.16782;-inkscape-stroke:none"
     d="m 12.449572,6.9962378 q -0.17737,0 -0.36478,-0.016052 Q 11.897382,6.967345 11.713318,6.9352427 11.542641,6.9063498 11.36527,6.8646169 11.1879,6.8196734 11.01053,6.7586782 V 5.8790655 q 0.314581,0.1540928 0.679362,0.2279289 0.190756,0.041734 0.37482,0.060995 0.184064,0.019261 0.338008,0.019261 0.220876,0 0.3949,-0.041734 0.174024,-0.041733 0.297848,-0.1348311 0.230916,-0.1797749 0.230916,-0.5040116 0,-0.3434984 -0.234262,-0.5489553 Q 12.981683,4.8646218 12.814353,4.8132575 12.650369,4.758683 12.429493,4.758683 H 11.900729 V 3.9240141 h 0.528764 q 0.36478,0 0.572271,-0.1412517 0.200796,-0.1380413 0.200796,-0.3948626 0,-0.266452 -0.200796,-0.4141241 Q 12.80766,2.8261034 12.4228,2.8261034 q -0.130518,0 -0.284463,0.016052 -0.150597,0.016052 -0.311234,0.051365 -0.150598,0.032102 -0.321275,0.083467 -0.170678,0.048154 -0.344701,0.1123593 V 2.2289941 q 0.348047,-0.099518 0.679363,-0.1540927 0.331314,-0.051365 0.639202,-0.051365 0.79984,0 1.2349,0.3306573 0.441752,0.3306573 0.441752,0.9117153 0,0.205457 -0.06024,0.3788113 -0.05689,0.1733542 -0.194103,0.3178162 -0.254342,0.2728725 -0.726214,0.3563395 0.535457,0.089887 0.816573,0.4077036 0.281115,0.314606 0.281115,0.84751 0,0.6869967 -0.461833,1.0561772 -0.461832,0.3659702 -1.362071,0.3659702 z"
     id="path826" />
  <path
     d="m 1.9955047,4.0000001 h 1.3605005 v 4.0991291 h 3.706191 V 4.0000001 H 8.4226967 V 14 H 7.0621962 V 9.2377762 H 3.3560052 V 14 H 1.9955047 Z"
     id="path1760"
     style="font-size:15.065px;line-height:1.25;font-family:Hack;-inkscape-font-specification:Hack;letter-spacing:0px;word-spacing:0px;fill:#eff0f1;stroke-width:0.343037" />
</svg>
