<?xml version="1.0" encoding="UTF-8" standalone="no"?>
<svg
   viewBox="0 0 16 16"
   version="1.1"
   id="svg6"
   sodipodi:docname="ct_fmt-txt-small.svg"
   inkscape:version="1.1 (c68e22c387, 2021-05-23)"
   xmlns:inkscape="http://www.inkscape.org/namespaces/inkscape"
   xmlns:sodipodi="http://sodipodi.sourceforge.net/DTD/sodipodi-0.dtd"
   xmlns="http://www.w3.org/2000/svg"
   xmlns:svg="http://www.w3.org/2000/svg">
  <sodipodi:namedview
     id="namedview8"
     pagecolor="#ffffff"
     bordercolor="#666666"
     borderopacity="1.0"
     inkscape:pageshadow="2"
     inkscape:pageopacity="0.0"
     inkscape:pagecheckerboard="0"
     showgrid="false"
     inkscape:zoom="37.211494"
     inkscape:cx="7.7664175"
     inkscape:cy="11.79743"
     inkscape:window-width="1826"
     inkscape:window-height="1046"
     inkscape:window-x="83"
     inkscape:window-y="-11"
     inkscape:window-maximized="1"
     inkscape:current-layer="svg6">
    <inkscape:grid
       type="xygrid"
       id="grid825" />
  </sodipodi:namedview>
  <defs
     id="defs3051">
    <style
       type="text/css"
       id="current-color-scheme">
      .ColorScheme-Text {
        color:#eff0f1;
      }
      </style>
  </defs>
  <path
     d="m 7.6616605,13.968195 q -1.1486102,0 -2.5463898,-0.379724 v -1.388705 q 1.1972286,0.612983 2.4005346,0.612983 1.2519243,0 1.2519243,-0.661804 0,-0.29293 -0.2977879,-0.471943 Q 8.172154,11.499989 7.4550323,11.364373 L 6.9627707,11.26673 Q 5.0058793,10.876157 5.0058793,9.4711778 q 0,-0.9004879 0.723199,-1.3887045 0.7292763,-0.4936412 2.108824,-0.4936412 0.5348026,0 1.0574507,0.081369 0.5287253,0.08137 1.0878371,0.2549576 V 9.313864 Q 9.4483875,9.0155094 8.956126,8.8798937 8.4699417,8.744278 7.953371,8.744278 q -0.6077302,0 -0.9359046,0.1573142 -0.3281743,0.1573143 -0.3281743,0.423121 0,0.2441083 0.3038651,0.423121 0.3099425,0.1735878 0.9966777,0.3146288 l 0.5773437,0.124766 q 0.9723684,0.206136 1.4220888,0.661805 0.4557976,0.455669 0.4557976,1.204267 0,1.914894 -2.7834045,1.914894 z"
     style="font-weight:bold;font-size:11.759px;line-height:1.25;font-family:Hack;-inkscape-font-specification:'Hack Bold';letter-spacing:0px;word-spacing:0px;fill:#eff0f1;stroke-width:0.293972"
     id="path832" />
  <path
     style="color:#3daee9;fill:currentColor;fill-opacity:1;stroke:none"
     d="M 5.49975,1.9975 H 10.5 l -2.49975,3 z"
     class="ColorScheme-Highlight"
     id="path6" />
</svg>
