<?xml version="1.0" encoding="UTF-8" standalone="no"?>
<svg
   id="svg4212"
   height="16"
   width="16"
   version="1.1"
   sodipodi:docname="ct_index.svg"
   inkscape:version="1.1 (c68e22c387, 2021-05-23)"
   xmlns:inkscape="http://www.inkscape.org/namespaces/inkscape"
   xmlns:sodipodi="http://sodipodi.sourceforge.net/DTD/sodipodi-0.dtd"
   xmlns="http://www.w3.org/2000/svg"
   xmlns:svg="http://www.w3.org/2000/svg"
   xmlns:rdf="http://www.w3.org/1999/02/22-rdf-syntax-ns#"
   xmlns:cc="http://creativecommons.org/ns#"
   xmlns:dc="http://purl.org/dc/elements/1.1/">
  <sodipodi:namedview
     inkscape:document-rotation="0"
     pagecolor="#ffffff"
     bordercolor="#666666"
     borderopacity="1"
     objecttolerance="10"
     gridtolerance="10"
     guidetolerance="10"
     inkscape:pageopacity="0"
     inkscape:pageshadow="2"
     inkscape:window-width="1826"
     inkscape:window-height="1046"
     id="namedview86"
     showgrid="false"
     inkscape:zoom="14.033373"
     inkscape:cx="7.6959402"
     inkscape:cy="1.7102089"
     inkscape:window-x="83"
     inkscape:window-y="-11"
     inkscape:window-maximized="1"
     inkscape:current-layer="svg4212"
     showguides="false"
     inkscape:pagecheckerboard="0"
     inkscape:snap-global="false">
    <inkscape:grid
       id="grid906"
       type="xygrid" />
  </sodipodi:namedview>
  <defs
     id="defs4214">
    <linearGradient
       id="linearGradient4526"
       inkscape:swatch="solid">
      <stop
         id="stop4528"
         offset="0"
         style="stop-color:#ffffff;stop-opacity:1;" />
    </linearGradient>
  </defs>
  <metadata
     id="metadata4217">
    <rdf:RDF>
      <cc:Work
         rdf:about="">
        <dc:format>image/svg+xml</dc:format>
        <dc:type
           rdf:resource="http://purl.org/dc/dcmitype/StillImage" />
      </cc:Work>
    </rdf:RDF>
  </metadata>
  <path
     sodipodi:nodetypes="cccccccccccccccccccccscc"
     d="M 2.9922488,13.947063 3,8.4181156 C 3.2450611,7.8624291 3.8192227,7.328094 4.6603845,7.7308728 l -0.03924,-4.1022356 c 0.03401,-2.0636681 3.377739,-2.2814517 3.3621297,0.073206 l 0.022294,1.6850244 c 1.1987718,-0.2359403 1.30539,0.8768665 1.30539,0.8768665 0,0 1.1770538,-0.8507615 1.7032538,0.6293249 0.95545,-0.9636356 2.000265,-0.084952 1.97963,1.3316032 l -0.0025,5.7265428 z m 9.0173322,-0.959957 -0.004,-3.9800928 C 11.97252,7.2022488 10.990527,7.7676588 10.972782,9.0934905 10.973206,7.5790324 9.4109652,6.0262179 9.0298043,8.6524889 9.0867534,6.3733514 7.5904722,5.5569473 6.9750848,7.9617192 L 6.9239124,3.8439297 c -0.02672,-1.0247618 -1.210998,-0.9993701 -1.2249849,0.00852 l -0.010683,6.2570173 c 0.00439,0.868294 -1.0330894,0.792489 -1.0333184,0.0098 l -0.0021,-1.517378 C 3.7779968,8.4364652 4.0198244,8.9575158 4.0140197,9.6697195 l -0.027931,3.3010345 z"
     style="fill:#eff0f1;fill-opacity:1;stroke-width:0.590947"
     id="path839-0" />
</svg>
