<svg xmlns="http://www.w3.org/2000/svg" viewBox="0 0 16 16">
  <defs id="defs3051">
    <style type="text/css" id="current-color-scheme">
      .ColorScheme-Text {
        color:#eff0f1;
      }
      </style>
  </defs>
 <path style="fill:currentColor;fill-opacity:1;stroke:none" 
       d="M 2 2 L 2 7 L 7 7 L 7 2 L 2 2 z M 8 2 L 8 3 L 14 3 L 14 2 L 8 2 z M 3 3 L 6 3 L 6 6 L 3 6 L 3 3 z M 8 5 L 8 6 L 14 6 L 14 5 L 8 5 z M 2 9 L 2 14 L 7 14 L 7 9 L 2 9 z M 8 9 L 8 10 L 12 10 L 12 9 L 8 9 z M 8 12 L 8 13 L 12 13 L 12 12 L 8 12 z "
     class="ColorScheme-Text"
     />
</svg>
