<?xml version="1.0" encoding="UTF-8" standalone="no"?>
<svg
   viewBox="0 0 16 16"
   version="1.1"
   id="svg6"
   sodipodi:docname="ct_replace_selnsub.svg"
   inkscape:version="1.1 (c68e22c387, 2021-05-23)"
   xmlns:inkscape="http://www.inkscape.org/namespaces/inkscape"
   xmlns:sodipodi="http://sodipodi.sourceforge.net/DTD/sodipodi-0.dtd"
   xmlns="http://www.w3.org/2000/svg"
   xmlns:svg="http://www.w3.org/2000/svg">
  <sodipodi:namedview
     id="namedview8"
     pagecolor="#ffffff"
     bordercolor="#666666"
     borderopacity="1.0"
     inkscape:pageshadow="2"
     inkscape:pageopacity="0.0"
     inkscape:pagecheckerboard="0"
     showgrid="true"
     inkscape:zoom="53.426881"
     inkscape:cx="6.6071609"
     inkscape:cy="7.8799285"
     inkscape:window-width="1826"
     inkscape:window-height="1046"
     inkscape:window-x="83"
     inkscape:window-y="-11"
     inkscape:window-maximized="1"
     inkscape:current-layer="svg6">
    <inkscape:grid
       type="xygrid"
       id="grid825" />
  </sodipodi:namedview>
  <defs
     id="defs3051">
    <style
       type="text/css"
       id="current-color-scheme">
      .ColorScheme-Text {
        color:#eff0f1;
      }
      </style>
  </defs>
  <path
     id="path845"
     style="color:#000000;fill:#eff0f1;fill-opacity:1;-inkscape-stroke:none"
     d="M 8 2.0117188 C 5.0371781 2.0117188 2.5686769 4.1724104 2.0859375 7 L 3.1015625 7 C 3.5674617 4.7196903 5.5792381 3.0117188 8 3.0117188 C 10.420762 3.0117185 12.432538 4.7196902 12.898438 7 L 13.001953 7 L 13.914062 7 L 14.001953 7 L 14.001953 3 L 13.001953 3 L 13.001953 4.7050781 C 11.926586 3.0840111 10.08623 2.0117186 8 2.0117188 z M 2 9 L 2 13 L 3 13 L 3 11.320312 C 4.0755719 12.940068 5.9147732 14.011719 8 14.011719 C 10.97101 14.011719 13.444914 11.839092 13.917969 9 L 12.902344 9 C 12.4454 11.291926 10.428975 13.011719 8 13.011719 C 5.5710256 13.011719 3.5545996 11.291926 3.0976562 9 L 3 9 L 2.0820312 9 L 2 9 z " />
  <path
     id="path843"
     style="fill:#9d072c;fill-opacity:1;stroke:none;stroke-width:0.617109;stroke-opacity:1"
     d="M 5.9863281,5.7539062 C 4.9207764,5.7471436 4.1720413,6.3077509 4.0117188,7.4257812 3.829012,8.6999101 4.4275809,10.182374 5.7207031,10.361328 6.4074381,10.638145 7.1163739,10.441054 7.6914062,10 H 6 V 7 H 8 V 6.3417969 C 7.7115481,6.1544026 7.3585832,6.0035268 6.9492188,5.8945312 6.6072192,5.803472 6.2846826,5.7557998 5.9863281,5.7539062 Z" />
  <path
     id="path847"
     style="fill:#333333;fill-opacity:1;stroke-width:0.453597"
     d="M 6.3671875,6.3222656 C 6.2988864,6.3247053 6.2303391,6.3328872 6.1621094,6.34375 6.111402,6.578119 6.1481082,6.8102348 6.25,7 H 7.6796875 C 7.7253198,6.9220776 7.7599992,6.835469 7.7832031,6.7421875 7.3224312,6.4872241 6.8452955,6.3051877 6.3671875,6.3222656 Z" />
  <path
     style="fill:none;fill-opacity:0.945098;stroke:#27ae60;stroke-width:0.68039;stroke-linecap:round;stroke-opacity:1;stop-color:#000000"
     d="M 6.9304348,6.5770589 C 7.0831835,6.1852722 7.44087,5.8745448 7.946705,5.482758"
     id="path849"
     sodipodi:nodetypes="cc" />
  <path
     id="path851"
     style="opacity:0.5;fill:#ffffff;fill-opacity:1;stroke:none;stroke-width:0.796877;stroke-linecap:round;stroke-opacity:1;stop-color:#000000"
     d="M 5.3457031,6.2148438 A 0.89572178,0.60846442 20.77829 0 0 4.9746094,6.3242188 0.89572178,0.60846442 20.77829 0 0 5.0507812,7.2285156 0.89572178,0.60846442 20.77829 0 0 6,7.5039062 V 7 H 6.4863281 A 0.89572178,0.60846442 20.77829 0 0 6.1953125,6.5019531 0.89572178,0.60846442 20.77829 0 0 5.3457031,6.2148438 Z" />
  <path
     d="m 9.00064,5.9875859 v 2 h -2 v 1 h 2 v 2.0000001 h 1 V 8.9875859 h 2 v -1 h -2 v -2 z"
     style="color:#eff0f1;fill:currentColor;fill-opacity:1;stroke:none"
     id="path866" />
</svg>
