<?xml version="1.0" encoding="UTF-8" standalone="no"?>
<svg
   width="16"
   height="16"
   viewBox="0 0 16 16"
   version="1.1"
   id="svg4"
   sodipodi:docname="ct_to_html.svg"
   inkscape:version="1.1 (c68e22c387, 2021-05-23)"
   xmlns:inkscape="http://www.inkscape.org/namespaces/inkscape"
   xmlns:sodipodi="http://sodipodi.sourceforge.net/DTD/sodipodi-0.dtd"
   xmlns="http://www.w3.org/2000/svg"
   xmlns:svg="http://www.w3.org/2000/svg">
  <defs
     id="defs8" />
  <sodipodi:namedview
     id="namedview6"
     pagecolor="#ffffff"
     bordercolor="#666666"
     borderopacity="1.0"
     inkscape:pageshadow="2"
     inkscape:pageopacity="0.0"
     inkscape:pagecheckerboard="0"
     showgrid="true"
     inkscape:zoom="37.211494"
     inkscape:cx="8.0082782"
     inkscape:cy="8.0082782"
     inkscape:window-width="1824"
     inkscape:window-height="1046"
     inkscape:window-x="85"
     inkscape:window-y="-11"
     inkscape:window-maximized="1"
     inkscape:current-layer="svg4">
    <inkscape:grid
       type="xygrid"
       id="grid825" />
  </sodipodi:namedview>
  <path
     id="path2"
     d="M 8 2 C 4.686 2 2 4.686 2 8 C 2 11.314 4.686 14 8 14 L 8 12.998047 C 7.9980404 12.998048 7.9961009 12.998047 7.9941406 12.998047 C 7.8041406 12.998047 7.6166406 12.987797 7.4316406 12.966797 C 7.2846406 12.949797 7.1371406 12.933297 6.9941406 12.904297 C 6.7111406 12.846297 6.4456406 12.726047 6.1816406 12.623047 C 6.1726406 12.606047 6.1483906 12.5825 6.1503906 12.5625 C 6.2023906 12.5405 6.2998906 12.6365 6.3378906 12.5625 C 6.3568906 12.5275 6.3128906 12.44125 6.3378906 12.40625 C 6.3558906 12.38225 6.4571406 12.382 6.4941406 12.375 C 6.5471406 12.365 6.6203906 12.35775 6.6503906 12.34375 C 6.6833906 12.32275 6.7188906 12.2485 6.7128906 12.1875 C 6.7098906 12.1585 6.6733906 12.152953 6.6503906 12.126953 C 6.6313906 12.104953 6.6633906 12.084453 6.6503906 12.064453 C 6.6263906 12.029453 6.5666406 12.021703 6.5566406 11.970703 C 6.6286406 11.956703 6.7338906 12.030953 6.8378906 12.001953 C 6.8868906 11.987953 6.9691875 11.891703 6.9921875 11.845703 C 6.9991875 11.831703 6.9841875 11.801203 6.9921875 11.783203 C 7.0011875 11.765203 7.0204375 11.729703 7.0234375 11.720703 C 7.0304375 11.693703 7.0174375 11.707453 7.0234375 11.689453 C 7.0414375 11.638453 7.0871875 11.600453 7.1171875 11.564453 C 7.1401875 11.536453 7.1918906 11.499703 7.2128906 11.470703 C 7.2368906 11.439703 7.2261875 11.436203 7.2421875 11.408203 C 7.2571875 11.317203 7.1908906 11.238203 7.2128906 11.158203 C 7.2368906 11.068203 7.3758906 11.011703 7.4628906 10.970703 C 7.4928906 10.956703 7.5316406 10.948453 7.5566406 10.939453 C 7.6166406 10.918453 7.6881406 10.897906 7.7441406 10.878906 C 7.8381406 10.844906 7.8543906 10.775453 7.9003906 10.689453 C 7.9223906 10.649453 7.9578906 10.593453 7.9628906 10.564453 C 7.9668906 10.538453 7.9578906 10.533906 7.9628906 10.503906 C 7.9678906 10.474906 7.9548906 10.442203 7.9628906 10.408203 C 7.9738906 10.365203 7.9941406 10.268703 7.9941406 10.220703 C 7.9941406 10.180703 7.9638906 10.162953 7.9628906 10.126953 C 7.9588437 10.051797 7.9764991 10.025382 8 10.001953 L 8 9.1269531 C 7.9377882 9.0813735 7.8752208 9.0368256 7.8066406 9.03125 L 7.7441406 9.03125 C 7.6961406 9.03125 7.6418906 9.0089531 7.5878906 9.0019531 C 7.5538906 8.9919531 7.4828906 9.0119531 7.4628906 9.0019531 C 7.4318906 8.9869531 7.4253906 8.92325 7.4003906 8.90625 C 7.3803906 8.89225 7.3376406 8.8879531 7.3066406 8.8769531 C 7.2576406 8.8589531 7.2386406 8.8174531 7.1816406 8.8144531 C 7.1636406 8.8144531 7.1371875 8.8244531 7.1171875 8.8144531 C 7.0861875 8.8044531 7.0524375 8.8012031 7.0234375 8.7832031 C 6.9874375 8.7612031 6.9446875 8.7517031 6.9296875 8.7207031 C 6.9626875 8.6127031 6.8579375 8.5972031 6.8359375 8.5332031 C 6.8259375 8.5042031 6.8459375 8.4342031 6.8359375 8.4082031 C 6.8229375 8.3712031 6.7831875 8.3454531 6.7421875 8.3144531 C 6.6701875 8.2584531 6.6264375 8.2337031 6.5234375 8.2207031 C 6.4774375 8.2107031 6.4221875 8.2307031 6.3671875 8.2207031 C 6.3091875 8.2107031 6.2236875 8.1769531 6.1796875 8.1269531 C 6.1376875 8.0779531 6.1229375 8.0249531 6.0859375 8.0019531 C 6.0509375 7.9799531 6.0142344 7.9614531 5.9902344 7.9394531 C 5.9792344 7.9294531 5.9709375 7.9292031 5.9609375 7.9082031 C 5.9429375 7.8712031 5.9076875 7.8594531 5.9296875 7.8144531 C 5.8896875 7.7944531 5.9082344 7.8527031 5.8652344 7.8457031 C 5.8262344 7.7907031 5.7989375 7.7359531 5.7109375 7.7519531 C 5.6709375 7.7619531 5.6329375 7.8447031 5.5859375 7.8457031 C 5.5469375 7.8457031 5.5119375 7.7599531 5.4609375 7.7519531 C 5.4219375 7.7419531 5.3629375 7.78625 5.3359375 7.78125 C 5.2929375 7.77125 5.2792344 7.7467031 5.2402344 7.7207031 C 5.2112344 7.7017031 5.1624844 7.6572031 5.1464844 7.6582031 C 5.0964844 7.6582031 5.0592344 7.7577031 4.9902344 7.7207031 C 4.9562344 7.6777031 5.0614844 7.6669531 5.0214844 7.6269531 C 4.9914844 7.5979531 4.9839844 7.64225 4.9589844 7.65625 C 4.9309844 7.67425 4.8962344 7.6765 4.8652344 7.6875 C 4.7962344 7.7135 4.7317344 7.722 4.6777344 7.75 C 4.6277344 7.776 4.6110313 7.79275 4.5820312 7.84375 C 4.5590313 7.88575 4.5232812 7.96675 4.4882812 7.96875 C 4.4462813 7.96875 4.4325312 7.92325 4.3945312 7.90625 C 4.2795312 7.85625 4.2082813 7.9355 4.1132812 7.9375 C 4.0252812 7.9375 3.8905313 7.80175 3.8945312 7.71875 C 3.8975313 7.66775 3.9197813 7.59525 3.9257812 7.53125 C 3.9307812 7.48125 3.9872812 7.42 3.9882812 7.375 C 3.9892812 7.313 3.8720313 7.28825 3.8320312 7.28125 C 3.7380313 7.26425 3.6265312 7.32325 3.5195312 7.28125 C 3.4995312 7.24725 3.5387813 7.2215 3.5507812 7.1875 C 3.5577813 7.1695 3.5437813 7.145 3.5507812 7.125 C 3.5627813 7.093 3.6295312 7.06525 3.6445312 7.03125 C 3.6555313 7.00525 3.6335313 6.9705 3.6445312 6.9375 C 3.6575312 6.9015 3.7030312 6.86975 3.7070312 6.84375 C 3.7110313 6.80975 3.6715313 6.7700469 3.6445312 6.7480469 C 3.5615312 6.7580469 3.5050312 6.7582969 3.4570312 6.7792969 C 3.3490312 6.8282969 3.3785312 6.9640469 3.2695312 6.9980469 C 3.2325313 7.0100469 3.1865312 7.0222969 3.1445312 7.0292969 C 3.1265313 7.0392969 3.1010781 7.0292969 3.0800781 7.0292969 C 3.0820781 7.0192969 3.0780781 7.0080469 3.0800781 6.9980469 C 3.0850781 6.9750469 3.1063281 6.9595 3.1113281 6.9375 C 3.1823281 6.6125 3.2937813 6.2960469 3.4257812 5.9980469 L 3.4550781 5.9980469 C 3.4930781 6.0080469 3.5177812 6.0585469 3.5507812 6.0605469 C 3.6427813 6.0705469 3.6622812 5.9755469 3.7382812 5.9355469 C 3.8162812 5.9465469 3.8547813 5.9255469 3.9257812 5.9355469 C 3.9737813 5.9455469 4.0440313 5.9940469 4.0820312 5.9980469 C 4.1140313 5.9980469 4.1135313 5.9627969 4.1445312 5.9667969 C 4.1745313 5.9767969 4.2332813 6.0245469 4.2382812 6.0605469 C 4.2432812 6.1055469 4.1940313 6.1677969 4.2070312 6.2167969 C 4.2540312 6.2647969 4.3607344 6.2825469 4.4277344 6.3105469 C 4.4717344 6.2735469 4.4347344 6.2062969 4.4277344 6.1542969 C 4.4267344 6.1312969 4.4307344 6.0815469 4.4277344 6.0605469 C 4.4227344 6.0245469 4.3964844 5.9977969 4.3964844 5.9667969 C 4.3964844 5.8237969 4.5192344 5.7727969 4.6152344 5.7167969 C 4.6562344 5.6927969 4.7042344 5.6410469 4.7402344 5.6230469 C 4.7912344 5.5980469 4.8232344 5.6127969 4.8652344 5.5917969 C 4.9412344 5.5487969 4.9937344 5.4835469 5.0527344 5.4355469 C 5.0797344 5.3705469 5.0497344 5.2807969 5.0527344 5.2167969 C 5.0797344 5.1997969 5.1174844 5.2167969 5.1464844 5.2167969 C 5.1924844 5.2067969 5.2142344 5.1490469 5.2402344 5.1230469 C 5.2552344 5.1080469 5.2856875 5.1067969 5.3046875 5.0917969 C 5.3506875 5.0557969 5.3584375 5.0140469 5.3984375 4.9980469 C 5.4124375 4.9880469 5.4379375 4.9737969 5.4609375 4.9667969 C 5.4909375 4.9567969 5.5379375 4.9535469 5.5859375 4.9355469 C 5.6169375 4.9245469 5.6989375 4.9172969 5.7109375 4.9042969 C 5.7259375 4.8892969 5.7069375 4.8335469 5.7109375 4.8105469 C 5.7349375 4.6975469 5.8911875 4.6922969 5.9921875 4.6542969 C 6.0621875 4.6282969 6.1329375 4.5465469 6.2109375 4.5605469 C 6.1959375 4.6145469 6.1354375 4.6205469 6.1484375 4.6855469 C 6.1654375 4.7765469 6.2726875 4.6672969 6.3046875 4.6542969 C 6.3656875 4.6282969 6.4746875 4.5905469 6.5546875 4.5605469 C 6.6246875 4.5355469 6.7456875 4.5165469 6.6796875 4.4355469 C 6.6246875 4.4255469 6.6026875 4.4790469 6.5546875 4.4980469 C 6.5216875 4.5080469 6.5182344 4.4697969 6.4902344 4.4667969 C 6.4632344 4.4667969 6.4557344 4.5030469 6.4277344 4.4980469 C 6.4007344 4.4880469 6.3692344 4.4372969 6.3652344 4.4042969 C 6.3542344 4.3202969 6.4249844 4.3100469 6.4589844 4.2480469 C 6.4359844 4.1720469 6.3354844 4.2145469 6.2714844 4.1855469 C 6.2784844 4.1405469 6.3122344 4.1017969 6.3652344 4.0917969 C 6.4082344 4.0817969 6.5267344 4.1020469 6.5527344 4.1230469 C 6.5677344 4.1360469 6.5297344 4.1655469 6.5527344 4.1855469 C 6.5787344 4.2085469 6.6124844 4.1955469 6.6464844 4.1855469 C 6.6584844 4.1285469 6.5749844 4.1600469 6.5839844 4.1230469 C 6.6519844 4.0790469 6.7822344 4.1027969 6.8652344 4.0917969 C 6.9132344 4.0817969 6.9784844 4.0522969 7.0214844 4.0292969 C 7.0614844 4.0062969 7.0732344 3.9600469 7.1152344 3.9980469 C 7.1272344 4.0390469 7.1069844 4.07175 7.0839844 4.09375 C 7.0069844 4.16175 6.9252344 4.2335 6.8652344 4.3125 C 6.9022344 4.3485 6.9594844 4.33675 7.0214844 4.34375 C 7.0454844 4.35375 7.0902344 4.34375 7.1152344 4.34375 C 7.1452344 4.35375 7.1849844 4.33375 7.2089844 4.34375 C 7.2509844 4.35375 7.2607344 4.4375 7.3027344 4.4375 C 7.3707344 4.4375 7.3417344 4.3575 7.3027344 4.3125 C 7.3147344 4.2655 7.3509844 4.2205 7.3339844 4.1875 C 7.3029844 4.1255 7.1837344 4.205 7.1777344 4.125 C 7.1737344 4.075 7.2212344 4.06925 7.2402344 4.03125 C 7.2322344 3.93525 7.3136875 3.93075 7.3046875 3.84375 C 7.2996875 3.80775 7.2662344 3.81525 7.2402344 3.78125 C 7.2272344 3.76325 7.2259375 3.7015 7.2109375 3.6875 C 7.1589375 3.6435 7.0606875 3.67775 7.0546875 3.59375 C 7.0516875 3.54375 7.0616875 3.4905 7.0546875 3.4375 C 7.0476875 3.3865 7.0049375 3.22875 6.9609375 3.21875 C 6.9049375 3.20675 6.8716875 3.31275 6.8046875 3.34375 C 6.7686875 3.36075 6.6854375 3.3790469 6.6484375 3.3730469 C 6.6244375 3.3630469 6.5899375 3.3595 6.5859375 3.3125 C 6.5819375 3.2705 6.6324375 3.25175 6.6484375 3.21875 C 6.6524375 3.20875 6.6464375 3.1985 6.6484375 3.1875 C 6.7214375 3.1675 6.7931875 3.142 6.8671875 3.125 C 6.9091875 3.115 6.9501875 3.10175 6.9921875 3.09375 C 7.0221875 3.08375 7.0559375 3.10375 7.0859375 3.09375 C 7.2199375 3.06875 7.3551875 3.04425 7.4921875 3.03125 C 7.6581875 3.01425 7.8211875 3.0019531 7.9921875 3.0019531 L 8 3 C 8.173 3 8.332 3.01425 8.5 3.03125 L 8.625 3.03125 C 8.678 3.04125 8.72925 3.0545 8.78125 3.0625 C 8.92525 3.0855 9.0485 3.12125 9.1875 3.15625 C 9.4445 3.21925 9.6985 3.30525 9.9375 3.40625 C 10.0695 3.46225 10.1865 3.52675 10.3125 3.59375 C 10.3125 3.60375 10.3135 3.614 10.3125 3.625 C 10.3415 3.638 10.35725 3.69175 10.40625 3.71875 C 10.42425 3.72875 10.4205 3.741 10.4375 3.75 C 10.4665 3.766 10.505 3.7845 10.5 3.8125 C 10.492 3.8525 10.43425 3.8430469 10.40625 3.8730469 C 10.41025 3.9310469 10.35875 3.92975 10.34375 3.96875 C 10.35275 3.99375 10.40225 4.0002969 10.40625 4.0292969 C 10.40125 4.0612969 10.33175 4.0597969 10.34375 4.0917969 C 10.39775 4.1337969 10.447047 4.1017969 10.498047 4.0917969 C 10.610047 4.0777969 10.710297 4.0812969 10.779297 4.0292969 C 10.770297 3.9762969 10.879047 3.9835469 10.873047 3.9355469 C 10.902047 3.9565469 10.93975 3.9770469 10.96875 3.9980469 C 10.95775 4.0080469 10.9495 4.0242969 10.9375 4.0292969 C 10.9165 4.0392969 10.893047 4.0485469 10.873047 4.0605469 C 10.845047 4.0785469 10.811297 4.1010938 10.779297 4.1210938 C 10.756297 4.1370938 10.709547 4.2167969 10.685547 4.2167969 C 10.656547 4.2167969 10.612797 4.1795469 10.591797 4.1855469 C 10.561797 4.1955469 10.563297 4.2350938 10.529297 4.2460938 C 10.463297 4.2700937 10.333547 4.2105938 10.310547 4.3085938 C 10.338547 4.3655938 10.448047 4.3400938 10.498047 4.3710938 C 10.529047 4.3910937 10.583797 4.4620937 10.591797 4.4960938 C 10.599797 4.5240938 10.603797 4.6535937 10.591797 4.6835938 C 10.560797 4.7635937 10.465047 4.7470938 10.373047 4.7460938 L 10.310547 4.7460938 C 10.155547 4.7360938 10.005547 4.6663438 9.9355469 4.7773438 C 9.9405469 4.8623438 9.9545469 4.9220937 9.9355469 4.9960938 C 9.9215469 5.0500938 9.8387969 5.1063437 9.8417969 5.1523438 C 9.8427969 5.1763437 9.8982969 5.2120937 9.9042969 5.2460938 C 9.9082969 5.2640938 9.8962969 5.2915938 9.9042969 5.3085938 C 9.9302969 5.3575937 9.9832969 5.2985938 10.029297 5.3085938 C 10.073297 5.3185937 10.123047 5.3845938 10.123047 5.4335938 C 10.123047 5.4685938 10.113797 5.5245937 10.091797 5.5585938 C 10.047797 5.6245938 9.9672969 5.6163437 9.9042969 5.6523438 C 9.8522969 5.6823437 9.8415469 5.7575938 9.8105469 5.8085938 C 9.7775469 5.8645938 9.7330938 5.8848438 9.7460938 5.9648438 C 9.7010938 6.0538437 9.6515938 6.1093437 9.5585938 6.1523438 C 9.5315938 6.1643437 9.4898438 6.1655937 9.4648438 6.1835938 C 9.4448438 6.1975937 9.4313437 6.2453437 9.4023438 6.2773438 C 9.3673437 6.3163437 9.3275937 6.3410938 9.3085938 6.3710938 C 9.2945938 6.3940937 9.2923438 6.4328437 9.2773438 6.4648438 C 9.2553437 6.5068437 9.2115937 6.5165937 9.1835938 6.5585938 C 9.1705938 6.5785937 9.1663438 6.6263437 9.1523438 6.6523438 C 9.1203437 6.7103437 9.0838437 6.7575938 9.0898438 6.8085938 C 9.0948438 6.8565938 9.1493438 6.8583437 9.1523438 6.9023438 C 9.1553438 6.9263437 9.1200938 6.9388438 9.1210938 6.9648438 C 9.1220937 7.0028438 9.1493437 7.0285938 9.1523438 7.0585938 C 9.1593437 7.1325938 9.1038438 7.1648438 9.0898438 7.2148438 C 9.0828438 7.2388437 9.0958438 7.2583437 9.0898438 7.2773438 C 9.0778437 7.3143438 9.0273906 7.3583437 9.0253906 7.4023438 C 9.0243906 7.4333437 9.0868437 7.4520937 9.0898438 7.4960938 C 9.0918438 7.5250937 9.0525938 7.5618437 9.0585938 7.5898438 C 9.0695937 7.6438438 9.1728437 7.7040938 9.2148438 7.7460938 C 9.2718438 7.8030938 9.3441406 7.8423438 9.3691406 7.9023438 C 9.3796406 7.9278437 9.3862812 7.96425 9.3945312 8 L 14 8 C 14 4.686 11.314 2 8 2 z M 5.96875 3.4726562 C 5.9349891 3.6517734 5.7640303 3.7237138 5.5625 3.71875 C 5.5165 3.76275 5.55625 3.84525 5.53125 3.90625 C 5.51025 3.95725 5.4279531 4.0059531 5.3769531 4.0019531 C 5.3399531 4.0019531 5.28125 3.94125 5.28125 3.90625 C 5.28125 3.86325 5.3495 3.8615 5.3125 3.8125 C 5.3145 3.8025 5.33375 3.79125 5.34375 3.78125 C 5.36375 3.76825 5.38525 3.7639531 5.40625 3.7519531 C 5.5865079 3.6414082 5.7736352 3.560247 5.96875 3.4726562 z M 10.158203 3.65625 C 10.140203 3.66625 10.142953 3.6775 10.126953 3.6875 C 10.088953 3.7105 10.062203 3.74 10.033203 3.75 C 9.9922031 3.765 9.9454531 3.7755 9.9394531 3.8125 C 9.9344531 3.8435 9.9717031 3.8450469 9.9707031 3.8730469 C 9.9557031 3.9100469 9.9474531 3.92375 9.9394531 3.96875 C 9.9904531 4.05175 10.095203 3.9505 10.158203 3.9375 C 10.186203 3.9275 10.204703 3.92725 10.220703 3.90625 C 10.237703 3.87925 10.238953 3.8505 10.251953 3.8125 C 10.265953 3.7705 10.319453 3.75575 10.314453 3.71875 C 10.310453 3.68175 10.220203 3.65125 10.158203 3.65625 z M 4.6894531 4.28125 C 4.7364531 4.31925 4.8037031 4.4025 4.7207031 4.4375 C 4.7107031 4.4475 4.5884531 4.47275 4.5644531 4.46875 C 4.5544531 4.46875 4.5412031 4.4445 4.5332031 4.4375 C 4.5852031 4.3875 4.6354531 4.32925 4.6894531 4.28125 z M 4.8769531 4.4707031 L 4.8789062 4.4707031 C 4.9017681 4.4733234 4.9111048 4.5302725 4.9394531 4.53125 C 4.9664531 4.53125 4.9869062 4.4979531 5.0039062 4.5019531 C 5.0459062 4.5129531 5.0732031 4.5959531 5.0332031 4.6269531 C 5.0002031 4.6369531 4.9947031 4.5917031 4.9707031 4.5957031 C 4.9027031 4.6077031 4.8654531 4.7559531 4.8144531 4.7519531 C 4.7664531 4.7419531 4.7342031 4.6307031 4.7832031 4.5957031 C 4.7842031 4.5657031 4.7812031 4.5642031 4.7832031 4.5332031 C 4.7979767 4.5154748 4.8375918 4.4692173 4.8769531 4.4707031 z M 4.6464844 4.4980469 C 4.6518594 4.4967969 4.6557031 4.4969531 4.6582031 4.5019531 C 4.6512031 4.5549531 4.6367031 4.5707031 4.5957031 4.5957031 C 4.5247031 4.6387031 4.4624531 4.6912031 4.4394531 4.7832031 C 4.4324531 4.8102031 4.3484531 4.8829531 4.3144531 4.8769531 C 4.2354531 4.8599531 4.3589531 4.7124531 4.3769531 4.6894531 C 4.3969531 4.6644531 4.4164531 4.6549531 4.4394531 4.6269531 C 4.4624531 4.5989531 4.4819062 4.5492031 4.5039062 4.5332031 C 4.527577 4.5164364 4.5850789 4.5004645 4.6269531 4.5019531 C 4.6269531 4.5019531 4.6289062 4.5019531 4.6289062 4.5019531 C 4.635141 4.5015499 4.6416262 4.4991767 4.6464844 4.4980469 z M 11.408203 4.65625 C 11.487203 4.64625 11.528453 4.73325 11.564453 4.78125 C 11.594453 4.82025 11.671703 4.87925 11.720703 4.90625 C 11.748703 4.92125 11.783453 4.95575 11.814453 4.96875 C 11.879453 4.99775 11.997953 5.09125 12.001953 5.15625 C 12.002953 5.18825 11.965703 5.2219531 11.970703 5.2519531 L 11.845703 5.2519531 C 11.801703 5.2519531 11.746703 5.2289531 11.720703 5.2519531 C 11.757703 5.3119531 11.825203 5.3307031 11.908203 5.3457031 C 11.938203 5.3237031 11.958656 5.2909531 11.972656 5.2519531 C 12.020891 5.2594023 12.063466 5.1753213 12.064453 5.1269531 C 12.156453 5.2569531 12.235453 5.39325 12.314453 5.53125 C 12.351453 5.59625 12.404453 5.6527031 12.439453 5.7207031 C 12.395453 5.7337031 12.384953 5.73925 12.376953 5.78125 C 12.366953 5.83725 12.398453 5.9275 12.314453 5.9375 C 12.261453 5.9475 12.199953 5.8939531 12.126953 5.8769531 C 12.096953 5.8669531 12.05525 5.8869531 12.03125 5.8769531 C 11.97625 5.8589531 11.9845 5.7849531 11.9375 5.7519531 C 11.9105 5.7329531 11.82425 5.6934531 11.78125 5.6894531 C 11.75425 5.6894531 11.74675 5.6994531 11.71875 5.6894531 C 11.68475 5.6794531 11.62175 5.7034531 11.59375 5.6894531 C 11.56675 5.6724531 11.507 5.6187031 11.5 5.5957031 C 11.489 5.5587031 11.59175 5.5339531 11.59375 5.5019531 C 11.59575 5.4779531 11.5675 5.44325 11.5625 5.40625 C 11.5585 5.38425 11.5675 5.3607031 11.5625 5.3457031 C 11.5555 5.3197031 11.50975 5.3154531 11.46875 5.3144531 L 11.375 5.3144531 L 11.1875 5.3144531 L 11.09375 5.3144531 C 11.00675 5.3244531 10.941047 5.3044531 10.873047 5.3144531 C 10.824047 5.3144531 10.731547 5.3569531 10.685547 5.3769531 C 10.662547 5.3879531 10.654047 5.39125 10.623047 5.40625 C 10.609047 5.41625 10.579547 5.4295 10.560547 5.4375 C 10.532547 5.4505 10.493797 5.492 10.466797 5.5 C 10.427797 5.51 10.381547 5.49 10.310547 5.5 C 10.259547 5.5 10.186547 5.46725 10.185547 5.40625 C 10.184547 5.31325 10.347547 5.36075 10.435547 5.34375 C 10.468547 5.33375 10.489297 5.30525 10.529297 5.28125 C 10.548297 5.27025 10.542547 5.2639531 10.560547 5.2519531 C 10.590547 5.2309531 10.649297 5.18025 10.654297 5.15625 C 10.658297 5.13425 10.651297 5.1127031 10.654297 5.0957031 C 10.658297 5.0747031 10.689797 5.0612031 10.716797 5.0332031 C 10.758797 4.9912031 10.789797 4.9352031 10.841797 4.9082031 C 10.876797 4.8902031 10.919547 4.8737031 10.935547 4.8457031 C 10.939547 4.8137031 10.934547 4.8132031 10.935547 4.7832031 C 10.957547 4.7632031 10.980047 4.7579062 10.998047 4.7539062 C 11.052047 4.7419063 11.091297 4.7539062 11.154297 4.7539062 C 11.181297 4.7539062 11.219047 4.7669062 11.248047 4.7539062 C 11.272047 4.7379062 11.2885 4.7024062 11.3125 4.6914062 C 11.3385 4.6774063 11.37425 4.6621562 11.40625 4.6601562 L 11.408203 4.65625 z M 5.2597656 4.6835938 C 5.2711406 4.6823438 5.2801563 4.6825 5.2851562 4.6875 C 5.2691562 4.7535 5.1184063 4.74275 5.0664062 4.71875 C 5.0694063 4.69375 5.0959062 4.6915 5.1289062 4.6875 L 5.2226562 4.6875 C 5.2351563 4.6875 5.2483906 4.6848437 5.2597656 4.6835938 z M 11.423828 4.8046875 C 11.418953 4.8051875 11.415156 4.8075 11.410156 4.8125 C 11.377156 4.8235 11.361156 4.89625 11.410156 4.90625 C 11.433156 4.89225 11.447406 4.8555 11.441406 4.8125 C 11.434906 4.8055 11.428703 4.8041875 11.423828 4.8046875 z M 4.90625 4.8144531 C 4.8633934 4.8460228 4.821164 4.8848055 4.7539062 4.90625 C 4.7159062 4.91825 4.6671562 4.9189531 4.6601562 4.8769531 C 4.6521562 4.8249531 4.7199062 4.8507031 4.7539062 4.8457031 C 4.7968556 4.8359419 4.8560167 4.8171834 4.90625 4.8144531 z M 11.361328 4.9648438 C 11.356517 4.9646921 11.35157 4.9663363 11.347656 4.96875 C 11.348656 5.02475 11.358656 5.077 11.347656 5.125 C 11.379656 5.187 11.456656 5.13575 11.472656 5.09375 C 11.491656 4.98975 11.457203 4.95575 11.408203 4.96875 C 11.396203 4.97625 11.377688 4.9653594 11.361328 4.9648438 z M 3.0664062 7.3144531 C 3.1211672 7.3653271 3.1545271 7.4361559 3.2207031 7.46875 C 3.2457031 7.48175 3.2824531 7.4900469 3.3144531 7.4980469 C 3.3404531 7.5080469 3.3539063 7.4880469 3.3789062 7.4980469 C 3.4319062 7.5160469 3.4912031 7.5415469 3.5332031 7.5605469 C 3.5972031 7.5885469 3.6666562 7.6847969 3.7226562 7.7167969 C 3.7256563 7.7487969 3.7126563 7.7865469 3.7226562 7.8105469 C 3.7486562 7.8455469 3.7744062 7.8802969 3.8164062 7.9042969 C 3.8674063 7.9322969 3.8934062 7.9760469 3.9414062 7.9980469 C 3.9584062 8.0080469 3.9769063 7.9880469 4.0039062 7.9980469 C 4.0699062 8.0180469 4.1031563 8.11075 4.1601562 8.09375 C 4.1971562 8.08275 4.1854063 8.0340469 4.1914062 7.9980469 C 4.2164063 7.9710469 4.2461562 7.9375 4.2851562 7.9375 C 4.3471563 7.9375 4.3559062 8.03375 4.3789062 8.09375 C 4.3919062 8.12775 4.4324062 8.1515 4.4414062 8.1875 C 4.4564062 8.2495 4.4544062 8.43175 4.4414062 8.46875 C 4.4254062 8.51475 4.3544063 8.5115 4.3164062 8.5625 C 4.2984063 8.5865 4.2991562 8.63925 4.2851562 8.65625 C 4.2611562 8.68525 4.2416562 8.69175 4.2226562 8.71875 C 4.2126563 8.73375 4.2004062 8.7592969 4.1914062 8.7792969 C 4.1614062 8.8432969 4.1039063 8.89175 4.1289062 8.96875 C 4.1389062 8.99975 4.1914062 9.0255 4.1914062 9.0625 C 4.1914062 9.1065 4.1046563 9.1395 4.0976562 9.1875 C 4.0926563 9.2225 4.1179062 9.2655 4.1289062 9.3125 C 4.1369063 9.3475 4.2016562 9.38325 4.2226562 9.40625 C 4.2576563 9.44525 4.2844063 9.5135 4.3164062 9.5625 C 4.3794062 9.6595 4.4106562 9.779 4.4726562 9.875 C 4.5056563 9.924 4.5756562 9.948 4.5976562 10 C 4.6086563 10.026 4.5876563 10.06975 4.5976562 10.09375 C 4.6336562 10.17475 4.7979063 10.2725 4.8789062 10.3125 C 4.9169063 10.3315 4.9689062 10.32375 5.0039062 10.34375 C 5.0569062 10.37375 5.1644062 10.454 5.1914062 10.5 C 5.2154063 10.542 5.2106563 10.65175 5.2226562 10.71875 C 5.2376562 10.80675 5.2186563 10.87375 5.2226562 10.96875 C 5.2256563 11.02075 5.2539062 11.04175 5.2539062 11.09375 C 5.2539062 11.11175 5.2549063 11.1685 5.2539062 11.1875 C 5.2529062 11.2495 5.2589062 11.312953 5.2539062 11.376953 C 5.2509062 11.410953 5.2519063 11.441703 5.2539062 11.470703 C 5.2569063 11.501703 5.2831562 11.50425 5.2851562 11.53125 C 5.2871562 11.56025 5.2509062 11.603953 5.2539062 11.626953 C 5.2609062 11.689953 5.3034063 11.72325 5.3164062 11.78125 C 5.3264062 11.82725 5.3536563 11.946953 5.3476562 12.001953 C 5.3436563 12.030953 5.3204062 12.062703 5.3164062 12.095703 C 5.3134062 12.121703 5.3204062 12.13325 5.3164062 12.15625 C 5.3134062 12.17925 5.3224063 12.19975 5.3164062 12.21875 C 5.2844062 12.19875 5.2546563 12.17725 5.2226562 12.15625 C 4.9566562 11.97625 4.6986562 11.75725 4.4726562 11.53125 C 4.4416563 11.50025 4.4089062 11.4695 4.3789062 11.4375 C 4.1979062 11.2475 4.0279063 11.0295 3.8789062 10.8125 C 3.8649063 10.7925 3.8606562 10.770953 3.8476562 10.751953 C 3.6746562 10.492953 3.5331563 10.2285 3.4101562 9.9375 C 3.4011563 9.9165 3.3869063 9.8979531 3.3789062 9.8769531 C 3.2739063 9.6179531 3.1899062 9.3415 3.1289062 9.0625 C 3.1169062 9.0095 3.1076562 8.95925 3.0976562 8.90625 C 3.0726563 8.77225 3.0491563 8.6389531 3.0351562 8.5019531 C 3.0181563 8.3319531 3.0039063 8.172 3.0039062 8 C 3.0039062 7.7626731 3.0335167 7.5427605 3.0664062 7.3144531 z M 5.03125 7.8417969 C 5.0471406 7.8547344 5.0351094 7.8997969 5.0058594 7.9042969 C 4.9688594 7.9142969 4.9698594 7.86175 5.0058594 7.84375 C 5.0178594 7.83825 5.0259531 7.8374844 5.03125 7.8417969 z "
     style="fill:#209ae7;fill-opacity:1" />
  <path
     style="fill:#eff0f1;fill-opacity:1;stroke:none"
     d="m 7.9788108,12 h 4.0859132 l -1.62106,1.6211 0.70706,0.707 2.8281,-2.8281 -2.8281,-2.82813 -0.70706,0.70704 L 12.064724,11 H 7.9788108 Z"
     id="path5" />
</svg>
