<?xml version="1.0" encoding="UTF-8" standalone="no"?>
<svg
   viewBox="0 0 16 16"
   version="1.1"
   id="svg8"
   sodipodi:docname="ct_table_edit.svg"
   inkscape:version="1.1 (c68e22c387, 2021-05-23)"
   xmlns:inkscape="http://www.inkscape.org/namespaces/inkscape"
   xmlns:sodipodi="http://sodipodi.sourceforge.net/DTD/sodipodi-0.dtd"
   xmlns="http://www.w3.org/2000/svg"
   xmlns:svg="http://www.w3.org/2000/svg"><sodipodi:namedview
   id="namedview10"
   pagecolor="#ffffff"
   bordercolor="#666666"
   borderopacity="1.0"
   inkscape:pageshadow="2"
   inkscape:pageopacity="0.0"
   inkscape:pagecheckerboard="0"
   showgrid="true"
   inkscape:snap-global="true"
   inkscape:zoom="64"
   inkscape:cx="8.3671875"
   inkscape:cy="8.1171875"
   inkscape:window-width="1920"
   inkscape:window-height="1001"
   inkscape:window-x="-9"
   inkscape:window-y="41"
   inkscape:window-maximized="1"
   inkscape:current-layer="svg8">
  <inkscape:grid
     type="xygrid"
     id="grid827" />
</sodipodi:namedview>
<defs
   id="defs3051">
  <style
     type="text/css"
     id="current-color-scheme">
      .ColorScheme-Text {
        color:#eff0f1;
      }
      .ColorScheme-Highlight {
        color:#3daee9;
      }
      </style>
</defs>
<path
   style="fill:currentColor;fill-opacity:1;stroke:none"
   d="m 2,2 v 12 h 5.9998268 l 0.010026,-1 H 7 V 10 H 9 V 9 H 7 V 6 h 2 v 4 L 10,9 V 6 h 3 v 1 l 1,0.984375 V 2 Z M 3,3 H 6 V 5 H 3 Z M 7,3 H 9 V 5 H 7 Z m 3,0 h 3 V 5 H 10 Z M 3,6 H 6 V 9 H 3 Z m 0,4 h 3 v 3 H 3 Z"
   class="ColorScheme-Text"
   id="path4"
   sodipodi:nodetypes="cccccccccccccccccccccccccccccccccccccccccccc" />
<path
   style="color:#000000;fill:#1d99f3"
   d="M 3,3 6,3 6,5 3,5 Z"
   id="path6" />
a
<path
   d="m 12.995283,8.014981 m 0,0 -1,1 -1,1.000006 -2.0000064,2 v 1 1 h 2.0000064 l 0.59375,-0.59375 0.40625,-0.40625 1,-1 1,-1 1,-1 z m -0.310547,1.689453 0.591797,0.591803 -0.28125,0.28125 -1.40625,1.40625 v 0.01563 l -1.28125,1.29687 -0.593756,-0.59375 z"
   style="color:#eff0f1;fill:currentColor;fill-opacity:1;stroke:none"
   id="path1541" />
</svg>
