<?xml version="1.0" encoding="UTF-8" standalone="no"?>
<svg
   width="16"
   height="16"
   viewBox="0 0 16 16"
   version="1.1"
   id="svg4"
   sodipodi:docname="ct_to_pdf.svg"
   inkscape:version="1.1 (c68e22c387, 2021-05-23)"
   xmlns:inkscape="http://www.inkscape.org/namespaces/inkscape"
   xmlns:sodipodi="http://sodipodi.sourceforge.net/DTD/sodipodi-0.dtd"
   xmlns="http://www.w3.org/2000/svg"
   xmlns:svg="http://www.w3.org/2000/svg">
  <defs
     id="defs8" />
  <sodipodi:namedview
     id="namedview6"
     pagecolor="#ffffff"
     bordercolor="#666666"
     borderopacity="1.0"
     inkscape:pageshadow="2"
     inkscape:pageopacity="0.0"
     inkscape:pagecheckerboard="0"
     showgrid="true"
     inkscape:zoom="52.625"
     inkscape:cx="7.9809976"
     inkscape:cy="7.9809976"
     inkscape:window-width="1824"
     inkscape:window-height="1046"
     inkscape:window-x="85"
     inkscape:window-y="-11"
     inkscape:window-maximized="1"
     inkscape:current-layer="svg4">
    <inkscape:grid
       type="xygrid"
       id="grid825" />
  </sodipodi:namedview>
  <path
     id="path2"
     d="M 3.8554688 2 C 3.6934688 2.01 3.519125 2.0008125 3.328125 2.1328125 C 1.6438107 2.856356 2.7440204 4.8246239 4.8671875 6.3476562 C 4.7279008 7.7168907 4.5121252 9.3435493 4.2167969 10.619141 C 4.2161169 10.5531 4.2202728 10.487715 4.2363281 10.427734 C 2.5763281 11.459734 1.5953438 12.954109 2.1523438 13.662109 C 2.2832565 13.826239 2.4208019 13.908857 2.5585938 13.923828 C 1.643099 13.366719 3.1108972 12.458782 3.9257812 11.96875 L 3.9433594 11.986328 C 3.5221446 13.168998 3.0357668 13.963357 2.5683594 13.929688 C 3.2685558 14.263938 4.7418834 12.695275 5.3261719 11.140625 C 6.1016282 10.709021 7.042982 10.220446 8 9.75 L 8 8.7109375 C 7.1464538 9.1469853 6.2796773 9.6497394 5.4960938 10.105469 C 5.6964191 8.5229485 5.7493463 8.0538854 5.9121094 6.8710938 C 6.6112791 7.3201175 7.2744574 7.7101447 8 8.0546875 L 8 8 L 12.619141 8 C 12.905888 7.9649665 13.198229 7.9518205 13.4375 8 L 13.841797 8 C 13.674022 7.6878134 13.373964 7.4140022 13.015625 7.3359375 C 12.035548 7.1172902 10.526856 7.6755806 9.8886719 7.8925781 C 8.5701079 7.3299847 7.2459665 6.6069155 6.0058594 5.8222656 C 5.9380466 3.9800261 4.9595867 2.1222675 4.0175781 2.015625 C 3.9665781 2.005625 3.9094687 2.0058594 3.8554688 2.0058594 L 3.8554688 2 z M 2.5683594 13.929688 L 2.5683594 13.925781 C 2.5651108 13.925505 2.5618432 13.924181 2.5585938 13.923828 C 2.5620333 13.925921 2.564851 13.927605 2.5683594 13.929688 z M 3.7421875 2.1113281 C 4.6477219 2.0634417 4.945948 3.3575163 4.9667969 5.1386719 C 3.1786599 3.8954867 2.1560523 2.6974204 3.3144531 2.2167969 C 3.4700781 2.1522969 3.6124395 2.1181895 3.7421875 2.1113281 z "
     style="fill:#da2c2c;fill-opacity:1;stroke:none;stroke-opacity:1" />
  <path
     style="fill:#eff0f1;fill-opacity:1;stroke:none"
     d="m 7.9788108,12 h 4.0859132 l -1.62106,1.6211 0.70706,0.707 2.8281,-2.8281 -2.8281,-2.82813 -0.70706,0.70704 L 12.064724,11 H 7.9788108 Z"
     id="path5" />
</svg>
