<?xml version="1.0" encoding="UTF-8" standalone="no"?>
<svg
   viewBox="0 0 16 16"
   version="1.1"
   id="svg8"
   sodipodi:docname="ct_table_insert.svg.2021_08_16_09_23_53.0.svg"
   inkscape:version="1.1 (c68e22c387, 2021-05-23)"
   xmlns:inkscape="http://www.inkscape.org/namespaces/inkscape"
   xmlns:sodipodi="http://sodipodi.sourceforge.net/DTD/sodipodi-0.dtd"
   xmlns="http://www.w3.org/2000/svg"
   xmlns:svg="http://www.w3.org/2000/svg"><sodipodi:namedview
   id="namedview10"
   pagecolor="#ffffff"
   bordercolor="#666666"
   borderopacity="1.0"
   inkscape:pageshadow="2"
   inkscape:pageopacity="0.0"
   inkscape:pagecheckerboard="0"
   showgrid="true"
   inkscape:zoom="52.625"
   inkscape:cx="12.788599"
   inkscape:cy="10.337292"
   inkscape:window-width="1824"
   inkscape:window-height="1046"
   inkscape:window-x="85"
   inkscape:window-y="-11"
   inkscape:window-maximized="1"
   inkscape:current-layer="svg8">
  <inkscape:grid
     type="xygrid"
     id="grid846" />
</sodipodi:namedview>
<defs
   id="defs3051">
  <style
     type="text/css"
     id="current-color-scheme">
      .ColorScheme-Text {
        color:#eff0f1;
      }
      .ColorScheme-Highlight {
        color:#3daee9;
      }
      </style>
</defs>
<path
   style="fill:currentColor;fill-opacity:1;stroke:none"
   d="M 2,2 V 14 H 8.0191203 V 13 H 7 V 10 H 7.9954591 V 8.9926064 L 7,9 V 6 h 2 v 1.9932357 l 1,0.011922 V 6 h 3 v 2.0191203 h 1 V 2 Z M 3,3 H 6 V 5 H 3 Z M 7,3 H 9 V 5 H 7 Z m 3,0 h 3 V 5 H 10 Z M 3,6 H 6 V 9 H 3 Z m 0,4 h 3 v 3 H 3 Z"
   class="ColorScheme-Text"
   id="path4"
   sodipodi:nodetypes="cccccccccccccccccccccccccccccccccccccccccccc" />
<path
   style="color:#000000;fill:#1d99f3"
   d="M 3,3 6,3 6,5 3,5 Z"
   id="path6" />


a
<path
   class="ColorScheme-Text"
   style="color:#eff0f1;fill:currentColor;fill-opacity:1;stroke:none"
   d="m 7.9928728,12 h 4.0859192 l -1.62106,1.6211 0.70706,0.707 2.8281,-2.8281 -2.8281,-2.82813 -0.70706,0.70704 L 12.078792,11 H 7.9928728 Z"
   id="path5"
   sodipodi:nodetypes="cccccccccc" />
</svg>
