<?xml version="1.0" encoding="UTF-8" standalone="no"?>
<!-- Uploaded to: SVG Repo, www.svgrepo.com, Generator: SVG Repo Mixer Tools -->
<svg width="800px" height="800px" viewBox="-3 0 48 48" version="1.1" xmlns="http://www.w3.org/2000/svg" xmlns:xlink="http://www.w3.org/1999/xlink">
    
    <title>Android-color</title>
    <desc>Created with Sketch.</desc>
    <defs>

</defs>
    <g id="Icons" stroke="none" stroke-width="1" fill="none" fill-rule="evenodd">
        <g id="Color-" transform="translate(-304.000000, -560.000000)" fill="#95CF00">
            <path d="M330.727009,569.600905 C329.935377,569.600905 329.294532,568.977195 329.294532,568.206729 C329.294532,567.436264 329.935377,566.815376 330.727009,566.815376 C331.518641,566.815376 332.159486,567.436264 332.159486,568.206729 C332.159486,568.977195 331.518641,569.600905 330.727009,569.600905 L330.727009,569.600905 Z M319.272991,569.600905 C318.481359,569.600905 317.840514,568.977195 317.840514,568.206729 C317.840514,567.436264 318.481359,566.815376 319.272991,566.815376 C320.064623,566.815376 320.705468,567.436264 320.705468,568.206729 C320.705468,568.977195 320.064623,569.600905 319.272991,569.600905 L319.272991,569.600905 Z M331.573737,564.018558 L332.107291,563.233981 L332.640845,562.460694 L333.829743,560.722208 C333.97763,560.507719 333.916736,560.219853 333.696355,560.078742 C333.478873,559.934809 333.180199,559.994075 333.038111,560.208564 L331.222867,562.852982 L330.677713,563.648847 C328.952361,562.996915 327.029826,562.632849 325,562.632849 C322.973074,562.632849 321.047639,562.996915 319.322287,563.648847 L318.780033,562.852982 L318.243579,562.071228 L316.967688,560.208564 C316.819801,559.994075 316.524027,559.937631 316.303645,560.078742 C316.086164,560.219853 316.025269,560.507719 316.170257,560.722208 L317.359155,562.460694 L317.892709,563.233981 L318.429163,564.018558 C314.37821,565.855822 311.637945,569.335616 311.637945,573.317766 L338.362055,573.317766 C338.362055,569.335616 335.62179,565.855822 331.573737,564.018558 Z M311.843828,575.174785 L311.637945,575.174785 L311.637945,595.613286 C311.637945,597.236061 312.992129,598.556859 314.662386,598.556859 L316.842999,598.556859 C316.767606,598.802392 316.727009,599.059214 316.727009,599.330147 L316.727009,605.214471 C316.727009,606.75258 318.011599,608 319.591964,608 C321.172328,608 322.456918,606.75258 322.456918,605.214471 L322.456918,599.330147 C322.456918,599.059214 322.413422,598.802392 322.340928,598.556859 L327.659072,598.556859 C327.586578,598.802392 327.545982,599.059214 327.545982,599.330147 L327.545982,605.214471 C327.545982,606.75258 328.827672,608 330.408036,608 C331.991301,608 333.275891,606.75258 333.275891,605.214471 L333.275891,599.330147 C333.275891,599.059214 333.232394,598.802392 333.157001,598.556859 L335.340514,598.556859 C337.010771,598.556859 338.362055,597.236061 338.362055,595.613286 L338.362055,575.174785 L311.843828,575.174785 Z M306.864954,575.174785 C305.28169,575.174785 304,576.422205 304,577.960314 L304,589.884184 C304,591.422293 305.28169,592.669713 306.864954,592.669713 C308.445319,592.669713 309.727009,591.422293 309.727009,589.884184 L309.727009,577.960314 C309.727009,576.422205 308.445319,575.174785 306.864954,575.174785 Z M343.137945,575.174785 C341.554681,575.174785 340.272991,576.422205 340.272991,577.960314 L340.272991,589.884184 C340.272991,591.422293 341.554681,592.669713 343.137945,592.669713 C344.71831,592.669713 346,591.422293 346,589.884184 L346,577.960314 C346,576.422205 344.71831,575.174785 343.137945,575.174785 Z" id="Android">

</path>
        </g>
    </g>
</svg>