<?xml version="1.0" encoding="UTF-8" standalone="no"?>
<svg
   xmlns:osb="http://www.openswatchbook.org/uri/2009/osb"
   xmlns:dc="http://purl.org/dc/elements/1.1/"
   xmlns:cc="http://creativecommons.org/ns#"
   xmlns:rdf="http://www.w3.org/1999/02/22-rdf-syntax-ns#"
   xmlns:svg="http://www.w3.org/2000/svg"
   xmlns="http://www.w3.org/2000/svg"
   xmlns:xlink="http://www.w3.org/1999/xlink"
   xmlns:sodipodi="http://sodipodi.sourceforge.net/DTD/sodipodi-0.dtd"
   xmlns:inkscape="http://www.inkscape.org/namespaces/inkscape"
   inkscape:version="1.0 (4035a4fb49, 2020-05-01)"
   sodipodi:docname="ct_anchor_link.svg"
   id="svg6"
   version="1.1"
   width="16"
   height="16">
  <sodipodi:namedview
     inkscape:current-layer="svg6"
     inkscape:window-maximized="1"
     inkscape:window-y="22"
     inkscape:window-x="-8"
     inkscape:cy="7.9985129"
     inkscape:cx="-21.326499"
     inkscape:zoom="18.814568"
     inkscape:snap-global="false"
     inkscape:guide-bbox="true"
     showguides="true"
     showgrid="true"
     id="namedview19"
     inkscape:window-height="715"
     inkscape:window-width="1366"
     inkscape:pageshadow="2"
     inkscape:pageopacity="0"
     guidetolerance="10"
     gridtolerance="10"
     objecttolerance="10"
     borderopacity="1"
     bordercolor="#666666"
     pagecolor="#ffffff"
     inkscape:document-rotation="0">
    <inkscape:grid
       id="grid939"
       type="xygrid" />
  </sodipodi:namedview>
  <metadata
     id="metadata12">
    <rdf:RDF>
      <cc:Work
         rdf:about="">
        <dc:format>image/svg+xml</dc:format>
        <dc:type
           rdf:resource="http://purl.org/dc/dcmitype/StillImage" />
        <dc:title />
      </cc:Work>
    </rdf:RDF>
  </metadata>
  <defs
     id="defs10">
    <linearGradient
       osb:paint="solid"
       id="linearGradient4526">
      <stop
         id="stop4528"
         offset="0"
         style="stop-color:#ffffff;stop-opacity:1;" />
    </linearGradient>
    <linearGradient
       xlink:href="#linearGradient6201"
       id="linearGradient3541"
       x1="65.5"
       y1="12.75"
       x2="73.25"
       y2="12.75"
       gradientUnits="userSpaceOnUse" />
    <linearGradient
       id="linearGradient6201">
      <stop
         style="stop-color:#000000;stop-opacity:1;"
         offset="0"
         id="stop6203" />
      <stop
         style="stop-color:#ffffff;stop-opacity:1"
         offset="1"
         id="stop6205" />
    </linearGradient>
    <linearGradient
       xlink:href="#linearGradient6201"
       id="linearGradient3551"
       x1="75.75"
       y1="12.75"
       x2="83.5"
       y2="12.75"
       gradientUnits="userSpaceOnUse" />
    <linearGradient
       xlink:href="#linearGradient6201"
       id="linearGradient1116"
       x1="58.695213"
       y1="-43.66399"
       x2="62.695213"
       y2="-43.66399"
       gradientUnits="userSpaceOnUse"
       gradientTransform="translate(12.804933,56.413844)" />
  </defs>
  <g
     id="g855">
    <path
       inkscape:connector-curvature="0"
       id="path849"
       style="opacity:0.7;fill:none;fill-opacity:1;stroke:#ffffff;stroke-width:2;stroke-linecap:round;stroke-opacity:1"
       d="M 7.949219,1 A 3,3 0 0 0 5,4 3,3 0 0 0 7,6.8261719 V 8.0019531 H 5 v 1 H 7 V 13.439453 C 5.585995,13.216161 4.2854335,12.530815 3.3046875,11.482422 l 0.9472656,-0.632813 -3.328125,-1.3867184 0.00195,3.6054684 1.1230468,-0.75 c 1.499766,1.710014 3.6638134,2.712107 5.9589851,2.710938 2.284126,-0.0012 4.440046,-0.995056 5.937499,-2.691406 l 1.09375,0.730468 0.002,-3.6054684 L 11.712891,10.849609 12.6875,11.5 C 11.706857,12.540533 10.409495,13.220604 9,13.441406 V 9.0019531 h 2 v -1 H 9 V 6.828125 A 3,3 0 0 0 11,4 3,3 0 0 0 8,1 3,3 0 0 0 7.949219,1 Z M 8,2.5 A 1.5,1.5 0 0 1 9.5,4 1.5,1.5 0 0 1 8,5.5 1.5,1.5 0 0 1 6.5,4 1.5,1.5 0 0 1 8,2.5 Z" />
    <path
       inkscape:connector-curvature="0"
       d="M 7.9492188,1 A 3,3 0 0 0 5,4 3,3 0 0 0 7,6.8261719 V 8.0019531 H 5 v 1 H 7 V 13.439453 C 5.585995,13.216161 4.2854335,12.530815 3.3046875,11.482422 l 0.9472656,-0.632813 -3.328125,-1.3867184 0.00195,3.6054684 1.1230468,-0.75 c 1.499766,1.710014 3.6638134,2.712107 5.9589849,2.710938 2.2841262,-0.0012 4.4400462,-0.995056 5.9374992,-2.691406 l 1.09375,0.730468 0.002,-3.6054684 L 11.712891,10.849609 12.6875,11.5 C 11.706857,12.540533 10.409495,13.220604 9,13.441406 V 9.0019531 h 2 v -1 H 9 V 6.828125 A 3,3 0 0 0 11,4 3,3 0 0 0 8,1 3,3 0 0 0 7.9492188,1 Z M 8,2.5 A 1.5,1.5 0 0 1 9.5,4 1.5,1.5 0 0 1 8,5.5 1.5,1.5 0 0 1 6.5,4 1.5,1.5 0 0 1 8,2.5 Z"
       style="opacity:1;fill:#1a1a1a;fill-opacity:1;stroke:none;stroke-width:1;stroke-linecap:round;stroke-opacity:1"
       id="path969" />
  </g>
  <g
     id="g1146"
     transform="rotate(-45,35.516346,90.647854)">
    <path
       id="rect1112"
       d="M 67.449219,9.9999996 C 66.368919,9.9999999 65.5,10.868919 65.5,11.949219 v 1.601562 c 0,1.0803 0.868919,1.949219 1.949219,1.949219 h 3.851562 C 72.381082,15.5 73.25,14.631081 73.25,13.550781 V 11.949219 C 73.25,10.868918 72.381082,10 71.300781,10 Z M 67.75,11.75 H 71 c 0.277,0 0.500001,0.223 0.5,0.5 v 1 c 10e-7,0.277 -0.223,0.5 -0.5,0.5 h -3.25 c -0.277,0 -0.5,-0.223 -0.5,-0.5 v -1 c 0,-0.277 0.223,-0.5 0.5,-0.5 z"
       style="opacity:1;fill:#d4d4d4;fill-opacity:1;stroke:#000000;stroke-width:1;stroke-linecap:round;stroke-linejoin:bevel;stroke-opacity:0.427451" />
    <path
       id="rect1116"
       d="m 77.699219,10 c -1.0803,-6e-7 -1.949219,0.868918 -1.949219,1.949219 v 1.601562 c 0,1.0803 0.868919,1.949219 1.949219,1.949219 h 3.851562 C 82.631082,15.5 83.5,14.631081 83.5,13.550781 v -1.601563 c 0,-1.080299 -0.868918,-1.9492186 -1.949219,-1.9492186 z M 78,11.75 h 3.25 c 0.277,0 0.5,0.223 0.500001,0.5 L 81.75,13.249999 C 81.75,13.527 81.527,13.75 81.25,13.75 H 78 c -0.277,0 -0.5,-0.223 -0.5,-0.5 v -1 c 0,-0.277 0.223,-0.5 0.5,-0.5 z"
       style="opacity:1;fill:#d4d4d4;fill-opacity:1;stroke:#000000;stroke-width:1;stroke-linecap:round;stroke-linejoin:bevel;stroke-opacity:0.427451" />
    <path
       style="opacity:0.2;fill:url(#linearGradient3541);fill-opacity:1;stroke:none;stroke-width:1;stroke-linecap:round;stroke-linejoin:bevel;stroke-opacity:0.427451"
       d="M 67.449219,9.9999996 C 66.368919,9.9999999 65.5,10.868919 65.5,11.949219 v 1.601562 c 0,1.0803 0.868919,1.949219 1.949219,1.949219 h 3.851562 C 72.381082,15.5 73.25,14.631081 73.25,13.550781 V 11.949219 C 73.25,10.868918 72.381082,10 71.300781,10 Z M 67.75,11.75 H 71 c 0.277,0 0.500001,0.223 0.5,0.5 v 1 c 10e-7,0.277 -0.223,0.5 -0.5,0.5 h -3.25 c -0.277,0 -0.5,-0.223 -0.5,-0.5 v -1 c 0,-0.277 0.223,-0.5 0.5,-0.5 z"
       id="path2990" />
    <path
       style="opacity:0.4;fill:none;fill-opacity:1;stroke:#ffffff;stroke-width:1;stroke-linecap:round;stroke-linejoin:bevel;stroke-opacity:1"
       d="M 71.25,14.5 H 67.5 c -0.554,0 -1,-0.446 -1,-1 V 12 m 1,-1 h 3.75 c 0.554,0 1,0.446 1,1"
       id="path1139" />
    <path
       style="opacity:0.2;fill:url(#linearGradient3551);fill-opacity:1;stroke:none;stroke-width:1;stroke-linecap:round;stroke-linejoin:bevel;stroke-opacity:0.427451"
       d="m 77.699219,10 c -1.0803,-6e-7 -1.949219,0.868918 -1.949219,1.949219 v 1.601562 c 0,1.0803 0.868919,1.949219 1.949219,1.949219 h 3.851562 C 82.631082,15.5 83.5,14.631081 83.5,13.550781 v -1.601563 c 0,-1.080299 -0.868918,-1.9492186 -1.949219,-1.9492186 z M 78,11.75 h 3.25 c 0.277,0 0.5,0.223 0.500001,0.5 L 81.75,13.249999 C 81.75,13.527 81.527,13.75 81.25,13.75 H 78 c -0.277,0 -0.5,-0.223 -0.5,-0.5 v -1 c 0,-0.277 0.223,-0.5 0.5,-0.5 z"
       id="path3543" />
    <path
       id="rect1136"
       d="m 77.75,11 h 3.75 c 0.554,0 1,0.446 1,1 v 1.5 m -1,1 h -3.75 c -0.554,0 -1,-0.446 -1,-1"
       style="opacity:0.4;fill:none;fill-opacity:1;stroke:#ffffff;stroke-width:1;stroke-linecap:round;stroke-linejoin:bevel;stroke-opacity:1" />
    <rect
       ry="0.875"
       style="opacity:1;fill:#d4d4d4;fill-opacity:1;stroke:#000000;stroke-width:1;stroke-linecap:round;stroke-linejoin:bevel;stroke-opacity:0.403922"
       id="rect1120"
       width="8"
       height="1.75"
       x="70.5"
       y="11.874998"
       rx="0.875" />
    <rect
       ry="0.5"
       style="opacity:0.2;fill:url(#linearGradient1116);fill-opacity:1;stroke:none;stroke-width:1;stroke-linecap:round;stroke-linejoin:bevel;stroke-opacity:1"
       id="rect303"
       width="7"
       height="0.75"
       x="71.000145"
       y="12.374854"
       rx="0.5" />
    <rect
       rx="0.5"
       y="12.374854"
       x="71.000145"
       height="0.75"
       width="7"
       id="rect1118"
       style="opacity:0.4;fill:#ffffff;fill-opacity:1;stroke:none;stroke-width:1;stroke-linecap:round;stroke-linejoin:bevel;stroke-opacity:1"
       ry="0.5" />
  </g>
</svg>
