<?xml version="1.0" encoding="UTF-8" standalone="no"?>
<svg
   xmlns:osb="http://www.openswatchbook.org/uri/2009/osb"
   xmlns:dc="http://purl.org/dc/elements/1.1/"
   xmlns:cc="http://creativecommons.org/ns#"
   xmlns:rdf="http://www.w3.org/1999/02/22-rdf-syntax-ns#"
   xmlns:svg="http://www.w3.org/2000/svg"
   xmlns="http://www.w3.org/2000/svg"
   xmlns:xlink="http://www.w3.org/1999/xlink"
   xmlns:sodipodi="http://sodipodi.sourceforge.net/DTD/sodipodi-0.dtd"
   xmlns:inkscape="http://www.inkscape.org/namespaces/inkscape"
   id="svg6"
   version="1.1"
   width="48"
   height="48"
   sodipodi:docname="ct_anchor.svg"
   inkscape:version="1.0 (4035a4fb49, 2020-05-01)">
  <sodipodi:namedview
     inkscape:document-rotation="0"
     pagecolor="#ffffff"
     bordercolor="#666666"
     borderopacity="1"
     objecttolerance="10"
     gridtolerance="10"
     guidetolerance="10"
     inkscape:pageopacity="0"
     inkscape:pageshadow="2"
     inkscape:window-width="1366"
     inkscape:window-height="715"
     id="namedview32"
     showgrid="false"
     inkscape:zoom="7.0751611"
     inkscape:cx="9.3137101"
     inkscape:cy="9.8875437"
     inkscape:window-x="-8"
     inkscape:window-y="22"
     inkscape:window-maximized="1"
     inkscape:current-layer="svg6" />
  <metadata
     id="metadata12">
    <rdf:RDF>
      <cc:Work
         rdf:about="">
        <dc:format>image/svg+xml</dc:format>
        <dc:type
           rdf:resource="http://purl.org/dc/dcmitype/StillImage" />
        <dc:title />
      </cc:Work>
    </rdf:RDF>
  </metadata>
  <defs
     id="defs10">
    <linearGradient
       id="linearGradient78">
      <stop
         id="stop74"
         offset="0"
         style="stop-color:#9bdb4d;stop-opacity:1" />
      <stop
         id="stop76"
         offset="1"
         style="stop-color:#68b723;stop-opacity:1" />
    </linearGradient>
    <linearGradient
       id="linearGradient4526"
       osb:paint="solid">
      <stop
         style="stop-color:#ffffff;stop-opacity:1;"
         offset="0"
         id="stop4528" />
    </linearGradient>
    <linearGradient
       id="linearGradient8662-7">
      <stop
         offset="0"
         style="stop-color:#000000;stop-opacity:1"
         id="stop8664-0" />
      <stop
         offset="1"
         style="stop-color:#000000;stop-opacity:0"
         id="stop8666-1" />
    </linearGradient>
    <linearGradient
       y2="6.0029268"
       x2="3.4346464"
       y1="6.0029268"
       x1="20.391411"
       gradientTransform="matrix(0,-1,-1,0,23.002927,24.000361)"
       gradientUnits="userSpaceOnUse"
       id="linearGradient72"
       xlink:href="#linearGradient78" />
    <radialGradient
       gradientTransform="matrix(-0.52995454,0,0,-0.35307735,22.512547,21.835677)"
       gradientUnits="userSpaceOnUse"
       xlink:href="#linearGradient8662-7"
       id="radialGradient3862-3"
       fy="36.421127"
       fx="24.837126"
       r="15.644737"
       cy="36.421127"
       cx="24.837126" />
    <linearGradient
       gradientTransform="matrix(0.52954619,0,0,0.41850627,0.1379221,2.3162704)"
       gradientUnits="userSpaceOnUse"
       xlink:href="#linearGradient4333"
       id="linearGradient3030-1"
       y2="25.528242"
       x2="24.138529"
       y1="20.749342"
       x1="24.138529" />
    <linearGradient
       id="linearGradient4333">
      <stop
         id="stop4335"
         style="stop-color:#ffffff;stop-opacity:1"
         offset="0" />
      <stop
         id="stop4337"
         style="stop-color:#ffffff;stop-opacity:0.23529412"
         offset="0" />
      <stop
         id="stop4339"
         style="stop-color:#ffffff;stop-opacity:0.15686275"
         offset="1" />
      <stop
         id="stop4341"
         style="stop-color:#ffffff;stop-opacity:0.39215687"
         offset="1" />
    </linearGradient>
    <linearGradient
       gradientTransform="matrix(0.42269325,0,0,0.52517926,2.5448431,-0.15959052)"
       gradientUnits="userSpaceOnUse"
       xlink:href="#linearGradient4154"
       id="linearGradient3030"
       y2="36.482002"
       x2="24.138529"
       y1="9.8244371"
       x1="24.138529" />
    <linearGradient
       id="linearGradient4154">
      <stop
         offset="0"
         style="stop-color:#ffffff;stop-opacity:1"
         id="stop4156" />
      <stop
         offset="0"
         style="stop-color:#ffffff;stop-opacity:0.23529412"
         id="stop4158" />
      <stop
         offset="1"
         style="stop-color:#ffffff;stop-opacity:0.15686275"
         id="stop4160" />
      <stop
         offset="1"
         style="stop-color:#ffffff;stop-opacity:0.39215687"
         id="stop4162" />
    </linearGradient>
  </defs>
  <g
     id="g903"
     transform="translate(0.1123045)"
     style="fill:#4d4d4d" />
  <path
     d="M 15.868273,22.762921 H 32.131728 V 19.757717 H 15.868273 Z M 24.22461,2.2536852 c -4.200897,0 -7.648438,3.4475398 -7.648438,7.6484376 0,3.3108862 2.153197,6.1265582 5.117189,7.1835942 V 41.339623 C 16.277093,40.396037 11.672687,36.752651 9.857422,31.429467 l 3.117188,-1.117188 -7.2500003,-5.25 -2.8750001,8.875 3.2421877,-1.160156 c 2.651502,7.69788 9.8862327,12.91356 18.0429687,12.96875 8.184512,0.05538 15.516324,-5.096018 18.249998,-12.800782 l 2.765626,0.992188 -2.875,-8.875 -7.25,5.25 3.589842,1.285156 c -1.867934,5.27224 -6.474608,8.8468 -11.859374,9.753906 V 17.085717 c 2.963992,-1.057036 5.117188,-3.872708 5.117188,-7.1835942 0,-4.200898 -3.44754,-7.6484378 -7.648436,-7.6484376 z m 0,4 c 2.039138,0 3.648438,1.6093 3.648438,3.6484376 0,1.7976602 -1.251982,3.2598802 -2.945314,3.5820312 h -1.406248 c -1.693331,-0.322151 -2.945313,-1.784371 -2.945313,-3.5820312 0,-2.0391374 1.609299,-3.6484376 3.648437,-3.6484376 z"
     style="fill:none;stroke:#d4d4d4;stroke-width:2;stroke-opacity:1"
     id="path853" />
  <path
     id="rect940"
     style="fill:#1a1a1a;stroke:none;stroke-width:4;stroke-opacity:1"
     d="M 15.868273,22.762921 H 32.131728 V 19.757717 H 15.868273 Z M 24.22461,2.2536852 c -4.200897,0 -7.648438,3.4475398 -7.648438,7.6484376 0,3.3108862 2.153197,6.1265582 5.117189,7.1835942 V 41.339623 C 16.277093,40.396037 11.672687,36.752651 9.857422,31.429467 l 3.117188,-1.117188 -7.2500003,-5.25 -2.8750001,8.875 3.2421877,-1.160156 c 2.651502,7.69788 9.8862327,12.91356 18.0429687,12.96875 8.184512,0.05538 15.516324,-5.096018 18.249998,-12.800782 l 2.765626,0.992188 -2.875,-8.875 -7.25,5.25 3.589842,1.285156 c -1.867934,5.27224 -6.474608,8.8468 -11.859374,9.753906 V 17.085717 c 2.963992,-1.057036 5.117188,-3.872708 5.117188,-7.1835942 0,-4.200898 -3.44754,-7.6484378 -7.648436,-7.6484376 z m 0,4 c 2.039138,0 3.648438,1.6093 3.648438,3.6484376 0,1.7976602 -1.251982,3.2598802 -2.945314,3.5820312 h -1.406248 c -1.693331,-0.322151 -2.945313,-1.784371 -2.945313,-3.5820312 0,-2.0391374 1.609299,-3.6484376 3.648437,-3.6484376 z" />
</svg>
