<?xml version="1.0" encoding="UTF-8" standalone="no"?>
<svg
   viewBox="-97.62 -147.24 16 16"
   width="16"
   height="16"
   version="1.1"
   id="svg6"
   sodipodi:docname="ct_ansible.svg"
   inkscape:version="1.1.1 (3bf5ae0d25, 2021-09-20)"
   xmlns:inkscape="http://www.inkscape.org/namespaces/inkscape"
   xmlns:sodipodi="http://sodipodi.sourceforge.net/DTD/sodipodi-0.dtd"
   xmlns="http://www.w3.org/2000/svg"
   xmlns:svg="http://www.w3.org/2000/svg">
  <defs
     id="defs10" />
  <sodipodi:namedview
     id="namedview8"
     pagecolor="#ffffff"
     bordercolor="#666666"
     borderopacity="1.0"
     inkscape:pageshadow="2"
     inkscape:pageopacity="0.0"
     inkscape:pagecheckerboard="0"
     showgrid="false"
     inkscape:zoom="6.453125"
     inkscape:cx="62.837772"
     inkscape:cy="7.9806295"
     inkscape:window-width="1920"
     inkscape:window-height="1016"
     inkscape:window-x="0"
     inkscape:window-y="0"
     inkscape:window-maximized="1"
     inkscape:current-layer="svg6" />
  <g
     id="g829"
     transform="matrix(0.25,0,0,0.25,-73.215,-110.43)">
    <path
       d="m -33.62,-115.24 c 0,17.674 -14.326,32 -32,32 -17.674,0 -32,-14.326 -32,-32 0,-17.674 14.328,-32 32,-32 17.672,0 32,14.328 32,32"
       fill="#1a1918"
       id="path2" />
    <path
       d="m -65.08,-127.692 8.28,20.438 -12.508,-9.853 z m 14.7,25.147 -12.728,-30.655 c -0.364,-0.884 -1.1,-1.352 -1.973,-1.352 -0.873,0 -1.664,0.468 -2.028,1.352 L -81.1,-99.576 h 4.783 l 5.534,-13.863 16.515,13.343 c 0.664,0.537 1.144,0.78 1.767,0.78 1.248,0 2.338,-0.936 2.338,-2.286 0,-0.22 -0.078,-0.57 -0.218,-0.944 z"
       fill="#ffffff"
       id="path4" />
  </g>
</svg>
