<?xml version="1.0" encoding="UTF-8" standalone="no"?>
<svg
   xmlns:osb="http://www.openswatchbook.org/uri/2009/osb"
   xmlns:dc="http://purl.org/dc/elements/1.1/"
   xmlns:cc="http://creativecommons.org/ns#"
   xmlns:rdf="http://www.w3.org/1999/02/22-rdf-syntax-ns#"
   xmlns:svg="http://www.w3.org/2000/svg"
   xmlns="http://www.w3.org/2000/svg"
   xmlns:xlink="http://www.w3.org/1999/xlink"
   xmlns:sodipodi="http://sodipodi.sourceforge.net/DTD/sodipodi-0.dtd"
   xmlns:inkscape="http://www.inkscape.org/namespaces/inkscape"
   inkscape:version="0.92.5 (2060ec1f9f, 2020-04-08)"
   sodipodi:docname="ct_anchor_insert.svg"
   id="svg6"
   version="1.1"
   width="16"
   height="16">
  <sodipodi:namedview
     inkscape:current-layer="svg6"
     inkscape:window-maximized="1"
     inkscape:window-y="0"
     inkscape:window-x="0"
     inkscape:cy="7.6061429"
     inkscape:cx="19.514045"
     inkscape:zoom="20.38892"
     inkscape:snap-global="false"
     inkscape:guide-bbox="true"
     showguides="true"
     showgrid="true"
     id="namedview19"
     inkscape:window-height="717"
     inkscape:window-width="1366"
     inkscape:pageshadow="2"
     inkscape:pageopacity="0"
     guidetolerance="10"
     gridtolerance="10"
     objecttolerance="10"
     borderopacity="1"
     bordercolor="#666666"
     pagecolor="#ffffff"
     inkscape:document-rotation="0">
    <inkscape:grid
       id="grid939"
       type="xygrid" />
  </sodipodi:namedview>
  <metadata
     id="metadata12">
    <rdf:RDF>
      <cc:Work
         rdf:about="">
        <dc:format>image/svg+xml</dc:format>
        <dc:type
           rdf:resource="http://purl.org/dc/dcmitype/StillImage" />
        <dc:title />
      </cc:Work>
    </rdf:RDF>
  </metadata>
  <defs
     id="defs10">
    <linearGradient
       osb:paint="solid"
       id="linearGradient4526">
      <stop
         id="stop4528"
         offset="0"
         style="stop-color:#ffffff;stop-opacity:1;" />
    </linearGradient>
    <radialGradient
       cx="38.658855"
       cy="9.3411446"
       r="8.341651"
       fx="38.658855"
       fy="9.3411446"
       id="radialGradient5583"
       xlink:href="#linearGradient2378"
       gradientUnits="userSpaceOnUse" />
    <linearGradient
       id="linearGradient2378">
      <stop
         id="stop2380"
         style="stop-color:#ffffff;stop-opacity:1"
         offset="0" />
      <stop
         id="stop4146"
         style="stop-color:#fefede;stop-opacity:0.91836733"
         offset="0.25" />
      <stop
         id="stop2386"
         style="stop-color:#f5f328;stop-opacity:1"
         offset="0.5" />
      <stop
         id="stop10317"
         style="stop-color:#f5f32d;stop-opacity:0.12234043"
         offset="1" />
    </linearGradient>
    <radialGradient
       cx="64.575233"
       cy="48.605404"
       r="31.000002"
       fx="64.575233"
       fy="48.605404"
       id="radialGradient3259"
       xlink:href="#linearGradient3242-7-3-8-0-4-58-06"
       gradientUnits="userSpaceOnUse"
       gradientTransform="matrix(0,0.38528829,-0.41958841,0,25.389782,-23.793293)" />
    <linearGradient
       id="linearGradient3242-7-3-8-0-4-58-06">
      <stop
         id="stop3244-5-8-5-6-4-3-8"
         style="stop-color:#cdf87e;stop-opacity:1"
         offset="0" />
      <stop
         id="stop3246-9-5-1-5-3-0-7"
         style="stop-color:#a2e34f;stop-opacity:1"
         offset="0.26238" />
      <stop
         id="stop3248-7-2-0-7-5-35-9"
         style="stop-color:#68b723;stop-opacity:1"
         offset="0.66093999" />
      <stop
         id="stop3250-8-2-8-5-6-40-4"
         style="stop-color:#1d7e0d;stop-opacity:1"
         offset="1" />
    </linearGradient>
  </defs>
  <g
     id="g855">
    <path
       inkscape:connector-curvature="0"
       id="path849"
       style="opacity:0.7;fill:none;fill-opacity:1;stroke:#ffffff;stroke-width:2;stroke-linecap:round;stroke-opacity:1"
       d="M 7.949219,1 A 3,3 0 0 0 5,4 3,3 0 0 0 7,6.8261719 V 8.0019531 H 5 v 1 H 7 V 13.439453 C 5.585995,13.216161 4.2854335,12.530815 3.3046875,11.482422 l 0.9472656,-0.632813 -3.328125,-1.3867184 0.00195,3.6054684 1.1230468,-0.75 c 1.499766,1.710014 3.6638134,2.712107 5.9589851,2.710938 2.284126,-0.0012 4.440046,-0.995056 5.937499,-2.691406 l 1.09375,0.730468 0.002,-3.6054684 L 11.712891,10.849609 12.6875,11.5 C 11.706857,12.540533 10.409495,13.220604 9,13.441406 V 9.0019531 h 2 v -1 H 9 V 6.828125 A 3,3 0 0 0 11,4 3,3 0 0 0 8,1 3,3 0 0 0 7.949219,1 Z M 8,2.5 A 1.5,1.5 0 0 1 9.5,4 1.5,1.5 0 0 1 8,5.5 1.5,1.5 0 0 1 6.5,4 1.5,1.5 0 0 1 8,2.5 Z" />
    <path
       inkscape:connector-curvature="0"
       d="M 7.9492188,1 A 3,3 0 0 0 5,4 3,3 0 0 0 7,6.8261719 V 8.0019531 H 5 v 1 H 7 V 13.439453 C 5.585995,13.216161 4.2854335,12.530815 3.3046875,11.482422 l 0.9472656,-0.632813 -3.328125,-1.3867184 0.00195,3.6054684 1.1230468,-0.75 c 1.499766,1.710014 3.6638134,2.712107 5.9589849,2.710938 2.2841262,-0.0012 4.4400462,-0.995056 5.9374992,-2.691406 l 1.09375,0.730468 0.002,-3.6054684 L 11.712891,10.849609 12.6875,11.5 C 11.706857,12.540533 10.409495,13.220604 9,13.441406 V 9.0019531 h 2 v -1 H 9 V 6.828125 A 3,3 0 0 0 11,4 3,3 0 0 0 8,1 3,3 0 0 0 7.9492188,1 Z M 8,2.5 A 1.5,1.5 0 0 1 9.5,4 1.5,1.5 0 0 1 8,5.5 1.5,1.5 0 0 1 6.5,4 1.5,1.5 0 0 1 8,2.5 Z"
       style="opacity:1;fill:#1a1a1a;fill-opacity:1;stroke:none;stroke-width:1;stroke-linecap:round;stroke-opacity:1"
       id="path969" />
  </g>
  <g
     id="g901"
     transform="translate(6.9991083,-1.0064661)">
    <path
       inkscape:connector-curvature="0"
       d="M 3.5002863,3.499714 V 1.4924277 h 3 V 3.499714 h 2.007286 v 3 H 6.5002863 V 8.507 h -3 V 6.499714 H 1.493 v -3 z"
       id="path2262"
       style="color:#000000;display:inline;overflow:visible;visibility:visible;fill:url(#radialGradient3259);fill-opacity:1;fill-rule:nonzero;stroke:none;stroke-width:0.98542702;stroke-linecap:round;stroke-linejoin:round;stroke-miterlimit:4;stroke-dasharray:none;stroke-dashoffset:0;stroke-opacity:1;marker:none;enable-background:accumulate" />
    <path
       inkscape:connector-curvature="0"
       d="M 3.5002863,3.499714 V 1.4924277 h 3 V 3.499714 h 2.007286 v 3 H 6.5002863 V 8.507 h -3 V 6.499714 H 1.493 v -3 z"
       id="path2262-5"
       style="color:#000000;clip-rule:nonzero;display:inline;overflow:visible;visibility:visible;opacity:0.5;isolation:auto;mix-blend-mode:normal;color-interpolation:sRGB;color-interpolation-filters:linearRGB;solid-color:#000000;solid-opacity:1;fill:none;fill-opacity:1;fill-rule:nonzero;stroke:#0f5a00;stroke-width:1;stroke-linecap:round;stroke-linejoin:round;stroke-miterlimit:4;stroke-dasharray:none;stroke-dashoffset:0;stroke-opacity:1;marker:none;color-rendering:auto;image-rendering:auto;shape-rendering:auto;text-rendering:auto;enable-background:accumulate" />
    <rect
       y="1.999714"
       x="4.0002861"
       height="1"
       width="2"
       id="rect4304"
       style="color:#000000;clip-rule:nonzero;display:inline;overflow:visible;visibility:visible;opacity:0.5;isolation:auto;mix-blend-mode:normal;color-interpolation:sRGB;color-interpolation-filters:linearRGB;solid-color:#000000;solid-opacity:1;fill:#ffffff;fill-opacity:1;fill-rule:nonzero;stroke:none;stroke-width:1;stroke-linecap:round;stroke-linejoin:round;stroke-miterlimit:4;stroke-dasharray:none;stroke-dashoffset:0;stroke-opacity:1;marker:none;color-rendering:auto;image-rendering:auto;shape-rendering:auto;text-rendering:auto;enable-background:accumulate" />
    <rect
       y="6.9997139"
       x="4.0002861"
       height="1"
       width="2"
       id="rect4304-6"
       style="color:#000000;clip-rule:nonzero;display:inline;overflow:visible;visibility:visible;opacity:0.2;isolation:auto;mix-blend-mode:normal;color-interpolation:sRGB;color-interpolation-filters:linearRGB;solid-color:#000000;solid-opacity:1;fill:#ffffff;fill-opacity:1;fill-rule:nonzero;stroke:none;stroke-width:1;stroke-linecap:round;stroke-linejoin:round;stroke-miterlimit:4;stroke-dasharray:none;stroke-dashoffset:0;stroke-opacity:1;marker:none;color-rendering:auto;image-rendering:auto;shape-rendering:auto;text-rendering:auto;enable-background:accumulate" />
    <path
       inkscape:connector-curvature="0"
       style="color:#000000;clip-rule:nonzero;display:inline;overflow:visible;visibility:visible;opacity:0.4;isolation:auto;mix-blend-mode:normal;color-interpolation:sRGB;color-interpolation-filters:linearRGB;solid-color:#000000;solid-opacity:1;fill:#ffffff;fill-opacity:1;fill-rule:nonzero;stroke:none;stroke-width:1;stroke-linecap:round;stroke-linejoin:round;stroke-miterlimit:4;stroke-dasharray:none;stroke-dashoffset:0;stroke-opacity:1;marker:none;color-rendering:auto;image-rendering:auto;shape-rendering:auto;text-rendering:auto;enable-background:accumulate"
       d="m 2.0002863,3.999714 v 1 h 2 v -1 z m 4,0 v 1 h 2 v -1 z"
       id="rect4304-6-2" />
  </g>
</svg>
