<?xml version="1.0" encoding="utf-8"?>
<!-- Uploaded to: SVG Repo, www.svgrepo.com, Generator: SVG Repo Mixer Tools -->
<svg width="800px" height="800px" viewBox="0 0 128 128" xmlns="http://www.w3.org/2000/svg" xmlns:xlink="http://www.w3.org/1999/xlink" aria-hidden="true" role="img" class="iconify iconify--noto" preserveAspectRatio="xMidYMid meet">
<path d="M32.04 123.67a3.119 3.119 0 0 1-1.55-3.8l4.02-11.77l7.87 5.31l-6.36 9.24a3.133 3.133 0 0 1-3.98 1.02z" fill="#82aec0">
</path>
<path d="M95.36 123.67c1.39-.7 2.06-2.32 1.55-3.8l-4.07-11.91l-8.29 4.77l6.83 9.92a3.133 3.133 0 0 0 3.98 1.02z" fill="#82aec0">
</path>
<path d="M34.51 108.1l-2.05 6c1.27-.73 2.93-.66 4.25-.01c1.32.65 2.33 1.79 3.1 3.05l2.33-3.38c0-.14-7.63-5.66-7.63-5.66z" fill="#2f7889">
</path>
<path d="M92.87 107.95l2.22 6.6c-1.27-.73-2.79-.71-4.12-.06c-1.32.65-2.33 1.79-3.1 3.05l-3.05-4.43l8.05-5.16z" fill="#2f7889">
</path>
<circle cx="63.7" cy="73.93" r="42.01" fill="#ffefa1">
</circle>
<circle cx="63.7" cy="70.22" r="49.36" fill="#cc2929">
</circle>
<circle cx="63.7" cy="72.7" r="46.4" fill="#ff4638">
</circle>
<circle cx="63.7" cy="72.7" r="40.03" fill="#fafafa">
</circle>
<circle cx="64" cy="72.7" r="4.45" fill="#563428">
</circle>
<path d="M63.7 42.57c-.81 0-1.47-.66-1.47-1.47v-4.4c0-.81.66-1.47 1.47-1.47c.81 0 1.47.66 1.47 1.47v4.4c0 .81-.66 1.47-1.47 1.47z" fill="#b2947c">
</path>
<path d="M63.7 110.16c-.81 0-1.47-.66-1.47-1.47v-4.4c0-.81.66-1.47 1.47-1.47c.81 0 1.47.66 1.47 1.47v4.4c0 .81-.66 1.47-1.47 1.47z" fill="#b2947c">
</path>
<path d="M99.69 74.16h-4.4c-.81 0-1.47-.66-1.47-1.47c0-.81.66-1.47 1.47-1.47h4.4c.81 0 1.47.66 1.47 1.47c0 .82-.66 1.47-1.47 1.47z" fill="#b2947c">
</path>
<path d="M32.11 74.16h-4.4c-.81 0-1.47-.66-1.47-1.47c0-.81.66-1.47 1.47-1.47h4.4c.81 0 1.47.66 1.47 1.47c0 .82-.66 1.47-1.47 1.47z" fill="#b2947c">
</path>
<path d="M63.7 42.57c-.81 0-1.47-.66-1.47-1.47v-4.4c0-.81.66-1.47 1.47-1.47c.81 0 1.47.66 1.47 1.47v4.4c0 .81-.66 1.47-1.47 1.47z" fill="#b2947c">
</path>
<path d="M63.7 110.16c-.81 0-1.47-.66-1.47-1.47v-4.4c0-.81.66-1.47 1.47-1.47c.81 0 1.47.66 1.47 1.47v4.4c0 .81-.66 1.47-1.47 1.47z" fill="#b2947c">
</path>
<path d="M46.63 46.07l-2.2-3.81c-.41-.7-.17-1.6.54-2.01c.7-.41 1.6-.17 2.01.54l2.2 3.81c.41.7.17 1.6-.54 2.01c-.7.4-1.6.16-2.01-.54z" fill="#b2947c">
</path>
<path d="M80.43 104.6l-2.2-3.81c-.41-.7-.16-1.6.54-2.01c.7-.41 1.6-.16 2.01.54l2.2 3.81c.41.7.16 1.6-.54 2.01c-.71.4-1.61.16-2.01-.54z" fill="#b2947c">
</path>
<g>
<path d="M46.63 46.07l-2.2-3.81c-.41-.7-.17-1.6.54-2.01c.7-.41 1.6-.17 2.01.54l2.2 3.81c.41.7.17 1.6-.54 2.01c-.7.4-1.6.16-2.01-.54z" fill="#b2947c">
</path>
<path d="M80.43 104.6l-2.2-3.81c-.41-.7-.16-1.6.54-2.01c.7-.41 1.6-.16 2.01.54l2.2 3.81c.41.7.16 1.6-.54 2.01c-.71.4-1.61.16-2.01-.54z" fill="#b2947c">
</path>
</g>
<g>
<path d="M35.61 58.17l-3.81-2.2c-.7-.41-.94-1.3-.54-2.01c.41-.7 1.3-.94 2.01-.54l3.81 2.2c.7.41.94 1.3.54 2.01c-.41.71-1.31.95-2.01.54z" fill="#b2947c">
</path>
<path d="M94.14 91.96l-3.81-2.2c-.7-.41-.94-1.3-.54-2.01c.41-.7 1.3-.94 2.01-.54l3.81 2.2c.7.41.94 1.3.54 2.01c-.41.71-1.31.95-2.01.54z" fill="#b2947c">
</path>
</g>
<g>
<path d="M78.76 46.61c-.7-.41-.94-1.3-.54-2.01l2.2-3.81c.41-.7 1.3-.94 2.01-.54c.7.41.94 1.3.54 2.01l-2.2 3.81c-.41.7-1.3.94-2.01.54z" fill="#b2947c">
</path>
<path d="M44.97 105.14c-.7-.41-.94-1.3-.54-2.01l2.2-3.81c.41-.7 1.3-.94 2.01-.54c.7.41.94 1.3.54 2.01l-2.2 3.81c-.41.7-1.31.94-2.01.54z" fill="#b2947c">
</path>
</g>
<g>
<path d="M89.79 57.63c-.41-.7-.17-1.6.54-2.01l3.81-2.2c.7-.41 1.6-.16 2.01.54c.41.7.16 1.6-.54 2.01l-3.81 2.2c-.71.41-1.61.17-2.01-.54z" fill="#b2947c">
</path>
<path d="M31.26 91.43c-.41-.7-.16-1.6.54-2.01l3.81-2.2c.7-.41 1.6-.16 2.01.54c.41.7.16 1.6-.54 2.01l-3.81 2.2c-.71.4-1.61.16-2.01-.54z" fill="#b2947c">
</path>
</g>
<path fill="none" stroke="#563428" stroke-width="5" stroke-linecap="round" stroke-miterlimit="10" d="M47.49 63.49L63.7 72.7">
</path>
<path fill="none" stroke="#563428" stroke-width="3.5" stroke-linecap="round" stroke-miterlimit="10" d="M86.87 59.41L64.44 72.7">
</path>
<g>
<path fill="#82aec0" d="M91.99 32.49l-4.14-2.71l14.09-24.96l4.3 2.43z">
</path>
<path d="M111.17 35.21c1.23.36 2.55-.32 2.93-1.54c3.24-10.35-.96-21.61-11.12-26.84c-10.23-5.27-21.34-1.81-27.81 7.02c-.73.99-.56 2.38.36 3.19c2.09 1.85 6.73 5.33 15.98 10.01c9.77 4.94 16.47 7.22 19.66 8.16z" fill="#cc2929">
</path>
<path d="M105.85 10.3s2.61-3.33-1.18-5.44c-2.95-1.64-4.82 1.95-4.82 1.95c-.65 1.19 5.55 4.31 6 3.49z" fill="#82aec0">
</path>
</g>
<g>
<path fill="#82aec0" d="M35.63 32.52L21.36 7.25l4.31-2.43l13.86 24.56z">
</path>
<path d="M16.83 35.21c-1.23.36-2.55-.32-2.93-1.54c-3.24-10.35.96-21.61 11.12-26.84c10.23-5.27 21.34-1.81 27.81 7.02c.73.99.56 2.38-.36 3.19c-2.09 1.85-6.73 5.33-15.98 10.01c-9.77 4.94-16.47 7.22-19.66 8.16z" fill="#cc2929">
</path>
<path d="M22.15 10.3s-2.61-3.33 1.18-5.44c2.95-1.64 4.82 1.95 4.82 1.95c.65 1.19-5.55 4.31-6 3.49z" fill="#82aec0">
</path>
</g>
<path fill="none" stroke="#82aec0" stroke-width="3.706" stroke-miterlimit="10" d="M63.7 23.22V9.5">
</path>
<path d="M63.76 14.38c-3.92 0-7.85-1.5-7.85-1.5V9.91s3.65-1.63 8.04-1.63s7.65 1.63 7.65 1.63v2.97c.01.01-3.91 1.5-7.84 1.5z" fill="#82aec0">
</path>
<path d="M56.9 9.79c-.43.16-.47.75-.07.98c.58.33 1.27.67 1.51.63c3.3-.51 8.09-.26 11.4.24c.23.04.89-.52 1.36-.94c.26-.24.2-.65-.12-.8c-1.04-.47-3.39-1.31-7.03-1.31c-3.36 0-5.79.71-7.05 1.2z" fill="#94d1e0">
</path>
<g>
<path d="M95.06 7.9c.31 1.06-.83 1.93-1.75 2.54a15.764 15.764 0 0 0-5.4 6.22c-.58 1.2-1.23 2.67-2.56 2.86c-.53.07-1.05-.09-1.55-.27c-.77-.28-1.52-.6-2.25-.97c-.87-.44-1.76-1-2.16-1.89c-.52-1.17-.03-2.55.67-3.63c1.67-2.55 4.39-4.13 7.19-5.17c1.69-.63 6.97-2.56 7.81.31z" fill="#ff4638">
</path>
</g>
<g>
<path d="M26.13 16.33c.65 1.35 1.38 2.66 2.19 3.92c.99 1.54 2.14 3.26 1.72 5.04c-.49 2.04-2.75 3.02-4.74 3.7c-1.02.35-2.03.7-3.05 1.05c-.54.19-1.11.38-1.68.35c-.9-.04-1.71-.61-2.22-1.34c-.52-.73-.78-1.61-.98-2.48c-.75-3.35-.6-6.9.43-10.18c.6-1.88 1.54-3.86 3.67-4.01c2.59-.18 3.69 1.93 4.66 3.95z" fill="#ff4638">
</path>
</g>
</svg>