<?xml version="1.0" encoding="UTF-8" standalone="no"?>
<svg
   xmlns:osb="http://www.openswatchbook.org/uri/2009/osb"
   xmlns:dc="http://purl.org/dc/elements/1.1/"
   xmlns:cc="http://creativecommons.org/ns#"
   xmlns:rdf="http://www.w3.org/1999/02/22-rdf-syntax-ns#"
   xmlns:svg="http://www.w3.org/2000/svg"
   xmlns="http://www.w3.org/2000/svg"
   xmlns:sodipodi="http://sodipodi.sourceforge.net/DTD/sodipodi-0.dtd"
   xmlns:inkscape="http://www.inkscape.org/namespaces/inkscape"
   height="16"
   width="16"
   version="1.1"
   id="svg6"
   sodipodi:docname="ct_anchor.svg"
   inkscape:version="0.92.5 (2060ec1f9f, 2020-04-08)">
  <sodipodi:namedview
     inkscape:document-rotation="0"
     pagecolor="#ffffff"
     bordercolor="#666666"
     borderopacity="1"
     objecttolerance="10"
     gridtolerance="10"
     guidetolerance="10"
     inkscape:pageopacity="0"
     inkscape:pageshadow="2"
     inkscape:window-width="1366"
     inkscape:window-height="717"
     id="namedview19"
     showgrid="true"
     showguides="true"
     inkscape:guide-bbox="true"
     inkscape:snap-global="false"
     inkscape:zoom="21.224829"
     inkscape:cx="7.4266791"
     inkscape:cy="10.263546"
     inkscape:window-x="0"
     inkscape:window-y="0"
     inkscape:window-maximized="1"
     inkscape:current-layer="svg6">
    <inkscape:grid
       type="xygrid"
       id="grid939" />
  </sodipodi:namedview>
  <metadata
     id="metadata12">
    <rdf:RDF>
      <cc:Work
         rdf:about="">
        <dc:format>image/svg+xml</dc:format>
        <dc:type
           rdf:resource="http://purl.org/dc/dcmitype/StillImage" />
        <dc:title />
      </cc:Work>
    </rdf:RDF>
  </metadata>
  <defs
     id="defs10">
    <linearGradient
       id="linearGradient4526"
       osb:paint="solid">
      <stop
         style="stop-color:#ffffff;stop-opacity:1;"
         offset="0"
         id="stop4528" />
    </linearGradient>
  </defs>
  <g
     id="g855">
    <path
       inkscape:connector-curvature="0"
       id="path849"
       style="opacity:0.7;fill:none;fill-opacity:1;stroke:#ffffff;stroke-width:2;stroke-linecap:round;stroke-opacity:1"
       d="M 7.949219,1 A 3,3 0 0 0 5,4 3,3 0 0 0 7,6.8261719 V 8.0019531 H 5 v 1 H 7 V 13.439453 C 5.585995,13.216161 4.2854335,12.530815 3.3046875,11.482422 l 0.9472656,-0.632813 -3.328125,-1.3867184 0.00195,3.6054684 1.1230468,-0.75 c 1.499766,1.710014 3.6638134,2.712107 5.9589851,2.710938 2.284126,-0.0012 4.440046,-0.995056 5.937499,-2.691406 l 1.09375,0.730468 0.002,-3.6054684 L 11.712891,10.849609 12.6875,11.5 C 11.706857,12.540533 10.409495,13.220604 9,13.441406 V 9.0019531 h 2 v -1 H 9 V 6.828125 A 3,3 0 0 0 11,4 3,3 0 0 0 8,1 3,3 0 0 0 7.949219,1 Z M 8,2.5 A 1.5,1.5 0 0 1 9.5,4 1.5,1.5 0 0 1 8,5.5 1.5,1.5 0 0 1 6.5,4 1.5,1.5 0 0 1 8,2.5 Z" />
    <path
       inkscape:connector-curvature="0"
       d="M 7.9492188,1 A 3,3 0 0 0 5,4 3,3 0 0 0 7,6.8261719 V 8.0019531 H 5 v 1 H 7 V 13.439453 C 5.585995,13.216161 4.2854335,12.530815 3.3046875,11.482422 l 0.9472656,-0.632813 -3.328125,-1.3867184 0.00195,3.6054684 1.1230468,-0.75 c 1.499766,1.710014 3.6638134,2.712107 5.9589849,2.710938 2.2841262,-0.0012 4.4400462,-0.995056 5.9374992,-2.691406 l 1.09375,0.730468 0.002,-3.6054684 L 11.712891,10.849609 12.6875,11.5 C 11.706857,12.540533 10.409495,13.220604 9,13.441406 V 9.0019531 h 2 v -1 H 9 V 6.828125 A 3,3 0 0 0 11,4 3,3 0 0 0 8,1 3,3 0 0 0 7.9492188,1 Z M 8,2.5 A 1.5,1.5 0 0 1 9.5,4 1.5,1.5 0 0 1 8,5.5 1.5,1.5 0 0 1 6.5,4 1.5,1.5 0 0 1 8,2.5 Z"
       style="opacity:1;fill:#1a1a1a;fill-opacity:1;stroke:none;stroke-width:1;stroke-linecap:round;stroke-opacity:1"
       id="path969" />
  </g>
</svg>
