<?xml version="1.0" encoding="UTF-8" standalone="no"?>
<!-- Created with Sodipodi ("http://www.sodipodi.com/") -->

<svg
   xmlns:dc="http://purl.org/dc/elements/1.1/"
   xmlns:cc="http://creativecommons.org/ns#"
   xmlns:rdf="http://www.w3.org/1999/02/22-rdf-syntax-ns#"
   xmlns:svg="http://www.w3.org/2000/svg"
   xmlns="http://www.w3.org/2000/svg"
   xmlns:sodipodi="http://sodipodi.sourceforge.net/DTD/sodipodi-0.dtd"
   xmlns:inkscape="http://www.inkscape.org/namespaces/inkscape"
   id="svg761"
   sodipodi:version="0.33pre"
   width="640"
   height="480"
   sodipodi:docname="sa.svg"
   version="1.1"
   inkscape:version="0.48.1 r9760">
  <sodipodi:namedview
     id="base"
     showgrid="false"
     inkscape:zoom="0.44080424"
     inkscape:cx="372.04724"
     inkscape:cy="248.03149"
     inkscape:window-width="1280"
     inkscape:window-height="746"
     inkscape:window-x="0"
     inkscape:window-y="24"
     inkscape:window-maximized="1"
     inkscape:current-layer="svg761" />
  <metadata
     id="metadata42">
    <rdf:RDF>
      <cc:Work
         rdf:about="">
        <dc:format>image/svg+xml</dc:format>
        <dc:type
           rdf:resource="http://purl.org/dc/dcmitype/StillImage" />
      </cc:Work>
    </rdf:RDF>
  </metadata>
  <defs
     id="defs763">
    <clipPath
       clipPathUnits="userSpaceOnUse"
       id="clipPath5379">
      <rect
         id="rect5381"
         height="496.06299"
         x="124.01575"
         style="fill:#000000;fill-opacity:0.67000002;stroke:none"
         width="496.06299"
         y="-1.1180649e-05" />
    </clipPath>
    <clipPath
       clipPathUnits="userSpaceOnUse"
       id="clipPath15809">
      <rect
         id="rect15811"
         height="512"
         x="-85.333336"
         style="fill:#000000;fill-opacity:0.67000002;stroke:none"
         width="682.66669"
         y="-3.9057613e-06" />
    </clipPath>
  </defs>
  <g
     transform="matrix(0.9375,0,0,0.9375,80,3.6616512e-6)"
     id="flag"
     clip-path="url(#clipPath15809)"
     inkscape:label="#g15592">
    <rect
       style="font-size:12px;fill:#199d00;fill-opacity:1;fill-rule:evenodd;stroke:none"
       id="rect681"
       width="768"
       height="512"
       x="-128"
       y="-3.9057613e-06" />
    <path
       inkscape:connector-curvature="0"
       style="fill:#ffffff;fill-opacity:1;fill-rule:evenodd;stroke:none"
       d="m 65.540327,145.13358 c -0.886598,11.96132 -1.95072,33.01052 8.212634,35.16973 12.292633,1.18178 5.514655,-20.80562 9.964154,-24.79272 0.841184,-1.97033 2.392471,-1.98066 2.520454,0.50471 0,6.2165 0,12.43403 0,18.65053 -0.112502,6.06478 3.874605,7.85139 6.972018,9.10439 3.223333,-0.24874 5.375318,-0.1414 6.638641,2.99524 0.503682,10.75373 1.008392,21.50746 1.512062,32.26119 0,0 7.4757,2.1396 7.83178,-18.14582 0.35712,-11.91075 -2.37905,-21.8811 -0.77512,-24.19822 0.0568,-2.27687 2.96427,-2.41312 4.98104,-1.30358 3.21301,2.26655 4.64457,5.06568 9.638,3.94582 7.59852,-2.09315 12.16568,-5.7892 12.27819,-11.62381 -0.44382,-5.54459 -1.06516,-11.09021 -3.46795,-16.63479 0.33544,-1.00839 -1.46665,-3.6207 -1.13224,-4.62909 1.3655,2.13857 3.44317,1.96104 3.91589,0 -1.29326,-4.26165 -3.29971,-8.34475 -6.55298,-10.11175 -2.68869,-2.36873 -6.62316,-1.88466 -8.06401,3.0551 -0.66778,5.69218 2.05187,12.45467 6.19689,17.96829 0.88041,2.15405 2.1169,5.73347 1.57297,8.9568 -2.20566,1.25817 -4.41132,0.73385 -6.25882,-1.21687 0,0 -6.04827,-4.5362 -6.04827,-5.54459 1.60496,-10.27586 0.35609,-11.44113 -0.53361,-14.2929 -0.62134,-3.93653 -2.48949,-5.19882 -4.00259,-7.88751 -1.51309,-1.60393 -3.5598,-1.60393 -4.53826,0 -2.67321,4.63425 -1.4264,14.58292 0.50471,19.03861 1.39544,4.09858 3.52781,6.67064 2.52046,6.67064 -0.82983,2.31609 -2.54523,1.78145 -3.79307,-0.89176 -1.78145,-5.52497 -2.13857,-13.76857 -2.13857,-17.48113 -0.53464,-4.60226 -1.12192,-14.41882 -4.151212,-16.91347 -1.847507,-2.51632 -4.586772,-1.28912 -5.543554,1.00736 -0.199201,4.56819 -0.219843,9.13536 0.294156,13.3454 2.077672,7.38384 2.729976,13.87592 3.738364,21.43728 0.279706,10.12826 -5.856289,4.3948 -5.57555,-0.6265 1.415046,-6.52201 1.047609,-16.78755 -0.209522,-19.38954 -0.997035,-2.60199 -2.173659,-3.24397 -4.598126,-2.81564 -1.924916,-0.11766 -6.878094,5.29068 -8.268369,14.26193 0,0 -1.185914,4.61773 -1.691656,8.71734 -0.680172,4.63322 -3.730107,7.903 -5.868674,-0.65127 -1.84854,-6.21753 -2.984912,-21.52398 -6.08026,-17.9394 z"
       id="path766"
       sodipodi:nodetypes="cccccccccccccccccccccccccccccccccccccccc" />
    <path
       inkscape:connector-curvature="0"
       style="fill:#ffffff;fill-opacity:1;fill-rule:evenodd;stroke:none"
       d="m 98.944085,194.20606 c -10.847655,5.30307 -21.339226,10.25005 -32.010387,15.37456 0.390144,-7.25585 15.218713,-20.35354 25.331493,-20.53829 6.581874,0.18372 4.928406,2.55038 6.678894,5.16373 z"
       id="path767"
       sodipodi:nodetypes="cccc" />
    <path
       inkscape:connector-curvature="0"
       style="fill:#ffffff;fill-opacity:1;fill-rule:evenodd;stroke:none"
       d="m 93.352021,204.23627 c -16.870116,43.48661 39.504659,49.54622 45.804759,1.78145 0.59348,-1.96001 2.97047,-3.92105 3.38641,-0.7132 -1.3077,43.24819 -43.60633,46.21968 -50.794063,32.61418 -1.781451,-3.20682 -2.317125,-10.33572 -2.495683,-14.61388 -1.069283,-8.49441 -5.523943,-5.22773 -6.237143,3.20785 -0.7132,4.69308 -0.534642,6.00182 -0.534642,10.51634 2.257262,34.15927 56.736021,19.48552 65.586511,-8.73283 4.69308,-15.62537 -0.77306,-27.14907 1.78145,-27.09127 5.40628,5.82326 12.9501,0.77307 14.61389,-1.24681 0.7132,-1.01045 2.49671,-1.66275 3.74352,-0.35608 4.21727,3.03136 11.64549,1.60289 13.18852,-3.74352 0.89176,-5.22773 1.60496,-10.63401 1.78352,-16.21678 -3.44731,1.07031 -6.00079,1.78145 -6.23818,3.20785 -0.23842,1.54509 -0.47478,3.08812 -0.7132,4.63321 -0.29622,1.48627 -3.26875,1.54407 -3.38641,-0.35711 -1.30667,-5.94092 -6.71295,-6.71296 -9.98067,2.49671 -2.19843,1.78146 -6.17831,2.13857 -6.59529,-0.53464 0.53464,-6.17831 -1.96104,-7.01124 -6.95034,-4.09961 -1.60393,-12.23793 -3.20682,-23.94121 -4.81178,-36.17914 2.07974,-0.0599 3.98195,1.48419 5.88313,-0.89176 -2.0818,-6.47453 -6.4766,-19.72292 -8.91345,-20.67351 -1.18798,-1.42536 -2.19946,-0.53464 -3.74249,-0.17855 -2.61335,0.83189 -5.0502,3.08915 -4.27817,7.48601 3.08915,18.77233 5.11006,33.09 8.19922,51.86335 0.47477,2.19843 -1.36654,5.10697 -3.7425,4.81075 -4.03974,-2.73308 -5.0471,-8.25702 -11.94067,-8.02066 -4.99034,0.0599 -10.6949,5.46614 -11.40604,10.69593 -0.83189,4.15638 -1.13018,8.6709 -0.002,12.29573 3.50716,4.21727 7.72443,3.80339 11.4081,2.85177 3.02929,-1.24681 5.52394,-4.27714 6.59426,-3.56497 0.7132,0.89176 0.17649,10.87036 -14.25884,18.53494 -8.73283,3.92105 -15.6842,4.8128 -19.424629,-2.31713 -2.317125,-4.45569 0.177526,-21.3867 -5.52704,-17.46462 z"
       id="path768"
       sodipodi:nodetypes="cccccccccccccccccccccccccccccccccc" />
    <path
       inkscape:connector-curvature="0"
       style="fill:#ffffff;fill-opacity:1;fill-rule:evenodd;stroke:none"
       d="m 164.90939,160.03337 c 3.3864,-1.24784 19.42875,-19.60422 19.42875,-19.60422 -0.83292,-0.7132 -1.57605,-1.24784 -2.40795,-1.96104 -0.89176,-0.77204 -0.80196,-1.54407 0,-2.31713 3.97988,-2.31609 2.70314,-7.39622 0.62444,-9.71231 -3.44627,-1.5451 -6.44667,-1.04039 -8.6451,0.0888 -2.7919,2.67321 -3.4442,6.95034 -1.24577,9.62355 2.1396,1.01045 4.27713,3.17895 2.85073,4.36693 -6.5633,7.01021 -24.53469,19.09951 -22.45495,19.51546 0.44381,0.5945 11.49479,0.56457 11.84985,0 z"
       id="path769"
       sodipodi:nodetypes="cccccccccc" />
    <path
       inkscape:connector-curvature="0"
       style="fill:#ffffff;fill-opacity:1;fill-rule:evenodd;stroke:none"
       d="m 68.03601,224.99544 c -6.016269,9.58433 -6.539557,23.90303 -3.220237,28.17191 1.763905,2.01677 4.662118,2.90027 6.805846,2.26861 3.779649,-1.63902 5.434148,-9.2974 4.53723,-12.09859 -1.261259,-1.97446 -2.255197,-2.28719 -3.514392,-0.60792 -2.659792,5.40009 -3.764167,1.69578 -3.997428,-1.32216 -0.40769,-5.72314 0.13108,-10.99421 0.75242,-15.16814 0.661594,-4.27816 -0.01135,-2.97046 -1.363439,-1.24371 z"
       id="path770"
       sodipodi:nodetypes="ccccccsc" />
    <path
       inkscape:connector-curvature="0"
       style="fill:#ffffff;fill-opacity:1;fill-rule:evenodd;stroke:none"
       d="m 325.1213,209.64771 c -5.81707,-12.52073 -13.86972,-24.89387 -16.43249,-29.64681 -2.56174,-4.75501 -21.90484,-32.8268 -24.75247,-35.98408 -6.28359,-7.46744 10.2036,3.1098 -2.08593,-11.71567 -4.68586,-4.02014 -4.95834,-4.26475 -8.8474,-7.54485 -1.96207,-1.39234 -6.75217,-3.9355 -7.60058,0.2797 -0.42627,3.71669 -0.1961,5.73244 0.42833,8.82675 0.47891,2.06323 3.48446,5.51879 4.96247,7.52111 19.62486,26.37911 37.02652,53.01934 53.80788,86.51392 2.64947,-1.25919 2.07044,-16.15485 0.52019,-18.25007 z"
       id="path771"
       sodipodi:nodetypes="csccccsccc" />
    <path
       inkscape:connector-curvature="0"
       style="fill:#ffffff;fill-opacity:1;fill-rule:evenodd;stroke:none"
       d="m 299.58854,251.53968 c -1.1436,1.28397 2.8239,6.77592 7.98041,6.77076 8.62342,-1.00117 16.21471,-5.84494 23.2435,-18.59584 1.8795,-2.97355 5.18334,-9.33352 5.28036,-14.26709 0.65746,-28.92536 -1.44808,-51.43295 -5.78198,-72.33868 -0.27764,-2.03639 -0.10837,-4.42989 0.23636,-5.04091 0.55838,-0.66676 2.45233,0.003 3.45659,-1.64418 1.47388,-1.50484 -3.91382,-13.96984 -6.98543,-18.77129 -1.09096,-2.14373 -1.47078,-3.57529 -3.27597,0.25184 -1.89912,3.11083 -3.17483,8.53878 -3.02517,13.61065 4.11406,28.48155 5.37738,53.39813 8.06608,81.8807 0.21881,2.75475 -0.18579,6.75734 -2.01678,8.35301 -6.77282,7.07213 -16.54809,15.77709 -27.17797,19.79103 z"
       id="path793"
       sodipodi:nodetypes="ccccccccccccc" />
    <path
       inkscape:connector-curvature="0"
       style="fill:#ffffff;fill-opacity:1;fill-rule:evenodd;stroke:none"
       d="m 416.08059,251.38693 c -6.18864,3.57735 -6.19586,7.69244 -1.19211,7.84107 8.62342,-1.00117 18.81258,-1.71746 25.84136,-12.32876 1.88054,-2.97356 4.11406,-11.01486 4.21108,-15.94843 0.65747,-28.92536 -0.37776,-50.51539 -4.71166,-71.42112 -0.27764,-2.03639 -1.17869,-6.72328 -0.83396,-7.3343 0.55838,-1.43156 3.3699,0.15586 4.37416,-1.49142 1.47388,-1.50484 -7.27753,-12.74677 -10.34914,-17.54822 -1.09096,-2.14373 -1.47078,-3.57529 -3.27597,0.25184 -1.89911,3.11083 -2.56277,8.69154 -1.80209,13.61066 4.57232,30.92768 7.97627,54.16292 8.67812,81.57519 -0.39324,2.60199 -0.49129,4.00465 -1.71127,7.28268 -2.69901,3.45969 -5.68908,7.78534 -8.49337,9.87643 -2.80326,2.09005 -8.78443,4.08516 -10.73515,5.63438 z"
       id="path794"
       sodipodi:nodetypes="ccccccccccccsc" />
    <path
       inkscape:connector-curvature="0"
       style="fill:#ffffff;fill-opacity:1;fill-rule:evenodd;stroke:none"
       d="m 420.71897,223.66193 c -0.0712,-7.23314 0.10218,-13.47854 -0.13624,-18.87347 -0.23739,-5.39493 -1.19108,-9.78766 -3.0582,-13.61685 -1.767,-4.1058 -0.66985,-7.40551 -1.49968,-11.77864 -0.8288,-4.37209 -0.62443,-10.9199 -1.87744,-16.1084 -0.34369,-2.02607 -1.39646,-8.51505 -1.07134,-9.13742 0.5109,-1.44808 2.45646,0.0454 3.40705,-1.63283 1.4233,-1.55128 -4.93667,-18.00752 -8.1631,-22.70679 -1.16011,-2.10657 -3.26668,-1.38512 -5.86454,2.04051 -2.40899,2.25417 -1.51516,7.39519 -0.59554,12.28644 6.1876,32.29113 10.80327,61.51787 9.79592,92.25667 -0.30861,2.61335 9.1271,-7.79565 9.06311,-12.72922 z"
       id="path795"
       sodipodi:nodetypes="cssscccccccc" />
    <path
       inkscape:connector-curvature="0"
       style="fill:#ffffff;fill-opacity:1;fill-rule:evenodd;stroke:none"
       d="m 374.99677,183.60715 c -3.89215,-0.0712 -12.04389,-7.57375 -14.42294,-11.96958 -0.89898,-2.52149 -0.32202,-4.98104 0.47065,-6.42189 1.44085,-0.93717 3.65786,-1.98994 5.31545,-0.98052 0,0 1.71849,2.40485 1.38615,2.71036 2.12515,1.01768 3.02723,0.43246 3.24294,-0.43246 0.1445,-1.5131 -0.62856,-2.41518 -0.63682,-4.08206 0.90105,-4.52072 6.06788,-5.2236 8.01343,-2.34087 1.42434,1.75772 1.9466,5.49195 2.16231,8.01344 -0.0227,1.28809 -2.10863,-0.22294 -3.29352,0.0867 -1.18591,0.31067 -1.47078,1.67824 -1.56264,2.91576 -0.21468,3.27803 -0.60276,8.53775 -0.67501,12.50112 z"
       id="path796"
       sodipodi:nodetypes="cccccccccscc" />
    <path
       inkscape:connector-curvature="0"
       style="fill:#ffffff;fill-opacity:1;fill-rule:evenodd;stroke:none"
       d="m 303.17415,231.68053 c 1.07238,-9.82792 -0.39634,-27.33073 -0.49439,-33.13025 -0.39324,-13.70045 -2.63089,-40.16212 -3.69604,-44.58272 -1.20037,-8.3334 3.42769,0.91446 2.78674,-3.92931 -1.50071,-8.32204 -6.11639,-13.96261 -11.54228,-21.58487 -1.74945,-2.47917 -1.69062,-2.98491 -4.3917,0.60792 -2.98904,6.78107 -0.40872,11.44526 0.36331,16.72562 3.91279,17.20556 6.19586,33.03735 7.25895,48.68749 1.06309,15.65118 1.38924,32.57187 0.41904,49.05494 2.93228,0.11559 7.64703,-4.74366 9.29637,-11.84882 z"
       id="path797"
       sodipodi:nodetypes="cscccccscc" />
    <path
       inkscape:connector-curvature="0"
       style="fill:#ffffff;fill-opacity:1;fill-rule:evenodd;stroke:none"
       d="m 433.96528,215.93853 c -6.86261,-11.51544 -17.21897,-23.98664 -19.9861,-28.62398 -2.7661,-4.63838 -26.16649,-34.83016 -29.1483,-37.86048 -8.56046,-8.99293 3.92621,-1.46356 -1.63902,-8.40978 -4.7065,-5.16786 -6.07923,-6.79036 -10.10762,-9.89809 -2.01987,-1.30564 -3.24397,-3.79823 -3.90763,0.45 -0.26423,3.73218 -0.5398,8.04956 -0.289,11.19549 -0.0145,1.74842 1.80622,5.03368 3.3699,6.96995 20.75504,25.49973 43.39268,51.5372 61.61695,84.26904 2.5927,-1.37376 1.73087,-16.06609 0.0908,-18.09215 z"
       id="path798"
       sodipodi:nodetypes="csccccsccc" />
    <path
       inkscape:connector-curvature="0"
       style="fill:#1ba400;fill-opacity:1;fill-rule:evenodd;stroke:none"
       d="m 122.59218,194.69219 c -0.49439,0.86596 -1.59361,1.98788 -1.22514,3.14902 0.771,1.04451 1.38615,1.2561 2.67012,1.31287 1.11366,0 2.67011,0.26319 3.00452,-0.39428 0.59966,-0.66056 1.05586,-2.00851 0.55631,-3.28113 -1.16011,-2.89924 -4.39995,-1.81861 -5.00581,-0.78648 z"
       id="path799"
       sodipodi:nodetypes="cccccc" />
    <path
       inkscape:connector-curvature="0"
       style="fill:#ffffff;fill-opacity:1;fill-rule:evenodd;stroke:none"
       d="m 354.17051,362.53978 c 9.17768,0.33751 15.18466,0.41904 23.34775,1.39028 0,0 7.0391,-0.69566 9.55337,-1.07548 10.62574,-1.01355 11.09639,15.1764 11.09639,15.1764 -0.11663,9.49556 -3.78171,9.99202 -8.46034,10.99524 -2.67321,0.34061 -4.07794,-1.60082 -5.48266,-3.66818 -1.76391,0.73798 -4.1605,0.84428 -7.06491,0.44175 -3.82403,-0.23945 -7.64909,-0.22397 -11.47312,-0.46342 -4.06349,-0.35815 -6.22476,0.42317 -10.28825,0.065 -0.83705,1.31493 -1.92594,3.13561 -4.41131,2.54936 -2.06735,-0.2281 -4.51658,-6.03278 -3.79513,-10.44513 1.49246,-3.1645 1.0827,-2.14682 0.92685,-3.5371 -37.52504,-0.95575 -75.40926,-2.62882 -112.21801,-2.15095 -28.80047,0.11973 -57.24382,1.31493 -85.68718,2.51013 -15.17743,-0.23945 -26.76924,-2.62986 -34.77649,-14.3414 0.71733,0 38.72025,2.15095 49.83522,1.43362 20.55481,-0.23945 39.31682,-1.9115 60.23081,-2.5091 41.23037,0.7163 82.1026,0.71733 123.33298,3.58458 -3.94376,-2.69798 -4.08516,-9.07136 1.98478,-10.62884 0.51606,-0.35506 0.78235,3.16863 1.69063,3.10257 4.85615,-0.36434 2.72688,6.21444 1.65862,7.57065 z"
       id="path800"
       sodipodi:nodetypes="cccccccccccccccccccsc" />
    <path
       inkscape:connector-curvature="0"
       style="fill:#ffffff;fill-opacity:1;fill-rule:evenodd;stroke:none"
       d="m 188.64005,135.2778 c -6.2485,17.85889 3.57942,37.39396 10.39352,35.49175 4.91602,2.03536 8.04646,-7.31675 10.05911,-17.56267 1.37686,-2.87551 2.41724,-3.18205 3.12425,-1.70404 -0.18166,13.62511 0.97845,16.64305 4.48149,20.77878 7.81424,6.02865 14.27845,0.76996 14.78522,0.26216 0.50678,-0.50678 6.08439,-6.08439 6.08439,-6.08439 1.35415,-1.42434 3.15728,-1.50794 5.06981,-0.25287 1.85886,1.68959 1.59773,4.60845 5.57761,6.63245 3.34925,1.3397 10.51015,0.30963 12.16878,-2.57619 2.23249,-3.8261 2.76816,-5.13999 3.80236,-6.59117 1.5936,-2.12102 4.31016,-1.17765 4.31016,-0.5078 -0.25391,1.18282 -1.84854,2.36667 -0.76068,4.49698 1.89499,1.42123 2.33261,0.50677 3.4535,0.19094 3.9644,-1.89499 6.94105,-10.51841 6.94105,-10.51841 0.17546,-3.20785 -1.6225,-2.94259 -2.78881,-2.28203 -1.52135,0.92995 -1.62044,1.2272 -3.14179,2.15715 -1.93834,0.28796 -5.69837,1.57296 -7.55723,-1.30565 -1.89809,-3.46072 -1.92389,-8.28901 -3.37506,-11.77966 0,-0.2539 -2.51839,-5.49814 -0.17443,-5.83358 1.18282,0.21984 3.70637,0.88763 4.10787,-1.23752 1.24061,-2.07148 -2.6567,-7.93706 -5.32371,-10.90133 -2.31507,-2.54109 -5.52292,-2.84764 -8.6193,-0.25287 -2.1685,1.9951 -1.85679,4.2245 -2.28203,6.33726 -0.55219,2.42653 -0.43453,5.41144 2.02813,8.61929 2.16437,4.26785 6.11329,9.76392 4.81694,17.49249 0,0 -2.30681,3.6527 -6.32591,3.17482 -1.67514,-0.36537 -4.3917,-1.0765 -5.84287,-11.79411 -1.09818,-8.11252 0.25906,-19.46282 -3.18411,-24.78447 -1.24372,-3.21301 -2.15199,-6.31558 -5.18231,-0.82054 -0.81435,2.15818 -4.30913,5.43312 -1.77423,12.16878 2.07354,4.27094 2.91782,11.22128 1.97652,18.95398 -1.43672,2.1974 -1.75564,2.94156 -3.63928,5.13896 -2.64637,2.84557 -5.51775,2.11896 -7.71721,1.0569 -2.05496,-1.38512 -3.66405,-2.10141 -4.60225,-6.50137 0.16927,-7.0133 0.56044,-18.49365 -0.72146,-20.92947 -1.88982,-3.77243 -5.00685,-2.40795 -6.33829,-1.26848 -6.39713,5.84906 -9.5575,15.71826 -11.48861,23.57687 -1.77422,5.72727 -3.66198,4.08619 -4.9893,1.77526 -3.23159,-3.02826 -3.4504,-26.70938 -7.35184,-22.8162 z"
       id="path801"
       sodipodi:nodetypes="cccccccccccccccccccccccccccccccccccccccc" />
    <path
       inkscape:connector-curvature="0"
       style="fill:#ffffff;fill-opacity:1;fill-rule:evenodd;stroke:none"
       d="m 207.45263,174.10126 c 2.83732,-2.00955 1.51103,-3.41428 5.75411,0.82776 5.31235,9.08272 8.72663,20.84484 9.23857,31.26623 -0.22398,2.56793 1.58637,4.19353 2.41414,3.63515 0.49232,-6.02866 15.15266,-14.42914 28.59611,-15.65737 2.056,-0.44691 1.05587,-4.38654 1.39131,-6.39609 -0.80609,-7.46331 4.19353,-14.2578 11.20167,-14.79967 9.53789,1.40989 12.71271,6.5024 12.87372,14.27535 -1.03006,14.92249 -16.57492,17.45224 -25.30878,18.64228 -1.3397,0.50677 -1.89809,1.12502 0,1.85576 l 36.59509,0.16618 1.86712,1.07857 c 0.22397,0.87215 -0.53361,0.1445 -1.97859,2.52355 -1.44394,2.37905 -3.57425,7.86481 -3.68469,11.52782 -10.90339,3.50614 -22.18041,5.04195 -33.64218,6.42809 -3.98195,2.01368 -5.95537,4.69721 -5.13793,7.71722 1.3397,3.34925 10.16026,6.6954 10.16026,6.85435 1.67514,1.05071 3.65682,3.50201 -0.47375,8.52537 -17.85063,-0.78545 -31.6832,-8.3819 -36.47227,-19.10364 -1.44291,-1.11882 -2.9973,-0.006 -3.9933,1.44291 -6.96892,8.98364 -13.82637,17.07448 -25.70822,21.36916 -7.08555,1.7701 -14.33934,-1.08683 -17.76497,-5.72727 -2.29338,-2.64121 -2.20565,-5.55697 -3.04787,-6.18863 -3.82919,1.69372 -36.78501,15.69658 -32.60799,9.17354 8.02066,-8.5842 21.90587,-14.8905 34.16857,-23.36323 0.88453,-2.83835 2.49362,-12.44229 7.33739,-15.56963 0.2797,0.0237 -0.7679,5.63954 -0.66263,8.00827 0.0547,1.94453 -0.14243,2.70624 0.2828,2.20566 0.82777,-0.52742 15.70691,-12.21935 16.8567,-15.80496 1.45117,-2.056 0.43556,-7.26308 0.43556,-7.421 -2.79087,-7.19186 -6.7047,-7.80288 -8.15587,-11.3761 -1.30667,-4.74675 -0.71526,-10.16542 1.9982,-11.67542 2.40899,-2.18708 5.26282,-1.91666 7.89474,0.47374 3.00555,2.69179 5.67463,7.95254 6.44667,11.87153 -0.51607,1.55025 -3.93241,-1.03006 -5.11832,-0.26113 2.09831,2.17263 3.0778,4.67863 3.83538,7.74508 1.93834,8.20851 1.34693,11.39985 -0.60379,16.70807 -6.60665,13.89037 -15.04945,18.03539 -22.43638,23.18054 -0.19714,0.0702 -0.32822,3.52472 2.45027,5.39287 0.95781,1.00529 4.81074,1.52135 9.34178,0.0702 8.7545,-4.77462 17.84341,-13.56937 22.35484,-23.36735 1.30977,-7.41171 -0.50677,-15.27032 -2.43375,-22.12364 -2.90338,-6.69851 -6.32281,-16.2622 -6.32281,-16.42011 -0.11251,-4.17702 0.22706,-5.62613 2.05909,-7.70999 z"
       id="path802"
       sodipodi:nodetypes="ccccccccccccsccccccccccccccccccccccccccccccc" />
    <path
       inkscape:connector-curvature="0"
       style="font-size:12px;fill:#ffffff;fill-opacity:1;fill-rule:evenodd;stroke:none"
       d="m 111.64338,135.47081 c 4.21211,2.00852 12.13058,1.15392 11.79617,-5.63748 0,-0.6007 -0.15275,-2.63295 -0.21261,-3.18308 -0.85977,-2.00232 -3.20579,-1.50794 -3.73734,0.55941 -0.1672,0.67708 0.29829,1.77939 -0.31479,2.11999 -0.35196,0.35505 -1.69785,0.14657 -1.64212,-1.72984 0,-0.5976 -0.44072,-1.24062 -0.70597,-1.61941 -0.26629,-0.17443 -0.43556,-0.22294 -0.91756,-0.22294 -0.58728,0.0237 -0.57799,0.1765 -0.90002,0.66985 -0.13624,0.50265 -0.32512,0.99394 -0.32512,1.56367 -0.0733,0.66779 -0.32512,0.90621 -0.81641,1.00426 -0.54909,0 -0.42524,0.0609 -0.87008,-0.22294 -0.26423,-0.28899 -0.59451,-0.39943 -0.59451,-0.89279 0,-0.5109 -0.1156,-1.33763 -0.26938,-1.67514 -0.23327,-0.30757 -0.60793,-0.45 -1.03007,-0.55838 -2.30061,0.008 -2.45956,2.63193 -2.32744,3.62793 -0.17237,0.18785 -0.27042,4.89434 2.86725,6.19689 z"
       id="path803"
       sodipodi:nodetypes="ccccccccccccccccc" />
    <path
       inkscape:connector-curvature="0"
       style="font-size:12px;fill:#ffffff;fill-opacity:1;fill-rule:evenodd;stroke:none"
       d="m 235.11157,187.73153 c 4.21211,2.00852 14.23819,0.85253 11.79618,-5.63748 0,-0.6007 -0.15276,-2.63296 -0.21262,-3.18308 -0.85976,-2.00233 -3.20579,-1.50794 -3.73733,0.55941 -0.16721,0.67708 0.29828,1.77939 -0.3148,2.11999 -0.35196,0.35505 -1.69785,0.14656 -1.64212,-1.72984 0,-0.5976 -0.44071,-1.24062 -0.70597,-1.61941 -0.26629,-0.17443 -0.43556,-0.22294 -0.91756,-0.22294 -0.58728,0.0237 -0.57799,0.17649 -0.90002,0.66985 -0.13624,0.50265 -0.32512,0.99394 -0.32512,1.56367 -0.0733,0.66779 -0.32512,0.90621 -0.81641,1.00426 -0.54909,0 -0.42523,0.0609 -0.87008,-0.22294 -0.26423,-0.28899 -0.59451,-0.39943 -0.59451,-0.89279 0,-0.5109 -0.1156,-1.33763 -0.26938,-1.67514 -0.23326,-0.30757 -0.60792,-0.45001 -1.03006,-0.55838 -2.30062,0.008 -2.45956,2.63192 -2.32745,3.62793 -0.17237,0.18784 -0.27042,4.89434 2.86725,6.19689 z"
       id="path804"
       sodipodi:nodetypes="ccccccccccccccccc" />
    <path
       inkscape:connector-curvature="0"
       style="font-size:12px;fill:#ffffff;fill-opacity:1;fill-rule:evenodd;stroke:none"
       d="m 307.10862,166.10124 c 4.21211,2.00852 12.13059,1.15392 11.79618,-5.63748 0,-0.60069 -0.15276,-2.63295 -0.21262,-3.18308 -0.85976,-2.00232 -3.20579,-1.50793 -3.73733,0.55942 -0.16721,0.67707 0.29828,1.77938 -0.3148,2.11999 -0.35196,0.35505 -1.69785,0.14656 -1.64211,-1.72985 0,-0.5976 -0.44072,-1.24062 -0.70598,-1.61941 -0.26629,-0.17443 -0.43556,-0.22294 -0.91756,-0.22294 -0.58728,0.0237 -0.57799,0.1765 -0.90002,0.66986 -0.13624,0.50264 -0.32512,0.99393 -0.32512,1.56367 -0.0733,0.66778 -0.32512,0.9062 -0.81641,1.00426 -0.54909,0 -0.42523,0.0609 -0.87008,-0.22294 -0.26423,-0.289 -0.59451,-0.39944 -0.59451,-0.89279 0,-0.51091 -0.11559,-1.33764 -0.26938,-1.67514 -0.23326,-0.30758 -0.60792,-0.45001 -1.03006,-0.55839 -2.30061,0.008 -2.45956,2.63193 -2.32745,3.62793 -0.17237,0.18785 -0.27042,4.89435 2.86725,6.19689 z"
       id="path805"
       sodipodi:nodetypes="ccccccccccccccccc" />
    <path
       inkscape:connector-curvature="0"
       style="fill:#ffffff;fill-opacity:1;fill-rule:evenodd;stroke:none"
       d="m 344.39834,220.42518 c -7.34049,8.2725 -4.10374,21.95541 -2.44615,24.90316 2.42034,4.84171 4.369,7.94738 9.07859,10.34191 4.28952,3.15728 7.63155,1.18385 9.4739,-1.02696 4.31635,-4.47324 4.36796,-15.89373 6.39402,-18.15718 1.42124,-4.15741 4.99963,-3.4473 6.7367,-1.60496 1.6834,2.42034 3.66611,3.98092 6.13909,5.29791 4.02633,3.55155 8.83397,4.20076 13.5704,0.96401 3.23675,-1.81551 5.34126,-4.16154 7.23625,-8.8185 2.10554,-5.63128 0.93201,-31.64811 0.5109,-47.06808 -0.16204,-1.20966 -4.18424,-21.20505 -4.18424,-21.42799 0,-0.22397 -0.53155,-10.20464 -0.97433,-12.58266 -0.0774,-0.96504 -0.31686,-1.24268 0.69462,-1.11986 1.07238,0.90208 1.21894,0.95885 1.88879,1.2561 1.0827,0.19817 2.05187,-1.64418 1.39853,-3.33996 -3.34925,-6.17728 -6.6985,-12.3556 -10.04775,-18.53288 -0.80609,-0.7937 -1.84751,-1.66585 -3.12631,0.22397 -1.22204,1.07135 -2.52356,3.01072 -2.4833,5.50331 0.29725,4.3917 1.06928,8.86081 1.36653,13.25251 1.3397,7.51698 2.68044,15.03499 4.02014,22.55197 1.26539,16.07641 1.58225,29.23293 2.84764,45.30934 -0.17753,6.80688 -2.29339,12.74161 -4.27817,13.59828 0,0 -3.02,1.75049 -5.04504,-0.18269 -1.47284,-0.59141 -7.36835,-9.82482 -7.36835,-9.82482 -3.01381,-2.763 -5.00066,-1.97342 -7.14542,0 -5.91408,5.71076 -8.59039,16.39431 -12.60949,23.76266 -1.03626,1.64418 -3.96543,3.052 -7.21044,-0.11972 -8.24153,-11.25948 -3.41118,-27.27809 -4.43711,-23.15887 z"
       id="path806"
       sodipodi:nodetypes="cccccccccccccccccccccccccccc" />
    <path
       inkscape:connector-curvature="0"
       style="fill:#ffffff;fill-opacity:1;fill-rule:evenodd;stroke:none"
       d="m 308.99844,126.66677 c 3.77346,1.57915 6.43532,9.22308 5.5673,12.95525 -0.75139,4.61671 -2.75269,9.60291 -4.19147,8.95371 -1.56367,-0.58006 1.06619,-4.58884 -0.43659,-8.79579 -0.83499,-2.73823 -5.98427,-7.74095 -5.44241,-9.21586 -1.06309,-3.09019 2.18914,-4.44228 4.50317,-3.89731 z"
       id="path807"
       sodipodi:nodetypes="cccccc" />
    <path
       inkscape:connector-curvature="0"
       style="fill:#ffffff;fill-opacity:1;fill-rule:evenodd;stroke:none"
       d="m 356.5475,224.9593 c 0.79371,-9.17871 -0.54599,-14.77593 -0.78441,-20.17086 -0.23739,-5.39493 -6.10194,-46.55925 -7.29095,-50.64131 -1.43466,-7.71824 5.70044,-1.03522 4.92118,-5.52394 -2.46885,-5.65915 -8.61207,-13.89966 -10.54111,-18.81568 -1.16011,-2.10657 -0.67295,-3.97988 -3.27081,-0.55425 -2.40899,7.87616 -3.24501,14.31354 -2.32538,19.20479 6.1876,32.29112 12.53311,59.13984 11.52576,89.87865 2.93434,0.0196 6.31662,-6.71399 7.76572,-13.3774 z"
       id="path808"
       sodipodi:nodetypes="csccccccc" />
    <path
       inkscape:connector-curvature="0"
       style="fill:#ffffff;fill-opacity:1;fill-rule:evenodd;stroke:none"
       d="m 421.02138,139.67569 c 3.44008,1.71024 5.45479,11.28941 5.07497,14.02558 -0.6843,4.99859 -2.5091,10.39661 -3.82094,9.69373 -1.42536,-0.62753 0.2859,-7.41273 -0.3984,-9.5224 -0.76067,-2.96427 -5.45479,-8.38087 -4.96143,-9.97757 -0.96917,-3.34512 1.99613,-4.80868 4.1058,-4.21934 z"
       id="path809"
       sodipodi:nodetypes="cccccc" />
    <path
       inkscape:connector-curvature="0"
       style="fill:#ffffff;fill-opacity:1;fill-rule:evenodd;stroke:none"
       d="m 165.35217,207.601 c 3.29042,1.2561 5.21946,8.29521 4.85616,10.30682 -0.65644,3.67231 -2.4028,7.63878 -3.6558,7.12271 -1.36447,-0.46136 0.27352,-5.44756 -0.38189,-6.99782 -0.27764,-3.76004 -4.8448,-5.70663 -4.74881,-7.3312 -0.85254,-2.98594 1.91047,-3.53503 3.93034,-3.10051 z"
       id="path810"
       sodipodi:nodetypes="cccccc" />
    <path
       inkscape:connector-curvature="0"
       style="fill:#1b9d00;fill-opacity:1;fill-rule:evenodd;stroke:none"
       d="m 244.85588,218.16586 c 4.2472,0.26938 6.36925,3.60212 2.39144,4.99962 -3.92415,1.34383 -7.69554,2.3935 -7.71309,8.06401 1.45117,7.90196 -1.99097,5.19056 -4.04387,4.11715 -2.41931,-1.73707 -9.20864,-5.91925 -10.17574,-14.95036 -0.14553,-2.15508 1.53477,-3.96853 4.23998,-3.95614 4.07483,1.10747 10.08697,1.18798 15.30128,1.72572 z"
       id="path811"
       sodipodi:nodetypes="ccccccc" />
    <path
       inkscape:connector-curvature="0"
       style="fill:#ffffff;fill-opacity:1;fill-rule:evenodd;stroke:none"
       d="m 77.399466,124.38886 c 4.855125,1.46356 5.142056,8.59968 4.783908,10.68561 -0.647143,3.80752 -2.366667,7.91951 -3.602123,7.38384 -1.343829,-0.47788 -0.05264,-5.64677 -0.697718,-7.25482 -0.719392,-2.2583 -4.822097,-6.38371 -4.356608,-7.59955 -0.913432,-2.54936 1.8826,-3.66509 3.872541,-3.21508 z"
       id="path812"
       sodipodi:nodetypes="cccccc" />
    <path
       inkscape:connector-curvature="0"
       style="fill:#ffffff;fill-opacity:1;fill-rule:evenodd;stroke:none"
       d="m 173.28097,158.03414 c -3.72495,2.01471 -5.16993,8.02066 -2.85074,11.5175 2.16644,3.07987 5.58794,1.93834 6.04414,1.93834 3.6496,0.4562 5.815,-6.84197 5.815,-6.84197 0,0 0.11457,-2.05187 -4.21933,1.82583 -1.82377,0.34163 -2.05187,-0.34267 -2.50807,-1.36963 -0.37982,-1.90015 -0.30448,-3.80029 0.56973,-5.70147 0.64611,-1.82377 -0.76068,-2.62264 -2.85073,-1.3686 z"
       id="path813"
       sodipodi:nodetypes="cccccccc" />
    <path
       inkscape:connector-curvature="0"
       style="fill:#ffffff;fill-opacity:1;fill-rule:evenodd;stroke:none"
       d="m 201.21961,121.63102 c -1.87227,1.25506 -5.59825,5.11522 -5.71179,9.56265 -0.11353,2.50911 -0.58108,2.50188 1.06206,4.09858 1.18695,1.71127 2.38421,1.55748 4.77978,0.30241 1.37583,-1.01354 1.84132,-1.68649 2.30474,-3.3864 0.57077,-2.85074 -3.01381,1.35208 -3.47001,-1.82068 -0.79783,-2.94569 1.50381,-4.15121 3.67024,-7.00195 0.0723,-1.95278 0.0299,-3.33583 -2.63502,-1.75461 z"
       id="path814"
       sodipodi:nodetypes="cccccccc" />
    <path
       inkscape:connector-curvature="0"
       style="fill:#ffffff;fill-opacity:1;fill-rule:evenodd;stroke:none"
       d="m 223.7303,125.62948 c -0.80712,1.78248 -1.77422,11.0933 -1.61321,11.0933 -0.64405,2.77436 2.90337,3.9613 4.51659,0.3953 2.41827,-6.53749 2.41827,-9.31081 2.58031,-12.08414 -0.75345,-4.2245 -3.60212,-4.09238 -5.48369,0.59554 z"
       id="path815"
       sodipodi:nodetypes="ccccc" />
    <path
       inkscape:connector-curvature="0"
       style="fill:#ffffff;fill-opacity:1;fill-rule:evenodd;stroke:none"
       d="m 365.64777,197.84534 c 0.48406,-0.48407 19.99849,-14.35276 19.99849,-14.35276 1.98891,-0.69875 1.55851,7.14955 0.64508,7.09587 0.37569,1.55852 -19.24504,14.8905 -20.64357,14.35276 -0.96711,0.69875 -1.93524,-5.37531 0,-7.09587 z"
       id="path816"
       sodipodi:nodetypes="ccccc" />
    <path
       inkscape:connector-curvature="0"
       style="fill:#ffffff;fill-opacity:1;fill-rule:evenodd;stroke:none"
       d="m 383.44473,197.73284 c 3.44008,1.71023 4.80971,11.77347 4.42989,14.50964 0.12179,5.32165 -3.31519,9.59052 -4.62702,8.88764 -1.42537,-0.62753 0.12488,-6.60664 -0.55942,-8.71631 -0.76068,-2.96427 -3.68159,-8.54188 -3.18824,-10.13858 -0.96916,-3.34512 1.83512,-5.13174 3.94479,-4.54239 z"
       id="path817"
       sodipodi:nodetypes="cccccc" />
    <path
       inkscape:connector-curvature="0"
       style="fill:#ffffff;fill-opacity:1;fill-rule:evenodd;stroke:none"
       d="m 267.3676,241.06669 c 1.35725,-1.98375 5.54975,-4.83861 5.6447,-4.83861 1.93421,-0.96814 3.82403,0.75861 3.70947,0.64508 0.32202,1.93524 -1.2241,3.7363 -0.74004,6.31765 0.42317,1.04038 0.73281,2.19533 2.63915,1.75461 3.09845,-2.43788 5.96879,-2.59476 9.06724,-2.75062 2.37492,0.14347 2.46884,4.16361 0.9671,4.19354 -5.72108,1.24371 -8.28488,2.77539 -12.37004,4.33493 -1.93524,1.12812 -3.59593,-0.30345 -3.59593,-0.46446 0,-0.16101 -1.13225,-1.09818 -0.34164,-3.66198 0.14037,-2.056 -0.68739,-3.18308 -2.39969,-2.94982 -1.29016,0.69772 -2.42653,1.16011 -3.07161,-0.32306 -0.2539,-1.09508 -0.33648,-1.62766 0.49129,-2.25726 z"
       id="path818"
       sodipodi:nodetypes="ccccccccccccc" />
    <path
       inkscape:connector-curvature="0"
       style="fill:#ffffff;fill-opacity:1;fill-rule:evenodd;stroke:none"
       d="m 403.97477,246.48639 c 0.83602,1.06412 1.37686,2.04877 -0.0671,3.79719 -1.3686,1.25404 -2.33261,1.94453 -3.70121,3.19857 -0.64611,1.10231 -1.05896,2.77435 0.91757,3.30693 3.6496,1.02593 12.08827,-4.44743 12.08827,-4.562 1.3686,-1.02593 0.9124,-2.96427 0.79783,-2.96427 -0.79783,-0.9124 -2.5958,-0.37053 -3.80545,-0.51813 -0.57593,0 -2.46472,-0.2859 -1.56574,-1.95794 0.75036,-1.04039 1.01871,-1.67721 1.52755,-2.95911 0.56973,-1.25403 0.0805,-2.09109 -1.97239,-2.77539 -2.09109,-0.37982 -2.92609,-0.18991 -5.24527,0 -1.25404,0.26629 -1.68237,0.82673 -1.91047,2.34706 0.0898,2.30577 1.49245,2.17469 2.9364,3.08709 z"
       id="path819"
       sodipodi:nodetypes="ccccccccccccc" />
    <path
       sodipodi:type="arc"
       style="fill:#259f00;fill-opacity:1;fill-rule:evenodd;stroke:none"
       id="path820"
       d="m 384.6891,181.37419 c 0,1.7259 -1.53903,3.12502 -3.43751,3.12502 -1.89849,0 -3.43752,-1.39912 -3.43752,-3.12502 0,-1.7259 1.53903,-3.12501 3.43752,-3.12501 1.89848,0 3.43751,1.39911 3.43751,3.12501 z"
       sodipodi:cx="381.25159"
       sodipodi:cy="181.37419"
       sodipodi:rx="3.437515"
       sodipodi:ry="3.125015"
       transform="matrix(0.89344113,0.51676741,-0.31006127,0.53606509,-19.344894,-106.28347)" />
    <path
       sodipodi:type="arc"
       style="fill:#259f00;fill-opacity:1;fill-rule:evenodd;stroke:none"
       id="path821"
       d="m 384.6891,181.37419 c 0,1.7259 -1.53903,3.12502 -3.43751,3.12502 -1.89849,0 -3.43752,-1.39912 -3.43752,-3.12502 0,-1.7259 1.53903,-3.12501 3.43752,-3.12501 1.89848,0 3.43751,1.39911 3.43751,3.12501 z"
       sodipodi:cx="381.25159"
       sodipodi:cy="181.37419"
       sodipodi:rx="3.437515"
       sodipodi:ry="3.125015"
       transform="matrix(0.32695926,0.71791761,-0.58738348,0.14386302,159.80335,-166.11804)" />
    <path
       inkscape:connector-curvature="0"
       style="fill:#209000;fill-opacity:1;fill-rule:evenodd;stroke:none"
       d="m 355.24393,374.97072 c 9.35107,0.4562 18.13653,0.10631 27.4876,0.56251 1.69372,1.43981 0.48407,4.97588 -0.64508,4.72198 -3.04064,-0.0764 -4.79216,-0.15172 -7.83281,-0.2281 -0.10424,-2.97872 -7.70586,-2.48949 -7.48705,0.0949 -4.10477,0.49336 -7.80701,-0.14346 -11.91178,-0.29518 -1.21378,-1.51104 -1.05793,-4.23172 0.38912,-4.85616 z"
       id="path822"
       sodipodi:nodetypes="ccccccc" />
  </g>
</svg>
