<?xml version="1.0" encoding="UTF-8" standalone="no"?>
<svg
   xmlns:osb="http://www.openswatchbook.org/uri/2009/osb"
   xmlns:dc="http://purl.org/dc/elements/1.1/"
   xmlns:cc="http://creativecommons.org/ns#"
   xmlns:rdf="http://www.w3.org/1999/02/22-rdf-syntax-ns#"
   xmlns:svg="http://www.w3.org/2000/svg"
   xmlns="http://www.w3.org/2000/svg"
   xmlns:xlink="http://www.w3.org/1999/xlink"
   xmlns:sodipodi="http://sodipodi.sourceforge.net/DTD/sodipodi-0.dtd"
   xmlns:inkscape="http://www.inkscape.org/namespaces/inkscape"
   inkscape:version="1.0 (4035a4fb49, 2020-05-01)"
   sodipodi:docname="ct_anchor_edit.svg"
   id="svg6"
   version="1.1"
   width="16"
   height="16">
  <sodipodi:namedview
     inkscape:current-layer="svg6"
     inkscape:window-maximized="1"
     inkscape:window-y="22"
     inkscape:window-x="-8"
     inkscape:cy="7.9985129"
     inkscape:cx="3.779852"
     inkscape:zoom="20.38892"
     inkscape:snap-global="false"
     inkscape:guide-bbox="true"
     showguides="true"
     showgrid="true"
     id="namedview19"
     inkscape:window-height="715"
     inkscape:window-width="1366"
     inkscape:pageshadow="2"
     inkscape:pageopacity="0"
     guidetolerance="10"
     gridtolerance="10"
     objecttolerance="10"
     borderopacity="1"
     bordercolor="#666666"
     pagecolor="#ffffff"
     inkscape:document-rotation="0">
    <inkscape:grid
       id="grid939"
       type="xygrid" />
  </sodipodi:namedview>
  <metadata
     id="metadata12">
    <rdf:RDF>
      <cc:Work
         rdf:about="">
        <dc:format>image/svg+xml</dc:format>
        <dc:type
           rdf:resource="http://purl.org/dc/dcmitype/StillImage" />
        <dc:title />
      </cc:Work>
    </rdf:RDF>
  </metadata>
  <defs
     id="defs10">
    <linearGradient
       osb:paint="solid"
       id="linearGradient4526">
      <stop
         id="stop4528"
         offset="0"
         style="stop-color:#ffffff;stop-opacity:1;" />
    </linearGradient>
    <linearGradient
       x1="24.138529"
       y1="22.844936"
       x2="24.138529"
       y2="23.137005"
       id="linearGradient3030-1"
       xlink:href="#linearGradient4333"
       gradientUnits="userSpaceOnUse"
       gradientTransform="matrix(0,-0.31772733,0.13938333,0,4.7764585,15.115867)" />
    <linearGradient
       id="linearGradient4333">
      <stop
         offset="0"
         style="stop-color:#ffffff;stop-opacity:1"
         id="stop4335" />
      <stop
         offset="0.99999797"
         style="stop-color:#ffffff;stop-opacity:0.23529412"
         id="stop4337" />
      <stop
         offset="1"
         style="stop-color:#ffffff;stop-opacity:0.15686275"
         id="stop4339" />
      <stop
         offset="1"
         style="stop-color:#ffffff;stop-opacity:0.39215687"
         id="stop4341" />
    </linearGradient>
    <linearGradient
       id="linearGradient947">
      <stop
         id="stop943"
         style="stop-color:#eeaaff;stop-opacity:1"
         offset="0" />
      <stop
         id="stop945"
         style="stop-color:#660080;stop-opacity:1"
         offset="1" />
    </linearGradient>
    <linearGradient
       y2="-8.8364296"
       x2="9.542304"
       y1="-8.8364296"
       x1="13.445079"
       gradientTransform="matrix(-0.66666667,0,0,1.0000378,15.679814,17.271939)"
       gradientUnits="userSpaceOnUse"
       id="linearGradient1054"
       xlink:href="#linearGradient947" />
    <linearGradient
       spreadMethod="pad"
       gradientTransform="matrix(0.415777,-0.4174938,0.518983,0.5146192,-15.747227,2.6503673)"
       gradientUnits="userSpaceOnUse"
       xlink:href="#linearGradient902"
       id="linearGradient8639"
       y2="31.210939"
       x2="23.575972"
       y1="25.356892"
       x1="23.575972" />
    <linearGradient
       id="linearGradient902">
      <stop
         id="stop886"
         style="stop-color:#ad5f00;stop-opacity:1"
         offset="0" />
      <stop
         id="stop888"
         style="stop-color:#ffe16b;stop-opacity:1"
         offset="0.13482948" />
      <stop
         id="stop890"
         style="stop-color:#f9c440;stop-opacity:1"
         offset="0.20224422" />
      <stop
         id="stop892"
         style="stop-color:#fff394;stop-opacity:1"
         offset="0.26965895" />
      <stop
         id="stop894"
         style="stop-color:#f9c440;stop-opacity:1"
         offset="0.44650277" />
      <stop
         id="stop896"
         style="stop-color:#f9c440;stop-opacity:1"
         offset="0.57114136" />
      <stop
         id="stop898"
         style="stop-color:#ffe16b;stop-opacity:1"
         offset="0.72038066" />
      <stop
         id="stop900"
         style="stop-color:#ad5f00;stop-opacity:1"
         offset="1" />
    </linearGradient>
    <linearGradient
       spreadMethod="pad"
       y2="31.210939"
       x2="23.575972"
       y1="25.356892"
       x1="23.575972"
       gradientTransform="matrix(0.4282553,-0.43106531,0.53455872,0.53134798,-16.236606,2.2149977)"
       gradientUnits="userSpaceOnUse"
       id="linearGradient881"
       xlink:href="#linearGradient3155-40" />
    <linearGradient
       id="linearGradient3155-40">
      <stop
         offset="0"
         style="stop-color:#555761;stop-opacity:1"
         id="stop2541" />
      <stop
         offset="0.13482948"
         style="stop-color:#d4d4d4;stop-opacity:1"
         id="stop2543" />
      <stop
         offset="0.20224422"
         style="stop-color:#abacae;stop-opacity:1"
         id="stop2545" />
      <stop
         offset="0.26965895"
         style="stop-color:#fafafa;stop-opacity:1"
         id="stop2547" />
      <stop
         offset="0.44650277"
         style="stop-color:#abacae;stop-opacity:1"
         id="stop2549" />
      <stop
         offset="0.57114136"
         style="stop-color:#abacae;stop-opacity:1"
         id="stop2551" />
      <stop
         offset="0.72038066"
         style="stop-color:#d4d4d4;stop-opacity:1"
         id="stop2553" />
      <stop
         offset="1"
         style="stop-color:#555761;stop-opacity:1"
         id="stop2555" />
    </linearGradient>
    <linearGradient
       gradientTransform="matrix(0.4040235,-0.4056919,0.6073752,0.6022679,-17.867764,0.6930272)"
       gradientUnits="userSpaceOnUse"
       xlink:href="#linearGradient3240-279"
       id="linearGradient8641"
       y2="30.000141"
       x2="30.037716"
       y1="24.989594"
       x1="30.037716" />
    <linearGradient
       id="linearGradient3240-279">
      <stop
         offset="0"
         style="stop-color:#555761;stop-opacity:1"
         id="stop2559" />
      <stop
         offset="0.5"
         style="stop-color:#abacae;stop-opacity:1"
         id="stop2561" />
      <stop
         offset="1"
         style="stop-color:#555761;stop-opacity:1"
         id="stop2563" />
    </linearGradient>
    <linearGradient
       gradientTransform="matrix(0.4040235,-0.4056919,0.6073752,0.6022679,-17.983472,0.8092126)"
       gradientUnits="userSpaceOnUse"
       xlink:href="#linearGradient3223-789"
       id="linearGradient8643"
       y2="30.000141"
       x2="30.037716"
       y1="24.989594"
       x1="30.037716" />
    <linearGradient
       id="linearGradient3223-789">
      <stop
         offset="0"
         style="stop-color:#abacae;stop-opacity:1"
         id="stop2567" />
      <stop
         offset="0.5"
         style="stop-color:#fafafa;stop-opacity:1"
         id="stop2569" />
      <stop
         offset="1"
         style="stop-color:#abacae;stop-opacity:1"
         id="stop2571" />
    </linearGradient>
    <linearGradient
       gradientTransform="matrix(0.4040235,-0.4056919,0.6073752,0.6022679,-17.465684,0.2892868)"
       gradientUnits="userSpaceOnUse"
       xlink:href="#linearGradient3240-279"
       id="linearGradient8645"
       y2="30.000141"
       x2="30.037716"
       y1="24.989594"
       x1="30.037716" />
    <linearGradient
       gradientTransform="matrix(0.4040235,-0.4056919,0.6073752,0.6022679,-17.581392,0.4054707)"
       gradientUnits="userSpaceOnUse"
       xlink:href="#linearGradient3223-789"
       id="linearGradient8647"
       y2="30.000141"
       x2="30.037716"
       y1="24.989594"
       x1="30.037716" />
    <linearGradient
       gradientTransform="matrix(0.4040235,-0.4056919,0.6073752,0.6022679,-17.061661,-0.1164056)"
       gradientUnits="userSpaceOnUse"
       xlink:href="#linearGradient3240-279"
       id="linearGradient8649"
       y2="30.000141"
       x2="30.037716"
       y1="24.989594"
       x1="30.037716" />
    <linearGradient
       gradientTransform="matrix(0.4040235,-0.4056919,0.6073752,0.6022679,-17.177369,-2.1969969e-4)"
       gradientUnits="userSpaceOnUse"
       xlink:href="#linearGradient3223-789"
       id="linearGradient8651"
       y2="30.000141"
       x2="30.037716"
       y1="24.989594"
       x1="30.037716" />
    <linearGradient
       gradientTransform="matrix(0.4040235,-0.4056919,0.6073752,0.602268,-17.636692,0.462492)"
       gradientUnits="userSpaceOnUse"
       xlink:href="#linearGradient3290-678"
       id="linearGradient8653"
       y2="26.02973"
       x2="9"
       y1="29.056757"
       x1="9" />
    <linearGradient
       id="linearGradient3290-678">
      <stop
         offset="0"
         style="stop-color:#fff394;stop-opacity:1"
         id="stop2607" />
      <stop
         offset="1"
         style="stop-color:#fafafa;stop-opacity:1"
         id="stop2609" />
    </linearGradient>
    <linearGradient
       gradientTransform="matrix(0.3763801,0.03615261,0.03669995,0.374874,-2.2182805,-1.1331002)"
       gradientUnits="userSpaceOnUse"
       xlink:href="#linearGradient3191-577"
       id="linearGradient8655"
       y2="41.391716"
       x2="9.5220556"
       y1="37.371799"
       x1="5.5178981" />
    <linearGradient
       id="linearGradient3191-577">
      <stop
         offset="0"
         style="stop-color:#d48e15;stop-opacity:1"
         id="stop2613" />
      <stop
         offset="1"
         style="stop-color:#ad5f00;stop-opacity:1"
         id="stop2615" />
    </linearGradient>
  </defs>
  <path
     id="path849"
     style="opacity:1;fill:none;fill-opacity:1;stroke:#ffffff;stroke-width:1;stroke-linecap:round;stroke-opacity:1;stop-color:#000000"
     d="M 7.9492188 1 A 3 3 0 0 0 5 4 A 3 3 0 0 0 7 6.8261719 L 7 8.0019531 L 5 8.0019531 L 5 9.0019531 L 7 9.0019531 L 7 13.439453 C 5.585995 13.216161 4.2854335 12.530815 3.3046875 11.482422 L 4.2519531 10.849609 L 0.92382812 9.4628906 L 0.92578125 13.068359 L 2.0488281 12.318359 C 3.5485941 14.028373 5.7126415 15.030466 8.0078125 15.029297 C 10.291939 15.028097 12.447859 14.034241 13.945312 12.337891 L 15.039062 13.068359 L 15.041016 9.4628906 L 11.712891 10.849609 L 12.6875 11.5 C 11.706857 12.540533 10.409495 13.220604 9 13.441406 L 9 9.0019531 L 11 9.0019531 L 11 8.0019531 L 9 8.0019531 L 9 6.828125 A 3 3 0 0 0 11 4 A 3 3 0 0 0 8 1 A 3 3 0 0 0 7.9492188 1 z M 8 2.5 A 1.5 1.5 0 0 1 9.5 4 A 1.5 1.5 0 0 1 8 5.5 A 1.5 1.5 0 0 1 6.5 4 A 1.5 1.5 0 0 1 8 2.5 z " />
  <path
     d="M 7.9492188 1 A 3 3 0 0 0 5 4 A 3 3 0 0 0 7 6.8261719 L 7 8.0019531 L 5 8.0019531 L 5 9.0019531 L 7 9.0019531 L 7 13.439453 C 5.585995 13.216161 4.2854335 12.530815 3.3046875 11.482422 L 4.2519531 10.849609 L 0.92382812 9.4628906 L 0.92578125 13.068359 L 2.0488281 12.318359 C 3.5485941 14.028373 5.7126415 15.030466 8.0078125 15.029297 C 10.291939 15.028097 12.447859 14.034241 13.945312 12.337891 L 15.039062 13.068359 L 15.041016 9.4628906 L 11.712891 10.849609 L 12.6875 11.5 C 11.706857 12.540533 10.409495 13.220604 9 13.441406 L 9 9.0019531 L 11 9.0019531 L 11 8.0019531 L 9 8.0019531 L 9 6.828125 A 3 3 0 0 0 11 4 A 3 3 0 0 0 8 1 A 3 3 0 0 0 7.9492188 1 z M 8 2.5 A 1.5 1.5 0 0 1 9.5 4 A 1.5 1.5 0 0 1 8 5.5 A 1.5 1.5 0 0 1 6.5 4 A 1.5 1.5 0 0 1 8 2.5 z "
     style="opacity:1;fill:#000000;fill-opacity:1;stroke:none;stroke-width:1;stroke-linecap:round;stroke-opacity:1;stop-color:#000000"
     id="path969" />
  <rect
     y="6.89112"
     x="7.0164132"
     height="6.6182599"
     width="0.69911194"
     id="rect997"
     style="opacity:0.5;fill:#ffffff;fill-opacity:1;stroke:none;stroke-width:1.67394;stroke-linecap:round;stroke-opacity:1;stop-color:#000000" />
  <rect
     y="8.0187578"
     x="5.0117235"
     height="0.53786987"
     width="2.0046895"
     id="rect999"
     style="opacity:0.5;fill:#ffffff;fill-opacity:1;stroke:none;stroke-width:1.4046;stroke-linecap:round;stroke-opacity:1;stop-color:#000000" />
  <path
     sodipodi:nodetypes="cccc"
     id="path1001"
     d="M 0.91881599,9.3969817 2.7146836,11.902843 4.259965,10.81697 Z"
     style="opacity:0.5;fill:#ffffff;fill-opacity:1;stroke:none;stroke-width:1.5;stroke-linecap:round;stroke-opacity:1;stop-color:#000000" />
  <path
     style="opacity:0.5;fill:#ffffff;fill-opacity:1;stroke:none;stroke-width:1.5;stroke-linecap:round;stroke-opacity:1;stop-color:#000000"
     d="M 15.053481,9.3969817 13.257613,11.902843 11.712332,10.81697 Z"
     id="path1003"
     sodipodi:nodetypes="cccc" />
  <ellipse
     transform="rotate(47.378031)"
     ry="1.1074449"
     rx="0.62016916"
     cy="-3.3309073"
     cx="5.9749756"
     id="path1005"
     style="opacity:0.5;fill:#ffffff;fill-opacity:1;stroke:none;stroke-width:1.5;stroke-linecap:round;stroke-opacity:1;stop-color:#000000" />
  <rect
     style="opacity:0.5;fill:#ffffff;fill-opacity:1;stroke:none;stroke-width:1.4046;stroke-linecap:round;stroke-opacity:1;stop-color:#000000"
     id="rect1007"
     width="2.0046895"
     height="0.53786987"
     x="9.0117245"
     y="8.0187578" />
  <g
     transform="translate(8.0597194,-5.906849)"
     id="g1043">
    <g
       id="g8626"
       transform="matrix(1.030012,0,0,1.0325071,-0.016773,-0.52152502)">
      <path
         style="fill:url(#linearGradient8639);fill-opacity:1;stroke:none;stroke-width:0.484844;stroke-linecap:butt;stroke-linejoin:round;stroke-miterlimit:4;stroke-dasharray:none;stroke-dashoffset:0;stroke-opacity:1"
         id="rect2383"
         d="m 2.0488085,11.037368 c 0.2865424,-0.207707 1.1479509,0.256388 1.9603385,1.061945 0.8104458,0.803629 1.2601996,1.641331 1.0575577,1.930575 -7.708e-4,0.0011 0.01977,0.01774 0.01898,0.01882 L 15.224149,3.8683779 C 15.481557,3.6099071 15.011041,2.7247557 14.172862,1.893626 13.334685,1.0624962 12.444681,0.59856571 12.187272,0.85703737 Z" />
      <path
         style="opacity:0.6;fill:#f9c440;fill-opacity:1;stroke:none"
         id="path3208"
         d="m 2.0488079,11.037368 c 0.286543,-0.207708 1.1479512,0.256388 1.960339,1.061943 0.8104449,0.80363 1.2601992,1.641332 1.0575579,1.930577 -7.714e-4,0.0011 0.01977,0.01774 0.01898,0.01882 l 6.9820302,-7.0108637 0.02525,-0.025356 c 7.9e-4,-0.00108 -0.01975,-0.01772 -0.01898,-0.01882 C 12.276628,6.7044221 11.826873,5.8667226 11.01643,5.0630931 10.204041,4.2575368 9.3426319,3.7934425 9.0560897,4.0011493 l -0.025251,0.025355 z" />
      <path
         d="m 2.0488085,11.037368 c 0.2865424,-0.207707 1.1479509,0.256388 1.9603385,1.061945 0.8104458,0.803629 1.2601996,1.641331 1.0575577,1.930575 -7.708e-4,0.0011 0.01977,0.01774 0.01898,0.01882 L 15.224149,3.8683779 C 15.481557,3.6099071 15.011041,2.7247557 14.172862,1.893626 13.334685,1.0624962 12.444681,0.59856571 12.187272,0.85703737 Z"
         id="path884"
         style="fill:none;fill-opacity:1;stroke:#ad5f00;stroke-width:0.484844;stroke-linecap:butt;stroke-linejoin:round;stroke-miterlimit:4;stroke-dasharray:none;stroke-dashoffset:0;stroke-opacity:1" />
      <path
         id="path877"
         transform="matrix(0.97086248,0,0,0.96851634,0.01628428,0.50510587)"
         d="m 12.664062,0.296875 c -0.05213,0.0107666 -0.09381,0.033047 -0.126953,0.0664063 L 9.3125,3.609375 c 0.2965301,-0.2119541 1.182118,0.2672165 2.017578,1.0976562 0.834766,0.8297532 1.298569,1.6935388 1.089844,1.9921876 -7.93e-4,0.00114 0.02035,0.018416 0.01953,0.019531 l 3.22461,-3.2460936 C 15.929196,3.2057833 15.445366,2.2917411 14.582031,1.4335938 13.826615,0.68271476 13.02895,0.22150867 12.664062,0.296875 Z"
         style="fill:url(#linearGradient881);fill-opacity:1;stroke:#555761;stroke-width:0.5;stroke-linecap:butt;stroke-linejoin:round;stroke-miterlimit:4;stroke-dasharray:none;stroke-dashoffset:0;stroke-opacity:1" />
      <path
         style="opacity:0.9;fill:#fe9ab8;fill-opacity:1;stroke:#de3e80;stroke-width:0.484844;stroke-linecap:butt;stroke-linejoin:round;stroke-miterlimit:4;stroke-dasharray:none;stroke-dashoffset:0;stroke-opacity:1"
         id="rect3175"
         d="m 10.565423,2.4840909 c 0.286542,-0.2077065 1.147951,0.2563879 1.960338,1.0619443 0.810445,0.8036291 1.260199,1.6413295 1.057557,1.9305744 -7.69e-4,0.0011 0.01977,0.017738 0.01898,0.018821 L 15.154234,3.9383089 C 15.562715,3.5297289 15.124956,2.8454879 14.172862,1.893626 13.360476,1.0880699 12.499066,0.6239749 12.212525,0.83168148 l -0.02525,0.0253559 -1.621849,1.62705352 z" />
      <path
         style="fill:url(#linearGradient8641);fill-opacity:1;stroke:none"
         id="path3233"
         d="m 9.1785348,3.8767048 c 0.2865413,-0.2077068 1.1479522,0.2563879 1.9603392,1.0619443 0.810445,0.8036291 1.2602,1.6413294 1.057556,1.9305753 -7.71e-4,0.0011 0.01977,0.017736 0.01898,0.01882 l 0.126256,-0.1267795 c 7.9e-4,-0.00108 -0.01975,-0.01772 -0.01898,-0.01882 C 12.525331,6.4531992 12.075576,5.6154986 11.26513,4.8118704 10.452743,4.0063135 9.5913335,3.542219 9.3047918,3.7499256 Z" />
      <path
         style="fill:url(#linearGradient8643);fill-opacity:1;stroke:none"
         id="path3216"
         d="m 9.0628273,3.9928895 c 0.2865436,-0.2077068 1.1479527,0.2563878 1.9603397,1.061944 0.810444,0.8036294 1.2602,1.6413292 1.057556,1.9305742 -7.71e-4,0.0011 0.01977,0.017738 0.01898,0.018822 L 12.22596,6.8774498 c 7.9e-4,-0.00108 -0.01975,-0.017721 -0.01898,-0.018821 C 12.409623,6.569384 11.95987,5.7316836 11.149423,4.9280545 10.337036,4.1224982 9.4756273,3.6584033 9.1890844,3.8661101 Z" />
      <path
         style="fill:url(#linearGradient8645);fill-opacity:1;stroke:none"
         id="path3248"
         d="m 9.5806143,3.4729643 c 0.2865426,-0.2077069 1.1479517,0.2563872 1.9603387,1.0619442 0.810446,0.803629 1.2602,1.6413292 1.057558,1.9305747 -7.73e-4,0.0011 0.01977,0.017737 0.01898,0.01882 l 0.126258,-0.1267784 c 7.91e-4,-0.00108 -0.01975,-0.017721 -0.01898,-0.01882 C 12.927411,6.0494594 12.477656,5.2117588 11.66721,4.4081298 10.854824,3.6025731 9.9934151,3.1384786 9.7068717,3.3461854 Z" />
      <path
         style="fill:url(#linearGradient8647);fill-opacity:1;stroke:none"
         id="path3250"
         d="m 9.4649071,3.5891488 c 0.2865435,-0.207707 1.1479529,0.2563877 1.9603379,1.061944 0.810447,0.8036298 1.260201,1.6413294 1.057558,1.9305748 -7.69e-4,0.0011 0.01977,0.017737 0.01898,0.018821 l 0.126257,-0.12678 c 7.9e-4,-0.00108 -0.01975,-0.01772 -0.01898,-0.01882 C 12.811705,6.1656438 12.361949,5.3279425 11.551504,4.5243147 10.739118,3.718758 9.877708,3.254663 9.5911645,3.46237 Z" />
      <path
         style="fill:url(#linearGradient8649);fill-opacity:1;stroke:none"
         id="path3256"
         d="M 9.9846388,3.0672723 C 10.27118,2.8595657 11.13259,3.3236601 11.944976,4.1292168 c 0.810446,0.8036288 1.260201,1.641329 1.057558,1.9305741 -7.7e-4,0.0011 0.01977,0.017738 0.01898,0.018821 L 13.14777,5.9518328 c 7.92e-4,-0.00108 -0.01975,-0.017721 -0.01898,-0.018821 C 13.331434,5.6437674 12.881679,4.8060668 12.071233,4.0024374 11.258848,3.1968815 10.397438,2.7327869 10.110895,2.9404937 Z" />
      <path
         style="fill:url(#linearGradient8651);fill-opacity:1;stroke:none"
         id="path3258"
         d="m 9.8689318,3.1834569 c 0.2865412,-0.2077072 1.1479512,0.2563879 1.9603392,1.0619447 0.810444,0.8036283 1.260198,1.6413291 1.057556,1.9305739 -7.71e-4,0.0011 0.01977,0.017737 0.01898,0.018821 l 0.126258,-0.1267782 c 7.89e-4,-0.00108 -0.01975,-0.017722 -0.01898,-0.018821 C 13.215727,5.7599515 12.765972,4.9222512 11.955527,4.1186224 11.143141,3.313066 10.281731,2.848971 9.9951884,3.0566783 Z" />
      <path
         style="fill:url(#linearGradient8653);fill-opacity:1;fill-rule:evenodd;stroke:url(#linearGradient8655);stroke-width:0.484844;stroke-linecap:butt;stroke-linejoin:miter;stroke-miterlimit:4;stroke-dasharray:none;stroke-opacity:1"
         id="path3270"
         d="m 0.25980529,15.79419 4.77185621,-1.725488 0.039308,-0.03926 C 5.2736124,13.740202 4.8185731,12.902156 4.0081274,12.098526 3.1957395,11.29297 2.335449,10.831246 2.0489062,11.038953 Z" />
      <path
         style="fill:#333333;fill-opacity:1;fill-rule:evenodd;stroke:#1a1a1a;stroke-width:0.484844;stroke-linecap:butt;stroke-linejoin:miter;stroke-miterlimit:4;stroke-dasharray:none;stroke-opacity:1"
         id="path3281"
         d="M 0.7444326,14.506276 0.25922075,15.788967 1.560593,15.315574 C 1.446907,15.182439 1.3413094,15.047739 1.2062351,14.913801 1.0507282,14.759602 0.89915498,14.633134 0.7444326,14.506276 Z" />
    </g>
  </g>
</svg>
