<?xml version="1.0" encoding="iso-8859-1"?>
<!-- Uploaded to: SVG Repo, www.svgrepo.com, Generator: SVG Repo Mixer Tools -->
<svg height="800px" width="800px" version="1.1" id="Layer_1" xmlns="http://www.w3.org/2000/svg" xmlns:xlink="http://www.w3.org/1999/xlink" 
	 viewBox="0 0 390.222 390.222" xml:space="preserve">
<g>
	<path style="fill:#194F82;" d="M244.396,167.451c3.814,3.814,10.861,4.331,15.192,0c35.749-35.749,35.749-93.737,0-129.551
		c-4.331-4.331-10.861-4.331-15.192,0c-4.331,4.331-4.331,10.861,0,15.192c27.087,27.087,27.087,71.564,0,98.651
		C240.065,156.073,240.065,163.119,244.396,167.451z"/>
	<path style="fill:#194F82;" d="M130.554,167.451c4.331,4.331,11.378,4.331,15.192,0c4.331-4.331,4.331-10.861,0-15.192
		c-27.087-27.087-27.087-71.564,0-98.651c4.331-4.331,4.331-10.861,0-15.192s-10.861-4.331-15.192,0
		C94.804,73.713,94.804,131.701,130.554,167.451z"/>
	<path style="fill:#194F82;" d="M294.82,3.248c-4.331-4.331-10.861-4.331-15.192,0s-4.331,10.861,0,15.192
		c46.61,46.61,46.61,121.923,0,168.533c-4.331,4.331-4.331,10.861,0,15.192c3.814,4.331,11.378,4.331,15.192,0
		C349.511,147.41,349.511,58.004,294.82,3.248z"/>
	<path style="fill:#194F82;" d="M111.095,202.166c4.331-4.331,4.331-10.861,0-15.192c-46.61-46.61-46.61-121.923,0-168.533
		c4.331-4.331,4.331-10.861,0-15.192s-10.861-4.331-15.192,0C40.63,58.004,40.63,147.41,95.386,202.166
		C99.653,206.497,107.281,205.98,111.095,202.166z"/>
</g>
<circle style="fill:#FFC10D;" cx="195.071" cy="102.416" r="20.04"/>
<g>
	<polygon style="fill:#56ACE0;" points="195.071,168.032 177.164,222.206 225.39,260.154 	"/>
	<polygon style="fill:#56ACE0;" points="136.566,345.228 128.937,368.566 261.204,368.566 240.065,305.147 	"/>
	<polygon style="fill:#56ACE0;" points="145.746,318.659 225.39,287.24 170.117,244.444 	"/>
</g>
<path style="fill:#194F82;" d="M286.093,376.129l-76.929-234.667c15.709-5.947,27.087-20.622,27.087-38.465
	c0-22.756-18.424-41.18-41.18-41.18s-41.18,18.424-41.18,41.18c0,17.907,11.378,33.034,27.087,38.465l-76.929,234.667
	c-2.198,8.145,2.198,14.093,10.279,14.093h162.069C283.96,389.123,288.808,382.659,286.093,376.129z M128.937,368.566l7.564-23.273
	L240,305.212l21.139,63.418L128.937,368.566L128.937,368.566z M177.164,222.206l17.907-54.174l30.319,92.121L177.164,222.206z
	 M225.39,287.24l-79.644,30.901l24.372-74.279L225.39,287.24z M195.071,82.376c11.378,0,20.04,9.244,20.04,20.04
	c0,11.378-9.244,20.04-20.04,20.04c-11.378,0-20.04-9.244-20.04-20.04S183.693,82.376,195.071,82.376z"/>
</svg>