<?xml version="1.0" encoding="UTF-8" standalone="no"?>
<!-- Uploaded to: SVG Repo, www.svgrepo.com, Generator: SVG Repo Mixer Tools -->

<svg
   width="800px"
   height="800px"
   viewBox="0 -30 150 150"
   fill="none"
   version="1.1"
   id="svg8"
   sodipodi:docname="ct_aws.svg"
   inkscape:version="1.1.1 (3bf5ae0d25, 2021-09-20)"
   xmlns:inkscape="http://www.inkscape.org/namespaces/inkscape"
   xmlns:sodipodi="http://sodipodi.sourceforge.net/DTD/sodipodi-0.dtd"
   xmlns="http://www.w3.org/2000/svg"
   xmlns:svg="http://www.w3.org/2000/svg">
  <defs
     id="defs12" />
  <sodipodi:namedview
     id="namedview10"
     pagecolor="#ffffff"
     bordercolor="#666666"
     borderopacity="1.0"
     inkscape:pageshadow="2"
     inkscape:pageopacity="0.0"
     inkscape:pagecheckerboard="0"
     showgrid="false"
     inkscape:zoom="0.50383782"
     inkscape:cx="374.12833"
     inkscape:cy="403.89981"
     inkscape:window-width="1366"
     inkscape:window-height="715"
     inkscape:window-x="-8"
     inkscape:window-y="-8"
     inkscape:window-maximized="1"
     inkscape:current-layer="svg8" />
  <path
     d="m 0.52712268,45.488205 c 0,-25.122987 0,-37.6859767 4.58320002,-47.4059843 A 47.72672,47.88181 0 0 1 27.846143,-24.730469 c 9.69154,-4.596654 22.21233,-4.596654 47.25542,-4.596654 25.043167,0 37.563947,0 47.250957,4.596654 a 47.72672,47.88181 0 0 1 22.73884,22.8126897 c 4.58177,9.7200076 4.58177,22.2814973 4.58177,47.4059843 0,25.122988 0,37.685978 -4.58177,47.405985 a 47.72672,47.88181 0 0 1 -22.73884,22.81269 c -9.68851,4.59665 -22.20931,4.59665 -47.252397,4.59665 -25.04165,0 -37.56395,0 -47.25096,-4.59665 A 47.72672,47.88181 0 0 1 5.1088927,92.89419 C 0.52712268,83.174183 0.52712268,70.611193 0.52712268,45.488205 Z"
     fill="#ff9f2e"
     id="path2-9"
     style="stroke-width:1.49388;fill:#ffffff" />
  <g
     id="g1230"
     transform="translate(-0.063963,4.815821)">
    <path
       d="m 122.714,62.703 c 5.28,-0.643 16.924,-2.027 18.997,0.643 2.072,2.621 -2.319,13.649 -4.293,18.544 -0.592,1.484 0.691,2.077 2.023,0.94 8.684,-7.319 10.954,-22.6 9.178,-24.825 -1.777,-2.175 -17.023,-4.055 -26.3,2.473 -1.431,1.038 -1.184,2.423 0.395,2.225 z"
       fill="#ff9900"
       id="path2" />
    <path
       d="m 74.852,89.456 c 20.28,0 43.865,-6.38 60.099,-18.396 2.664,-1.978 0.345,-4.994 -2.369,-3.758 -18.207,7.714 -37.993,11.473 -56.003,11.473 -26.694,0 -52.5,-7.368 -73.42,-19.533 -1.827,-1.088 -3.208,0.791 -1.679,2.176 19.343,17.505 44.951,28.038 73.372,28.038 z"
       fill="#ff9900"
       id="path4" />
    <path
       d="m 42.632,32.835 c 0,1.83 0.197,3.313 0.542,4.401 a 26.505,26.505 0 0 0 1.58,3.56 c 0.246,0.396 0.345,0.792 0.345,1.138 0,0.495 -0.296,0.99 -0.938,1.484 l -3.108,2.077 c -0.444,0.296 -0.889,0.445 -1.283,0.445 -0.494,0 -0.987,-0.248 -1.48,-0.693 a 15.29,15.29 0 0 1 -1.777,-2.324 38.28,38.28 0 0 1 -1.53,-2.918 c -3.848,4.55 -8.684,6.825 -14.506,6.825 -4.145,0 -7.45,-1.187 -9.868,-3.56 -2.418,-2.374 -3.652,-5.54 -3.652,-9.495 0,-4.204 1.48,-7.616 4.49,-10.187 3.01,-2.572 7.007,-3.857 12.09,-3.857 1.677,0 3.404,0.148 5.23,0.395 1.825,0.248 3.7,0.643 5.674,1.088 v -3.61 c 0,-3.758 -0.79,-6.379 -2.32,-7.912 -1.578,-1.533 -4.243,-2.274 -8.042,-2.274 -1.727,0 -3.503,0.197 -5.329,0.642 a 39.247,39.247 0 0 0 -5.329,1.682 14.14,14.14 0 0 1 -1.727,0.643 c -0.345,0.098 -0.592,0.148 -0.79,0.148 -0.69,0 -1.036,-0.494 -1.036,-1.533 V 6.577 c 0,-0.791 0.1,-1.385 0.346,-1.73 0.246,-0.347 0.69,-0.693 1.381,-1.04 1.727,-0.89 3.8,-1.631 6.217,-2.225 2.418,-0.642 4.985,-0.94 7.698,-0.94 5.872,0 10.164,1.336 12.927,4.006 2.714,2.67 4.096,6.726 4.096,12.165 v 16.022 z m -20.033,7.517 c 1.628,0 3.306,-0.297 5.082,-0.89 1.776,-0.594 3.355,-1.682 4.687,-3.165 0.79,-0.94 1.382,-1.978 1.678,-3.165 0.296,-1.187 0.493,-2.621 0.493,-4.302 V 26.753 A 41.135,41.135 0 0 0 30,25.913 37.099,37.099 0 0 0 25.362,25.615 c -3.306,0 -5.724,0.643 -7.352,1.978 -1.628,1.336 -2.418,3.215 -2.418,5.687 0,2.324 0.592,4.055 1.826,5.242 1.184,1.236 2.911,1.83 5.18,1.83 z m 39.621,5.34 c -0.888,0 -1.48,-0.148 -1.875,-0.494 -0.394,-0.297 -0.74,-0.99 -1.036,-1.929 L 47.714,5.044 C 47.418,4.054 47.27,3.412 47.27,3.066 47.27,2.275 47.664,1.83 48.454,1.83 h 4.835 c 0.938,0 1.58,0.148 1.925,0.494 0.395,0.297 0.69,0.99 0.987,1.929 l 8.29,32.736 7.697,-32.736 C 72.434,3.263 72.73,2.621 73.125,2.324 73.52,2.027 74.21,1.83 75.099,1.83 h 3.947 c 0.938,0 1.579,0.148 1.974,0.494 0.395,0.297 0.74,0.99 0.937,1.929 L 89.753,37.385 98.29,4.253 c 0.295,-0.99 0.64,-1.632 0.986,-1.929 0.395,-0.297 1.036,-0.494 1.925,-0.494 h 4.588 c 0.79,0 1.234,0.395 1.234,1.236 0,0.247 -0.049,0.494 -0.099,0.791 a 7.041,7.041 0 0 1 -0.345,1.236 L 94.688,43.32 c -0.297,0.989 -0.642,1.631 -1.037,1.928 -0.394,0.297 -1.036,0.495 -1.875,0.495 h -4.243 c -0.938,0 -1.58,-0.149 -1.974,-0.495 -0.394,-0.346 -0.74,-0.989 -0.937,-1.978 L 76.974,11.375 69.375,43.221 c -0.247,0.989 -0.543,1.632 -0.938,1.978 -0.394,0.346 -1.085,0.494 -1.973,0.494 H 62.22 Z m 63.405,1.336 c -2.566,0 -5.132,-0.297 -7.599,-0.89 -2.467,-0.594 -4.391,-1.237 -5.674,-1.979 -0.79,-0.445 -1.332,-0.94 -1.53,-1.384 a 3.503,3.503 0 0 1 -0.296,-1.385 v -2.522 c 0,-1.038 0.395,-1.533 1.135,-1.533 0.296,0 0.592,0.05 0.888,0.148 0.296,0.1 0.74,0.297 1.234,0.495 a 26.791,26.791 0 0 0 5.428,1.73 c 1.973,0.396 3.898,0.594 5.871,0.594 3.109,0 5.527,-0.544 7.204,-1.632 1.678,-1.088 2.566,-2.67 2.566,-4.698 0,-1.384 -0.444,-2.521 -1.332,-3.461 -0.888,-0.94 -2.566,-1.78 -4.984,-2.571 l -7.154,-2.226 c -3.602,-1.137 -6.267,-2.818 -7.895,-5.044 -1.628,-2.176 -2.467,-4.599 -2.467,-7.17 0,-2.077 0.444,-3.907 1.332,-5.489 0.888,-1.582 2.072,-2.967 3.553,-4.055 1.48,-1.137 3.157,-1.978 5.131,-2.571 1.974,-0.594 4.046,-0.841 6.217,-0.841 1.086,0 2.221,0.05 3.306,0.198 1.135,0.148 2.171,0.346 3.207,0.544 0.987,0.247 1.925,0.494 2.813,0.79 0.888,0.298 1.579,0.594 2.072,0.891 0.691,0.396 1.185,0.791 1.481,1.236 0.296,0.396 0.444,0.94 0.444,1.632 V 8.16 c 0,1.039 -0.395,1.583 -1.135,1.583 -0.395,0 -1.036,-0.198 -1.875,-0.594 -2.813,-1.285 -5.971,-1.928 -9.474,-1.928 -2.812,0 -5.033,0.445 -6.562,1.384 -1.53,0.94 -2.319,2.374 -2.319,4.402 0,1.384 0.493,2.57 1.48,3.51 0.987,0.94 2.812,1.88 5.427,2.72 l 7.007,2.226 c 3.553,1.137 6.118,2.72 7.648,4.747 1.53,2.027 2.27,4.351 2.27,6.923 0,2.126 -0.444,4.055 -1.283,5.736 -0.888,1.681 -2.072,3.165 -3.602,4.352 -1.53,1.236 -3.355,2.126 -5.477,2.769 -2.22,0.692 -4.54,1.039 -7.056,1.039 z"
       fill="#252f3e"
       id="path6" />
  </g>
</svg>
