<?xml version="1.0" encoding="UTF-8" standalone="no"?>
<svg
   fill="none"
   viewBox="0.33 0 100 100"
   version="1.1"
   id="svg6"
   sodipodi:docname="ct_aws.svg"
   inkscape:version="1.1.1 (3bf5ae0d25, 2021-09-20)"
   xmlns:inkscape="http://www.inkscape.org/namespaces/inkscape"
   xmlns:sodipodi="http://sodipodi.sourceforge.net/DTD/sodipodi-0.dtd"
   xmlns="http://www.w3.org/2000/svg"
   xmlns:svg="http://www.w3.org/2000/svg">
  <defs
     id="defs10" />
  <sodipodi:namedview
     id="namedview8"
     pagecolor="#ffffff"
     bordercolor="#666666"
     borderopacity="1.0"
     inkscape:pageshadow="2"
     inkscape:pageopacity="0.0"
     inkscape:pagecheckerboard="0"
     showgrid="false"
     inkscape:zoom="4.13"
     inkscape:cx="95.27845"
     inkscape:cy="82.929782"
     inkscape:window-width="1920"
     inkscape:window-height="1016"
     inkscape:window-x="0"
     inkscape:window-y="0"
     inkscape:window-maximized="1"
     inkscape:current-layer="svg6" />
  <path
     d="M.333 50c0-16.79 0-25.186 3.073-31.682A32 32 0 0 1 18.65 3.072C25.148 0 33.543 0 50.334 0S75.52 0 82.015 3.072a32 32 0 0 1 15.246 15.246c3.072 6.496 3.072 14.891 3.072 31.682 0 16.79 0 25.186-3.072 31.682a32 32 0 0 1-15.246 15.246C75.519 100 67.124 100 50.333 100c-16.79 0-25.186 0-31.681-3.072A32 32 0 0 1 3.405 81.682C.333 75.186.333 66.79.333 50Z"
     fill="#FF9F2E"
     id="path2" />
  <path
     d="m 21.507212,20.311494 c -4.171995,0 -8.40657,1.880157 -9.113356,2.908147 -0.184058,0.425375 -0.609847,3.863823 0.402475,3.863823 0.337441,0 0.490823,0.06806 1.472469,-0.463659 3.681172,-1.666052 6.015036,-1.627768 6.352477,-1.627768 4.141318,-0.460824 6.532853,2.801804 6.164736,7.020105 v 2.478519 c -3.497114,-0.957094 -5.494763,-0.989706 -6.476409,-0.989706 -5.092288,-0.354479 -9.796827,2.747923 -9.796827,9.568102 0,7.479511 5.778214,9.07892 8.017594,8.972577 a 11.028792,12.744235 0 0 0 8.650755,-4.714573 c 1.687203,4.360094 2.760879,4.070839 2.792782,4.070839 0.306765,0 0.552176,-0.141791 0.797588,-0.317614 l 1.748556,-1.419335 c 0.306765,-0.212686 0.550949,-0.565748 0.581626,-0.991123 -0.03068,-1.027989 -1.627079,-2.623145 -1.504373,-6.203385 V 31.410946 a 9.7514254,11.268184 0 0 0 -2.450433,-8.33735 10.491341,12.123188 0 0 0 -7.63966,-2.762102 z m 59.430073,0 c -6.135288,0 -9.660624,4.429572 -9.568594,8.932875 0,6.167938 5.396598,8.121827 6.010127,8.334515 5.184318,1.87874 5.891103,1.946799 7.332895,3.364716 1.227058,1.453364 1.072448,4.292034 -0.736234,5.532711 -0.522727,0.354479 -2.763334,1.911352 -7.824946,0.706122 -1.688431,-0.389927 -2.574366,-0.850749 -3.954806,-1.52426 -0.368117,-0.141792 -1.228284,-0.389927 -1.228284,0.921646 v 1.736948 c 0,0.815301 0.428243,1.556872 1.072448,1.911351 3.221026,1.87874 7.086257,1.952472 7.914521,1.952472 0.122705,0 7.177058,0.0043 9.537917,-5.497263 0.488369,-1.134333 1.752238,-5.27465 -0.609848,-8.819442 -1.963292,-2.660012 -3.651723,-2.943595 -8.682658,-4.715991 -0.42947,-0.141792 -4.140092,-1.244932 -4.110642,-4.258004 -0.184059,-3.863823 4.358508,-4.072257 5.309477,-4.001361 3.834555,-0.0709 5.732812,1.589484 6.775811,1.695829 0.460147,0 0.677336,-0.314778 0.677336,-1.023736 v -1.634858 c 0.03068,-0.389928 -0.09203,-0.774184 -0.276088,-1.093214 -1.227057,-1.843292 -5.920552,-2.521056 -7.638432,-2.521056 z m -46.56683,0.886198 a 0.65034044,0.75149586 0 0 0 -0.520272,0.852168 c 0.06135,0.460822 0.122705,0.924481 0.274861,1.385304 l 6.872748,26.19034 c 0.153382,0.85075 0.640524,1.77665 1.714199,1.634858 h 2.515468 c 1.533822,0.177239 1.748557,-1.527096 1.779233,-1.704336 l 4.511891,-21.835918 4.572016,21.871366 c 0.03068,0.177239 0.245411,1.880158 1.749783,1.702917 h 2.546145 c 1.104351,0.141792 1.625851,-0.782689 1.779233,-1.63344 7.730462,-28.748261 7.206508,-26.794372 7.267861,-27.077954 0.122706,-1.488813 -0.613529,-1.385305 -0.736234,-1.349857 H 65.96473 c -1.38044,-0.17724 -1.652847,1.278961 -1.714199,1.633439 L 59.158242,45.590113 54.556777,22.866579 c -0.214735,-1.736948 -1.44302,-1.668887 -1.749784,-1.633439 h -2.360859 c -1.349763,-0.141792 -1.687204,1.101721 -1.779233,1.633439 L 44.094885,45.271082 39.187882,22.867998 C 39.065177,22.159039 38.665156,21.0559 37.470002,21.197692 h -3.09832 z M 21.323153,37.614331 c 2.208704,0.03545 4.115551,0.419703 5.434638,0.774183 0,1.772396 0.05522,2.767774 -0.282223,4.36293 -0.429471,1.7015 -2.327728,4.788305 -6.806488,4.859201 -2.576821,0.14179 -4.262798,-2.200607 -4.110642,-4.859201 -0.152156,-4.25375 3.648041,-5.314352 5.764715,-5.137113 z m 69.075971,21.662932 c -2.863952,0.04537 -6.243268,0.786944 -8.807818,2.86561 -0.791452,0.635226 -0.652794,1.51717 0.228233,1.399484 2.883585,-0.401271 9.301095,-1.30023 10.448389,0.394181 1.15098,1.694409 -1.271227,8.684739 -2.342448,11.811246 -0.331305,0.932989 0.368117,1.318662 1.108033,0.609704 4.797795,-4.643677 6.044485,-14.377676 5.062835,-15.778577 -0.49082,-0.700451 -2.8345,-1.347022 -5.697224,-1.301648 z M 5.0450086,62.822055 C 4.3750356,62.9284 4.0879046,63.908179 4.7873266,64.683779 16.80022,77.707345 32.677116,84.083716 50.307477,84.083716 c 12.573657,0 27.17196,-4.741513 37.248555,-13.674389 1.666344,-1.484559 0.247866,-3.710688 -1.461425,-2.83158 -11.298745,5.760996 -23.569319,8.535859 -34.737996,8.535859 -16.553005,0 -32.578375,-3.992853 -45.5422374,-13.063267 -0.28345,-0.198508 -0.549721,-0.263732 -0.773046,-0.228284 z"
     fill="#ffffff"
     id="path4"
     style="stroke-width:1.31903" />
</svg>
