<?xml version="1.0" encoding="utf-8"?><!-- Uploaded to: SVG Repo, www.svgrepo.com, Generator: SVG Repo Mixer Tools -->
<svg width="800px" height="800px" viewBox="0 0 128 128" xmlns="http://www.w3.org/2000/svg" xmlns:xlink="http://www.w3.org/1999/xlink" aria-hidden="true" role="img" class="iconify iconify--noto" preserveAspectRatio="xMidYMid meet"><radialGradient id="IconifyId17ecdb2904d178eab5789" cx="63.483" cy="38.467" r="70.733" gradientTransform="matrix(-.0349 .9994 -1.8874 -.0659 138.3 -22.442)" gradientUnits="userSpaceOnUse"><stop offset=".401" stop-color="#7f5950"></stop><stop offset=".512" stop-color="#745147"></stop><stop offset=".681" stop-color="#5b3f33"></stop></radialGradient><path d="M1.63 84.97c.26.38 6.19-3.1 11.68-1.16c2.85 1.01 5.06 5.46 5.56 5.56c.5.1 5.05-7.29 12.41-5.96c8.74 1.59 9.26 10.44 9.93 10.62c.41.11 1.49-4.86 7.74-4.37c3.49.28 6.35 4.27 8.84 8.44s6.7 10.97 7.35 11.02c.89.07 6.35-8.54 8.04-11.72c1.69-3.18 5.76-9.33 9.63-9.43c3.87-.1 5.68 5.94 6.55 5.76c.72-.15 1.06-7.88 7.45-8.84c6.65-.99 8.43 6.46 9.33 6.35c.82-.1 1.44-6.85 9.53-6.95c8.04-.1 9.58 5.81 10.62 5.66c1.31-.19 1.24-23.18-6.95-35.4c-5.66-8.44-13.75-12.89-17.53-14.48c-3.13-1.32-5.76-1.49-5.66-3.18c.1-1.69 3.67-.3 4.47-2.58c.79-2.28-4.47-3.97-7.15-1.79s-1.09 6.16-1.09 6.16s-.58 11.62-4.41 17.36c-3 4.5-6.22 5.5-9.95 6.66c-4.28 1.33-8.67 1.48-14.18.98c-4.67-.42-9.09-.42-12.85-1.83c-4.26-1.6-7.98-6.57-9.01-9.29c-1.57-4.15-1.5-7.13-1.5-10.79v-6.85s2.58-3.38.1-6.06s-6.16-1.19-5.86 1.09c.3 2.28 2.98.99 2.68 2.88c-.3 1.89-5.2 2.39-9.59 4.81c-6.85 3.77-11.56 6.83-16.89 15.02C3.04 64.79.6 83.46 1.63 84.97z" fill="url(#IconifyId17ecdb2904d178eab5789)"></path><path d="M54.61 57.45s1.56 2.38.89 3.72s-2.38 9.16-2.83 16.23c-.5 7.97 3.43 11.69 3.43 11.69l-.67 5.36l3.62 5.78s4.19-7.87 5.46-7.79c1.27.07 6.75 8.29 6.75 8.29l3.03-5.21l-1.07-6.95s3.13-4.1 3.13-11.32c0-7.22-2.31-15.27-2.38-16.38c-.07-1.12 1.49-3.18 1.49-3.18s3.42 1.32 5.96-1.64c3.23-3.77 3.44-13.26.65-18.72c-2.13-4.17-4.17-6.21-4.91-6.35c-.74-.15-3.77 4.37-5.16 8.14c-1.4 3.79-2 7.16-2 7.16s-1.54-1.06-4.42-1.39c-2.18-.25-3.92.25-3.92.25s.15-4.22-.4-7.25c-.55-3.03-1.59-7.4-2.98-7.79c-1.39-.4-6.27 5.43-7.74 7.55c-1.94 2.78-6.83 10.15-1.37 16.75c2.65 3.2 5.44 3.05 5.44 3.05z" fill="#885b50"></path><path d="M64.07 91.33c1.86-.3 7.97-3.57 8.44-10.47c.53-7.68-3.97-16.38-8.19-16.53c-4.37-.15-8.71 9.93-8.19 16.03c.69 8.14 7.94 10.97 7.94 10.97z" fill="#b68e74"></path><path d="M72.33 47.67s.6-3.92 2.38-7.6c.92-1.9 1.99-3.82 3.47-3.72c1.49.1 3.57 4.86 3.57 10.08s-.69 7.4-2.88 8.59c-1.99 1.08-3.08.4-3.08.4s-.3-3.23-1.09-4.67c-.78-1.44-2.37-3.08-2.37-3.08z" fill="#ffd2ad"></path><path d="M57.44 34.47c-1.02-.2-5.24 4.15-6.8 7.15c-1.79 3.43-2.8 7.27-.35 10.55c1.54 2.05 3.97 1.37 3.97 1.37s.35-2.53 1.89-4.62c1.5-2.03 3.13-2.78 3.13-2.78s.44-11.23-1.84-11.67z" fill="#ffd2ad"></path><path d="M62.24 58.61s-2.57-.89-2.35.41c.22 1.3.78 3.31 1.68 3.2s.67-3.61.67-3.61z" fill="#fefefe"></path><path d="M65.63 58.42s-.11 3.43.78 3.91s1.97-3.61 1.75-4.28s-2.53.37-2.53.37z" fill="#fefefe"></path><path d="M63.92 56.52c-.89.02-1.19 1.95-2.57 1.19c-1.05-.58.16-1.77-1.03-1.92c-1.05-.13-1.2.84-.94 1.81c.26.97.52 1.9 2.27 2.05c1.75.15 2.35-.89 2.35-.89s.84 1 2.06.98c1.86-.02 2.29-1.66 2.63-2.17c.52-.78-.62-2-1.34-.82c-.72 1.18-1.69 1.15-2.23.67c-.35-.31-.53-.91-1.2-.9z" fill="#020308"></path><path d="M63.29 53.17c-.63-.18-1.27.48-1.53 1.27c-.26.78-.26 1.5.26 1.86c.71.48 1.49-.56 1.68-1.08s.48-1.79-.41-2.05z" fill="#b68e74"></path><path d="M65.97 53.1c-.71 0-1.04.56-1.04 1.68c0 1.12.22 1.41.93 1.56c.71.15 1.01-1.15 1.01-1.79s-.12-1.45-.9-1.45z" fill="#b68e74"></path><ellipse cx="71.24" cy="54.15" rx="2" ry="2.12" fill="#020204"></ellipse><ellipse cx="58.09" cy="53.48" rx="2" ry="2.12" fill="#020204"></ellipse></svg>