<?xml version="1.0" encoding="iso-8859-1"?>
<!-- Uploaded to: SVG Repo, www.svgrepo.com, Generator: SVG Repo Mixer Tools -->
<svg version="1.1" id="Layer_1" xmlns="http://www.w3.org/2000/svg" xmlns:xlink="http://www.w3.org/1999/xlink" 
	 viewBox="0 0 512 512" xml:space="preserve">
<polygon style="fill:#FF9811;" points="155.826,0 155.826,189.217 0,189.217 0,512 155.826,512 222.609,512 512,512 512,0 "/>
<rect y="189.217" style="fill:#FFDA44;" width="89.043" height="322.783"/>
<rect x="155.826" style="fill:#00AA95;" width="356.174" height="512"/>
<rect x="155.826" style="fill:#00CCB3;" width="178.087" height="512"/>
<path d="M155.826,0v189.217H0V512h512V0H155.826z M33.391,478.609v-256h122.435v256H33.391z M478.609,478.609H367.304V356.174
	h-66.783v122.435H189.217V33.391h289.391V478.609z"/>
<rect x="66.783" y="267.13" width="55.652" height="44.522"/>
<rect x="66.783" y="356.174" width="55.652" height="44.522"/>
<rect x="222.609" y="89.043" width="44.522" height="44.522"/>
<rect x="222.609" y="178.087" width="44.522" height="44.522"/>
<rect x="400.696" y="89.043" width="44.522" height="44.522"/>
<rect x="400.696" y="178.087" width="44.522" height="44.522"/>
<rect x="311.652" y="89.043" width="44.522" height="44.522"/>
<rect x="311.652" y="178.087" width="44.522" height="44.522"/>
<rect x="222.609" y="267.13" width="44.522" height="44.522"/>
<rect x="222.609" y="356.174" width="44.522" height="44.522"/>
<rect x="400.696" y="267.13" width="44.522" height="44.522"/>
<rect x="400.696" y="356.174" width="44.522" height="44.522"/>
<rect x="311.652" y="267.13" width="44.522" height="44.522"/>
</svg>