<?xml version="1.0" encoding="UTF-8" standalone="no"?>
<!-- Uploaded to: SVG Repo, www.svgrepo.com, Generator: SVG Repo Mixer Tools -->

<svg
   xmlns:dc="http://purl.org/dc/elements/1.1/"
   xmlns:cc="http://creativecommons.org/ns#"
   xmlns:rdf="http://www.w3.org/1999/02/22-rdf-syntax-ns#"
   xmlns:svg="http://www.w3.org/2000/svg"
   xmlns="http://www.w3.org/2000/svg"
   xmlns:sodipodi="http://sodipodi.sourceforge.net/DTD/sodipodi-0.dtd"
   xmlns:inkscape="http://www.inkscape.org/namespaces/inkscape"
   height="800px"
   width="800px"
   version="1.1"
   id="Layer_1"
   viewBox="0 0 512 512"
   xml:space="preserve"
   sodipodi:docname="ct_bulb.svg"
   inkscape:version="0.92.5 (2060ec1f9f, 2020-04-08)"><metadata
   id="metadata25"><rdf:RDF><cc:Work
       rdf:about=""><dc:format>image/svg+xml</dc:format><dc:type
         rdf:resource="http://purl.org/dc/dcmitype/StillImage" /></cc:Work></rdf:RDF></metadata><defs
   id="defs23" /><sodipodi:namedview
   pagecolor="#ffffff"
   bordercolor="#666666"
   borderopacity="1"
   objecttolerance="10"
   gridtolerance="10"
   guidetolerance="10"
   inkscape:pageopacity="0"
   inkscape:pageshadow="2"
   inkscape:window-width="1920"
   inkscape:window-height="949"
   id="namedview21"
   showgrid="false"
   inkscape:zoom="0.295"
   inkscape:cx="400"
   inkscape:cy="400"
   inkscape:window-x="0"
   inkscape:window-y="0"
   inkscape:window-maximized="1"
   inkscape:current-layer="Layer_1" />
<path
   style="fill:#1D1D1F;"
   d="M327.554,421.374c0-39.519-32.036-71.554-71.554-71.554s-71.554,32.036-71.554,71.554  c0,29.612,17.989,55.023,43.635,65.901c1.683,13.928,13.536,24.725,27.92,24.725c14.383,0,26.237-10.795,27.919-24.725  C309.565,476.397,327.554,450.988,327.554,421.374z"
   id="path2" />
<path
   style="fill:#3E3E42;"
   d="M256.001,349.82c-39.519,0-71.554,32.036-71.554,71.554c0,29.612,17.989,55.023,43.635,65.901  c1.683,13.928,13.536,24.725,27.92,24.725V349.82H256.001z"
   id="path4" />
<path
   style="fill:#FF9800;"
   d="M411.34,155.339C411.34,69.548,341.792,0,256.001,0S100.66,69.548,100.66,155.339  c0,39.004,14.377,74.648,38.12,101.926c29.418,33.798,45.666,77.095,45.666,121.902v0.008h143.109v-0.008  c0-44.889,16.194-88.042,45.666-121.902C396.963,229.988,411.34,194.344,411.34,155.339z"
   id="path6" />
<path
   style="fill:#F7DC4D;"
   d="M254.473,379.177V0.019C169.386,0.84,100.66,70.059,100.66,155.339  c0,39.004,14.377,74.648,38.12,101.926c29.418,33.798,45.666,77.094,45.666,121.902v0.008h70.027V379.177z"
   id="path8" />
<path
   style="fill:#ffffff"
   d="M327.554,211.919c-1.845,0-3.721-0.304-5.563-0.94l-46.897-16.248l-17.649,13.637  c-5.728,4.425-13.631,4.736-19.687,0.777l-22.172-14.498l-28.101,10.8c-8.756,3.365-18.587-1.006-21.954-9.765  c-3.366-8.758,1.006-18.588,9.765-21.954l36.217-13.918c5.096-1.958,10.821-1.347,15.393,1.639l19.329,12.638l15.352-11.862  c4.539-3.506,10.536-4.485,15.95-2.611l55.578,19.255c8.867,3.072,13.565,12.75,10.493,21.616  C341.174,207.512,334.593,211.919,327.554,211.919z"
   id="path10" />
<path
   style="fill:#79BEE8;"
   d="M227.861,362.014c-7.315,0-14.069-4.759-16.271-12.127l-55.958-187.142  c-2.688-8.99,2.421-18.457,11.41-21.145c8.987-2.689,18.457,2.419,21.145,11.41l55.958,187.142c2.688,8.99-2.42,18.457-11.41,21.145  C231.111,361.782,229.472,362.014,227.861,362.014z"
   id="path12" />
<path
   style="fill:#007BC7;"
   d="M285.668,362.014c-1.612,0-3.251-0.231-4.874-0.717c-8.991-2.688-14.098-12.155-11.41-21.145  l55.958-187.142c2.688-8.991,12.158-14.099,21.145-11.41c8.991,2.688,14.098,12.155,11.41,21.145l-55.958,187.142  C299.737,357.253,292.982,362.014,285.668,362.014z"
   id="path14" />
<path
   style="fill:#59707D;"
   d="M347.376,385.043c0-9.639-6.883-17.664-16.001-19.446c9.118-1.782,16.001-9.807,16.001-19.446  c0-10.947-8.874-19.822-19.822-19.822H184.446c-10.947,0-19.822,8.874-19.822,19.822c0,9.639,6.883,17.664,16.001,19.446  c-9.118,1.782-16.001,9.807-16.001,19.446c0,8.842,5.792,16.326,13.787,18.879c-7.994,2.553-13.787,10.038-13.787,18.879  c0,10.947,8.874,19.822,19.822,19.822h143.109c10.947,0,19.822-8.874,19.822-19.822c0-8.842-5.792-16.326-13.787-18.879  C341.584,401.368,347.376,393.884,347.376,385.043z"
   id="path16" />
<path
   style="fill:#6D8999;"
   d="M256.118,326.33h-71.673c-10.947,0-19.822,8.874-19.822,19.822c0,9.639,6.883,17.664,16.001,19.446  c-9.118,1.782-16.001,9.807-16.001,19.446c0,8.842,5.792,16.326,13.787,18.879c-7.994,2.553-13.787,10.038-13.787,18.879  c0,10.947,8.874,19.822,19.822,19.822h71.673V326.33z"
   id="path18" />
</svg>