<?xml version="1.0" encoding="UTF-8" standalone="no"?>
<svg
   xmlns:dc="http://purl.org/dc/elements/1.1/"
   xmlns:cc="http://creativecommons.org/ns#"
   xmlns:rdf="http://www.w3.org/1999/02/22-rdf-syntax-ns#"
   xmlns:svg="http://www.w3.org/2000/svg"
   xmlns="http://www.w3.org/2000/svg"
   xmlns:xlink="http://www.w3.org/1999/xlink"
   xmlns:sodipodi="http://sodipodi.sourceforge.net/DTD/sodipodi-0.dtd"
   xmlns:inkscape="http://www.inkscape.org/namespaces/inkscape"
   id="svg3810"
   height="16"
   width="16"
   version="1.1"
   sodipodi:docname="ct_code_green.svg"
   inkscape:version="1.0.1 (3bc2e813f5, 2020-09-07)">
  <g
     id="g33"
     style="fill:#206b00;fill-opacity:1;stroke:#206b00;stroke-width:2;stroke-opacity:1"
     transform="matrix(0.87540041,0,0,0.9605303,0.9967966,0.30054186)">
    <path
       id="path30"
       d="M 6.2593856,2.7883954 C 5.4825729,2.7884031 3.7110108,2.9023111 3.3208189,3.1399314 2.9342021,3.3743542 2.74744,4.1475258 2.74744,4.6484638 v 1.3139934 c 0,0.2986439 -0.1323372,0.5075806 -0.3686007,0.6552901 C 2.1461524,6.7622554 1.483268,7.1740646 0.9999996,7.1740614 v 1.6689421 c 0.9522175,2.3e-6 1.7474404,0.617741 1.7474404,1.2150175 v 1.235495 c 0,0.549111 0.1776897,1.305438 0.5392493,1.549487 0.365135,0.247259 2.1457661,0.362178 2.9726963,0.368602 V 11.52901 C 5.8477087,11.52256 4.9265917,11.442042 4.7440273,11.307167 4.5614553,11.1723 4.4744027,10.986866 4.4744027,10.72355 V 9.6348124 c 0,-0.6454451 -0.9720443,-1.4884912 -1.7918092,-1.6040958 V 7.9624573 C 3.5023584,7.8372268 4.4744027,7.065649 4.4744027,6.4266211 V 5.3583615 c 0,-0.263312 0.087054,-0.4383013 0.2696246,-0.5699658 0.186145,-0.1348622 1.1072618,-0.2194328 1.5153583,-0.2354949 z m 3.4744031,0 v 1.7645054 c 0.4080973,0.016059 1.3292143,0.1006334 1.5153583,0.2354949 0.182576,0.1316644 0.269625,0.3066539 0.269625,0.5699658 v 1.0682596 c 0,0.6390279 0.975458,1.4106048 1.795222,1.5358362 v 0.071673 c -0.819764,0.1156029 -1.795222,0.95865 -1.795222,1.604095 V 10.72355 c 0,0.263316 -0.08705,0.44875 -0.269625,0.583617 -0.182564,0.134882 -1.103681,0.215376 -1.5153583,0.221843 v 1.682595 c 0.8269303,-0.0065 2.6109743,-0.121343 2.9761083,-0.368602 0.361561,-0.244049 0.53925,-1.000376 0.53925,-1.549487 V 10.058021 C 13.249147,9.4607445 14.047783,8.8430058 15,8.8430035 V 7.1740614 C 14.516731,7.1740646 13.847023,6.7622554 13.614336,6.6177473 13.378082,6.470038 13.249147,6.2611011 13.249147,5.9624572 V 4.6484638 c 0,-0.5009382 -0.18335,-1.2741096 -0.569966,-1.5085324 -0.390193,-0.2376203 -2.16858,-0.3515283 -2.9453923,-0.351536 z"
       style="color:#000000;font-style:normal;font-variant:normal;font-weight:600;font-stretch:normal;font-size:19px;line-height:125%;font-family:'Open Sans';-inkscape-font-specification:'Open Sans Semi-Bold';text-align:start;letter-spacing:0px;word-spacing:0px;writing-mode:lr-tb;text-anchor:start;clip-rule:nonzero;display:inline;overflow:visible;visibility:visible;opacity:1;isolation:auto;mix-blend-mode:normal;color-interpolation:sRGB;color-interpolation-filters:linearRGB;solid-color:#000000;solid-opacity:1;fill:#206b00;fill-opacity:1;fill-rule:nonzero;stroke:#206b00;stroke-width:2;stroke-linecap:butt;stroke-linejoin:miter;stroke-miterlimit:4;stroke-dasharray:none;stroke-dashoffset:0;stroke-opacity:1;marker:none;color-rendering:auto;image-rendering:auto;shape-rendering:auto;text-rendering:auto;enable-background:accumulate"
       sodipodi:nodetypes="ccsscccssccccssccssccccccssccssccccsscccsscc" />
  </g>
  <sodipodi:namedview
     pagecolor="#ffffff"
     bordercolor="#666666"
     borderopacity="1"
     objecttolerance="10"
     gridtolerance="10"
     guidetolerance="10"
     inkscape:pageopacity="0"
     inkscape:pageshadow="2"
     inkscape:window-width="1366"
     inkscape:window-height="715"
     id="namedview27"
     showgrid="true"
     inkscape:zoom="23.000864"
     inkscape:cx="2.8044976"
     inkscape:cy="11.440937"
     inkscape:window-x="-8"
     inkscape:window-y="22"
     inkscape:window-maximized="1"
     inkscape:current-layer="svg3810"
     inkscape:document-rotation="0"
     inkscape:snap-global="false">
    <inkscape:grid
       type="xygrid"
       id="grid28" />
  </sodipodi:namedview>
  <defs
     id="defs3812">
    <linearGradient
       gradientTransform="matrix(0.24324324,0,0,0.35135133,2.1621636,-0.43242804)"
       gradientUnits="userSpaceOnUse"
       xlink:href="#linearGradient3977"
       id="linearGradient3988"
       y2="41.076912"
       x2="23.99999"
       y1="6.9230647"
       x1="23.99999" />
    <linearGradient
       id="linearGradient3977">
      <stop
         offset="0"
         style="stop-color:#ffffff;stop-opacity:1"
         id="stop3979" />
      <stop
         offset="0"
         style="stop-color:#ffffff;stop-opacity:0.23529412"
         id="stop3981" />
      <stop
         offset="1"
         style="stop-color:#ffffff;stop-opacity:0.15686275"
         id="stop3983" />
      <stop
         offset="1"
         style="stop-color:#ffffff;stop-opacity:0.39215687"
         id="stop3985" />
    </linearGradient>
    <linearGradient
       id="linearGradient3600">
      <stop
         offset="0"
         style="stop-color:#f4f4f4;stop-opacity:1"
         id="stop3602" />
      <stop
         offset="1"
         style="stop-color:#dbdbdb;stop-opacity:1"
         id="stop3604" />
    </linearGradient>
    <linearGradient
       gradientTransform="matrix(0.28571361,0,0,0.30419701,1.1428727,0.2326048)"
       gradientUnits="userSpaceOnUse"
       xlink:href="#linearGradient3600"
       id="linearGradient3806"
       y2="47.013336"
       x2="25.132275"
       y1="0.98520643"
       x1="25.132275" />
    <linearGradient
       id="linearGradient3104-9">
      <stop
         offset="0"
         style="stop-color:#000000;stop-opacity:0.33950618"
         id="stop3106-5" />
      <stop
         offset="1"
         style="stop-color:#000000;stop-opacity:0.24691358"
         id="stop3108-5" />
    </linearGradient>
    <linearGradient
       gradientTransform="matrix(0.25378586,0,0,0.30501865,19.128979,-0.68547704)"
       gradientUnits="userSpaceOnUse"
       xlink:href="#linearGradient3104-9"
       id="linearGradient3019"
       y2="2.9062471"
       x2="-51.786404"
       y1="50.786446"
       x1="-51.786404" />
    <linearGradient
       x1="18.953051"
       y1="8.925889"
       x2="27.857473"
       y2="63.892433"
       id="linearGradient3192-0-3-3"
       xlink:href="#linearGradient937"
       gradientUnits="userSpaceOnUse"
       gradientTransform="matrix(0.52049566,0.1523502,-0.08431881,0.34377339,-2.3627681,-5.4481571)" />
    <linearGradient
       id="linearGradient937">
      <stop
         style="stop-color:#9bdb4d;stop-opacity:1"
         offset="0"
         id="stop933" />
      <stop
         style="stop-color:#3a9104;stop-opacity:1"
         offset="1"
         id="stop935" />
    </linearGradient>
  </defs>
  <metadata
     id="metadata3815">
    <rdf:RDF>
      <cc:Work
         rdf:about="">
        <dc:format>image/svg+xml</dc:format>
        <dc:type
           rdf:resource="http://purl.org/dc/dcmitype/StillImage" />
        <dc:title></dc:title>
      </cc:Work>
    </rdf:RDF>
  </metadata>
  <path
     id="path3873-9-6"
     d="M 6.4762655,2.9788805 C 5.7962434,2.9788878 4.2454172,3.0882999 3.9038432,3.3165414 3.5653986,3.5417117 3.401907,4.2843663 3.401907,4.7655324 v 1.2621303 c 0,0.2868567 -0.1158481,0.4875466 -0.3226732,0.629426 C 2.8755395,6.7958932 2.2952505,7.1914483 1.8721971,7.1914452 v 1.6030694 c 0.8335716,2.3e-6 1.5297099,0.5933589 1.5297099,1.1670611 v 1.1867313 c 0,0.527437 0.1555497,1.253911 0.4720591,1.488328 0.3196393,0.2375 1.8784045,0.347883 2.6022994,0.354053 V 11.374504 C 6.1158833,11.368309 5.3095374,11.29097 5.1497202,11.161418 4.9898967,11.031875 4.9136908,10.853759 4.9136908,10.600836 V 9.555071 c 0,-0.6199696 -0.8509279,-1.4297408 -1.5685504,-1.5407826 V 7.9487233 C 4.0627629,7.8284356 4.9136908,7.0873119 4.9136908,6.4735062 V 5.4474106 c 0,-0.2529191 0.076207,-0.4210017 0.2360294,-0.5474694 0.1629515,-0.1295392 0.9692974,-0.2107719 1.3265453,-0.2262 z m 3.0414941,0 v 1.6948607 c 0.3572482,0.015426 1.1635934,0.096661 1.3265434,0.2262 0.159829,0.1264676 0.236032,0.2945504 0.236032,0.5474694 v 1.0260956 c 0,0.6138057 0.853916,1.3549285 1.571538,1.4752171 v 0.068844 c -0.717622,0.1110403 -1.571538,0.9208124 -1.571538,1.5407818 v 1.0424879 c 0,0.252923 -0.07619,0.431039 -0.236032,0.560582 -0.159816,0.129559 -0.9661612,0.206875 -1.3265434,0.213086 v 1.616184 c 0.7238944,-0.0061 2.2856484,-0.116553 2.6052874,-0.354053 0.316509,-0.234417 0.472058,-0.960891 0.472058,-1.488328 V 9.9615757 c 0,-0.5737022 0.699126,-1.1670588 1.532698,-1.1670611 V 7.1914452 C 13.704749,7.1914483 13.118486,6.7958932 12.914791,6.6570887 12.707975,6.5152095 12.595105,6.3145194 12.595105,6.0276627 V 4.7655324 c 0,-0.4811663 -0.160505,-1.2238207 -0.498949,-1.448991 C 11.754582,3.0882999 10.197782,2.9788878 9.5177596,2.9788805 Z"
     style="color:#000000;font-style:normal;font-variant:normal;font-weight:600;font-stretch:normal;font-size:19px;line-height:125%;font-family:'Open Sans';-inkscape-font-specification:'Open Sans Semi-Bold';text-align:start;letter-spacing:0px;word-spacing:0px;writing-mode:lr-tb;text-anchor:start;clip-rule:nonzero;display:inline;overflow:visible;visibility:visible;opacity:1;isolation:auto;mix-blend-mode:normal;color-interpolation:sRGB;color-interpolation-filters:linearRGB;solid-color:#000000;solid-opacity:1;fill:url(#linearGradient3192-0-3-3);fill-opacity:1;fill-rule:nonzero;stroke:none;stroke-width:1.60236;stroke-linecap:butt;stroke-linejoin:miter;stroke-miterlimit:4;stroke-dasharray:none;stroke-dashoffset:0;stroke-opacity:1;marker:none;color-rendering:auto;image-rendering:auto;shape-rendering:auto;text-rendering:auto;enable-background:accumulate"
     sodipodi:nodetypes="ccsscccssccccssccssccccccssccssccccsscccsscc" />
</svg>
