<?xml version="1.0" encoding="UTF-8"?>
<!-- Created with Inkscape (http://www.inkscape.org/) -->
<svg id="svg7777" width="48" height="48" version="1.1" xmlns="http://www.w3.org/2000/svg" xmlns:xlink="http://www.w3.org/1999/xlink">
 <defs id="defs7779">
  <linearGradient id="linearGradient9779">
   <stop id="stop9781" style="stop-color:#fff" offset="0"/>
   <stop id="stop9783" style="stop-color:#fff;stop-opacity:0" offset="1"/>
  </linearGradient>
  <linearGradient id="linearGradient9739">
   <stop id="stop9741" style="stop-color:#eeeeec" offset="0"/>
   <stop id="stop9743" style="stop-color:#cdcdcd" offset="1"/>
  </linearGradient>
  <clipPath id="clipPath10731">
   <path id="path10733" d="m225.55 397.97h35.506c0.13661 0 0.24657 0.11972 0.24657 0.2685 4.1015 9.6068 2.9062 22.295 0 28.982 0 0.14878-0.10994 0.26851-0.24657 0.26851h-35.506c-0.13659 0-0.24656-0.11973-0.24656-0.26851-4.1457-8.194-4.0808-21.376 0-28.982 0-0.14878 0.10994-0.2685 0.24656-0.2685z" style="color:black;enable-background:new"/>
  </clipPath>
  <linearGradient id="linearGradient9396">
   <stop id="stop9398" style="stop-color:#cfcfcf" offset="0"/>
   <stop id="stop9408" style="stop-color:#dfdfdf" offset=".17611"/>
   <stop id="stop9410" style="stop-color:#b3b3b3" offset=".26417"/>
   <stop id="stop9412" style="stop-color:#fff" offset=".36968"/>
   <stop id="stop9404" style="stop-color:#f0f0f0" offset=".47518"/>
   <stop id="stop9406" style="stop-color:#999" offset=".75"/>
   <stop id="stop9400" style="stop-color:#d9d9d9" offset="1"/>
  </linearGradient>
  <filter id="filter9723" x="-.028217" y="-.11459" width="1.0564" height="1.2292" color-interpolation-filters="sRGB">
   <feGaussianBlur id="feGaussianBlur9725" stdDeviation="0.14622642"/>
  </filter>
  <clipPath id="clipPath9796">
   <rect id="rect9798" x="111.3" y="89.936" width="17.919" height="6.3775" rx="3.1888" ry="3.1888" style="color:black;enable-background:new;fill:url(#linearGradient9800)"/>
  </clipPath>
  <linearGradient id="linearGradient9760">
   <stop id="stop9762" style="stop-color:#555" offset="0"/>
   <stop id="stop9764" style="stop-color:#242424" offset="1"/>
  </linearGradient>
  <radialGradient id="radialGradient8272" cx="605.71" cy="486.65" r="117.14" gradientTransform="matrix(-2.7744 0 0 1.9697 112.76 -872.89)" gradientUnits="userSpaceOnUse" xlink:href="#linearGradient5060"/>
  <linearGradient id="linearGradient5060">
   <stop id="stop5062" offset="0"/>
   <stop id="stop5064" style="stop-opacity:0" offset="1"/>
  </linearGradient>
  <radialGradient id="radialGradient8270" cx="605.71" cy="486.65" r="117.14" gradientTransform="matrix(2.7744 0 0 1.9697 -1891.6 -872.89)" gradientUnits="userSpaceOnUse" xlink:href="#linearGradient5060"/>
  <linearGradient id="linearGradient8268" x1="302.86" x2="302.86" y1="366.65" y2="609.51" gradientTransform="matrix(2.7744 0 0 1.9697 -1892.2 -872.89)" gradientUnits="userSpaceOnUse">
   <stop id="stop5050" style="stop-opacity:0" offset="0"/>
   <stop id="stop5056" offset=".5"/>
   <stop id="stop5052" style="stop-opacity:0" offset="1"/>
  </linearGradient>
  <radialGradient id="radialGradient4081" cx="171.25" cy="188.5" r="19" gradientTransform="matrix(1.2634 0 0 1.2634 -45.113 -49.657)" gradientUnits="userSpaceOnUse">
   <stop id="stop10697" style="stop-color:#0052cb" offset="0"/>
   <stop id="stop10699" style="stop-color:#204a87;stop-opacity:0" offset="1"/>
  </radialGradient>
  <linearGradient id="linearGradient4095" x1="111.77" x2="125.59" y1="92.843" y2="92.843" gradientTransform="matrix(1 0 0 .89694 -.5 10.85)" gradientUnits="userSpaceOnUse">
   <stop id="stop9729" style="stop-color:#bfbfbf" offset="0"/>
   <stop id="stop9731" style="stop-color:#6e6e6e" offset=".10442"/>
   <stop id="stop9734" style="stop-color:#f5f5f5" offset=".35096"/>
   <stop id="stop9736" style="stop-color:#3b3b3b" offset=".44291"/>
   <stop id="stop9738" style="stop-color:#8d8d8d" offset=".50115"/>
   <stop id="stop9740" style="stop-color:#343434" offset=".62146"/>
   <stop id="stop9752" style="stop-color:silver" offset=".77173"/>
   <stop id="stop9742" style="stop-color:#505050" offset="1"/>
  </linearGradient>
  <radialGradient id="radialGradient4097" cx="117.12" cy="93.125" r=".875" gradientUnits="userSpaceOnUse" xlink:href="#linearGradient9779"/>
  <radialGradient id="radialGradient3050" cx="90.583" cy="82.642" r="15.472" gradientTransform="matrix(.29755 0 0 .16128 -13.47 -3.5153)" gradientUnits="userSpaceOnUse" xlink:href="#linearGradient9779"/>
  <linearGradient id="linearGradient3053" x1="59.312" x2="100.09" y1="103" y2="103" gradientTransform="matrix(.24549 0 0 .23755 -9.5302 -10.2)" gradientUnits="userSpaceOnUse">
   <stop id="stop9845" style="stop-color:#bfbfbf" offset="0"/>
   <stop id="stop9865" offset=".30804"/>
   <stop id="stop9859" style="stop-color:#f5f5f5" offset=".35096"/>
   <stop id="stop9861" style="stop-color:#3b3b3b" offset=".44291"/>
   <stop id="stop9867" style="stop-color:#8d8d8d" offset=".50115"/>
   <stop id="stop9863" style="stop-color:#343434" offset=".66666"/>
   <stop id="stop9847" style="stop-color:#8f8f8f" offset="1"/>
  </linearGradient>
  <radialGradient id="radialGradient3056" cx="79.688" cy="95.124" r="6.9375" gradientTransform="matrix(.22337 -3.3694e-8 1.4744e-8 .091523 -7.7679 4.4181)" gradientUnits="userSpaceOnUse">
   <stop id="stop9877" style="stop-color:#fff" offset="0"/>
   <stop id="stop9879" style="stop-color:#d9d9d9" offset="1"/>
  </radialGradient>
  <radialGradient id="radialGradient3059" cx="79.562" cy="74.847" r="14.938" gradientTransform="matrix(.58033 3.4399e-7 -5.1564e-8 .086992 -36.171 3.132)" gradientUnits="userSpaceOnUse" xlink:href="#linearGradient5060"/>
  <radialGradient id="radialGradient3062" cx="79" cy="87.75" r="15" gradientTransform="matrix(.24549 0 0 .11878 -9.3566 .41551)" gradientUnits="userSpaceOnUse" xlink:href="#linearGradient9739"/>
  <radialGradient id="radialGradient3065" cx="77.988" cy="99.143" r="15" gradientTransform="matrix(.33366 0 0 .19026 -16.322 -5.6269)" gradientUnits="userSpaceOnUse" xlink:href="#linearGradient9739"/>
  <radialGradient id="radialGradient3077" cx="330.58" cy="72.531" r="2.5156" gradientTransform="matrix(1.9556 3.5591e-6 -4.9646e-6 1.9526 -616.69 -118.12)" gradientUnits="userSpaceOnUse">
   <stop id="stop10948" style="stop-color:#999a97" offset="0"/>
   <stop id="stop10950" style="stop-color:#999a97;stop-opacity:0" offset="1"/>
  </radialGradient>
  <radialGradient id="radialGradient3080" cx="190.75" cy="86.375" r="27.625" gradientTransform="matrix(.75696 0 0 .16203 -116.18 -3.5712)" gradientUnits="userSpaceOnUse" xlink:href="#linearGradient9779"/>
  <radialGradient id="radialGradient3083" cx="33.5" cy="164.25" r="1" gradientTransform="matrix(7.25 -9.2263e-5 .001125 12.04 -287.56 -1953.2)" gradientUnits="userSpaceOnUse" xlink:href="#linearGradient9779"/>
  <radialGradient id="radialGradient3086" cx="33.5" cy="164.25" r="1" gradientTransform="matrix(7.25 -9.2263e-5 .001125 12.04 -246.56 -1953.2)" gradientUnits="userSpaceOnUse" xlink:href="#linearGradient9779"/>
  <linearGradient id="linearGradient3102" x1="157.06" x2="202.41" y1="215.47" y2="215.47" gradientTransform="matrix(.21848 0 0 .2433 -9.1586 -22.318)" gradientUnits="userSpaceOnUse">
   <stop id="stop11019" style="stop-color:#67767d" offset="0"/>
   <stop id="stop11025" style="stop-color:#eef0f1" offset=".17504"/>
   <stop id="stop11027" style="stop-color:#f1f3f4" offset=".82561"/>
   <stop id="stop11021" style="stop-color:#89939d" offset="1"/>
  </linearGradient>
  <linearGradient id="linearGradient3106" x1="175.11" x2="284.32" y1="230.27" y2="160.24" gradientTransform="matrix(.15385 0 0 .14815 .46148 2.5924)" gradientUnits="userSpaceOnUse" xlink:href="#linearGradient9396"/>
  <linearGradient id="linearGradient3109" x1="140" x2="244" y1="185" y2="185" gradientTransform="matrix(.18656 0 0 .20359 -3.4869 -12.883)" gradientUnits="userSpaceOnUse">
   <stop id="stop9519-6" style="stop-color:#ababab" offset="0"/>
   <stop id="stop9525-3" style="stop-color:#fff" offset=".36251"/>
   <stop id="stop9521-8" style="stop-color:#52544e" offset="1"/>
  </linearGradient>
  <linearGradient id="linearGradient3111" x1="169.89" x2="160.06" y1="138.42" y2="173.93" gradientTransform="matrix(.1743 0 0 .18005 -1.6111 -4.8495)" gradientUnits="userSpaceOnUse">
   <stop id="stop11465" style="stop-color:#202121" offset="0"/>
   <stop id="stop11467" style="stop-color:#667377" offset="1"/>
  </linearGradient>
  <linearGradient id="linearGradient3114" x1="181.96" x2="249.38" y1="224.42" y2="185" gradientTransform="matrix(.23077 0 0 .21374 -14.308 -13.083)" gradientUnits="userSpaceOnUse" xlink:href="#linearGradient9396"/>
  <linearGradient id="linearGradient3129" x1="146.07" x2="146.07" y1="116.32" y2="102.52" gradientTransform="matrix(.18659 0 0 .18453 -3.4433 -5.9292)" gradientUnits="userSpaceOnUse" xlink:href="#linearGradient9779"/>
  <radialGradient id="radialGradient3132" cx="160.5" cy="246.5" r="88.5" gradientTransform="matrix(.18659 0 0 .090395 -3.4433 17.217)" gradientUnits="userSpaceOnUse" xlink:href="#linearGradient9779"/>
  <linearGradient id="linearGradient3136" x1="311.12" x2="311.12" y1="57.49" y2="62.195" gradientTransform="matrix(1.0571 0 0 .9697 -318.33 -46.561)" gradientUnits="userSpaceOnUse">
   <stop id="stop11058" style="stop-color:#222" offset="0"/>
   <stop id="stop11060" style="stop-color:#222;stop-opacity:0" offset="1"/>
  </linearGradient>
  <linearGradient id="linearGradient3140" x1="163.25" x2="163.25" y1="107.25" y2="91.75" gradientTransform="matrix(.18366 0 0 .18453 -3.0055 -5.9292)" gradientUnits="userSpaceOnUse" xlink:href="#linearGradient9779"/>
  <linearGradient id="linearGradient3144" x1="188.8" x2="188.8" y1="135.56" y2="207.78" gradientTransform="matrix(.24957 0 0 .23148 -17.94 -16.324)" gradientUnits="userSpaceOnUse">
   <stop id="stop11073" style="stop-color:#fff" offset="0"/>
   <stop id="stop11075" style="stop-color:#060606" offset="1"/>
  </linearGradient>
  <radialGradient id="radialGradient3147" cx="146.25" cy="95.75" r="112.25" gradientTransform="matrix(.49576 -1.0895e-7 0 .011096 -48.66 10.677)" gradientUnits="userSpaceOnUse" xlink:href="#linearGradient5060"/>
  <radialGradient id="radialGradient3150" cx="171.86" cy="163.67" r="106.11" gradientTransform="matrix(.30765 -.082875 .11539 .42573 -43.47 -28.314)" gradientUnits="userSpaceOnUse">
   <stop id="stop9129" style="stop-color:#f0f0f0" offset="0"/>
   <stop id="stop9131" style="stop-color:#a9a9a9" offset="1"/>
  </radialGradient>
  <linearGradient id="linearGradient3152" x1="2.4999" x2="46.129" y1="23.164" y2="23.164" gradientTransform="matrix(1.0087 0 0 1.0098 -.52606 2.1094)" gradientUnits="userSpaceOnUse">
   <stop id="stop10171" style="stop-color:#8f8f8f" offset="0"/>
   <stop id="stop10177" style="stop-color:#5f5f5f" offset=".088032"/>
   <stop id="stop10179" style="stop-color:#616161" offset=".92656"/>
   <stop id="stop10173" style="stop-color:#9e9e9e" offset="1"/>
  </linearGradient>
  <linearGradient id="linearGradient3155" x1="163.5" x2="163.5" y1="87.5" y2="83" gradientTransform="matrix(.18659 0 0 .20211 -3.4433 -7.775)" gradientUnits="userSpaceOnUse" xlink:href="#linearGradient9760"/>
  <linearGradient id="linearGradient3976" x1="234.87" x2="250.5" y1="232.28" y2="232.28" gradientTransform="matrix(.1941 0 0 .19196 -5.6234 -8.0892)" gradientUnits="userSpaceOnUse">
   <stop id="stop11549" style="stop-color:#c17d11" offset="0"/>
   <stop id="stop11551" style="stop-color:#eda32c" offset="1"/>
  </linearGradient>
  <linearGradient id="linearGradient4125" x1="124.14" x2="129.22" y1="91.812" y2="91.812" gradientTransform="matrix(.37571 0 0 .37156 -24.809 -22.79)" gradientUnits="userSpaceOnUse" xlink:href="#linearGradient9760"/>
  <linearGradient id="linearGradient4128" x1="126.42" x2="126.34" y1="92.375" y2="95.25" gradientTransform="matrix(.37571 0 0 .37156 -24.809 -22.79)" gradientUnits="userSpaceOnUse">
   <stop id="stop9788" style="stop-color:#949494" offset="0"/>
   <stop id="stop9790" style="stop-color:#f1f1f1" offset="1"/>
  </linearGradient>
 </defs>
 <g id="g5022" transform="matrix(.02364 0 0 .010452 45.026 39.575)">
  <rect id="rect4173" x="-1559.3" y="-150.7" width="1339.6" height="478.36" style="fill:url(#linearGradient8268);opacity:.40206"/>
  <path id="path5058" d="m-219.62-150.68v478.33c142.87 0.90045 345.4-107.17 345.4-239.2 0-132.03-159.44-239.13-345.4-239.13z" style="fill:url(#radialGradient8270);opacity:.40206"/>
  <path id="path5018" d="m-1559.3-150.68v478.33c-142.87 0.90045-345.4-107.17-345.4-239.2 0-132.03 159.44-239.13 345.4-239.13z" style="fill:url(#radialGradient8272);opacity:.40206"/>
 </g>
 <path id="path9722" d="m15.962 8.9998c-0.42079 0-0.80806 0.15155-1.1195 0.40421h-7.5218c-1.414 0-2.5539 0.90139-2.5539 2.0211 0 1.1197 1.1399 2.0211 2.5539 2.0211h35.475c1.414 0 2.5539-0.90139 2.5539-2.0211 0-1.0574-1.0167-1.9158-2.3207-2.0084-0.31364-0.25908-0.70454-0.41684-1.1312-0.41684h-25.935z" style="enable-background:new;fill:url(#linearGradient3155)"/>
 <rect id="rect9736" x="2.5" y="10.5" width="43" height="30" rx="1.8375" ry="1.9545" style="enable-background:new;fill:url(#radialGradient3150);stroke:url(#linearGradient3152)"/>
 <rect id="rect9740" x="2.9006" y="10.494" width="41.889" height="2.4911" rx="1.2595" ry="1.2456" style="fill-rule:evenodd;fill:url(#radialGradient3147);opacity:.32692"/>
 <path id="path9744" d="m42.956 26.5a12.978 12.5 0 0 1-25.956 0 12.978 12.5 0 1 1 25.956 0z" style="enable-background:new;fill:url(#linearGradient3144);opacity:.60096"/>
 <path id="path9759" d="m44.999 11.831s0.06903 1.0792-1.3775 1.0882l-29.822 0.18453c-1.5611 1.0095-3.1835 1.0095-4.8671 0h-4.8671c-1.389-0.04206-1.0216-1.6824-1.0216-1.6824s0.63134 0.71504 1.6185 0.67298h38.661c1.1249 0.04206 1.6759-0.26322 1.6759-0.26322z" style="enable-background:new;fill:url(#linearGradient3140)"/>
 <path id="path9782" d="m45 12.293s-0.7642 1.1533-1.3894 1.1533h-30.058c-1.5747 0.55358-3.2112 0.55358-4.9094 0h-4.6778c-0.74104-0.02307-1.2042-0.92263-1.2042-0.92263s0.57894 0.39212 1.5747 0.36905h4.0757c1.8217 1.1072 4.0217 1.1072 5.5346 0h29.387c1.1347 0.02307 1.6673-0.59971 1.6673-0.59971z" style="enable-background:new;fill:#fff"/>
 <path id="path11054" d="m15.5 11.5a5.5 3 0 0 1-11 0 5.5 3 0 1 1 11 0z" style="enable-background:new;fill:none;opacity:.80769;stroke:url(#linearGradient3136)"/>
 <rect id="rect9790" x="9.9909" y="39" width="33.026" height="1" style="fill-rule:evenodd;fill:url(#radialGradient3132);opacity:.4"/>
 <path id="path9792" d="m44.448 13.412s-0.60739 0.77256-1.7349 0.77256l-37.928-0.023065c-0.74634-0.02306-1.3648-0.61158-1.3648-0.61158s0.38518 0.1964 1.3881 0.17333h3.7831c1.7007 0.48456 3.3959 0.48028 5.0845 0h29.419c0.64812 0 1.3528-0.31125 1.3528-0.31125z" style="enable-background:new;fill:url(#linearGradient3129);opacity:.32692"/>
 <rect id="rect9757" x="17.005" y="10.626" width="6.7321" height="2.3696" rx="1.0572" ry="1.0572" style="enable-background:new;fill:url(#linearGradient4128)"/>
 <path id="path9826" d="m18.209 10.627c-0.66371 0-1.2093 0.52796-1.2093 1.1844 0 0.07056 0.02337 0.1419 0.03519 0.209 0.09329-0.39763 0.57738-0.69668 1.1741-0.69668h4.3324c0.59706 0 1.0812 0.2987 1.1741 0.69668 0.01178-0.06699 0.02349-0.13857 0.02349-0.209 0-0.65639-0.53386-1.1844-1.1976-1.1844h-4.3324 2.5e-5z" style="enable-background:new;fill:url(#linearGradient4125)"/>
 <g id="g9828" transform="matrix(.37571 0 0 .34532 -24.809 -20.259)">
  <path id="path9830" d="m118.12 87.625c-1.0041 0-1.8125 0.80925-1.8125 1.8125 0 0.43764-0.6875 0.5-0.6875 0.5h-1.125c-1.7666 0-3.2188 1.3254-3.2188 2.9688v0.4375c0 1.6433 1.4522 2.9688 3.2188 2.9688h7.4062c1.7666 0 3.1875-1.3254 3.1875-2.9688v-0.4375c0-1.6433-1.4209-2.9688-3.1875-2.9688h-1.0312s-0.9375 0-0.9375-0.5c0-1.0041-0.80837-1.8125-1.8125-1.8125z" style="enable-background:new;fill:url(#linearGradient4095)"/>
  <path id="path9834" transform="matrix(1.7857 0 0 1.7857 -92.027 -73.545)" d="m118 93.125a0.875 0.875 0 1 1-1.75 0 0.875 0.875 0 1 1 1.75 0z" style="enable-background:new;fill:url(#radialGradient4097)"/>
  <path id="path9836" transform="translate(-1.125,1.6875)" d="m118 93.125a0.875 0.875 0 1 1-1.75 0 0.875 0.875 0 1 1 1.75 0z" style="enable-background:new;fill:url(#radialGradient4097)"/>
  <rect id="rect9840" x="116.75" y="88.125" width="1.375" height="4.875" rx=".34143" ry=".34143" style="enable-background:new;fill:#fff"/>
  <path id="path9844" transform="translate(0 -.067249)" d="m111.94 94.956s0.31125 1.4375 1.875 1.4375h8.0625c1.4375 0 2.5-1.3125 2.5-1.3125s-1.625 1.125-2.5625 1h-2c-0.875 0-0.5625-2.6875-1.5-2.75h-1.0625c-0.75 0.125-0.5 2.625-1.4375 2.5625h-2c-1 0.0625-1.875-0.9375-1.875-0.9375z" clip-path="url(#clipPath9796)" style="enable-background:new;fill:#191919;filter:url(#filter9723)"/>
 </g>
 <path id="path9884" d="m42 26.458a12 11.542 0 0 1-24 0 12 11.542 0 1 1 24 0z" style="fill-rule:evenodd;fill:url(#linearGradient3114)"/>
 <path id="path9909" d="m30 18.5c-4.6116 0-8.4049 4.0343-8.4049 8.9287l-0.0951 2.1592c0 4.9499 3.8359 8.912 8.5 8.912 4.6641 0 8.5-3.9622 8.5-8.912l-0.0951-2.1592c0-4.8945-3.7933-8.9287-8.4049-8.9287z" style="fill-rule:evenodd;fill:url(#linearGradient3109);stroke:url(#linearGradient3111)"/>
 <path id="path9911" d="m38 30a8 8 0 0 1-16 0 8 8 0 1 1 16 0z" style="fill-rule:evenodd;fill:url(#linearGradient3106)"/>
 <path id="path9915" d="m36 30a6 6 0 0 1-12 0 6 6 0 1 1 12 0z" style="fill-rule:evenodd;fill:#999"/>
 <path id="path9917" d="m25.947 26.203h8.4291c0.03242 0 0.05852 0.03166 0.05852 0.07098 0.97369 2.5397 0.68992 5.8941 0 7.6619 0 0.03932-0.0261 0.07098-0.05852 0.07098h-8.4291c-0.03242 0-0.05852-0.03166-0.05852-0.07098-0.98419-2.1662-0.96877-5.651 0-7.6619 0-0.03932 0.0261-0.07098 0.05852-0.07098z" style="enable-background:new;fill:url(#linearGradient3102)"/>
 <path id="path9919" d="m25.809 25.746h8.0793c0.03109 0 0.05611 0.02872 0.05611 0.06441 0.93327 2.3044 0.66128 5.3479 0 6.9519 0 0.03569-0.02502 0.06441-0.05611 0.06441h-8.0793c-0.03108 0-0.0561-0.02872-0.0561-0.06441-0.94334-1.9655-0.92856-5.1274 0-6.9519 0-0.03569 0.02502-0.06441 0.0561-0.06441z" style="enable-background:new"/>
 <path id="path9923" d="m22.105 33.859a10.621 10.504 0 1 1 16.262-13.515 10.621 10.504 0 1 1-16.262 13.515z" style="enable-background:new;fill:none"/>
 <rect id="rect9945" x="39.966" y="35" width="3.0335" height="3" rx=".41931" ry=".41468" style="enable-background:new;fill:url(#linearGradient3976)"/>
 <path id="path9983" d="m43.576 16.029a1.3061 1.2917 0 0 1-2.6122 0 1.3061 1.2917 0 1 1 2.6122 0z" style="enable-background:new;fill:#555"/>
 <path id="path9985" d="m43.576 15.845a1.3061 1.2917 0 0 1-2.6122 0 1.3061 1.2917 0 1 1 2.6122 0z" style="enable-background:new"/>
 <path id="path9987" d="m42.27 14.98c-0.48428 0-0.87462 0.38604-0.87462 0.86497 0 0.07435 0.01134 0.14447 0.02915 0.21336 0.06498-0.25656 0.2416-0.4675 0.47813-0.57664-0.0094 0.03287-0.01748 0.06795-0.01748 0.1038 0 0.20884 0.17367 0.37482 0.38483 0.37482s0.38483-0.16598 0.38483-0.37482c0-0.03584-0.0081-0.07093-0.01748-0.1038 0.23653 0.10915 0.41315 0.32008 0.47813 0.57664 0.01782-0.06889 0.02915-0.13901 0.02915-0.21336 0-0.47893-0.39035-0.86497-0.87462-0.86497h-1.9e-5z" style="enable-background:new;fill:#696969"/>
 <path id="path9989" d="m42.799 15.937a0.52878 0.52294 0 0 1-1.0576 0 0.52878 0.52294 0 1 1 1.0576 0z" style="fill-rule:evenodd;fill:#454545;opacity:.26923"/>
 <g id="g10001" transform="matrix(.19664 0 0 .19989 -18.123 -52.624)" clip-path="url(#clipPath10731)">
  <path id="path10003" transform="translate(62.194 210.14)" d="m200 201a19 19 0 1 1-38 0 19 19 0 1 1 38 0z" style="fill-rule:evenodd"/>
  <path id="path10013" transform="translate(62.194 210.14)" d="m200 201a19 19 0 1 1-38 0 19 19 0 1 1 38 0z" style="fill-rule:evenodd;fill:url(#radialGradient4081)"/>
 </g>
 <rect id="rect10015" transform="scale(-1,1)" x="-3.9999" y="12.339" width="1" height="24.081" rx="5.0302" ry="1.9545" style="enable-background:new;fill:url(#radialGradient3086);opacity:.4"/>
 <rect id="rect10017" transform="scale(-1,1)" x="-45" y="12.339" width="1" height="24.081" rx="1.536" ry="1.9545" style="enable-background:new;fill:url(#radialGradient3083);opacity:.4"/>
 <rect id="rect10019" x="13.987" y="9.8478" width="28.446" height="1.1519" rx=".32579" ry=".16146" style="enable-background:new;fill:url(#radialGradient3080);opacity:.75481"/>
 <rect id="rect10944" x="27" y="23" width="5.597" height="1" style="enable-background:new;fill:url(#radialGradient3077)"/>
 <path id="path10956" d="m31.816 16.5a10.088 10.435 0 0 1 5.7279 2.9545" style="enable-background:new;fill:none;opacity:.51923;stroke:#2e3436"/>
 <path id="path9796" d="m28 12.5a1.5 1.5 0 0 1-3 0 1.5 1.5 0 1 1 3 0z" style="enable-background:new;fill:#fff;opacity:.25"/>
 <path id="path9798" d="m27.5 12a1 1 0 0 1-2 0 1 1 0 1 1 2 0z" style="enable-background:new;opacity:.408"/>
 <path id="path10987" d="m30 12.5a1.5 1.5 0 0 1-3 0 1.5 1.5 0 1 1 3 0z" style="enable-background:new;fill:#fff;opacity:.25"/>
 <path id="path10989" d="m29.5 12a1 1 0 0 1-2 0 1 1 0 1 1 2 0z" style="enable-background:new;opacity:.408"/>
 <path id="path10997" d="m32 12.5a1.5 1.5 0 0 1-3 0 1.5 1.5 0 1 1 3 0z" style="enable-background:new;fill:#fff;opacity:.25"/>
 <path id="path10999" d="m31.5 12a1 1 0 0 1-2 0 1 1 0 1 1 2 0z" style="enable-background:new;opacity:.408"/>
 <path id="path11007" d="m34 12.5a1.5 1.5 0 0 1-3 0 1.5 1.5 0 1 1 3 0z" style="enable-background:new;fill:#fff;opacity:.205"/>
 <path id="path11009" d="m33.5 12a1 1 0 0 1-2 0 1 1 0 1 1 2 0z" style="enable-background:new;opacity:.408"/>
 <path id="path9764" d="m15.042 11.782a5.0049 2.854 0 0 1-10.01 0 5.0049 2.854 0 1 1 10.01 0z" style="enable-background:new;fill:url(#radialGradient3065)"/>
 <path id="path9766" d="m13.719 11.283a3.6823 1.7816 0 0 1-7.3646 0 3.6823 1.7816 0 1 1 7.3646 0z" style="enable-background:new;fill:url(#radialGradient3062)"/>
 <path id="path9770" d="m6.3343 11.09c1.1153-1.8378 7.2271-1.215 7.3339-0.059387-1.6871-0.082833-5.1149-0.043556-7.3339 0.059387z" style="enable-background:new;fill:url(#radialGradient3059)"/>
 <path id="path9776" d="m11.735 13.659a1.7031 0.69781 0 0 1-3.4061 0 1.7031 0.69781 0 1 1 3.4061 0z" style="enable-background:new;fill:url(#radialGradient3056)"/>
 <path id="path9778" d="m5.0915 11.342c-0.039228 0.14388-0.061371 0.28787-0.061371 0.43798 0 1.0137 1.0889 1.9303 2.1763 2.3247 1.3348 1.2051 4.5295 1.0026 5.8831-0.06021 1.0156-0.44757 1.9518-1.3438 1.9518-2.2645 0-0.15005-0.01451-0.29417-0.0537-0.43798-0.2838 1.0251-1.5299 1.8644-3.1913 2.2196v-0.0074c-0.77507-0.46587-2.829-0.48739-3.4675 0.02971v-0.0074c-1.6845-0.34948-2.9507-1.2001-3.2373-2.2345z" style="enable-background:new;fill:url(#linearGradient3053)"/>
 <path id="path9780" d="m14.5 11.242a4.4632 1.7281 0 1 1-8.9264 0 4.4632 1.7281 0 1 1 8.9264 0z" style="enable-background:new;fill:none;stroke:url(#radialGradient3050)"/>
 <path id="path11469" d="m38.839 21.098a10.088 10.435 0 0 1 1.6223 4.832" style="enable-background:new;fill:none;opacity:.80769;stroke:#2e3436"/>
</svg>
