<?xml version="1.0" encoding="utf-8"?><!-- Uploaded to: SVG Repo, www.svgrepo.com, Generator: SVG Repo Mixer Tools -->
<svg width="800px" height="800px" viewBox="0 0 24 24" fill="none" xmlns="http://www.w3.org/2000/svg">
<path fill-rule="evenodd" clip-rule="evenodd" d="M5.30798 10.1076C5.32119 9.93003 5.14351 9.80257 4.98917 9.89135C3.42339 10.792 2.84061 13.1129 3.46896 15.458C4.11514 17.8696 5.8216 19.4816 7.6834 19.3662C7.81555 19.3581 7.90693 19.2352 7.91347 19.1029C7.92892 18.7907 8.03031 18.446 8.06948 18.1558C8.17453 17.3776 7.97932 16.5981 7.52015 15.9624L5.91538 13.7403C5.39972 13.0263 5.15514 12.1621 5.22041 11.2847L5.30798 10.1076ZM9.70431 18.9966C9.71317 19.0126 9.73457 19.0043 9.75136 18.9968C11.516 18.2141 12.0948 15.7956 11.4326 13.3241C10.7969 10.9515 9.1362 9.35299 7.30865 9.41158C7.15177 9.41661 7.05238 9.58264 7.06451 9.73912C7.10073 10.2065 6.93151 10.8241 6.90173 11.2245C6.84832 11.9424 7.04843 12.6494 7.47034 13.2336L9.0751 15.4557C9.63631 16.2328 9.8749 17.1854 9.7465 18.1366C9.65887 18.7857 9.68126 18.9547 9.70431 18.9966Z" fill="#744A30" stroke="#2F2118"/>
<path fill-rule="evenodd" clip-rule="evenodd" d="M17.0946 5.01096C17.1948 4.86379 17.1047 4.66457 16.9266 4.66429C15.1203 4.66139 13.4551 6.37999 12.8268 8.725C12.1806 11.1366 12.8524 13.3859 14.5225 14.2169C14.641 14.2759 14.7816 14.2152 14.8534 14.1039C15.0229 13.8412 15.283 13.5934 15.462 13.3617C15.9421 12.7403 16.1628 11.9676 16.083 11.1874L15.8043 8.4607C15.7147 7.58452 15.935 6.71379 16.4302 5.98655L17.0946 5.01096ZM16.4575 14.9072C16.4571 14.9256 16.4798 14.929 16.4981 14.931C18.4177 15.1354 20.1282 13.3303 20.7904 10.8589C21.4262 8.48629 20.7872 6.27157 19.1752 5.40854C19.0369 5.33446 18.8678 5.42854 18.8 5.57013C18.5977 5.99296 18.1424 6.4432 17.9164 6.77508C17.5112 7.37009 17.331 8.0825 17.4042 8.79938L17.683 11.5261C17.7805 12.4797 17.5108 13.424 16.924 14.1835C16.5235 14.7019 16.4584 14.8594 16.4575 14.9072Z" fill="#744A30" stroke="#2F2118"/>
</svg>