<?xml version="1.0" encoding="UTF-8" standalone="no"?>
<svg
   xmlns:dc="http://purl.org/dc/elements/1.1/"
   xmlns:cc="http://creativecommons.org/ns#"
   xmlns:rdf="http://www.w3.org/1999/02/22-rdf-syntax-ns#"
   xmlns:svg="http://www.w3.org/2000/svg"
   xmlns="http://www.w3.org/2000/svg"
   xmlns:sodipodi="http://sodipodi.sourceforge.net/DTD/sodipodi-0.dtd"
   xmlns:inkscape="http://www.inkscape.org/namespaces/inkscape"
   height="16"
   width="16"
   version="1.1"
   id="svg6"
   sodipodi:docname="ct_cherries.svg"
   inkscape:version="1.0 (4035a4fb49, 2020-05-01)">
  <metadata
     id="metadata12">
    <rdf:RDF>
      <cc:Work
         rdf:about="">
        <dc:format>image/svg+xml</dc:format>
        <dc:type
           rdf:resource="http://purl.org/dc/dcmitype/StillImage" />
        <dc:title></dc:title>
      </cc:Work>
    </rdf:RDF>
  </metadata>
  <defs
     id="defs10">
    <linearGradient
       id="G5">
      <stop
         id="s9"
         style="stop-color:#000;stop-opacity:1"
         offset="0" />
      <stop
         id="s10"
         style="stop-color:#000;stop-opacity:0"
         offset="1" />
    </linearGradient>
    <linearGradient
       id="G4-0">
      <stop
         id="s7-3"
         style="stop-color:#d50f0f;stop-opacity:1"
         offset="0" />
      <stop
         id="s8-9"
         style="stop-color:#860000;stop-opacity:1"
         offset="1" />
    </linearGradient>
    <linearGradient
       id="G2-9">
      <stop
         id="s3-69"
         style="stop-color:#fff;stop-opacity:1"
         offset="0" />
      <stop
         id="s4-33"
         style="stop-color:#fff;stop-opacity:0"
         offset="1" />
    </linearGradient>
    <linearGradient
       id="G1-6-5-0">
      <stop
         id="s1-3-2"
         style="stop-color:#59a40f;stop-opacity:1"
         offset="0" />
      <stop
         id="s2-9-9"
         style="stop-color:#306102;stop-opacity:1"
         offset="1" />
    </linearGradient>
  </defs>
  <sodipodi:namedview
     inkscape:document-rotation="0"
     pagecolor="#ffffff"
     bordercolor="#666666"
     borderopacity="1"
     objecttolerance="10"
     gridtolerance="10"
     guidetolerance="10"
     inkscape:pageopacity="0"
     inkscape:pageshadow="2"
     inkscape:window-width="1366"
     inkscape:window-height="715"
     id="namedview8"
     showgrid="false"
     inkscape:zoom="15.369863"
     inkscape:cx="10.519374"
     inkscape:cy="7.7405473"
     inkscape:window-x="-8"
     inkscape:window-y="22"
     inkscape:window-maximized="1"
     inkscape:current-layer="svg6"
     inkscape:snap-global="false"
     showguides="true"
     inkscape:guide-bbox="true" />
  <g
     id="g1055"
     transform="matrix(1.5358913,0,0,1.5358913,-4.6422168,-2.8762787)"
     style="stroke-width:0.65108774">
    <g
       transform="translate(11.036554,3.061234)"
       style="stroke:#7a0000;stroke-opacity:1;stroke-width:0.65108774"
       id="g1018">
      <g
         style="stroke:#7a0000;stroke-opacity:1;stroke-width:5.38396984"
         id="cherry2-3"
         transform="matrix(0.1203468,0.00521202,-0.00532923,0.12128682,-8.3880628,-3.3438663)">
        <path
           style="fill:#c6262e;fill-opacity:1;stroke:#7a0000;stroke-width:5.38396984;stroke-opacity:1"
           id="p5-12"
           d="m 42.021325,38.735182 c -2.279722,6.288872 -8.636377,11.670921 -14.976424,9.411231 -6.70613,-0.642133 -10.13411,-8.200552 -9.485159,-14.85215 0.72889,-7.470957 6.639519,-10.416091 14.793381,-8.602451 8.153861,1.813641 12.228746,6.979824 9.668202,14.04337 z" />
        <path
           style="fill:none;stroke:#333333;stroke-width:5.38396984;stroke-opacity:1"
           id="p8-9"
           d="m 28.22429,26.01175 c -0.601384,3.336063 4.88838,5.213413 6.335518,2.000743" />
      </g>
      <path
         style="fill:#275100;fill-opacity:0.945098;stroke:#3a9104;stroke-width:0.65108774;stroke-linecap:round;stroke-opacity:1;stop-color:#000000"
         d="m -4.8335274,0.08055881 c 0.1452989,-0.3893675 0.4855397,-0.6981762 0.9667054,-1.08754371"
         id="path1009"
         sodipodi:nodetypes="cc" />
    </g>
    <path
       d="M 5.7842167,3.9403852 A 0.61154981,0.47042293 48.878523 0 1 5.0276488,3.7890717 0.61154981,0.47042293 48.878523 0 1 4.9798361,3.0190036 a 0.61154981,0.47042293 48.878523 0 1 0.756568,0.1513136 0.61154981,0.47042293 48.878523 0 1 0.047813,0.770068"
       style="opacity:1;fill:#ff8c82;fill-opacity:1;stroke:none;stroke-width:0.65108774;stroke-linecap:round;stroke-opacity:1;stop-color:#000000"
       id="path1046" />
  </g>
  <g
     id="g895"
     transform="matrix(1.5358913,0,0,1.5358913,1.2952832,6.5120023)"
     style="fill:#3a9104;fill-opacity:1;stroke-width:0.651088">
    <g
       transform="translate(11.036554,3.061234)"
       style="fill:#3a9104;fill-opacity:1;stroke:#7a0000;stroke-width:0.651088;stroke-opacity:1"
       id="g891">
      <g
         style="fill:#3a9104;fill-opacity:1;stroke:#7a0000;stroke-width:5.38397;stroke-opacity:1"
         id="g887"
         transform="matrix(0.1203468,0.00521202,-0.00532923,0.12128682,-8.3880628,-3.3438663)">
        <path
           style="fill:#c6262e;fill-opacity:1;stroke:#7a0000;stroke-width:5.38397;stroke-opacity:1"
           id="path883"
           d="m 42.021325,38.735182 c -2.279722,6.288872 -8.636377,11.670921 -14.976424,9.411231 -6.70613,-0.642133 -10.13411,-8.200552 -9.485159,-14.85215 0.72889,-7.470957 6.639519,-10.416091 14.793381,-8.602451 8.153861,1.813641 12.228746,6.979824 9.668202,14.04337 z" />
        <path
           style="fill:#3a9104;fill-opacity:1;stroke:#333333;stroke-width:5.38397;stroke-opacity:1"
           id="path885"
           d="m 28.22429,26.01175 c -0.601384,3.336063 4.88838,5.213413 6.335518,2.000743" />
      </g>
      <path
         style="fill:#3a9104;fill-opacity:1;stroke:#3a9104;stroke-width:0.651088;stroke-linecap:round;stroke-opacity:1;stop-color:#000000"
         d="m -4.8335274,0.08055881 c 0.1452989,-0.3893675 0.4855397,-0.6981762 0.9667054,-1.08754371"
         id="path889"
         sodipodi:nodetypes="cc" />
    </g>
    <path
       d="M 5.7842167,3.9403852 A 0.61154981,0.47042293 48.878523 0 1 5.0276488,3.7890717 0.61154981,0.47042293 48.878523 0 1 4.9798361,3.0190036 a 0.61154981,0.47042293 48.878523 0 1 0.756568,0.1513136 0.61154981,0.47042293 48.878523 0 1 0.047813,0.770068"
       style="opacity:1;fill:#ff8c82;fill-opacity:1;stroke:none;stroke-width:0.651088;stroke-linecap:round;stroke-opacity:1;stop-color:#000000"
       id="path893" />
  </g>
  <g
     style="fill:#3a9104;fill-opacity:1;stroke-width:0.651088"
     transform="matrix(1.5358913,0,0,1.5358913,1.2952832,-0.00849682)"
     id="g924">
    <g
       id="g920"
       style="fill:#3a9104;fill-opacity:1;stroke:#7a0000;stroke-width:0.651088;stroke-opacity:1"
       transform="translate(11.036554,3.061234)">
      <g
         transform="matrix(0.1203468,0.00521202,-0.00532923,0.12128682,-8.3880628,-3.3438663)"
         id="g916"
         style="fill:#3a9104;fill-opacity:1;stroke:#7a0000;stroke-width:5.38397;stroke-opacity:1">
        <path
           d="m 42.021325,38.735182 c -2.279722,6.288872 -8.636377,11.670921 -14.976424,9.411231 -6.70613,-0.642133 -10.13411,-8.200552 -9.485159,-14.85215 0.72889,-7.470957 6.639519,-10.416091 14.793381,-8.602451 8.153861,1.813641 12.228746,6.979824 9.668202,14.04337 z"
           id="path912"
           style="fill:#3a9104;fill-opacity:1;stroke:#206b00;stroke-width:5.38397;stroke-opacity:1" />
        <path
           d="m 28.22429,26.01175 c -0.601384,3.336063 4.88838,5.213413 6.335518,2.000743"
           id="path914"
           style="fill:#3a9104;fill-opacity:1;stroke:#333333;stroke-width:5.38397;stroke-opacity:1" />
      </g>
      <path
         sodipodi:nodetypes="cc"
         id="path918"
         d="m -4.8335274,0.08055881 c 0.1452989,-0.3893675 0.4855397,-0.6981762 0.9667054,-1.08754371"
         style="fill:#3a9104;fill-opacity:1;stroke:#3a9104;stroke-width:0.651088;stroke-linecap:round;stroke-opacity:1;stop-color:#000000" />
    </g>
    <path
       id="path922"
       style="opacity:1;fill:#d1ff82;fill-opacity:1;stroke:none;stroke-width:0.651088;stroke-linecap:round;stroke-opacity:1;stop-color:#000000"
       d="M 5.7842167,3.9403852 A 0.61154981,0.47042293 48.878523 0 1 5.0276488,3.7890717 0.61154981,0.47042293 48.878523 0 1 4.9798361,3.0190036 a 0.61154981,0.47042293 48.878523 0 1 0.756568,0.1513136 0.61154981,0.47042293 48.878523 0 1 0.047813,0.770068" />
  </g>
</svg>
