<?xml version="1.0" encoding="utf-8"?><!-- Uploaded to: SVG Repo, www.svgrepo.com, Generator: SVG Repo Mixer Tools -->
<svg width="800px" height="800px" viewBox="0 0 512 512" xmlns="http://www.w3.org/2000/svg" xmlns:xlink="http://www.w3.org/1999/xlink" aria-hidden="true" role="img" class="iconify iconify--fxemoji" preserveAspectRatio="xMidYMid meet"><path fill="#8F9799" d="M345.744 12.715h-40.098a7.2 7.2 0 0 0-7.2 7.2v6.956a7.2 7.2 0 0 0 7.2 7.2h40.098a7.2 7.2 0 0 0 7.2-7.2v-6.956a7.2 7.2 0 0 0-7.2-7.2z"></path><path fill="#464A4C" d="M391.564 49.674V469.81c0 15.906-12.894 28.8-28.8 28.8H149.236c-15.906 0-28.8-12.894-28.8-28.8V49.674c0-15.906 12.894-28.8 28.8-28.8h213.528c15.906 0 28.8 12.894 28.8 28.8z"></path><path fill="#CAD6D8" d="M371.645 67.215v349.969c0 7.953-6.447 14.4-14.4 14.4h-202.49c-7.953 0-14.4-6.447-14.4-14.4V67.215c0-7.953 6.447-14.4 14.4-14.4h202.49c7.953 0 14.4 6.447 14.4 14.4z"></path><path fill="#F4F9F9" d="M140.355 340.662V65.235c0-6.86 5.827-12.42 13.016-12.42h157.322L140.355 340.662z"></path><path fill="#8F9799" d="M235.283 478.024h41.434c7.158 0 12.96-5.802 12.96-12.96v-.474c0-7.158-5.802-12.96-12.96-12.96h-41.434c-7.158 0-12.96 5.802-12.96 12.96v.474c0 7.158 5.802 12.96 12.96 12.96z"></path></svg>