<?xml version="1.0" encoding="UTF-8" standalone="no"?>
<svg
   xmlns:dc="http://purl.org/dc/elements/1.1/"
   xmlns:cc="http://creativecommons.org/ns#"
   xmlns:rdf="http://www.w3.org/1999/02/22-rdf-syntax-ns#"
   xmlns:svg="http://www.w3.org/2000/svg"
   xmlns="http://www.w3.org/2000/svg"
   xmlns:xlink="http://www.w3.org/1999/xlink"
   xmlns:sodipodi="http://sodipodi.sourceforge.net/DTD/sodipodi-0.dtd"
   xmlns:inkscape="http://www.inkscape.org/namespaces/inkscape"
   id="svg3810"
   height="16"
   width="16"
   version="1.1"
   sodipodi:docname="ct_codebox_edit.svg"
   inkscape:version="1.0 (4035a4fb49, 2020-05-01)">
  <sodipodi:namedview
     inkscape:document-rotation="0"
     pagecolor="#ffffff"
     bordercolor="#666666"
     borderopacity="1"
     objecttolerance="10"
     gridtolerance="10"
     guidetolerance="10"
     inkscape:pageopacity="0"
     inkscape:pageshadow="2"
     inkscape:window-width="1366"
     inkscape:window-height="715"
     id="namedview28"
     showgrid="true"
     inkscape:zoom="15.00822"
     inkscape:cx="1.6206904"
     inkscape:cy="8.4259022"
     inkscape:window-x="-8"
     inkscape:window-y="22"
     inkscape:window-maximized="1"
     inkscape:current-layer="svg3810">
    <inkscape:grid
       id="grid862"
       type="xygrid" />
  </sodipodi:namedview>
  <defs
     id="defs3812">
    <linearGradient
       id="linearGradient875">
      <stop
         style="stop-color:#cc3b02;stop-opacity:1"
         offset="0"
         id="stop871" />
      <stop
         style="stop-color:#f37329;stop-opacity:1"
         offset="1"
         id="stop873" />
    </linearGradient>
    <linearGradient
       gradientTransform="matrix(0.24324324,0,0,0.2162162,2.1621637,3.8108135)"
       gradientUnits="userSpaceOnUse"
       xlink:href="#linearGradient3977"
       id="linearGradient3988"
       y2="41.076912"
       x2="23.99999"
       y1="6.9230647"
       x1="23.99999" />
    <linearGradient
       id="linearGradient3977">
      <stop
         offset="0"
         style="stop-color:#ffffff;stop-opacity:1"
         id="stop3979" />
      <stop
         offset="0"
         style="stop-color:#ffffff;stop-opacity:0.23529412"
         id="stop3981" />
      <stop
         offset="1"
         style="stop-color:#ffffff;stop-opacity:0.15686275"
         id="stop3983" />
      <stop
         offset="1"
         style="stop-color:#ffffff;stop-opacity:0.39215687"
         id="stop3985" />
    </linearGradient>
    <linearGradient
       id="linearGradient3600">
      <stop
         offset="0"
         style="stop-color:#f4f4f4;stop-opacity:1"
         id="stop3602" />
      <stop
         offset="1"
         style="stop-color:#dbdbdb;stop-opacity:1"
         id="stop3604" />
    </linearGradient>
    <linearGradient
       gradientTransform="matrix(0.28571361,0,0,0.17382686,1.1428731,4.5614882)"
       gradientUnits="userSpaceOnUse"
       xlink:href="#linearGradient3600"
       id="linearGradient3806"
       y2="47.013336"
       x2="25.132275"
       y1="0.98520643"
       x1="25.132275" />
    <linearGradient
       id="linearGradient3104-9">
      <stop
         offset="0"
         style="stop-color:#000000;stop-opacity:0.33950618"
         id="stop3106-5" />
      <stop
         offset="1"
         style="stop-color:#000000;stop-opacity:0.24691358"
         id="stop3108-5" />
    </linearGradient>
    <linearGradient
       gradientTransform="matrix(0.25378586,0,0,0.30501865,19.128979,-0.68547704)"
       gradientUnits="userSpaceOnUse"
       xlink:href="#linearGradient3104-9"
       id="linearGradient3019"
       y2="2.9062471"
       x2="-51.786404"
       y1="50.786446"
       x1="-51.786404" />
    <linearGradient
       gradientTransform="translate(0,2)"
       xlink:href="#linearGradient875"
       id="linearGradient877"
       x1="7.5957031"
       y1="14.844112"
       x2="7.5957031"
       y2="4.9876151"
       gradientUnits="userSpaceOnUse" />
    <linearGradient
       y2="24.282389"
       x2="24.453047"
       y1="24.282389"
       x1="46.301373"
       gradientTransform="matrix(-0.36363758,0,0,0.36306836,24.409136,3.1620029)"
       gradientUnits="userSpaceOnUse"
       id="linearGradient1434-8"
       xlink:href="#linearGradient4382" />
    <linearGradient
       id="linearGradient4382">
      <stop
         offset="0"
         style="stop-color:#64baff;stop-opacity:1"
         id="stop4384" />
      <stop
         offset="1"
         style="stop-color:#3689e6;stop-opacity:1"
         id="stop4386" />
    </linearGradient>
    <linearGradient
       gradientTransform="matrix(0,-0.32595359,0.35063868,0,-8.4308303,21.968285)"
       gradientUnits="userSpaceOnUse"
       xlink:href="#linearGradient3977"
       id="linearGradient3149-7-7-8"
       y2="61.119415"
       x2="32.095264"
       y1="49.711662"
       x1="32.095264" />
    <linearGradient
       xlink:href="#linearGradient899"
       id="linearGradient1434-8-7"
       gradientUnits="userSpaceOnUse"
       gradientTransform="matrix(0.36363758,0,0,0.36306836,-1.4091346,-4.9398152)"
       x1="46.301373"
       y1="24.282389"
       x2="24.453047"
       y2="24.282389" />
    <linearGradient
       id="linearGradient899">
      <stop
         style="stop-color:#cd9ef7;stop-opacity:1"
         offset="0"
         id="stop895" />
      <stop
         style="stop-color:#a56de2;stop-opacity:1"
         offset="1"
         id="stop897" />
    </linearGradient>
    <linearGradient
       x1="32.095264"
       y1="49.711662"
       x2="32.095264"
       y2="61.119415"
       id="linearGradient3149-7-7-8-7"
       xlink:href="#linearGradient3977"
       gradientUnits="userSpaceOnUse"
       gradientTransform="matrix(0,-0.32595359,-0.35063868,0,31.430831,13.866467)" />
    <linearGradient
       spreadMethod="pad"
       gradientTransform="matrix(0.415777,-0.4174938,0.518983,0.5146192,-23.401349,8.3374569)"
       gradientUnits="userSpaceOnUse"
       xlink:href="#linearGradient902"
       id="linearGradient8639"
       y2="31.210939"
       x2="23.575972"
       y1="25.356892"
       x1="23.575972" />
    <linearGradient
       id="linearGradient902">
      <stop
         id="stop886"
         style="stop-color:#ad5f00;stop-opacity:1"
         offset="0" />
      <stop
         id="stop888"
         style="stop-color:#ffe16b;stop-opacity:1"
         offset="0.13482948" />
      <stop
         id="stop890"
         style="stop-color:#f9c440;stop-opacity:1"
         offset="0.20224422" />
      <stop
         id="stop892"
         style="stop-color:#fff394;stop-opacity:1"
         offset="0.26965895" />
      <stop
         id="stop894"
         style="stop-color:#f9c440;stop-opacity:1"
         offset="0.44650277" />
      <stop
         id="stop896"
         style="stop-color:#f9c440;stop-opacity:1"
         offset="0.57114136" />
      <stop
         id="stop898"
         style="stop-color:#ffe16b;stop-opacity:1"
         offset="0.72038066" />
      <stop
         id="stop900"
         style="stop-color:#ad5f00;stop-opacity:1"
         offset="1" />
    </linearGradient>
    <linearGradient
       spreadMethod="pad"
       y2="31.210939"
       x2="23.575972"
       y1="25.356892"
       x1="23.575972"
       gradientTransform="matrix(0.4282553,-0.43106531,0.53455872,0.53134798,-24.120443,8.0869581)"
       gradientUnits="userSpaceOnUse"
       id="linearGradient881"
       xlink:href="#linearGradient3155-40" />
    <linearGradient
       id="linearGradient3155-40">
      <stop
         offset="0"
         style="stop-color:#555761;stop-opacity:1"
         id="stop2541" />
      <stop
         offset="0.13482948"
         style="stop-color:#d4d4d4;stop-opacity:1"
         id="stop2543" />
      <stop
         offset="0.20224422"
         style="stop-color:#abacae;stop-opacity:1"
         id="stop2545" />
      <stop
         offset="0.26965895"
         style="stop-color:#fafafa;stop-opacity:1"
         id="stop2547" />
      <stop
         offset="0.44650277"
         style="stop-color:#abacae;stop-opacity:1"
         id="stop2549" />
      <stop
         offset="0.57114136"
         style="stop-color:#abacae;stop-opacity:1"
         id="stop2551" />
      <stop
         offset="0.72038066"
         style="stop-color:#d4d4d4;stop-opacity:1"
         id="stop2553" />
      <stop
         offset="1"
         style="stop-color:#555761;stop-opacity:1"
         id="stop2555" />
    </linearGradient>
    <linearGradient
       gradientTransform="matrix(0.4040235,-0.4056919,0.6073752,0.6022679,-25.521886,6.3801168)"
       gradientUnits="userSpaceOnUse"
       xlink:href="#linearGradient3240-279"
       id="linearGradient8641"
       y2="30.000141"
       x2="30.037716"
       y1="24.989594"
       x1="30.037716" />
    <linearGradient
       id="linearGradient3240-279">
      <stop
         offset="0"
         style="stop-color:#555761;stop-opacity:1"
         id="stop2559" />
      <stop
         offset="0.5"
         style="stop-color:#abacae;stop-opacity:1"
         id="stop2561" />
      <stop
         offset="1"
         style="stop-color:#555761;stop-opacity:1"
         id="stop2563" />
    </linearGradient>
    <linearGradient
       gradientTransform="matrix(0.4040235,-0.4056919,0.6073752,0.6022679,-25.637594,6.4963022)"
       gradientUnits="userSpaceOnUse"
       xlink:href="#linearGradient3223-789"
       id="linearGradient8643"
       y2="30.000141"
       x2="30.037716"
       y1="24.989594"
       x1="30.037716" />
    <linearGradient
       id="linearGradient3223-789">
      <stop
         offset="0"
         style="stop-color:#abacae;stop-opacity:1"
         id="stop2567" />
      <stop
         offset="0.5"
         style="stop-color:#fafafa;stop-opacity:1"
         id="stop2569" />
      <stop
         offset="1"
         style="stop-color:#abacae;stop-opacity:1"
         id="stop2571" />
    </linearGradient>
    <linearGradient
       gradientTransform="matrix(0.4040235,-0.4056919,0.6073752,0.6022679,-25.119806,5.9763764)"
       gradientUnits="userSpaceOnUse"
       xlink:href="#linearGradient3240-279"
       id="linearGradient8645"
       y2="30.000141"
       x2="30.037716"
       y1="24.989594"
       x1="30.037716" />
    <linearGradient
       gradientTransform="matrix(0.4040235,-0.4056919,0.6073752,0.6022679,-25.235514,6.0925603)"
       gradientUnits="userSpaceOnUse"
       xlink:href="#linearGradient3223-789"
       id="linearGradient8647"
       y2="30.000141"
       x2="30.037716"
       y1="24.989594"
       x1="30.037716" />
    <linearGradient
       gradientTransform="matrix(0.4040235,-0.4056919,0.6073752,0.6022679,-24.715783,5.570684)"
       gradientUnits="userSpaceOnUse"
       xlink:href="#linearGradient3240-279"
       id="linearGradient8649"
       y2="30.000141"
       x2="30.037716"
       y1="24.989594"
       x1="30.037716" />
    <linearGradient
       gradientTransform="matrix(0.4040235,-0.4056919,0.6073752,0.6022679,-24.831491,5.6868699)"
       gradientUnits="userSpaceOnUse"
       xlink:href="#linearGradient3223-789"
       id="linearGradient8651"
       y2="30.000141"
       x2="30.037716"
       y1="24.989594"
       x1="30.037716" />
    <linearGradient
       gradientTransform="matrix(0.4040235,-0.4056919,0.6073752,0.602268,-25.290814,6.1495816)"
       gradientUnits="userSpaceOnUse"
       xlink:href="#linearGradient3290-678"
       id="linearGradient8653"
       y2="26.02973"
       x2="9"
       y1="29.056757"
       x1="9" />
    <linearGradient
       id="linearGradient3290-678">
      <stop
         offset="0"
         style="stop-color:#fff394;stop-opacity:1"
         id="stop2607" />
      <stop
         offset="1"
         style="stop-color:#fafafa;stop-opacity:1"
         id="stop2609" />
    </linearGradient>
    <linearGradient
       gradientTransform="matrix(0.3763801,0.03615261,0.03669995,0.374874,-9.8724022,4.5539894)"
       gradientUnits="userSpaceOnUse"
       xlink:href="#linearGradient3191-577"
       id="linearGradient8655"
       y2="41.391716"
       x2="9.5220556"
       y1="37.371799"
       x1="5.5178981" />
    <linearGradient
       id="linearGradient3191-577">
      <stop
         offset="0"
         style="stop-color:#d48e15;stop-opacity:1"
         id="stop2613" />
      <stop
         offset="1"
         style="stop-color:#ad5f00;stop-opacity:1"
         id="stop2615" />
    </linearGradient>
  </defs>
  <metadata
     id="metadata3815">
    <rdf:RDF>
      <cc:Work
         rdf:about="">
        <dc:format>image/svg+xml</dc:format>
        <dc:type
           rdf:resource="http://purl.org/dc/dcmitype/StillImage" />
        <dc:title></dc:title>
      </cc:Work>
    </rdf:RDF>
  </metadata>
  <rect
     y="4"
     x="1"
     height="10"
     width="14"
     id="rect864"
     style="opacity:1;fill:#666666;fill-opacity:0.971631;stroke-width:2;stroke-linecap:round;stop-color:#000000" />
  <path
     d="m 2,5 c 2.7383794,0 11.950109,5.088e-4 11.950109,5.088e-4 L 13.950123,13 C 13.950123,13 5.9833741,13 2,13 2,10.333333 2,7.6666665 2,5 Z"
     id="path4160"
     style="display:inline;fill:url(#linearGradient3806);fill-opacity:1;stroke:none;stroke-width:0.755929" />
  <path
     style="color:#bebebe;opacity:1;isolation:auto;mix-blend-mode:normal;fill:url(#linearGradient877);fill-opacity:1;stroke-width:0.65463;marker:none"
     d="M 8.4042969,5.9870361 6.6953125,11.987049 H 7.5957031 L 9.3046875,5.9870361 Z m -2.4042969,1 -2,1.25 V 9.7370454 L 6,10.987049 V 9.9870487 L 4.5,8.9889891 6,7.9870361 Z m 4,0 v 1 L 11.5,8.9889891 10,9.9870487 V 10.987049 L 12,9.7370454 V 8.2370361 Z"
     id="path848" />
  <g
     transform="translate(8.0597194,-5.906849)"
     id="g1043">
    <g
       id="g8626"
       transform="matrix(1.030012,0,0,1.0325071,-0.016773,-0.52152502)">
      <path
         style="fill:url(#linearGradient8639);fill-opacity:1;stroke:none;stroke-width:0.484844;stroke-linecap:butt;stroke-linejoin:round;stroke-miterlimit:4;stroke-dasharray:none;stroke-dashoffset:0;stroke-opacity:1"
         id="rect2383"
         d="m 2.0488085,11.037368 c 0.2865424,-0.207707 1.1479509,0.256388 1.9603385,1.061945 0.8104458,0.803629 1.2601996,1.641331 1.0575577,1.930575 -7.708e-4,0.0011 0.01977,0.01774 0.01898,0.01882 L 15.224149,3.8683779 C 15.481557,3.6099071 15.011041,2.7247557 14.172862,1.893626 13.334685,1.0624962 12.444681,0.59856571 12.187272,0.85703737 Z" />
      <path
         style="opacity:0.6;fill:#f9c440;fill-opacity:1;stroke:none"
         id="path3208"
         d="m 2.0488079,11.037368 c 0.286543,-0.207708 1.1479512,0.256388 1.960339,1.061943 0.8104449,0.80363 1.2601992,1.641332 1.0575579,1.930577 -7.714e-4,0.0011 0.01977,0.01774 0.01898,0.01882 l 6.9820302,-7.0108637 0.02525,-0.025356 c 7.9e-4,-0.00108 -0.01975,-0.01772 -0.01898,-0.01882 C 12.276628,6.7044221 11.826873,5.8667226 11.01643,5.0630931 10.204041,4.2575368 9.3426319,3.7934425 9.0560897,4.0011493 l -0.025251,0.025355 z" />
      <path
         d="m 2.0488085,11.037368 c 0.2865424,-0.207707 1.1479509,0.256388 1.9603385,1.061945 0.8104458,0.803629 1.2601996,1.641331 1.0575577,1.930575 -7.708e-4,0.0011 0.01977,0.01774 0.01898,0.01882 L 15.224149,3.8683779 C 15.481557,3.6099071 15.011041,2.7247557 14.172862,1.893626 13.334685,1.0624962 12.444681,0.59856571 12.187272,0.85703737 Z"
         id="path884"
         style="fill:none;fill-opacity:1;stroke:#ad5f00;stroke-width:0.484844;stroke-linecap:butt;stroke-linejoin:round;stroke-miterlimit:4;stroke-dasharray:none;stroke-dashoffset:0;stroke-opacity:1" />
      <path
         id="path877"
         transform="matrix(0.97086248,0,0,0.96851634,0.01628428,0.50510587)"
         d="m 12.664062,0.296875 c -0.05213,0.0107666 -0.09381,0.033047 -0.126953,0.0664063 L 9.3125,3.609375 c 0.2965301,-0.2119541 1.182118,0.2672165 2.017578,1.0976562 0.834766,0.8297532 1.298569,1.6935388 1.089844,1.9921876 -7.93e-4,0.00114 0.02035,0.018416 0.01953,0.019531 l 3.22461,-3.2460936 C 15.929196,3.2057833 15.445366,2.2917411 14.582031,1.4335938 13.826615,0.68271476 13.02895,0.22150867 12.664062,0.296875 Z"
         style="fill:url(#linearGradient881);fill-opacity:1;stroke:#555761;stroke-width:0.5;stroke-linecap:butt;stroke-linejoin:round;stroke-miterlimit:4;stroke-dasharray:none;stroke-dashoffset:0;stroke-opacity:1" />
      <path
         style="opacity:0.9;fill:#fe9ab8;fill-opacity:1;stroke:#de3e80;stroke-width:0.484844;stroke-linecap:butt;stroke-linejoin:round;stroke-miterlimit:4;stroke-dasharray:none;stroke-dashoffset:0;stroke-opacity:1"
         id="rect3175"
         d="m 10.565423,2.4840909 c 0.286542,-0.2077065 1.147951,0.2563879 1.960338,1.0619443 0.810445,0.8036291 1.260199,1.6413295 1.057557,1.9305744 -7.69e-4,0.0011 0.01977,0.017738 0.01898,0.018821 L 15.154234,3.9383089 C 15.562715,3.5297289 15.124956,2.8454879 14.172862,1.893626 13.360476,1.0880699 12.499066,0.6239749 12.212525,0.83168148 l -0.02525,0.0253559 -1.621849,1.62705352 z" />
      <path
         style="fill:url(#linearGradient8641);fill-opacity:1;stroke:none"
         id="path3233"
         d="m 9.1785348,3.8767048 c 0.2865413,-0.2077068 1.1479522,0.2563879 1.9603392,1.0619443 0.810445,0.8036291 1.2602,1.6413294 1.057556,1.9305753 -7.71e-4,0.0011 0.01977,0.017736 0.01898,0.01882 l 0.126256,-0.1267795 c 7.9e-4,-0.00108 -0.01975,-0.01772 -0.01898,-0.01882 C 12.525331,6.4531992 12.075576,5.6154986 11.26513,4.8118704 10.452743,4.0063135 9.5913335,3.542219 9.3047918,3.7499256 Z" />
      <path
         style="fill:url(#linearGradient8643);fill-opacity:1;stroke:none"
         id="path3216"
         d="m 9.0628273,3.9928895 c 0.2865436,-0.2077068 1.1479527,0.2563878 1.9603397,1.061944 0.810444,0.8036294 1.2602,1.6413292 1.057556,1.9305742 -7.71e-4,0.0011 0.01977,0.017738 0.01898,0.018822 L 12.22596,6.8774498 c 7.9e-4,-0.00108 -0.01975,-0.017721 -0.01898,-0.018821 C 12.409623,6.569384 11.95987,5.7316836 11.149423,4.9280545 10.337036,4.1224982 9.4756273,3.6584033 9.1890844,3.8661101 Z" />
      <path
         style="fill:url(#linearGradient8645);fill-opacity:1;stroke:none"
         id="path3248"
         d="m 9.5806143,3.4729643 c 0.2865426,-0.2077069 1.1479517,0.2563872 1.9603387,1.0619442 0.810446,0.803629 1.2602,1.6413292 1.057558,1.9305747 -7.73e-4,0.0011 0.01977,0.017737 0.01898,0.01882 l 0.126258,-0.1267784 c 7.91e-4,-0.00108 -0.01975,-0.017721 -0.01898,-0.01882 C 12.927411,6.0494594 12.477656,5.2117588 11.66721,4.4081298 10.854824,3.6025731 9.9934151,3.1384786 9.7068717,3.3461854 Z" />
      <path
         style="fill:url(#linearGradient8647);fill-opacity:1;stroke:none"
         id="path3250"
         d="m 9.4649071,3.5891488 c 0.2865435,-0.207707 1.1479529,0.2563877 1.9603379,1.061944 0.810447,0.8036298 1.260201,1.6413294 1.057558,1.9305748 -7.69e-4,0.0011 0.01977,0.017737 0.01898,0.018821 l 0.126257,-0.12678 c 7.9e-4,-0.00108 -0.01975,-0.01772 -0.01898,-0.01882 C 12.811705,6.1656438 12.361949,5.3279425 11.551504,4.5243147 10.739118,3.718758 9.877708,3.254663 9.5911645,3.46237 Z" />
      <path
         style="fill:url(#linearGradient8649);fill-opacity:1;stroke:none"
         id="path3256"
         d="M 9.9846388,3.0672723 C 10.27118,2.8595657 11.13259,3.3236601 11.944976,4.1292168 c 0.810446,0.8036288 1.260201,1.641329 1.057558,1.9305741 -7.7e-4,0.0011 0.01977,0.017738 0.01898,0.018821 L 13.14777,5.9518328 c 7.92e-4,-0.00108 -0.01975,-0.017721 -0.01898,-0.018821 C 13.331434,5.6437674 12.881679,4.8060668 12.071233,4.0024374 11.258848,3.1968815 10.397438,2.7327869 10.110895,2.9404937 Z" />
      <path
         style="fill:url(#linearGradient8651);fill-opacity:1;stroke:none"
         id="path3258"
         d="m 9.8689318,3.1834569 c 0.2865412,-0.2077072 1.1479512,0.2563879 1.9603392,1.0619447 0.810444,0.8036283 1.260198,1.6413291 1.057556,1.9305739 -7.71e-4,0.0011 0.01977,0.017737 0.01898,0.018821 l 0.126258,-0.1267782 c 7.89e-4,-0.00108 -0.01975,-0.017722 -0.01898,-0.018821 C 13.215727,5.7599515 12.765972,4.9222512 11.955527,4.1186224 11.143141,3.313066 10.281731,2.848971 9.9951884,3.0566783 Z" />
      <path
         style="fill:url(#linearGradient8653);fill-opacity:1;fill-rule:evenodd;stroke:url(#linearGradient8655);stroke-width:0.484844;stroke-linecap:butt;stroke-linejoin:miter;stroke-miterlimit:4;stroke-dasharray:none;stroke-opacity:1"
         id="path3270"
         d="m 0.25980529,15.79419 4.77185621,-1.725488 0.039308,-0.03926 C 5.2736124,13.740202 4.8185731,12.902156 4.0081274,12.098526 3.1957395,11.29297 2.335449,10.831246 2.0489062,11.038953 Z" />
      <path
         style="fill:#333333;fill-opacity:1;fill-rule:evenodd;stroke:#1a1a1a;stroke-width:0.484844;stroke-linecap:butt;stroke-linejoin:miter;stroke-miterlimit:4;stroke-dasharray:none;stroke-opacity:1"
         id="path3281"
         d="M 0.7444326,14.506276 0.25922075,15.788967 1.560593,15.315574 C 1.446907,15.182439 1.3413094,15.047739 1.2062351,14.913801 1.0507282,14.759602 0.89915498,14.633134 0.7444326,14.506276 Z" />
    </g>
  </g>
</svg>
