<?xml version="1.0" encoding="utf-8"?>
<!-- Uploaded to: SVG Repo, www.svgrepo.com, Generator: SVG Repo Mixer Tools -->
<svg width="800px" height="800px" viewBox="0 0 1024 1024" class="icon"  version="1.1" xmlns="http://www.w3.org/2000/svg"><path d="M511.201248 512l-167.737909 236.430577h121.410296v226.845554h97.447738V748.430577h115.020281z" fill="#F2385A" /><path d="M853.067083 310.714509h-75.082684v-15.975039c0-3.195008-1.597504-46.327613-31.950078-76.680188-9.585023-9.585023-22.365055-17.572543-38.340093-23.962558-57.51014-20.767551-103.837754 0-103.837754 0l-15.975039 6.390015v-1.597503l-6.390015-14.377536c-31.950078-83.070203-110.227769-135.787832-199.687988-135.787831-7.98752 0-14.377535 0-22.365054 1.597504-107.032761 11.182527-191.700468 102.24025-193.297972 212.468019 0 9.585023 1.597504 19.170047 3.195007 30.352574l1.597504 15.975039-15.975039 1.597504c-3.195008 0-6.390016 1.597504-9.585023 1.597503H140.580343c-62.302652 14.377535-108.630265 70.290172-108.630265 135.787832V478.452418c0 76.680187 62.302652 138.982839 138.982839 138.982839H399.375975l111.825273-159.75039 111.825273 159.75039h228.443058c76.680187 0 138.982839-62.302652 138.982839-138.982839h1.597504v-28.75507c0-25.560062-6.390016-47.925117-17.572543-68.692668-23.962559-41.535101-68.692668-70.290172-121.410296-70.290171z" fill="#9DE8F7" /><path d="M851.469579 277.166927H806.73947c-4.792512-28.75507-20.767551-89.460218-89.460219-113.422777-49.522621-17.572543-91.057722-9.585023-111.825273-4.792512-41.535101-87.862715-127.800312-142.177847-223.650546-142.177847C246.015601 16.773791 135.787832 125.404056 135.787832 261.191888c0 6.390016 0 12.780031 1.597503 19.170046-79.875195 15.975039-137.385335 84.667707-137.385335 166.140406v30.352574c0 94.25273 76.680187 170.932917 170.932917 170.932918h206.078003l-92.655226 132.592823h150.165367v226.845554h161.347894V780.380655h143.775351L646.98908 647.787832h206.078003c94.25273 0 170.932917-76.680187 170.932917-170.932918v-30.352574c-1.597504-94.25273-78.277691-169.335413-172.530421-169.335413z m140.580343 201.285491h-1.597504c0 76.680187-62.302652 138.982839-138.982839 138.982839H623.026521l-111.825273-159.75039-111.825273 159.75039H170.932917C94.25273 617.435257 31.950078 555.132605 31.950078 478.452418V448.099844c0-65.49766 46.327613-121.410296 108.630265-135.787832H145.372855c3.195008 0 6.390016-1.597504 9.585023-1.597503l15.975039-1.597504-1.597504-15.975039c-1.597504-11.182527-3.195008-20.767551-3.195007-30.352574C167.73791 152.561622 252.405616 61.5039 359.438378 50.321373c7.98752-1.597504 14.377535-1.597504 22.365054-1.597504 89.460218 0 167.73791 52.717629 199.687988 135.787831l6.390015 14.377536v1.597503l15.975039-6.390015s46.327613-20.767551 103.837754 0c15.975039 6.390016 28.75507 14.377535 38.340093 23.962558 30.352574 30.352574 31.950078 73.485179 31.950078 76.680188v15.975039h75.082684c52.717629 0 97.447738 28.75507 121.410296 70.290171 11.182527 20.767551 17.572543 43.132605 17.572543 68.692668v28.75507zM677.341654 748.430577h-115.020281v226.845554h-97.447738V748.430577H343.463339l167.737909-236.430577 166.140406 236.430577z" fill="" /></svg>