<?xml version="1.0" encoding="UTF-8" standalone="no"?>
<!-- Created with Inkscape (http://www.inkscape.org/) -->

<svg
   xmlns:dc="http://purl.org/dc/elements/1.1/"
   xmlns:cc="http://creativecommons.org/ns#"
   xmlns:rdf="http://www.w3.org/1999/02/22-rdf-syntax-ns#"
   xmlns:svg="http://www.w3.org/2000/svg"
   xmlns="http://www.w3.org/2000/svg"
   xmlns:xlink="http://www.w3.org/1999/xlink"
   xmlns:sodipodi="http://sodipodi.sourceforge.net/DTD/sodipodi-0.dtd"
   xmlns:inkscape="http://www.inkscape.org/namespaces/inkscape"
   id="svg1"
   sodipodi:docname="codebox_edit.svg"
   viewBox="0 0 60 60"
   sodipodi:version="0.32"
   version="1.0"
   y="0"
   x="0"
   inkscape:version="0.91 r13725">
  <defs
     id="defs12">
    <linearGradient
       id="linearGradient2378">
      <stop
         id="stop2380"
         offset="0"
         style="stop-color:#ffffff;stop-opacity:1;" />
      <stop
         style="stop-color:#fefede;stop-opacity:0.91836733;"
         offset="0.25"
         id="stop4146" />
      <stop
         style="stop-color:#f5f328;stop-opacity:1;"
         offset="0.5"
         id="stop2386" />
      <stop
         id="stop2382"
         offset="1"
         style="stop-color:#f5f32d;stop-opacity:0.12234043;" />
    </linearGradient>
    <linearGradient
       inkscape:collect="always"
       xlink:href="#linearGradient3331"
       id="linearGradient3559"
       gradientUnits="userSpaceOnUse"
       x1="35.197689"
       y1="46.093544"
       x2="33.665684"
       y2="50.415848" />
    <linearGradient
       inkscape:collect="always"
       id="linearGradient3331">
      <stop
         style="stop-color:#d3d7cf;stop-opacity:1;"
         offset="0"
         id="stop3333" />
      <stop
         style="stop-color:#d3d7cf;stop-opacity:0;"
         offset="1"
         id="stop3335" />
    </linearGradient>
    <linearGradient
       inkscape:collect="always"
       xlink:href="#linearGradient3355"
       id="linearGradient3561"
       gradientUnits="userSpaceOnUse"
       x1="38.045502"
       y1="44.886215"
       x2="33.233128"
       y2="51.470303" />
    <linearGradient
       id="linearGradient3355">
      <stop
         id="stop3357"
         offset="0"
         style="stop-color:#6f716c;stop-opacity:1;" />
      <stop
         id="stop3359"
         offset="1"
         style="stop-color:#888a85;stop-opacity:0;" />
    </linearGradient>
    <linearGradient
       inkscape:collect="always"
       xlink:href="#linearGradient3315"
       id="linearGradient3563"
       gradientUnits="userSpaceOnUse"
       x1="33.358002"
       y1="37.386215"
       x2="33.358002"
       y2="52.806263" />
    <linearGradient
       inkscape:collect="always"
       id="linearGradient3315">
      <stop
         style="stop-color:white;stop-opacity:1;"
         offset="0"
         id="stop3317" />
      <stop
         style="stop-color:white;stop-opacity:0;"
         offset="1"
         id="stop3319" />
    </linearGradient>
    <linearGradient
       inkscape:collect="always"
       xlink:href="#linearGradient3307"
       id="linearGradient3565"
       gradientUnits="userSpaceOnUse"
       x1="36.201752"
       y1="37.667465"
       x2="30.034962"
       y2="41.842426" />
    <linearGradient
       inkscape:collect="always"
       id="linearGradient3307">
      <stop
         style="stop-color:#888a85;stop-opacity:1;"
         offset="0"
         id="stop3309" />
      <stop
         style="stop-color:#888a85;stop-opacity:0;"
         offset="1"
         id="stop3311" />
    </linearGradient>
  </defs>
  <sodipodi:namedview
     id="base"
     bordercolor="#666666"
     inkscape:pageshadow="2"
     inkscape:window-width="1334"
     pagecolor="#ffffff"
     inkscape:zoom="6.9465337"
     inkscape:window-x="32"
     borderopacity="1.0"
     inkscape:cx="35.167733"
     inkscape:cy="34.643892"
     inkscape:window-y="0"
     inkscape:window-height="747"
     inkscape:pageopacity="0.0"
     showgrid="false"
     inkscape:window-maximized="1"
     inkscape:current-layer="svg1" />
  <rect
     id="rect831"
     style="fill:#cccccc;fill-rule:evenodd"
     rx="2.3759193"
     height="36.157131"
     width="45.717308"
     y="12.016244"
     x="7.2638826" />
  <rect
     id="rect837"
     style="fill:none;stroke:#333333;stroke-width:3.28466082;stroke-linecap:round;stroke-linejoin:round"
     rx="2.4951549"
     height="36.157131"
     width="45.717308"
     sodipodi:stroke-cmyk="(0.0000000 0.0000000 0.0000000 0.80000001)"
     y="12.016244"
     x="7.2638826" />
  <metadata
     id="metadata10">
    <rdf:RDF>
      <cc:Work>
        <dc:format>image/svg+xml</dc:format>
        <dc:type
           rdf:resource="http://purl.org/dc/dcmitype/StillImage" />
        <cc:license
           rdf:resource="http://creativecommons.org/publicdomain/zero/1.0/" />
        <dc:publisher>
          <cc:Agent
             rdf:about="http://openclipart.org/">
            <dc:title>Openclipart</dc:title>
          </cc:Agent>
        </dc:publisher>
        <dc:title>ftinline table</dc:title>
        <dc:date>2011-01-31T02:01:35</dc:date>
        <dc:description>Originally uploaded by Danny Allen for OCAL 0.18 this icon is part of the flat theme</dc:description>
        <dc:source>https://openclipart.org/detail/112849/ftinline-table-by-anonymous</dc:source>
        <dc:creator>
          <cc:Agent>
            <dc:title>Anonymous</dc:title>
          </cc:Agent>
        </dc:creator>
        <dc:subject>
          <rdf:Bag>
            <rdf:li>flat</rdf:li>
            <rdf:li>icon</rdf:li>
            <rdf:li>theme</rdf:li>
          </rdf:Bag>
        </dc:subject>
      </cc:Work>
      <cc:License
         rdf:about="http://creativecommons.org/publicdomain/zero/1.0/">
        <cc:permits
           rdf:resource="http://creativecommons.org/ns#Reproduction" />
        <cc:permits
           rdf:resource="http://creativecommons.org/ns#Distribution" />
        <cc:permits
           rdf:resource="http://creativecommons.org/ns#DerivativeWorks" />
      </cc:License>
    </rdf:RDF>
  </metadata>
  <text
     xml:space="preserve"
     style="font-style:normal;font-weight:normal;font-size:30px;line-height:125%;font-family:Sans;letter-spacing:0px;word-spacing:0px;fill:#000000;fill-opacity:1;stroke:none;stroke-width:1px;stroke-linecap:butt;stroke-linejoin:miter;stroke-opacity:1"
     x="19.290195"
     y="4.8645878"
     id="text3343"
     sodipodi:linespacing="125%"><tspan
       sodipodi:role="line"
       id="tspan3345"
       x="19.290195"
       y="4.8645878" /></text>
  <g
     id="g3341"
     transform="matrix(0.40257973,0,0,0.58152125,9.7420264,17.426237)"
     style="fill:#d45500">
    <path
       d="M 2.343,25.944 C 0.938,25.006 0,23.133 0,21.492 0,19.852 0.703,18.33 2.46,17.51 l -0.117,0 C 10.66,12.59 22.258,6.03 29.99,1.461 l 0,10.895 c -3.046,1.757 -7.146,3.749 -17.455,9.255 l 0.117,0.116 c 5.506,2.461 11.832,6.209 17.338,9.489 l 0,11.012 L 2.343,25.944 Z"
       inkscape:connector-curvature="0"
       id="path3051"
       style="fill:#d45500" />
    <path
       d="m 97.657,17.744 c 1.404,0.938 2.343,2.812 2.343,4.452 0,1.64 -0.703,3.162 -2.461,3.982 l 0.118,0 C 89.34,31.098 77.741,37.658 70.01,42.227 l 0,-10.895 c 3.046,-1.756 7.146,-3.748 17.455,-9.254 L 87.348,21.962 C 81.843,19.501 75.516,15.753 70.01,12.473 l 0,-11.012 27.647,16.283 z"
       inkscape:connector-curvature="0"
       id="path3053"
       style="fill:#d45500" />
    <path
       d="m 46.401,43.688 -7.011,0 L 53.48,0 60.61,0 46.401,43.688 Z"
       inkscape:connector-curvature="0"
       id="path3055"
       style="fill:#d45500" />
  </g>
  <g
     id="g3199"
     transform="matrix(1.4717598,0,0,1.3968762,-94.322345,-35.175694)">
    <path
       inkscape:connector-curvature="0"
       inkscape:transform-center-y="4.25"
       sodipodi:nodetypes="csccccsccccc"
       id="path3193"
       d="m 32.5,24.1875 c -2.36285,1.124659 -4,3.522947 -4,6.3125 0,2.789555 1.637147,5.187838 4,6.3125 l 0,18.537596 6.03125,0 0,-18.537596 C 40.880361,35.682677 42.5,33.279516 42.5,30.5 c 0,-2.779514 -1.619643,-5.18268 -3.96875,-6.3125 l 0,6.3125 -3.015625,1 -3.015625,-1 0,-6.3125 z"
       style="color:#000000;display:inline;overflow:visible;visibility:visible;fill:url(#linearGradient3559);fill-opacity:1;fill-rule:nonzero;stroke:url(#linearGradient3561);stroke-width:1;stroke-linecap:round;stroke-linejoin:round;stroke-miterlimit:4;stroke-dasharray:none;stroke-dashoffset:1.39999998;stroke-opacity:1;marker:none"
       transform="matrix(0.707107,-0.707107,0.707107,0.707107,44.01958,36.46818)" />
    <path
       inkscape:connector-curvature="0"
       sodipodi:nodetypes="cssccccsscccccccc"
       id="path3195"
       d="m 31.5,26.34375 c -1.140863,1.088316 -2,2.448306 -2,4.15625 0,2.400502 1.409032,4.440748 3.4375,5.40625 0.347345,0.167478 0.566561,0.520659 0.5625,0.90625 l 0,18.929712 4.03125,0 0,-18.929712 c -0.0041,-0.385591 0.215155,-0.738772 0.5625,-0.90625 C 40.107408,34.937766 41.5,32.893233 41.5,30.5 c 0,-1.697797 -0.84276,-3.066152 -1.96875,-4.15625 l 0,4.15625 c -0.0036,0.42786 -0.280514,0.805441 -0.6875,0.9375 l -3.03125,1 c -0.20292,0.06717 -0.42208,0.06717 -0.625,0 l -3,-1 C 31.780514,31.305441 31.503622,30.92786 31.5,30.5 l 0,-4.15625 z"
       style="color:#000000;display:inline;overflow:visible;visibility:visible;fill:none;stroke:url(#linearGradient3563);stroke-width:1;stroke-linecap:round;stroke-linejoin:miter;stroke-miterlimit:4;stroke-dashoffset:1.39999998;stroke-opacity:1;marker:none"
       transform="matrix(0.707107,-0.707107,0.707107,0.707107,44.01958,36.46818)" />
    <rect
       ry="1.0000045"
       rx="1.0000045"
       y="37.499985"
       x="34.500008"
       height="15.000015"
       width="2.0000091"
       id="rect3197"
       style="color:#000000;display:inline;overflow:visible;visibility:visible;opacity:0.4;fill:none;stroke:url(#linearGradient3565);stroke-width:0.99999976;stroke-linecap:round;stroke-linejoin:miter;stroke-miterlimit:4;stroke-dasharray:none;stroke-dashoffset:1.39999998;stroke-opacity:1;marker:none"
       transform="matrix(0.707107,-0.707107,0.707107,0.707107,44.01958,36.46818)" />
  </g>
</svg>
