<?xml version="1.0" encoding="UTF-8" standalone="no"?>
<svg
   width="16"
   height="16"
   viewBox="0 0 16 16"
   version="1.1"
   id="svg6"
   sodipodi:docname="ct_docker.svg"
   inkscape:version="1.1.1 (3bf5ae0d25, 2021-09-20)"
   xmlns:inkscape="http://www.inkscape.org/namespaces/inkscape"
   xmlns:sodipodi="http://sodipodi.sourceforge.net/DTD/sodipodi-0.dtd"
   xmlns="http://www.w3.org/2000/svg"
   xmlns:svg="http://www.w3.org/2000/svg">
  <defs
     id="defs10" />
  <sodipodi:namedview
     id="namedview8"
     pagecolor="#ffffff"
     bordercolor="#666666"
     borderopacity="1.0"
     inkscape:pageshadow="2"
     inkscape:pageopacity="0.0"
     inkscape:pagecheckerboard="0"
     showgrid="false"
     inkscape:zoom="25.8125"
     inkscape:cx="5.8305085"
     inkscape:cy="7.031477"
     inkscape:window-width="1920"
     inkscape:window-height="1016"
     inkscape:window-x="0"
     inkscape:window-y="0"
     inkscape:window-maximized="1"
     inkscape:current-layer="svg6" />
  <g
     id="g834"
     transform="scale(0.015625)">
    <circle
       cx="512"
       cy="512"
       r="512"
       style="fill:#0091e2"
       id="circle2" />
    <path
       d="m 967.65557,452.11519 c -2.49187,-2.14761 -25.07449,-20.1545 -72.7316,-20.1545 -12.61513,0 -25.23025,0.9912 -37.68963,3.46922 -9.18879,-67.23674 -61.51816,-99.94651 -63.8543,-101.43332 l -12.77086,-7.92964 -8.41008,12.88567 c -10.59047,17.34609 -18.22184,36.34418 -22.73836,56.49868 -8.56583,38.32659 -3.42633,74.34038 14.95124,105.06773 -22.11538,13.05087 -57.78035,16.35489 -64.94449,16.52008 H 110.60618 c -15.418479,0 -27.877855,13.21607 -27.877855,29.57096 -0.622965,54.68147 8.098599,109.03254 25.697465,160.41001 20.24649,56.49867 50.46048,97.96408 89.70751,123.40502 43.91931,28.57973 115.40498,44.93461 196.54668,44.93461 36.59941,0.16521 73.19884,-3.46921 109.17529,-10.57284 49.99325,-9.74686 98.11759,-28.24934 142.34838,-54.84668 36.44367,-22.46732 69.30529,-50.88186 97.18314,-84.41763 46.56692,-56.00308 74.44477,-118.44899 95.1585,-173.79127 h 8.25433 c 51.08345,0 82.54337,-21.64131 99.83076,-39.8134 11.52492,-11.56405 20.55797,-25.60613 26.32042,-41.3002 l 3.58208,-11.39886 z m -802.53962,46.91703 h 78.96131 c 3.73781,0 6.85266,-3.30401 6.85266,-7.26883 v -74.50558 c 0,-3.96481 -3.11485,-7.26883 -6.85266,-7.43403 h -78.96131 c -3.73781,0 -6.85265,3.30401 -6.85265,7.26884 v 74.67077 c 0,4.13002 3.11484,7.26883 6.85265,7.26883 m 108.86381,0 h 78.9613 c 3.73781,0 6.85266,-3.30401 6.85266,-7.26883 v -74.50558 c 0,-3.96481 -3.11485,-7.26883 -6.85266,-7.43403 h -78.9613 c -3.89355,0 -7.0084,3.30401 -7.0084,7.43403 v 74.50558 c 0,4.13002 3.11485,7.26883 7.0084,7.26883 m 110.26549,0.16521 h 78.9613 c 3.73781,0 6.85266,-3.30402 6.85266,-7.26883 v -74.50558 c 0,-3.96483 -3.11485,-7.26884 -6.85266,-7.43404 h -78.9613 c -3.73782,0 -6.85266,3.30402 -6.85266,7.26883 v 74.67079 c 0,3.96481 3.11484,7.10362 6.85266,7.26883 m 109.17529,0 h 78.96131 c 3.73781,0 6.85265,-3.30402 7.00839,-7.26883 v -74.50558 c 0,-4.13002 -3.11485,-7.43404 -7.00839,-7.43404 h -78.96131 c -3.73781,0 -6.85266,3.30402 -6.85266,7.26883 v 74.67079 c 0,3.96481 2.9591,7.26883 6.85266,7.26883 M 273.82402,391.81689 h 78.96131 c 3.73781,0 6.85265,-3.30402 6.85265,-7.43404 v -74.50558 c 0,-3.96481 -3.11484,-7.26883 -6.85265,-7.26883 h -78.96131 c -3.89355,0 -6.85266,3.30402 -7.0084,7.26883 v 74.50558 c 0.15574,4.13002 3.27059,7.43404 7.0084,7.43404 m 110.42123,0 h 78.9613 c 3.73781,0 6.85266,-3.30402 6.85266,-7.43404 v -74.50558 c 0,-3.96481 -3.11485,-7.26883 -6.85266,-7.26883 h -78.9613 c -3.73782,0 -6.85266,3.30402 -6.85266,7.26883 v 74.50558 c 0,4.13002 3.11484,7.43404 6.85266,7.43404 m 109.17529,0 h 78.96131 c 3.89354,0 6.85265,-3.30402 7.00839,-7.43404 v -74.50558 c 0,-4.13002 -3.11485,-7.26883 -7.00839,-7.26883 h -78.96131 c -3.73781,0 -6.85266,3.30402 -6.85266,7.26883 v 74.50558 c 0,4.13002 2.9591,7.43404 6.85266,7.43404 m 0,-107.21534 h 78.96131 c 3.89354,0 7.00839,-3.30402 7.00839,-7.43404 v -74.67077 c 0,-3.96482 -3.11485,-7.26884 -7.00839,-7.26884 h -78.96131 c -3.73781,0 -6.85266,3.30402 -6.85266,7.26884 v 74.67077 c 0,4.13002 2.9591,7.43404 6.85266,7.43404 m 109.954,214.59588 h 78.9613 c 3.73781,0 6.85266,-3.30402 6.85266,-7.26883 v -74.50558 c 0,-4.13002 -3.11485,-7.26884 -6.85266,-7.43404 h -78.9613 c -3.73781,0 -6.85265,3.30402 -6.85265,7.26883 v 74.67079 c 0,3.96481 3.11484,7.26883 6.85265,7.26883"
       style="fill:#ffffff;stroke-width:1.60402"
       id="path4" />
  </g>
</svg>
