<?xml version="1.0" encoding="UTF-8" standalone="no"?>
<!-- This is a derivative work based on the Debian logo  -->
<!-- Copyleft: SZERVAC Attila - sas - @ 321.hu -->
<!-- Created with Inkscape (http://www.inkscape.org/) -->
<svg
   xmlns:dc="http://purl.org/dc/elements/1.1/"
   xmlns:cc="http://creativecommons.org/ns#"
   xmlns:rdf="http://www.w3.org/1999/02/22-rdf-syntax-ns#"
   xmlns:svg="http://www.w3.org/2000/svg"
   xmlns="http://www.w3.org/2000/svg"
   xmlns:sodipodi="http://sodipodi.sourceforge.net/DTD/sodipodi-0.dtd"
   xmlns:inkscape="http://www.inkscape.org/namespaces/inkscape"
   version="1.0"
   x="0.0000000"
   y="0.0000000"
   width="48"
   height="48"
   id="svg1"
   sodipodi:version="0.32"
   inkscape:version="0.46"
   sodipodi:docname="debian.svg"
   sodipodi:docbase="/home/q-funk"
   inkscape:output_extension="org.inkscape.output.svg.inkscape">
  <sodipodi:namedview
     id="base"
     pagecolor="#ffffff"
     bordercolor="#666666"
     borderopacity="1.0"
     inkscape:pageopacity="0.0"
     inkscape:pageshadow="2"
     inkscape:zoom="2.8284271"
     inkscape:cx="125.81791"
     inkscape:cy="7.7539262"
     inkscape:window-width="1016"
     inkscape:window-height="713"
     inkscape:window-x="0"
     inkscape:window-y="25"
     inkscape:current-layer="svg1"
     showgrid="false" />
  <defs
     id="defs3">
    <inkscape:perspective
       sodipodi:type="inkscape:persp3d"
       inkscape:vp_x="0 : 60 : 1"
       inkscape:vp_y="0 : 1000 : 0"
       inkscape:vp_z="100 : 60 : 1"
       inkscape:persp3d-origin="50 : 40 : 1"
       id="perspective21" />
    <defs
       id="defs829" />
  </defs>
  <metadata
     id="metadata954">
    <rdf:RDF>
      <cc:Work
         rdf:about="">
        <dc:format>image/svg+xml</dc:format>
        <dc:type
           rdf:resource="http://purl.org/dc/dcmitype/StillImage" />
      </cc:Work>
    </rdf:RDF>
  </metadata>
  <g
     transform="matrix(4.1644945e-2,0,0,-4.1644945e-2,-108.09452,186.11898)"
     style="fill:#d70751"
     id="Debian">
    <g
       id="GROUP_BEGIN_2">
      <path
         d="M 3255.5,3850.9 C 3237.5,3850.7 3258.9,3841.6 3282.3,3838 C 3288.8,3843.1 3294.7,3848.2 3299.9,3853.2 C 3285.3,3849.6 3270.4,3849.5 3255.5,3850.9"
         id="PATH_1" />
      <path
         d="M 3351.9,3874.9 C 3362.6,3889.7 3370.4,3905.9 3373.2,3922.6 C 3370.8,3910.7 3364.3,3900.4 3358.2,3889.5 C 3324.6,3868.4 3355,3902.1 3358.2,3914.9 C 3322.1,3869.4 3353.2,3887.6 3351.9,3874.9"
         id="PATH_2" />
      <path
         d="M 3387.5,3967.6 C 3389.7,3999.9 3381.1,3989.7 3378.3,3977.4 C 3381.6,3975.6 3384.3,3954.6 3387.5,3967.6"
         id="PATH_3" />
      <path
         d="M 3187.3,4409.9 C 3196.9,4408.2 3208.1,4406.8 3206.5,4404.6 C 3217,4406.9 3219.3,4409 3187.3,4409.9"
         id="PATH_4" />
      <path
         d="M 3206.5,4404.6 L 3199.7,4403.1 L 3206,4403.7 L 3206.5,4404.6"
         id="PATH_5" />
      <path
         d="M 3505.5,3955.3 C 3506.6,3926.2 3497,3912.2 3488.4,3887.2 L 3472.9,3879.4 C 3460.2,3854.8 3474.1,3863.8 3465,3844.1 C 3445.2,3826.5 3404.8,3788.9 3391.9,3785.5 C 3382.4,3785.7 3398.3,3796.6 3400.3,3800.9 C 3373.8,3782.7 3379,3773.5 3338.4,3762.4 L 3337.2,3765.1 C 3237,3717.9 3097.9,3811.3 3099.7,3938.8 C 3098.6,3930.7 3096.7,3932.7 3094.4,3929.4 C 3089.3,3995 3124.7,4060.9 3184.5,4087.8 C 3243,4116.7 3311.5,4104.8 3353.4,4065.8 C 3330.4,4095.9 3284.6,4127.9 3230.3,4124.9 C 3177.2,4124.1 3127.4,4090.3 3110.8,4053.6 C 3083.6,4036.4 3080.4,3987.5 3068.6,3978.5 C 3052.6,3861.2 3098.6,3810.4 3176.4,3750.8 C 3188.7,3742.5 3179.9,3741.3 3181.5,3735 C 3155.7,3747.1 3132,3765.4 3112.5,3787.8 C 3122.9,3772.7 3134,3757.9 3148.4,3746.4 C 3124,3754.7 3091.5,3805.5 3082,3807.6 C 3124,3732.3 3252.5,3675.6 3319.8,3703.7 C 3288.6,3702.6 3249.1,3703.1 3214.1,3716 C 3199.4,3723.6 3179.4,3739.2 3183,3742.2 C 3274.8,3707.9 3369.7,3716.2 3449.1,3779.9 C 3469.3,3795.6 3491.4,3822.4 3497.8,3822.8 C 3488.2,3808.3 3499.4,3815.8 3492.1,3803.1 C 3512.2,3835.6 3483.3,3816.3 3512.9,3859.2 L 3523.8,3844.1 C 3519.7,3871.1 3557.3,3903.8 3553.4,3946.5 C 3562.1,3959.5 3563.1,3932.4 3553.9,3902.4 C 3566.6,3935.7 3557.3,3941.1 3560.5,3968.5 C 3564,3959.3 3568.7,3949.5 3571,3939.8 C 3562.8,3971.9 3579.5,3993.9 3583.7,4012.6 C 3579.6,4014.4 3570.9,3998.4 3568.9,4036.4 C 3569.2,4052.9 3573.5,4045 3575.2,4049.1 C 3571.9,4050.9 3563.4,4063.6 3558.3,4087.8 C 3562,4093.6 3568.3,4073.1 3573.4,4072.2 C 3570.1,4091.5 3564.4,4106.2 3564.2,4121 C 3549.3,4152.2 3558.9,4116.9 3546.8,4134.4 C 3531,4183.9 3560,4145.9 3562,4168.4 C 3586,4133.5 3599.7,4079.6 3606,4057.2 C 3601.2,4084.4 3593.5,4110.9 3584,4136.4 C 3591.3,4133.3 3572.2,4192.5 3593.5,4153.3 C 3570.8,4236.8 3496.3,4314.9 3427.8,4351.5 C 3436.2,4343.8 3446.8,4334.2 3443,4332.7 C 3408.9,4353 3414.9,4354.6 3410,4363.1 C 3382.3,4374.4 3380.5,4362.2 3362.1,4363.1 C 3309.8,4390.8 3299.7,4387.9 3251.6,4405.3 L 3253.8,4395 C 3219.1,4406.6 3213.4,4390.7 3175.9,4395 C 3173.7,4396.8 3187.9,4401.4 3199.7,4403.1 C 3166.2,4398.7 3167.8,4409.8 3135,4401.9 C 3143.1,4407.6 3151.6,4411.4 3160.2,4416.2 C 3132.9,4414.5 3095,4400.3 3106.7,4413.2 C 3062.2,4393.3 2983,4365.4 2938.6,4323.8 L 2937.2,4333.1 C 2916.8,4308.7 2848.5,4260.2 2843,4228.5 L 2837.6,4227.2 C 2827,4209.3 2820.1,4189 2811.7,4170.6 C 2797.9,4146.9 2791.4,4161.5 2793.4,4157.8 C 2766.2,4102.5 2752.6,4056.1 2740.9,4018.1 C 2749.3,4005.6 2741.1,3943.1 2744.3,3893.1 C 2730.6,3646.1 2917.7,3406.2 3122.1,3350.8 C 3152.1,3340.1 3196.7,3340.5 3234.6,3339.4 C 3189.8,3352.2 3184.1,3346.2 3140.5,3361.4 C 3109.1,3376.2 3102.2,3393.1 3079.9,3412.4 L 3088.7,3396.8 C 3045.1,3412.3 3063.3,3416 3027.8,3427.2 L 3037.2,3439.5 C 3023.1,3440.6 2999.8,3463.3 2993.4,3476 L 2977.9,3475.3 C 2959.3,3498.3 2949.4,3514.8 2950.1,3527.7 L 2945.1,3518.8 C 2939.4,3528.5 2876.7,3604.8 2909.2,3587.1 C 2903.2,3592.6 2895.2,3596.1 2886.4,3611.9 L 2893.1,3619.5 C 2877.4,3639.6 2864.2,3665.5 2865.2,3674.1 C 2873.6,3662.8 2879.4,3660.7 2885.1,3658.8 C 2845.6,3756.9 2843.3,3664.2 2813.4,3758.7 L 2819.7,3759.2 C 2814.8,3766.5 2811.9,3774.5 2808,3782.3 L 2810.7,3809.8 C 2782.3,3842.7 2802.8,3949.8 2806.9,4008.5 C 2809.8,4032.4 2830.7,4057.8 2846.6,4097.7 L 2836.9,4099.4 C 2855.4,4131.7 2942.8,4229.3 2983.2,4224.3 C 3002.8,4248.9 2979.3,4224.4 2975.5,4230.6 C 3018.5,4275.1 3032,4262 3061.1,4270 C 3092.4,4288.6 3034.2,4262.8 3049.1,4277.1 C 3103.2,4290.9 3087.4,4308.6 3158.1,4315.6 C 3165.5,4311.3 3140.8,4309 3134.6,4303.5 C 3179.7,4325.6 3277.3,4320.6 3340.7,4291.3 C 3414.3,4256.9 3497,4155.2 3500.2,4059.6 L 3504,4058.6 C 3502.1,4020.6 3509.8,3976.6 3496.4,3936.2 L 3505.5,3955.3"
         id="PATH_6" />
      <path
         d="M 3059.3,3826.2 L 3056.8,3813.6 C 3068.6,3797.6 3078,3780.2 3093.1,3767.7 C 3082.2,3788.8 3074.2,3797.6 3059.3,3826.2"
         id="PATH_7" />
      <path
         d="M 3087.2,3827.3 C 3081,3834.2 3077.3,3842.6 3073.2,3850.8 C 3077.1,3836.3 3085.2,3823.8 3092.8,3811 L 3087.2,3827.3"
         id="PATH_8" />
      <path
         d="M 3581.3,3934.7 L 3578.7,3928.1 C 3573.8,3893.7 3563.4,3859.7 3547.3,3828.2 C 3565,3861.4 3576.5,3897.8 3581.3,3934.7"
         id="PATH_9" />
      <path
         d="M 3190.9,4418.5 C 3203,4422.9 3220.7,4420.9 3233.6,4423.9 C 3216.8,4422.5 3200.1,4421.6 3183.6,4419.5 L 3190.9,4418.5"
         id="PATH_10" />
      <path
         d="M 2764.3,4191.7 C 2767.1,4165.8 2744.8,4155.7 2769.3,4172.8 C 2782.4,4202.3 2764.1,4180.9 2764.3,4191.7"
         id="PATH_11" />
      <path
         d="M 2735.6,4071.7 C 2741.2,4089 2742.2,4099.4 2744.4,4109.4 C 2728.8,4089.5 2737.2,4085.2 2735.6,4071.7"
         id="PATH_12" />
    </g>
  </g>
</svg>
