<?xml version="1.0" encoding="UTF-8"?>
<!-- Created with Inkscape (http://www.inkscape.org/) -->
<svg id="svg4175" width="48" height="48" version="1.1" xmlns="http://www.w3.org/2000/svg" xmlns:cc="http://creativecommons.org/ns#" xmlns:dc="http://purl.org/dc/elements/1.1/" xmlns:rdf="http://www.w3.org/1999/02/22-rdf-syntax-ns#" xmlns:xlink="http://www.w3.org/1999/xlink">
 <metadata id="metadata46">
  <rdf:RDF>
   <cc:Work rdf:about="">
    <dc:format>image/svg+xml</dc:format>
    <dc:type rdf:resource="http://purl.org/dc/dcmitype/StillImage"/>
   </cc:Work>
  </rdf:RDF>
 </metadata>
 <defs id="defs4177">
  <linearGradient id="linearGradient2346">
   <stop id="stop2348" style="stop-color:#eee" offset="0"/>
   <stop id="stop2350" style="stop-color:#d9d9da" offset="1"/>
  </linearGradient>
  <linearGradient id="linearGradient3012" x1="302.86" x2="302.86" y1="366.65" y2="609.51" gradientTransform="matrix(2.7744 0 0 1.9697 -1892.2 -872.89)" gradientUnits="userSpaceOnUse">
   <stop id="stop5050" style="stop-opacity:0" offset="0"/>
   <stop id="stop5056" offset=".5"/>
   <stop id="stop5052" style="stop-opacity:0" offset="1"/>
  </linearGradient>
  <radialGradient id="radialGradient3014" cx="605.71" cy="486.65" r="117.14" gradientTransform="matrix(2.7744 0 0 1.9697 -1891.6 -872.89)" gradientUnits="userSpaceOnUse" xlink:href="#linearGradient5060"/>
  <linearGradient id="linearGradient5060">
   <stop id="stop5062" offset="0"/>
   <stop id="stop5064" style="stop-opacity:0" offset="1"/>
  </linearGradient>
  <radialGradient id="radialGradient4163" cx="605.71" cy="486.65" r="117.14" gradientTransform="matrix(-2.7744 0 0 1.9697 112.76 -872.89)" gradientUnits="userSpaceOnUse" xlink:href="#linearGradient5060"/>
  <radialGradient id="radialGradient2918" cx="17.949" cy="25.435" r="13.428" gradientTransform="matrix(-.0073051 -1.654 2.6258 -.010154 -33.159 52.947)" gradientUnits="userSpaceOnUse" xlink:href="#linearGradient2346"/>
  <linearGradient id="linearGradient2922" x1="25.579" x2="25.579" y1="-25.736" y2="41.953" gradientTransform="matrix(.96424 0 0 .97292 -.65527 1.9988)" gradientUnits="userSpaceOnUse">
   <stop id="stop3213" style="stop-color:#fff" offset="0"/>
   <stop id="stop3215" style="stop-color:#fff;stop-opacity:0" offset="1"/>
  </linearGradient>
  <radialGradient id="radialGradient2926" cx="39.651" cy="18.619" r="20.714" gradientTransform="matrix(.045885 2.9168 -4.3002 3.318e-7 75.325 -119.13)" gradientUnits="userSpaceOnUse">
   <stop id="stop3244" style="stop-color:#f8b17e" offset="0"/>
   <stop id="stop3246-9" style="stop-color:#e35d4f" offset=".3121"/>
   <stop id="stop3248-3" style="stop-color:#c6262e" offset=".57054"/>
   <stop id="stop3250-9" style="stop-color:#690b54" offset="1"/>
  </radialGradient>
  <linearGradient id="linearGradient2928" x1="24.009" x2="24.009" y1="38.246" y2="1" gradientUnits="userSpaceOnUse">
   <stop id="stop2492" style="stop-color:#791235" offset="0"/>
   <stop id="stop2494" style="stop-color:#dd3b27" offset="1"/>
  </linearGradient>
  <linearGradient id="linearGradient2932" x1="21.136" x2="21.136" y1="40.885" y2="35.298" gradientTransform="matrix(.89433 0 0 .7169 3.0387 11.695)" gradientUnits="userSpaceOnUse" xlink:href="#linearGradient2346"/>
 </defs>
 <g id="g8875" transform="matrix(.021462 0 0 .014639 43.089 43.203)">
  <rect id="rect8877" x="-1559.3" y="-150.7" width="1339.6" height="478.36" style="fill:url(#linearGradient3012);opacity:.40206"/>
  <path id="path8879" d="m-219.62-150.68v478.33c142.87 0.90045 345.4-107.17 345.4-239.2 0-132.03-159.44-239.13-345.4-239.13z" style="fill:url(#radialGradient3014);opacity:.40206"/>
  <path id="path8881" d="m-1559.3-150.68v478.33c-142.87 0.90045-345.4-107.17-345.4-239.2 0-132.03 159.44-239.13 345.4-239.13z" style="fill:url(#radialGradient4163);opacity:.40206"/>
 </g>
 <path id="rect8840" d="m43.271 44.5h-37.422c-0.34715 0-0.62662-0.3178-0.62662-0.71255l-0.72272-5.5018c0-0.39475 0.27947-0.71255 0.62662-0.71255h38.104" style="fill:url(#linearGradient2932);stroke-dashoffset:.06;stroke-linecap:round;stroke-linejoin:round;stroke-width:.99975;stroke:#7a1235"/>
 <path id="path9017" d="m42.811 43.624c-0.44416-0.5816-0.26312-3.8493 0.60143-5.3068" style="fill:none;stroke-linecap:round;stroke-width:.99975;stroke:#666"/>
 <path id="rect8064" d="m7.09 1.4999c-0.35529 0-0.63185 0.40604-0.63185 0.92045l-1.9406 34.406c0 0.51441 0.30403 0.92045 0.65932 0.92045h37.664c0.35529 1e-6 0.65932-0.40604 0.65932-0.92045l-2.1702-34.406c1e-6 -0.5144-0.27656-0.92045-0.63185-0.92045h-33.608z" style="fill:url(#radialGradient2926);stroke-dashoffset:.06;stroke-linecap:round;stroke-linejoin:round;stroke-width:.99975;stroke:url(#linearGradient2928)"/>
 <path id="path3267" d="m6.2186 43.454-0.6203-4.6312" style="fill:none;opacity:.2;stroke-linecap:square;stroke-width:.99975px;stroke:#000"/>
 <path id="path2868" d="m8.0547 2.4734c-0.35529 0-0.63185 0.40604-0.63185 0.92045l-1.9406 32.459c0 0.5144 0.30403 0.92045 0.65932 0.92045h35.735c0.35529 1e-6 0.65932-0.40604 0.65932-0.92045l-2.1702-32.459c1e-6 -0.5144-0.27656-0.92045-0.63185-0.92045h-31.679z" style="fill:none;opacity:.4;stroke-dashoffset:.06;stroke-linecap:round;stroke-linejoin:round;stroke-width:.99975;stroke:url(#linearGradient2922)"/>
 <path id="text3323-5" d="m14.471 19.243h5.7727c-0.96212-2.3904-1.9242-4.7807-2.8864-7.1711-0.96212 2.3904-1.9242 4.7807-2.8864 7.1711zm-4.4454 5.4642c0.04807-0.33161-0.093355-0.84492 0.06519-1.0706h1.3148c1.8681-4.6696 3.7361-9.3393 5.6042-14.009h1.7697c1.8716 4.6696 3.7432 9.3393 5.6147 14.009h1.5485c-0.04807 0.33162 0.09335 0.84492-0.06519 1.0706h-5.6549c0.04807-0.33161-0.09335-0.84492 0.06519-1.0706h1.6835c-0.43892-1.1043-0.87785-2.2086-1.3168-3.3128h-6.6155c-0.43893 1.1043-0.87785 2.2086-1.3168 3.3128h1.7276c-0.04807 0.33162 0.09336 0.84492-0.06519 1.0706h-4.3592zm24.302-3.3734v-2.2725c-1.2951 0.05075-2.6221-0.13829-3.8869 0.18855-1.7097 0.50023-1.9065 2.9172-0.74817 4.0131 1.3661 1.2136 4.0723 0.72845 4.5299-1.1266 0.07413-0.26109 0.10523-0.53228 0.10518-0.80249zm1.9383-3.333v5.6359h1.7276c-0.04807 0.33162 0.09335 0.84492-0.06519 1.0706h-3.6007v-1.1615c-1.3866 1.6777-4.1295 1.8671-5.9775 0.82766-2.1172-1.2348-2.0653-4.746 0.22653-5.7861 1.7845-0.87363 3.8254-0.53864 5.7509-0.60676 0.05325-1.0414-0.03255-2.2683-1.0901-2.856-1.2139-0.65702-3.005-0.67128-4.013 0.34108-0.4568 0.61979-0.40134 1.4865-1.3906 1.212-0.34224-0.0542-0.06269-0.70457-0.15333-1v-1.1715c2.1347-0.87104 4.7783-1.2907 6.8699-0.09476 1.2553 0.76018 1.7434 2.228 1.7155 3.5894z" style="fill:#141414;opacity:.4"/>
 <path id="text2537-9" d="m14.471 20.243h5.7727c-0.96212-2.3904-1.9242-4.7807-2.8864-7.1711-0.96212 2.3904-1.9242 4.7807-2.8864 7.1711zm-4.4454 5.4642c0.04807-0.33162-0.093355-0.84492 0.06519-1.0706h1.3148c1.8681-4.6696 3.7361-9.3393 5.6042-14.009h1.7697c1.8716 4.6696 3.7432 9.3393 5.6147 14.009h1.5485c-0.04807 0.33162 0.09335 0.84492-0.06519 1.0706h-5.6549c0.04807-0.33162-0.09335-0.84492 0.06519-1.0706h1.6835c-0.43892-1.1043-0.87785-2.2086-1.3168-3.3128h-6.6155c-0.43893 1.1043-0.87785 2.2086-1.3168 3.3128h1.7276c-0.04807 0.33162 0.09336 0.84492-0.06519 1.0706h-4.3592zm24.302-3.3734v-2.2725c-1.2951 0.05075-2.6221-0.13829-3.8869 0.18855-1.7097 0.50023-1.9065 2.9172-0.74817 4.0131 1.3661 1.2136 4.0723 0.72845 4.5299-1.1266 0.07413-0.26109 0.10523-0.53228 0.10518-0.80249zm1.9383-3.333v5.6359h1.7276c-0.04807 0.33162 0.09335 0.84492-0.06519 1.0706h-3.6007v-1.1615c-1.3866 1.6777-4.1295 1.8671-5.9775 0.82766-2.1172-1.2348-2.0653-4.746 0.22653-5.7861 1.7845-0.87363 3.8254-0.53864 5.7509-0.60676 0.05325-1.0414-0.03255-2.2683-1.0901-2.856-1.2139-0.65702-3.005-0.67128-4.013 0.34108-0.4568 0.61979-0.40134 1.4865-1.3906 1.212-0.34224-0.0542-0.06269-0.70457-0.15333-1v-1.1715c2.1347-0.87104 4.7783-1.2907 6.8699-0.09476 1.2553 0.76018 1.7434 2.228 1.7155 3.5894z" style="fill:url(#radialGradient2918)"/>
</svg>
