<?xml version="1.0" encoding="iso-8859-1"?>
<!-- Uploaded to: SVG Repo, www.svgrepo.com, Generator: SVG Repo Mixer Tools -->
<svg height="800px" width="800px" version="1.1" id="Layer_1" xmlns="http://www.w3.org/2000/svg" xmlns:xlink="http://www.w3.org/1999/xlink" 
	 viewBox="0 0 512 512" xml:space="preserve">
<polygon style="fill:#02ACAB;" points="321.361,394.894 321.361,285.957 288.68,285.957 255.999,503.83 364.936,394.894 "/>
<polygon style="fill:#42C8C6;" points="288.68,394.894 288.68,285.957 190.638,285.957 190.638,394.894 147.063,394.894 
	255.999,503.83 332.255,394.894 "/>
<g>
	<path style="fill:#ABECEC;" d="M403.063,76.455c-5.599,0-11.069,0.549-16.363,1.59l-16.318,167.261h32.681
		c46.627,0,84.426-37.799,84.426-84.426S449.69,76.455,403.063,76.455z"/>
	<path style="fill:#ABECEC;" d="M255.999,8.17l78.173,76.433c9.019-4.29,18.916-7.027,29.35-7.868
		C344.659,36.243,303.613,8.17,255.999,8.17z"/>
</g>
<path style="fill:#D5F6F5;" d="M454.808,160.88c0-41.043-29.292-75.231-68.108-82.835c-6.96,1.369-13.614,3.593-19.847,6.558
	c-1.016-2.671-2.132-5.293-3.331-7.868c-10.434,0.841-20.331,3.58-29.35,7.868C322.189,39.923,291.711,8.17,255.999,8.17
	c-50.642,0-93.861,31.753-110.853,76.433c-10.974-5.22-23.249-8.148-36.21-8.148c-46.627,0-84.426,37.799-84.426,84.426
	s37.799,84.426,84.426,84.426c26.787,0,261.447,0,261.447,0C417.009,245.306,454.808,207.507,454.808,160.88z"/>
<path d="M364.936,386.723h-35.404V285.957c0-4.513-3.657-8.17-8.17-8.17H190.638c-4.513,0-8.17,3.657-8.17,8.17v100.766h-35.404
	c-3.304,0-6.285,1.99-7.548,5.044c-1.265,3.053-0.566,6.567,1.77,8.904l108.936,108.936c1.596,1.595,3.687,2.392,5.778,2.392
	s4.182-0.797,5.778-2.392l108.936-108.936c2.337-2.338,3.035-5.851,1.77-8.904C371.22,388.714,368.24,386.723,364.936,386.723z
	 M255.999,492.276l-89.212-89.212h23.85c4.513,0,8.17-3.657,8.17-8.17V294.128h114.383v100.766c0,4.513,3.657,8.17,8.17,8.17h23.85
	L255.999,492.276z"/>
<path d="M403.063,68.286c-11,0-21.674,1.888-31.837,5.622c-9.355-20.422-23.918-37.924-42.487-50.961
	C307.362,7.934,282.21,0,255.999,0s-51.362,7.934-72.74,22.945c-18.569,13.039-33.132,30.539-42.487,50.961
	c-10.162-3.734-20.836-5.622-31.837-5.622c-51.057,0-92.596,41.538-92.596,92.596s41.538,92.596,92.596,92.596h261.447
	c4.513,0,8.17-3.657,8.17-8.17s-3.657-8.17-8.17-8.17H108.936c-42.047,0-76.255-34.208-76.255-76.255
	c0-42.048,34.208-76.255,76.255-76.255c11.437,0,22.441,2.474,32.702,7.355c2.061,0.98,4.435,1.053,6.554,0.205
	c2.117-0.849,3.782-2.546,4.593-4.678c16.188-42.567,57.668-71.167,103.216-71.167s87.028,28.6,103.217,71.167
	c0.81,2.132,2.475,3.829,4.593,4.678c2.118,0.849,4.491,0.777,6.554-0.205c10.261-4.88,21.264-7.355,32.702-7.355
	c42.047,0,76.255,34.207,76.255,76.255c0,42.047-34.208,76.255-76.255,76.255c-4.513,0-8.17,3.657-8.17,8.17s3.657,8.17,8.17,8.17
	c51.057,0,92.596-41.538,92.596-92.596S454.121,68.286,403.063,68.286z"/>
<circle cx="130.723" cy="160.877" r="8.17"/>
<circle cx="98.042" cy="193.558" r="8.17"/>
</svg>