<?xml version="1.0" encoding="UTF-8" standalone="no"?>
<!-- Created with Sodipodi ("http://www.sodipodi.com/") -->

<svg
   xmlns:dc="http://purl.org/dc/elements/1.1/"
   xmlns:cc="http://creativecommons.org/ns#"
   xmlns:rdf="http://www.w3.org/1999/02/22-rdf-syntax-ns#"
   xmlns:svg="http://www.w3.org/2000/svg"
   xmlns="http://www.w3.org/2000/svg"
   xmlns:sodipodi="http://sodipodi.sourceforge.net/DTD/sodipodi-0.dtd"
   xmlns:inkscape="http://www.inkscape.org/namespaces/inkscape"
   id="svg378"
   height="480"
   width="640"
   version="1"
   y="0"
   x="0"
   sodipodi:docname="us.svg"
   inkscape:version="0.92.0 r">
  <defs
     id="defs10">
    <clipPath
       id="clipPath4293"
       clipPathUnits="userSpaceOnUse">
      <rect
         style="fill-opacity:0.67000002"
         id="rect4295"
         height="512"
         width="682.66998"
         y="5.2307e-06"
         x="0" />
    </clipPath>
  </defs>
  <sodipodi:namedview
     pagecolor="#ffffff"
     bordercolor="#666666"
     borderopacity="1"
     objecttolerance="10"
     gridtolerance="10"
     guidetolerance="10"
     inkscape:pageopacity="0"
     inkscape:pageshadow="2"
     inkscape:window-width="640"
     inkscape:window-height="480"
     id="namedview8"
     showgrid="false"
     inkscape:zoom="2.7812867"
     inkscape:cx="89.29823"
     inkscape:cy="470.10933"
     inkscape:window-x="949"
     inkscape:window-y="110"
     inkscape:window-maximized="0"
     inkscape:current-layer="svg378" />
  <metadata
     id="metadata4346">
    <rdf:RDF>
      <cc:Work
         rdf:about="">
        <dc:format>image/svg+xml</dc:format>
        <dc:type
           rdf:resource="http://purl.org/dc/dcmitype/StillImage" />
        <dc:title></dc:title>
      </cc:Work>
    </rdf:RDF>
  </metadata>
  <g
     style="fill-rule:evenodd"
     id="flag"
     clip-path="url(#clipPath4293)"
     transform="matrix(0.9375,0,0,0.9375,0,-4.9037813e-6)">
    <g
       style="stroke-width:1.00000003pt"
       id="g390"
       transform="matrix(3.9385,0,0,3.9385,0,5e-6)">
      <g
         style="fill:#bd3d44"
         id="g169">
        <rect
           id="rect156"
           height="10"
           width="247"
           y="0"
           x="0" />
        <rect
           id="rect158"
           height="10"
           width="247"
           y="20"
           x="0" />
        <rect
           id="rect160"
           height="10"
           width="247"
           y="40"
           x="0" />
        <rect
           id="rect162"
           height="10"
           width="247"
           y="60"
           x="0" />
        <rect
           id="rect164"
           height="10"
           width="247"
           y="80"
           x="0" />
        <rect
           id="rect166"
           height="10"
           width="247"
           y="100"
           x="0" />
        <rect
           id="rect168"
           height="10"
           width="247"
           y="120"
           x="0" />
      </g>
      <g
         style="fill:#ffffff"
         id="g177">
        <rect
           id="rect157"
           height="10"
           width="247"
           y="10"
           x="0" />
        <rect
           id="rect159"
           height="10"
           width="247"
           y="30"
           x="0" />
        <rect
           id="rect161"
           height="10"
           width="247"
           y="50"
           x="0" />
        <rect
           id="rect163"
           height="10"
           width="247"
           y="70"
           x="0" />
        <rect
           id="rect165"
           height="10"
           width="247"
           y="90"
           x="0" />
        <rect
           id="rect167"
           height="10"
           width="247"
           y="110"
           x="0" />
      </g>
    </g>
    <rect
       style="fill:#192f5d;stroke-width:1.00000003pt"
       id="rect200"
       height="275.69"
       width="389.12"
       y="4.9999999e-06"
       x="0" />
    <g
       style="fill:#ffffff"
       id="g274"
       transform="matrix(3.9385,0,0,3.9385,0,5e-6)">
      <g
         id="g218">
        <g
           id="g194">
          <polygon
             id="polygon207"
             transform="translate(8.2333,7)"
             d="M 1.3084868e-6,-4.0040002 0.89895399,-1.237304 3.8080309,-1.2373029 1.4545381,0.47260808 2.3534912,3.239305 0,1.5293919 l -2.3534933,1.7099115 0.8989552,-2.76669531 -2.353492,-1.70991339 2.9090761,1.3e-6 z"
             points="2.3535,3.2393 0,1.5294 -2.3535,3.2393 -1.4545,0.47261 -3.808,-1.2373 -0.89895,-1.2373 0,-4.004 0.89895,-1.2373 3.808,-1.2373 1.4545,0.47261 " />
          <polygon
             id="polygon188"
             transform="translate(24.7,7)"
             d="M 1.3084868e-6,-4.0040002 0.89895399,-1.237304 3.8080309,-1.2373029 1.4545381,0.47260808 2.3534912,3.239305 0,1.5293919 l -2.3534933,1.7099115 0.8989552,-2.76669531 -2.353492,-1.70991339 2.9090761,1.3e-6 z"
             points="2.3535,3.2393 0,1.5294 -2.3535,3.2393 -1.4545,0.47261 -3.808,-1.2373 -0.89895,-1.2373 0,-4.004 0.89895,-1.2373 3.808,-1.2373 1.4545,0.47261 " />
          <polygon
             id="polygon189"
             transform="translate(41.167,7)"
             d="M 1.3084868e-6,-4.0040002 0.89895399,-1.237304 3.8080309,-1.2373029 1.4545381,0.47260808 2.3534912,3.239305 0,1.5293919 l -2.3534933,1.7099115 0.8989552,-2.76669531 -2.353492,-1.70991339 2.9090761,1.3e-6 z"
             points="2.3535,3.2393 0,1.5294 -2.3535,3.2393 -1.4545,0.47261 -3.808,-1.2373 -0.89895,-1.2373 0,-4.004 0.89895,-1.2373 3.808,-1.2373 1.4545,0.47261 " />
          <polygon
             id="polygon190"
             transform="translate(57.633,7)"
             d="M 1.3084868e-6,-4.0040002 0.89895399,-1.237304 3.8080309,-1.2373029 1.4545381,0.47260808 2.3534912,3.239305 0,1.5293919 l -2.3534933,1.7099115 0.8989552,-2.76669531 -2.353492,-1.70991339 2.9090761,1.3e-6 z"
             points="2.3535,3.2393 0,1.5294 -2.3535,3.2393 -1.4545,0.47261 -3.808,-1.2373 -0.89895,-1.2373 0,-4.004 0.89895,-1.2373 3.808,-1.2373 1.4545,0.47261 " />
          <polygon
             id="polygon191"
             transform="translate(74.1,7)"
             d="M 1.3084868e-6,-4.0040002 0.89895399,-1.237304 3.8080309,-1.2373029 1.4545381,0.47260808 2.3534912,3.239305 0,1.5293919 l -2.3534933,1.7099115 0.8989552,-2.76669531 -2.353492,-1.70991339 2.9090761,1.3e-6 z"
             points="2.3535,3.2393 0,1.5294 -2.3535,3.2393 -1.4545,0.47261 -3.808,-1.2373 -0.89895,-1.2373 0,-4.004 0.89895,-1.2373 3.808,-1.2373 1.4545,0.47261 " />
          <polygon
             id="polygon192"
             transform="translate(90.567,7)"
             d="M 1.3084868e-6,-4.0040002 0.89895399,-1.237304 3.8080309,-1.2373029 1.4545381,0.47260808 2.3534912,3.239305 0,1.5293919 l -2.3534933,1.7099115 0.8989552,-2.76669531 -2.353492,-1.70991339 2.9090761,1.3e-6 z"
             points="2.3535,3.2393 0,1.5294 -2.3535,3.2393 -1.4545,0.47261 -3.808,-1.2373 -0.89895,-1.2373 0,-4.004 0.89895,-1.2373 3.808,-1.2373 1.4545,0.47261 " />
        </g>
        <g
           id="g205">
          <polygon
             id="polygon193"
             transform="translate(16.467,14)"
             d="M 1.3084868e-6,-4.0040002 0.89895399,-1.237304 3.8080309,-1.2373029 1.4545381,0.47260808 2.3534912,3.239305 0,1.5293919 l -2.3534933,1.7099115 0.8989552,-2.76669531 -2.353492,-1.70991339 2.9090761,1.3e-6 z"
             points="2.3535,3.2393 0,1.5294 -2.3535,3.2393 -1.4545,0.47261 -3.808,-1.2373 -0.89895,-1.2373 0,-4.004 0.89895,-1.2373 3.808,-1.2373 1.4545,0.47261 " />
          <polygon
             id="polygon201"
             transform="translate(32.933,14)"
             d="M 1.3084868e-6,-4.0040002 0.89895399,-1.237304 3.8080309,-1.2373029 1.4545381,0.47260808 2.3534912,3.239305 0,1.5293919 l -2.3534933,1.7099115 0.8989552,-2.76669531 -2.353492,-1.70991339 2.9090761,1.3e-6 z"
             points="2.3535,3.2393 0,1.5294 -2.3535,3.2393 -1.4545,0.47261 -3.808,-1.2373 -0.89895,-1.2373 0,-4.004 0.89895,-1.2373 3.808,-1.2373 1.4545,0.47261 " />
          <polygon
             id="polygon202"
             transform="translate(49.4,14)"
             d="M 1.3084868e-6,-4.0040002 0.89895399,-1.237304 3.8080309,-1.2373029 1.4545381,0.47260808 2.3534912,3.239305 0,1.5293919 l -2.3534933,1.7099115 0.8989552,-2.76669531 -2.353492,-1.70991339 2.9090761,1.3e-6 z"
             points="2.3535,3.2393 0,1.5294 -2.3535,3.2393 -1.4545,0.47261 -3.808,-1.2373 -0.89895,-1.2373 0,-4.004 0.89895,-1.2373 3.808,-1.2373 1.4545,0.47261 " />
          <polygon
             id="polygon203"
             transform="translate(65.867,14)"
             d="M 1.3084868e-6,-4.0040002 0.89895399,-1.237304 3.8080309,-1.2373029 1.4545381,0.47260808 2.3534912,3.239305 0,1.5293919 l -2.3534933,1.7099115 0.8989552,-2.76669531 -2.353492,-1.70991339 2.9090761,1.3e-6 z"
             points="2.3535,3.2393 0,1.5294 -2.3535,3.2393 -1.4545,0.47261 -3.808,-1.2373 -0.89895,-1.2373 0,-4.004 0.89895,-1.2373 3.808,-1.2373 1.4545,0.47261 " />
          <polygon
             id="polygon204"
             transform="translate(82.333,14)"
             d="M 1.3084868e-6,-4.0040002 0.89895399,-1.237304 3.8080309,-1.2373029 1.4545381,0.47260808 2.3534912,3.239305 0,1.5293919 l -2.3534933,1.7099115 0.8989552,-2.76669531 -2.353492,-1.70991339 2.9090761,1.3e-6 z"
             points="2.3535,3.2393 0,1.5294 -2.3535,3.2393 -1.4545,0.47261 -3.808,-1.2373 -0.89895,-1.2373 0,-4.004 0.89895,-1.2373 3.808,-1.2373 1.4545,0.47261 " />
        </g>
      </g>
      <g
         id="g232"
         transform="translate(0,14)">
        <g
           id="g233">
          <polygon
             id="polygon234"
             transform="translate(8.2333,7)"
             d="M 1.3084868e-6,-4.0040002 0.89895399,-1.237304 3.8080309,-1.2373029 1.4545381,0.47260808 2.3534912,3.239305 0,1.5293919 l -2.3534933,1.7099115 0.8989552,-2.76669531 -2.353492,-1.70991339 2.9090761,1.3e-6 z"
             points="2.3535,3.2393 0,1.5294 -2.3535,3.2393 -1.4545,0.47261 -3.808,-1.2373 -0.89895,-1.2373 0,-4.004 0.89895,-1.2373 3.808,-1.2373 1.4545,0.47261 " />
          <polygon
             id="polygon235"
             transform="translate(24.7,7)"
             d="M 1.3084868e-6,-4.0040002 0.89895399,-1.237304 3.8080309,-1.2373029 1.4545381,0.47260808 2.3534912,3.239305 0,1.5293919 l -2.3534933,1.7099115 0.8989552,-2.76669531 -2.353492,-1.70991339 2.9090761,1.3e-6 z"
             points="2.3535,3.2393 0,1.5294 -2.3535,3.2393 -1.4545,0.47261 -3.808,-1.2373 -0.89895,-1.2373 0,-4.004 0.89895,-1.2373 3.808,-1.2373 1.4545,0.47261 " />
          <polygon
             id="polygon236"
             transform="translate(41.167,7)"
             d="M 1.3084868e-6,-4.0040002 0.89895399,-1.237304 3.8080309,-1.2373029 1.4545381,0.47260808 2.3534912,3.239305 0,1.5293919 l -2.3534933,1.7099115 0.8989552,-2.76669531 -2.353492,-1.70991339 2.9090761,1.3e-6 z"
             points="2.3535,3.2393 0,1.5294 -2.3535,3.2393 -1.4545,0.47261 -3.808,-1.2373 -0.89895,-1.2373 0,-4.004 0.89895,-1.2373 3.808,-1.2373 1.4545,0.47261 " />
          <polygon
             id="polygon237"
             transform="translate(57.633,7)"
             d="M 1.3084868e-6,-4.0040002 0.89895399,-1.237304 3.8080309,-1.2373029 1.4545381,0.47260808 2.3534912,3.239305 0,1.5293919 l -2.3534933,1.7099115 0.8989552,-2.76669531 -2.353492,-1.70991339 2.9090761,1.3e-6 z"
             points="2.3535,3.2393 0,1.5294 -2.3535,3.2393 -1.4545,0.47261 -3.808,-1.2373 -0.89895,-1.2373 0,-4.004 0.89895,-1.2373 3.808,-1.2373 1.4545,0.47261 " />
          <polygon
             id="polygon238"
             transform="translate(74.1,7)"
             d="M 1.3084868e-6,-4.0040002 0.89895399,-1.237304 3.8080309,-1.2373029 1.4545381,0.47260808 2.3534912,3.239305 0,1.5293919 l -2.3534933,1.7099115 0.8989552,-2.76669531 -2.353492,-1.70991339 2.9090761,1.3e-6 z"
             points="2.3535,3.2393 0,1.5294 -2.3535,3.2393 -1.4545,0.47261 -3.808,-1.2373 -0.89895,-1.2373 0,-4.004 0.89895,-1.2373 3.808,-1.2373 1.4545,0.47261 " />
          <polygon
             id="polygon239"
             transform="translate(90.567,7)"
             d="M 1.3084868e-6,-4.0040002 0.89895399,-1.237304 3.8080309,-1.2373029 1.4545381,0.47260808 2.3534912,3.239305 0,1.5293919 l -2.3534933,1.7099115 0.8989552,-2.76669531 -2.353492,-1.70991339 2.9090761,1.3e-6 z"
             points="2.3535,3.2393 0,1.5294 -2.3535,3.2393 -1.4545,0.47261 -3.808,-1.2373 -0.89895,-1.2373 0,-4.004 0.89895,-1.2373 3.808,-1.2373 1.4545,0.47261 " />
        </g>
        <g
           id="g240">
          <polygon
             id="polygon241"
             transform="translate(16.467,14)"
             d="M 1.3084868e-6,-4.0040002 0.89895399,-1.237304 3.8080309,-1.2373029 1.4545381,0.47260808 2.3534912,3.239305 0,1.5293919 l -2.3534933,1.7099115 0.8989552,-2.76669531 -2.353492,-1.70991339 2.9090761,1.3e-6 z"
             points="2.3535,3.2393 0,1.5294 -2.3535,3.2393 -1.4545,0.47261 -3.808,-1.2373 -0.89895,-1.2373 0,-4.004 0.89895,-1.2373 3.808,-1.2373 1.4545,0.47261 " />
          <polygon
             id="polygon242"
             transform="translate(32.933,14)"
             d="M 1.3084868e-6,-4.0040002 0.89895399,-1.237304 3.8080309,-1.2373029 1.4545381,0.47260808 2.3534912,3.239305 0,1.5293919 l -2.3534933,1.7099115 0.8989552,-2.76669531 -2.353492,-1.70991339 2.9090761,1.3e-6 z"
             points="2.3535,3.2393 0,1.5294 -2.3535,3.2393 -1.4545,0.47261 -3.808,-1.2373 -0.89895,-1.2373 0,-4.004 0.89895,-1.2373 3.808,-1.2373 1.4545,0.47261 " />
          <polygon
             id="polygon243"
             transform="translate(49.4,14)"
             d="M 1.3084868e-6,-4.0040002 0.89895399,-1.237304 3.8080309,-1.2373029 1.4545381,0.47260808 2.3534912,3.239305 0,1.5293919 l -2.3534933,1.7099115 0.8989552,-2.76669531 -2.353492,-1.70991339 2.9090761,1.3e-6 z"
             points="2.3535,3.2393 0,1.5294 -2.3535,3.2393 -1.4545,0.47261 -3.808,-1.2373 -0.89895,-1.2373 0,-4.004 0.89895,-1.2373 3.808,-1.2373 1.4545,0.47261 " />
          <polygon
             id="polygon244"
             transform="translate(65.867,14)"
             d="M 1.3084868e-6,-4.0040002 0.89895399,-1.237304 3.8080309,-1.2373029 1.4545381,0.47260808 2.3534912,3.239305 0,1.5293919 l -2.3534933,1.7099115 0.8989552,-2.76669531 -2.353492,-1.70991339 2.9090761,1.3e-6 z"
             points="2.3535,3.2393 0,1.5294 -2.3535,3.2393 -1.4545,0.47261 -3.808,-1.2373 -0.89895,-1.2373 0,-4.004 0.89895,-1.2373 3.808,-1.2373 1.4545,0.47261 " />
          <polygon
             id="polygon245"
             transform="translate(82.333,14)"
             d="M 1.3084868e-6,-4.0040002 0.89895399,-1.237304 3.8080309,-1.2373029 1.4545381,0.47260808 2.3534912,3.239305 0,1.5293919 l -2.3534933,1.7099115 0.8989552,-2.76669531 -2.353492,-1.70991339 2.9090761,1.3e-6 z"
             points="2.3535,3.2393 0,1.5294 -2.3535,3.2393 -1.4545,0.47261 -3.808,-1.2373 -0.89895,-1.2373 0,-4.004 0.89895,-1.2373 3.808,-1.2373 1.4545,0.47261 " />
        </g>
      </g>
      <g
         id="g246"
         transform="translate(0,28)">
        <g
           id="g247">
          <polygon
             id="polygon248"
             transform="translate(8.2333,7)"
             d="M 1.3084868e-6,-4.0040002 0.89895399,-1.237304 3.8080309,-1.2373029 1.4545381,0.47260808 2.3534912,3.239305 0,1.5293919 l -2.3534933,1.7099115 0.8989552,-2.76669531 -2.353492,-1.70991339 2.9090761,1.3e-6 z"
             points="2.3535,3.2393 0,1.5294 -2.3535,3.2393 -1.4545,0.47261 -3.808,-1.2373 -0.89895,-1.2373 0,-4.004 0.89895,-1.2373 3.808,-1.2373 1.4545,0.47261 " />
          <polygon
             id="polygon249"
             transform="translate(24.7,7)"
             d="M 1.3084868e-6,-4.0040002 0.89895399,-1.237304 3.8080309,-1.2373029 1.4545381,0.47260808 2.3534912,3.239305 0,1.5293919 l -2.3534933,1.7099115 0.8989552,-2.76669531 -2.353492,-1.70991339 2.9090761,1.3e-6 z"
             points="2.3535,3.2393 0,1.5294 -2.3535,3.2393 -1.4545,0.47261 -3.808,-1.2373 -0.89895,-1.2373 0,-4.004 0.89895,-1.2373 3.808,-1.2373 1.4545,0.47261 " />
          <polygon
             id="polygon250"
             transform="translate(41.167,7)"
             d="M 1.3084868e-6,-4.0040002 0.89895399,-1.237304 3.8080309,-1.2373029 1.4545381,0.47260808 2.3534912,3.239305 0,1.5293919 l -2.3534933,1.7099115 0.8989552,-2.76669531 -2.353492,-1.70991339 2.9090761,1.3e-6 z"
             points="2.3535,3.2393 0,1.5294 -2.3535,3.2393 -1.4545,0.47261 -3.808,-1.2373 -0.89895,-1.2373 0,-4.004 0.89895,-1.2373 3.808,-1.2373 1.4545,0.47261 " />
          <polygon
             id="polygon251"
             transform="translate(57.633,7)"
             d="M 1.3084868e-6,-4.0040002 0.89895399,-1.237304 3.8080309,-1.2373029 1.4545381,0.47260808 2.3534912,3.239305 0,1.5293919 l -2.3534933,1.7099115 0.8989552,-2.76669531 -2.353492,-1.70991339 2.9090761,1.3e-6 z"
             points="2.3535,3.2393 0,1.5294 -2.3535,3.2393 -1.4545,0.47261 -3.808,-1.2373 -0.89895,-1.2373 0,-4.004 0.89895,-1.2373 3.808,-1.2373 1.4545,0.47261 " />
          <polygon
             id="polygon252"
             transform="translate(74.1,7)"
             d="M 1.3084868e-6,-4.0040002 0.89895399,-1.237304 3.8080309,-1.2373029 1.4545381,0.47260808 2.3534912,3.239305 0,1.5293919 l -2.3534933,1.7099115 0.8989552,-2.76669531 -2.353492,-1.70991339 2.9090761,1.3e-6 z"
             points="2.3535,3.2393 0,1.5294 -2.3535,3.2393 -1.4545,0.47261 -3.808,-1.2373 -0.89895,-1.2373 0,-4.004 0.89895,-1.2373 3.808,-1.2373 1.4545,0.47261 " />
          <polygon
             id="polygon253"
             transform="translate(90.567,7)"
             d="M 1.3084868e-6,-4.0040002 0.89895399,-1.237304 3.8080309,-1.2373029 1.4545381,0.47260808 2.3534912,3.239305 0,1.5293919 l -2.3534933,1.7099115 0.8989552,-2.76669531 -2.353492,-1.70991339 2.9090761,1.3e-6 z"
             points="2.3535,3.2393 0,1.5294 -2.3535,3.2393 -1.4545,0.47261 -3.808,-1.2373 -0.89895,-1.2373 0,-4.004 0.89895,-1.2373 3.808,-1.2373 1.4545,0.47261 " />
        </g>
        <g
           id="g254">
          <polygon
             id="polygon255"
             transform="translate(16.467,14)"
             d="M 1.3084868e-6,-4.0040002 0.89895399,-1.237304 3.8080309,-1.2373029 1.4545381,0.47260808 2.3534912,3.239305 0,1.5293919 l -2.3534933,1.7099115 0.8989552,-2.76669531 -2.353492,-1.70991339 2.9090761,1.3e-6 z"
             points="2.3535,3.2393 0,1.5294 -2.3535,3.2393 -1.4545,0.47261 -3.808,-1.2373 -0.89895,-1.2373 0,-4.004 0.89895,-1.2373 3.808,-1.2373 1.4545,0.47261 " />
          <polygon
             id="polygon256"
             transform="translate(32.933,14)"
             d="M 1.3084868e-6,-4.0040002 0.89895399,-1.237304 3.8080309,-1.2373029 1.4545381,0.47260808 2.3534912,3.239305 0,1.5293919 l -2.3534933,1.7099115 0.8989552,-2.76669531 -2.353492,-1.70991339 2.9090761,1.3e-6 z"
             points="2.3535,3.2393 0,1.5294 -2.3535,3.2393 -1.4545,0.47261 -3.808,-1.2373 -0.89895,-1.2373 0,-4.004 0.89895,-1.2373 3.808,-1.2373 1.4545,0.47261 " />
          <polygon
             id="polygon257"
             transform="translate(49.4,14)"
             d="M 1.3084868e-6,-4.0040002 0.89895399,-1.237304 3.8080309,-1.2373029 1.4545381,0.47260808 2.3534912,3.239305 0,1.5293919 l -2.3534933,1.7099115 0.8989552,-2.76669531 -2.353492,-1.70991339 2.9090761,1.3e-6 z"
             points="2.3535,3.2393 0,1.5294 -2.3535,3.2393 -1.4545,0.47261 -3.808,-1.2373 -0.89895,-1.2373 0,-4.004 0.89895,-1.2373 3.808,-1.2373 1.4545,0.47261 " />
          <polygon
             id="polygon258"
             transform="translate(65.867,14)"
             d="M 1.3084868e-6,-4.0040002 0.89895399,-1.237304 3.8080309,-1.2373029 1.4545381,0.47260808 2.3534912,3.239305 0,1.5293919 l -2.3534933,1.7099115 0.8989552,-2.76669531 -2.353492,-1.70991339 2.9090761,1.3e-6 z"
             points="2.3535,3.2393 0,1.5294 -2.3535,3.2393 -1.4545,0.47261 -3.808,-1.2373 -0.89895,-1.2373 0,-4.004 0.89895,-1.2373 3.808,-1.2373 1.4545,0.47261 " />
          <polygon
             id="polygon259"
             transform="translate(82.333,14)"
             d="M 1.3084868e-6,-4.0040002 0.89895399,-1.237304 3.8080309,-1.2373029 1.4545381,0.47260808 2.3534912,3.239305 0,1.5293919 l -2.3534933,1.7099115 0.8989552,-2.76669531 -2.353492,-1.70991339 2.9090761,1.3e-6 z"
             points="2.3535,3.2393 0,1.5294 -2.3535,3.2393 -1.4545,0.47261 -3.808,-1.2373 -0.89895,-1.2373 0,-4.004 0.89895,-1.2373 3.808,-1.2373 1.4545,0.47261 " />
        </g>
      </g>
      <g
         id="g260"
         transform="translate(0,42)">
        <g
           id="g261">
          <polygon
             id="polygon262"
             transform="translate(8.2333,7)"
             d="M 1.3084868e-6,-4.0040002 0.89895399,-1.237304 3.8080309,-1.2373029 1.4545381,0.47260808 2.3534912,3.239305 0,1.5293919 l -2.3534933,1.7099115 0.8989552,-2.76669531 -2.353492,-1.70991339 2.9090761,1.3e-6 z"
             points="2.3535,3.2393 0,1.5294 -2.3535,3.2393 -1.4545,0.47261 -3.808,-1.2373 -0.89895,-1.2373 0,-4.004 0.89895,-1.2373 3.808,-1.2373 1.4545,0.47261 " />
          <polygon
             id="polygon263"
             transform="translate(24.7,7)"
             d="M 1.3084868e-6,-4.0040002 0.89895399,-1.237304 3.8080309,-1.2373029 1.4545381,0.47260808 2.3534912,3.239305 0,1.5293919 l -2.3534933,1.7099115 0.8989552,-2.76669531 -2.353492,-1.70991339 2.9090761,1.3e-6 z"
             points="2.3535,3.2393 0,1.5294 -2.3535,3.2393 -1.4545,0.47261 -3.808,-1.2373 -0.89895,-1.2373 0,-4.004 0.89895,-1.2373 3.808,-1.2373 1.4545,0.47261 " />
          <polygon
             id="polygon264"
             transform="translate(41.167,7)"
             d="M 1.3084868e-6,-4.0040002 0.89895399,-1.237304 3.8080309,-1.2373029 1.4545381,0.47260808 2.3534912,3.239305 0,1.5293919 l -2.3534933,1.7099115 0.8989552,-2.76669531 -2.353492,-1.70991339 2.9090761,1.3e-6 z"
             points="2.3535,3.2393 0,1.5294 -2.3535,3.2393 -1.4545,0.47261 -3.808,-1.2373 -0.89895,-1.2373 0,-4.004 0.89895,-1.2373 3.808,-1.2373 1.4545,0.47261 " />
          <polygon
             id="polygon265"
             transform="translate(57.633,7)"
             d="M 1.3084868e-6,-4.0040002 0.89895399,-1.237304 3.8080309,-1.2373029 1.4545381,0.47260808 2.3534912,3.239305 0,1.5293919 l -2.3534933,1.7099115 0.8989552,-2.76669531 -2.353492,-1.70991339 2.9090761,1.3e-6 z"
             points="2.3535,3.2393 0,1.5294 -2.3535,3.2393 -1.4545,0.47261 -3.808,-1.2373 -0.89895,-1.2373 0,-4.004 0.89895,-1.2373 3.808,-1.2373 1.4545,0.47261 " />
          <polygon
             id="polygon266"
             transform="translate(74.1,7)"
             d="M 1.3084868e-6,-4.0040002 0.89895399,-1.237304 3.8080309,-1.2373029 1.4545381,0.47260808 2.3534912,3.239305 0,1.5293919 l -2.3534933,1.7099115 0.8989552,-2.76669531 -2.353492,-1.70991339 2.9090761,1.3e-6 z"
             points="2.3535,3.2393 0,1.5294 -2.3535,3.2393 -1.4545,0.47261 -3.808,-1.2373 -0.89895,-1.2373 0,-4.004 0.89895,-1.2373 3.808,-1.2373 1.4545,0.47261 " />
          <polygon
             id="polygon267"
             transform="translate(90.567,7)"
             d="M 1.3084868e-6,-4.0040002 0.89895399,-1.237304 3.8080309,-1.2373029 1.4545381,0.47260808 2.3534912,3.239305 0,1.5293919 l -2.3534933,1.7099115 0.8989552,-2.76669531 -2.353492,-1.70991339 2.9090761,1.3e-6 z"
             points="2.3535,3.2393 0,1.5294 -2.3535,3.2393 -1.4545,0.47261 -3.808,-1.2373 -0.89895,-1.2373 0,-4.004 0.89895,-1.2373 3.808,-1.2373 1.4545,0.47261 " />
        </g>
        <g
           id="g268">
          <polygon
             id="polygon269"
             transform="translate(16.467,14)"
             d="M 1.3084868e-6,-4.0040002 0.89895399,-1.237304 3.8080309,-1.2373029 1.4545381,0.47260808 2.3534912,3.239305 0,1.5293919 l -2.3534933,1.7099115 0.8989552,-2.76669531 -2.353492,-1.70991339 2.9090761,1.3e-6 z"
             points="2.3535,3.2393 0,1.5294 -2.3535,3.2393 -1.4545,0.47261 -3.808,-1.2373 -0.89895,-1.2373 0,-4.004 0.89895,-1.2373 3.808,-1.2373 1.4545,0.47261 " />
          <polygon
             id="polygon270"
             transform="translate(32.933,14)"
             d="M 1.3084868e-6,-4.0040002 0.89895399,-1.237304 3.8080309,-1.2373029 1.4545381,0.47260808 2.3534912,3.239305 0,1.5293919 l -2.3534933,1.7099115 0.8989552,-2.76669531 -2.353492,-1.70991339 2.9090761,1.3e-6 z"
             points="2.3535,3.2393 0,1.5294 -2.3535,3.2393 -1.4545,0.47261 -3.808,-1.2373 -0.89895,-1.2373 0,-4.004 0.89895,-1.2373 3.808,-1.2373 1.4545,0.47261 " />
          <polygon
             id="polygon271"
             transform="translate(49.4,14)"
             d="M 1.3084868e-6,-4.0040002 0.89895399,-1.237304 3.8080309,-1.2373029 1.4545381,0.47260808 2.3534912,3.239305 0,1.5293919 l -2.3534933,1.7099115 0.8989552,-2.76669531 -2.353492,-1.70991339 2.9090761,1.3e-6 z"
             points="2.3535,3.2393 0,1.5294 -2.3535,3.2393 -1.4545,0.47261 -3.808,-1.2373 -0.89895,-1.2373 0,-4.004 0.89895,-1.2373 3.808,-1.2373 1.4545,0.47261 " />
          <polygon
             id="polygon272"
             transform="translate(65.867,14)"
             d="M 1.3084868e-6,-4.0040002 0.89895399,-1.237304 3.8080309,-1.2373029 1.4545381,0.47260808 2.3534912,3.239305 0,1.5293919 l -2.3534933,1.7099115 0.8989552,-2.76669531 -2.353492,-1.70991339 2.9090761,1.3e-6 z"
             points="2.3535,3.2393 0,1.5294 -2.3535,3.2393 -1.4545,0.47261 -3.808,-1.2373 -0.89895,-1.2373 0,-4.004 0.89895,-1.2373 3.808,-1.2373 1.4545,0.47261 " />
          <polygon
             id="polygon273"
             transform="translate(82.333,14)"
             d="M 1.3084868e-6,-4.0040002 0.89895399,-1.237304 3.8080309,-1.2373029 1.4545381,0.47260808 2.3534912,3.239305 0,1.5293919 l -2.3534933,1.7099115 0.8989552,-2.76669531 -2.353492,-1.70991339 2.9090761,1.3e-6 z"
             points="2.3535,3.2393 0,1.5294 -2.3535,3.2393 -1.4545,0.47261 -3.808,-1.2373 -0.89895,-1.2373 0,-4.004 0.89895,-1.2373 3.808,-1.2373 1.4545,0.47261 " />
        </g>
      </g>
      <g
         id="g211"
         transform="translate(0,56)">
        <polygon
           id="polygon212"
           transform="translate(8.2333,7)"
           d="M 1.3084868e-6,-4.0040002 0.89895399,-1.237304 3.8080309,-1.2373029 1.4545381,0.47260808 2.3534912,3.239305 0,1.5293919 l -2.3534933,1.7099115 0.8989552,-2.76669531 -2.353492,-1.70991339 2.9090761,1.3e-6 z"
           points="2.3535,3.2393 0,1.5294 -2.3535,3.2393 -1.4545,0.47261 -3.808,-1.2373 -0.89895,-1.2373 0,-4.004 0.89895,-1.2373 3.808,-1.2373 1.4545,0.47261 " />
        <polygon
           id="polygon213"
           transform="translate(24.7,7)"
           d="M 1.3084868e-6,-4.0040002 0.89895399,-1.237304 3.8080309,-1.2373029 1.4545381,0.47260808 2.3534912,3.239305 0,1.5293919 l -2.3534933,1.7099115 0.8989552,-2.76669531 -2.353492,-1.70991339 2.9090761,1.3e-6 z"
           points="2.3535,3.2393 0,1.5294 -2.3535,3.2393 -1.4545,0.47261 -3.808,-1.2373 -0.89895,-1.2373 0,-4.004 0.89895,-1.2373 3.808,-1.2373 1.4545,0.47261 " />
        <polygon
           id="polygon214"
           transform="translate(41.167,7)"
           d="M 1.3084868e-6,-4.0040002 0.89895399,-1.237304 3.8080309,-1.2373029 1.4545381,0.47260808 2.3534912,3.239305 0,1.5293919 l -2.3534933,1.7099115 0.8989552,-2.76669531 -2.353492,-1.70991339 2.9090761,1.3e-6 z"
           points="2.3535,3.2393 0,1.5294 -2.3535,3.2393 -1.4545,0.47261 -3.808,-1.2373 -0.89895,-1.2373 0,-4.004 0.89895,-1.2373 3.808,-1.2373 1.4545,0.47261 " />
        <polygon
           id="polygon215"
           transform="translate(57.633,7)"
           d="M 1.3084868e-6,-4.0040002 0.89895399,-1.237304 3.8080309,-1.2373029 1.4545381,0.47260808 2.3534912,3.239305 0,1.5293919 l -2.3534933,1.7099115 0.8989552,-2.76669531 -2.353492,-1.70991339 2.9090761,1.3e-6 z"
           points="2.3535,3.2393 0,1.5294 -2.3535,3.2393 -1.4545,0.47261 -3.808,-1.2373 -0.89895,-1.2373 0,-4.004 0.89895,-1.2373 3.808,-1.2373 1.4545,0.47261 " />
        <polygon
           id="polygon216"
           transform="translate(74.1,7)"
           d="M 1.3084868e-6,-4.0040002 0.89895399,-1.237304 3.8080309,-1.2373029 1.4545381,0.47260808 2.3534912,3.239305 0,1.5293919 l -2.3534933,1.7099115 0.8989552,-2.76669531 -2.353492,-1.70991339 2.9090761,1.3e-6 z"
           points="2.3535,3.2393 0,1.5294 -2.3535,3.2393 -1.4545,0.47261 -3.808,-1.2373 -0.89895,-1.2373 0,-4.004 0.89895,-1.2373 3.808,-1.2373 1.4545,0.47261 " />
        <polygon
           id="polygon217"
           transform="translate(90.567,7)"
           d="M 1.3084868e-6,-4.0040002 0.89895399,-1.237304 3.8080309,-1.2373029 1.4545381,0.47260808 2.3534912,3.239305 0,1.5293919 l -2.3534933,1.7099115 0.8989552,-2.76669531 -2.353492,-1.70991339 2.9090761,1.3e-6 z"
           points="2.3535,3.2393 0,1.5294 -2.3535,3.2393 -1.4545,0.47261 -3.808,-1.2373 -0.89895,-1.2373 0,-4.004 0.89895,-1.2373 3.808,-1.2373 1.4545,0.47261 " />
      </g>
    </g>
  </g>
</svg>
