<?xml version="1.0" encoding="UTF-8" standalone="no"?>
<!-- Created with Sodipodi ("http://www.sodipodi.com/") -->

<svg
   xmlns:dc="http://purl.org/dc/elements/1.1/"
   xmlns:cc="http://creativecommons.org/ns#"
   xmlns:rdf="http://www.w3.org/1999/02/22-rdf-syntax-ns#"
   xmlns:svg="http://www.w3.org/2000/svg"
   xmlns="http://www.w3.org/2000/svg"
   xmlns:sodipodi="http://sodipodi.sourceforge.net/DTD/sodipodi-0.dtd"
   xmlns:inkscape="http://www.inkscape.org/namespaces/inkscape"
   id="svg378"
   height="480"
   width="640"
   version="1"
   y="0"
   x="0"
   sodipodi:docname="gb.svg"
   inkscape:version="0.92.0 r">
  <defs
     id="defs10">
    <clipPath
       id="clipPath3133"
       clipPathUnits="userSpaceOnUse">
      <rect
         style="fill-opacity:0.67000002"
         id="rect3135"
         height="512"
         width="682.66998"
         y="7.1053998e-15"
         x="-85.333" />
    </clipPath>
    <clipPath
       id="clipPath3688"
       clipPathUnits="userSpaceOnUse">
      <rect
         style="fill-opacity:0.67000002"
         id="rect3690"
         height="480"
         width="640"
         y="32"
         x="-78.014999" />
    </clipPath>
    <clipPath
       id="clipPath3605"
       clipPathUnits="userSpaceOnUse">
      <rect
         style="fill-opacity:0.67000002"
         id="rect3607"
         height="512"
         width="682.66998"
         y="-1.9137999e-06"
         x="-19.451" />
    </clipPath>
    <clipPath
       id="clipPath4935"
       clipPathUnits="userSpaceOnUse">
      <rect
         style="fill-opacity:0.67000002"
         id="rect4937"
         height="90"
         width="120"
         y="0"
         x="0" />
    </clipPath>
    <clipPath
       id="clipPath5745"
       clipPathUnits="userSpaceOnUse">
      <rect
         style="fill-opacity:0.67000002"
         id="rect5747"
         height="512"
         width="682.66998"
         y="1.25e-05"
         x="-84.948997" />
    </clipPath>
    <clipPath
       id="clipPath8578"
       clipPathUnits="userSpaceOnUse">
      <rect
         style="fill-opacity:0.67000002"
         id="rect8580"
         height="512"
         width="512"
         y="-15.957"
         x="0" />
    </clipPath>
    <clipPath
       id="clipPath3532"
       clipPathUnits="userSpaceOnUse">
      <rect
         style="fill-opacity:0.67000002"
         id="rect3534"
         height="512.01001"
         width="682.67999"
         y="-0.012254"
         x="-71.873001" />
    </clipPath>
    <clipPath
       id="clipPath3665"
       clipPathUnits="userSpaceOnUse">
      <rect
         style="fill-opacity:0.67000002"
         id="rect3667"
         height="120"
         width="160"
         y="8.1250001e-08"
         x="10" />
    </clipPath>
    <clipPath
       id="clipPath8673"
       clipPathUnits="userSpaceOnUse">
      <rect
         style="fill-opacity:0.67000002"
         id="rect8675"
         height="512"
         width="682.66998"
         y="-2.8612999e-06"
         x="-85.333" />
    </clipPath>
  </defs>
  <sodipodi:namedview
     pagecolor="#ffffff"
     bordercolor="#666666"
     borderopacity="1"
     objecttolerance="10"
     gridtolerance="10"
     guidetolerance="10"
     inkscape:pageopacity="0"
     inkscape:pageshadow="2"
     inkscape:window-width="1020"
     inkscape:window-height="1035"
     id="namedview8"
     showgrid="false"
     inkscape:zoom="0.69532167"
     inkscape:cx="301.61105"
     inkscape:cy="217.17176"
     inkscape:window-x="848"
     inkscape:window-y="34"
     inkscape:window-maximized="0"
     inkscape:current-layer="svg378" />
  <metadata
     id="metadata4346">
    <rdf:RDF>
      <cc:Work
         rdf:about="">
        <dc:format>image/svg+xml</dc:format>
        <dc:type
           rdf:resource="http://purl.org/dc/dcmitype/StillImage" />
        <dc:title></dc:title>
      </cc:Work>
    </rdf:RDF>
  </metadata>
  <g
     id="flag"
     clip-path="url(#clipPath8673)"
     transform="matrix(0.9375,0,0,0.9375,80,2.25e-6)">
    <g
       style="stroke-width:1.00000003pt"
       id="g578"
       transform="matrix(17.067,0,0,17.067,-256,-2.4e-6)">
      <rect
         style="fill:#000066"
         id="rect124"
         height="30"
         width="60"
         y="0"
         x="0" />
      <g
         id="g584">
        <path
           style="fill:#ffffff"
           inkscape:connector-curvature="0"
           id="path146"
           d="m 0,0 v 3.3541 l 53.292,26.646 H 60 v -3.354 L 6.708,1e-4 H 0 Z M 60,0 V 3.354 L 6.708,30 H 0 V 26.646 L 53.292,0 Z" />
        <path
           style="fill:#ffffff"
           inkscape:connector-curvature="0"
           id="path136"
           d="M 25,0 V 30 H 35 V 0 Z M 0,10 V 20 H 60 V 10 Z" />
        <path
           style="fill:#cc0000"
           inkscape:connector-curvature="0"
           id="path141"
           d="m 0,12 v 6 H 60 V 12 Z M 27,0 v 30 h 6 V 0 Z" />
        <path
           style="fill:#cc0000"
           inkscape:connector-curvature="0"
           id="path150"
           d="M 0,30 20,20 h 4.472 l -20,10 z M 0,0 20,10 H 15.528 L 0,2.2361 Z m 35.528,10 20,-10 H 60 L 40,10 Z M 60,30 40,20 h 4.472 L 60,27.764 Z" />
      </g>
    </g>
  </g>
</svg>
