<?xml version="1.0" encoding="UTF-8" standalone="no"?>
<svg
   xmlns:dc="http://purl.org/dc/elements/1.1/"
   xmlns:cc="http://creativecommons.org/ns#"
   xmlns:rdf="http://www.w3.org/1999/02/22-rdf-syntax-ns#"
   xmlns:svg="http://www.w3.org/2000/svg"
   xmlns="http://www.w3.org/2000/svg"
   xmlns:xlink="http://www.w3.org/1999/xlink"
   xmlns:sodipodi="http://sodipodi.sourceforge.net/DTD/sodipodi-0.dtd"
   xmlns:inkscape="http://www.inkscape.org/namespaces/inkscape"
   sodipodi:docname="ct_find_again.svg"
   inkscape:version="1.0 (4035a4fb49, 2020-05-01)"
   id="svg8"
   version="1.1"
   viewBox="0 0 12.7 12.7"
   height="48"
   width="48">
  <defs
     id="defs2">
    <linearGradient
       x1="23.731871"
       y1="4.4175272"
       x2="23.731871"
       y2="39.454281"
       id="linearGradient3254"
       xlink:href="#linearGradient3242-7-3-8-0-4-58-06"
       gradientUnits="userSpaceOnUse"
       gradientTransform="matrix(0.27562172,0,0,0.25654228,-21.44355,-14.676707)" />
    <linearGradient
       id="linearGradient3242-7-3-8-0-4-58-06">
      <stop
         id="stop3244-5-8-5-6-4-3-8"
         style="stop-color:#cdf87e;stop-opacity:1"
         offset="0" />
      <stop
         id="stop3246-9-5-1-5-3-0-7"
         style="stop-color:#a2e34f;stop-opacity:1"
         offset="0.26238" />
      <stop
         id="stop3248-7-2-0-7-5-35-9"
         style="stop-color:#68b723;stop-opacity:1"
         offset="0.66093999" />
      <stop
         id="stop3250-8-2-8-5-6-40-4"
         style="stop-color:#1d7e0d;stop-opacity:1"
         offset="1" />
    </linearGradient>
    <linearGradient
       x1="38.940514"
       y1="15.991243"
       x2="20.576487"
       y2="15.991243"
       id="linearGradient3198-5"
       xlink:href="#linearGradient4087-4-6"
       gradientUnits="userSpaceOnUse"
       gradientTransform="matrix(0,-0.30064855,0.3230083,0,-20.952171,-0.797489)" />
    <linearGradient
       id="linearGradient4087-4-6">
      <stop
         id="stop4089-0-9"
         style="stop-color:#ffffff;stop-opacity:1"
         offset="0" />
      <stop
         id="stop4091-5-8"
         style="stop-color:#ffffff;stop-opacity:0.23529412"
         offset="0.51153916" />
      <stop
         id="stop4093-9-7"
         style="stop-color:#ffffff;stop-opacity:0.15686275"
         offset="0.58522105" />
      <stop
         id="stop4095-4-2"
         style="stop-color:#ffffff;stop-opacity:0.39215687"
         offset="1" />
    </linearGradient>
  </defs>
  <sodipodi:namedview
     inkscape:window-maximized="1"
     inkscape:window-y="22"
     inkscape:window-x="-8"
     inkscape:window-height="715"
     inkscape:window-width="1366"
     units="px"
     inkscape:showpageshadow="false"
     showgrid="false"
     inkscape:document-rotation="0"
     inkscape:current-layer="layer1"
     inkscape:document-units="mm"
     inkscape:cy="47.937427"
     inkscape:cx="3.540083"
     inkscape:zoom="5.3732394"
     inkscape:pageshadow="2"
     inkscape:pageopacity="0.0"
     borderopacity="1.0"
     bordercolor="#666666"
     pagecolor="#ffffff"
     id="base" />
  <metadata
     id="metadata5">
    <rdf:RDF>
      <cc:Work
         rdf:about="">
        <dc:format>image/svg+xml</dc:format>
        <dc:type
           rdf:resource="http://purl.org/dc/dcmitype/StillImage" />
        <dc:title></dc:title>
      </cc:Work>
    </rdf:RDF>
  </metadata>
  <g
     id="layer1"
     inkscape:groupmode="layer"
     inkscape:label="Capa 1">
    <path
       id="path39"
       style="fill:#333333;stroke-width:2.26957;stroke-linecap:round;stop-color:#000000"
       d="M 5.0601193,0.0061551 A 5.0524082,5.0401756 0 0 0 0.00746497,5.0465762 5.0524082,5.0401756 0 0 0 5.0601193,10.086998 5.0524082,5.0401756 0 0 0 7.9293939,9.1948097 c 0.033462,0.056923 0.071464,0.1115404 0.1205229,0.1604804 l 3.1201492,3.1125939 c 0.308632,0.307885 0.805559,0.307885 1.114191,0 l 0.184664,-0.184732 c 0.308632,-0.307885 0.308632,-0.803609 0,-1.111494 L 9.349289,8.0595798 C 9.3021308,8.012536 9.2492335,7.9751123 9.1946263,7.9424446 A 5.0524082,5.0401756 0 0 0 10.112257,5.0465762 5.0524082,5.0401756 0 0 0 5.0601193,0.0061551 Z m -0.036726,1.0691803 a 3.9806855,3.9710477 0 0 1 0.036726,0 3.9806855,3.9710477 0 0 1 3.980879,3.9712408 A 3.9806855,3.9710477 0 0 1 5.0601193,9.017817 3.9806855,3.9710477 0 0 1 1.0792402,5.0465762 3.9806855,3.9710477 0 0 1 5.0233933,1.0753354 Z" />
    <g
       transform="translate(19.155834,17.322668)"
       id="g59">
      <path
         d="m -17.224144,-4.751082 c -3.49968,-2.36251 -1.460072,-6.70133 2.440787,-6.665717 v -2.21222 l 4.762496,3.621265 -4.762496,3.621261 v -2.207445 c -2.515896,-0.09757 -3.888041,2.194358 -2.089429,3.842856 z"
         id="path3503-3-3"
         style="display:block;overflow:visible;visibility:visible;fill:url(#linearGradient3254);fill-opacity:1;fill-rule:nonzero;stroke:none;stroke-width:0.264583;stroke-linecap:butt;stroke-linejoin:round;stroke-miterlimit:7;stroke-dasharray:none;stroke-dashoffset:0;stroke-opacity:1;marker:none" />
      <path
         d="m -17.626647,-5.329909 c -2.562608,-2.253898 -0.531078,-6.067285 3.08623,-5.821089 l 0.02164,-1.956809 4.087513,3.09396 -4.087513,3.104694 v -1.922515 c -3.75294,-0.08571 -3.704934,2.855501 -3.107874,3.501759 z"
         id="path3505-6-2"
         style="display:block;overflow:visible;visibility:visible;opacity:0.7;fill:none;stroke:url(#linearGradient3198-5);stroke-width:0.255038;stroke-linecap:butt;stroke-linejoin:miter;stroke-miterlimit:7;stroke-dasharray:none;stroke-dashoffset:0;stroke-opacity:1;marker:none" />
      <path
         d="m -17.224144,-4.751082 c -3.49968,-2.36251 -1.460072,-6.70133 2.440787,-6.665717 v -2.21222 l 4.762496,3.621265 -4.762496,3.621261 v -2.207445 c -2.515896,-0.09757 -3.888041,2.194358 -2.089429,3.842856 z"
         id="path3503-3-3-7"
         style="color:#000000;clip-rule:nonzero;display:inline;overflow:visible;visibility:visible;opacity:0.5;isolation:auto;mix-blend-mode:normal;color-interpolation:sRGB;color-interpolation-filters:linearRGB;solid-color:#000000;solid-opacity:1;fill:none;fill-opacity:1;fill-rule:nonzero;stroke:#0f5a00;stroke-width:0.264583;stroke-linecap:round;stroke-linejoin:miter;stroke-miterlimit:4;stroke-dasharray:none;stroke-dashoffset:0;stroke-opacity:1;marker:none;color-rendering:auto;image-rendering:auto;shape-rendering:auto;text-rendering:auto;enable-background:accumulate" />
    </g>
  </g>
</svg>
