<?xml version="1.0" encoding="UTF-8" standalone="no"?>
<svg
   xmlns:osb="http://www.openswatchbook.org/uri/2009/osb"
   xmlns:dc="http://purl.org/dc/elements/1.1/"
   xmlns:cc="http://creativecommons.org/ns#"
   xmlns:rdf="http://www.w3.org/1999/02/22-rdf-syntax-ns#"
   xmlns:svg="http://www.w3.org/2000/svg"
   xmlns="http://www.w3.org/2000/svg"
   xmlns:xlink="http://www.w3.org/1999/xlink"
   xmlns:sodipodi="http://sodipodi.sourceforge.net/DTD/sodipodi-0.dtd"
   xmlns:inkscape="http://www.inkscape.org/namespaces/inkscape"
   inkscape:version="1.0 (4035a4fb49, 2020-05-01)"
   sodipodi:docname="ct_fmt-txt-strikethrough.svg"
   id="svg3001"
   enable-background="new"
   width="16"
   version="1.1"
   height="16">
  <sodipodi:namedview
     inkscape:current-layer="svg3001"
     inkscape:window-maximized="1"
     inkscape:window-y="22"
     inkscape:window-x="-8"
     inkscape:cy="8"
     inkscape:cx="2.6351224"
     inkscape:zoom="22.627417"
     showgrid="false"
     id="namedview22"
     inkscape:window-height="715"
     inkscape:window-width="1366"
     inkscape:pageshadow="2"
     inkscape:pageopacity="0"
     guidetolerance="10"
     gridtolerance="10"
     objecttolerance="10"
     borderopacity="1"
     bordercolor="#666666"
     pagecolor="#ffffff" />
  <metadata
     id="metadata90">
    <rdf:RDF>
      <cc:Work
         rdf:about="">
        <dc:format>image/svg+xml</dc:format>
        <dc:type
           rdf:resource="http://purl.org/dc/dcmitype/StillImage" />
        <dc:title />
      </cc:Work>
    </rdf:RDF>
  </metadata>
  <defs
     id="defs7386">
    <linearGradient
       id="linearGradient5153">
      <stop
         id="stop5155"
         offset="0"
         style="stop-color:#555555;stop-opacity:1;" />
      <stop
         id="stop5157"
         offset="1"
         style="stop-color:#666666;stop-opacity:1;" />
    </linearGradient>
    <linearGradient
       osb:paint="solid"
       id="linearGradient5606">
      <stop
         id="stop5608" />
    </linearGradient>
    <linearGradient
       gradientUnits="userSpaceOnUse"
       y2="0"
       x2="8"
       y1="16"
       x1="8"
       id="linearGradient5159"
       xlink:href="#linearGradient5153" />
    <linearGradient
       gradientTransform="translate(401.00061,71.00002)"
       y2="0"
       x2="8"
       y1="16"
       x1="8"
       gradientUnits="userSpaceOnUse"
       id="linearGradient5175"
       xlink:href="#linearGradient5153" />
    <linearGradient
       y2="0"
       x2="8"
       y1="16"
       x1="8"
       gradientUnits="userSpaceOnUse"
       id="linearGradient5188"
       xlink:href="#linearGradient5153" />
    <linearGradient
       gradientTransform="translate(401.00061,63.00002)"
       y2="0"
       x2="8"
       y1="16"
       x1="8"
       gradientUnits="userSpaceOnUse"
       id="linearGradient5889"
       xlink:href="#linearGradient5153" />
  </defs>
  <path
     style="color:#000000;opacity:1;fill:none;stroke:#ffffff;stroke-width:2;stroke-miterlimit:4;stroke-dasharray:none;stroke-opacity:1"
     d="M 1.5,6.5 V 7 9 9.5 H 2 14 14.5 V 9 7 6.5 H 14 2 Z"
     id="path26" />
  <g
     transform="translate(-401.00061,-69.00002)"
     id="layer12">
    <path
       style="opacity:1;color:#000000;fill:none;stroke:#ffffff;stroke-width:2;stroke-miterlimit:4;stroke-opacity:1;stroke-dasharray:none"
       d="m 404.50061,71.50002 0,0.5 0,2 0,0.5 0.5,0 6,0 c -0.025,0 0.17547,0.07803 0.3125,0.21875 0.13703,0.14072 0.1875,0.335318 0.1875,0.28125 l 0,0.5 -4.5,0 c -1.0585,0 -2.00902,0.424732 -2.625,1.125 -0.59855,0.680457 -0.88241,1.53948 -0.875,2.375 0.007,0.83941 0.31143,1.703294 0.90625,2.375 0.60922,0.687962 1.54227,1.125 2.59375,1.125 l 5,0 1,0 1,0 0.5,0 0,-0.5 0,-0.75 0,-0.09375 c 0.001,-0.07041 0.006,-0.115038 0,-0.15625 l 0,-0.125 0,-0.875 0,-5 c 0,-1.903521 -1.54887,-3.5 -3.5,-3.5 l -6,0 z m 2.5,7 4.5,0 0,1 -4.5,0 c -0.30589,0 -0.24379,-0.01212 -0.34375,-0.125 -0.0722,-0.08147 -0.15509,-0.244207 -0.15625,-0.375 -6.6e-4,-0.09212 0.0127,-0.198091 0.0312,-0.25 0.0186,-0.05191 0.0554,-0.08134 0.0937,-0.125 0.0851,-0.09669 0.0442,-0.125 0.375,-0.125 z"
       id="path24" />
    <path
       style="color:#000000;fill:url(#linearGradient5175);fill-opacity:1;stroke:none"
       d="m 404.50061,71.50002 0,0.5 0,2 0,0.5 0.5,0 6,0 c -0.025,0 0.17547,0.07803 0.3125,0.21875 0.13703,0.14072 0.1875,0.335318 0.1875,0.28125 l 0,0.5 -4.5,0 c -1.0585,0 -2.00902,0.424732 -2.625,1.125 -0.59855,0.680457 -0.88241,1.53948 -0.875,2.375 0.007,0.83941 0.31143,1.703294 0.90625,2.375 0.60922,0.687962 1.54227,1.125 2.59375,1.125 l 5,0 1,0 1,0 0.5,0 0,-0.5 0,-0.75 0,-0.09375 c 0.001,-0.07041 0.006,-0.115038 0,-0.15625 l 0,-0.125 0,-0.875 0,-5 c 0,-1.903521 -1.54887,-3.5 -3.5,-3.5 l -6,0 z m 2.5,7 4.5,0 0,1 -4.5,0 c -0.30589,0 -0.24379,-0.01212 -0.34375,-0.125 -0.0722,-0.08147 -0.15509,-0.244207 -0.15625,-0.375 -6.6e-4,-0.09212 0.0127,-0.198091 0.0312,-0.25 0.0186,-0.05191 0.0554,-0.08134 0.0937,-0.125 0.0851,-0.09669 0.0442,-0.125 0.375,-0.125 z"
       id="path5883" />
    <path
       id="path5885"
       d="m 404.50061,71.50002 0,0.5 0,2 0,0.5 0.5,0 6,0 c -0.025,0 0.17547,0.07803 0.3125,0.21875 0.13703,0.14072 0.1875,0.335318 0.1875,0.28125 l 0,0.5 -4.5,0 c -1.0585,0 -2.00902,0.424732 -2.625,1.125 -0.59855,0.680457 -0.88241,1.53948 -0.875,2.375 0.007,0.83941 0.31143,1.703294 0.90625,2.375 0.60922,0.687962 1.54227,1.125 2.59375,1.125 l 5,0 1,0 1,0 0.5,0 0,-0.5 0,-0.75 0,-0.09375 c 0.001,-0.07041 0.006,-0.115038 0,-0.15625 l 0,-0.125 0,-0.875 0,-5 c 0,-1.903521 -1.54887,-3.5 -3.5,-3.5 l -6,0 z m 2.5,7 4.5,0 0,1 -4.5,0 c -0.30589,0 -0.24379,-0.01212 -0.34375,-0.125 -0.0722,-0.08147 -0.15509,-0.244207 -0.15625,-0.375 -6.6e-4,-0.09212 0.0127,-0.198091 0.0312,-0.25 0.0186,-0.05191 0.0554,-0.08134 0.0937,-0.125 0.0851,-0.09669 0.0442,-0.125 0.375,-0.125 z"
       style="opacity:0.61000001;color:#000000;fill:none;stroke:#000000;stroke-width:1;stroke-miterlimit:4;stroke-opacity:1;stroke-dasharray:none" />
    <path
       style="opacity:0.2;color:#000000;fill:#ffffff;fill-opacity:1;stroke:none"
       d="m 405.00061,72.00002 0,1 6,0 c 1.67839,0 3,1.367708 3,3 l 0,-1 c 0,-1.632292 -1.32161,-3 -3,-3 z m 2,4 c -0.92475,0 -1.73627,0.384729 -2.25,0.96875 -0.5125,0.582629 -0.756,1.312003 -0.75,2.03125 0.001,0.138493 0.0423,0.268033 0.0625,0.40625 0.0976,-0.512286 0.31904,-1.018619 0.6875,-1.4375 0.51373,-0.584021 1.32525,-0.96875 2.25,-0.96875 l 4.5,0 0.5,0 0,-0.5 0,-0.46875 c 0.002,-0.02014 0,-0.01984 0,-0.03125 l -0.5,0 z m -0.875,3.46875 c -0.0224,0.04041 -0.0434,0.07175 -0.0625,0.125 -0.0655,0.184028 -0.0635,0.263225 -0.0625,0.40625 0.003,0.33834 0.11583,0.532094 0.28125,0.71875 0.005,0.0057 0.004,-0.0045 0.0312,0.03125 0.0274,0.03578 0.10948,0.1343 0.21875,0.1875 0.21855,0.1064 0.3092,0.0625 0.46875,0.0625 l 4.5,0 0.5,0 0,-0.5 0,-0.5 -0.5,0 -4.5,0 c -0.15955,0 -0.2502,0.0439 -0.46875,-0.0625 -0.10927,-0.0532 -0.19135,-0.15172 -0.21875,-0.1875 -0.0272,-0.03575 -0.0263,-0.02555 -0.0312,-0.03125 -0.0669,-0.07549 -0.11034,-0.163099 -0.15625,-0.25 z"
       id="path5887" />
    <g
       id="g5891">
      <path
         style="color:#000000;fill:url(#linearGradient5889);fill-opacity:1;stroke:none"
         d="m 402.50061,75.50002 0,0.5 0,2 0,0.5 0.5,0 12,0 0.5,0 0,-0.5 0,-2 0,-0.5 -0.5,0 -12,0 z"
         id="path11643-3-2" />
      <path
         id="path5178"
         d="m 402.50061,75.50002 0,0.5 0,2 0,0.5 0.5,0 12,0 0.5,0 0,-0.5 0,-2 0,-0.5 -0.5,0 -12,0 z"
         style="opacity:0.61000001;color:#000000;fill:none;stroke:#000000;stroke-width:1;stroke-miterlimit:4;stroke-opacity:1;stroke-dasharray:none" />
      <path
         style="opacity:0.2;color:#000000;fill:#ffffff;fill-opacity:1;stroke:none"
         d="m 403.00061,76.00002 0,1 12,0 0,-1 z"
         id="path5180" />
    </g>
  </g>
</svg>
