<?xml version="1.0" encoding="UTF-8" standalone="no"?>
<svg
   xmlns:dc="http://purl.org/dc/elements/1.1/"
   xmlns:cc="http://creativecommons.org/ns#"
   xmlns:rdf="http://www.w3.org/1999/02/22-rdf-syntax-ns#"
   xmlns:svg="http://www.w3.org/2000/svg"
   xmlns="http://www.w3.org/2000/svg"
   xmlns:sodipodi="http://sodipodi.sourceforge.net/DTD/sodipodi-0.dtd"
   xmlns:inkscape="http://www.inkscape.org/namespaces/inkscape"
   id="svg79606"
   viewBox="0 0 48 48"
   version="1.0"
   inkscape:version="0.48.4 r9939"
   width="100%"
   height="100%"
   sodipodi:docname="file_icon.svg">
  <sodipodi:namedview
     pagecolor="#ffffff"
     bordercolor="#666666"
     borderopacity="1"
     objecttolerance="10"
     gridtolerance="10"
     guidetolerance="10"
     inkscape:pageopacity="0"
     inkscape:pageshadow="2"
     inkscape:window-width="1366"
     inkscape:window-height="715"
     id="namedview18"
     showgrid="false"
     inkscape:zoom="4.9166667"
     inkscape:cx="24"
     inkscape:cy="24"
     inkscape:window-x="0"
     inkscape:window-y="0"
     inkscape:window-maximized="1"
     inkscape:current-layer="svg79606" />
  <defs
     id="defs79608">
    <radialGradient
       id="radialGradient3564"
       gradientUnits="userSpaceOnUse"
       cy="23.071"
       cx="21.762"
       gradientTransform="matrix(0.97728,3.5549e-8,0,0.65138,-0.79443,15.829)"
       r="15.571">
      <stop
         id="stop3560"
         offset="0" />
      <stop
         id="stop3562"
         stop-opacity="0"
         offset="1" />
    </radialGradient>
    <linearGradient
       id="linearGradient5789"
       y2="29.859"
       gradientUnits="userSpaceOnUse"
       y1="5.7753"
       x2="20.605"
       x1="23.506">
      <stop
         id="stop5785"
         stop-color="#d3d7cf"
         offset="0" />
      <stop
         id="stop5791"
         stop-color="#f5f5f5"
         offset=".5" />
      <stop
         id="stop5787"
         stop-color="#bebebe"
         offset="1" />
    </linearGradient>
  </defs>
  <g
     id="layer1"
     transform="matrix(1.2827631,0,0,1.2244685,-7.4708391,-6.0121517)">
    <g
       id="g3902"
       style="fill:none;stroke-linecap:round;stroke-linejoin:round">
      <path
         id="path7057"
         transform="translate(0.49405,1.0562)"
         d="m 21.326,9.3279 -10.877,18.614 c -1.9223,3.292 -0.7714,7.539 2.559,9.44 l 2.094,1.197 c 3.332,1.901 7.63,0.763 9.554,-2.529 l 11.756,-20.121 c 1.923,-3.293 1.213,-7.2884 -1.577,-8.8813 -2.79,-1.5928 -6.647,-0.2024 -8.57,3.0903 l -8.155,13.962 c -1.924,3.291 -2.131,6.771 -0.462,7.737 1.669,0.962 4.609,-0.943 6.532,-4.234 l 3.962,-6.783"
         inkscape:connector-curvature="0"
         style="stroke:#888a85;stroke-width:3" />
      <path
         id="path7053"
         transform="translate(0.49405,1.1685)"
         d="m 21.326,9.2155 -10.877,18.614 c -1.9223,3.291 -0.7714,7.539 2.559,9.44 l 2.094,1.197 c 3.332,1.901 7.63,0.762 9.554,-2.529 l 11.756,-20.122 c 1.923,-3.292 1.213,-7.2878 -1.577,-8.8806 -2.79,-1.5928 -6.647,-0.2025 -8.57,3.0896 l -8.155,13.962 c -1.924,3.292 -2.131,6.772 -0.462,7.737 1.669,0.963 4.609,-0.942 6.532,-4.234 l 3.962,-6.783"
         style="stroke:url(#linearGradient5789)"
         inkscape:connector-curvature="0" />
    </g>
    <path
       id="path3556"
       style="opacity:0.25;color:#000000;fill:url(#radialGradient3564)"
       d="m 38.143,30.857 a 15.5715,10.143326 0 1 1 -31.143,0 15.5715,10.143326 0 1 1 31.143,0 z"
       transform="matrix(1.3165,0,0,0.24648,-2.2156,33.894)"
       inkscape:connector-curvature="0" />
  </g>
  <metadata
     id="metadata16">
    <rdf:RDF>
      <cc:Work>
        <dc:format>image/svg+xml</dc:format>
        <dc:type
           rdf:resource="http://purl.org/dc/dcmitype/StillImage" />
        <cc:license
           rdf:resource="http://creativecommons.org/licenses/publicdomain/" />
        <dc:publisher>
          <cc:Agent
             rdf:about="http://openclipart.org/">
            <dc:title>Openclipart</dc:title>
          </cc:Agent>
        </dc:publisher>
        <dc:title>tango mail attachment</dc:title>
        <dc:date>2010-04-03T15:29:59</dc:date>
        <dc:description>An icon from Tango Project. Since version 0.8.90 Tango Project icons are Public Domain.</dc:description>
        <dc:source>http://openclipart.org/detail/36679/tango-mail-attachment-by-warszawianka</dc:source>
        <dc:creator>
          <cc:Agent>
            <dc:title>warszawianka</dc:title>
          </cc:Agent>
        </dc:creator>
        <dc:subject>
          <rdf:Bag>
            <rdf:li>clip art</rdf:li>
            <rdf:li>clipart</rdf:li>
            <rdf:li>externalsource</rdf:li>
            <rdf:li>icon</rdf:li>
            <rdf:li>office</rdf:li>
            <rdf:li>paperclip</rdf:li>
            <rdf:li>tango</rdf:li>
          </rdf:Bag>
        </dc:subject>
      </cc:Work>
      <cc:License
         rdf:about="http://creativecommons.org/licenses/publicdomain/">
        <cc:permits
           rdf:resource="http://creativecommons.org/ns#Reproduction" />
        <cc:permits
           rdf:resource="http://creativecommons.org/ns#Distribution" />
        <cc:permits
           rdf:resource="http://creativecommons.org/ns#DerivativeWorks" />
      </cc:License>
    </rdf:RDF>
  </metadata>
</svg>
