<?xml version="1.0" encoding="UTF-8" standalone="no"?>
<svg
   xmlns:dc="http://purl.org/dc/elements/1.1/"
   xmlns:cc="http://creativecommons.org/ns#"
   xmlns:rdf="http://www.w3.org/1999/02/22-rdf-syntax-ns#"
   xmlns:svg="http://www.w3.org/2000/svg"
   xmlns="http://www.w3.org/2000/svg"
   xmlns:sodipodi="http://sodipodi.sourceforge.net/DTD/sodipodi-0.dtd"
   xmlns:inkscape="http://www.inkscape.org/namespaces/inkscape"
   id="svg3828"
   height="16"
   width="16"
   version="1.1"
   sodipodi:docname="ct_fmt-txt-subscript.svg"
   inkscape:version="0.92.5 (2060ec1f9f, 2020-04-08)">
  <sodipodi:namedview
     inkscape:showpageshadow="false"
     inkscape:snap-global="false"
     inkscape:pagecheckerboard="true"
     inkscape:document-rotation="0"
     pagecolor="#ffffff"
     bordercolor="#666666"
     borderopacity="1"
     objecttolerance="10"
     gridtolerance="10"
     guidetolerance="10"
     inkscape:pageopacity="0"
     inkscape:pageshadow="2"
     inkscape:window-width="1366"
     inkscape:window-height="717"
     id="namedview41"
     showgrid="true"
     inkscape:zoom="24.95767"
     inkscape:cx="-10.271945"
     inkscape:cy="6.5904723"
     inkscape:window-x="0"
     inkscape:window-y="0"
     inkscape:window-maximized="1"
     inkscape:current-layer="svg3828">
    <inkscape:grid
       type="xygrid"
       id="grid864" />
  </sodipodi:namedview>
  <defs
     id="defs3830" />
  <metadata
     id="metadata3833">
    <rdf:RDF>
      <cc:Work
         rdf:about="">
        <dc:format>image/svg+xml</dc:format>
        <dc:type
           rdf:resource="http://purl.org/dc/dcmitype/StillImage" />
        <dc:title />
      </cc:Work>
    </rdf:RDF>
  </metadata>
  <g
     transform="matrix(0.27032347,0,0,0.27014444,21.492757,14.111409)"
     style="font-style:normal;font-variant:normal;font-weight:normal;font-stretch:normal;font-size:40px;line-height:1.25;font-family:'Swis721 BlkCn BT';-inkscape-font-specification:'Swis721 BlkCn BT';letter-spacing:0px;word-spacing:0px;white-space:pre;shape-inside:url(#rect868);fill:none;fill-opacity:1;stroke:#ffffff;stroke-width:3.70049743"
     id="g867"
     aria-label="s" />
  <g
     transform="matrix(0.23045098,0,0,0.23029835,20.82761,14.287063)"
     style="font-style:normal;font-variant:normal;font-weight:normal;font-stretch:normal;font-size:40px;line-height:1.25;font-family:'Swis721 BlkCn BT';-inkscape-font-specification:'Swis721 BlkCn BT';letter-spacing:0px;word-spacing:0px;white-space:pre;shape-inside:url(#rect868);fill:none;fill-opacity:1;stroke:#ffffff;stroke-width:4.34076;stroke-opacity:1"
     id="g42"
     aria-label="s" />
  <g
     style="font-style:normal;font-weight:normal;font-size:40px;line-height:1.25;font-family:sans-serif;letter-spacing:0px;word-spacing:0px;white-space:pre;shape-inside:url(#rect859);fill:#db3e42;fill-opacity:1;stroke:none"
     id="text857"
     transform="matrix(0.30383991,0,0,0.32611465,6.3019694,10.361349)"
     aria-label="1" />
  <path
     style="color:#000000;font-style:normal;font-variant:normal;font-weight:normal;font-stretch:normal;font-size:40px;line-height:1.25;font-family:'Swis721 BlkCn BT';-inkscape-font-specification:'Swis721 BlkCn BT';font-variant-ligatures:normal;font-variant-position:normal;font-variant-caps:normal;font-variant-numeric:normal;font-variant-alternates:normal;font-feature-settings:normal;text-indent:0;text-align:start;text-decoration:none;text-decoration-line:none;text-decoration-style:solid;text-decoration-color:#000000;letter-spacing:0px;word-spacing:0px;text-transform:none;writing-mode:lr-tb;direction:ltr;text-orientation:mixed;dominant-baseline:auto;baseline-shift:baseline;text-anchor:start;white-space:pre;shape-inside:url(#rect868);shape-padding:0;clip-rule:nonzero;display:inline;overflow:visible;visibility:visible;opacity:0.7;isolation:auto;mix-blend-mode:normal;color-interpolation:sRGB;color-interpolation-filters:linearRGB;solid-color:#000000;solid-opacity:1;vector-effect:none;fill:#ffffff;fill-opacity:1;fill-rule:nonzero;stroke:none;stroke-width:2;stroke-linecap:butt;stroke-linejoin:miter;stroke-miterlimit:4;stroke-dasharray:none;stroke-dashoffset:0;stroke-opacity:1;color-rendering:auto;image-rendering:auto;shape-rendering:auto;text-rendering:auto;enable-background:accumulate"
     d="M 5.375 3.7597656 C 4.2155963 3.7597656 3.121846 4.1956096 2.2929688 4.9960938 C 1.5143121 5.7480785 0.92632315 6.6964965 0.52734375 7.7929688 L 0.52539062 7.7929688 C 0.34531252 8.2894026 0.21100087 8.7922421 0.12304688 9.3007812 C 0.035756875 9.7998679 -0.0078125 10.304788 -0.0078125 10.810547 C -0.0078125 11.349657 0.069806525 11.864605 0.24414062 12.341797 C 0.70409103 13.598633 1.8992204 14.453125 3.2285156 14.453125 C 4.0844937 14.453125 4.8395733 14.059209 5.5214844 13.517578 C 5.5805164 13.588938 5.5712084 13.700799 5.6386719 13.765625 L 5.6425781 13.769531 L 5.6445312 13.773438 C 6.1214783 14.222572 6.7869294 14.453125 7.4375 14.453125 C 8.0881384 14.453125 8.7420489 14.182683 9.2070312 13.724609 C 9.3514939 14.298253 9.6374024 14.827029 10.082031 15.210938 L 10.082031 15.212891 L 10.083984 15.214844 C 10.739454 15.775457 11.609084 16.007812 12.541016 16.007812 C 13.504115 16.007812 14.385894 15.787392 15.058594 15.228516 C 15.727649 14.672671 16.078125 13.799499 16.078125 12.914062 C 16.078125 12.279654 15.857118 11.674655 15.486328 11.171875 L 16.005859 11.173828 L 16.005859 10.050781 C 16.005812 9.1927771 15.667346 8.3410508 15.013672 7.8046875 C 14.364623 7.2651755 13.516229 7.0566406 12.595703 7.0566406 C 11.691269 7.0566406 10.843262 7.2845427 10.189453 7.8164062 L 10.1875 7.8183594 L 10.185547 7.8183594 C 9.9727352 7.9931235 9.8038666 8.2094055 9.6542969 8.4394531 L 10.625 3.84375 L 6.1191406 3.84375 L 6.0957031 3.9570312 C 5.852265 3.9110544 5.6351312 3.7597656 5.375 3.7597656 z M 7.0273438 4.2070312 L 7.0410156 4.2167969 C 7.0381156 4.2145669 7.03416 4.2170491 7.03125 4.2148438 C 7.02898 4.2131337 7.0296237 4.2087212 7.0273438 4.2070312 z M 7.7558594 5.84375 L 8.1582031 5.84375 L 7.2011719 10.376953 C 7.1300472 10.653286 7.09375 10.93851 7.09375 11.224609 C 7.09375 11.603479 7.2701243 12.073716 7.609375 12.382812 C 7.558688 12.400132 7.535423 12.453125 7.4375 12.453125 C 7.1934052 12.453125 7.1190304 12.411375 7.0214844 12.320312 C 6.9248024 12.226603 6.8358316 12.081803 6.7910156 11.742188 L 6.65625 10.716797 C 6.676913 10.644877 6.741198 10.596843 6.7578125 10.523438 L 6.7597656 10.517578 L 7.5976562 6.5683594 L 7.5976562 6.4628906 C 7.5976562 6.2140292 7.4936345 6.082635 7.4199219 5.9160156 L 7.734375 5.9472656 L 7.7558594 5.84375 z M 3.703125 6.4277344 C 3.1286048 7.3439512 2.7166986 8.410532 2.5605469 9.7109375 C 2.5276289 9.9871649 2.5117187 10.272482 2.5117188 10.568359 C 2.5117188 11.20698 2.6304467 11.850515 3.1367188 12.337891 C 3.1901398 12.389951 3.2796989 12.377725 3.3417969 12.421875 C 3.3013799 12.424075 3.2701839 12.453125 3.2285156 12.453125 C 2.5398209 12.453125 2.3727245 12.336553 2.1230469 11.654297 C 2.0423529 11.433417 1.9921875 11.157879 1.9921875 10.810547 C 1.9921875 10.419433 2.0260235 10.03126 2.09375 9.6445312 L 2.09375 9.6425781 C 2.1609211 9.2542033 2.265117 8.865955 2.40625 8.4765625 L 2.40625 8.4746094 C 2.7168345 7.6217528 3.1431681 6.9574609 3.6835938 6.4355469 C 3.6892637 6.4300769 3.697457 6.4331344 3.703125 6.4277344 z M 5.2128906 8.1738281 L 4.8066406 10.082031 C 4.7351626 10.397834 4.6293086 10.565745 4.5136719 10.681641 C 4.5022919 10.622871 4.5117188 10.693591 4.5117188 10.568359 C 4.5117188 10.344157 4.52447 10.137893 4.546875 9.9492188 L 4.546875 9.9472656 C 4.6469086 9.115821 4.9649065 8.7151556 5.2128906 8.1738281 z M 11.513672 8.6347656 C 11.511472 8.6366356 11.511966 8.6406981 11.509766 8.6425781 C 11.506866 8.6450481 11.5029 8.6439844 11.5 8.6464844 L 11.513672 8.6347656 z M 13.923828 8.8730469 L 13.935547 8.8886719 C 13.933747 8.8860619 13.929534 8.8873656 13.927734 8.8847656 C 13.924834 8.8807256 13.926749 8.8770959 13.923828 8.8730469 z M 11.224609 10.3125 C 11.252869 10.37314 11.274334 10.428966 11.308594 10.484375 C 11.290154 10.453075 11.257518 10.429791 11.242188 10.394531 C 11.230337 10.367271 11.233589 10.33909 11.224609 10.3125 z M 9.2167969 10.507812 C 9.2210683 10.533657 9.2196483 10.560218 9.2246094 10.585938 L 9.1972656 10.599609 L 9.2167969 10.507812 z M 13.884766 12.097656 L 13.914062 12.128906 C 13.905962 12.119506 13.898665 12.122311 13.890625 12.113281 C 13.886725 12.108981 13.888766 12.101866 13.884766 12.097656 z "
     id="path921" />
  <path
     style="font-style:normal;font-weight:normal;font-size:40px;line-height:1.25;font-family:sans-serif;letter-spacing:0px;word-spacing:0px;fill:#1a1a1a;fill-opacity:1;stroke:none;stroke-width:0.1"
     d="m 5.3746798,4.760054 c -0.931381,0 -1.726934,0.318564 -2.386663,0.955694 -0.659727,0.637129 -1.1669971,1.443237 -1.5218071,2.418323 -0.160775,0.44322 -0.279969,0.88921 -0.3575841,1.337971 -0.07762,0.443222 -0.11642504,0.889212 -0.11642504,1.337973 0,0.443221 0.06375,0.839349 0.19126414,1.188385 0.354814,0.969546 1.0367161,1.454318 2.0457111,1.454318 1.008995,0 1.865534,-0.526324 2.569612,-1.578974 0.06653,0.504164 0.243933,0.894751 0.532218,1.171765 0.288284,0.271473 0.656954,0.407209 1.1060127,0.407209 0.454602,0 0.828818,-0.160668 1.122646,-0.482004 0.166317,-0.188367 0.368671,-0.601117 0.607061,-1.238246 -0.09979,0.04985 -0.22453,0.0748 -0.374217,0.0748 -0.465689,0 -0.698534,-0.19391 -0.698534,-0.581729 0,-0.20499 0.02494,-0.404438 0.07485,-0.598348 L 9.3912565,4.843158 H 6.9380668 L 6.7551178,5.74899 V 5.624334 c 0,-0.249312 -0.108113,-0.454301 -0.32432,-0.614969 C 6.2145848,4.843158 5.8625458,4.760054 5.3746798,4.760054 Z m 0.457374,1.055418 c 0.316004,0 0.521128,0.0831 0.615376,0.249313 0.09979,0.160666 0.149687,0.293633 0.149687,0.398898 l -0.814958,3.839399 c -0.105334,0.465381 -0.296601,0.833808 -0.573797,1.105282 -0.277196,0.265932 -0.584885,0.398899 -0.923064,0.398899 -0.182951,0 -0.335408,-0.06095 -0.457374,-0.18283 -0.21067,-0.19945 -0.316005,-0.551255 -0.316005,-1.055419 0,-0.260392 0.01386,-0.506934 0.04159,-0.739625 0.182949,-1.523569 0.634779,-2.692564 1.35549,-3.506982 0.299372,-0.337956 0.60706,-0.506935 0.923064,-0.506935 z"
     id="path868-6"
     inkscape:connector-curvature="0" />
  <g
     transform="matrix(0.31732086,0,0,0.27014444,23.572806,13.119915)"
     style="font-style:normal;font-variant:normal;font-weight:normal;font-stretch:normal;font-size:40px;line-height:1.25;font-family:'Swis721 BlkCn BT';-inkscape-font-specification:'Swis721 BlkCn BT';letter-spacing:0px;word-spacing:0px;white-space:pre;shape-inside:url(#rect868);fill:#1a1a1a;fill-opacity:1;stroke:none;stroke-width:0.34154874"
     id="g872"
     aria-label="s">
    <path
       id="path870"
       style="font-style:normal;font-variant:normal;font-weight:normal;font-stretch:normal;font-family:'Swis721 BlkCn BT';-inkscape-font-specification:'Swis721 BlkCn BT';fill:#1a1a1a;fill-opacity:1;stroke:none;stroke-width:0.34154874"
       d="m -42.474609,-1.412429 5.557097,0.021111 q 0.09615,1.89994397 0.673005,2.7865845 0.576861,0.8655301 1.730584,0.8655301 0.922978,0 1.519068,-0.5910937 0.59609,-0.6122043 0.59609,-1.56217626 0,-0.823309 -0.423032,-1.35107134 -0.403802,-0.5488726 -1.826727,-1.2877397 -0.30766,-0.1688839 -0.961435,-0.5066518 -3.365025,-1.7099496 -4.691806,-3.2087943 -0.942207,-1.0133035 -1.442153,-2.3643749 -0.499946,-1.3510713 -0.499946,-2.8288056 0,-3.335458 2.057471,-5.319844 2.076701,-1.984386 5.595555,-1.984386 3.653456,0 5.614784,1.921055 1.980557,1.899945 1.980557,5.467617 v 0.44332 l -5.441725,-0.02111 q -0.03845,-1.836613 -0.519176,-2.617701 -0.461489,-0.781088 -1.519067,-0.781088 -0.942208,0 -1.49984,0.569982 -0.557633,0.548874 -0.557633,1.456625 0,1.604397 2.788163,2.9554694 0.384574,0.1899938 0.596091,0.2955461 3.807284,1.8788335 5.095608,3.6521146 1.288324,1.7732811 1.288324,4.64430764 0,3.69433556 -2.076701,5.72094256 -2.076701,2.0266068 -5.922443,2.0266068 -3.653456,0 -5.691699,-2.0477173 -2.019014,-2.0477175 -2.019014,-5.74205303 z"
       inkscape:connector-curvature="0" />
  </g>
</svg>
