<?xml version="1.0" encoding="UTF-8" standalone="no"?>
<svg
   xmlns:dc="http://purl.org/dc/elements/1.1/"
   xmlns:cc="http://creativecommons.org/ns#"
   xmlns:rdf="http://www.w3.org/1999/02/22-rdf-syntax-ns#"
   xmlns:svg="http://www.w3.org/2000/svg"
   xmlns="http://www.w3.org/2000/svg"
   xmlns:xlink="http://www.w3.org/1999/xlink"
   xmlns:sodipodi="http://sodipodi.sourceforge.net/DTD/sodipodi-0.dtd"
   xmlns:inkscape="http://www.inkscape.org/namespaces/inkscape"
   inkscape:version="1.0 (4035a4fb49, 2020-05-01)"
   sodipodi:docname="ct_fmt-txt-subscript.svg"
   version="1.1"
   width="24"
   height="24"
   id="svg3828">
  <sodipodi:namedview
     inkscape:current-layer="svg3828"
     inkscape:window-maximized="1"
     inkscape:window-y="22"
     inkscape:window-x="-8"
     inkscape:cy="14.754805"
     inkscape:cx="20.849318"
     inkscape:zoom="15.255413"
     showgrid="false"
     id="namedview41"
     inkscape:window-height="715"
     inkscape:window-width="1366"
     inkscape:pageshadow="2"
     inkscape:pageopacity="0"
     guidetolerance="10"
     gridtolerance="10"
     objecttolerance="10"
     borderopacity="1"
     bordercolor="#666666"
     pagecolor="#ffffff"
     inkscape:document-rotation="0" />
  <defs
     id="defs3830">
    <rect
       id="rect868"
       height="79.635206"
       width="68.869073"
       y="-30.931271"
       x="-43.235423" />
    <linearGradient
       id="linearGradient3977">
      <stop
         id="stop3979"
         style="stop-color:#ffffff;stop-opacity:1"
         offset="0" />
      <stop
         id="stop3981"
         style="stop-color:#ffffff;stop-opacity:0.23529412"
         offset="0" />
      <stop
         id="stop3983"
         style="stop-color:#ffffff;stop-opacity:0.15686275"
         offset="1" />
      <stop
         id="stop3985"
         style="stop-color:#ffffff;stop-opacity:0.39215687"
         offset="1" />
    </linearGradient>
    <linearGradient
       id="linearGradient3600-4">
      <stop
         id="stop3602-7"
         style="stop-color:#f4f4f4;stop-opacity:1"
         offset="0" />
      <stop
         id="stop3604-6"
         style="stop-color:#dbdbdb;stop-opacity:1"
         offset="1" />
    </linearGradient>
    <linearGradient
       id="linearGradient5060">
      <stop
         id="stop5062"
         style="stop-color:#000000;stop-opacity:1"
         offset="0" />
      <stop
         id="stop5064"
         style="stop-color:#000000;stop-opacity:0"
         offset="1" />
    </linearGradient>
    <linearGradient
       id="linearGradient5048">
      <stop
         id="stop5050"
         style="stop-color:#000000;stop-opacity:0"
         offset="0" />
      <stop
         id="stop5056"
         style="stop-color:#000000;stop-opacity:1"
         offset="0.5" />
      <stop
         id="stop5052"
         style="stop-color:#000000;stop-opacity:0"
         offset="1" />
    </linearGradient>
    <linearGradient
       x1="23.99999"
       y1="6.4736748"
       x2="23.99999"
       y2="41.526306"
       id="linearGradient3013"
       xlink:href="#linearGradient3977"
       gradientUnits="userSpaceOnUse"
       gradientTransform="matrix(0.40540511,0,0,0.51351351,2.2696871,-0.3243195)" />
    <linearGradient
       x1="25.132275"
       y1="0.98520643"
       x2="25.132275"
       y2="47.013336"
       id="linearGradient3016"
       xlink:href="#linearGradient3600-4"
       gradientUnits="userSpaceOnUse"
       gradientTransform="matrix(0.45714178,0,0,0.43456667,1.0285964,0.90372283)" />
    <radialGradient
       cx="605.71429"
       cy="486.64789"
       r="117.14286"
       fx="605.71429"
       fy="486.64789"
       id="radialGradient3021"
       xlink:href="#linearGradient5060"
       gradientUnits="userSpaceOnUse"
       gradientTransform="matrix(0.01204859,0,0,0.0082353,13.238793,18.980564)" />
    <radialGradient
       cx="605.71429"
       cy="486.64789"
       r="117.14286"
       fx="605.71429"
       fy="486.64789"
       id="radialGradient3024"
       xlink:href="#linearGradient5060"
       gradientUnits="userSpaceOnUse"
       gradientTransform="matrix(-0.01204859,0,0,0.0082353,10.761206,18.980564)" />
    <linearGradient
       x1="302.85715"
       y1="366.64789"
       x2="302.85715"
       y2="609.50507"
       id="linearGradient3027"
       xlink:href="#linearGradient5048"
       gradientUnits="userSpaceOnUse"
       gradientTransform="matrix(0.0352071,0,0,0.0082353,-0.724852,18.980547)" />
    <linearGradient
       gradientTransform="matrix(0.34782609,0,0,0.35094866,16.837638,3.7677746)"
       gradientUnits="userSpaceOnUse"
       y2="37.678539"
       x2="-17.375"
       y1="-6.125"
       x1="-17.375"
       id="linearGradient1063"
       xlink:href="#linearGradient1061" />
    <linearGradient
       id="linearGradient1061">
      <stop
         id="stop1057"
         offset="0"
         style="stop-color:#4d4d4d;stop-opacity:1" />
      <stop
         id="stop1059"
         offset="1"
         style="stop-color:#333333;stop-opacity:1" />
    </linearGradient>
    <linearGradient
       gradientTransform="matrix(0.34782609,0,0,0.34782609,1.0828828,1.6521738)"
       gradientUnits="userSpaceOnUse"
       y2="44.5"
       x2="44"
       y1="0"
       x1="44"
       id="linearGradient1071"
       xlink:href="#linearGradient1069" />
    <linearGradient
       id="linearGradient1069">
      <stop
         id="stop1065"
         offset="0"
         style="stop-color:#ed5353;stop-opacity:1" />
      <stop
         id="stop1067"
         offset="1"
         style="stop-color:#c6262e;stop-opacity:1" />
    </linearGradient>
  </defs>
  <metadata
     id="metadata3833">
    <rdf:RDF>
      <cc:Work
         rdf:about="">
        <dc:format>image/svg+xml</dc:format>
        <dc:type
           rdf:resource="http://purl.org/dc/dcmitype/StillImage" />
        <dc:title></dc:title>
      </cc:Work>
    </rdf:RDF>
  </metadata>
  <path
     style="font-style:normal;font-weight:normal;font-size:40px;line-height:1.25;font-family:sans-serif;letter-spacing:0px;word-spacing:0px;fill:none;fill-opacity:1;stroke:#d4d4d4;stroke-width:1;stroke-opacity:1"
     d="m 8.2129511,7.3687 c -1.4013038,0 -2.5982485,0.4796109 -3.5908395,1.4388366 -0.9925883,0.9592244 -1.7557979,2.1728524 -2.2896262,3.6408844 -0.2418931,0.667286 -0.4212259,1.338743 -0.538001,2.014371 -0.1167778,0.667288 -0.1751653,1.338745 -0.1751653,2.014373 0,0.667287 0.095914,1.263674 0.287765,1.789162 0.5338322,1.459692 1.5597844,2.189536 3.077862,2.189536 1.5180763,0 2.8067764,-0.792402 3.8660939,-2.37721 0.100097,0.759039 0.367007,1.347085 0.800745,1.764141 0.433735,0.408713 0.988417,0.613069 1.664045,0.613069 0.683969,0 1.246993,-0.241891 1.68907,-0.725676 0.250232,-0.283594 0.554682,-0.905007 0.91335,-1.864231 -0.150136,0.07506 -0.337815,0.112608 -0.563025,0.112608 -0.700651,0 -1.050975,-0.291939 -1.050975,-0.875816 0,-0.308621 0.03753,-0.608899 0.112607,-0.900838 l 1.83921,-8.7080933 H 10.565135 L 10.28988,8.8575838 V 8.6699093 c 0,-0.3753502 -0.16266,-0.6839686 -0.487953,-0.9258617 C 9.476625,7.4938167 8.946966,7.3687 8.2129511,7.3687 Z M 8.90109,8.9576756 c 0.475442,0 0.78406,0.125105 0.92586,0.3753502 0.150135,0.2418902 0.22521,0.4420772 0.22521,0.6005572 l -1.22614,5.780373 c -0.158479,0.700652 -0.446249,1.255333 -0.8633024,1.664048 -0.4170545,0.400371 -0.8799847,0.600558 -1.3887907,0.600558 -0.275257,0 -0.5046358,-0.09176 -0.6881387,-0.275257 -0.3169627,-0.30028 -0.4754434,-0.829937 -0.4754434,-1.588977 0,-0.392031 0.020851,-0.763209 0.062566,-1.113535 C 5.7481662,12.706996 6.4279646,10.947026 7.5123057,9.720887 7.9627242,9.2120806 8.425654,8.9576756 8.901096,8.9576756 Z"
     id="path38" />
  <path
     id="text942"
     d="m 8.2129511,7.3687 c -1.4013038,0 -2.5982485,0.4796109 -3.5908395,1.4388366 -0.9925883,0.9592244 -1.7557979,2.1728524 -2.2896262,3.6408844 -0.2418931,0.667286 -0.4212259,1.338743 -0.538001,2.014371 -0.1167778,0.667288 -0.1751653,1.338745 -0.1751653,2.014373 0,0.667287 0.095914,1.263674 0.287765,1.789162 0.5338322,1.459692 1.5597844,2.189536 3.077862,2.189536 1.5180763,0 2.8067764,-0.792402 3.8660939,-2.37721 0.100097,0.759039 0.367007,1.347085 0.800745,1.764141 0.433735,0.408713 0.988417,0.613069 1.664045,0.613069 0.683969,0 1.246993,-0.241891 1.68907,-0.725676 0.250232,-0.283594 0.554682,-0.905007 0.91335,-1.864231 -0.150136,0.07506 -0.337815,0.112608 -0.563025,0.112608 -0.700651,0 -1.050975,-0.291939 -1.050975,-0.875816 0,-0.308621 0.03753,-0.608899 0.112607,-0.900838 l 1.83921,-8.7080933 H 10.565135 L 10.28988,8.8575838 V 8.6699093 c 0,-0.3753502 -0.16266,-0.6839686 -0.487953,-0.9258617 C 9.476625,7.4938167 8.946966,7.3687 8.2129511,7.3687 Z M 8.90109,8.9576756 c 0.475442,0 0.78406,0.125105 0.92586,0.3753502 0.150135,0.2418902 0.22521,0.4420772 0.22521,0.6005572 l -1.22614,5.780373 c -0.158479,0.700652 -0.446249,1.255333 -0.8633024,1.664048 -0.4170545,0.400371 -0.8799847,0.600558 -1.3887907,0.600558 -0.275257,0 -0.5046358,-0.09176 -0.6881387,-0.275257 -0.3169627,-0.30028 -0.4754434,-0.829937 -0.4754434,-1.588977 0,-0.392031 0.020851,-0.763209 0.062566,-1.113535 C 5.7481662,12.706996 6.4279646,10.947026 7.5123057,9.720887 7.9627242,9.2120806 8.425654,8.9576756 8.901096,8.9576756 Z"
     style="font-style:normal;font-weight:normal;font-size:40px;line-height:1.25;font-family:sans-serif;letter-spacing:0px;word-spacing:0px;fill:#1a1a1a;fill-opacity:1;stroke:none;stroke-width:1.84171" />
  <g
     aria-label="s"
     id="g42"
     style="font-style:normal;font-variant:normal;font-weight:normal;font-stretch:normal;font-size:40px;line-height:1.25;font-family:'Swis721 BlkCn BT';-inkscape-font-specification:'Swis721 BlkCn BT';letter-spacing:0px;word-spacing:0px;white-space:pre;shape-inside:url(#rect868);fill:none;fill-opacity:1;stroke:#d4d4d4;stroke-width:2.88414;stroke-opacity:1"
     transform="matrix(0.34672364,0,0,0.34672364,31.209738,21.786005)">
    <path
       d="m -42.474609,-2.7089844 5.644531,0.019531 q 0.09766,1.75781247 0.683594,2.57812498 0.585937,0.80078124 1.757812,0.80078124 0.9375,0 1.542969,-0.546875 0.605469,-0.56640625 0.605469,-1.44531252 0,-0.7617187 -0.429688,-1.25 -0.410156,-0.5078125 -1.855469,-1.1914062 -0.3125,-0.15625 -0.976562,-0.46875 -3.417969,-1.5820313 -4.765625,-2.96875 -0.957031,-0.9375 -1.464844,-2.1875 -0.507812,-1.2500001 -0.507812,-2.6171871 0,-3.085938 2.089843,-4.921875 2.109375,-1.835938 5.683594,-1.835938 3.710938,0 5.703125,1.777344 2.011719,1.757813 2.011719,5.058594 v 0.410156 l -5.527344,-0.01953 q -0.03906,-1.699219 -0.527344,-2.421875 -0.46875,-0.722656 -1.542968,-0.722656 -0.957032,0 -1.523438,0.527343 -0.566406,0.507813 -0.566406,1.347657 0,1.484375 2.832031,2.734375 0.390625,0.1757806 0.605469,0.2734368 3.867187,1.7382813 5.175781,3.3789063 1.308594,1.640625 1.308594,4.296875 0,3.4179687 -2.109375,5.2929687 -2.109375,1.875 -6.015625,1.875 -3.710938,0 -5.78125,-1.8945312 -2.050781,-1.8945313 -2.050781,-5.3125 z"
       style="font-style:normal;font-variant:normal;font-weight:normal;font-stretch:normal;font-family:'Swis721 BlkCn BT';-inkscape-font-specification:'Swis721 BlkCn BT';fill:none;stroke:#d4d4d4;stroke-width:2.88414;stroke-opacity:1"
       id="path40" />
  </g>
  <g
     transform="matrix(0.34672364,0,0,0.34672364,31.209738,21.786005)"
     style="font-style:normal;font-variant:normal;font-weight:normal;font-stretch:normal;font-size:40px;line-height:1.25;font-family:'Swis721 BlkCn BT';-inkscape-font-specification:'Swis721 BlkCn BT';letter-spacing:0px;word-spacing:0px;white-space:pre;shape-inside:url(#rect868);fill:#1a1a1a;fill-opacity:1;stroke:none"
     id="text866"
     aria-label="s">
    <path
       id="path872"
       style="font-style:normal;font-variant:normal;font-weight:normal;font-stretch:normal;font-family:'Swis721 BlkCn BT';-inkscape-font-specification:'Swis721 BlkCn BT';fill:#1a1a1a"
       d="m -42.474609,-2.7089844 5.644531,0.019531 q 0.09766,1.75781247 0.683594,2.57812498 0.585937,0.80078124 1.757812,0.80078124 0.9375,0 1.542969,-0.546875 0.605469,-0.56640625 0.605469,-1.44531252 0,-0.7617187 -0.429688,-1.25 -0.410156,-0.5078125 -1.855469,-1.1914062 -0.3125,-0.15625 -0.976562,-0.46875 -3.417969,-1.5820313 -4.765625,-2.96875 -0.957031,-0.9375 -1.464844,-2.1875 -0.507812,-1.2500001 -0.507812,-2.6171871 0,-3.085938 2.089843,-4.921875 2.109375,-1.835938 5.683594,-1.835938 3.710938,0 5.703125,1.777344 2.011719,1.757813 2.011719,5.058594 v 0.410156 l -5.527344,-0.01953 q -0.03906,-1.699219 -0.527344,-2.421875 -0.46875,-0.722656 -1.542968,-0.722656 -0.957032,0 -1.523438,0.527343 -0.566406,0.507813 -0.566406,1.347657 0,1.484375 2.832031,2.734375 0.390625,0.1757806 0.605469,0.2734368 3.867187,1.7382813 5.175781,3.3789063 1.308594,1.640625 1.308594,4.296875 0,3.4179687 -2.109375,5.2929687 -2.109375,1.875 -6.015625,1.875 -3.710938,0 -5.78125,-1.8945312 -2.050781,-1.8945313 -2.050781,-5.3125 z" />
  </g>
</svg>
