<?xml version="1.0" encoding="UTF-8" standalone="no"?>
<svg
   xmlns:dc="http://purl.org/dc/elements/1.1/"
   xmlns:cc="http://creativecommons.org/ns#"
   xmlns:rdf="http://www.w3.org/1999/02/22-rdf-syntax-ns#"
   xmlns:svg="http://www.w3.org/2000/svg"
   xmlns="http://www.w3.org/2000/svg"
   xmlns:xlink="http://www.w3.org/1999/xlink"
   xmlns:sodipodi="http://sodipodi.sourceforge.net/DTD/sodipodi-0.dtd"
   xmlns:inkscape="http://www.inkscape.org/namespaces/inkscape"
   version="1.1"
   width="16"
   height="16"
   id="svg3810"
   sodipodi:docname="ct_fmt-txt-large3.svg"
   inkscape:version="1.0 (4035a4fb49, 2020-05-01)">
  <sodipodi:namedview
     inkscape:snap-global="false"
     inkscape:document-rotation="0"
     pagecolor="#ffffff"
     bordercolor="#666666"
     borderopacity="1"
     objecttolerance="10"
     gridtolerance="10"
     guidetolerance="10"
     inkscape:pageopacity="0"
     inkscape:pageshadow="2"
     inkscape:window-width="1366"
     inkscape:window-height="715"
     id="namedview28"
     showgrid="true"
     inkscape:zoom="14.183063"
     inkscape:cx="12.021861"
     inkscape:cy="10.820478"
     inkscape:window-x="-8"
     inkscape:window-y="22"
     inkscape:window-maximized="1"
     inkscape:current-layer="svg3810">
    <inkscape:grid
       id="grid49"
       type="xygrid" />
  </sodipodi:namedview>
  <defs
     id="defs3812">
    <rect
       x="-23.773171"
       y="-9.211257"
       width="47.614071"
       height="47.004502"
       id="rect866" />
    <rect
       id="rect856"
       height="55.172905"
       width="57.385027"
       y="-23.552585"
       x="-44.372549" />
    <rect
       x="5.4800776"
       y="-18.561553"
       width="46.315494"
       height="62.755727"
       id="rect859" />
    <linearGradient
       id="linearGradient968">
      <stop
         id="stop964"
         offset="0"
         style="stop-color:#ed5353;stop-opacity:1" />
      <stop
         id="stop966"
         offset="1"
         style="stop-color:#c6262e;stop-opacity:1" />
    </linearGradient>
    <linearGradient
       x1="23.99999"
       y1="6.9230647"
       x2="23.99999"
       y2="41.076912"
       id="linearGradient3988"
       xlink:href="#linearGradient3977"
       gradientUnits="userSpaceOnUse"
       gradientTransform="matrix(0.24324324,0,0,0.35135133,2.1621636,-0.43242804)" />
    <linearGradient
       id="linearGradient3977">
      <stop
         id="stop3979"
         style="stop-color:#ffffff;stop-opacity:1"
         offset="0" />
      <stop
         id="stop3981"
         style="stop-color:#ffffff;stop-opacity:0.23529412"
         offset="0" />
      <stop
         id="stop3983"
         style="stop-color:#ffffff;stop-opacity:0.15686275"
         offset="1" />
      <stop
         id="stop3985"
         style="stop-color:#ffffff;stop-opacity:0.39215687"
         offset="1" />
    </linearGradient>
    <linearGradient
       id="linearGradient3600">
      <stop
         id="stop3602"
         style="stop-color:#f4f4f4;stop-opacity:1"
         offset="0" />
      <stop
         id="stop3604"
         style="stop-color:#dbdbdb;stop-opacity:1"
         offset="1" />
    </linearGradient>
    <linearGradient
       x1="25.132275"
       y1="0.98520643"
       x2="25.132275"
       y2="47.013336"
       id="linearGradient3806"
       xlink:href="#linearGradient3600"
       gradientUnits="userSpaceOnUse"
       gradientTransform="matrix(0.28571361,0,0,0.30419701,1.1428727,0.2326048)" />
    <linearGradient
       id="linearGradient3104-9">
      <stop
         id="stop3106-5"
         style="stop-color:#000000;stop-opacity:0.33950618"
         offset="0" />
      <stop
         id="stop3108-5"
         style="stop-color:#000000;stop-opacity:0.24691358"
         offset="1" />
    </linearGradient>
    <linearGradient
       x1="-51.786404"
       y1="50.786446"
       x2="-51.786404"
       y2="2.9062471"
       id="linearGradient3019"
       xlink:href="#linearGradient3104-9"
       gradientUnits="userSpaceOnUse"
       gradientTransform="matrix(0.25378586,0,0,0.30501865,19.128979,-0.68547704)" />
    <linearGradient
       gradientUnits="userSpaceOnUse"
       y2="32.493599"
       x2="26.89267"
       y1="17.35639"
       x1="26.89267"
       id="linearGradient922"
       xlink:href="#linearGradient968"
       gradientTransform="translate(-24,-17)" />
    <rect
       id="rect874"
       height="47.004502"
       width="47.614071"
       y="-9.211257"
       x="-23.773171" />
    <rect
       x="-23.773171"
       y="-9.211257"
       width="47.614071"
       height="47.004502"
       id="rect888" />
    <linearGradient
       gradientUnits="userSpaceOnUse"
       y2="25.940525"
       x2="-12.211069"
       y1="1.4223264"
       x1="-12.211069"
       id="linearGradient907"
       xlink:href="#linearGradient968"
       inkscape:collect="always" />
    <linearGradient
       inkscape:collect="always"
       xlink:href="#linearGradient968"
       id="linearGradient951"
       gradientUnits="userSpaceOnUse"
       x1="-12.211069"
       y1="1.4223264"
       x2="-12.211069"
       y2="25.940525" />
    <linearGradient
       gradientUnits="userSpaceOnUse"
       y2="32.493599"
       x2="26.89267"
       y1="17.35639"
       x1="26.89267"
       id="linearGradient922-9"
       xlink:href="#linearGradient968"
       gradientTransform="matrix(1.406379,0,0,1.1053575,-34.165861,-18.052345)" />
  </defs>
  <metadata
     id="metadata3815">
    <rdf:RDF>
      <cc:Work
         rdf:about="">
        <dc:format>image/svg+xml</dc:format>
        <dc:type
           rdf:resource="http://purl.org/dc/dcmitype/StillImage" />
        <dc:title />
      </cc:Work>
    </rdf:RDF>
  </metadata>
  <g
     style="font-style:normal;font-variant:normal;font-weight:normal;font-stretch:normal;font-size:40px;line-height:1.25;font-family:'Swis721 Hv BT';-inkscape-font-specification:'Swis721 Hv BT';letter-spacing:0px;word-spacing:0px;white-space:pre;shape-inside:url(#rect874);fill:url(#linearGradient907);fill-opacity:1;stroke:none"
     id="text872"
     transform="matrix(0.28279171,0,0,0.30864032,15.412889,5.6727394)"
     aria-label="3">
    <path
       id="path898"
       style="font-style:normal;font-variant:normal;font-weight:normal;font-stretch:normal;font-family:'Swis721 Hv BT';-inkscape-font-specification:'Swis721 Hv BT';fill:url(#linearGradient951);fill-opacity:1"
       d="m -22.699219,17.507812 h 6.640625 q 0.03906,2.011719 1.035156,3.066407 0.996094,1.054687 2.890625,1.054687 1.679688,0 2.7148442,-0.996094 1.0351563,-0.996093 1.0351563,-2.617187 0,-1.875 -1.25,-2.8125 -1.2304685,-0.9375 -3.7500005,-0.9375 h -0.585937 v -4.6875 H -13.5 q 2.285156,0 3.417969,-0.859375 1.1523435,-0.8789063 1.1523435,-2.6171875 0,-1.484375 -0.859375,-2.34375 -0.8398435,-0.859375 -2.3046875,-0.859375 -1.757813,0 -2.695313,0.9375 -0.917968,0.9375 -1.054687,2.8710937 L -22.25,6.6875 q 0.09766,-4.2382812 2.773438,-6.54296875 2.695312,-2.32421875 7.539062,-2.32421875 4.375,0 6.9921875,2.05078125 2.6171875,2.05078125 2.6171875,5.46874995 0,1.8359375 -0.8398438,3.3007813 -0.8203125,1.445313 -2.5195312,2.617188 2.0703125,0.898437 3.125,2.617187 1.0742188,1.699219 1.0742188,4.101562 0,4.160157 -2.9492188,6.582032 -2.9492187,2.421875 -8.007813,2.421875 -4.882812,0 -7.558593,-2.460938 -2.65625,-2.480469 -2.695313,-7.011719 z" />
  </g>
  <path
     id="path957"
     style="color:#000000;font-style:normal;font-variant:normal;font-weight:bold;font-stretch:normal;font-size:29.9135px;line-height:125%;font-family:'Droid Sans';-inkscape-font-specification:'Droid Sans Bold';letter-spacing:0px;word-spacing:0px;display:inline;overflow:visible;visibility:visible;opacity:1;vector-effect:none;fill:url(#linearGradient922-9);fill-opacity:1;fill-rule:nonzero;stroke:none;stroke-width:1.39369;stroke-linecap:butt;stroke-linejoin:miter;stroke-miterlimit:4;stroke-dasharray:none;stroke-dashoffset:0;stroke-opacity:1;marker:none;enable-background:accumulate"
     d="M 0.99360128,3.038858 V 14.003023 H 2.9745962 c 0.00774,-1.307742 -0.016657,-2.616164 0.014517,-3.923414 0.043113,-0.6084758 0.2319773,-1.3531721 0.848637,-1.6467438 0.4468991,-0.2532564 1.0220716,-0.3546409 1.4845156,-0.086578 0.513443,0.3995412 0.678387,1.0838193 0.636636,1.7076768 v 3.949059 h 2.029949 c -0.0046,-1.666431 0.0093,-3.333201 -0.0072,-4.9994154 C 7.9643358,8.1532032 7.5113368,7.3008001 6.7300818,6.9224148 5.5601398,6.3860321 3.98555,6.5921667 3.0914381,7.5476156 2.9650022,7.7704003 2.9939455,7.4689223 2.9870204,7.2388985 L 2.9745962,3.038858 Z"
     sodipodi:nodetypes="ccccccccccccccc" />
</svg>
