<?xml version="1.0" encoding="UTF-8" standalone="no"?>
<svg
   xmlns:dc="http://purl.org/dc/elements/1.1/"
   xmlns:cc="http://creativecommons.org/ns#"
   xmlns:rdf="http://www.w3.org/1999/02/22-rdf-syntax-ns#"
   xmlns:svg="http://www.w3.org/2000/svg"
   xmlns="http://www.w3.org/2000/svg"
   xmlns:xlink="http://www.w3.org/1999/xlink"
   xmlns:sodipodi="http://sodipodi.sourceforge.net/DTD/sodipodi-0.dtd"
   xmlns:inkscape="http://www.inkscape.org/namespaces/inkscape"
   id="svg3828"
   height="48"
   width="48"
   version="1.1"
   sodipodi:docname="ct_fmt-txt-subscript.svg"
   inkscape:version="1.0 (4035a4fb49, 2020-05-01)">
  <sodipodi:namedview
     inkscape:document-rotation="0"
     pagecolor="#ffffff"
     bordercolor="#666666"
     borderopacity="1"
     objecttolerance="10"
     gridtolerance="10"
     guidetolerance="10"
     inkscape:pageopacity="0"
     inkscape:pageshadow="2"
     inkscape:window-width="1366"
     inkscape:window-height="715"
     id="namedview41"
     showgrid="false"
     inkscape:zoom="7.3273003"
     inkscape:cx="23.360569"
     inkscape:cy="14.754805"
     inkscape:window-x="-8"
     inkscape:window-y="22"
     inkscape:window-maximized="1"
     inkscape:current-layer="svg3828" />
  <defs
     id="defs3830">
    <rect
       x="-43.235424"
       y="-30.931271"
       width="68.869072"
       height="79.635208"
       id="rect868" />
    <linearGradient
       id="linearGradient3977">
      <stop
         offset="0"
         style="stop-color:#ffffff;stop-opacity:1"
         id="stop3979" />
      <stop
         offset="0"
         style="stop-color:#ffffff;stop-opacity:0.23529412"
         id="stop3981" />
      <stop
         offset="1"
         style="stop-color:#ffffff;stop-opacity:0.15686275"
         id="stop3983" />
      <stop
         offset="1"
         style="stop-color:#ffffff;stop-opacity:0.39215687"
         id="stop3985" />
    </linearGradient>
    <linearGradient
       id="linearGradient3600-4">
      <stop
         offset="0"
         style="stop-color:#f4f4f4;stop-opacity:1"
         id="stop3602-7" />
      <stop
         offset="1"
         style="stop-color:#dbdbdb;stop-opacity:1"
         id="stop3604-6" />
    </linearGradient>
    <linearGradient
       id="linearGradient5060">
      <stop
         offset="0"
         style="stop-color:#000000;stop-opacity:1"
         id="stop5062" />
      <stop
         offset="1"
         style="stop-color:#000000;stop-opacity:0"
         id="stop5064" />
    </linearGradient>
    <linearGradient
       id="linearGradient5048">
      <stop
         offset="0"
         style="stop-color:#000000;stop-opacity:0"
         id="stop5050" />
      <stop
         offset="0.5"
         style="stop-color:#000000;stop-opacity:1"
         id="stop5056" />
      <stop
         offset="1"
         style="stop-color:#000000;stop-opacity:0"
         id="stop5052" />
    </linearGradient>
    <linearGradient
       gradientTransform="matrix(0.40540511,0,0,0.51351351,2.2696871,-0.3243195)"
       gradientUnits="userSpaceOnUse"
       xlink:href="#linearGradient3977"
       id="linearGradient3013"
       y2="41.526306"
       x2="23.99999"
       y1="6.4736748"
       x1="23.99999" />
    <linearGradient
       gradientTransform="matrix(0.45714178,0,0,0.43456667,1.0285964,0.90372283)"
       gradientUnits="userSpaceOnUse"
       xlink:href="#linearGradient3600-4"
       id="linearGradient3016"
       y2="47.013336"
       x2="25.132275"
       y1="0.98520643"
       x1="25.132275" />
    <radialGradient
       gradientTransform="matrix(0.01204859,0,0,0.0082353,13.238793,18.980564)"
       gradientUnits="userSpaceOnUse"
       xlink:href="#linearGradient5060"
       id="radialGradient3021"
       fy="486.64789"
       fx="605.71429"
       r="117.14286"
       cy="486.64789"
       cx="605.71429" />
    <radialGradient
       gradientTransform="matrix(-0.01204859,0,0,0.0082353,10.761206,18.980564)"
       gradientUnits="userSpaceOnUse"
       xlink:href="#linearGradient5060"
       id="radialGradient3024"
       fy="486.64789"
       fx="605.71429"
       r="117.14286"
       cy="486.64789"
       cx="605.71429" />
    <linearGradient
       gradientTransform="matrix(0.0352071,0,0,0.0082353,-0.724852,18.980547)"
       gradientUnits="userSpaceOnUse"
       xlink:href="#linearGradient5048"
       id="linearGradient3027"
       y2="609.50507"
       x2="302.85715"
       y1="366.64789"
       x1="302.85715" />
    <linearGradient
       xlink:href="#linearGradient1061"
       id="linearGradient1063"
       x1="-17.375"
       y1="-6.125"
       x2="-17.375"
       y2="37.678539"
       gradientUnits="userSpaceOnUse"
       gradientTransform="matrix(0.34782609,0,0,0.35094866,16.837638,3.7677746)" />
    <linearGradient
       id="linearGradient1061">
      <stop
         style="stop-color:#4d4d4d;stop-opacity:1"
         offset="0"
         id="stop1057" />
      <stop
         style="stop-color:#333333;stop-opacity:1"
         offset="1"
         id="stop1059" />
    </linearGradient>
    <linearGradient
       xlink:href="#linearGradient1069"
       id="linearGradient1071"
       x1="44"
       y1="0"
       x2="44"
       y2="44.5"
       gradientUnits="userSpaceOnUse"
       gradientTransform="matrix(0.34782609,0,0,0.34782609,1.0828828,1.6521738)" />
    <linearGradient
       id="linearGradient1069">
      <stop
         style="stop-color:#ed5353;stop-opacity:1"
         offset="0"
         id="stop1065" />
      <stop
         style="stop-color:#c6262e;stop-opacity:1"
         offset="1"
         id="stop1067" />
    </linearGradient>
  </defs>
  <metadata
     id="metadata3833">
    <rdf:RDF>
      <cc:Work
         rdf:about="">
        <dc:format>image/svg+xml</dc:format>
        <dc:type
           rdf:resource="http://purl.org/dc/dcmitype/StillImage" />
        <dc:title></dc:title>
      </cc:Work>
    </rdf:RDF>
  </metadata>
  <path
     id="path38"
     d="m 16.628164,14.274777 c -2.794143,0 -5.180802,0.955692 -7.1599897,2.867082 -1.979181,1.911388 -3.5009901,4.32971 -4.5654222,7.254968 -0.4823251,1.32966 -0.8399074,2.667632 -1.0727523,4.013915 -0.2328502,1.329664 -0.3492726,2.667636 -0.3492726,4.013917 0,1.329663 0.1912487,2.518047 0.5737919,3.565155 1.0644398,2.908639 3.1101471,4.362954 6.1371329,4.362954 3.026983,0 5.5966,-1.578971 7.708836,-4.736921 0.199589,1.512491 0.731797,2.684253 1.596654,3.515296 0.86485,0.814418 1.970862,1.221625 3.318038,1.221625 1.363806,0 2.486454,-0.482002 3.367937,-1.44601 0.498952,-0.565101 1.106013,-1.803352 1.821183,-3.714738 -0.299365,0.14956 -0.673589,0.224387 -1.122649,0.224387 -1.397069,0 -2.095602,-0.581731 -2.095602,-1.745186 0,-0.61497 0.07483,-1.213316 0.224534,-1.795045 L 28.677894,14.52409 h -7.35957 l -0.548847,2.717495 v -0.373967 c 0,-0.747938 -0.324338,-1.362903 -0.972959,-1.844909 -0.648639,-0.498619 -1.704757,-0.747932 -3.168354,-0.747932 z m 1.372122,3.166255 c 0.948011,0 1.563383,0.249289 1.846127,0.747937 0.299363,0.482 0.44906,0.880901 0.44906,1.196695 l -2.444874,11.518197 c -0.316001,1.396144 -0.889802,2.501425 -1.72139,3.315845 -0.831589,0.797797 -1.754654,1.196697 -2.769192,1.196697 -0.548852,0 -1.006224,-0.182837 -1.372121,-0.548489 -0.632011,-0.59835 -0.948016,-1.653765 -0.948016,-3.166257 0,-0.781177 0.04158,-1.520801 0.124754,-2.218874 0.548849,-4.570709 1.904339,-8.077693 4.066472,-10.520946 0.898116,-1.013868 1.821179,-1.520805 2.769192,-1.520805 z"
     style="font-style:normal;font-weight:normal;font-size:40px;line-height:1.25;font-family:sans-serif;letter-spacing:0px;word-spacing:0px;fill:none;fill-opacity:1;stroke:#f2f2f2;stroke-width:3;stroke-opacity:1" />
  <path
     style="font-style:normal;font-weight:normal;font-size:40px;line-height:1.25;font-family:sans-serif;letter-spacing:0px;word-spacing:0px;fill:#1a1a1a;fill-opacity:1;stroke:none;stroke-width:3.67108"
     d="m 16.628164,14.274777 c -2.794143,0 -5.180802,0.955692 -7.1599897,2.867082 -1.979181,1.911388 -3.5009901,4.32971 -4.5654222,7.254968 -0.4823251,1.32966 -0.8399074,2.667632 -1.0727523,4.013915 -0.2328502,1.329664 -0.3492726,2.667636 -0.3492726,4.013917 0,1.329663 0.1912487,2.518047 0.5737919,3.565155 1.0644398,2.908639 3.1101471,4.362954 6.1371329,4.362954 3.026983,0 5.5966,-1.578971 7.708836,-4.736921 0.199589,1.512491 0.731797,2.684253 1.596654,3.515296 0.86485,0.814418 1.970862,1.221625 3.318038,1.221625 1.363806,0 2.486454,-0.482002 3.367937,-1.44601 0.498952,-0.565101 1.106013,-1.803352 1.821183,-3.714738 -0.299365,0.14956 -0.673589,0.224387 -1.122649,0.224387 -1.397069,0 -2.095602,-0.581731 -2.095602,-1.745186 0,-0.61497 0.07483,-1.213316 0.224534,-1.795045 L 28.677894,14.52409 h -7.35957 l -0.548847,2.717495 v -0.373967 c 0,-0.747938 -0.324338,-1.362903 -0.972959,-1.844909 -0.648639,-0.498619 -1.704757,-0.747932 -3.168354,-0.747932 z m 1.372122,3.166255 c 0.948011,0 1.563383,0.249289 1.846127,0.747937 0.299363,0.482 0.44906,0.880901 0.44906,1.196695 l -2.444874,11.518197 c -0.316001,1.396144 -0.889802,2.501425 -1.72139,3.315845 -0.831589,0.797797 -1.754654,1.196697 -2.769192,1.196697 -0.548852,0 -1.006224,-0.182837 -1.372121,-0.548489 -0.632011,-0.59835 -0.948016,-1.653765 -0.948016,-3.166257 0,-0.781177 0.04158,-1.520801 0.124754,-2.218874 0.548849,-4.570709 1.904339,-8.077693 4.066472,-10.520946 0.898116,-1.013868 1.821179,-1.520805 2.769192,-1.520805 z"
     id="text942" />
  <g
     transform="matrix(0.69135295,0,0,0.69089505,62.482829,43.003261)"
     style="font-style:normal;font-variant:normal;font-weight:normal;font-stretch:normal;font-size:40px;line-height:1.25;font-family:'Swis721 BlkCn BT';-inkscape-font-specification:'Swis721 BlkCn BT';letter-spacing:0px;word-spacing:0px;white-space:pre;shape-inside:url(#rect868);fill:none;fill-opacity:1;stroke:#f2f2f2;stroke-width:4.34076;stroke-opacity:1"
     id="g42"
     aria-label="s">
    <path
       id="path40"
       style="font-style:normal;font-variant:normal;font-weight:normal;font-stretch:normal;font-family:'Swis721 BlkCn BT';-inkscape-font-specification:'Swis721 BlkCn BT';fill:none;stroke:#f2f2f2;stroke-width:4.34076;stroke-opacity:1"
       d="m -42.474609,-2.7089844 5.644531,0.019531 q 0.09766,1.75781247 0.683594,2.57812498 0.585937,0.80078124 1.757812,0.80078124 0.9375,0 1.542969,-0.546875 0.605469,-0.56640625 0.605469,-1.44531252 0,-0.7617187 -0.429688,-1.25 -0.410156,-0.5078125 -1.855469,-1.1914062 -0.3125,-0.15625 -0.976562,-0.46875 -3.417969,-1.5820313 -4.765625,-2.96875 -0.957031,-0.9375 -1.464844,-2.1875 -0.507812,-1.2500001 -0.507812,-2.6171871 0,-3.085938 2.089843,-4.921875 2.109375,-1.835938 5.683594,-1.835938 3.710938,0 5.703125,1.777344 2.011719,1.757813 2.011719,5.058594 v 0.410156 l -5.527344,-0.01953 q -0.03906,-1.699219 -0.527344,-2.421875 -0.46875,-0.722656 -1.542968,-0.722656 -0.957032,0 -1.523438,0.527343 -0.566406,0.507813 -0.566406,1.347657 0,1.484375 2.832031,2.734375 0.390625,0.1757806 0.605469,0.2734368 3.867187,1.7382813 5.175781,3.3789063 1.308594,1.640625 1.308594,4.296875 0,3.4179687 -2.109375,5.2929687 -2.109375,1.875 -6.015625,1.875 -3.710938,0 -5.78125,-1.8945312 -2.050781,-1.8945313 -2.050781,-5.3125 z" />
  </g>
  <g
     aria-label="s"
     id="text866"
     style="font-style:normal;font-variant:normal;font-weight:normal;font-stretch:normal;font-size:40px;line-height:1.25;font-family:'Swis721 BlkCn BT';-inkscape-font-specification:'Swis721 BlkCn BT';letter-spacing:0px;word-spacing:0px;white-space:pre;shape-inside:url(#rect868);fill:#1a1a1a;fill-opacity:1;stroke:none"
     transform="matrix(0.69135295,0,0,0.69089505,62.482829,43.003261)">
    <path
       d="m -42.474609,-2.7089844 5.644531,0.019531 q 0.09766,1.75781247 0.683594,2.57812498 0.585937,0.80078124 1.757812,0.80078124 0.9375,0 1.542969,-0.546875 0.605469,-0.56640625 0.605469,-1.44531252 0,-0.7617187 -0.429688,-1.25 -0.410156,-0.5078125 -1.855469,-1.1914062 -0.3125,-0.15625 -0.976562,-0.46875 -3.417969,-1.5820313 -4.765625,-2.96875 -0.957031,-0.9375 -1.464844,-2.1875 -0.507812,-1.2500001 -0.507812,-2.6171871 0,-3.085938 2.089843,-4.921875 2.109375,-1.835938 5.683594,-1.835938 3.710938,0 5.703125,1.777344 2.011719,1.757813 2.011719,5.058594 v 0.410156 l -5.527344,-0.01953 q -0.03906,-1.699219 -0.527344,-2.421875 -0.46875,-0.722656 -1.542968,-0.722656 -0.957032,0 -1.523438,0.527343 -0.566406,0.507813 -0.566406,1.347657 0,1.484375 2.832031,2.734375 0.390625,0.1757806 0.605469,0.2734368 3.867187,1.7382813 5.175781,3.3789063 1.308594,1.640625 1.308594,4.296875 0,3.4179687 -2.109375,5.2929687 -2.109375,1.875 -6.015625,1.875 -3.710938,0 -5.78125,-1.8945312 -2.050781,-1.8945313 -2.050781,-5.3125 z"
       style="font-style:normal;font-variant:normal;font-weight:normal;font-stretch:normal;font-family:'Swis721 BlkCn BT';-inkscape-font-specification:'Swis721 BlkCn BT';fill:#1a1a1a"
       id="path872" />
  </g>
</svg>
