<?xml version="1.0" encoding="utf-8"?>

<!-- Uploaded to: SVG Repo, www.svgrepo.com, Generator: SVG Repo Mixer Tools -->
<svg version="1.1" xmlns="http://www.w3.org/2000/svg" xmlns:xlink="http://www.w3.org/1999/xlink" 
	 viewBox="0 0 500 500" xml:space="preserve">
<style type="text/css">
	.st0{fill:#FFFFFF;stroke:#FFFFFF;stroke-width:10;stroke-miterlimit:10;}
	.st1{fill:#522F17;}
	.st2{fill:#FFE7BA;}
	.st3{fill:#B520BA;}
</style>
<g id="border">
	<g>
		<path class="st0" d="M356.386,151.859c-0.049-2.186-0.156-4.37-0.338-6.549v-1.213c-1.299-16.274-6.28-32.041-14.566-46.107
			c-1.548-2.636-3.208-5.205-4.975-7.699c-0.332-0.473-0.668-0.943-1.008-1.41c-1.752-2.391-3.602-4.709-5.545-6.947
			c-0.435-0.504-0.874-1.004-1.318-1.5c-1.923-2.132-3.93-4.186-6.018-6.158c-0.557-0.531-1.121-1.056-1.689-1.574
			c-2.04-1.846-4.151-3.614-6.326-5.299c-0.706-0.551-1.419-1.094-2.139-1.627c-2.124-1.561-4.304-3.043-6.537-4.443
			c-0.849-0.537-1.705-1.061-2.568-1.574c-2.17-1.278-4.384-2.479-6.639-3.602c-1.011-0.508-2.03-1-3.057-1.477
			c-2.171-0.996-4.374-1.92-6.605-2.77c-1.178-0.454-2.364-0.887-3.557-1.299c-2.125-0.724-4.272-1.381-6.438-1.971
			c-1.367-0.378-2.741-0.729-4.121-1.053c-2.045-0.471-4.103-0.882-6.172-1.232c-1.529-0.265-3.063-0.497-4.602-0.695
			c-1.938-0.242-3.883-0.432-5.832-0.568c-2.549-0.219-5.106-0.346-7.664-0.383c-3.129,0.025-6.255,0.186-9.369,0.482
			c-1.496,0.15-2.99,0.331-4.479,0.543c-2.145,0.261-4.281,0.587-6.406,0.977c-1.235,0.255-2.466,0.532-3.691,0.83
			c-2.341,0.519-4.664,1.115-6.965,1.789c-0.986,0.312-1.968,0.638-2.945,0.979c-2.491,0.812-4.952,1.714-7.377,2.705
			c-0.752,0.326-1.5,0.661-2.244,1.004c-2.601,1.136-5.155,2.375-7.658,3.713c-0.519,0.292-1.035,0.588-1.549,0.889
			c-2.679,1.494-5.292,3.101-7.834,4.818c-0.297,0.21-0.592,0.422-0.887,0.635c-2.7,1.869-5.312,3.861-7.83,5.969
			c-0.136,0.119-0.272,0.239-0.408,0.359c-2.64,2.238-5.17,4.601-7.582,7.082c-0.012,0.014-0.025,0.027-0.037,0.041
			c-6.134,6.338-11.467,13.405-15.879,21.043h-0.041c-9.401,16.201-14.405,34.57-14.54,53.294h-0.011v100h66.377
			c12.983,5.417,27.02,8.296,41.355,8.314c14.362-0.006,28.429-2.886,41.436-8.314h66.296v-100H356.386z"/>
		<path class="st0" d="M248.673,268.173c-14.467-0.002-28.786-2.918-42.102-8.574c-31.47,35.565-54.704,108.667-62.602,196.967
			h209.174v-2.637c-8.181-87.318-31.382-159.318-62.621-194.336C277.285,265.217,263.056,268.135,248.673,268.173z"/>
	</g>
</g>
<g id="object" xmlns:cc="http://creativecommons.org/ns#" xmlns:dc="http://purl.org/dc/elements/1.1/" xmlns:inkscape="http://www.inkscape.org/namespaces/inkscape" xmlns:rdf="http://www.w3.org/1999/02/22-rdf-syntax-ns#" xmlns:sodipodi="http://sodipodi.sourceforge.net/DTD/sodipodi-0.dtd" xmlns:svg="http://www.w3.org/2000/svg">
	<g transform="translate(0,-552.3622)" inkscape:groupmode="layer" inkscape:label="繝ｬ繧､繝､繝ｼ 1">
		<path class="st1" d="M356.386,704.221c-0.049-2.186-0.156-4.37-0.338-6.549v-1.213c-1.299-16.274-6.28-32.041-14.566-46.107
			c-1.548-2.636-3.208-5.205-4.975-7.699c-0.332-0.473-0.668-0.943-1.008-1.41c-1.752-2.391-3.602-4.709-5.545-6.947
			c-0.435-0.504-0.874-1.004-1.318-1.5c-1.923-2.132-3.93-4.186-6.018-6.158c-0.557-0.531-1.121-1.056-1.689-1.574
			c-2.04-1.846-4.151-3.614-6.326-5.299c-0.706-0.551-1.419-1.094-2.139-1.627c-2.124-1.561-4.304-3.043-6.537-4.443
			c-0.849-0.537-1.705-1.061-2.568-1.574c-2.17-1.278-4.384-2.479-6.639-3.602c-1.011-0.508-2.03-1-3.057-1.477
			c-2.171-0.996-4.374-1.92-6.605-2.77c-1.178-0.454-2.364-0.887-3.557-1.299c-2.125-0.724-4.272-1.381-6.438-1.971
			c-1.367-0.378-2.741-0.729-4.121-1.053c-2.045-0.471-4.103-0.882-6.172-1.232c-1.529-0.265-3.063-0.497-4.602-0.695
			c-1.938-0.242-3.883-0.432-5.832-0.568c-2.549-0.219-5.106-0.346-7.664-0.383c-3.129,0.025-6.255,0.186-9.369,0.482
			c-1.496,0.15-2.99,0.331-4.479,0.543c-2.145,0.261-4.281,0.587-6.406,0.977c-1.235,0.255-2.466,0.532-3.691,0.83
			c-2.341,0.519-4.664,1.115-6.965,1.789c-0.986,0.312-1.968,0.638-2.945,0.979c-2.491,0.812-4.952,1.714-7.377,2.705
			c-0.752,0.326-1.5,0.661-2.244,1.004c-2.601,1.136-5.155,2.375-7.658,3.713c-0.519,0.292-1.035,0.588-1.549,0.889
			c-2.679,1.494-5.292,3.101-7.834,4.818c-0.297,0.21-0.592,0.422-0.887,0.635c-2.7,1.869-5.312,3.861-7.83,5.969
			c-0.136,0.119-0.272,0.239-0.408,0.359c-2.64,2.238-5.17,4.601-7.582,7.082c-0.012,0.014-0.025,0.027-0.037,0.041
			c-6.134,6.338-11.467,13.405-15.879,21.043h-0.041c-9.401,16.201-14.405,34.57-14.54,53.294h-0.011v100h104.688h5.548h105.229
			v-100H356.386z"/>
		<path class="st2" d="M173.144,705.927v75.568c20.128,19.857,47.255,31.005,75.529,31.039
			c28.281-0.013,55.422-11.145,75.566-30.994v-75.613H173.144z M324.257,781.521 M173.13,781.482"/>
		<path inkscape:connector-curvature="0" class="st3" d="M290.523,811.955c-13.237,5.625-27.467,8.542-41.85,8.58
			c-14.467-0.002-28.786-2.918-42.102-8.574c-31.47,35.565-54.704,108.667-62.602,196.967h209.174v-2.637
			C344.963,918.973,321.762,846.973,290.523,811.955z"/>
	</g>
</g>
</svg>