<?xml version="1.0" encoding="UTF-8" standalone="no"?>
<svg
   xmlns:dc="http://purl.org/dc/elements/1.1/"
   xmlns:cc="http://creativecommons.org/ns#"
   xmlns:rdf="http://www.w3.org/1999/02/22-rdf-syntax-ns#"
   xmlns:svg="http://www.w3.org/2000/svg"
   xmlns="http://www.w3.org/2000/svg"
   xmlns:xlink="http://www.w3.org/1999/xlink"
   xmlns:sodipodi="http://sodipodi.sourceforge.net/DTD/sodipodi-0.dtd"
   xmlns:inkscape="http://www.inkscape.org/namespaces/inkscape"
   sodipodi:docname="ct_find_all.svg"
   inkscape:version="1.0 (4035a4fb49, 2020-05-01)"
   id="svg8"
   version="1.1"
   viewBox="0 0 12.7 12.7"
   height="48"
   width="48">
  <defs
     id="defs2">
    <linearGradient
       x1="23.731871"
       y1="4.4175272"
       x2="23.731871"
       y2="39.454281"
       id="linearGradient3254"
       xlink:href="#linearGradient3242-7-3-8-0-4-58-06"
       gradientUnits="userSpaceOnUse"
       gradientTransform="matrix(0.27562172,0,0,0.25654228,-21.44355,-14.676707)" />
    <linearGradient
       id="linearGradient3242-7-3-8-0-4-58-06">
      <stop
         id="stop3244-5-8-5-6-4-3-8"
         style="stop-color:#cdf87e;stop-opacity:1"
         offset="0" />
      <stop
         id="stop3246-9-5-1-5-3-0-7"
         style="stop-color:#a2e34f;stop-opacity:1"
         offset="0.26238" />
      <stop
         id="stop3248-7-2-0-7-5-35-9"
         style="stop-color:#68b723;stop-opacity:1"
         offset="0.66093999" />
      <stop
         id="stop3250-8-2-8-5-6-40-4"
         style="stop-color:#1d7e0d;stop-opacity:1"
         offset="1" />
    </linearGradient>
    <linearGradient
       x1="38.940514"
       y1="15.991243"
       x2="20.576487"
       y2="15.991243"
       id="linearGradient3198-5"
       xlink:href="#linearGradient4087-4-6"
       gradientUnits="userSpaceOnUse"
       gradientTransform="matrix(0,-0.30064855,0.3230083,0,-20.952171,-0.797489)" />
    <linearGradient
       id="linearGradient4087-4-6">
      <stop
         id="stop4089-0-9"
         style="stop-color:#ffffff;stop-opacity:1"
         offset="0" />
      <stop
         id="stop4091-5-8"
         style="stop-color:#ffffff;stop-opacity:0.23529412"
         offset="0.51153916" />
      <stop
         id="stop4093-9-7"
         style="stop-color:#ffffff;stop-opacity:0.15686275"
         offset="0.58522105" />
      <stop
         id="stop4095-4-2"
         style="stop-color:#ffffff;stop-opacity:0.39215687"
         offset="1" />
    </linearGradient>
    <linearGradient
       gradientTransform="matrix(-1.0417199,0,0,0.96960863,49.672366,1.2469198)"
       gradientUnits="userSpaceOnUse"
       xlink:href="#linearGradient3846"
       id="linearGradient3254-7"
       y2="38.066303"
       x2="23.731871"
       y1="4.4175272"
       x1="23.731871" />
    <linearGradient
       id="linearGradient3846">
      <stop
         offset="0"
         style="stop-color:#fff3cb;stop-opacity:1"
         id="stop3848" />
      <stop
         offset="0.26238"
         style="stop-color:#fdde76;stop-opacity:1"
         id="stop3850" />
      <stop
         offset="0.66093999"
         style="stop-color:#f9c440;stop-opacity:1"
         id="stop3852" />
      <stop
         offset="1"
         style="stop-color:#e48b20;stop-opacity:1"
         id="stop3854" />
    </linearGradient>
    <linearGradient
       gradientTransform="matrix(0,-1.1363095,-1.2208188,0,47.815188,53.703806)"
       gradientUnits="userSpaceOnUse"
       xlink:href="#linearGradient4087-4-6"
       id="linearGradient3198-5-0"
       y2="15.991243"
       x2="20.576487"
       y1="15.991243"
       x1="38.940514" />
  </defs>
  <sodipodi:namedview
     inkscape:window-maximized="1"
     inkscape:window-y="22"
     inkscape:window-x="-8"
     inkscape:window-height="715"
     inkscape:window-width="1366"
     units="px"
     inkscape:showpageshadow="false"
     showgrid="false"
     inkscape:document-rotation="0"
     inkscape:current-layer="layer1"
     inkscape:document-units="mm"
     inkscape:cy="-5.549463"
     inkscape:cx="30.092948"
     inkscape:zoom="4.946893"
     inkscape:pageshadow="2"
     inkscape:pageopacity="0.0"
     borderopacity="1.0"
     bordercolor="#666666"
     pagecolor="#ffffff"
     id="base" />
  <metadata
     id="metadata5">
    <rdf:RDF>
      <cc:Work
         rdf:about="">
        <dc:format>image/svg+xml</dc:format>
        <dc:type
           rdf:resource="http://purl.org/dc/dcmitype/StillImage" />
        <dc:title></dc:title>
      </cc:Work>
    </rdf:RDF>
  </metadata>
  <g
     id="layer1"
     inkscape:groupmode="layer"
     inkscape:label="Capa 1">
    <g
       id="g1055"
       transform="matrix(0.88761178,0,0,0.88761178,-0.43803047,-0.31758819)">
      <g
         transform="translate(11.036554,3.061234)"
         style="stroke:#7a0000;stroke-opacity:1"
         id="g1018">
        <g
           style="stroke:#7a0000;stroke-opacity:1"
           id="cherry2-3"
           transform="matrix(0.1203468,0.00521202,-0.00532923,0.12128682,-8.3880628,-3.3438663)">
          <path
             style="fill:#c6262e;fill-opacity:1;stroke:#7a0000;stroke-width:4.1346;stroke-opacity:1"
             id="p5-12"
             d="m 42.021325,38.735182 c -2.279722,6.288872 -8.636377,11.670921 -14.976424,9.411231 -6.70613,-0.642133 -10.13411,-8.200552 -9.485159,-14.85215 0.72889,-7.470957 6.639519,-10.416091 14.793381,-8.602451 8.153861,1.813641 12.228746,6.979824 9.668202,14.04337 z" />
          <path
             style="fill:none;stroke:#333333;stroke-width:4.1346;stroke-opacity:1"
             id="p8-9"
             d="m 28.22429,26.01175 c -0.601384,3.336063 4.88838,5.213413 6.335518,2.000743" />
        </g>
        <path
           style="fill:#275100;fill-opacity:0.945098;stroke:#3a9104;stroke-width:0.5;stroke-linecap:round;stroke-opacity:1;stop-color:#000000"
           d="m -4.8335274,0.08055881 c 0.1452989,-0.3893675 0.4855397,-0.6981762 0.9667054,-1.08754371"
           id="path1009"
           sodipodi:nodetypes="cc" />
      </g>
      <path
         d="M 5.7418096,3.9793271 A 0.52363216,0.40279397 48.878523 0 1 5.0940074,3.8497667 0.52363216,0.40279397 48.878523 0 1 5.0530684,3.1904052 0.52363216,0.40279397 48.878523 0 1 5.7008706,3.3199656 0.52363216,0.40279397 48.878523 0 1 5.7418096,3.9793271"
         style="opacity:1;fill:#ff8c82;fill-opacity:1;stroke:none;stroke-width:0.495729;stroke-linecap:round;stroke-opacity:1;stop-color:#000000"
         id="path1046" />
    </g>
    <path
       id="path39"
       style="fill:#333333;stroke-width:2.26957;stroke-linecap:round;stop-color:#000000"
       d="M 5.0601193,0.0061551 A 5.0524082,5.0401756 0 0 0 0.00746497,5.0465762 5.0524082,5.0401756 0 0 0 5.0601193,10.086998 5.0524082,5.0401756 0 0 0 7.9293939,9.1948097 c 0.033462,0.056923 0.071464,0.1115404 0.1205229,0.1604804 l 3.1201492,3.1125939 c 0.308632,0.307885 0.805559,0.307885 1.114191,0 l 0.184664,-0.184732 c 0.308632,-0.307885 0.308632,-0.803609 0,-1.111494 L 9.349289,8.0595798 C 9.3021308,8.012536 9.2492335,7.9751123 9.1946263,7.9424446 A 5.0524082,5.0401756 0 0 0 10.112257,5.0465762 5.0524082,5.0401756 0 0 0 5.0601193,0.0061551 Z m -0.036726,1.0691803 a 3.9806855,3.9710477 0 0 1 0.036726,0 3.9806855,3.9710477 0 0 1 3.980879,3.9712408 A 3.9806855,3.9710477 0 0 1 5.0601193,9.017817 3.9806855,3.9710477 0 0 1 1.0792402,5.0465762 3.9806855,3.9710477 0 0 1 5.0233933,1.0753354 Z" />
    <g
       transform="matrix(0.88761178,0,0,0.88761178,-0.43803047,3.384193)"
       id="g1083">
      <g
         id="g1079"
         style="stroke:#7a0000;stroke-opacity:1"
         transform="translate(11.036554,3.061234)">
        <g
           transform="matrix(0.1203468,0.00521202,-0.00532923,0.12128682,-8.3880628,-3.3438663)"
           id="g1075"
           style="stroke:#7a0000;stroke-opacity:1">
          <path
             d="m 42.021325,38.735182 c -2.279722,6.288872 -8.636377,11.670921 -14.976424,9.411231 -6.70613,-0.642133 -10.13411,-8.200552 -9.485159,-14.85215 0.72889,-7.470957 6.639519,-10.416091 14.793381,-8.602451 8.153861,1.813641 12.228746,6.979824 9.668202,14.04337 z"
             id="path1071"
             style="fill:#3a9104;fill-opacity:1;stroke:#206b00;stroke-width:4.1346;stroke-opacity:1" />
          <path
             d="m 28.22429,26.01175 c -0.601384,3.336063 4.88838,5.213413 6.335518,2.000743"
             id="path1073"
             style="fill:none;stroke:#1a1a1a;stroke-width:4.1346;stroke-opacity:1" />
        </g>
        <path
           sodipodi:nodetypes="cc"
           id="path1077"
           d="m -4.8335274,0.08055881 c 0.1452989,-0.3893675 0.4855397,-0.6981762 0.9667054,-1.08754371"
           style="fill:#275100;fill-opacity:0.945098;stroke:#3a9104;stroke-width:0.5;stroke-linecap:round;stroke-opacity:1;stop-color:#000000" />
      </g>
      <path
         id="path1081"
         style="opacity:1;fill:#d1ff82;fill-opacity:1;stroke:none;stroke-width:0.495729;stroke-linecap:round;stroke-opacity:1;stop-color:#000000"
         d="M 5.7418096,3.9793271 A 0.52363216,0.40279397 48.878523 0 1 5.0940074,3.8497667 0.52363216,0.40279397 48.878523 0 1 5.0530684,3.1904052 0.52363216,0.40279397 48.878523 0 1 5.7008706,3.3199656 0.52363216,0.40279397 48.878523 0 1 5.7418096,3.9793271" />
    </g>
  </g>
</svg>
