<?xml version="1.0" encoding="utf-8"?><!-- Uploaded to: SVG Repo, www.svgrepo.com, Generator: SVG Repo Mixer Tools -->
<svg width="800px" height="800px" viewBox="0 0 32 32" fill="none" xmlns="http://www.w3.org/2000/svg">
<path d="M30 16.0004C30 8.26828 23.7318 2 15.9998 2C8.27112 2 2.00547 8.26303 2 15.9906V26.8246C2.00416 28.5792 3.42723 29.9997 5.18292 29.9997H16.0055C23.735 29.9966 30 23.7305 30 16.0004Z" fill="#294172"/>
<path d="M20.1101 5.31494C16.4888 5.31494 13.5427 8.26096 13.5427 11.8824V15.3681H10.0713C6.45003 15.3681 3.50391 18.3144 3.50391 21.9357C3.50391 25.5569 6.45003 28.5031 10.0713 28.5031C13.6926 28.5031 16.6388 25.5569 16.6388 21.9357V18.4498H20.1101C23.7314 18.4498 26.6776 15.5037 26.6776 11.8824C26.6776 8.26096 23.7314 5.31494 20.1101 5.31494ZM13.567 21.9357C13.567 23.8631 11.9988 25.4312 10.0713 25.4312C8.14381 25.4312 6.5757 23.8631 6.5757 21.9357C6.5757 20.0082 8.14381 18.4401 10.0713 18.4401H13.5427V18.4498H13.567V21.9357ZM20.1101 15.378H16.6388V15.3681H16.6146V11.8824C16.6146 9.95485 18.1827 8.38674 20.1101 8.38674C22.0375 8.38674 23.6057 9.95485 23.6057 11.8824C23.6057 13.8099 22.0375 15.378 20.1101 15.378Z" fill="#3C6EB4"/>
<path d="M21.5619 5.5137C21.0522 5.38048 20.6609 5.31836 20.1104 5.31836C16.4816 5.31836 13.5397 8.26044 13.5397 11.889V15.3717H10.7878C9.92975 15.3717 9.23631 16.046 9.23686 16.9025C9.23686 17.7536 9.92264 18.4308 10.7716 18.4308L13.05 18.4312C13.3205 18.4312 13.5399 18.65 13.5399 18.92V21.9336C13.5365 23.8467 11.9847 25.3963 10.0716 25.3963C9.42356 25.3963 9.26311 25.3115 8.82069 25.3115C7.89133 25.3115 7.26953 25.9345 7.26953 26.7911C7.26975 27.4997 7.877 28.1089 8.62009 28.3034C9.12978 28.4366 9.52112 28.4989 10.0716 28.4989C13.7003 28.4989 16.6423 25.5568 16.6423 21.9282V18.4455H19.3942C20.2522 18.4455 20.9457 17.7712 20.9451 16.9147C20.9451 16.0635 20.2593 15.3864 19.4104 15.3864L17.132 15.386C17.0022 15.3861 16.8777 15.3347 16.7858 15.243C16.6939 15.1513 16.6422 15.0269 16.6421 14.8971V11.8835C16.6455 9.97041 18.1973 8.42078 20.1104 8.42078C20.7584 8.42078 20.9189 8.50577 21.3613 8.50577C22.2907 8.50577 22.9125 7.88266 22.9125 7.02614C22.9122 6.31739 22.305 5.70817 21.5619 5.5137Z" fill="white"/>
</svg>