<?xml version="1.0" encoding="UTF-8" standalone="no"?>
<svg
   xmlns:dc="http://purl.org/dc/elements/1.1/"
   xmlns:cc="http://creativecommons.org/ns#"
   xmlns:rdf="http://www.w3.org/1999/02/22-rdf-syntax-ns#"
   xmlns:svg="http://www.w3.org/2000/svg"
   xmlns="http://www.w3.org/2000/svg"
   xmlns:xlink="http://www.w3.org/1999/xlink"
   xmlns:sodipodi="http://sodipodi.sourceforge.net/DTD/sodipodi-0.dtd"
   xmlns:inkscape="http://www.inkscape.org/namespaces/inkscape"
   version="1.1"
   width="16"
   height="16"
   id="svg3963"
   sodipodi:docname="ct_from_txt.svg"
   inkscape:version="1.0 (4035a4fb49, 2020-05-01)">
  <sodipodi:namedview
     inkscape:document-rotation="0"
     pagecolor="#ffffff"
     bordercolor="#666666"
     borderopacity="1"
     objecttolerance="10"
     gridtolerance="10"
     guidetolerance="10"
     inkscape:pageopacity="0"
     inkscape:pageshadow="2"
     inkscape:window-width="1366"
     inkscape:window-height="715"
     id="namedview40"
     showgrid="false"
     inkscape:zoom="25.001921"
     inkscape:cx="4.0803013"
     inkscape:cy="1.4293192"
     inkscape:window-x="-8"
     inkscape:window-y="22"
     inkscape:window-maximized="1"
     inkscape:current-layer="svg3963" />
  <defs
     id="defs3965">
    <linearGradient
       x1="182"
       y1="33"
       x2="182"
       y2="24.519934"
       id="linearGradient3138"
       xlink:href="#linearGradient3985-6-635-120-628-965"
       gradientUnits="userSpaceOnUse"
       gradientTransform="matrix(0.57418708,0,0,0.57270135,-100.42477,-7.1792409)" />
    <linearGradient
       id="linearGradient3985-6-635-120-628-965">
      <stop
         id="stop7116"
         style="stop-color:#ffffff;stop-opacity:1"
         offset="0" />
      <stop
         id="stop7118"
         style="stop-color:#ffffff;stop-opacity:0"
         offset="1" />
    </linearGradient>
    <linearGradient
       x1="188"
       y1="17"
       x2="188"
       y2="36.026299"
       id="linearGradient3168"
       xlink:href="#linearGradient3985-746-156-539-972"
       gradientUnits="userSpaceOnUse"
       gradientTransform="matrix(0.44035822,0,0,0.44035823,-76.20947,-3.1464798)" />
    <linearGradient
       id="linearGradient3985-746-156-539-972">
      <stop
         id="stop7110"
         style="stop-color:#ffffff;stop-opacity:1"
         offset="0" />
      <stop
         id="stop7112"
         style="stop-color:#ffffff;stop-opacity:0"
         offset="1" />
    </linearGradient>
    <linearGradient
       x1="25.132275"
       y1="0.98520643"
       x2="25.132275"
       y2="47.013336"
       id="linearGradient3143"
       xlink:href="#linearGradient3600"
       gradientUnits="userSpaceOnUse"
       gradientTransform="matrix(0.31428714,0,0,0.3259265,0.457108,-0.32223804)" />
    <linearGradient
       id="linearGradient3600">
      <stop
         id="stop3602"
         style="stop-color:#f4f4f4;stop-opacity:1"
         offset="0" />
      <stop
         id="stop3604"
         style="stop-color:#dbdbdb;stop-opacity:1"
         offset="1" />
    </linearGradient>
    <linearGradient
       x1="-51.786404"
       y1="50.786446"
       x2="-51.786404"
       y2="2.9062471"
       id="linearGradient3145"
       xlink:href="#linearGradient3104"
       gradientUnits="userSpaceOnUse"
       gradientTransform="matrix(0.25378586,0,0,0.30501865,19.128979,-0.68547704)" />
    <linearGradient
       id="linearGradient3104">
      <stop
         id="stop3106"
         style="stop-color:#a0a0a0;stop-opacity:1"
         offset="0" />
      <stop
         id="stop3108"
         style="stop-color:#bebebe;stop-opacity:1"
         offset="1" />
    </linearGradient>
    <linearGradient
       x1="23.99999"
       y1="5.5641499"
       x2="23.99999"
       y2="43"
       id="linearGradient3988"
       xlink:href="#linearGradient3977"
       gradientUnits="userSpaceOnUse"
       gradientTransform="matrix(0.24324324,0,0,0.35135133,2.1621636,-0.43242804)" />
    <linearGradient
       id="linearGradient3977">
      <stop
         id="stop3979"
         style="stop-color:#ffffff;stop-opacity:1"
         offset="0" />
      <stop
         id="stop3981"
         style="stop-color:#ffffff;stop-opacity:0.23529412"
         offset="0.03626217" />
      <stop
         id="stop3983"
         style="stop-color:#ffffff;stop-opacity:0.15686275"
         offset="0.95056331" />
      <stop
         id="stop3985"
         style="stop-color:#ffffff;stop-opacity:0.39215687"
         offset="1" />
    </linearGradient>
    <linearGradient
       id="linearGradient3104-5">
      <stop
         id="stop3106-2"
         style="stop-color:#aaaaaa;stop-opacity:1"
         offset="0" />
      <stop
         id="stop3108-5"
         style="stop-color:#c8c8c8;stop-opacity:1"
         offset="1" />
    </linearGradient>
    <linearGradient
       x1="22.004084"
       y1="47.813133"
       x2="22.004084"
       y2="3.3638515"
       id="linearGradient3961"
       xlink:href="#linearGradient3104-5"
       gradientUnits="userSpaceOnUse"
       gradientTransform="matrix(0.32160807,0,0,0.3333374,-0.1751469,-0.34907707)" />
    <linearGradient
       xlink:href="#linearGradient4382"
       id="linearGradient1434-8"
       gradientUnits="userSpaceOnUse"
       gradientTransform="matrix(-0.36363758,0,0,0.36306836,24.409136,3.1620029)"
       x1="46.301373"
       y1="24.282389"
       x2="24.453047"
       y2="24.282389" />
    <linearGradient
       id="linearGradient4382">
      <stop
         id="stop4384"
         style="stop-color:#64baff;stop-opacity:1"
         offset="0" />
      <stop
         id="stop4386"
         style="stop-color:#3689e6;stop-opacity:1"
         offset="1" />
    </linearGradient>
    <linearGradient
       x1="32.095264"
       y1="49.711662"
       x2="32.095264"
       y2="61.119415"
       id="linearGradient3149-7-7-8"
       xlink:href="#linearGradient3977-8"
       gradientUnits="userSpaceOnUse"
       gradientTransform="matrix(0,-0.32595359,0.35063868,0,-8.4308303,21.968285)" />
    <linearGradient
       id="linearGradient3977-8">
      <stop
         id="stop3979-6"
         style="stop-color:#ffffff;stop-opacity:1"
         offset="0" />
      <stop
         id="stop3981-1"
         style="stop-color:#ffffff;stop-opacity:0.23529412"
         offset="0" />
      <stop
         id="stop3983-3"
         style="stop-color:#ffffff;stop-opacity:0.15686275"
         offset="1" />
      <stop
         id="stop3985-0"
         style="stop-color:#ffffff;stop-opacity:0.39215687"
         offset="1" />
    </linearGradient>
    <linearGradient
       y2="24.282389"
       x2="24.453047"
       y1="24.282389"
       x1="46.301373"
       gradientTransform="matrix(0.36363758,0,0,0.36306836,-1.4091346,-4.9398152)"
       gradientUnits="userSpaceOnUse"
       id="linearGradient1434-8-3"
       xlink:href="#linearGradient899" />
    <linearGradient
       id="linearGradient899">
      <stop
         id="stop895"
         offset="0"
         style="stop-color:#cd9ef7;stop-opacity:1" />
      <stop
         id="stop897"
         offset="1"
         style="stop-color:#a56de2;stop-opacity:1" />
    </linearGradient>
    <linearGradient
       gradientTransform="matrix(0,-0.32595359,-0.35063868,0,31.430831,13.866467)"
       gradientUnits="userSpaceOnUse"
       xlink:href="#linearGradient3977-8"
       id="linearGradient3149-7-7-8-8"
       y2="61.119415"
       x2="32.095264"
       y1="49.711662"
       x1="32.095264" />
    <radialGradient
       cx="24.837126"
       cy="36.421127"
       r="15.644737"
       fx="24.837126"
       fy="36.421127"
       id="radialGradient3129"
       xlink:href="#linearGradient3688-5"
       gradientUnits="userSpaceOnUse"
       gradientTransform="matrix(-0.18401958,0,0,-0.19761511,12.570517,20.105731)" />
    <linearGradient
       id="linearGradient3688-5">
      <stop
         offset="0"
         style="stop-color:#000000;stop-opacity:1"
         id="stop3690-8" />
      <stop
         offset="1"
         style="stop-color:#000000;stop-opacity:0"
         id="stop3692-6" />
    </linearGradient>
    <linearGradient
       gradientUnits="userSpaceOnUse"
       y2="21.482735"
       x2="46.511391"
       y1="21.482735"
       x1="23.999962"
       id="linearGradient901"
       xlink:href="#linearGradient899"
       gradientTransform="matrix(0,0.36363758,-0.36306836,0,16.888906,-1.4091336)" />
    <linearGradient
       x1="34.874741"
       y1="67.730797"
       x2="34.874741"
       y2="49.711662"
       id="linearGradient3149-7"
       xlink:href="#linearGradient4297"
       gradientUnits="userSpaceOnUse"
       gradientTransform="matrix(0.32595359,0,0,-0.35063868,-1.9173762,31.430831)" />
    <linearGradient
       id="linearGradient4297">
      <stop
         id="stop4299"
         style="stop-color:#ffffff;stop-opacity:1"
         offset="0" />
      <stop
         id="stop4301"
         style="stop-color:#ffffff;stop-opacity:0.23529412"
         offset="0.52457154" />
      <stop
         id="stop4303"
         style="stop-color:#ffffff;stop-opacity:0.15686275"
         offset="1" />
      <stop
         id="stop4305"
         style="stop-color:#ffffff;stop-opacity:0.39215687"
         offset="1" />
    </linearGradient>
  </defs>
  <metadata
     id="metadata3968">
    <rdf:RDF>
      <cc:Work
         rdf:about="">
        <dc:format>image/svg+xml</dc:format>
        <dc:type
           rdf:resource="http://purl.org/dc/dcmitype/StillImage" />
        <dc:title />
      </cc:Work>
    </rdf:RDF>
  </metadata>
  <g
     id="layer1">
    <g
       id="layer1-0">
      <path
         d="m 2.4999621,0.49997396 c 2.5206756,0 11.0000629,9.54e-4 11.0000629,9.54e-4 l 1.3e-5,14.99909804 c 0,0 -7.3333841,0 -11.0000759,0 0,-5.000017 0,-10.000035 0,-15.00005204 z"
         id="path4160"
         style="fill:url(#linearGradient3143);fill-opacity:1;stroke:url(#linearGradient3145);stroke-width:0.99992192;stroke-linecap:butt;stroke-linejoin:round;stroke-miterlimit:4;stroke-opacity:1;stroke-dasharray:none;stroke-dashoffset:0;display:inline" />
      <path
         d="m 12.5,14.5 -9.0000001,0 0,-13 L 12.5,1.5 z"
         id="rect6741-1"
         style="fill:none;stroke:url(#linearGradient3988);stroke-width:1;stroke-linecap:round;stroke-linejoin:miter;stroke-miterlimit:4;stroke-opacity:1;stroke-dasharray:none;stroke-dashoffset:0" />
      <path
         d="m 4.0000001,3.499995 0.7537691,0 z m 0.8643219,0 0.703517,0 z m 0.8140698,0 0.6231156,0 z m 0.7236186,0 0.2713566,0 z m 0.3819095,0 0.603015,0 z m 0.7236186,0 1.5879395,0 z m 1.6884415,0 1.216081,0 z m 1.316584,0 0.371858,0 z m -6.5125639,0.994817 0.9949753,0 z m 1.0954773,0 1.6281406,0 z m 1.7286437,0 0.7939702,0 z m 0.8944722,0 0.7437182,0 z m 0.8442213,0 0.6331654,0 z m 0.7336684,0 0.994975,0.010376 z m 1.085427,0.010376 1.61809,0 z M 4.0000001,5.5 l 0.5125628,0 z m 0.6733666,0 1.8994984,0 z m -0.6733666,1.9947954 0.9949753,0 z m 1.0954773,0 1.6281406,0 z m 1.7286437,0 0.7939702,0 z m 0.8944722,0 0.7437182,0 z m 0.8442213,0 0.6331654,0 z m 0.7336684,0 0.994975,0.010376 z m 1.085427,0.010376 1.61809,0 z M 4.0000001,8.5 l 0.7537691,0 z m 0.8643219,0 0.6934672,0 z m 0.8140698,0 0.6231156,0 z m 0.7236186,0 0.2713566,0 z m 0.3819095,0 0.603015,0 z m 0.7236186,0 1.5778887,0 z m 1.6884415,0 1.206031,0 z m 1.306533,0 0.381909,0 z m 0.482412,0 0.904523,0 z m -6.9849249,1 1.1758797,0 z m 1.3065331,0 0.5628138,0 z m 0.6633158,0 0.2814074,0 z m 0.3919602,0 0.5125629,0 z m 0.6231157,0 0.5226136,0 z m 0.6231156,0 0.8341715,0 z m 0.9447243,0 1.0854264,0 z m 1.1859294,0 0.7236178,0 z m 0.8241208,0 0.180904,0 z m -6.5628149,1.994804 0.9949753,0 z m 1.0954773,0 1.6281406,0 z m 1.7286437,0 0.7939702,0 z m 0.8944722,0 0.7437182,0 z m 0.8442213,0 0.6331654,0 z m 0.7336684,0 0.994975,0.01038 z m 1.085427,0.01038 1.61809,0 z M 4.0000001,12.5 l 1.2462313,0 z m 1.3567841,0 0.3919602,0 z m 0.4924622,0 0.8944722,0 z m 0.9949753,0 1.3165828,0 z m 1.4271356,0 0.8944723,0 z m 0.9849245,0 0.1909552,0 z m 0.2914572,0 1.135678,0 z m 1.256282,0 0.592964,0 z m -6.8040209,1 1.2462313,0 z m 1.3567841,0 0.5628138,0 z m 0.6633168,0 0.8844215,0 z m 0.9849245,0 0.954774,0 z m 1.0653268,0 0.3819094,0 z m 0.4824125,0 0.2110548,0 z m 0.3216076,0 0.5929652,0 z"
         id="path3475"
         style="fill:none;stroke:url(#linearGradient3961);stroke-width:1px;stroke-linecap:butt;stroke-linejoin:miter;stroke-opacity:1" />
    </g>
  </g>
  <g
     transform="rotate(-90,5.9745451,5.9745458)"
     id="g876">
    <path
       style="display:inline;overflow:visible;visibility:visible;opacity:0.141176;fill:url(#radialGradient3129);fill-opacity:1;fill-rule:evenodd;stroke:none;stroke-width:1;marker:none"
       id="path3501"
       d="m 5.1210621,12.908362 a 2.878938,3.091638 0 1 1 5.7578759,0 2.8789379,3.0916392 0 0 1 -5.7578759,0 z" />
    <path
       style="color:#000000;display:block;overflow:visible;visibility:visible;fill:url(#linearGradient901);fill-opacity:1;fill-rule:nonzero;stroke:none;stroke-width:0.963925;marker:none;enable-background:accumulate"
       id="path3288-2-2"
       d="M 4.5508505,11.499987 7.9970816,7.4999735 11.449149,11.499987 H 9.5 V 15.5 h -3 v -4.000013 z" />
    <path
       style="color:#000000;clip-rule:nonzero;display:inline;overflow:visible;visibility:visible;opacity:0.5;isolation:auto;mix-blend-mode:normal;color-interpolation:sRGB;color-interpolation-filters:linearRGB;solid-color:#000000;solid-opacity:1;fill:none;fill-opacity:1;fill-rule:nonzero;stroke:#7239b3;stroke-width:1;stroke-linecap:butt;stroke-linejoin:round;stroke-miterlimit:4;stroke-dasharray:none;stroke-dashoffset:0;stroke-opacity:1;marker:none;color-rendering:auto;image-rendering:auto;shape-rendering:auto;text-rendering:auto;enable-background:accumulate"
       id="path3288-2-2-7"
       d="M 4.5508504,11.499987 7.9970815,7.4999735 11.44915,11.499987 H 9.4999998 V 15.5 h -3 v -4.000013 z" />
    <path
       style="color:#000000;display:block;overflow:visible;visibility:visible;opacity:0.401;fill:none;stroke:url(#linearGradient3149-7);stroke-width:0.963925;stroke-linecap:butt;stroke-linejoin:miter;stroke-miterlimit:7;stroke-dasharray:none;stroke-dashoffset:0;stroke-opacity:1;marker:none;enable-background:accumulate"
       id="path3288-2-2-8"
       d="M 6.7005405,10.5 7.9838788,9 9.3009308,10.5 H 8.5 v 4 h -1 v -4 z" />
  </g>
</svg>
