<?xml version="1.0" encoding="UTF-8" standalone="no"?>
<svg
   xmlns:dc="http://purl.org/dc/elements/1.1/"
   xmlns:cc="http://creativecommons.org/ns#"
   xmlns:rdf="http://www.w3.org/1999/02/22-rdf-syntax-ns#"
   xmlns:svg="http://www.w3.org/2000/svg"
   xmlns="http://www.w3.org/2000/svg"
   xmlns:sodipodi="http://sodipodi.sourceforge.net/DTD/sodipodi-0.dtd"
   xmlns:inkscape="http://www.inkscape.org/namespaces/inkscape"
   sodipodi:docname="ct_file_icon.svg"
   height="16"
   width="16"
   inkscape:version="1.0 (4035a4fb49, 2020-05-01)"
   version="1.0"
   viewBox="0 0 16 16"
   id="svg79606">
  <sodipodi:namedview
     inkscape:document-rotation="0"
     inkscape:current-layer="svg79606"
     inkscape:window-maximized="1"
     inkscape:window-y="22"
     inkscape:window-x="-8"
     inkscape:cy="10.4992"
     inkscape:cx="9.82435"
     inkscape:zoom="32.30564"
     showgrid="false"
     id="namedview18"
     inkscape:window-height="715"
     inkscape:window-width="1366"
     inkscape:pageshadow="2"
     inkscape:pageopacity="0"
     guidetolerance="10"
     gridtolerance="10"
     objecttolerance="10"
     borderopacity="1"
     bordercolor="#666666"
     pagecolor="#ffffff" />
  <defs
     id="defs79608">
    <radialGradient
       r="15.571"
       gradientTransform="matrix(0.74905796,0,0,0.08922629,-5.9140531,20.410995)"
       cx="21.761999"
       cy="23.070999"
       gradientUnits="userSpaceOnUse"
       id="radialGradient3564">
      <stop
         offset="0"
         id="stop3560" />
      <stop
         offset="1"
         stop-opacity="0"
         id="stop3562" />
    </radialGradient>
    <linearGradient
       gradientTransform="matrix(0.58220449,0,0,0.55574646,-3.7275742,0.05565085)"
       x1="23.506001"
       x2="20.605"
       y1="5.7753"
       gradientUnits="userSpaceOnUse"
       y2="29.858999"
       id="linearGradient5789">
      <stop
         offset="0"
         stop-color="#d3d7cf"
         id="stop5785" />
      <stop
         offset=".5"
         stop-color="#f5f5f5"
         id="stop5791" />
      <stop
         offset="1"
         stop-color="#bebebe"
         id="stop5787" />
    </linearGradient>
  </defs>
  <metadata
     id="metadata16">
    <rdf:RDF>
      <cc:Work>
        <dc:format>image/svg+xml</dc:format>
        <dc:type
           rdf:resource="http://purl.org/dc/dcmitype/StillImage" />
        <cc:license
           rdf:resource="http://creativecommons.org/publicdomain/zero/1.0/" />
        <dc:publisher>
          <cc:Agent
             rdf:about="http://openclipart.org/">
            <dc:title>Openclipart</dc:title>
          </cc:Agent>
        </dc:publisher>
        <dc:title>tango mail attachment</dc:title>
        <dc:date>2010-04-03T15:29:59</dc:date>
        <dc:description>An icon from Tango Project. Since version 0.8.90 Tango Project icons are Public Domain.</dc:description>
        <dc:source>http://openclipart.org/detail/36679/tango-mail-attachment-by-warszawianka</dc:source>
        <dc:creator>
          <cc:Agent>
            <dc:title>warszawianka</dc:title>
          </cc:Agent>
        </dc:creator>
        <dc:subject>
          <rdf:Bag>
            <rdf:li>clip art</rdf:li>
            <rdf:li>clipart</rdf:li>
            <rdf:li>externalsource</rdf:li>
            <rdf:li>icon</rdf:li>
            <rdf:li>office</rdf:li>
            <rdf:li>paperclip</rdf:li>
            <rdf:li>tango</rdf:li>
          </rdf:Bag>
        </dc:subject>
      </cc:Work>
      <cc:License
         rdf:about="http://creativecommons.org/publicdomain/zero/1.0/">
        <cc:permits
           rdf:resource="http://creativecommons.org/ns#Reproduction" />
        <cc:permits
           rdf:resource="http://creativecommons.org/ns#Distribution" />
        <cc:permits
           rdf:resource="http://creativecommons.org/ns#DerivativeWorks" />
      </cc:License>
    </rdf:RDF>
  </metadata>
  <g
     style="fill:#e6e6e6;stroke:#b3b3b3;stroke-width:0.65224"
     transform="matrix(0.87223458,0,0,0.87223458,-638.38434,97.740535)"
     id="g4">
    <path
       style="isolation:auto;mix-blend-mode:normal;fill:none;stroke:#999999;stroke-width:2.29296114;marker:none"
       d="m 734.99,-101.94 a 3.492,3.492 0 0 0 0,4.95 3.492,3.492 0 0 0 4.95,0 l 0.353,-0.353 -0.707,-0.707 -0.354,0.353 c -0.979,0.98 -2.556,0.98 -3.535,0 a 2.495,2.495 0 0 1 0,-3.535 l 7.07,-7.071 c 0.98,-0.98 2.557,-0.98 3.536,0 0.98,0.979 0.98,2.556 0,3.535 l -0.712,0.713 -2.47,2.47 -0.207,0.206 -0.853,0.854 a 1.497,1.497 0 0 1 -2.122,0 1.497,1.497 0 0 1 0,-2.121 l 1.061,-1.061 0.707,-0.707 -0.707,-0.707 -1.768,1.767 c -0.979,0.98 -0.979,2.557 0,3.536 0.98,0.98 2.557,0.98 3.536,0 l 0.853,-0.854 1.268,-1.267 2.122,-2.122 a 3.492,3.492 0 0 0 0,-4.95 3.492,3.492 0 0 0 -4.95,0 z"
       id="path840" />
    <path
       color="#000000"
       d="m 734.99,-101.94 a 3.492,3.492 0 0 0 0,4.95 3.492,3.492 0 0 0 4.95,0 l 0.353,-0.353 -0.707,-0.707 -0.354,0.353 c -0.979,0.98 -2.556,0.98 -3.535,0 a 2.495,2.495 0 0 1 0,-3.535 l 7.07,-7.071 c 0.98,-0.98 2.557,-0.98 3.536,0 0.98,0.979 0.98,2.556 0,3.535 l -0.712,0.713 -2.47,2.47 -0.207,0.206 -0.853,0.854 a 1.497,1.497 0 0 1 -2.122,0 1.497,1.497 0 0 1 0,-2.121 l 1.061,-1.061 0.707,-0.707 -0.707,-0.707 -1.768,1.767 c -0.979,0.98 -0.979,2.557 0,3.536 0.98,0.98 2.557,0.98 3.536,0 l 0.853,-0.854 1.268,-1.267 2.122,-2.122 a 3.492,3.492 0 0 0 0,-4.95 3.492,3.492 0 0 0 -4.95,0 z"
       fill="#666666"
       overflow="visible"
       style="isolation:auto;mix-blend-mode:normal;fill:#e6e6e6;stroke:none;stroke-width:0.65224;marker:none"
       id="path2" />
  </g>
  <path
     sodipodi:nodetypes="cc"
     id="path32"
     d="M 8.8260612,2.5695931 2.699354,8.8249419"
     style="fill:none;stroke:#ffffff;stroke-width:0.5;stroke-linecap:round;stroke-miterlimit:4;stroke-dasharray:none" />
  <path
     style="fill:none;stroke:#ffffff;stroke-width:0.5;stroke-linecap:round;stroke-miterlimit:4;stroke-dasharray:none"
     d="M 12.627315,2.2214959 C 11.484419,1.4950233 10.078463,1.6073924 8.8260612,2.5695931"
     id="path857"
     sodipodi:nodetypes="cc" />
</svg>
