<?xml version="1.0" encoding="UTF-8" standalone="no"?>
<!-- Generator: Adobe Illustrator 15.0.0, SVG Export Plug-In . SVG Version: 6.00 Build 0)  -->

<svg
   xmlns:dc="http://purl.org/dc/elements/1.1/"
   xmlns:cc="http://creativecommons.org/ns#"
   xmlns:rdf="http://www.w3.org/1999/02/22-rdf-syntax-ns#"
   xmlns:svg="http://www.w3.org/2000/svg"
   xmlns="http://www.w3.org/2000/svg"
   xmlns:sodipodi="http://sodipodi.sourceforge.net/DTD/sodipodi-0.dtd"
   xmlns:inkscape="http://www.inkscape.org/namespaces/inkscape"
   version="1.1"
   id="Layer_1"
   inkscape:version="0.48.3.1 r9886"
   sodipodi:docname="format-text-superscript.svg"
   x="0px"
   y="0px"
   width="489.309px"
   height="494.244px"
   viewBox="0 0 489.309 494.244"
   enable-background="new 0 0 489.309 494.244"
   xml:space="preserve"><metadata
   id="metadata43"><rdf:RDF><cc:Work
       rdf:about=""><dc:format>image/svg+xml</dc:format><dc:type
         rdf:resource="http://purl.org/dc/dcmitype/StillImage" /></cc:Work></rdf:RDF></metadata><defs
   id="defs41" /><sodipodi:namedview
   pagecolor="#ffffff"
   bordercolor="#666666"
   borderopacity="1"
   objecttolerance="10"
   gridtolerance="10"
   guidetolerance="10"
   inkscape:pageopacity="0"
   inkscape:pageshadow="2"
   inkscape:window-width="1366"
   inkscape:window-height="718"
   id="namedview39"
   showgrid="false"
   inkscape:zoom="0.47749696"
   inkscape:cx="244.6545"
   inkscape:cy="247.12199"
   inkscape:window-x="0"
   inkscape:window-y="0"
   inkscape:window-maximized="1"
   inkscape:current-layer="Layer_1" />
<inkscape:perspective
   sodipodi:type="inkscape:persp3d"
   inkscape:vp_x="0 : 247.12199 : 1"
   inkscape:vp_y="0 : 1000 : 0"
   inkscape:vp_z="489.31 : 247.12199 : 1"
   id="perspective248"
   inkscape:persp3d-origin="244.655 : 164.748 : 1">
	</inkscape:perspective>
<inkscape:perspective
   sodipodi:type="inkscape:persp3d"
   inkscape:vp_x="0 : 24 : 1"
   inkscape:vp_y="0 : 1000 : 0"
   inkscape:vp_z="48 : 24 : 1"
   id="perspective3079"
   inkscape:persp3d-origin="24 : 16 : 1">
	</inkscape:perspective>
<inkscape:perspective
   sodipodi:type="inkscape:persp3d"
   inkscape:vp_x="0 : 24 : 1"
   inkscape:vp_y="0 : 1000 : 0"
   inkscape:vp_z="48 : 24 : 1"
   id="perspective32"
   inkscape:persp3d-origin="24 : 16 : 1">
	</inkscape:perspective>
<inkscape:perspective
   sodipodi:type="inkscape:persp3d"
   inkscape:vp_x="0 : 24 : 1"
   inkscape:vp_y="0 : 1000 : 0"
   inkscape:vp_z="48 : 24 : 1"
   id="perspective98"
   inkscape:persp3d-origin="24 : 16 : 1">
	</inkscape:perspective>
<inkscape:perspective
   sodipodi:type="inkscape:persp3d"
   inkscape:vp_x="0 : 24 : 1"
   inkscape:vp_y="0 : 1000 : 0"
   inkscape:vp_z="48 : 24 : 1"
   id="perspective3564"
   inkscape:persp3d-origin="24 : 16 : 1">
	</inkscape:perspective>
<inkscape:perspective
   sodipodi:type="inkscape:persp3d"
   inkscape:vp_x="0 : 24 : 1"
   inkscape:vp_y="0 : 1000 : 0"
   inkscape:vp_z="48 : 24 : 1"
   id="perspective3447"
   inkscape:persp3d-origin="24 : 16 : 1">
	</inkscape:perspective>
<inkscape:perspective
   sodipodi:type="inkscape:persp3d"
   inkscape:vp_x="0 : 24 : 1"
   inkscape:vp_y="0 : 1000 : 0"
   inkscape:vp_z="48 : 24 : 1"
   id="perspective3296"
   inkscape:persp3d-origin="24 : 16 : 1">
	</inkscape:perspective>
<inkscape:perspective
   sodipodi:type="inkscape:persp3d"
   inkscape:vp_x="0 : 24 : 1"
   inkscape:vp_y="0 : 1000 : 0"
   inkscape:vp_z="48 : 24 : 1"
   id="perspective3180"
   inkscape:persp3d-origin="24 : 16 : 1">
	</inkscape:perspective>
<inkscape:perspective
   sodipodi:type="inkscape:persp3d"
   inkscape:vp_x="0 : 24 : 1"
   inkscape:vp_y="0 : 1000 : 0"
   inkscape:vp_z="48 : 24 : 1"
   id="perspective3081"
   inkscape:persp3d-origin="24 : 16 : 1">
	</inkscape:perspective>
<inkscape:perspective
   sodipodi:type="inkscape:persp3d"
   inkscape:vp_x="0 : 24 : 1"
   inkscape:vp_y="0 : 1000 : 0"
   inkscape:vp_z="48 : 24 : 1"
   id="perspective2998"
   inkscape:persp3d-origin="24 : 16 : 1">
	</inkscape:perspective>
<inkscape:perspective
   sodipodi:type="inkscape:persp3d"
   inkscape:vp_x="0 : 24 : 1"
   inkscape:vp_y="0 : 1000 : 0"
   inkscape:vp_z="48 : 24 : 1"
   id="perspective3079-7"
   inkscape:persp3d-origin="24 : 16 : 1">
	</inkscape:perspective>
<inkscape:perspective
   sodipodi:type="inkscape:persp3d"
   inkscape:vp_x="0 : 247.12199 : 1"
   inkscape:vp_y="0 : 1000 : 0"
   inkscape:vp_z="489.31 : 247.12199 : 1"
   id="perspective248-0"
   inkscape:persp3d-origin="244.655 : 164.748 : 1">
	</inkscape:perspective>
<inkscape:perspective
   sodipodi:type="inkscape:persp3d"
   inkscape:vp_x="0 : 247.12199 : 1"
   inkscape:vp_y="0 : 1000 : 0"
   inkscape:vp_z="489.31 : 247.12199 : 1"
   id="perspective248-0-2"
   inkscape:persp3d-origin="244.655 : 164.748 : 1">
	</inkscape:perspective>
<inkscape:perspective
   sodipodi:type="inkscape:persp3d"
   inkscape:vp_x="0 : 24 : 1"
   inkscape:vp_y="0 : 1000 : 0"
   inkscape:vp_z="48 : 24 : 1"
   id="perspective3079-7-7"
   inkscape:persp3d-origin="24 : 16 : 1">
	</inkscape:perspective>
<inkscape:perspective
   sodipodi:type="inkscape:persp3d"
   inkscape:vp_x="0 : 24 : 1"
   inkscape:vp_y="0 : 1000 : 0"
   inkscape:vp_z="48 : 24 : 1"
   id="perspective2998-0"
   inkscape:persp3d-origin="24 : 16 : 1">
	</inkscape:perspective>
<inkscape:perspective
   sodipodi:type="inkscape:persp3d"
   inkscape:vp_x="0 : 24 : 1"
   inkscape:vp_y="0 : 1000 : 0"
   inkscape:vp_z="48 : 24 : 1"
   id="perspective3081-1"
   inkscape:persp3d-origin="24 : 16 : 1">
	</inkscape:perspective>
<inkscape:perspective
   sodipodi:type="inkscape:persp3d"
   inkscape:vp_x="0 : 24 : 1"
   inkscape:vp_y="0 : 1000 : 0"
   inkscape:vp_z="48 : 24 : 1"
   id="perspective3180-7"
   inkscape:persp3d-origin="24 : 16 : 1">
	</inkscape:perspective>
<inkscape:perspective
   sodipodi:type="inkscape:persp3d"
   inkscape:vp_x="0 : 24 : 1"
   inkscape:vp_y="0 : 1000 : 0"
   inkscape:vp_z="48 : 24 : 1"
   id="perspective3296-6"
   inkscape:persp3d-origin="24 : 16 : 1">
	</inkscape:perspective>
<inkscape:perspective
   sodipodi:type="inkscape:persp3d"
   inkscape:vp_x="0 : 24 : 1"
   inkscape:vp_y="0 : 1000 : 0"
   inkscape:vp_z="48 : 24 : 1"
   id="perspective3447-2"
   inkscape:persp3d-origin="24 : 16 : 1">
	</inkscape:perspective>
<inkscape:perspective
   sodipodi:type="inkscape:persp3d"
   inkscape:vp_x="0 : 24 : 1"
   inkscape:vp_y="0 : 1000 : 0"
   inkscape:vp_z="48 : 24 : 1"
   id="perspective3564-6"
   inkscape:persp3d-origin="24 : 16 : 1">
	</inkscape:perspective>
<inkscape:perspective
   sodipodi:type="inkscape:persp3d"
   inkscape:vp_x="0 : 24 : 1"
   inkscape:vp_y="0 : 1000 : 0"
   inkscape:vp_z="48 : 24 : 1"
   id="perspective98-7"
   inkscape:persp3d-origin="24 : 16 : 1">
	</inkscape:perspective>
<inkscape:perspective
   sodipodi:type="inkscape:persp3d"
   inkscape:vp_x="0 : 24 : 1"
   inkscape:vp_y="0 : 1000 : 0"
   inkscape:vp_z="48 : 24 : 1"
   id="perspective32-1"
   inkscape:persp3d-origin="24 : 16 : 1">
	</inkscape:perspective>
<inkscape:perspective
   sodipodi:type="inkscape:persp3d"
   inkscape:vp_x="0 : 24 : 1"
   inkscape:vp_y="0 : 1000 : 0"
   inkscape:vp_z="48 : 24 : 1"
   id="perspective3079-1"
   inkscape:persp3d-origin="24 : 16 : 1">
	</inkscape:perspective>
<inkscape:perspective
   sodipodi:type="inkscape:persp3d"
   inkscape:vp_x="0 : 247.12199 : 1"
   inkscape:vp_y="0 : 1000 : 0"
   inkscape:vp_z="489.31 : 247.12199 : 1"
   id="perspective248-6"
   inkscape:persp3d-origin="244.655 : 164.748 : 1">
	</inkscape:perspective>
<path
   d="m 112.85586,341.71762 c 0,13.57719 4.19802,24.42724 12.83502,33.17818 8.36422,8.48195 17.54187,12.60474 28.06015,12.60474 10.44243,0 29.55,-4.98494 61.84853,-28.20111 v -96.91995 c -27.736,10.30529 -46.17693,17.81478 -54.91667,22.36865 -0.0245,0.0124 -0.0489,0.0248 -0.0734,0.0371 -17.57734,8.98393 -30.15671,18.29426 -37.39192,27.67099 -6.97345,9.02895 -10.36171,18.60041 -10.36171,29.26136 z"
   id="path27"
   inkscape:connector-curvature="0"
   style="fill:none" />
<path
   d="m 472.094,103.209 c -5.31,-6.204 -12.624,-10.933 -21.945,-14.186 -9.323,-3.251 -25.773,-7.431 -49.354,-12.535 -16.297,-3.603 -26.112,-5.904 -29.445,-6.905 -5.805,-1.9 -10.064,-4.302 -12.778,-7.206 -2.718,-2.801 -4.074,-5.953 -4.074,-9.458 0,-5.502 3.27,-10.306 9.815,-14.411 6.542,-4.102 17.469,-6.154 32.778,-6.154 12.964,0 22.993,2.303 30.094,6.905 7.099,4.604 11.39,11.01 12.871,19.215 L 472.65,54.871 C 470.549,44.565 466.724,36.332 461.169,30.177 455.614,24.022 447.002,19.143 435.334,15.54 c -11.667,-3.603 -25.218,-5.404 -40.649,-5.404 -10.249,0 -19.848,1.077 -28.798,3.228 -8.952,2.153 -16.019,4.78 -21.204,7.881 -6.916,4.004 -12.379,9.033 -16.39,15.087 -4.014,6.056 -6.019,12.635 -6.019,19.74 0,7.806 2.437,14.937 7.315,21.392 4.875,6.455 12.037,11.509 21.482,15.162 9.444,3.654 26.39,7.982 50.835,12.985 18.148,3.704 29.507,6.755 34.075,9.157 6.543,3.504 9.815,8.308 9.815,14.411 0,6.807 -3.704,12.736 -11.111,17.789 -7.408,5.055 -18.769,7.581 -34.076,7.581 -15.186,0 -27.009,-2.853 -35.464,-8.557 -8.458,-5.705 -13.611,-13.909 -15.464,-24.619 l -32.964,4.203 c 3.704,16.914 12.252,29.674 25.649,38.28 13.395,8.608 32.871,12.91 58.428,12.91 15.432,0 29.261,-2.177 41.483,-6.53 12.222,-4.353 21.575,-10.508 28.057,-18.464 6.482,-7.956 9.723,-16.438 9.723,-25.445 10e-4,-9.206 -2.655,-16.911 -7.963,-23.118 z"
   id="path29"
   inkscape:connector-curvature="0"
   style="fill:#1a1a1a" />
<path
   d="M 478.557,97.682 C 472.28,90.348 463.665,84.734 452.952,80.994 443.195,77.592 426.724,73.4 402.595,68.177 c -19.633,-4.34 -26.462,-6.046 -28.701,-6.709 -5.41,-1.784 -7.939,-3.646 -9.108,-4.896 -0.036,-0.039 -0.073,-0.077 -0.11,-0.115 -1.474,-1.52 -1.673,-2.64 -1.673,-3.536 0,-2.356 1.961,-4.781 5.829,-7.207 3.532,-2.215 11.303,-4.855 28.261,-4.855 11.23,0 19.8,1.863 25.469,5.538 5.156,3.344 8.058,7.663 9.128,13.589 0.737,4.086 4.297,6.994 8.359,6.994 0.313,0 0.626,-0.017 0.943,-0.052 l 32.594,-3.603 c 2.375,-0.263 4.53,-1.513 5.938,-3.444 1.408,-1.931 1.938,-4.366 1.461,-6.707 -2.4,-11.773 -6.942,-21.427 -13.502,-28.694 -6.57,-7.278 -16.542,-13.02 -29.639,-17.064 -12.426,-3.837 -26.946,-5.7819999 -43.158,-5.7819999 -10.865,0 -21.223,1.165 -30.785,3.4629999 -9.853,2.37 -17.55,5.255 -23.528,8.82 -8.006,4.644 -14.454,10.605 -19.167,17.72 -4.933,7.442 -7.434,15.664 -7.434,24.437 0,9.665 3.04,18.587 9.035,26.519 5.819,7.705 14.299,13.75 25.199,17.966 9.975,3.859 27.049,8.238 52.197,13.384 22.57,4.606 29.608,7.198 31.797,8.339 5.295,2.847 5.295,5.582 5.295,6.898 0,2.454 -0.768,6.24 -7.399,10.763 -5.935,4.05 -15.787,6.103 -29.284,6.103 -13.391,0 -23.723,-2.39 -30.708,-7.103 -6.514,-4.393 -10.387,-10.614 -11.84,-19.019 -0.713,-4.121 -4.292,-7.055 -8.37,-7.056 -0.359,0 -0.721,0.023 -1.085,0.069 l -32.964,4.203 c -2.367,0.302 -4.499,1.584 -5.875,3.535 -1.375,1.95 -1.867,4.389 -1.357,6.72 4.187,19.116 14.065,33.79 29.361,43.615 14.93,9.595 35.545,14.259 63.023,14.259 16.336,0 31.253,-2.363 44.337,-7.023 13.651,-4.862 24.35,-11.963 31.796,-21.104 7.72,-9.476 11.634,-19.844 11.634,-30.816 -0.002,-11.243 -3.368,-20.881 -10.007,-28.644 z m -77.762,79.084 c -25.557,0 -45.033,-4.302 -58.428,-12.91 -13.397,-8.606 -21.945,-21.366 -25.649,-38.28 l 32.964,-4.203 c 1.853,10.71 7.006,18.915 15.464,24.619 8.455,5.704 20.278,8.557 35.464,8.557 15.308,0 26.668,-2.526 34.076,-7.581 7.407,-5.052 11.111,-10.982 11.111,-17.789 0,-6.103 -3.272,-10.907 -9.815,-14.411 -4.568,-2.402 -15.927,-5.454 -34.075,-9.157 -24.445,-5.003 -41.391,-9.331 -50.835,-12.985 -9.445,-3.652 -16.607,-8.707 -21.482,-15.162 -4.879,-6.455 -7.315,-13.586 -7.315,-21.392 0,-7.105 2.005,-13.684 6.019,-19.74 4.011,-6.054 9.474,-11.083 16.39,-15.087 5.186,-3.101 12.252,-5.728 21.204,-7.881 8.95,-2.151 18.549,-3.228 28.798,-3.228 15.432,0 28.982,1.801 40.649,5.404 11.668,3.603 20.279,8.482 25.835,14.637 5.556,6.155 9.381,14.388 11.481,24.694 l -32.594,3.603 c -1.481,-8.205 -5.772,-14.611 -12.871,-19.215 -7.101,-4.602 -17.13,-6.905 -30.094,-6.905 -15.31,0 -26.236,2.052 -32.778,6.154 -6.546,4.105 -9.815,8.909 -9.815,14.411 0,3.504 1.356,6.657 4.074,9.458 2.714,2.904 6.974,5.306 12.778,7.206 3.333,1.001 13.148,3.303 29.445,6.905 23.58,5.104 40.03,9.284 49.354,12.535 9.321,3.253 16.636,7.982 21.945,14.186 5.308,6.207 7.964,13.912 7.964,23.118 0,9.007 -3.241,17.489 -9.723,25.445 -6.482,7.956 -15.834,14.111 -28.057,18.464 -12.223,4.353 -26.052,6.53 -41.484,6.53 z"
   id="path31"
   inkscape:connector-curvature="0"
   style="fill:#b3b3b3" />
<path
   d="m 302.94565,393.4253 c -3.6121,0 -6.80587,-1.10302 -9.57274,-3.31467 -2.77055,-2.20603 -4.75824,-6.57193 -5.96065,-13.09209 -1.20729,-6.51565 -1.80666,-24.2494 -1.80666,-53.20124 V 220.73286 c 0,-29.3863 -2.1675,-48.83422 -6.50252,-58.33814 -6.74471,-14.58453 -17.22139,-25.30064 -31.42883,-32.1517 -18.78465,-9.05821 -42.86941,-13.58957 -72.24939,-13.58957 -38.29219,0 -68.03913,7.9552 -89.228585,23.8656 -21.195567,15.9104 -31.78968,33.36952 -31.78968,52.37173 0,9.944 2.828032,17.79003 8.48899,23.53357 5.656066,5.74918 12.942653,8.61814 21.856093,8.61814 9.149518,0 16.555982,-2.76091 22.216932,-8.28611 5.65607,-5.52069 8.489,-13.36671 8.489,-23.53357 l -0.72169,-19.22506 c 0,-9.72115 4.57231,-18.33928 13.72672,-25.8544 8.90733,-7.5095 20.95215,-11.26987 36.12469,-11.26987 19.98705,0 35.22198,5.63437 45.69744,16.90536 10.47669,11.26987 15.71442,32.04253 15.71442,62.31461 v 11.9328 c -56.84077,19.00671 -97.48028,35.13434 -121.92099,48.393 -24.446826,13.25867 -41.605841,27.40312 -51.478268,42.42774 -7.224205,10.82978 -10.83753,23.64837 -10.83753,38.449 0,23.42552 7.405238,42.31969 22.216936,56.68024 14.810476,14.36731 33.65261,21.54589 56.534962,21.54589 14.68694,0 28.53842,-2.76541 41.54346,-8.2861 8.67002,-3.75587 29.98424,-17.67634 63.94143,-41.7648 0.2373,18.12318 3.8494,30.94064 10.83753,38.45013 6.98201,7.5095 16.37494,11.26987 28.17758,11.26987 24.56547,0 50.33213,-16.57333 77.3073,-49.72 v -18.561 c -14.44963,13.25754 -24.20341,21.32754 -29.26133,24.1965 -2.88919,1.54759 -6.26399,2.31858 -10.11462,2.31858 z m -76.94524,-29.49997 c -29.86559,22.09965 -53.95035,33.14554 -72.24938,33.14554 -13.49065,0 -25.41071,-5.24607 -35.76385,-15.74383 -10.35804,-10.49212 -15.53339,-23.70014 -15.53339,-39.60942 0,-12.59573 4.09282,-24.1965 12.28335,-34.80456 8.18442,-10.60693 21.79249,-20.76816 40.82055,-30.49493 10.59534,-5.51957 34.07584,-14.91544 70.44394,-28.1741 v 115.6813 z"
   id="path33"
   inkscape:connector-curvature="0"
   style="fill:#1a1a1a" />
<path
   d="m 155.55769,276.41813 c -19.02806,9.72677 -32.63613,19.888 -40.82055,30.49493 -8.19053,10.60806 -12.28335,22.20771 -12.28335,34.80456 0,15.9104 5.17535,29.1173 15.53339,39.60942 10.35192,10.49776 22.2732,15.74383 35.76385,15.74383 18.29903,0 42.38501,-11.04589 72.24938,-33.14554 v -115.6813 c -36.36688,13.25866 -59.84861,22.65453 -70.44272,28.1741 z m 60.04065,82.8813 c -32.29853,23.21617 -51.4061,28.20111 -61.84854,28.20111 -10.51827,0 -19.69592,-4.12279 -28.06015,-12.60474 -8.63822,-8.74982 -12.83501,-19.60099 -12.83501,-33.17818 0,-10.66095 3.38948,-20.23241 10.36048,-29.26136 7.23644,-9.37673 19.8158,-18.68706 37.39193,-27.67099 0.0245,-0.0124 0.0489,-0.0248 0.0734,-0.0371 8.73975,-4.55387 27.18067,-12.06336 54.91668,-22.36865 v 96.91995 z"
   id="path35"
   inkscape:connector-curvature="0"
   style="fill:#b3b3b3" />
<path
   d="m 346.30922,358.0681 c -1.28925,-0.49298 -2.6421,-0.73046 -3.98517,-0.73046 -2.70205,0 -5.35761,0.96795 -7.34775,2.79355 -17.83911,16.36736 -24.71226,21.28365 -27.25284,22.75696 -1.26234,0.64942 -2.82803,0.9657 -4.77781,0.9657 -1.09109,0 -1.85559,-0.26338 -2.71061,-0.93757 -0.16635,-0.18683 -1.52899,-1.86949 -2.56749,-7.49936 -0.75838,-4.08903 -1.65865,-16.3516 -1.65865,-51.59962 V 220.73286 c 0,-30.95978 -2.39258,-51.25409 -7.3135,-62.04223 -7.69636,-16.64312 -19.86718,-29.05201 -36.19075,-36.92505 -20.206,-9.74366 -46.13901,-14.68358 -77.07856,-14.68358 -40.57591,0 -72.80839,8.75432 -95.804502,26.02098 -23.632176,17.7405 -35.614619,37.85585 -35.614619,59.7878 0,12.35262 3.763779,22.43394 11.186142,29.96481 7.674341,7.79988 17.621383,11.75835 29.561014,11.75835 12.087638,0 22.109295,-3.79864 29.786085,-11.29238 7.51288,-7.33504 11.32191,-17.46137 11.32191,-30.09987 0,-0.1103 -0.002,-0.22061 -0.006,-0.33091 l -0.71557,-19.04611 c 0.0489,-6.86794 3.40293,-12.94014 10.24917,-18.55988 0.0342,-0.0281 0.0685,-0.0563 0.10275,-0.0855 6.9869,-5.89099 16.50582,-8.75544 29.09742,-8.75544 16.95229,0 29.31515,4.43343 37.79313,13.55468 6.03037,6.48639 13.21788,21.48286 13.21788,56.09383 v 5.24044 C 161.92933,239.48295 122.65612,255.23128 98.798879,268.17367 72.986965,282.17293 54.456746,297.54533 43.724411,313.85979 35.522872,326.16514 31.364,340.77781 31.364,357.29599 c 0,25.85103 8.43517,47.13693 25.074326,63.26905 16.7786,16.27507 38.338679,24.52854 64.080874,24.52854 16.1303,0 31.57317,-3.08394 45.90048,-9.16739 0.0245,-0.0101 0.0489,-0.0214 0.0734,-0.0304 5.30868,-2.30057 16.33214,-8.22758 50.66607,-32.15396 1.99136,11.36329 5.89336,20.07709 11.78061,26.40478 9.01619,9.69639 21.15521,14.61493 36.07821,14.61493 14.39826,0 29.10354,-4.76209 43.70852,-14.15571 13.73162,-8.83198 27.83753,-22.08727 41.92387,-39.39782 1.34797,-1.65678 2.07577,-3.66921 2.07577,-5.73792 v -18.56101 c -0.002,-3.86955 -2.53324,-7.35642 -6.4169,-8.84099 z m -81.2937,77.122 c -11.80263,0 -21.19557,-3.76038 -28.17758,-11.26987 -6.98813,-7.50949 -10.60023,-20.32808 -10.83753,-38.45013 -33.95719,24.08845 -55.2714,38.01005 -63.94143,41.7648 -13.00503,5.52069 -26.85652,8.2861 -41.54345,8.2861 -22.883582,0 -41.724493,-7.17859 -56.534968,-21.5459 -14.811699,-14.36168 -22.216937,-33.25471 -22.216937,-56.68023 0,-14.80064 3.613326,-27.61922 10.83753,-38.44901 9.872427,-15.02574 27.031442,-29.16906 51.478265,-42.42773 24.44071,-13.25754 65.08145,-29.38517 121.92099,-48.39301 v -11.9328 c 0,-30.27208 -5.23773,-51.04586 -15.71442,-62.3146 -10.47546,-11.26987 -25.71039,-16.90537 -45.69743,-16.90537 -15.17255,0 -27.21737,3.76038 -36.1247,11.26987 -9.15441,7.51512 -13.72672,16.13325 -13.72672,25.8544 l 0.72169,19.22507 c 0,10.16685 -2.83293,18.01287 -8.48899,23.53357 -5.66096,5.52632 -13.067421,8.2861 -22.216938,8.2861 -8.913441,0 -16.200028,-2.86896 -21.856093,-8.61813 -5.660959,-5.74355 -8.488991,-13.58957 -8.488991,-23.53357 0,-19.00222 10.594113,-36.46134 31.78968,-52.37173 21.189452,-15.9104 50.936392,-23.8656 89.228592,-23.8656 29.37998,0 53.46474,4.53135 72.24938,13.58957 14.20744,6.85218 24.68413,17.56717 31.42884,32.1517 4.33501,9.50392 6.50252,28.95071 6.50252,58.33813 v 103.08444 c 0,28.95184 0.59814,46.68559 1.80666,53.20125 1.2024,6.52015 3.18887,10.88606 5.96064,13.09208 2.76687,2.21166 5.96064,3.31467 9.57274,3.31467 3.84941,0 7.22543,-0.77211 10.11585,-2.32083 5.05792,-2.86896 14.81047,-10.93896 29.26133,-24.1965 v 18.56101 c -26.9764,33.14891 -52.74428,49.72225 -77.30853,49.72225 z"
   id="path37"
   inkscape:connector-curvature="0"
   style="fill:#b3b3b3" />
</svg>