<?xml version="1.0" encoding="UTF-8" standalone="no"?>
<svg xmlns:dc="http://purl.org/dc/elements/1.1/" xmlns:cc="http://creativecommons.org/ns#" xmlns:rdf="http://www.w3.org/1999/02/22-rdf-syntax-ns#" xmlns:svg="http://www.w3.org/2000/svg" xmlns="http://www.w3.org/2000/svg" xmlns:sodipodi="http://sodipodi.sourceforge.net/DTD/sodipodi-0.dtd" xmlns:inkscape="http://www.inkscape.org/namespaces/inkscape" inkscape:version="0.92.5 (2060ec1f9f, 2020-04-08)" sodipodi:docname="ct_fmt-txt-large2.svg" id="svg3810" height="16" width="16" version="1.1">
  <sodipodi:namedview inkscape:snap-global="false" inkscape:current-layer="svg3810" inkscape:window-maximized="1" inkscape:window-y="0" inkscape:window-x="0" inkscape:cy="9.7000092" inkscape:cx="-3.4071381" inkscape:zoom="19.267929" showgrid="true" id="namedview28" inkscape:window-height="717" inkscape:window-width="1366" inkscape:pageshadow="2" inkscape:pageopacity="0" guidetolerance="10" gridtolerance="10" objecttolerance="10" borderopacity="1" bordercolor="#666666" pagecolor="#ffffff" inkscape:document-rotation="0">
    <inkscape:grid id="grid33" type="xygrid"/>
  </sodipodi:namedview>
  <defs id="defs3812"/>
  <metadata id="metadata3815">
    <rdf:RDF>
      <cc:Work rdf:about="">
        <dc:format>image/svg+xml</dc:format>
        <dc:type rdf:resource="http://purl.org/dc/dcmitype/StillImage"/>
        <dc:title/>
      </cc:Work>
    </rdf:RDF>
  </metadata>
  <path style="color:#000000;font-style:normal;font-variant:normal;font-weight:bold;font-stretch:normal;font-size:29.91349983px;line-height:125%;font-family:'Droid Sans';-inkscape-font-specification:'Droid Sans Bold';font-variant-ligatures:normal;font-variant-position:normal;font-variant-caps:normal;font-variant-numeric:normal;font-variant-alternates:normal;font-feature-settings:normal;text-indent:0;text-align:start;text-decoration:none;text-decoration-line:none;text-decoration-style:solid;text-decoration-color:#000000;letter-spacing:0px;word-spacing:0px;text-transform:none;writing-mode:lr-tb;direction:ltr;text-orientation:mixed;dominant-baseline:auto;baseline-shift:baseline;text-anchor:start;white-space:normal;shape-padding:0;clip-rule:nonzero;display:inline;overflow:visible;visibility:visible;opacity:0.7;isolation:auto;mix-blend-mode:normal;color-interpolation:sRGB;color-interpolation-filters:linearRGB;solid-color:#000000;solid-opacity:1;vector-effect:none;fill:#ffffff;fill-opacity:1;fill-rule:nonzero;stroke:none;stroke-width:2;stroke-linecap:butt;stroke-linejoin:miter;stroke-miterlimit:4;stroke-dasharray:none;stroke-dashoffset:0;stroke-opacity:1;marker:none;color-rendering:auto;image-rendering:auto;shape-rendering:auto;text-rendering:auto;enable-background:accumulate" d="M 0.046875 2.0390625 L 0.046875 3.0390625 L 0.046875 15.003906 L 4.0214844 15.003906 L 4.0273438 14.009766 C 4.0351038 12.698881 4.0138478 11.409175 4.0429688 10.142578 C 4.0599087 9.9151204 4.1073608 9.6813138 4.1699219 9.5371094 C 4.2332969 9.3910291 4.2725113 9.3586941 4.3203125 9.3359375 L 4.3535156 9.3203125 L 4.3847656 9.3027344 C 4.5714299 9.1969519 4.7022352 9.2104492 4.7890625 9.2265625 C 4.9222377 9.3746845 5.0395188 9.6292989 5.015625 9.9863281 L 5.0117188 10.021484 L 5.0117188 15.003906 L 7.8730469 15.003906 L 7.8730469 15.009766 L 8.9335938 15.009766 L 15.972656 15.009766 L 15.972656 11.246094 L 14.353516 11.246094 C 14.422936 11.182174 14.547027 11.096857 14.607422 11.035156 L 14.609375 11.033203 C 15.081586 10.554951 15.450802 10.068971 15.689453 9.5371094 L 15.689453 9.5351562 C 15.927016 9.0093977 16.041016 8.4320234 16.041016 7.8378906 C 16.041016 6.7764501 15.643164 5.7699518 14.890625 5.0664062 C 14.137672 4.3580728 13.113976 4.0097656 12.019531 4.0097656 C 10.893187 4.0097656 9.8336301 4.4359699 9.1035156 5.2421875 L 9.1015625 5.2421875 L 9.1015625 5.2441406 C 8.6963111 5.694784 8.4202571 6.2381065 8.2441406 6.8320312 C 7.9704607 6.5037114 7.6318893 6.2215802 7.21875 6.0214844 L 7.2109375 6.0175781 L 7.2011719 6.0136719 C 6.1934495 5.5516686 5.0790934 5.6463114 4.0371094 6.0117188 L 4.0253906 2.0390625 L 0.046875 2.0390625 z M 13.765625 7.140625 C 13.861655 7.3574613 14.041016 7.5073621 14.041016 7.8378906 C 14.041016 8.1839552 13.980106 8.4633231 13.867188 8.7128906 L 13.865234 8.7148438 L 13.865234 8.7167969 C 13.852184 8.7459749 13.795957 8.7983549 13.779297 8.8300781 C 13.893569 8.532408 14.015625 8.2319211 14.015625 7.9121094 C 14.015625 7.641946 13.844878 7.4033555 13.765625 7.140625 z M 2.046875 7.4472656 C 2.045035 7.5122106 2.0360065 7.5344976 2.0546875 7.6855469 C 2.0628375 7.7514759 2.0667219 7.8305849 2.1386719 8 C 2.1746469 8.084708 2.2283559 8.2009079 2.3691406 8.3378906 C 2.4198906 8.3872696 2.5336192 8.3973196 2.6113281 8.4414062 C 2.5422385 8.553322 2.3822908 8.628888 2.3339844 8.7402344 C 2.1391964 9.1892205 2.074001 9.6253124 2.046875 10.001953 L 2.046875 7.4472656 z M 3.4609375 7.5292969 C 3.4519075 7.5335969 3.4522874 7.5444191 3.4433594 7.5488281 C 3.4303324 7.5559681 3.4112635 7.555228 3.3984375 7.5625 L 3.4609375 7.5292969 z M 6.1679688 7.8085938 C 6.2250068 7.8276208 6.2979615 7.8060841 6.3515625 7.8300781 C 6.735374 8.0205243 7.024856 8.5175473 7.0351562 9.0234375 C 7.0481222 10.34231 7.0416756 11.672344 7.0410156 13.003906 L 7.0117188 13.003906 L 7.0117188 10.054688 L 7.0097656 10.121094 C 7.0606153 9.3612236 6.8278342 8.4766627 6.1679688 7.8085938 z M 12.003906 7.8164062 C 12.011506 7.8560653 12.015625 7.8235864 12.015625 7.9121094 C 12.015625 7.9844604 11.984702 8.0606956 11.951172 8.1425781 C 11.971022 7.9942023 11.985526 7.8656266 12.003906 7.8164062 z M 9.0351562 9.3398438 L 10.671875 9.3457031 C 10.405762 9.543722 10.156848 9.7303667 9.9882812 9.8730469 L 9.984375 9.875 L 9.9824219 9.8769531 C 9.6214244 10.187711 9.3071806 10.519575 9.0371094 10.869141 C 9.0368435 10.358644 9.0390373 9.8521723 9.0351562 9.3398438 z " id="path1993"/>
  <g aria-label="2" transform="matrix(0.29302426,0,0,0.31691884,15.562902,5.7124121)" id="text864" style="font-style:normal;font-variant:normal;font-weight:normal;font-stretch:normal;font-size:40px;line-height:1.25;font-family:'Swis721 Hv BT';-inkscape-font-specification:'Swis721 Hv BT';letter-spacing:0px;word-spacing:0px;white-space:pre;shape-inside:url(#rect866);fill:#1a1a1a;fill-opacity:1;stroke:none;stroke-width:0.32815134">
    <path d="m -22.621094,26.179687 q 0.214844,-3.339843 1.5625,-5.839843 1.367188,-2.519532 4.238282,-4.804688 0.898437,-0.703125 2.714843,-1.933593 1.835938,-1.230469 2.65625,-1.894532 1.386719,-1.152343 2.0703127,-2.3242185 0.6835938,-1.1914062 0.6835938,-2.4414063 0,-1.8164062 -0.8984375,-2.8125 -0.898438,-0.9960937 -2.539063,-0.9960937 -1.835937,0 -2.773437,1.3085937 -0.9375,1.2890625 -0.9375,3.8671876 l -6.484375,-0.019531 q 0.03906,-4.8046875 2.8125,-7.65625 2.792969,-2.8515625 7.421875,-2.8515625 4.609375,0 7.4609375,2.48046875 2.8515625,2.46093755 2.8515625,6.44531245 0,2.2265626 -0.8984375,4.0624995 -0.8789063,1.816407 -3.0078125,3.808594 -1.09375,1.035156 -3.7695313,2.890625 -2.6757817,1.855469 -3.7890627,3.144531 h 11.230469 v 5.566406 z" style="font-style:normal;font-variant:normal;font-weight:normal;font-stretch:normal;font-family:'Swis721 Hv BT';-inkscape-font-specification:'Swis721 Hv BT';fill:#1a1a1a;fill-opacity:1;stroke:none;stroke-width:0.32815134" id="path859"/>
  </g>
  <path inkscape:connector-curvature="0" sodipodi:nodetypes="ccccccccccccccc" d="m 1.047197,3.038858 v 10.964165 h 1.9809949 c 0.00774,-1.307742 -0.016657,-2.616164 0.014517,-3.923414 0.043113,-0.6084758 0.2319773,-1.3531721 0.848637,-1.6467438 0.4468991,-0.2532564 1.0220716,-0.3546409 1.4845156,-0.086578 0.513443,0.3995412 0.678387,1.0838193 0.636636,1.7076768 v 3.949059 h 2.029949 c -0.0046,-1.666431 0.0093,-3.333201 -0.0072,-4.9994154 C 8.0179315,8.1532032 7.5649325,7.3008001 6.7836775,6.9224148 5.6137355,6.3860321 4.0391457,6.5921667 3.1450338,7.5476156 3.0185979,7.7704003 3.0475412,7.4689223 3.0406161,7.2388985 L 3.0281919,3.038858 Z" style="color:#000000;font-style:normal;font-variant:normal;font-weight:bold;font-stretch:normal;font-size:29.91349983px;line-height:125%;font-family:'Droid Sans';-inkscape-font-specification:'Droid Sans Bold';letter-spacing:0px;word-spacing:0px;display:inline;overflow:visible;visibility:visible;opacity:1;vector-effect:none;fill:#1a1a1a;fill-opacity:1;fill-rule:nonzero;stroke:none;stroke-width:0.1;stroke-linecap:butt;stroke-linejoin:miter;stroke-miterlimit:4;stroke-dasharray:none;stroke-dashoffset:0;stroke-opacity:1;marker:none;enable-background:accumulate" id="path957"/>
</svg>