<?xml version="1.0" encoding="UTF-8" standalone="no"?>
<svg
   xmlns:dc="http://purl.org/dc/elements/1.1/"
   xmlns:cc="http://creativecommons.org/ns#"
   xmlns:rdf="http://www.w3.org/1999/02/22-rdf-syntax-ns#"
   xmlns:svg="http://www.w3.org/2000/svg"
   xmlns="http://www.w3.org/2000/svg"
   xmlns:xlink="http://www.w3.org/1999/xlink"
   xmlns:sodipodi="http://sodipodi.sourceforge.net/DTD/sodipodi-0.dtd"
   xmlns:inkscape="http://www.inkscape.org/namespaces/inkscape"
   width="48"
   height="48"
   viewBox="0 0 12.7 12.7"
   version="1.1"
   id="svg8"
   inkscape:version="1.0 (4035a4fb49, 2020-05-01)"
   sodipodi:docname="ct_find_back.svg">
  <defs
     id="defs2">
    <linearGradient
       gradientTransform="matrix(-0.27562172,0,0,0.25654228,11.567942,2.6217375)"
       gradientUnits="userSpaceOnUse"
       xlink:href="#linearGradient3846"
       id="linearGradient3254"
       y2="38.066303"
       x2="23.731871"
       y1="4.4175272"
       x1="23.731871" />
    <linearGradient
       id="linearGradient3846">
      <stop
         offset="0"
         style="stop-color:#fff3cb;stop-opacity:1"
         id="stop3848" />
      <stop
         offset="0.26238"
         style="stop-color:#fdde76;stop-opacity:1"
         id="stop3850" />
      <stop
         offset="0.66093999"
         style="stop-color:#f9c440;stop-opacity:1"
         id="stop3852" />
      <stop
         offset="1"
         style="stop-color:#e48b20;stop-opacity:1"
         id="stop3854" />
    </linearGradient>
    <linearGradient
       gradientTransform="matrix(0,-0.30064855,-0.3230083,0,11.076564,16.500955)"
       gradientUnits="userSpaceOnUse"
       xlink:href="#linearGradient4087-4-6"
       id="linearGradient3198-5"
       y2="15.991243"
       x2="20.576487"
       y1="15.991243"
       x1="38.940514" />
    <linearGradient
       id="linearGradient4087-4-6">
      <stop
         offset="0"
         style="stop-color:#ffffff;stop-opacity:1"
         id="stop4089-0-9" />
      <stop
         offset="0.51153916"
         style="stop-color:#ffffff;stop-opacity:0.23529412"
         id="stop4091-5-8" />
      <stop
         offset="0.58522105"
         style="stop-color:#ffffff;stop-opacity:0.15686275"
         id="stop4093-9-7" />
      <stop
         offset="1"
         style="stop-color:#ffffff;stop-opacity:0.39215687"
         id="stop4095-4-2" />
    </linearGradient>
  </defs>
  <sodipodi:namedview
     id="base"
     pagecolor="#ffffff"
     bordercolor="#666666"
     borderopacity="1.0"
     inkscape:pageopacity="0.0"
     inkscape:pageshadow="2"
     inkscape:zoom="1.8228014"
     inkscape:cx="3.540083"
     inkscape:cy="36.572942"
     inkscape:document-units="mm"
     inkscape:current-layer="layer1"
     inkscape:document-rotation="0"
     showgrid="false"
     inkscape:showpageshadow="false"
     units="px"
     inkscape:window-width="1366"
     inkscape:window-height="715"
     inkscape:window-x="-8"
     inkscape:window-y="22"
     inkscape:window-maximized="1" />
  <metadata
     id="metadata5">
    <rdf:RDF>
      <cc:Work
         rdf:about="">
        <dc:format>image/svg+xml</dc:format>
        <dc:type
           rdf:resource="http://purl.org/dc/dcmitype/StillImage" />
        <dc:title></dc:title>
      </cc:Work>
    </rdf:RDF>
  </metadata>
  <g
     inkscape:label="Capa 1"
     inkscape:groupmode="layer"
     id="layer1">
    <path
       d="M 5.0601193,0.0061551 A 5.0524082,5.0401756 0 0 0 0.00746497,5.0465762 5.0524082,5.0401756 0 0 0 5.0601193,10.086998 5.0524082,5.0401756 0 0 0 7.9293939,9.1948097 c 0.033462,0.056923 0.071464,0.1115404 0.1205229,0.1604804 l 3.1201492,3.1125939 c 0.308632,0.307885 0.805559,0.307885 1.114191,0 l 0.184664,-0.184732 c 0.308632,-0.307885 0.308632,-0.803609 0,-1.111494 L 9.349289,8.0595798 C 9.3021308,8.012536 9.2492335,7.9751123 9.1946263,7.9424446 A 5.0524082,5.0401756 0 0 0 10.112257,5.0465762 5.0524082,5.0401756 0 0 0 5.0601193,0.0061551 Z m -0.036726,1.0691803 a 3.9806855,3.9710477 0 0 1 0.036726,0 3.9806855,3.9710477 0 0 1 3.980879,3.9712408 A 3.9806855,3.9710477 0 0 1 5.0601193,9.017817 3.9806855,3.9710477 0 0 1 1.0792402,5.0465762 3.9806855,3.9710477 0 0 1 5.0233933,1.0753354 Z"
       style="fill:#333333;stroke-width:2.26957;stroke-linecap:round;stop-color:#000000"
       id="path39" />
    <path
       d="M 7.3485358,12.547363 C 10.848217,10.184853 8.8086074,5.8460328 4.9077487,5.881646 V 3.6694256 L 0.14525344,7.2906911 4.9077487,10.911952 V 8.7045062 C 7.4236452,8.6069322 8.79579,10.898865 6.9971781,12.547363 Z"
       id="path3503-3-3"
       style="display:block;overflow:visible;visibility:visible;fill:url(#linearGradient3254);fill-opacity:1;fill-rule:nonzero;stroke:none;stroke-width:0.264583;stroke-linecap:butt;stroke-linejoin:round;stroke-miterlimit:7;stroke-dasharray:none;stroke-dashoffset:0;stroke-opacity:1;marker:none" />
    <path
       d="M 7.751039,11.968536 C 10.313648,9.714638 8.282117,5.9012508 4.6648088,6.1474467 L 4.6431658,4.1906374 0.55565354,7.2845975 4.6431658,10.389291 V 8.4667765 c 3.7529405,-0.085711 3.704934,2.8555015 3.1078732,3.5017595 z"
       id="path3505-6-2"
       style="display:block;overflow:visible;visibility:visible;opacity:0.8;fill:none;stroke:url(#linearGradient3198-5);stroke-width:0.255038;stroke-linecap:butt;stroke-linejoin:miter;stroke-miterlimit:7;stroke-dasharray:none;stroke-dashoffset:0;stroke-opacity:1;marker:none" />
    <path
       d="M 7.3485358,12.547363 C 10.848217,10.184853 8.8086074,5.8460328 4.9077487,5.881646 V 3.6694256 L 0.14525344,7.2906911 4.9077487,10.911952 V 8.7045062 C 7.4236452,8.6069322 8.79579,10.898865 6.9971781,12.547363 Z"
       id="path3503-3-3-7"
       style="color:#000000;clip-rule:nonzero;display:inline;overflow:visible;visibility:visible;opacity:0.5;isolation:auto;mix-blend-mode:normal;color-interpolation:sRGB;color-interpolation-filters:linearRGB;solid-color:#000000;solid-opacity:1;fill:none;fill-opacity:1;fill-rule:evenodd;stroke:#956500;stroke-width:0.264583;stroke-linecap:butt;stroke-linejoin:round;stroke-miterlimit:4;stroke-dasharray:none;stroke-dashoffset:0;stroke-opacity:1;marker:none;color-rendering:auto;image-rendering:auto;shape-rendering:auto;text-rendering:auto;enable-background:accumulate" />
  </g>
</svg>
