<?xml version="1.0" encoding="UTF-8" standalone="no"?>
<svg
   xmlns:dc="http://purl.org/dc/elements/1.1/"
   xmlns:cc="http://creativecommons.org/ns#"
   xmlns:rdf="http://www.w3.org/1999/02/22-rdf-syntax-ns#"
   xmlns:svg="http://www.w3.org/2000/svg"
   xmlns="http://www.w3.org/2000/svg"
   xmlns:xlink="http://www.w3.org/1999/xlink"
   xmlns:sodipodi="http://sodipodi.sourceforge.net/DTD/sodipodi-0.dtd"
   xmlns:inkscape="http://www.inkscape.org/namespaces/inkscape"
   inkscape:version="1.0 (4035a4fb49, 2020-05-01)"
   sodipodi:docname="ct_fmt-txt-small.svg"
   version="1.1"
   width="16"
   height="16"
   id="svg3828">
  <sodipodi:namedview
     inkscape:current-layer="svg3828"
     inkscape:window-maximized="1"
     inkscape:window-y="22"
     inkscape:window-x="-8"
     inkscape:cy="10.081757"
     inkscape:cx="10.384785"
     inkscape:zoom="36.742526"
     showgrid="true"
     id="namedview41"
     inkscape:window-height="715"
     inkscape:window-width="1366"
     inkscape:pageshadow="2"
     inkscape:pageopacity="0"
     guidetolerance="10"
     gridtolerance="10"
     objecttolerance="10"
     borderopacity="1"
     bordercolor="#666666"
     pagecolor="#ffffff"
     inkscape:document-rotation="0"
     inkscape:pagecheckerboard="true"
     inkscape:snap-global="false"
     inkscape:showpageshadow="false">
    <inkscape:grid
       id="grid864"
       type="xygrid" />
  </sodipodi:namedview>
  <defs
     id="defs3830">
    <rect
       id="rect868"
       height="79.635208"
       width="68.869072"
       y="-30.931271"
       x="-43.235424" />
    <linearGradient
       id="linearGradient3977">
      <stop
         id="stop3979"
         style="stop-color:#ffffff;stop-opacity:1"
         offset="0" />
      <stop
         id="stop3981"
         style="stop-color:#ffffff;stop-opacity:0.23529412"
         offset="0" />
      <stop
         id="stop3983"
         style="stop-color:#ffffff;stop-opacity:0.15686275"
         offset="1" />
      <stop
         id="stop3985"
         style="stop-color:#ffffff;stop-opacity:0.39215687"
         offset="1" />
    </linearGradient>
    <linearGradient
       id="linearGradient3600-4">
      <stop
         id="stop3602-7"
         style="stop-color:#f4f4f4;stop-opacity:1"
         offset="0" />
      <stop
         id="stop3604-6"
         style="stop-color:#dbdbdb;stop-opacity:1"
         offset="1" />
    </linearGradient>
    <linearGradient
       id="linearGradient5060">
      <stop
         id="stop5062"
         style="stop-color:#000000;stop-opacity:1"
         offset="0" />
      <stop
         id="stop5064"
         style="stop-color:#000000;stop-opacity:0"
         offset="1" />
    </linearGradient>
    <linearGradient
       id="linearGradient5048">
      <stop
         id="stop5050"
         style="stop-color:#000000;stop-opacity:0"
         offset="0" />
      <stop
         id="stop5056"
         style="stop-color:#000000;stop-opacity:1"
         offset="0.5" />
      <stop
         id="stop5052"
         style="stop-color:#000000;stop-opacity:0"
         offset="1" />
    </linearGradient>
    <linearGradient
       x1="23.99999"
       y1="6.4736748"
       x2="23.99999"
       y2="41.526306"
       id="linearGradient3013"
       xlink:href="#linearGradient3977"
       gradientUnits="userSpaceOnUse"
       gradientTransform="matrix(0.40540511,0,0,0.51351351,2.2696871,-0.3243195)" />
    <linearGradient
       x1="25.132275"
       y1="0.98520643"
       x2="25.132275"
       y2="47.013336"
       id="linearGradient3016"
       xlink:href="#linearGradient3600-4"
       gradientUnits="userSpaceOnUse"
       gradientTransform="matrix(0.45714178,0,0,0.43456667,1.0285964,0.90372283)" />
    <radialGradient
       cx="605.71429"
       cy="486.64789"
       r="117.14286"
       fx="605.71429"
       fy="486.64789"
       id="radialGradient3021"
       xlink:href="#linearGradient5060"
       gradientUnits="userSpaceOnUse"
       gradientTransform="matrix(0.01204859,0,0,0.0082353,13.238793,18.980564)" />
    <radialGradient
       cx="605.71429"
       cy="486.64789"
       r="117.14286"
       fx="605.71429"
       fy="486.64789"
       id="radialGradient3024"
       xlink:href="#linearGradient5060"
       gradientUnits="userSpaceOnUse"
       gradientTransform="matrix(-0.01204859,0,0,0.0082353,10.761206,18.980564)" />
    <linearGradient
       x1="302.85715"
       y1="366.64789"
       x2="302.85715"
       y2="609.50507"
       id="linearGradient3027"
       xlink:href="#linearGradient5048"
       gradientUnits="userSpaceOnUse"
       gradientTransform="matrix(0.0352071,0,0,0.0082353,-0.724852,18.980547)" />
    <linearGradient
       gradientTransform="matrix(0.34782609,0,0,0.35094866,16.837638,3.7677746)"
       gradientUnits="userSpaceOnUse"
       y2="37.678539"
       x2="-17.375"
       y1="-6.125"
       x1="-17.375"
       id="linearGradient1063"
       xlink:href="#linearGradient1061" />
    <linearGradient
       id="linearGradient1061">
      <stop
         id="stop1057"
         offset="0"
         style="stop-color:#4d4d4d;stop-opacity:1" />
      <stop
         id="stop1059"
         offset="1"
         style="stop-color:#333333;stop-opacity:1" />
    </linearGradient>
    <linearGradient
       gradientTransform="matrix(0.34782609,0,0,0.34782609,1.0828828,1.6521738)"
       gradientUnits="userSpaceOnUse"
       y2="44.5"
       x2="44"
       y1="0"
       x1="44"
       id="linearGradient1071"
       xlink:href="#linearGradient1069" />
    <linearGradient
       id="linearGradient1069">
      <stop
         id="stop1065"
         offset="0"
         style="stop-color:#ed5353;stop-opacity:1" />
      <stop
         id="stop1067"
         offset="1"
         style="stop-color:#c6262e;stop-opacity:1" />
    </linearGradient>
  </defs>
  <metadata
     id="metadata3833">
    <rdf:RDF>
      <cc:Work
         rdf:about="">
        <dc:format>image/svg+xml</dc:format>
        <dc:type
           rdf:resource="http://purl.org/dc/dcmitype/StillImage" />
        <dc:title></dc:title>
      </cc:Work>
    </rdf:RDF>
  </metadata>
  <g
     aria-label="s"
     id="g867"
     style="font-style:normal;font-variant:normal;font-weight:normal;font-stretch:normal;font-size:40px;line-height:1.25;font-family:'Swis721 BlkCn BT';-inkscape-font-specification:'Swis721 BlkCn BT';letter-spacing:0px;word-spacing:0px;white-space:pre;shape-inside:url(#rect868);fill:none;fill-opacity:1;stroke:#ffffff;stroke-width:3.70049743"
     transform="matrix(0.27032347,0,0,0.27014444,21.492757,14.111409)" />
  <g
     aria-label="s"
     id="g871"
     style="font-style:normal;font-variant:normal;font-weight:normal;font-stretch:normal;font-size:40px;line-height:1.25;font-family:'Swis721 BlkCn BT';-inkscape-font-specification:'Swis721 BlkCn BT';letter-spacing:0px;word-spacing:0px;white-space:pre;shape-inside:url(#rect868);fill:none;fill-opacity:1;stroke:#ffffff;stroke-width:3.41549"
     transform="matrix(0.31732086,0,0,0.27014444,18.985547,11.640799)">
    <path
       d="m -42.474609,-1.412429 5.557097,0.021111 q 0.09615,1.89994397 0.673005,2.7865845 0.576861,0.8655301 1.730584,0.8655301 0.922978,0 1.519068,-0.5910937 0.59609,-0.6122043 0.59609,-1.56217626 0,-0.823309 -0.423032,-1.35107134 -0.403802,-0.5488726 -1.826727,-1.2877397 -0.30766,-0.1688839 -0.961435,-0.5066518 -3.365025,-1.7099496 -4.691806,-3.2087943 -0.942207,-1.0133035 -1.442153,-2.3643749 -0.499946,-1.3510713 -0.499946,-2.8288056 0,-3.335458 2.057471,-5.319844 2.076701,-1.984386 5.595555,-1.984386 3.653456,0 5.614784,1.921055 1.980557,1.899945 1.980557,5.467617 v 0.44332 l -5.441725,-0.02111 q -0.03845,-1.836613 -0.519176,-2.617701 -0.461489,-0.781088 -1.519067,-0.781088 -0.942208,0 -1.49984,0.569982 -0.557633,0.548874 -0.557633,1.456625 0,1.604397 2.788163,2.9554694 0.384574,0.1899938 0.596091,0.2955461 3.807284,1.8788335 5.095608,3.6521146 1.288324,1.7732811 1.288324,4.64430764 0,3.69433556 -2.076701,5.72094256 -2.076701,2.0266068 -5.922443,2.0266068 -3.653456,0 -5.691699,-2.0477173 -2.019014,-2.0477175 -2.019014,-5.74205303 z"
       style="font-style:normal;font-variant:normal;font-weight:normal;font-stretch:normal;font-family:'Swis721 BlkCn BT';-inkscape-font-specification:'Swis721 BlkCn BT';fill:none;stroke:#ffffff;stroke-width:3.41549"
       id="path869" />
  </g>
  <g
     aria-label="s"
     id="g42"
     style="font-style:normal;font-variant:normal;font-weight:normal;font-stretch:normal;font-size:40px;line-height:1.25;font-family:'Swis721 BlkCn BT';-inkscape-font-specification:'Swis721 BlkCn BT';letter-spacing:0px;word-spacing:0px;white-space:pre;shape-inside:url(#rect868);fill:none;fill-opacity:1;stroke:#ffffff;stroke-width:4.34076;stroke-opacity:1"
     transform="matrix(0.23045098,0,0,0.23029835,20.82761,14.287063)" />
  <g
     transform="matrix(0.31732086,0,0,0.27014444,18.985547,11.640799)"
     style="font-style:normal;font-variant:normal;font-weight:normal;font-stretch:normal;font-size:40px;line-height:1.25;font-family:'Swis721 BlkCn BT';-inkscape-font-specification:'Swis721 BlkCn BT';letter-spacing:0px;word-spacing:0px;white-space:pre;shape-inside:url(#rect868);fill:#1a1a1a;fill-opacity:1;stroke:none"
     id="text866"
     aria-label="s">
    <path
       id="path872"
       style="font-style:normal;font-variant:normal;font-weight:normal;font-stretch:normal;font-family:'Swis721 BlkCn BT';-inkscape-font-specification:'Swis721 BlkCn BT';fill:#1a1a1a;stroke-width:1.03156"
       d="m -42.474609,-1.412429 5.557097,0.021111 q 0.09615,1.89994397 0.673005,2.7865845 0.576861,0.8655301 1.730584,0.8655301 0.922978,0 1.519068,-0.5910937 0.59609,-0.6122043 0.59609,-1.56217626 0,-0.823309 -0.423032,-1.35107134 -0.403802,-0.5488726 -1.826727,-1.2877397 -0.30766,-0.1688839 -0.961435,-0.5066518 -3.365025,-1.7099496 -4.691806,-3.2087943 -0.942207,-1.0133035 -1.442153,-2.3643749 -0.499946,-1.3510713 -0.499946,-2.8288056 0,-3.335458 2.057471,-5.319844 2.076701,-1.984386 5.595555,-1.984386 3.653456,0 5.614784,1.921055 1.980557,1.899945 1.980557,5.467617 v 0.44332 l -5.441725,-0.02111 q -0.03845,-1.836613 -0.519176,-2.617701 -0.461489,-0.781088 -1.519067,-0.781088 -0.942208,0 -1.49984,0.569982 -0.557633,0.548874 -0.557633,1.456625 0,1.604397 2.788163,2.9554694 0.384574,0.1899938 0.596091,0.2955461 3.807284,1.8788335 5.095608,3.6521146 1.288324,1.7732811 1.288324,4.64430764 0,3.69433556 -2.076701,5.72094256 -2.076701,2.0266068 -5.922443,2.0266068 -3.653456,0 -5.691699,-2.0477173 -2.019014,-2.0477175 -2.019014,-5.74205303 z" />
  </g>
</svg>
