<?xml version="1.0" encoding="UTF-8" standalone="no"?>
<svg
   xmlns:dc="http://purl.org/dc/elements/1.1/"
   xmlns:cc="http://creativecommons.org/ns#"
   xmlns:rdf="http://www.w3.org/1999/02/22-rdf-syntax-ns#"
   xmlns:svg="http://www.w3.org/2000/svg"
   xmlns="http://www.w3.org/2000/svg"
   xmlns:xlink="http://www.w3.org/1999/xlink"
   xmlns:sodipodi="http://sodipodi.sourceforge.net/DTD/sodipodi-0.dtd"
   xmlns:inkscape="http://www.inkscape.org/namespaces/inkscape"
   id="svg3828"
   height="48"
   width="48"
   version="1.1"
   sodipodi:docname="ct_fmt-txt-large3.svg"
   inkscape:version="1.0 (4035a4fb49, 2020-05-01)">
  <sodipodi:namedview
     inkscape:document-rotation="0"
     pagecolor="#ffffff"
     bordercolor="#666666"
     borderopacity="1"
     objecttolerance="10"
     gridtolerance="10"
     guidetolerance="10"
     inkscape:pageopacity="0"
     inkscape:pageshadow="2"
     inkscape:window-width="1366"
     inkscape:window-height="715"
     id="namedview41"
     showgrid="false"
     inkscape:zoom="11.562483"
     inkscape:cx="32.084908"
     inkscape:cy="38.038031"
     inkscape:window-x="-8"
     inkscape:window-y="22"
     inkscape:window-maximized="1"
     inkscape:current-layer="svg3828"
     showguides="true"
     inkscape:guide-bbox="true" />
  <defs
     id="defs3830">
    <rect
       id="rect876"
       height="51.944965"
       width="56.975956"
       y="-25.658047"
       x="-27.418892" />
    <rect
       id="rect866"
       height="54.083138"
       width="53.328487"
       y="-14.589869"
       x="-30.31171" />
    <rect
       x="-47.507698"
       y="-30.076817"
       width="79.122536"
       height="66.476601"
       id="rect879" />
    <rect
       x="-43.235424"
       y="-30.931271"
       width="68.869072"
       height="79.635208"
       id="rect868" />
    <linearGradient
       id="linearGradient3977">
      <stop
         offset="0"
         style="stop-color:#ffffff;stop-opacity:1"
         id="stop3979" />
      <stop
         offset="0"
         style="stop-color:#ffffff;stop-opacity:0.23529412"
         id="stop3981" />
      <stop
         offset="1"
         style="stop-color:#ffffff;stop-opacity:0.15686275"
         id="stop3983" />
      <stop
         offset="1"
         style="stop-color:#ffffff;stop-opacity:0.39215687"
         id="stop3985" />
    </linearGradient>
    <linearGradient
       id="linearGradient3600-4">
      <stop
         offset="0"
         style="stop-color:#f4f4f4;stop-opacity:1"
         id="stop3602-7" />
      <stop
         offset="1"
         style="stop-color:#dbdbdb;stop-opacity:1"
         id="stop3604-6" />
    </linearGradient>
    <linearGradient
       id="linearGradient5060">
      <stop
         offset="0"
         style="stop-color:#000000;stop-opacity:1"
         id="stop5062" />
      <stop
         offset="1"
         style="stop-color:#000000;stop-opacity:0"
         id="stop5064" />
    </linearGradient>
    <linearGradient
       id="linearGradient5048">
      <stop
         offset="0"
         style="stop-color:#000000;stop-opacity:0"
         id="stop5050" />
      <stop
         offset="0.5"
         style="stop-color:#000000;stop-opacity:1"
         id="stop5056" />
      <stop
         offset="1"
         style="stop-color:#000000;stop-opacity:0"
         id="stop5052" />
    </linearGradient>
    <linearGradient
       gradientTransform="matrix(0.40540511,0,0,0.51351351,2.2696871,-0.3243195)"
       gradientUnits="userSpaceOnUse"
       xlink:href="#linearGradient3977"
       id="linearGradient3013"
       y2="41.526306"
       x2="23.99999"
       y1="6.4736748"
       x1="23.99999" />
    <linearGradient
       gradientTransform="matrix(0.45714178,0,0,0.43456667,1.0285964,0.90372283)"
       gradientUnits="userSpaceOnUse"
       xlink:href="#linearGradient3600-4"
       id="linearGradient3016"
       y2="47.013336"
       x2="25.132275"
       y1="0.98520643"
       x1="25.132275" />
    <radialGradient
       gradientTransform="matrix(0.01204859,0,0,0.0082353,13.238793,18.980564)"
       gradientUnits="userSpaceOnUse"
       xlink:href="#linearGradient5060"
       id="radialGradient3021"
       fy="486.64789"
       fx="605.71429"
       r="117.14286"
       cy="486.64789"
       cx="605.71429" />
    <radialGradient
       gradientTransform="matrix(-0.01204859,0,0,0.0082353,10.761206,18.980564)"
       gradientUnits="userSpaceOnUse"
       xlink:href="#linearGradient5060"
       id="radialGradient3024"
       fy="486.64789"
       fx="605.71429"
       r="117.14286"
       cy="486.64789"
       cx="605.71429" />
    <linearGradient
       gradientTransform="matrix(0.0352071,0,0,0.0082353,-0.724852,18.980547)"
       gradientUnits="userSpaceOnUse"
       xlink:href="#linearGradient5048"
       id="linearGradient3027"
       y2="609.50507"
       x2="302.85715"
       y1="366.64789"
       x1="302.85715" />
    <linearGradient
       xlink:href="#linearGradient1061"
       id="linearGradient1063"
       x1="-17.375"
       y1="-6.125"
       x2="-17.375"
       y2="37.678539"
       gradientUnits="userSpaceOnUse"
       gradientTransform="matrix(0.34782609,0,0,0.35094866,16.837638,3.7677746)" />
    <linearGradient
       id="linearGradient1061">
      <stop
         style="stop-color:#4d4d4d;stop-opacity:1"
         offset="0"
         id="stop1057" />
      <stop
         style="stop-color:#333333;stop-opacity:1"
         offset="1"
         id="stop1059" />
    </linearGradient>
    <linearGradient
       xlink:href="#linearGradient1069"
       id="linearGradient1071"
       x1="44"
       y1="0"
       x2="44"
       y2="44.5"
       gradientUnits="userSpaceOnUse"
       gradientTransform="matrix(0.34782609,0,0,0.34782609,1.0828828,1.6521738)" />
    <linearGradient
       id="linearGradient1069">
      <stop
         style="stop-color:#ed5353;stop-opacity:1"
         offset="0"
         id="stop1065" />
      <stop
         style="stop-color:#c6262e;stop-opacity:1"
         offset="1"
         id="stop1067" />
    </linearGradient>
    <rect
       x="-27.418892"
       y="-25.658047"
       width="56.975956"
       height="51.944965"
       id="rect884" />
    <rect
       id="rect890"
       height="51.944965"
       width="56.975956"
       y="-25.658047"
       x="-27.418892" />
    <rect
       x="-27.418892"
       y="-25.658047"
       width="56.975956"
       height="51.944965"
       id="rect896" />
    <linearGradient
       gradientUnits="userSpaceOnUse"
       y2="59"
       x2="32"
       y1="1"
       x1="32"
       id="linearGradient922"
       xlink:href="#linearGradient1069"
       gradientTransform="matrix(0.7222209,0,0,0.7407407,-19.074622,-12.047671)" />
  </defs>
  <metadata
     id="metadata3833">
    <rdf:RDF>
      <cc:Work
         rdf:about="">
        <dc:format>image/svg+xml</dc:format>
        <dc:type
           rdf:resource="http://purl.org/dc/dcmitype/StillImage" />
        <dc:title />
      </cc:Work>
    </rdf:RDF>
  </metadata>
  <text
     style="font-style:normal;font-variant:normal;font-weight:normal;font-stretch:normal;font-size:40px;line-height:1.25;font-family:DFGothic-EB;-inkscape-font-specification:DFGothic-EB;letter-spacing:0px;word-spacing:0px;white-space:pre;shape-inside:url(#rect866);fill:#000000;fill-opacity:1;stroke:none;"
     id="text864"
     xml:space="preserve" />
  <text
     id="text872"
     y="-7.7980337"
     x="-21.633255"
     style="font-style:normal;font-weight:normal;font-size:40px;line-height:1.25;font-family:sans-serif;letter-spacing:0px;word-spacing:0px;fill:#000000;fill-opacity:1;stroke:none"
     xml:space="preserve"><tspan
       y="-7.7980337"
       x="-21.633255"
       id="tspan870"
       sodipodi:role="line" /></text>
  <g
     aria-label="3"
     transform="matrix(0.82800563,0,0,0.8056135,40.775375,31.42372)"
     id="g50"
     style="font-style:normal;font-weight:normal;font-size:40px;line-height:1.25;font-family:sans-serif;letter-spacing:0px;word-spacing:0px;white-space:pre;shape-inside:url(#rect896);fill:none;fill-opacity:1;stroke:#f2f2f2;stroke-width:3.67317181">
    <path
       d="m 4.9957305,5.9824187 q 0,3.9062502 -2.1484393,6.2500013 -2.14843699,2.304688 -6.0546864,2.304688 -4.6875014,0 -6.7968758,-2.851564 -1.835938,-2.4218743 -1.914063,-7.2656243 h 5.7421884 v 0.46875 q 0,1.874999 0.234375,2.8125 0.585937,2.1484387 2.5000004,2.1484387 2.46093701,0 2.46093701,-4.5703137 0,-2.382813 -0.58593701,-3.28125 -0.742189,-1.21093904 -2.968751,-1.21093904 H -6.9183336 V -3.4707053 h 2.9687504 q 2.851563,0 2.851563,-3.710938 0,-3.3984377 -2.226563,-3.3984377 -1.171875,0 -1.796875,1.0156257 -0.6250014,0.937499 -0.6250014,2.1875 0,0.273437 0.03906,0.546874 h -5.5859394 q 0.15625,-3.7499997 2.0312504,-5.9765627 2.070313,-2.5 5.7031254,-2.5 3.75000041,0 5.9765634,1.992188 2.2656253,2.03125 2.2656253,5.7031247 0,3.984376 -3.3984383,6.406251 2.226563,1.13281096 3.0078133,2.890624 0.703125,1.484375 0.703125,4.296875 z"
       style="font-style:normal;font-variant:normal;font-weight:normal;font-stretch:normal;font-size:40px;line-height:1.25;font-family:DFGothic-EB;-inkscape-font-specification:DFGothic-EB;letter-spacing:0px;word-spacing:0px;white-space:pre;shape-inside:url(#rect896);fill:none;fill-opacity:1;stroke:#f2f2f2;stroke-width:3.67317181;stroke-opacity:1"
       id="path48" />
  </g>
  <g
     aria-label="3"
     transform="matrix(0.82800563,0,0,0.8056135,52.574153,31.42372)"
     id="text894"
     style="font-style:normal;font-weight:normal;font-size:40px;line-height:1.25;font-family:sans-serif;letter-spacing:0px;word-spacing:0px;white-space:pre;shape-inside:url(#rect896);fill:#1a1a1a;fill-opacity:1;stroke:none">
    <path
       d="m -9.2539063,5.9824219 q 0,3.90625 -2.1484377,6.2500001 -2.148437,2.304687 -6.054687,2.304687 -4.6875,0 -6.796875,-2.851562 -1.835938,-2.4218751 -1.914063,-7.2656251 h 5.742188 v 0.46875 q 0,1.875 0.234375,2.8125 0.585937,2.1484375 2.5,2.1484375 2.460937,0 2.460937,-4.5703125 0,-2.3828125 -0.585937,-3.28125 -0.742188,-1.21093753 -2.96875,-1.21093753 h -2.382813 V -3.4707031 h 2.96875 q 2.851563,0 2.851563,-3.7109375 0,-3.3984374 -2.226563,-3.3984374 -1.171875,0 -1.796875,1.0156249 -0.625,0.9375 -0.625,2.1875 0,0.2734375 0.03906,0.546875 h -5.585938 q 0.15625,-3.7499999 2.03125,-5.9765629 2.070313,-2.5 5.703125,-2.5 3.75,0 5.976563,1.992188 2.2656247,2.03125 2.2656247,5.7031249 0,3.984375 -3.3984377,6.40625 2.226563,1.13281248 3.0078127,2.890625 0.703125,1.484375 0.703125,4.296875 z"
       style="font-style:normal;font-variant:normal;font-weight:normal;font-stretch:normal;font-family:DFGothic-EB;-inkscape-font-specification:DFGothic-EB;fill:#1a1a1a"
       id="path904" />
  </g>
  <path
     id="path880"
     d="m 1.5450179,3.02784 v 39.883453 h 0.019544 7.9575753 V 29.337677 c 0,-3.355357 0.1966158,-5.782503 1.1529438,-7.279508 0.956334,-1.497006 2.510964,-2.243445 4.658511,-2.243445 3.019972,0 4.260705,2.080671 4.159944,6.243473 v 16.853096 h 7.977119 V 24.099078 c 0,-3.406977 -0.78932,-6.024217 -2.500639,-7.848159 -1.71132,-1.82393 -4.220082,-2.734196 -7.525292,-2.734196 -3.724642,0 -5.938612,1.407884 -7.649931,4.229825 L 9.5221372,18.607315 V 10.934424 3.02784 H 1.564494 Z"
     style="font-style:normal;font-variant:normal;font-weight:bold;font-stretch:normal;font-size:35.7846px;line-height:1.25;font-family:'Open Sans';-inkscape-font-specification:'Open Sans Bold';letter-spacing:-0.894616px;word-spacing:0px;fill:#bc245d;fill-opacity:1;stroke:none;stroke-width:2.22915"
     sodipodi:nodetypes="ccccssscccssscccccc" />
</svg>
