<?xml version="1.0" encoding="UTF-8" standalone="no"?>
<svg
   xmlns:dc="http://purl.org/dc/elements/1.1/"
   xmlns:cc="http://creativecommons.org/ns#"
   xmlns:rdf="http://www.w3.org/1999/02/22-rdf-syntax-ns#"
   xmlns:svg="http://www.w3.org/2000/svg"
   xmlns="http://www.w3.org/2000/svg"
   xmlns:sodipodi="http://sodipodi.sourceforge.net/DTD/sodipodi-0.dtd"
   xmlns:inkscape="http://www.inkscape.org/namespaces/inkscape"
   version="1.1"
   width="16"
   height="16"
   id="svg3810"
   sodipodi:docname="ct_fmt-txt-h5.svg"
   inkscape:version="0.92.5 (2060ec1f9f, 2020-04-08)">
  <sodipodi:namedview
     inkscape:snap-global="false"
     inkscape:document-rotation="0"
     pagecolor="#ffffff"
     bordercolor="#666666"
     borderopacity="1"
     objecttolerance="10"
     gridtolerance="10"
     guidetolerance="10"
     inkscape:pageopacity="0"
     inkscape:pageshadow="2"
     inkscape:window-width="1366"
     inkscape:window-height="711"
     id="namedview28"
     showgrid="true"
     inkscape:zoom="14.616807"
     inkscape:cx="-7.2870685"
     inkscape:cy="10.650225"
     inkscape:window-x="0"
     inkscape:window-y="0"
     inkscape:window-maximized="1"
     inkscape:current-layer="svg3810">
    <inkscape:grid
       id="grid49"
       type="xygrid" />
  </sodipodi:namedview>
  <defs
     id="defs3812" />
  <metadata
     id="metadata3815">
    <rdf:RDF>
      <cc:Work
         rdf:about="">
        <dc:format>image/svg+xml</dc:format>
        <dc:type
           rdf:resource="http://purl.org/dc/dcmitype/StillImage" />
        <dc:title />
      </cc:Work>
    </rdf:RDF>
  </metadata>
  <path
     style="color:#000000;font-style:normal;font-variant:normal;font-weight:normal;font-stretch:normal;font-size:40px;line-height:1.25;font-family:'Swis721 Hv BT';-inkscape-font-specification:'Swis721 Hv BT';font-variant-ligatures:normal;font-variant-position:normal;font-variant-caps:normal;font-variant-numeric:normal;font-variant-alternates:normal;font-feature-settings:normal;text-indent:0;text-align:start;text-decoration:none;text-decoration-line:none;text-decoration-style:solid;text-decoration-color:#000000;letter-spacing:0px;word-spacing:0px;text-transform:none;writing-mode:lr-tb;direction:ltr;text-orientation:mixed;dominant-baseline:auto;baseline-shift:baseline;text-anchor:start;white-space:pre;shape-inside:url(#rect874);shape-padding:0;clip-rule:nonzero;display:inline;overflow:visible;visibility:visible;opacity:0.7;isolation:auto;mix-blend-mode:normal;color-interpolation:sRGB;color-interpolation-filters:linearRGB;solid-color:#000000;solid-opacity:1;vector-effect:none;fill:#ffffff;fill-opacity:1;fill-rule:nonzero;stroke:none;stroke-width:1.99999988;stroke-linecap:butt;stroke-linejoin:miter;stroke-miterlimit:4;stroke-dasharray:none;stroke-dashoffset:0;stroke-opacity:1;color-rendering:auto;image-rendering:auto;shape-rendering:auto;text-rendering:auto;enable-background:accumulate"
     d="M 0.046875 2.0390625 L 0.046875 3.0390625 L 0.046875 15.003906 L 4.0214844 15.003906 L 4.0273438 14.009766 C 4.0351038 12.698881 4.0138478 11.409175 4.0429688 10.142578 C 4.0599087 9.9151204 4.1073608 9.6813138 4.1699219 9.5371094 C 4.2332969 9.3910291 4.2725113 9.3586941 4.3203125 9.3359375 L 4.3535156 9.3203125 L 4.3847656 9.3027344 C 4.5714299 9.1969519 4.7022352 9.2104492 4.7890625 9.2265625 C 4.9222377 9.3746845 5.0395188 9.6292989 5.015625 9.9863281 L 5.0117188 10.021484 L 5.0117188 15.003906 L 9.0449219 15.003906 L 9.0429688 14 C 9.0429151 13.980581 9.0430175 13.960828 9.0429688 13.941406 L 9.0449219 13.943359 L 9.046875 13.945312 C 9.7659927 14.667042 10.788676 15 11.892578 15 C 13.020439 15 14.05855 14.68603 14.826172 13.998047 C 15.594103 13.309785 15.992187 12.293214 15.992188 11.220703 C 15.992188 10.591961 15.85747 9.9842637 15.554688 9.4589844 C 15.463587 9.2981185 15.27275 9.2296582 15.152344 9.0898438 C 15.224344 8.9861505 15.343804 8.9168587 15.402344 8.8046875 L 15.402344 8.8027344 C 15.640061 8.3494771 15.753906 7.8371426 15.753906 7.3203125 C 15.753906 6.3831686 15.366025 5.4733694 14.664062 4.8730469 C 13.961478 4.2721889 13.032451 4 12.037109 4 C 10.949362 4 9.9465561 4.3051528 9.2207031 4.9882812 C 8.7075742 5.4706449 8.3891985 6.1119621 8.234375 6.8203125 C 7.9622861 6.4970584 7.6269981 6.2192112 7.21875 6.0214844 L 7.2109375 6.0175781 L 7.2011719 6.0136719 C 6.1934495 5.5516686 5.0790934 5.6463114 4.0371094 6.0117188 L 4.0253906 2.0390625 L 0.046875 2.0390625 z M 2.046875 7.4472656 C 2.045035 7.5122106 2.0360065 7.5344976 2.0546875 7.6855469 C 2.0628375 7.7514759 2.0667219 7.8305849 2.1386719 8 C 2.1746469 8.084708 2.2283559 8.2009079 2.3691406 8.3378906 C 2.4198906 8.3872696 2.5336192 8.3973196 2.6113281 8.4414062 C 2.5422385 8.553322 2.3822908 8.628888 2.3339844 8.7402344 C 2.1391964 9.1892205 2.074001 9.6253124 2.046875 10.001953 L 2.046875 7.4472656 z M 3.4609375 7.5292969 C 3.4519075 7.5335969 3.4522874 7.5444191 3.4433594 7.5488281 C 3.4303324 7.5559681 3.4112635 7.555228 3.3984375 7.5625 L 3.4609375 7.5292969 z M 6.1679688 7.8085938 C 6.2250068 7.8276208 6.2979615 7.8060841 6.3515625 7.8300781 C 6.735374 8.0205243 7.024856 8.5175473 7.0351562 9.0234375 C 7.0481222 10.34231 7.0416756 11.672344 7.0410156 13.003906 L 7.0117188 13.003906 L 7.0117188 10.054688 L 7.0097656 10.121094 C 7.0606153 9.3612236 6.8278342 8.4766627 6.1679688 7.8085938 z M 9.0136719 8.7363281 L 10.462891 8.7402344 L 10.462891 10.076172 L 9.0371094 10.076172 C 9.0358366 9.7143078 9.0387487 9.3569272 9.0351562 8.9941406 L 9.0351562 8.9882812 L 9.0351562 8.9824219 C 9.0334794 8.9000728 9.020999 8.8185466 9.0136719 8.7363281 z M 13.619141 10.269531 C 13.678331 10.327781 13.772416 10.367071 13.816406 10.445312 L 13.820312 10.451172 L 13.822266 10.457031 C 13.894696 10.582078 13.919807 10.796805 13.945312 11.009766 C 13.916733 10.738584 13.745831 10.519935 13.619141 10.269531 z M 11.878906 11.111328 C 11.918616 11.123798 12.059356 11.143516 12.048828 11.134766 L 12.052734 11.136719 L 12.054688 11.138672 C 12.037487 11.124592 12.042969 11.050232 12.042969 11.232422 C 12.042969 11.370953 12.033771 11.342807 12.025391 11.351562 C 12.016491 11.360862 12.083352 11.347656 11.982422 11.347656 C 11.928795 11.347656 11.92644 11.348563 11.916016 11.349609 C 11.920235 11.3455 11.893677 11.264583 11.878906 11.111328 z "
     id="path2033" />
  <path
     inkscape:connector-curvature="0"
     sodipodi:nodetypes="ccccccccccccccc"
     d="m 1.047197,3.038858 v 10.964165 h 1.9809949 c 0.00774,-1.307742 -0.016657,-2.616164 0.014517,-3.923414 0.043113,-0.6084758 0.2319773,-1.3531721 0.848637,-1.6467438 0.4468991,-0.2532564 1.0220716,-0.3546409 1.4845156,-0.086578 0.513443,0.3995412 0.678387,1.0838193 0.636636,1.7076768 v 3.949059 h 2.029949 c -0.0046,-1.666431 0.0093,-3.333201 -0.0072,-4.9994154 C 8.0179315,8.1532032 7.5649325,7.3008001 6.7836775,6.9224148 5.6137355,6.3860321 4.0391457,6.5921667 3.1450338,7.5476156 3.0185979,7.7704003 3.0475412,7.4689223 3.0406161,7.2388985 L 3.0281919,3.038858 Z"
     style="color:#000000;font-style:normal;font-variant:normal;font-weight:bold;font-stretch:normal;font-size:29.91349983px;line-height:125%;font-family:'Droid Sans';-inkscape-font-specification:'Droid Sans Bold';letter-spacing:0px;word-spacing:0px;display:inline;overflow:visible;visibility:visible;opacity:1;vector-effect:none;fill:#1a1a1a;fill-opacity:1;fill-rule:nonzero;stroke:none;stroke-width:0.1;stroke-linecap:butt;stroke-linejoin:miter;stroke-miterlimit:4;stroke-dasharray:none;stroke-dashoffset:0;stroke-opacity:1;marker:none;enable-background:accumulate"
     id="path957" />
  <text
     xml:space="preserve"
     style="font-style:normal;font-weight:normal;font-size:21.33333333px;line-height:1.25;font-family:sans-serif;letter-spacing:0px;word-spacing:0px;fill:#000000;fill-opacity:1;stroke:none;"
     x="9.9885015"
     y="9.2269754"
     id="text13"><tspan
       sodipodi:role="line"
       id="tspan11"
       x="9.9885015"
       y="44.617599" /></text>
  <text
     xml:space="preserve"
     style="font-style:normal;font-weight:normal;font-size:10.66666698px;line-height:1.25;font-family:sans-serif;letter-spacing:0px;word-spacing:0px;fill:#000000;fill-opacity:1;stroke:none"
     x="8.962286"
     y="13.879154"
     id="text15"><tspan
       sodipodi:role="line"
       id="tspan13"
       x="8.962286"
       y="13.879154">5</tspan></text>
</svg>
