<?xml version="1.0" encoding="UTF-8" standalone="no"?>
<svg
   xmlns:dc="http://purl.org/dc/elements/1.1/"
   xmlns:cc="http://creativecommons.org/ns#"
   xmlns:rdf="http://www.w3.org/1999/02/22-rdf-syntax-ns#"
   xmlns:svg="http://www.w3.org/2000/svg"
   xmlns="http://www.w3.org/2000/svg"
   xmlns:sodipodi="http://sodipodi.sourceforge.net/DTD/sodipodi-0.dtd"
   xmlns:inkscape="http://www.inkscape.org/namespaces/inkscape"
   inkscape:version="0.92.5 (2060ec1f9f, 2020-04-08)"
   sodipodi:docname="ct_fmt-txt-large.svg"
   id="svg3810"
   height="16"
   width="16"
   version="1.1">
  <sodipodi:namedview
     inkscape:snap-global="false"
     inkscape:current-layer="svg3810"
     inkscape:window-maximized="1"
     inkscape:window-y="0"
     inkscape:window-x="0"
     inkscape:cy="3.012693"
     inkscape:cx="-1.9267802"
     inkscape:zoom="22.627417"
     showgrid="true"
     id="namedview28"
     inkscape:window-height="717"
     inkscape:window-width="1366"
     inkscape:pageshadow="2"
     inkscape:pageopacity="0"
     guidetolerance="10"
     gridtolerance="10"
     objecttolerance="10"
     borderopacity="1"
     bordercolor="#666666"
     pagecolor="#ffffff"
     inkscape:document-rotation="0">
    <inkscape:grid
       id="grid41"
       type="xygrid" />
  </sodipodi:namedview>
  <defs
     id="defs3812" />
  <metadata
     id="metadata3815">
    <rdf:RDF>
      <cc:Work
         rdf:about="">
        <dc:format>image/svg+xml</dc:format>
        <dc:type
           rdf:resource="http://purl.org/dc/dcmitype/StillImage" />
        <dc:title />
      </cc:Work>
    </rdf:RDF>
  </metadata>
  <g
     style="font-style:normal;font-weight:normal;font-size:40px;line-height:1.25;font-family:sans-serif;letter-spacing:0px;word-spacing:0px;white-space:pre;shape-inside:url(#rect859);fill:#1a1a1a;fill-opacity:1;stroke:#ffffff;stroke-width:6.3536377;opacity:0.7"
     id="g1991"
     transform="matrix(0.30383991,0,0,0.32611465,-0.7831936,8.5151248)"
     aria-label="1">
    <path
       inkscape:connector-curvature="0"
       id="path1989"
       style="font-style:normal;font-variant:normal;font-weight:normal;font-stretch:normal;font-family:'Swis721 Hv BT';-inkscape-font-specification:'Swis721 Hv BT';fill:#1a1a1a;fill-opacity:1;stroke:#ffffff;stroke-width:6.3536377"
       d="m 41.966375,16.828125 v -18.125 h -6.445313 v -4.3945312 h 0.566406 q 3.613282,0 5.371094,-1.2109375 1.757813,-1.2109376 1.992188,-3.8671873 h 5.488281 v 27.597656 z" />
  </g>
  <path
     inkscape:connector-curvature="0"
     id="path1993"
     style="color:#000000;font-style:normal;font-variant:normal;font-weight:bold;font-stretch:normal;font-size:29.91349983px;line-height:125%;font-family:'Droid Sans';-inkscape-font-specification:'Droid Sans Bold';letter-spacing:0px;word-spacing:0px;display:inline;overflow:visible;visibility:visible;opacity:0.7;vector-effect:none;fill:#1a1a1a;fill-opacity:1;fill-rule:nonzero;stroke:#ffffff;stroke-width:2;stroke-linecap:butt;stroke-linejoin:miter;stroke-miterlimit:4;stroke-dasharray:none;stroke-dashoffset:0;stroke-opacity:1;marker:none;enable-background:accumulate"
     d="m 1.047197,3.038858 v 10.964165 h 1.9809949 c 0.00774,-1.307742 -0.016657,-2.616164 0.014517,-3.923414 0.043113,-0.6084758 0.2319773,-1.3531721 0.848637,-1.6467438 0.4468991,-0.2532564 1.0220716,-0.3546409 1.4845156,-0.086578 0.513443,0.3995412 0.678387,1.0838193 0.636636,1.7076768 v 3.949059 h 2.029949 c -0.0046,-1.666431 0.0093,-3.333201 -0.0072,-4.9994154 C 8.0179315,8.1532032 7.5649325,7.3008001 6.7836775,6.9224148 5.6137355,6.3860321 4.0391457,6.5921667 3.1450338,7.5476156 3.0185979,7.7704003 3.0475412,7.4689223 3.0406161,7.2388985 L 3.0281919,3.038858 Z"
     sodipodi:nodetypes="ccccccccccccccc" />
  <g
     aria-label="1"
     transform="matrix(0.30383991,0,0,0.32611465,-0.7831936,8.5151248)"
     id="text857"
     style="font-style:normal;font-weight:normal;font-size:40px;line-height:1.25;font-family:sans-serif;letter-spacing:0px;word-spacing:0px;white-space:pre;shape-inside:url(#rect859);fill:#1a1a1a;fill-opacity:1;stroke:none;stroke-width:0.31768187">
    <path
       d="m 41.966375,16.828125 v -18.125 h -6.445313 v -4.3945312 h 0.566406 q 3.613282,0 5.371094,-1.2109375 1.757813,-1.2109376 1.992188,-3.8671873 h 5.488281 v 27.597656 z"
       style="font-style:normal;font-variant:normal;font-weight:normal;font-stretch:normal;font-family:'Swis721 Hv BT';-inkscape-font-specification:'Swis721 Hv BT';fill:#1a1a1a;fill-opacity:1;stroke:none;stroke-width:0.31768187"
       id="path883" />
  </g>
  <path
     sodipodi:nodetypes="ccccccccccccccc"
     d="m 1.047197,3.038858 v 10.964165 h 1.9809949 c 0.00774,-1.307742 -0.016657,-2.616164 0.014517,-3.923414 0.043113,-0.6084758 0.2319773,-1.3531721 0.848637,-1.6467438 0.4468991,-0.2532564 1.0220716,-0.3546409 1.4845156,-0.086578 0.513443,0.3995412 0.678387,1.0838193 0.636636,1.7076768 v 3.949059 h 2.029949 c -0.0046,-1.666431 0.0093,-3.333201 -0.0072,-4.9994154 C 8.0179315,8.1532032 7.5649325,7.3008001 6.7836775,6.9224148 5.6137355,6.3860321 4.0391457,6.5921667 3.1450338,7.5476156 3.0185979,7.7704003 3.0475412,7.4689223 3.0406161,7.2388985 L 3.0281919,3.038858 Z"
     style="color:#000000;font-style:normal;font-variant:normal;font-weight:bold;font-stretch:normal;font-size:29.9135px;line-height:125%;font-family:'Droid Sans';-inkscape-font-specification:'Droid Sans Bold';letter-spacing:0px;word-spacing:0px;display:inline;overflow:visible;visibility:visible;opacity:1;vector-effect:none;fill:#1a1a1a;fill-opacity:1;fill-rule:nonzero;stroke:none;stroke-width:0.1;stroke-linecap:butt;stroke-linejoin:miter;stroke-miterlimit:4;stroke-dasharray:none;stroke-dashoffset:0;stroke-opacity:1;marker:none;enable-background:accumulate"
     id="path957" />
</svg>
