<?xml version="1.0" encoding="UTF-8" standalone="no"?>
<svg
   xmlns:dc="http://purl.org/dc/elements/1.1/"
   xmlns:cc="http://creativecommons.org/ns#"
   xmlns:rdf="http://www.w3.org/1999/02/22-rdf-syntax-ns#"
   xmlns:svg="http://www.w3.org/2000/svg"
   xmlns="http://www.w3.org/2000/svg"
   xmlns:xlink="http://www.w3.org/1999/xlink"
   xmlns:sodipodi="http://sodipodi.sourceforge.net/DTD/sodipodi-0.dtd"
   xmlns:inkscape="http://www.inkscape.org/namespaces/inkscape"
   inkscape:version="1.0 (4035a4fb49, 2020-05-01)"
   sodipodi:docname="ct_file.svg"
   id="svg3963"
   height="16"
   width="16"
   version="1.1">
  <sodipodi:namedview
     inkscape:current-layer="svg3963"
     inkscape:window-maximized="0"
     inkscape:window-y="30"
     inkscape:window-x="0"
     inkscape:cy="8"
     inkscape:cx="8"
     inkscape:zoom="15.452055"
     showgrid="false"
     id="namedview40"
     inkscape:window-height="480"
     inkscape:window-width="958"
     inkscape:pageshadow="2"
     inkscape:pageopacity="0"
     guidetolerance="10"
     gridtolerance="10"
     objecttolerance="10"
     borderopacity="1"
     bordercolor="#666666"
     pagecolor="#ffffff" />
  <defs
     id="defs3965">
    <linearGradient
       gradientTransform="matrix(0.57418708,0,0,0.57270135,-100.42477,-7.1792409)"
       gradientUnits="userSpaceOnUse"
       xlink:href="#linearGradient3985-6-635-120-628-965"
       id="linearGradient3138"
       y2="24.519934"
       x2="182"
       y1="33"
       x1="182" />
    <linearGradient
       id="linearGradient3985-6-635-120-628-965">
      <stop
         offset="0"
         style="stop-color:#ffffff;stop-opacity:1"
         id="stop7116" />
      <stop
         offset="1"
         style="stop-color:#ffffff;stop-opacity:0"
         id="stop7118" />
    </linearGradient>
    <linearGradient
       gradientTransform="matrix(0.44035822,0,0,0.44035823,-76.20947,-3.1464798)"
       gradientUnits="userSpaceOnUse"
       xlink:href="#linearGradient3985-746-156-539-972"
       id="linearGradient3168"
       y2="36.026299"
       x2="188"
       y1="17"
       x1="188" />
    <linearGradient
       id="linearGradient3985-746-156-539-972">
      <stop
         offset="0"
         style="stop-color:#ffffff;stop-opacity:1"
         id="stop7110" />
      <stop
         offset="1"
         style="stop-color:#ffffff;stop-opacity:0"
         id="stop7112" />
    </linearGradient>
    <linearGradient
       gradientTransform="matrix(0.31428714,0,0,0.3259265,0.457108,-0.32223804)"
       gradientUnits="userSpaceOnUse"
       xlink:href="#linearGradient3600"
       id="linearGradient3143"
       y2="47.013336"
       x2="25.132275"
       y1="0.98520643"
       x1="25.132275" />
    <linearGradient
       id="linearGradient3600">
      <stop
         offset="0"
         style="stop-color:#f4f4f4;stop-opacity:1"
         id="stop3602" />
      <stop
         offset="1"
         style="stop-color:#dbdbdb;stop-opacity:1"
         id="stop3604" />
    </linearGradient>
    <linearGradient
       gradientTransform="matrix(0.25378586,0,0,0.30501865,19.128979,-0.68547704)"
       gradientUnits="userSpaceOnUse"
       xlink:href="#linearGradient3104"
       id="linearGradient3145"
       y2="2.9062471"
       x2="-51.786404"
       y1="50.786446"
       x1="-51.786404" />
    <linearGradient
       id="linearGradient3104">
      <stop
         offset="0"
         style="stop-color:#a0a0a0;stop-opacity:1"
         id="stop3106" />
      <stop
         offset="1"
         style="stop-color:#bebebe;stop-opacity:1"
         id="stop3108" />
    </linearGradient>
    <linearGradient
       gradientTransform="matrix(0.24324324,0,0,0.35135133,2.1621636,-0.43242804)"
       gradientUnits="userSpaceOnUse"
       xlink:href="#linearGradient3977"
       id="linearGradient3988"
       y2="43"
       x2="23.99999"
       y1="5.5641499"
       x1="23.99999" />
    <linearGradient
       id="linearGradient3977">
      <stop
         offset="0"
         style="stop-color:#ffffff;stop-opacity:1"
         id="stop3979" />
      <stop
         offset="0.03626217"
         style="stop-color:#ffffff;stop-opacity:0.23529412"
         id="stop3981" />
      <stop
         offset="0.95056331"
         style="stop-color:#ffffff;stop-opacity:0.15686275"
         id="stop3983" />
      <stop
         offset="1"
         style="stop-color:#ffffff;stop-opacity:0.39215687"
         id="stop3985" />
    </linearGradient>
    <linearGradient
       id="linearGradient3104-5">
      <stop
         offset="0"
         style="stop-color:#aaaaaa;stop-opacity:1"
         id="stop3106-2" />
      <stop
         offset="1"
         style="stop-color:#c8c8c8;stop-opacity:1"
         id="stop3108-5" />
    </linearGradient>
    <linearGradient
       gradientTransform="matrix(0.32160807,0,0,0.3333374,-0.1751469,-0.34907707)"
       gradientUnits="userSpaceOnUse"
       xlink:href="#linearGradient3104-5"
       id="linearGradient3961"
       y2="3.3638515"
       x2="22.004084"
       y1="47.813133"
       x1="22.004084" />
  </defs>
  <metadata
     id="metadata3968">
    <rdf:RDF>
      <cc:Work
         rdf:about="">
        <dc:format>image/svg+xml</dc:format>
        <dc:type
           rdf:resource="http://purl.org/dc/dcmitype/StillImage" />
        <dc:title></dc:title>
      </cc:Work>
    </rdf:RDF>
  </metadata>
  <g
     id="layer1">
    <g
       id="layer1-0">
      <path
         style="fill:url(#linearGradient3143);fill-opacity:1;stroke:url(#linearGradient3145);stroke-width:0.99992192;stroke-linecap:butt;stroke-linejoin:round;stroke-miterlimit:4;stroke-opacity:1;stroke-dasharray:none;stroke-dashoffset:0;display:inline"
         id="path4160"
         d="m 2.4999621,0.49997396 c 2.5206756,0 11.0000629,9.54e-4 11.0000629,9.54e-4 l 1.3e-5,14.99909804 c 0,0 -7.3333841,0 -11.0000759,0 0,-5.000017 0,-10.000035 0,-15.00005204 z" />
      <path
         style="fill:none;stroke:url(#linearGradient3988);stroke-width:1;stroke-linecap:round;stroke-linejoin:miter;stroke-miterlimit:4;stroke-opacity:1;stroke-dasharray:none;stroke-dashoffset:0"
         id="rect6741-1"
         d="m 12.5,14.5 -9.0000001,0 0,-13 L 12.5,1.5 z" />
      <path
         style="fill:none;stroke:url(#linearGradient3961);stroke-width:1px;stroke-linecap:butt;stroke-linejoin:miter;stroke-opacity:1"
         id="path3475"
         d="m 4.0000001,3.499995 0.7537691,0 z m 0.8643219,0 0.703517,0 z m 0.8140698,0 0.6231156,0 z m 0.7236186,0 0.2713566,0 z m 0.3819095,0 0.603015,0 z m 0.7236186,0 1.5879395,0 z m 1.6884415,0 1.216081,0 z m 1.316584,0 0.371858,0 z m -6.5125639,0.994817 0.9949753,0 z m 1.0954773,0 1.6281406,0 z m 1.7286437,0 0.7939702,0 z m 0.8944722,0 0.7437182,0 z m 0.8442213,0 0.6331654,0 z m 0.7336684,0 0.994975,0.010376 z m 1.085427,0.010376 1.61809,0 z M 4.0000001,5.5 l 0.5125628,0 z m 0.6733666,0 1.8994984,0 z m -0.6733666,1.9947954 0.9949753,0 z m 1.0954773,0 1.6281406,0 z m 1.7286437,0 0.7939702,0 z m 0.8944722,0 0.7437182,0 z m 0.8442213,0 0.6331654,0 z m 0.7336684,0 0.994975,0.010376 z m 1.085427,0.010376 1.61809,0 z M 4.0000001,8.5 l 0.7537691,0 z m 0.8643219,0 0.6934672,0 z m 0.8140698,0 0.6231156,0 z m 0.7236186,0 0.2713566,0 z m 0.3819095,0 0.603015,0 z m 0.7236186,0 1.5778887,0 z m 1.6884415,0 1.206031,0 z m 1.306533,0 0.381909,0 z m 0.482412,0 0.904523,0 z m -6.9849249,1 1.1758797,0 z m 1.3065331,0 0.5628138,0 z m 0.6633158,0 0.2814074,0 z m 0.3919602,0 0.5125629,0 z m 0.6231157,0 0.5226136,0 z m 0.6231156,0 0.8341715,0 z m 0.9447243,0 1.0854264,0 z m 1.1859294,0 0.7236178,0 z m 0.8241208,0 0.180904,0 z m -6.5628149,1.994804 0.9949753,0 z m 1.0954773,0 1.6281406,0 z m 1.7286437,0 0.7939702,0 z m 0.8944722,0 0.7437182,0 z m 0.8442213,0 0.6331654,0 z m 0.7336684,0 0.994975,0.01038 z m 1.085427,0.01038 1.61809,0 z M 4.0000001,12.5 l 1.2462313,0 z m 1.3567841,0 0.3919602,0 z m 0.4924622,0 0.8944722,0 z m 0.9949753,0 1.3165828,0 z m 1.4271356,0 0.8944723,0 z m 0.9849245,0 0.1909552,0 z m 0.2914572,0 1.135678,0 z m 1.256282,0 0.592964,0 z m -6.8040209,1 1.2462313,0 z m 1.3567841,0 0.5628138,0 z m 0.6633168,0 0.8844215,0 z m 0.9849245,0 0.954774,0 z m 1.0653268,0 0.3819094,0 z m 0.4824125,0 0.2110548,0 z m 0.3216076,0 0.5929652,0 z" />
    </g>
  </g>
</svg>
