<?xml version="1.0" encoding="UTF-8" standalone="no"?>
<svg
   xmlns:dc="http://purl.org/dc/elements/1.1/"
   xmlns:cc="http://creativecommons.org/ns#"
   xmlns:rdf="http://www.w3.org/1999/02/22-rdf-syntax-ns#"
   xmlns:svg="http://www.w3.org/2000/svg"
   xmlns="http://www.w3.org/2000/svg"
   xmlns:sodipodi="http://sodipodi.sourceforge.net/DTD/sodipodi-0.dtd"
   xmlns:inkscape="http://www.inkscape.org/namespaces/inkscape"
   id="svg3828"
   height="16"
   width="16"
   version="1.1"
   sodipodi:docname="ct_fmt-txt-superscript.svg"
   inkscape:version="0.92.5 (2060ec1f9f, 2020-04-08)">
  <sodipodi:namedview
     inkscape:document-rotation="0"
     pagecolor="#ffffff"
     bordercolor="#666666"
     borderopacity="1"
     objecttolerance="10"
     gridtolerance="10"
     guidetolerance="10"
     inkscape:pageopacity="0"
     inkscape:pageshadow="2"
     inkscape:window-width="1366"
     inkscape:window-height="717"
     id="namedview41"
     showgrid="true"
     inkscape:zoom="24.957669"
     inkscape:cx="-3.6382618"
     inkscape:cy="7.5835812"
     inkscape:window-x="0"
     inkscape:window-y="0"
     inkscape:window-maximized="1"
     inkscape:current-layer="svg3828"
     borderlayer="true"
     inkscape:showpageshadow="false">
    <inkscape:grid
       type="xygrid"
       id="grid864" />
  </sodipodi:namedview>
  <defs
     id="defs3830" />
  <metadata
     id="metadata3833">
    <rdf:RDF>
      <cc:Work
         rdf:about="">
        <dc:format>image/svg+xml</dc:format>
        <dc:type
           rdf:resource="http://purl.org/dc/dcmitype/StillImage" />
        <dc:title />
      </cc:Work>
    </rdf:RDF>
  </metadata>
  <path
     style="color:#000000;font-style:normal;font-variant:normal;font-weight:normal;font-stretch:normal;font-size:40px;line-height:1.25;font-family:'Swis721 BlkCn BT';-inkscape-font-specification:'Swis721 BlkCn BT';font-variant-ligatures:normal;font-variant-position:normal;font-variant-caps:normal;font-variant-numeric:normal;font-variant-alternates:normal;font-feature-settings:normal;text-indent:0;text-align:start;text-decoration:none;text-decoration-line:none;text-decoration-style:solid;text-decoration-color:#000000;letter-spacing:0px;word-spacing:0px;text-transform:none;writing-mode:lr-tb;direction:ltr;text-orientation:mixed;dominant-baseline:auto;baseline-shift:baseline;text-anchor:start;white-space:pre;shape-inside:url(#rect868);shape-padding:0;clip-rule:nonzero;display:inline;overflow:visible;visibility:visible;opacity:0.7;isolation:auto;mix-blend-mode:normal;color-interpolation:sRGB;color-interpolation-filters:linearRGB;solid-color:#000000;solid-opacity:1;vector-effect:none;fill:#ffffff;fill-opacity:1;fill-rule:nonzero;stroke:none;stroke-width:2;stroke-linecap:butt;stroke-linejoin:miter;stroke-miterlimit:4;stroke-dasharray:none;stroke-dashoffset:0;stroke-opacity:1;color-rendering:auto;image-rendering:auto;shape-rendering:auto;text-rendering:auto;enable-background:accumulate"
     d="M 12.595703 1.0976562 C 11.691268 1.0976562 10.843262 1.3255583 10.189453 1.8574219 L 10.1875 1.859375 L 10.185547 1.859375 C 9.5965384 2.3430769 9.2534976 3.0807341 9.1933594 3.84375 L 6.1191406 3.84375 L 6.0957031 3.9570312 C 5.852265 3.9110544 5.6351312 3.7597656 5.375 3.7597656 C 4.2155963 3.7597656 3.121846 4.1956096 2.2929688 4.9960938 C 1.5143121 5.7480785 0.92632315 6.6964966 0.52734375 7.7929688 L 0.52539062 7.7929688 C 0.34531252 8.2894026 0.21100088 8.792242 0.12304688 9.3007812 C 0.035756875 9.7998679 -0.0078125 10.304788 -0.0078125 10.810547 C -0.0078125 11.349657 0.069806525 11.864605 0.24414062 12.341797 C 0.70409103 13.598633 1.8992204 14.453125 3.2285156 14.453125 C 4.0844937 14.453125 4.8395733 14.059209 5.5214844 13.517578 C 5.5805164 13.588938 5.5712084 13.700799 5.6386719 13.765625 L 5.6425781 13.769531 L 5.6445312 13.773438 C 6.1214783 14.222572 6.7869294 14.453125 7.4375 14.453125 C 8.1277191 14.453125 8.8297323 14.157361 9.296875 13.646484 L 9.3027344 13.638672 L 9.3085938 13.632812 C 9.688253 13.202855 9.8497112 12.760354 10.103516 12.082031 L 10.970703 9.7636719 C 11.452132 9.9516064 11.981964 10.048828 12.541016 10.048828 C 13.504115 10.048828 14.385894 9.8284072 15.058594 9.2695312 C 15.727649 8.7136863 16.078125 7.8405141 16.078125 6.9550781 C 16.078125 6.3206691 15.857117 5.7156706 15.486328 5.2128906 L 16.005859 5.2148438 L 16.005859 4.0917969 C 16.005811 3.2337931 15.667347 2.3820664 15.013672 1.8457031 C 14.364623 1.3061911 13.516229 1.0976563 12.595703 1.0976562 z M 11.513672 2.6757812 C 11.511472 2.6776512 11.511966 2.6817137 11.509766 2.6835938 C 11.506866 2.6860638 11.5029 2.685 11.5 2.6875 L 11.513672 2.6757812 z M 13.923828 2.9140625 L 13.935547 2.9296875 C 13.933747 2.9270775 13.929534 2.9283813 13.927734 2.9257812 C 13.924834 2.9217413 13.926749 2.9181115 13.923828 2.9140625 z M 7.0273438 4.2070312 L 7.0410156 4.2167969 C 7.0381156 4.2145669 7.03416 4.217049 7.03125 4.2148438 C 7.02898 4.2131337 7.0296237 4.2087213 7.0273438 4.2070312 z M 11.224609 4.3535156 C 11.252869 4.4141556 11.274334 4.4699816 11.308594 4.5253906 C 11.290154 4.4940906 11.257517 4.4708069 11.242188 4.4355469 C 11.230337 4.4082869 11.233589 4.3801056 11.224609 4.3535156 z M 7.7558594 5.84375 L 8.1582031 5.84375 L 7.2011719 10.376953 C 7.1300469 10.653286 7.09375 10.93851 7.09375 11.224609 C 7.09375 11.603479 7.2701243 12.073716 7.609375 12.382812 C 7.558688 12.400132 7.535423 12.453125 7.4375 12.453125 C 7.1934052 12.453125 7.1190304 12.411375 7.0214844 12.320312 C 6.9248024 12.226603 6.8358316 12.081803 6.7910156 11.742188 L 6.65625 10.716797 C 6.676913 10.644877 6.741198 10.596843 6.7578125 10.523438 L 6.7597656 10.517578 L 7.5976562 6.5683594 L 7.5976562 6.4628906 C 7.5976562 6.2140292 7.4936345 6.082635 7.4199219 5.9160156 L 7.734375 5.9472656 L 7.7558594 5.84375 z M 13.884766 6.1386719 L 13.914062 6.1699219 C 13.905962 6.1605219 13.898665 6.1633269 13.890625 6.1542969 C 13.886725 6.1499969 13.888766 6.1428819 13.884766 6.1386719 z M 3.703125 6.4277344 C 3.1286048 7.3439512 2.7166986 8.410532 2.5605469 9.7109375 C 2.5276289 9.9871649 2.5117187 10.272482 2.5117188 10.568359 C 2.5117188 11.20698 2.6304467 11.850515 3.1367188 12.337891 C 3.1901398 12.389951 3.2796989 12.377725 3.3417969 12.421875 C 3.3013799 12.424075 3.2701839 12.453125 3.2285156 12.453125 C 2.5398209 12.453125 2.3727245 12.336553 2.1230469 11.654297 C 2.0423529 11.433417 1.9921875 11.157879 1.9921875 10.810547 C 1.9921875 10.419433 2.0260235 10.03126 2.09375 9.6445312 L 2.09375 9.6425781 C 2.1609211 9.2542033 2.265117 8.865955 2.40625 8.4765625 L 2.40625 8.4746094 C 2.7168345 7.6217528 3.1431681 6.9574609 3.6835938 6.4355469 C 3.6892637 6.4300769 3.697457 6.4331344 3.703125 6.4277344 z M 5.2128906 8.1738281 L 4.8066406 10.082031 C 4.7351626 10.397834 4.6293086 10.565745 4.5136719 10.681641 C 4.5022919 10.622871 4.5117188 10.693591 4.5117188 10.568359 C 4.5117188 10.344157 4.52447 10.137893 4.546875 9.9492188 L 4.546875 9.9472656 C 4.6469086 9.115821 4.9649065 8.7151556 5.2128906 8.1738281 z M 9.6015625 8.6855469 C 9.7372895 8.8934928 9.8923002 9.0881321 10.082031 9.2519531 L 10.082031 9.2539062 L 10.083984 9.2558594 C 10.331123 9.4672327 10.616127 9.6170501 10.916016 9.7402344 L 9.1972656 10.599609 L 9.6015625 8.6855469 z "
     id="path921" />
  <path
     style="font-style:normal;font-weight:normal;font-size:40px;line-height:1.25;font-family:sans-serif;letter-spacing:0px;word-spacing:0px;fill:#1a1a1a;fill-opacity:1;stroke:none;stroke-width:0.1"
     d="m 5.3746798,4.7600544 c -0.931381,0 -1.726934,0.318564 -2.386663,0.955694 -0.659727,0.637129 -1.1669971,1.443237 -1.5218071,2.418323 -0.160775,0.44322 -0.279969,0.88921 -0.3575841,1.337971 -0.07762,0.443222 -0.116425,0.8892116 -0.116425,1.3379726 0,0.443221 0.06375,0.839349 0.1912641,1.188385 0.354814,0.969546 1.0367161,1.454318 2.0457111,1.454318 1.008995,0 1.865534,-0.526324 2.569612,-1.578974 0.06653,0.504164 0.243933,0.894751 0.532218,1.171765 0.288284,0.271473 0.656954,0.407209 1.1060127,0.407209 0.454602,0 0.828818,-0.160668 1.122646,-0.482004 0.166317,-0.188367 0.368671,-0.601117 0.607061,-1.238246 -0.09979,0.04985 -0.22453,0.0748 -0.374217,0.0748 -0.465689,0 -0.698534,-0.19391 -0.698534,-0.581729 0,-0.20499 0.02494,-0.404438 0.07485,-0.598348 L 9.3912565,4.8431584 H 6.9380668 l -0.182949,0.905832 v -0.124656 c 0,-0.249312 -0.108113,-0.454301 -0.32432,-0.614969 -0.216213,-0.166207 -0.568252,-0.249311 -1.056118,-0.249311 z m 0.457374,1.055418 c 0.316004,0 0.521128,0.0831 0.615376,0.249313 0.09979,0.160666 0.149687,0.293633 0.149687,0.398898 l -0.814958,3.8393986 c -0.105334,0.465381 -0.296601,0.833808 -0.573797,1.105282 -0.277196,0.265932 -0.584885,0.398899 -0.923064,0.398899 -0.182951,0 -0.335408,-0.06095 -0.457374,-0.18283 -0.21067,-0.19945 -0.316005,-0.551255 -0.316005,-1.055419 0,-0.260392 0.01386,-0.506934 0.04159,-0.7396246 0.182949,-1.523569 0.634779,-2.692564 1.35549,-3.506982 0.299372,-0.337956 0.60706,-0.506935 0.923064,-0.506935 z"
     id="path868-6"
     inkscape:connector-curvature="0" />
  <g
     transform="matrix(0.31732086,0,0,0.27014444,23.572805,7.1599828)"
     style="font-style:normal;font-variant:normal;font-weight:normal;font-stretch:normal;font-size:40px;line-height:1.25;font-family:'Swis721 BlkCn BT';-inkscape-font-specification:'Swis721 BlkCn BT';letter-spacing:0px;word-spacing:0px;white-space:pre;shape-inside:url(#rect868);fill:#1a1a1a;fill-opacity:1;stroke:none;stroke-width:0.34154874"
     id="g872"
     aria-label="s">
    <path
       id="path870"
       style="font-style:normal;font-variant:normal;font-weight:normal;font-stretch:normal;font-family:'Swis721 BlkCn BT';-inkscape-font-specification:'Swis721 BlkCn BT';fill:#1a1a1a;fill-opacity:1;stroke:none;stroke-width:0.34154874"
       d="m -42.474609,-1.412429 5.557097,0.021111 q 0.09615,1.89994397 0.673005,2.7865845 0.576861,0.8655301 1.730584,0.8655301 0.922978,0 1.519068,-0.5910937 0.59609,-0.6122043 0.59609,-1.56217626 0,-0.823309 -0.423032,-1.35107134 -0.403802,-0.5488726 -1.826727,-1.2877397 -0.30766,-0.1688839 -0.961435,-0.5066518 -3.365025,-1.7099496 -4.691806,-3.2087943 -0.942207,-1.0133035 -1.442153,-2.3643749 -0.499946,-1.3510713 -0.499946,-2.8288056 0,-3.335458 2.057471,-5.319844 2.076701,-1.984386 5.595555,-1.984386 3.653456,0 5.614784,1.921055 1.980557,1.899945 1.980557,5.467617 v 0.44332 l -5.441725,-0.02111 q -0.03845,-1.836613 -0.519176,-2.617701 -0.461489,-0.781088 -1.519067,-0.781088 -0.942208,0 -1.49984,0.569982 -0.557633,0.548874 -0.557633,1.456625 0,1.604397 2.788163,2.9554694 0.384574,0.1899938 0.596091,0.2955461 3.807284,1.8788335 5.095608,3.6521146 1.288324,1.7732811 1.288324,4.64430764 0,3.69433556 -2.076701,5.72094256 -2.076701,2.0266068 -5.922443,2.0266068 -3.653456,0 -5.691699,-2.0477173 -2.019014,-2.0477175 -2.019014,-5.74205303 z"
       inkscape:connector-curvature="0" />
  </g>
</svg>
