<?xml version="1.0" encoding="UTF-8" standalone="no"?>
<svg
   xmlns:osb="http://www.openswatchbook.org/uri/2009/osb"
   xmlns:dc="http://purl.org/dc/elements/1.1/"
   xmlns:cc="http://creativecommons.org/ns#"
   xmlns:rdf="http://www.w3.org/1999/02/22-rdf-syntax-ns#"
   xmlns:svg="http://www.w3.org/2000/svg"
   xmlns="http://www.w3.org/2000/svg"
   xmlns:xlink="http://www.w3.org/1999/xlink"
   height="48"
   width="48"
   version="1.1"
   id="svg6">
  <metadata
     id="metadata12">
    <rdf:RDF>
      <cc:Work
         rdf:about="">
        <dc:format>image/svg+xml</dc:format>
        <dc:type
           rdf:resource="http://purl.org/dc/dcmitype/StillImage" />
        <dc:title></dc:title>
      </cc:Work>
    </rdf:RDF>
  </metadata>
  <defs
     id="defs10">
    <linearGradient
       id="linearGradient1020">
      <stop
         id="stop1012"
         style="stop-color:#ffffff;stop-opacity:1"
         offset="0" />
      <stop
         id="stop1014"
         style="stop-color:#ffffff;stop-opacity:0.23529412"
         offset="0" />
      <stop
         id="stop1016"
         style="stop-color:#ffffff;stop-opacity:0.15686275"
         offset="0.99999994" />
      <stop
         id="stop1018"
         style="stop-color:#ffffff;stop-opacity:0.39215687"
         offset="1" />
    </linearGradient>
    <linearGradient
       id="linearGradient78">
      <stop
         style="stop-color:#9bdb4d;stop-opacity:1"
         offset="0"
         id="stop74" />
      <stop
         style="stop-color:#68b723;stop-opacity:1"
         offset="1"
         id="stop76" />
    </linearGradient>
    <linearGradient
       osb:paint="solid"
       id="linearGradient4526">
      <stop
         id="stop4528"
         offset="0"
         style="stop-color:#ffffff;stop-opacity:1;" />
    </linearGradient>
    <linearGradient
       xlink:href="#linearGradient897"
       id="linearGradient1009"
       gradientUnits="userSpaceOnUse"
       gradientTransform="matrix(0,2.0176505,-2.3333418,0,90.900857,25.608768)"
       x1="-8.2317371"
       y1="28.671692"
       x2="7.6282945"
       y2="28.671692" />
    <linearGradient
       id="linearGradient897">
      <stop
         offset="0"
         style="stop-color:#ffffff;stop-opacity:1"
         id="stop889" />
      <stop
         offset="0.5"
         style="stop-color:#ffffff;stop-opacity:0.23529412"
         id="stop891" />
      <stop
         offset="0.99999994"
         style="stop-color:#ffffff;stop-opacity:0.15686275"
         id="stop893" />
      <stop
         offset="1"
         style="stop-color:#ffffff;stop-opacity:0.39215687"
         id="stop895" />
    </linearGradient>
    <linearGradient
       y2="9.2499981"
       x2="-0.55953801"
       y1="9.2499981"
       x1="25.368399"
       gradientTransform="matrix(0,-1.4285723,-2.0000002,0,45.499998,42.571964)"
       gradientUnits="userSpaceOnUse"
       id="linearGradient942"
       xlink:href="#linearGradient78" />
    <radialGradient
       xlink:href="#linearGradient5105"
       id="radialGradient2604"
       gradientUnits="userSpaceOnUse"
       gradientTransform="matrix(1.8604651,0,0,0.31003395,3.0697677,35.599689)"
       cx="11.25"
       cy="19.03125"
       fx="11.25"
       fy="19.03125"
       r="8.0625" />
    <linearGradient
       id="linearGradient5105">
      <stop
         id="stop5107"
         offset="0"
         style="stop-color:black;stop-opacity:1;" />
      <stop
         id="stop5109"
         offset="1"
         style="stop-color:black;stop-opacity:0;" />
    </linearGradient>
  </defs>
  <path
     d="m 39,41.500016 a 15,2.4996465 0 1 1 -29.9999998,0 15,2.4996465 0 1 1 29.9999998,0 z"
     id="path4346"
     style="display:inline;overflow:visible;visibility:visible;opacity:0.162921;fill:url(#radialGradient2604);fill-opacity:1;fill-rule:nonzero;stroke:none;stroke-width:2.44554;stroke-linecap:butt;stroke-linejoin:miter;stroke-miterlimit:4;stroke-dasharray:none;stroke-dashoffset:0;stroke-opacity:1;marker:none;marker-start:none;marker-mid:none;marker-end:none" />
  <path
     d="m 38.972655,23.431639 h -0.0078 c 0,-0.32477 -0.128819,-0.594681 -0.335937,-0.789063 -0.0148,-0.0134 -0.02903,-0.02881 -0.04297,-0.04297 L 24.687508,6.816404 c -0.18196,-0.1818 -0.428213,-0.289062 -0.699219,-0.289062 -0.269072,0 -0.501734,0.10726 -0.695312,0.289062 L 9.39453,22.599607 c -0.014,0.0142 -0.02825,0.02967 -0.04297,0.04297 -0.207127,0.19438 -0.335937,0.464291 -0.335937,0.789063 0,0.603434 0.430985,1.054687 1.011719,1.054687 h 8.474609 c 0.542016,-3.78e-4 0.996094,0.475494 0.996094,1.058594 v 15.955077 c 0,0.571698 0.428302,1 1,1 h 7.005859 c 0.571698,0 1,-0.428302 1,-1 V 25.447264 c 0.05002,-0.535274 0.482142,-0.961294 0.992188,-0.960938 h 8.476562 c 0.580732,0 1,-0.451253 1.000001,-1.054687 z"
     style="font-variation-settings:normal;vector-effect:none;fill:url(#linearGradient942);fill-opacity:1;stroke:#206b00;stroke-width:0.999995;stroke-linecap:round;stroke-linejoin:round;stroke-miterlimit:4;stroke-dasharray:none;stroke-dashoffset:0;stroke-opacity:0.5;stop-color:#000000"
     id="rect917" />
  <path
     d="M 24 7.5 L 10 23.5 L 18.015625 23.5 C 19.999745 23.5 20.499464 24.345524 20.5 26 L 20.5 41.5 L 27.5 41.5 L 27.5 26 C 27.500536 24.345524 28 23.5 29.996094 23.5 L 38 23.5 L 24 7.5 z "
     style="font-variation-settings:normal;opacity:0.6;vector-effect:none;fill:none;fill-opacity:1;stroke:url(#linearGradient1009);stroke-width:1;stroke-linecap:butt;stroke-linejoin:round;stroke-miterlimit:4;stroke-dasharray:none;stroke-dashoffset:0;stroke-opacity:1;marker:none;marker-start:none;marker-mid:none;marker-end:none;stop-color:#000000"
     id="rect1007" />
</svg>
