<?xml version="1.0" encoding="utf-8"?><!-- Uploaded to: SVG Repo, www.svgrepo.com, Generator: SVG Repo Mixer Tools -->
<svg width="800px" height="800px" viewBox="0 0 128 128" xmlns="http://www.w3.org/2000/svg" xmlns:xlink="http://www.w3.org/1999/xlink" aria-hidden="true" role="img" class="iconify iconify--noto" preserveAspectRatio="xMidYMid meet"><path d="M78.7 52.85L60.22 36.83l6.86-5.1s19.91-11.15 38.9 2.29c18.66 13.2 16.9 52.45 2.46 70.4s-24.47 19.01-29.92 18.83c-5.46-.18-6.34-2.82-11.62-2.29c-5.28.53-7.04 3.52-16.72 2.82c-8.78-.64-16.02-4.05-19.54-7.92c-3.33-3.68 48.06-63.01 48.06-63.01z" fill="#6ea517"></path><path d="M100.21 34.4s-7.93 3.42-15.85 4.04c-7.93.62-22.07-.47-22.07-.47s-1.55-8.24-2.02-8.24s-21.28-7.24-36.52 4.2C7.69 45.98 6.11 69.38 8.67 80.55c5.89 25.67 24.78 37.76 24.78 37.76s16.87 1.87 38.01-7.45s39.44-25.64 39.01-47.55C110 39.99 100.21 34.4 100.21 34.4z" fill="#87c244"></path><path d="M37.7 38.9c-2.71-3.13-10.15-2.43-15.93 5.84c-6.02 8.6-6.29 24.36-1.33 24.79c4.07.35 5.11-6.54 7.61-11.42c4.7-9.16 15.85-12.04 9.65-19.21z" fill="#e5dd9f"></path><path d="M44.25 35.36c-1.19 2.48 2.73 8.58 17.37 9.03c15.4.47 20.45-8.11 18.69-10.11c-1.76-2-7.52 1.29-18.45 1.18s-15.58-4.31-17.61-.1z" fill="#59702c"></path><path d="M51.86 18.64c-1.18-.24-5.99-1.06-6.47-2.94c-.22-.89.94-3.76 4-5.88s6.11-2.7 6.82-1.06c.71 1.65.47 2.7.47 3.06c0 .35 2.42 3.18 4.11 6.82c2.35 5.05 3.64 9.99 3.41 15.05c-.17 3.66-.24 8.82-2.35 8.46c-2.2-.37-1.74-5.53-2.82-9.17c-2.58-8.69-6.46-14.19-7.17-14.34z" fill="#513532"></path><path d="M82.59 24.36c.24-.35 24.57-15.63 24.68-16.57S94.7 4.61 86.71 7.55s-16.27 7.67-20.22 15.87c-3.17 6.58-3.17 11.05-2.35 12.11c.39.5 18.45-11.17 18.45-11.17z" fill="#2f7c31"></path><path d="M79.89 23.42c10.74-6.86 27.39-15.63 27.39-15.63s.5 1.31-2.7 6.82c-4.23 7.29-14.11 16.69-24.1 19.63c-10.84 3.19-16.34 1.29-16.34 1.29s7.29-6.7 15.75-12.11z" fill="#4c8c19"></path></svg>