<?xml version="1.0" encoding="UTF-8" standalone="no"?>
<svg
   xmlns:dc="http://purl.org/dc/elements/1.1/"
   xmlns:cc="http://creativecommons.org/ns#"
   xmlns:rdf="http://www.w3.org/1999/02/22-rdf-syntax-ns#"
   xmlns:svg="http://www.w3.org/2000/svg"
   xmlns="http://www.w3.org/2000/svg"
   xmlns:xlink="http://www.w3.org/1999/xlink"
   xmlns:sodipodi="http://sodipodi.sourceforge.net/DTD/sodipodi-0.dtd"
   xmlns:inkscape="http://www.inkscape.org/namespaces/inkscape"
   id="svg2"
   sodipodi:docname="ct_ghostlock.svg"
   inkscape:export-filename="C:\Users\jrjohns3\Pictures\Ink\ghost.png"
   viewBox="0 0 15.999999 16"
   inkscape:export-xdpi="159.96346"
   version="1.1"
   inkscape:export-ydpi="159.96346"
   inkscape:version="1.0.2 (e86c870879, 2021-01-15)"
   width="15.999999"
   height="16">
  <defs
     id="defs4">
    <linearGradient
       id="linearGradient2992"
       inkscape:collect="always">
      <stop
         id="stop2994"
         style="stop-color:#ffffff"
         offset="0" />
      <stop
         id="stop2996"
         style="stop-color:#ffffff;stop-opacity:0"
         offset="1" />
    </linearGradient>
    <radialGradient
       id="radialGradient2998"
       xlink:href="#linearGradient2992"
       gradientUnits="userSpaceOnUse"
       cy="677.20001"
       cx="615.09998"
       gradientTransform="matrix(-0.59625,1.9768,-1.5231,-0.45942,1743.9,-538.14)"
       r="247.67"
       inkscape:collect="always" />
    <radialGradient
       inkscape:collect="always"
       xlink:href="#linearGradient2992"
       id="radialGradient27"
       gradientUnits="userSpaceOnUse"
       gradientTransform="matrix(-0.59625,1.9768,-1.5231,-0.45942,1743.9,-538.14)"
       cx="615.09998"
       cy="677.20001"
       r="247.67" />
    <linearGradient
       gradientTransform="matrix(0.2606375,0,0,0.3148868,1.7267638,-0.0481369)"
       gradientUnits="userSpaceOnUse"
       xlink:href="#linearGradient10591-0"
       id="linearGradient4097"
       y2="17.470011"
       x2="27.192274"
       y1="2.9136841"
       x1="10.650842" />
    <linearGradient
       id="linearGradient10591-0">
      <stop
         offset="0"
         style="stop-color:#cad0c6;stop-opacity:1"
         id="stop10593-1" />
      <stop
         offset="0.5"
         style="stop-color:#eaece9;stop-opacity:1"
         id="stop10599-3" />
      <stop
         offset="1"
         style="stop-color:#c5cbc0;stop-opacity:1"
         id="stop10595-3" />
    </linearGradient>
    <radialGradient
       gradientTransform="matrix(0,0.80952382,-1.1390521,0,20.94881,-6.3693335)"
       gradientUnits="userSpaceOnUse"
       xlink:href="#linearGradient5409"
       id="radialGradient3074"
       fy="11.597148"
       fx="16.777113"
       r="10.5"
       cy="11.368058"
       cx="16.823883" />
    <linearGradient
       id="linearGradient5409">
      <stop
         offset="0"
         style="stop-color:#f2e0c4;stop-opacity:1"
         id="stop5411" />
      <stop
         offset="0.76470584"
         style="stop-color:#e5af5b;stop-opacity:1"
         id="stop5559" />
      <stop
         offset="1"
         style="stop-color:#af6900;stop-opacity:1"
         id="stop5413" />
    </linearGradient>
    <linearGradient
       gradientTransform="matrix(0.47368427,0,0,0.42857142,0.4210521,1.2857141)"
       gradientUnits="userSpaceOnUse"
       xlink:href="#linearGradient5443"
       id="linearGradient3059"
       y2="27.924538"
       x2="21.771429"
       y1="14.871428"
       x1="21.771429" />
    <linearGradient
       id="linearGradient5443">
      <stop
         offset="0"
         style="stop-color:#ffffff;stop-opacity:1"
         id="stop5445" />
      <stop
         offset="0.03252051"
         style="stop-color:#ffffff;stop-opacity:0.23529412"
         id="stop5447" />
      <stop
         offset="0.98558509"
         style="stop-color:#ffffff;stop-opacity:0.15686275"
         id="stop5449" />
      <stop
         offset="1"
         style="stop-color:#ffffff;stop-opacity:0.39215687"
         id="stop5451" />
    </linearGradient>
    <linearGradient
       gradientTransform="translate(0,-1.0003052)"
       gradientUnits="userSpaceOnUse"
       xlink:href="#linearGradient3957"
       id="linearGradient3963"
       y2="16.000305"
       x2="10.314445"
       y1="7.0003052"
       x1="10.314445" />
    <linearGradient
       id="linearGradient3957">
      <stop
         offset="0"
         style="stop-color:#b19c7d;stop-opacity:1"
         id="stop3959" />
      <stop
         offset="1"
         style="stop-color:#a08358;stop-opacity:1"
         id="stop3961" />
    </linearGradient>
    <linearGradient
       gradientTransform="matrix(-0.93357745,0,0,1,23.379997,-22)"
       gradientUnits="userSpaceOnUse"
       xlink:href="#linearGradient2992"
       id="linearGradient3951"
       y2="27.5"
       x2="23.299999"
       y1="27.5"
       x1="8.6428576" />
    <linearGradient
       gradientTransform="matrix(-0.93357748,0,0,1,23.379997,-15)"
       gradientUnits="userSpaceOnUse"
       xlink:href="#linearGradient3865-4-8"
       id="linearGradient4158"
       y2="27.5"
       x2="23.299999"
       y1="27.5"
       x1="8.6428576" />
    <linearGradient
       id="linearGradient3865-4-8">
      <stop
         offset="0"
         style="stop-color:#000000;stop-opacity:1"
         id="stop3867-110-9" />
      <stop
         offset="1"
         style="stop-color:#000000;stop-opacity:0"
         id="stop3869-96-3" />
    </linearGradient>
    <linearGradient
       gradientTransform="matrix(0.66666664,0,0,0.46667556,5.8333347,-20.533589)"
       gradientUnits="userSpaceOnUse"
       xlink:href="#linearGradient2992"
       id="linearGradient3062"
       y2="14"
       x2="9"
       y1="29"
       x1="9" />
    <linearGradient
       gradientTransform="matrix(0.66666664,0,0,0.46667556,-1.1666667,-20.533589)"
       gradientUnits="userSpaceOnUse"
       xlink:href="#linearGradient2992"
       id="linearGradient3065"
       y2="14"
       x2="9"
       y1="29"
       x1="9" />
    <linearGradient
       gradientTransform="matrix(0.66666666,0,0,0.46666666,-12.166666,0.46666564)"
       gradientUnits="userSpaceOnUse"
       xlink:href="#linearGradient5475-8"
       id="linearGradient3976"
       y2="14"
       x2="24"
       y1="29"
       x1="24" />
    <linearGradient
       id="linearGradient5475-8">
      <stop
         offset="0"
         style="stop-color:#d88f22;stop-opacity:1"
         id="stop5477-0" />
      <stop
         offset="1"
         style="stop-color:#d88f22;stop-opacity:0"
         id="stop5479-4" />
    </linearGradient>
    <linearGradient
       gradientTransform="matrix(0.66666666,0,0,0.46666666,-3.1666666,0.46666564)"
       gradientUnits="userSpaceOnUse"
       xlink:href="#linearGradient5475-8"
       id="linearGradient4144"
       y2="14"
       x2="24"
       y1="29"
       x1="24" />
  </defs>
  <sodipodi:namedview
     id="base"
     bordercolor="#666666"
     inkscape:pageshadow="2"
     inkscape:window-y="0"
     fit-margin-left="0"
     pagecolor="#ffffff"
     inkscape:window-height="1016"
     inkscape:window-maximized="1"
     inkscape:zoom="22.4"
     inkscape:window-x="0"
     showgrid="false"
     borderopacity="1.0"
     inkscape:current-layer="layer1"
     inkscape:cx="19.578494"
     inkscape:cy="4.578442"
     fit-margin-top="0"
     fit-margin-right="0"
     fit-margin-bottom="0"
     inkscape:window-width="1920"
     inkscape:pageopacity="0.0"
     inkscape:document-units="px"
     inkscape:document-rotation="0" />
  <g
     id="layer1"
     inkscape:label="Layer 1"
     inkscape:groupmode="layer"
     transform="translate(-347.71,-543.9462)">
    <g
       id="g25"
       transform="matrix(0.02283432,0,0,0.01896654,345.24316,539.13335)">
      <path
         id="rect2987"
         sodipodi:nodetypes="zzcsazcz"
         style="opacity:0.73558;fill:#cccccc"
         inkscape:connector-curvature="0"
         d="m 140,455.22 c 71.905,-286.3 359.52,-250.34 431.43,0 71.905,250.34 0,377.14 0,377.14 0,0 -69.048,40 -107.86,0 -25.035,-25.803 -71.591,14.286 -107.86,14.286 -36.266,0 -23.333,-48.571 -107.86,-14.286 -84.524,34.286 -107.86,0 -107.86,0 0,0 -71.905,-90.841 0,-377.14 z" />
      <path
         id="path2990"
         d="m 140,455.22 c 71.905,-286.3 359.52,-250.34 431.43,0 71.905,250.34 0,377.14 0,377.14 0,0 -69.048,40 -107.86,0 -25.035,-25.803 -71.591,14.286 -107.86,14.286 -36.266,0 -23.333,-48.571 -107.86,-14.286 -84.524,34.286 -107.86,0 -107.86,0 0,0 -71.905,-90.841 0,-377.14 z"
         sodipodi:nodetypes="zzcsazcz"
         style="opacity:0.73558;fill:#4d4d4d"
         inkscape:connector-curvature="0" />
      <path
         id="path3072"
         style="opacity:0.73558;fill:url(#radialGradient27)"
         inkscape:connector-curvature="0"
         d="m 343.84,283.78 c -54.698,0.90856 -105.05,34.835 -133.57,80.404 -36.999,58.071 -49.328,126.93 -61.032,193.68 -13.197,78.022 -18.306,159.92 4.9151,236.61 3.3343,9.7205 9.2048,21.327 20.625,22.531 26.834,3.3924 51.945,-9.9424 76.75,-17.969 24.849,-8.6611 54.195,-14 78.5,-1.1875 10.258,4.8041 17.228,15.321 28.312,18.219 20.1,-1.624 37.599,-14.253 57.281,-18.406 21.802,-6.4493 48.417,-5.8102 65.594,10.75 8.2556,7.3149 18.757,13.585 30.219,11.5 12.96,-0.18888 25.63,-4.005 37.031,-10.094 28.17,-69.39 28.22,-146.63 19.88,-220.16 -8.02,-65.3 -22.25,-130.82 -51.57,-190.06 -26.31,-49.02 -68.94,-91.04 -122.78,-108.37 -16.131,-5.1774 -33.15,-7.8049 -50.156,-7.4375 z" />
      <path
         id="path3136"
         style="opacity:0.73558;fill:url(#radialGradient2998)"
         inkscape:connector-curvature="0"
         d="m 347.03,283.75 c -1.0628,-3.3e-4 -2.1246,0.008 -3.1875,0.0312 -54.698,0.90856 -105.04,34.837 -133.56,80.406 -36.999,58.071 -49.327,126.94 -61.031,193.69 -13.197,78.022 -18.315,159.9 4.9062,236.59 3.3343,9.7205 9.2048,21.327 20.625,22.531 11.522,1.4567 22.72,-0.18929 33.719,-3.1562 -6.1944,-4.3573 -9.9345,-12.351 -12.344,-19.375 -23.23,-76.69 -18.12,-158.57 -4.92,-236.59 11.704,-66.743 24.032,-135.62 61.031,-193.69 25.405,-40.589 68.124,-71.928 115.81,-78.938 -6.9711,-0.99057 -14.012,-1.4978 -21.062,-1.5 z m -9,506.47 c -7.1874,0.0619 -14.433,0.96095 -21.562,2.4062 4.651,1.2168 9.183,2.91 13.562,5.2188 10.258,4.8041 17.228,15.321 28.312,18.219 9.7957,-0.79147 18.98,-4.2046 28.094,-7.9688 -4.6051,-3.7182 -9.0629,-7.7477 -14.406,-10.25 -10.634,-5.6056 -22.236,-7.7263 -34,-7.625 z m 145.41,3.625 c -7.5672,-0.0353 -15.178,1.0347 -22.375,2.875 7.4364,2.2987 14.334,6.074 20.156,11.688 8.2556,7.3149 18.757,13.585 30.219,11.5 7.639,-0.11133 15.169,-1.4894 22.406,-3.8438 -3.8347,-2.103 -7.3993,-4.7981 -10.625,-7.6562 -10.736,-10.35 -25.152,-14.494 -39.781,-14.562 z" />
      <ellipse
         id="path3145"
         style="opacity:0.73558;fill:#1a1a1a"
         cx="312.85715"
         cy="430.93362"
         rx="30"
         ry="38.57143" />
      <ellipse
         id="path3147"
         style="opacity:0.73558;fill:#1a1a1a"
         transform="translate(82)"
         cx="312.85715"
         cy="430.93362"
         rx="30"
         ry="38.57143" />
      <ellipse
         id="path3149"
         style="opacity:0.73558;fill:#1a1a1a"
         transform="matrix(1.8571,0,0,1.2593,-223.88,16.276)"
         cx="312.85715"
         cy="430.93362"
         rx="30"
         ry="38.57143" />
    </g>
    <g
       id="layer1-3"
       transform="matrix(0.90189157,0,0,0.82708269,351.05911,547.65433)">
      <path
         style="opacity:0.4;fill:url(#linearGradient4097);fill-opacity:1;fill-rule:evenodd;stroke:none"
         id="path2086-4"
         d="M 4.4999998,8.4996391 V 5.1242817 c 0,-2.4782011 1.3702785,-3.6555186 3.4872865,-3.62457 2.1285247,0.030949 3.5133857,1.1172142 3.5133857,3.62457 V 8.4996391 H 10.06959 V 5.7540562 c 0,-0.6297745 0.148159,-2.6676754 -2.0673917,-2.6676754 -2.1972832,0 -2.0371829,2.0504603 -2.0286629,2.6651649 v 2.7480934 z" />
      <path
         style="opacity:0.6;fill:none;stroke:#ffffff;stroke-width:1px;stroke-linecap:round;stroke-linejoin:miter;stroke-opacity:1"
         id="path4161"
         d="M 5.2,6 C 5.2,6 4.6101697,2.5 8,2.5 11.38983,2.5 10.8,6 10.8,6" />
      <path
         style="opacity:0.4;fill:none;stroke:#000000;stroke-width:1;stroke-linecap:square;stroke-linejoin:miter;stroke-miterlimit:4;stroke-dasharray:none;stroke-opacity:1"
         id="path2086-3"
         d="M 4.4999998,8.4996395 V 5.1242821 c 0,-2.4782011 1.3702785,-3.6555186 3.4872865,-3.62457 2.1285247,0.030949 3.5133857,1.1172142 3.5133857,3.62457 V 8.4996395 H 9.5 V 5.7540566 C 9.5,5.1242821 9.6514618,3.5 8.0021983,3.5 6.3529348,3.5 6.49148,5.1368415 6.5,5.7515461 v 2.7480934 z" />
      <rect
         style="color:#000000;display:inline;overflow:visible;visibility:visible;fill:url(#radialGradient3074);fill-opacity:1;fill-rule:nonzero;stroke:none;stroke-width:1px;marker:none;enable-background:accumulate"
         id="rect3186-2"
         y="6.4999995"
         x="2.5"
         ry="1"
         rx="1"
         height="8"
         width="11" />
      <rect
         style="color:#000000;display:inline;overflow:visible;visibility:visible;opacity:0.5;fill:none;stroke:url(#linearGradient3059);stroke-width:1px;stroke-linejoin:round;stroke-opacity:1;marker:none;enable-background:accumulate"
         id="rect3186-3"
         y="7.500001"
         x="3.5"
         height="6"
         width="9" />
      <rect
         style="color:#000000;display:inline;overflow:visible;visibility:visible;fill:none;stroke:url(#linearGradient3963);stroke-width:1px;stroke-opacity:1;marker:none;enable-background:accumulate"
         id="rect3186"
         y="6.5"
         x="2.5"
         ry="1"
         rx="1"
         height="8"
         width="11" />
      <path
         style="opacity:0.2;fill:none;stroke:url(#linearGradient3951);stroke-width:1;stroke-linecap:square;stroke-linejoin:miter;stroke-miterlimit:4;stroke-dasharray:none;stroke-opacity:1"
         id="path3863-3-5"
         d="m 3.5,7.5 9,-3.79e-4 m -9,2.0003788 9,-3.79e-4 M 3.5,11.5 l 9,-3.79e-4" />
      <path
         style="opacity:0.05;fill:none;stroke:url(#linearGradient4158);stroke-width:1px;stroke-linecap:square;stroke-linejoin:miter;stroke-opacity:1"
         id="path4156"
         d="m 3.5,12.5 h 9 m -9,-6 h 9 m -9,2 h 9 m -9,2 h 9" />
      <rect
         style="color:#000000;display:inline;overflow:visible;visibility:visible;opacity:0.5;fill:url(#linearGradient3062);fill-opacity:1;fill-rule:nonzero;stroke:none;stroke-width:1px;marker:none;enable-background:accumulate"
         id="rect5453-4-4"
         transform="scale(1,-1)"
         y="-14.000134"
         x="11"
         ry="1"
         rx="2"
         height="7.000133"
         width="1" />
      <rect
         style="color:#000000;display:inline;overflow:visible;visibility:visible;opacity:0.5;fill:url(#linearGradient3065);fill-opacity:1;fill-rule:nonzero;stroke:none;stroke-width:1px;marker:none;enable-background:accumulate"
         id="rect5453-4"
         transform="scale(1,-1)"
         y="-14.000134"
         x="4"
         ry="1"
         rx="2"
         height="7.000133"
         width="1" />
      <rect
         style="color:#000000;display:inline;overflow:visible;visibility:visible;opacity:0.5;fill:url(#linearGradient3976);fill-opacity:1;fill-rule:nonzero;stroke:none;stroke-width:1px;marker:none;enable-background:accumulate"
         id="rect3333"
         y="7"
         x="3"
         ry="0.49999997"
         rx="1.6"
         height="7"
         width="1" />
      <rect
         style="color:#000000;display:inline;overflow:visible;visibility:visible;opacity:0.5;fill:url(#linearGradient4144);fill-opacity:1;fill-rule:nonzero;stroke:none;stroke-width:1px;marker:none;enable-background:accumulate"
         id="rect5453-6"
         y="7"
         x="12"
         ry="0.49999997"
         rx="1.6"
         height="7"
         width="1" />
    </g>
  </g>
  <metadata
     id="metadata16">
    <rdf:RDF>
      <cc:Work>
        <dc:format>image/svg+xml</dc:format>
        <dc:type
           rdf:resource="http://purl.org/dc/dcmitype/StillImage" />
        <cc:license
           rdf:resource="http://creativecommons.org/publicdomain/zero/1.0/" />
        <dc:publisher>
          <cc:Agent
             rdf:about="http://openclipart.org/">
            <dc:title>Openclipart</dc:title>
          </cc:Agent>
        </dc:publisher>
        <dc:title>Ghost</dc:title>
        <dc:date>2011-10-20T13:00:28</dc:date>
        <dc:description>Cute little Ghost for Halloween</dc:description>
        <dc:source>https://openclipart.org/detail/164221/ghost-by-arcdroid</dc:source>
        <dc:creator>
          <cc:Agent>
            <dc:title>arcdroid</dc:title>
          </cc:Agent>
        </dc:creator>
        <dc:subject>
          <rdf:Bag>
            <rdf:li>white ghost halloween</rdf:li>
          </rdf:Bag>
        </dc:subject>
      </cc:Work>
      <cc:License
         rdf:about="http://creativecommons.org/publicdomain/zero/1.0/">
        <cc:permits
           rdf:resource="http://creativecommons.org/ns#Reproduction" />
        <cc:permits
           rdf:resource="http://creativecommons.org/ns#Distribution" />
        <cc:permits
           rdf:resource="http://creativecommons.org/ns#DerivativeWorks" />
      </cc:License>
    </rdf:RDF>
  </metadata>
</svg>
