<?xml version="1.0" encoding="UTF-8" standalone="no"?>
<svg
   fill="none"
   viewBox="0.33 0 16 16"
   version="1.1"
   id="svg18"
   sodipodi:docname="ct_gcp.svg"
   width="16"
   height="16"
   inkscape:version="1.1.1 (3bf5ae0d25, 2021-09-20)"
   xmlns:inkscape="http://www.inkscape.org/namespaces/inkscape"
   xmlns:sodipodi="http://sodipodi.sourceforge.net/DTD/sodipodi-0.dtd"
   xmlns="http://www.w3.org/2000/svg"
   xmlns:svg="http://www.w3.org/2000/svg">
  <defs
     id="defs22" />
  <sodipodi:namedview
     id="namedview20"
     pagecolor="#ffffff"
     bordercolor="#666666"
     borderopacity="1.0"
     inkscape:pageshadow="2"
     inkscape:pageopacity="0.0"
     inkscape:pagecheckerboard="0"
     showgrid="false"
     inkscape:zoom="4.13"
     inkscape:cx="49.031477"
     inkscape:cy="39.104116"
     inkscape:window-width="1920"
     inkscape:window-height="1016"
     inkscape:window-x="0"
     inkscape:window-y="0"
     inkscape:window-maximized="1"
     inkscape:current-layer="svg18" />
  <g
     id="g926"
     transform="matrix(0.2210503,0,0,0.21693685,-2.5373876,-2.1426301)">
    <path
       d="M 73.988,40.598 A 24.588,24.588 0 0 0 66.66,28.882 l -7.663,7.663 a 13.73,13.73 0 0 1 5.023,9.413 v 2.514 c 0.043,0 0.083,-0.014 0.127,-0.014 3.87,0 7.02,3.15 7.02,7.02 0,3.87 -3.15,7.022 -7.02,7.022 -0.044,0 -0.084,-0.012 -0.127,-0.013 V 62.5 H 50.333 V 73.333 H 64.02 v -0.006 c 0.043,0 0.083,0.006 0.127,0.006 C 73.992,73.333 82,65.323 82,55.48 82,49.272 78.81,43.798 73.988,40.598 Z"
       fill="#1976d2"
       id="path4" />
    <path
       opacity="0.5"
       d="M 42.933,52.65 50.8,44.783 50.782,44.762 42.92,52.623 c 0.003,0.009 0.008,0.017 0.013,0.027 z"
       fill="#ffe082"
       id="path6" />
    <path
       opacity="0.5"
       d="M 42.933,52.65 50.8,44.783 50.782,44.762 42.92,52.623 c 0.003,0.009 0.008,0.017 0.013,0.027 z"
       fill="#90caf9"
       id="path8" />
    <path
       d="m 50.333,22.627 c -13.555,0 -24.583,11.028 -24.583,24.583 0,0.388 0.04,0.767 0.058,1.15 h 10.834 c -0.032,-0.38 -0.059,-0.762 -0.059,-1.15 0,-7.582 6.169,-13.75 13.75,-13.75 3.282,0 6.297,1.16 8.664,3.085 L 66.66,28.882 C 62.313,25.005 56.602,22.627 50.333,22.627 Z"
       fill="#ff3d00"
       id="path10" />
    <path
       opacity="0.5"
       d="m 36.52,62.5 h -0.003 a 6.924,6.924 0 0 1 -2.854,-0.622 l -7.85,7.85 c 2.989,2.252 6.689,3.605 10.704,3.605 H 50.333 V 62.5 Z"
       fill="#90caf9"
       id="path12" />
    <path
       d="m 36.52,62.5 h -0.003 a 6.924,6.924 0 0 1 -2.854,-0.622 l -7.85,7.85 c 2.989,2.252 6.689,3.605 10.704,3.605 H 50.333 V 62.5 Z"
       fill="#4caf50"
       id="path14" />
    <path
       d="m 29.5,55.483 c 0,-3.866 3.15,-7.016 7.017,-7.016 2.838,0 5.296,1.705 6.401,4.156 l 7.862,-7.861 c -3.269,-4.337 -8.442,-7.129 -14.265,-7.129 -9.832,0 -17.849,8 -17.849,17.85 0,5.819 2.819,10.984 7.147,14.245 l 7.85,-7.85 C 31.217,60.782 29.5,58.332 29.5,55.483 Z"
       fill="#ffc107"
       id="path16" />
  </g>
</svg>
