<svg xmlns="http://www.w3.org/2000/svg" xmlns:xlink="http://www.w3.org/1999/xlink" viewBox="0 0 291.48 251.95"><defs><clipPath id="a"><path d="M271.13,20.76h0c-31.4-28.57-78.4-25.62-106.88-3.51-6,4.93-12.15,10.17-18.51,15.7-6.36-5.53-12.55-10.77-18.51-15.7C98.75-4.86,51.76-7.81,20.35,20.76h0C5.23,35.8.22,56,0,75.15c.09,19.34,5,37.62,16.82,53.15,4.88,6.15,10.07,12.5,15.56,18.95,32.73,39,78.13,80.61,113.36,104.7,35.23-24.09,80.63-65.72,113.36-104.7,5.5-6.45,10.69-12.79,15.56-18.95,11.83-15.53,16.73-33.81,16.82-53.15C291.27,56,286.25,35.8,271.13,20.76Z" fill="none"/></clipPath></defs><g clip-path="url(#a)"><rect width="291.48" height="125.97" fill="#005bbb"/><rect y="125.97" width="291.48" height="125.97" fill="#ffd500"/></g></svg>