<?xml version="1.0" encoding="utf-8"?><!-- Uploaded to: SVG Repo, www.svgrepo.com, Generator: SVG Repo Mixer Tools -->
<svg width="800px" height="800px" viewBox="0 0 128 128" xmlns="http://www.w3.org/2000/svg" xmlns:xlink="http://www.w3.org/1999/xlink" aria-hidden="true" role="img" class="iconify iconify--noto" preserveAspectRatio="xMidYMid meet"><path d="M62.07 29.22c16.33 0 29.53 8.62 43.74 33.65c11.83 20.84 9.57 43.5-3 50.45s-17.32 5.68-22.9 5.37c-5.19-.28-17.08-22.83-17.08-22.83s-10.86 22.45-18.4 22.34c-2.84-.04-18.02.19-25.9-9.76s-7.51-26.84 0-41.86s23.26-37.36 43.54-37.36z" fill="#f2a159"></path><path d="M117.26 32.79c.43 11.28-8.16 18.02-17.46 18.02s-15.2-8.09-15.2-17.27s8.16-16.33 17.46-16.33s14.85 6.41 15.2 15.58z" fill="#f2a159"></path><path d="M23.59 47.62c-10.73-3.5-13.94-11.59-11.07-20.65s12.65-13.47 21.4-10.7s12.44 12.52 9.57 21.59s-11.83 12.38-19.9 9.76z" fill="#f2a159"></path><path d="M36.73 32.22c0 4.77-3.75 8.07-8.26 8.07s-7.88-3.68-7.88-8.45s3.37-8.63 7.88-8.63c5.82 0 8.26 4.25 8.26 9.01z" fill="#ffa7aa"></path><path d="M100.13 41.63c-4.75-.41-7.72-4.44-7.32-8.93s5.06-7.84 9.81-7.42s7.6 4.42 7.21 8.91c-.51 5.79-4.95 7.86-9.7 7.44z" fill="#ffa7aa"></path><path d="M88.72 69.48c.46 3.44-.47 7.04-3.87 7.11c-3.56.07-4.79-3-5.14-6.45s1.09-5.44 3.66-5.82c3.2-.47 4.98 2.35 5.35 5.16z" fill="#2e3030"></path><path d="M48.25 69.83c.12 3.47-1.29 7.25-4.95 6.97c-3.55-.27-4.6-4.5-4.13-8.17c.44-3.44 1.91-4.67 4.5-4.79c3.23-.14 4.49 3.16 4.58 5.99z" fill="#2e2d31"></path><path d="M63.43 112.28s9.01 5.91 16.61 6.48s16.47-2.39 17.03-13.51c.64-12.67-8.87-19.57-11.26-21.4c-1.42-1.09-8.73-6.19-8.73-6.19s-1.97-15.49-2.67-20.55c-.7-5.07-1.25-12.95-10.98-13.09c-9.29-.14-10.44 9.43-10.56 12.53c-.14 3.66-1.55 21.26-1.55 21.26s-5.31 3.52-9.01 6.34c-3.24 2.46-11.6 8.73-11.26 19.43c.28 9.01 5.07 14.92 15.2 14.64c12.13-.36 17.18-5.94 17.18-5.94z" fill="#ffd2b1"></path><path d="M57.42 99.85s-.74 9.22 2.44 10.7c2.63 1.22 4.04-2.63 4.04-2.63s.88 2.23 3 2.63C70.94 111.3 70 99 70 99l-6.01-3.19l-6.57 4.04z" fill="#fffefd"></path><path d="M59.91 94.45c0-1.32-1.83-1.97-3.57-3.14c-1.08-.73-2.44-1.64-2.06-3.14c.38-1.5 3.14-1.64 8.68-1.74c5.54-.09 9.43.42 9.24 1.92c-.19 1.5-1.88 2.53-3.14 3.47c-.59.44-2.67 1.6-2.58 2.44c.09.84 2.53 2.79 4.5 2.82c3.28.05 4.79-1.88 5.54-2.72c.75-.84 1.69-1.78 2.91-1.22s.14 3.85-2.3 6.1c-2.44 2.25-6.8 2.82-9.62 1.6s-4.08-2.96-4.08-2.96s-3.05 4.36-8.02 3.61c-3.77-.57-6.19-3-7.32-4.97c-1.13-1.97-.77-3.14.19-3.28c1.22-.19 1.97 1.22 3.38 1.88c1.41.66 2.49 1.45 4.74 1.36c2.24-.11 3.51-1.09 3.51-2.03z" fill="#2f302d"></path><path d="M25.47 106.92c-.46 0-.91-.22-1.18-.64c-.42-.65-.24-1.52.41-1.94c.22-.14 5.43-3.52 8.35-5.12c2.91-1.6 7.99-4.32 7.99-4.32s1.1-.78 1.91.41c.81 1.2-.58 2.06-.58 2.06s-5.06 2.72-7.97 4.31c-2.83 1.55-8.12 4.98-8.17 5.01c-.24.16-.5.23-.76.23z" fill="#5f646d"></path><path d="M31.27 113.93c-.33 0-.66-.11-.92-.35c-.58-.51-.64-1.39-.13-1.98c.11-.12 2.72-3.1 5.65-5.75c2.91-2.63 5.64-5.07 5.64-5.07c.58-.52 1.46-.47 1.98.11s.47 1.46-.11 1.98c0 0-2.72 2.44-5.63 5.07c-2.81 2.54-5.4 5.48-5.42 5.51c-.28.32-.67.48-1.06.48z" fill="#5f646d"></path><path d="M102.6 107.73c-.33 0-.67-.12-.93-.36c-.01-.01-1.82-1.59-7.4-5.01c-5.67-3.48-9.03-5.07-9.06-5.09a1.399 1.399 0 0 1 1.19-2.53c.14.07 3.51 1.67 9.33 5.23c5.86 3.59 7.73 5.24 7.8 5.31c.58.52.62 1.4.11 1.98c-.28.32-.66.47-1.04.47z" fill="#5f646d"></path><path d="M96.22 113.27c-.37 0-.74-.15-1.02-.44c-.03-.03-3.1-3.28-6.21-6.12c-3.05-2.78-6.43-4.89-6.46-4.91c-.66-.41-.86-1.27-.45-1.93c.41-.66 1.27-.86 1.93-.45c.15.09 3.62 2.26 6.87 5.22c3.19 2.91 6.24 6.13 6.36 6.27c.53.56.5 1.45-.06 1.98c-.27.26-.62.38-.96.38z" fill="#5f646d"></path></svg>