<?xml version="1.0" encoding="utf-8"?><!-- Uploaded to: SVG Repo, www.svgrepo.com, Generator: SVG Repo Mixer Tools -->
<svg width="800px" height="800px" viewBox="0 0 128 128" xmlns="http://www.w3.org/2000/svg" xmlns:xlink="http://www.w3.org/1999/xlink" aria-hidden="true" role="img" class="iconify iconify--noto" preserveAspectRatio="xMidYMid meet"><path d="M17.75 18.55S14.57 11.4 12.49 12s-.3 10.03-.3 10.03l5.56-3.48z" fill="#feaf5f"></path><path d="M101.65 56.28s3.77-1.29 6.45 2.38s1.6 7.93 5.19 12.87c2.26 3.1 5.07 2.26 7.99 1.42c2.99-.85 5.26-.94 5.36.99c.03.58-.73 4.22-3.97 7.55c-3.57 3.67-8.39 6.25-15.58 3.43c-6.58-2.58-8.42-11.17-8.42-11.17l2.98-17.47z" fill="#865b52"></path><path d="M58.46 44.66s7.8-4.65 6.25-9.23c-1.64-4.85-7.64-.69-8.94-2.28c-1.43-1.76 5.86-6.16 1.69-10.72s-8.61 1.9-10.13.1c-1.49-1.77 3.47-5.56.3-9.43s-8.54-.2-10.13.99c-1.17.88-3.38 2.48-6.16 3.08c-2.78.6-7.25-1.09-11.12-1.09s-9.63 2.58-10.82 7.64s-1.89 7.45-2.78 7.84s-3.38 0-3.47 1.79s2.38 2.28 5.76 2.08s8.14-2.58 10.13-5.06s3.67-6.25 3.67-6.25l35.75 20.54z" fill="#865b52"></path><linearGradient id="IconifyId17ecdb2904d178eab9182" gradientUnits="userSpaceOnUse" x1="23.86" y1="70.782" x2="19.916" y2="102.334"><stop offset=".306" stop-color="#b3875d"></stop><stop offset=".567" stop-color="#a87c5b"></stop><stop offset=".926" stop-color="#916656"></stop></linearGradient><path d="M30.56 70.38s-5.26 3.28-7.94 4.07c-2.68.79-6.25-.3-8.74 2.18c-2.48 2.48-1.09 4.77-2.08 7.25c-.99 2.48-4.85 6.23-4.47 9.93c.5 4.86 4.72 7.2 4.72 7.2s4.02-3.82 3.92-7.4s-.1-5.26.4-6.95s2.48-4.67 3.97-5.16c1.49-.5 6.85-.3 9.23-.4s6.85-.5 6.85-.5l-5.86-10.22z" fill="url(#IconifyId17ecdb2904d178eab9182)"></path><linearGradient id="IconifyId17ecdb2904d178eab9183" gradientUnits="userSpaceOnUse" x1="76.399" y1="58.587" x2="72.263" y2="104.09"><stop offset=".476" stop-color="#b3875d"></stop><stop offset=".735" stop-color="#a4785a"></stop><stop offset=".985" stop-color="#916656"></stop></linearGradient><path d="M87.05 59.56L62.63 80.8l-1.27 4.69s3.95-.67 5.24-1.07s3.13-.84 3.13-.84s.63.83 1.04 2.88c.5 2.48.4 4.07.2 4.37c-.55.82-4.37 2.38-5.86 2.48s-5.26-.53-7.05 2.28c-1.39 2.18-.66 3.15-.79 3.67c-.2.79-1.84 1.24-1.24 2.73s8.09.65 8.09.65s.47-2.02.89-2.08c1.04-.15 2.78-.6 3.87-1.99s9.53-1.99 10.42-3.77c1.29-2.58-.2-5.96-.3-9.13s-.1-5.91.15-6.45c2.88-1.69 6.7-5.26 6.7-5.26l6.85-12.01l-5.65-2.39z" fill="url(#IconifyId17ecdb2904d178eab9183)"></path><path fill="#b3875d" d="M28.97 47.94l2.76 5.31l13.43-10.67l-12.32-10.62l-5.36 9.03z"></path><path d="M31.06 51.91c.3 1.04.69 2.38.89 3.57c.2 1.19.3 2.98.3 2.98s-3.92 2.28-4.47 5.96c-.51 3.45.12 9.11 1.71 11.99c1.59 2.88 4.1 5.14 6.7 6.03c2.82.97 6.24 2.85 12.81 3.43c4.57.4 10.92 1.29 18.76-2.68c7.84-3.97 14.22-13.6 15.31-15.59s3.28-5.16 4.37-4.27c1.09.89-1.99 2.98-2.78 7.05c-.79 4.07.26 8.97 6.06 10.72c6.16 1.86 14.12-1.19 15.61-12.81s-5.29-19.73-11.54-22.93c-4.86-2.49-10.24-2.7-13.48-1.79c-1.76.5-3.3 1.89-4.84 2.38c-1.26.41-6.75.58-9.68.4c-3.43-.21-2.66-1.5-5.73-3.49c-3.08-1.99-4.02-1.41-5.19-2.57c-1.51-1.49-7.48-10.22-15.69-15.69c-7.15-4.77-11.17-5.11-11.17-5.11s.67-1.94.2-5.01c-.3-1.94-1.99-5.21-3.08-5.31c-1.04-.1-2.94 2.72-3.43 5.36c-.6 3.23.3 5.36.3 5.36s-.22 6.55-3.95 11.02s11.91 2.23 14.07 3.2c2.16.97 3.86 5.58 3.57 9.61c-.35 5.21-5.71 7.93-5.63 8.19z" fill="#feaf5f"></path><linearGradient id="IconifyId17ecdb2904d178eab9184" gradientUnits="userSpaceOnUse" x1="41.299" y1="112.112" x2="45.998" y2="70.491"><stop offset="0" stop-color="#865b52"></stop><stop offset=".545" stop-color="#feaf5f"></stop></linearGradient><path d="M41.63 82.07s-.74 2.01-1.12 2.31c-.37.3-2.83 3.05-3.95 4.17s-2.53 2.66-3.13 3.18s-3.11 1.89-2.98 4.49c.2 4 2.18 4.39 2.61 6.48c.35 1.73.7 4.15 1.86 6.03c1.34 2.16 3.23 3.3 6.21 3.3s4.74-5.98 4.74-5.98s-2.61-3.72-3.8-3.5c-1.19.22-1.39 1.39-2.08.97c-.81-.49-1.07-2.28-1.29-3.25c-.22-.97-.82-2.13-.45-2.58c.37-.45 4.16-2.44 6.13-3.77c3.3-2.23 11.91-8.94 11.91-8.94s5.97-15.45-5.88-13.55c-10.19 1.63-8.78 10.64-8.78 10.64z" fill="url(#IconifyId17ecdb2904d178eab9184)"></path><linearGradient id="IconifyId17ecdb2904d178eab9185" gradientUnits="userSpaceOnUse" x1="62.057" y1="118.415" x2="96.687" y2="68.959"><stop offset="0" stop-color="#865b52"></stop><stop offset=".136" stop-color="#9f6c55"></stop><stop offset=".421" stop-color="#dd985b"></stop><stop offset=".56" stop-color="#feaf5f"></stop></linearGradient><path d="M95.89 59.36c-2.92-.49-10.97 3.8-11.81 14.84c-.45 5.91-1.27 10.7-1.64 12.26c-.37 1.56-1.04 3.65-1.41 3.95c-.37.3-2.5 1.72-4.19 4.19c-1.74 2.53-1.24 5.19-1.76 5.93s-2.51 2.41-4.19 4.1c-1.14 1.14-4.96.97-6.45 2.68c-1.49 1.71-1.27 3.57-1.27 3.57s-2.88.74-3.7 2.68c-.82 1.94 1.09 4.39 2.73 4.62s5.17.81 5.51.45c1.09-1.19.3-3.72.3-3.72s1.64 0 3.13-2.01s3.5-3.28 5.21-4.69s8.09-6.04 9.31-8.27c1.61-2.95 1.04-5.73 2.16-7.52c1.12-1.79 3.3-3.7 7.4-7.05c3.28-2.68 7.09-5.04 9.78-11.67c3.84-9.53-7.32-14.04-9.11-14.34z" fill="url(#IconifyId17ecdb2904d178eab9185)"></path><radialGradient id="IconifyId17ecdb2904d178eab9186" cx="-.117" cy="70.576" r="51.661" gradientUnits="userSpaceOnUse"><stop offset=".226" stop-color="#865b52"></stop><stop offset=".285" stop-color="#895d52"></stop><stop offset=".336" stop-color="#946554"></stop><stop offset=".385" stop-color="#a67255"></stop><stop offset=".432" stop-color="#c08358"></stop><stop offset=".477" stop-color="#e09a5c"></stop><stop offset=".512" stop-color="#feaf5f"></stop></radialGradient><path d="M33.96 33.37c-1.19.45-2.01.37-1.94 1.34c.07.97 2.98 3.35 2.23 7.89s-3.65 7-6.33 7.89s-5.56.77-5.56.77l-3.82 4.37s.25 3.62-2.18 5.26c-1.8 1.21-2.88.84-2.88.84s-1.6 1.37-3.43.79c-2.38-.74-6.55-3.72-6.11-10.18c.41-5.94 4.82-9.61 5.81-11.86c.46-1.06.25-5.16.25-5.16s5.76-1.39 8.64-4.72c2.05-2.37 3.82-5.86 3.92-7.3c.1-1.44 16.93 5.06 16.93 5.06l-5.53 5.01z" fill="url(#IconifyId17ecdb2904d178eab9186)"></path><path d="M22.89 35.24c.74 1.37.16 3-1.03 3.65c-.98.54-3.05-.06-3.58-1.4c-.62-1.58-.26-2.87.94-3.52c1.2-.64 2.93-.1 3.67 1.27z" fill="#2f2927"></path><path d="M6.98 53.55c-.82.78-.74 2.33.15 3.87s1.94 2.28 2.93 1.64s.55-2.53-.1-4.02s-2.13-2.28-2.98-1.49z" fill="#523226"></path><path d="M14.42 55.34c0-.3-1.49-2.87.22-3.8c1.13-.61 2.38.3 2.27 1.86c-.11 1.5-.78 2.05-.78 2.05s.15.78-.41 3.61c-.42 2.15-1.23 2.42-1.75 2.83c-.39.31-2.35.97-2.05.48c.3-.48 1.79-2.31 2.12-3.98c.25-1.24.38-3.05.38-3.05z" fill="#523226"></path><path d="M15.94 93.83s-1.17 2.2-1.86 3.4c-.97 1.68-2.68 3.23-2.68 3.23s1.9 2.72 4.24 3.69c2.35.97 3.24-3.16 2.94-6.63c-.15-1.75-.52-2.83-1.23-3.39c-.43-.34-1.41-.3-1.41-.3z" fill="#6b4733"></path><path d="M41.33 102.89c.74 1.29 1.52 3.1 1.41 4.86c-.15 2.57-1.82 4.28-1.82 4.28s2.02.61 5.08.48c2.08-.09 3.34-.56 3.67-1.15c.34-.6-.34-3.76-1.94-6.29s-2.94-2.77-3.72-3.02c-1.14-.35-2.68.84-2.68.84z" fill="#6b4733"></path><path d="M60.36 101.99c-2.23-.07-4.47-.74-4.47-.74s-.48 1.45-.63 3.61c-.15 2.08-.26 3.83.6 4.13c.86.3 3.24-.19 5.66-1.82c1.26-.85 2.42-2.68 2.64-3.16c.22-.48.22-2.08.22-2.08s-2.23.12-4.02.06z" fill="#6b4733"></path><path d="M60.13 112.63c-.56.26-1.49 1.97-2.23 3.13c-.74 1.15-1.63 2.81-1.56 3.35c.11.89 1.34 1.45 4.88 1.38c3.54-.07 5.73-1.19 5.99-1.34c.26-.15.67-.82.67-.82s-1.3-1.75-3.65-3.5c-2.35-1.75-4.1-2.2-4.1-2.2z" fill="#6b4733"></path><path d="M39.79 83.78s-1.24-1.17-1.96-2.31c-1.04-1.64-1.41-2.76-1.71-5.29c-.21-1.76.97-5.05-1.45-5.31c-1.82-.2-2.76.87-2.57 4.12c.15 2.67 1.71 5.81 2.01 6.18c.3.37.91.97 2.49 1.71s3.19.9 3.19.9z" fill="#b3875d"></path></svg>