<?xml version="1.0" encoding="UTF-8" standalone="no"?>
<!-- Created with Sodipodi ("http://www.sodipodi.com/") -->

<svg
   xmlns:dc="http://purl.org/dc/elements/1.1/"
   xmlns:cc="http://creativecommons.org/ns#"
   xmlns:rdf="http://www.w3.org/1999/02/22-rdf-syntax-ns#"
   xmlns:svg="http://www.w3.org/2000/svg"
   xmlns="http://www.w3.org/2000/svg"
   xmlns:sodipodi="http://sodipodi.sourceforge.net/DTD/sodipodi-0.dtd"
   xmlns:inkscape="http://www.inkscape.org/namespaces/inkscape"
   version="1"
   x="0"
   y="0"
   width="640"
   height="480"
   id="svg378"
   inkscape:version="0.48.1 r9760"
   sodipodi:docname="in.svg">
  <sodipodi:namedview
     pagecolor="#ffffff"
     bordercolor="#666666"
     borderopacity="1"
     objecttolerance="10"
     gridtolerance="10"
     guidetolerance="10"
     inkscape:pageopacity="0"
     inkscape:pageshadow="2"
     inkscape:window-width="1280"
     inkscape:window-height="746"
     id="namedview3924"
     showgrid="false"
     inkscape:zoom="0.4021669"
     inkscape:cx="531.495"
     inkscape:cy="385.41213"
     inkscape:window-x="0"
     inkscape:window-y="24"
     inkscape:window-maximized="1"
     inkscape:current-layer="svg378" />
  <metadata
     id="metadata3926">
    <rdf:RDF>
      <cc:Work
         rdf:about="">
        <dc:format>image/svg+xml</dc:format>
        <dc:type
           rdf:resource="http://purl.org/dc/dcmitype/StillImage" />
      </cc:Work>
    </rdf:RDF>
  </metadata>
  <defs
     id="defs380">
    <clipPath
       clipPathUnits="userSpaceOnUse"
       id="clipPath9097">
      <rect
         id="rect9099"
         height="708.66132"
         x="177.16533"
         style="fill:#000000;fill-opacity:0.67000002;stroke:none"
         width="708.66132"
         y="3.2271494e-06" />
    </clipPath>
    <clipPath
       clipPathUnits="userSpaceOnUse"
       id="clipPath8248">
      <rect
         id="rect8250"
         height="512"
         x="-85.334038"
         style="fill:#000000;fill-opacity:0.67000002;stroke:none"
         width="682.66669"
         y="-1.16579e-06" />
    </clipPath>
    <clipPath
       clipPathUnits="userSpaceOnUse"
       id="clipPath3247">
      <rect
         id="rect3249"
         height="480"
         x="0"
         style="fill:#000000;fill-opacity:0.67000002;stroke:none"
         width="640"
         y="0" />
    </clipPath>
  </defs>
  <g
     id="flag"
     clip-path="url(#clipPath3247)"
     inkscape:label="#g3142">
    <rect
       width="719.99866"
       height="479.99979"
       x="-39.999344"
       y="-1.0929281e-06"
       style="font-size:12px;fill:#ffffff;fill-rule:evenodd;stroke-width:1pt"
       id="rect171" />
    <rect
       width="719.99866"
       height="159.99971"
       x="-39.999344"
       y="320.00031"
       style="font-size:12px;fill:#329203;fill-rule:evenodd;stroke-width:1pt"
       id="rect256" />
    <rect
       width="719.99866"
       height="159.99971"
       x="-39.999344"
       y="-1.0929281e-06"
       style="font-size:12px;fill:#e77300;fill-rule:evenodd;stroke-width:1pt"
       id="rect255" />
    <ellipse
       transform="matrix(0.40323442,0,0,0.40323442,173.667,91.822474)"
       d="m 667.90271,367.47272 c 0,168.44796 -136.55407,305.00201 -305.00204,305.00201 -168.44798,0 -305.002049,-136.55405 -305.002049,-305.00201 0,-168.44796 136.554069,-305.002017 305.002049,-305.002017 168.44797,0 305.00204,136.554057 305.00204,305.002017 z"
       id="path200"
       style="font-size:12px;fill:#08399c;fill-rule:evenodd;stroke-width:1pt"
       ry="305.00201"
       rx="305.00204"
       cy="367.47272"
       cx="362.90067"
       sodipodi:cx="362.90067"
       sodipodi:cy="367.47272"
       sodipodi:rx="305.00204"
       sodipodi:ry="305.00201" />
    <path
       id="path175"
       style="font-size:12px;fill:#ffffff;fill-rule:evenodd;stroke-width:1pt"
       d="m 426.57778,212.40205 c 0.67323,2.45639 0.8149,3.76782 1.30413,6.11786 -4.82211,1.49239 -7.33187,4.7055 -6.74999,7.92204 0.48109,2.89688 2.62443,7.01852 8.65962,6.14143 0.15546,2.39527 0.22636,3.77157 0.23257,6.3188 -18.22813,0.0443 -37.44051,-1.0073 -55.36804,-2.59682 -13.22594,-1.14495 -16.37335,2.52661 -23.25009,3.10953 -7.97885,0.65296 -14.26329,0.17803 -30.74446,0.8269 16.1552,-3.33038 22.50255,-5.34739 29.98222,-6.55593 7.19866,-1.11721 9.97151,1.48912 23.3692,-3.72063 16.92125,-6.72627 34.9848,-12.74495 52.56484,-17.56318 z"
       inkscape:connector-curvature="0" />
    <path
       id="path205"
       style="font-size:12px;fill:#ffffff;fill-rule:evenodd;stroke-width:1pt"
       d="m 293.61869,134.15086 c 2.4607,-0.6573 3.77302,-0.79045 6.12619,-1.26443 1.46109,4.83169 4.65785,7.36224 7.8781,6.80122 2.89994,-0.46229 7.03539,-2.57885 6.19746,-8.61961 2.39623,-0.13991 3.77296,-0.20189 6.32018,-0.19158 -0.0739,18.22805 -1.2501,37.4332 -2.95585,55.35006 -1.23071,13.21825 2.42037,16.3894 2.95867,23.26978 0.60121,7.98292 0.0855,14.26416 0.62749,30.74919 -3.22553,-16.17646 -5.20133,-22.53676 -6.36134,-30.02412 -1.0705,-7.20576 1.55376,-9.96165 -3.56899,-23.39285 -6.6164,-16.96453 -12.5178,-35.06674 -17.22191,-52.67766 z"
       inkscape:connector-curvature="0" />
    <path
       id="path206"
       style="font-size:12px;fill:#ffffff;fill-rule:evenodd;stroke-width:1pt"
       d="m 321.62843,130.74658 c 2.54696,-0.006 3.84971,0.20042 6.24585,0.3438 0.17728,5.04465 2.62085,8.30838 5.87751,8.58929 2.92175,0.29446 7.46089,-0.6945 8.19517,-6.74873 2.35236,0.47735 3.69919,0.7694 6.15912,1.43059 -4.73159,17.60337 -10.77862,35.86958 -17.00826,52.75492 -4.56914,12.46433 -1.85013,16.46351 -3.08873,23.25286 -1.45967,7.87132 -3.56405,13.81198 -7.25462,29.88773 1.01729,-16.46351 0.73321,-23.11756 1.52595,-30.65265 0.80727,-7.23998 4.04889,-9.23337 2.53016,-23.52788 -2.05941,-18.09227 -3.13673,-37.10163 -3.18215,-55.32993 z"
       inkscape:connector-curvature="0" />
    <path
       id="path207"
       style="font-size:12px;fill:#ffffff;fill-rule:evenodd;stroke-width:1pt"
       d="m 349.86781,134.69612 c 2.46216,0.65177 3.66729,1.18804 5.94507,1.94551 -1.13184,4.91924 0.38573,8.70341 3.4593,9.81602 2.74653,1.0392 7.38708,1.25632 9.66032,-4.40276 2.14923,1.06879 3.3749,1.69884 5.58055,2.97302 -9.11819,15.7837 -19.6784,31.86795 -30.05832,46.57102 -7.63378,10.86104 -6.04009,15.42685 -8.99044,21.66583 -3.44339,7.22713 -7.0109,12.42258 -14.7288,26.99941 5.23551,-15.64197 6.6799,-22.14358 9.39215,-29.21816 2.65006,-6.78573 6.29658,-7.87412 8.52186,-22.0758 2.68396,-18.01022 6.55357,-36.6527 11.21831,-54.27409 z"
       inkscape:connector-curvature="0" />
    <path
       id="path208"
       style="font-size:12px;fill:#ffffff;fill-rule:evenodd;stroke-width:1pt"
       d="m 376.12817,145.80602 c 2.21024,1.26565 3.23595,2.09502 5.24077,3.41515 -2.36412,4.45993 -1.87553,8.50768 0.80634,10.37647 2.38488,1.71338 6.81185,3.12182 10.46975,-1.75801 1.8002,1.58769 2.82153,2.51296 4.6232,4.31363 -12.88582,12.89274 -27.24235,25.70334 -41.06794,37.22621 -10.18021,8.52056 -9.82,13.3431 -14.2818,18.60824 -5.19337,6.0924 -9.98184,10.19001 -21.20314,22.27855 9.09829,-13.75876 12.17309,-19.66662 16.62072,-25.80051 4.31294,-5.87091 8.11684,-5.98043 13.93503,-19.12534 7.24507,-16.70571 15.79888,-33.71597 24.85707,-49.53439 z"
       inkscape:connector-curvature="0" />
    <path
       id="path209"
       style="font-size:12px;fill:#ffffff;fill-rule:evenodd;stroke-width:1pt"
       d="m 398.50663,163.1994 c 1.81113,1.79077 2.58947,2.85572 4.18807,4.6464 -3.4301,3.7033 -3.99731,7.74078 -1.88525,10.23557 1.86493,2.26833 5.78178,4.76635 10.5701,0.98945 1.33214,1.99672 2.08162,3.15322 3.36049,5.35616 -15.76442,9.15149 -32.92915,17.84594 -49.25006,25.43216 -12.02682,5.62069 -12.91705,10.37401 -18.58126,14.31686 -6.58367,4.55452 -12.26379,7.2851 -26.213,16.08678 12.32628,-10.96106 16.81504,-15.88124 22.68863,-20.66735 5.6759,-4.56653 9.38037,-3.69558 18.37891,-14.90566 11.29195,-14.28507 23.92695,-28.52842 36.74337,-41.49037 z"
       inkscape:connector-curvature="0" />
    <path
       id="path210"
       style="font-size:12px;fill:#ffffff;fill-rule:evenodd;stroke-width:1pt"
       d="m 416.00562,186.34918 c 1.27683,2.20381 1.74793,3.43587 2.81974,5.58373 -4.28277,2.67167 -5.89112,6.41817 -4.50896,9.38032 1.20325,2.67872 4.32593,6.1183 9.93852,3.73257 0.76056,2.27662 1.17976,3.58945 1.83473,6.05104 -17.61536,4.68681 -36.46168,8.56463 -54.2026,11.59495 -13.08122,2.26239 -15.18937,6.61466 -21.69068,8.93033 -7.54921,2.66419 -13.74728,3.80601 -29.51929,8.63236 14.77363,-7.33633 20.39766,-10.90389 27.32262,-13.97815 6.67649,-2.91434 10.02186,-1.10045 21.65017,-9.55161 14.64923,-10.81534 30.58335,-21.23745 46.35575,-30.37554 z"
       inkscape:connector-curvature="0" />
    <path
       id="path211"
       style="font-size:12px;fill:#ffffff;fill-rule:evenodd;stroke-width:1pt"
       d="m 214.68933,267.32252 c -0.6581,-2.46048 -0.79169,-3.77275 -1.26644,-6.12576 4.8312,-1.46268 7.36071,-4.66027 6.79864,-7.88034 -0.46324,-2.89978 -2.58116,-7.03454 -8.62164,-6.19463 -0.14071,-2.39618 -0.20313,-3.77289 -0.19366,-6.32011 18.22806,0.0679 37.4336,1.23782 55.351,2.93769 13.21865,1.22637 16.3886,-2.42574 23.2688,-2.9663 7.98272,-0.60383 14.26412,-0.0902 30.74898,-0.63758 -16.1754,3.23084 -22.53505,5.20872 -30.02202,6.37119 -7.20541,1.07287 -9.96216,-1.55049 -23.39168,3.57666 -16.96234,6.62196 -35.06261,12.5293 -52.67198,17.23918 z"
       inkscape:connector-curvature="0" />
    <path
       id="path212"
       style="font-size:12px;fill:#ffffff;fill-rule:evenodd;stroke-width:1pt"
       d="m 430.16368,240.35567 c 0.0237,2.54686 -0.17426,3.85098 -0.30136,6.24804 -5.04333,0.21155 -8.29038,2.67723 -8.54916,5.93573 -0.27461,2.92368 0.74517,7.45599 6.80425,8.14913 -0.46136,2.35555 -0.74426,3.70433 -1.38872,6.16869 -17.63511,-4.61189 -35.94198,-10.53469 -52.86924,-16.64948 -12.49508,-4.48436 -16.4757,-1.73825 -23.27331,-2.9307 -7.88105,-1.40615 -13.83587,-3.47013 -29.93631,-7.05141 16.47003,0.90542 23.122,0.57615 30.6623,1.31768 7.2453,0.75807 9.26066,3.98607 23.54453,2.37027 18.07786,-2.18227 37.07945,-3.3887 55.30702,-3.55795 z"
       inkscape:connector-curvature="0" />
    <path
       id="path213"
       style="font-size:12px;fill:#ffffff;fill-rule:evenodd;stroke-width:1pt"
       d="m 426.39779,268.65164 c -0.63574,2.46635 -1.16416,3.67494 -1.90679,5.9576 -4.92649,-1.09981 -8.70071,0.44236 -9.7933,3.5231 -1.02131,2.75323 -1.20823,7.39508 4.46552,9.63146 -1.05479,2.15613 -1.67685,3.38588 -2.93664,5.59977 -15.84269,-9.0153 -31.9953,-19.47063 -46.76558,-29.75466 -10.91046,-7.56295 -15.46581,-5.93959 -21.72385,-8.84928 -7.24937,-3.3963 -12.46792,-6.92993 -27.09465,-14.55282 15.6757,5.13362 22.18656,6.53568 29.27864,9.20184 6.80282,2.60586 7.91491,6.24521 22.13076,8.37805 18.02728,2.56672 36.69454,6.31496 54.34589,10.86494 z"
       inkscape:connector-curvature="0" />
    <path
       id="path214"
       style="font-size:12px;fill:#ffffff;fill-rule:evenodd;stroke-width:1pt"
       d="m 415.43105,295.03238 c -1.25239,2.21779 -2.07559,3.24844 -3.38369,5.26114 -4.47401,-2.33734 -8.51876,-1.82451 -10.37143,0.8685 -1.69906,2.39511 -3.08095,6.83044 1.82071,10.45902 -1.57687,1.80969 -2.496,2.83654 -4.28584,4.64897 -12.96972,-12.80831 -25.86612,-27.0878 -37.47161,-40.84407 -8.58142,-10.12896 -13.4017,-9.73986 -18.69348,-14.17002 -6.12342,-5.15676 -10.24964,-9.92058 -22.4052,-21.06923 13.81302,9.01567 19.73919,12.055 25.89963,16.46579 5.89664,4.27768 6.02896,8.08085 19.20849,13.82015 16.7488,7.14482 33.81,15.59653 49.68242,24.55975 z"
       inkscape:connector-curvature="0" />
    <path
       id="path215"
       style="font-size:12px;fill:#ffffff;fill-rule:evenodd;stroke-width:1pt"
       d="m 397.99622,317.68995 c -1.78402,1.81778 -2.84606,2.60008 -4.63077,4.20534 -3.71605,-3.41628 -7.75561,-3.96845 -10.24252,-1.84713 -2.26138,1.87337 -4.74479,5.7995 -0.95009,10.57372 -1.99174,1.33956 -3.14545,2.09335 -5.34361,3.38041 -9.21012,-15.73023 -17.96842,-32.86246 -25.61537,-49.155 -5.66544,-12.00581 -10.42203,-12.87834 -14.38595,-18.52783 -4.579,-6.56666 -7.33071,-12.23657 -16.18427,-26.1529 11.00687,12.28537 15.94373,16.75578 20.75169,22.61151 4.58763,5.65885 3.73048,9.36654 14.97399,18.32327 14.32702,11.23867 28.61731,23.82055 41.6269,36.58861 z"
       inkscape:connector-curvature="0" />
    <path
       id="path216"
       style="font-size:12px;fill:#ffffff;fill-rule:evenodd;stroke-width:1pt"
       d="m 375.09743,335.16872 c -2.19652,1.28932 -3.42589,1.76741 -5.56762,2.85139 -2.69595,-4.26753 -6.45151,-5.85459 -9.40577,-4.45563 -2.67184,1.21843 -6.09363,4.36059 -3.67608,9.95954 -2.27227,0.77348 -3.58269,1.20012 -6.04053,1.86905 -4.78673,-17.58845 -8.77148,-36.41245 -11.90246,-54.13587 -2.33661,-13.06816 -6.70078,-15.15156 -9.05332,-21.63962 -2.70699,-7.53395 -3.88399,-13.72544 -8.79979,-29.46979 7.42008,14.73174 11.0195,20.33542 14.13302,27.24281 2.9522,6.65984 1.15733,10.01544 9.67436,21.59558 10.89832,14.5876 21.41072,30.46228 30.63819,46.18254 z"
       inkscape:connector-curvature="0" />
    <path
       id="path217"
       style="font-size:12px;fill:#ffffff;fill-rule:evenodd;stroke-width:1pt"
       d="m 348.58649,346.02691 c -2.45586,0.67514 -3.76718,0.81782 -6.11684,1.30886 -1.49613,-4.82095 -4.71118,-7.32823 -7.92727,-6.74385 -2.8965,0.48332 -7.01648,2.62985 -6.13472,8.66436 -2.39515,0.15731 -3.7714,0.22928 -6.31863,0.23746 -0.0584,-18.2281 0.97835,-37.44128 2.554,-55.37004 1.13472,-13.22683 -2.53927,-16.3714 -3.12751,-23.24769 -0.65914,-7.97834 -0.18907,-14.26315 -0.85068,-30.74382 3.34288,16.15263 5.36479,22.49841 6.57912,29.97715 1.12278,7.1978 -1.48141,9.97267 3.7387,23.36633 6.73936,16.91604 12.77201,34.97493 17.60383,52.55124 z"
       inkscape:connector-curvature="0" />
    <path
       id="path218"
       style="font-size:12px;fill:#ffffff;fill-rule:evenodd;stroke-width:1pt"
       d="m 320.03848,349.63223 c -2.54694,0.0117 -3.85013,-0.19229 -6.24657,-0.33061 -0.18793,-5.04427 -2.63839,-8.30283 -5.89563,-8.57686 -2.92237,-0.2883 -7.45941,0.71025 -8.1809,6.76602 -2.35337,-0.47238 -3.70081,-0.7616 -6.16213,-1.41758 4.69441,-17.61333 10.70286,-35.89228 16.89683,-52.79074 4.54282,-12.47395 1.81537,-16.46739 3.03964,-23.25934 1.44303,-7.87439 3.53487,-13.81948 7.19149,-29.90299 -0.98252,16.46563 -0.6844,23.11907 -1.46122,30.65582 -0.79199,7.24167 -4.02939,9.2419 -2.48048,23.53318 2.0976,18.08788 3.21506,37.09493 3.29897,55.3231 z"
       inkscape:connector-curvature="0" />
    <path
       id="path219"
       style="font-size:12px;fill:#ffffff;fill-rule:evenodd;stroke-width:1pt"
       d="m 291.79942,345.74459 c -2.46359,-0.64638 -3.66988,-1.18001 -5.94932,-1.93248 1.12106,-4.9217 -0.40481,-8.70254 -3.48081,-9.80841 -2.74879,-1.03318 -7.3898,-1.24013 -9.65064,4.42392 -2.15156,-1.06408 -3.37861,-1.69144 -5.58705,-2.96078 9.08357,-15.80364 19.6085,-31.91099 29.95617,-46.63677 7.60995,-10.87773 6.00626,-15.44005 8.94293,-21.68547 3.42754,-7.23466 6.98366,-12.43791 14.66958,-27.03162 -5.2012,15.65341 -6.63135,22.15816 -9.32808,29.23867 -2.63518,6.79152 -6.2793,7.8879 -8.47346,22.09441 -2.64448,18.01605 -6.47322,36.66697 -11.09932,54.29853 z"
       inkscape:connector-curvature="0" />
    <path
       id="path220"
       style="font-size:12px;fill:#ffffff;fill-rule:evenodd;stroke-width:1pt"
       d="m 265.42765,334.64114 c -2.21184,-1.26286 -3.2386,-2.09092 -5.24509,-3.40851 2.35846,-4.46292 1.86474,-8.51004 -0.81948,-10.37542 -2.38705,-1.71036 -6.8158,-3.11319 -10.4675,1.77126 -1.80222,-1.5854 -2.82472,-2.50937 -4.62867,-4.30776 12.86946,-12.90904 27.20973,-25.73781 41.02069,-37.27817 10.1694,-8.53345 9.80307,-13.35551 14.25819,-18.6263 5.18564,-6.09897 9.96891,-10.20264 21.17487,-22.30537 -9.08084,13.77025 -12.14814,19.682 -16.58799,25.82152 -4.30549,5.87636 -8.10925,5.9907 -13.91077,19.14295 -7.22389,16.71486 -15.75612,33.73592 -24.79425,49.5658 z"
       inkscape:connector-curvature="0" />
    <path
       id="path221"
       style="font-size:12px;fill:#ffffff;fill-rule:evenodd;stroke-width:1pt"
       d="m 242.80135,317.04781 c -1.80814,-1.7938 -2.5847,-2.86004 -4.18031,-4.65338 3.43625,-3.69757 4.01019,-7.7341 1.9023,-10.23241 -1.86115,-2.27144 -5.77384,-4.77597 -10.56844,-1.00707 -1.32881,-1.99893 -2.07636,-3.15668 -3.35155,-5.36175 15.77964,-9.1252 32.95883,-17.79102 49.29236,-25.35003 12.03616,-5.60064 12.93432,-10.35247 18.60509,-14.28587 6.59125,-4.54354 12.27591,-7.26465 26.23976,-16.04307 -12.34452,10.9405 -16.84147,15.85319 -22.72304,20.62951 -5.68349,4.55706 -9.38651,3.67994 -18.40371,14.875 -11.31574,14.26623 -23.97446,28.48849 -36.81246,41.42907 z"
       inkscape:connector-curvature="0" />
    <path
       id="path222"
       style="font-size:12px;fill:#ffffff;fill-rule:evenodd;stroke-width:1pt"
       d="m 225.41049,293.99229 c -1.27601,-2.20428 -1.74666,-3.43652 -2.81766,-5.58477 4.28376,-2.67008 5.8935,-6.41597 4.51245,-9.37864 -1.20225,-2.67916 -4.32365,-6.1199 -9.93712,-3.73626 -0.75972,-2.27691 -1.17843,-3.58989 -1.83248,-6.05173 17.61709,-4.68024 36.46485,-8.55104 54.20688,-11.57474 13.08206,-2.25752 15.19182,-6.609 21.69399,-8.92224 7.5502,-2.66137 13.74869,-3.80089 29.52249,-8.62136 -14.77636,7.33083 -20.40171,10.89628 -27.32781,13.96796 -6.67757,2.91185 -10.02226,1.09672 -21.65371,9.54354 -14.65326,10.80987 -30.59124,21.22603 -46.36703,30.35824 z"
       inkscape:connector-curvature="0" />
    <path
       id="path223"
       style="font-size:12px;fill:#ffffff;fill-rule:evenodd;stroke-width:1pt"
       d="m 267.33667,144.64384 c 2.2099,-1.26624 3.44421,-1.73143 5.59718,-2.79291 2.6511,4.29554 6.38983,5.92184 9.35858,4.55391 2.68446,-1.19038 6.13898,-4.29652 3.78021,-9.92049 2.28024,-0.74963 3.59506,-1.16253 6.05977,-1.80567 4.60223,17.63763 8.38957,36.50233 11.33472,54.25758 2.1996,13.09191 6.5417,15.22092 8.82614,21.73327 2.62793,7.56189 3.74001,13.76537 8.49061,29.56035 -7.26535,-14.80866 -10.80588,-20.44974 -13.84687,-27.38936 -2.88227,-6.6904 -1.05235,-10.02702 -9.44761,-21.69574 -10.74491,-14.70095 -21.09044,-30.68488 -30.15273,-46.50094 z"
       inkscape:connector-curvature="0" />
    <path
       id="path224"
       style="font-size:12px;fill:#ffffff;fill-rule:evenodd;stroke-width:1pt"
       d="m 211.28169,238.76597 c 0.006,-2.54696 0.21843,-3.84873 0.37301,-6.24418 5.04543,-0.15367 8.32056,-2.58195 8.6167,-5.83726 0.30813,-2.92034 -0.65959,-7.46406 -6.71032,-8.22665 0.48834,-2.3501 0.7867,-3.69555 1.45938,-6.15236 17.58105,4.81389 35.81878,10.9463 52.67479,17.25486 12.44282,4.62741 16.45468,1.92713 23.23816,3.19748 7.86441,1.49647 13.79516,3.62862 29.85347,7.39435 -16.45857,-1.09429 -23.11388,-0.84134 -30.64518,-1.66932 -7.23612,-0.84114 -9.21433,-4.09204 -23.51579,-2.6402 -18.10171,1.97475 -37.1159,2.96313 -55.34422,2.92328 z"
       inkscape:connector-curvature="0" />
    <path
       id="path225"
       style="font-size:12px;fill:#ffffff;fill-rule:evenodd;stroke-width:1pt"
       d="m 215.30293,210.76159 c 0.65824,-2.46044 1.19768,-3.66416 1.96113,-5.93994 4.91624,1.14476 8.70439,-0.36287 9.82507,-3.43351 1.04641,-2.74379 1.27572,-7.38375 -4.37738,-9.67185 1.07444,-2.14641 1.70771,-3.37042 2.98767,-5.57272 15.7597,9.15962 31.81616,19.76204 46.49191,30.18054 10.84095,7.66228 15.41094,6.08059 21.64214,9.04731 7.21806,3.46236 12.40413,7.04351 26.96064,14.79967 -15.62818,-5.27657 -22.12596,-6.73804 -29.1934,-9.46886 -6.77875,-2.66788 -7.85755,-6.31724 -22.05334,-8.57982 -18.0031,-2.73125 -36.63536,-6.64982 -54.24444,-11.36082 z"
       inkscape:connector-curvature="0" />
    <path
       id="path226"
       style="font-size:12px;fill:#ffffff;fill-rule:evenodd;stroke-width:1pt"
       d="m 226.53302,184.443 c 1.2735,-2.20573 2.10651,-3.22848 3.43375,-5.22859 4.4515,2.37994 8.50095,1.90574 10.37926,-0.76946 1.72184,-2.37877 3.14601,-6.80071 -1.72078,-10.47592 1.59407,-1.79455 2.52296,-2.81258 4.33002,-4.60784 12.84685,12.93154 25.60634,27.3335 37.07998,41.19994 8.48433,10.21042 13.30811,9.86735 18.55736,14.34783 6.0739,5.21498 10.15446,10.01798 22.20303,21.28215 -13.72632,-9.14711 -19.62321,-12.24289 -25.74126,-16.71228 -5.85553,-4.33378 -5.95154,-8.13804 -19.07567,-14.0029 -16.67984,-7.30439 -33.65957,-15.91859 -49.44569,-25.03293 z"
       inkscape:connector-curvature="0" />
    <path
       id="path227"
       style="font-size:12px;fill:#ffffff;fill-rule:evenodd;stroke-width:1pt"
       d="m 244.59866,161.54887 c 1.81081,-1.7911 2.88434,-2.55755 4.69268,-4.13615 3.66494,3.47105 7.69586,4.08311 10.21398,1.99893 2.28893,-1.83961 4.83033,-5.72845 1.1069,-10.55846 2.0114,-1.30986 3.17617,-2.04644 5.39319,-3.30073 8.97567,15.86519 17.47876,33.12551 24.88308,49.52975 5.48664,12.08857 10.22977,13.03159 14.10941,18.73928 4.48104,6.6339 7.14831,12.34403 15.79437,26.39022 -10.82334,-12.44737 -15.69332,-16.99055 -20.41384,-22.91699 -4.50315,-5.72632 -3.59107,-9.42088 -14.70043,-18.54348 -14.15866,-11.45007 -28.26066,-24.24263 -41.07934,-37.20237 z"
       inkscape:connector-curvature="0" />
  </g>
</svg>
