<?xml version="1.0" encoding="UTF-8" standalone="no"?>
<svg
   xmlns:dc="http://purl.org/dc/elements/1.1/"
   xmlns:cc="http://creativecommons.org/ns#"
   xmlns:rdf="http://www.w3.org/1999/02/22-rdf-syntax-ns#"
   xmlns:svg="http://www.w3.org/2000/svg"
   xmlns="http://www.w3.org/2000/svg"
   xmlns:sodipodi="http://sodipodi.sourceforge.net/DTD/sodipodi-0.dtd"
   xmlns:inkscape="http://www.inkscape.org/namespaces/inkscape"
   version="1.1"
   id="Layer_1"
   inkscape:version="1.0 (4035a4fb49, 2020-05-01)"
   sodipodi:docname="ct_horiz_rule.svg"
   x="0px"
   y="0px"
   width="489.309px"
   height="494.244px"
   viewBox="0 0 489.309 494.244"
   enable-background="new 0 0 489.309 494.244"
   xml:space="preserve"><metadata
   id="metadata43"><rdf:RDF><cc:Work
       rdf:about=""><dc:format>image/svg+xml</dc:format><dc:type
         rdf:resource="http://purl.org/dc/dcmitype/StillImage" /><dc:title /></cc:Work></rdf:RDF></metadata><defs
   id="defs41" /><sodipodi:namedview
   pagecolor="#ffffff"
   bordercolor="#666666"
   borderopacity="1"
   objecttolerance="10"
   gridtolerance="10"
   guidetolerance="10"
   inkscape:pageopacity="0"
   inkscape:pageshadow="2"
   inkscape:window-width="1366"
   inkscape:window-height="715"
   id="namedview39"
   showgrid="false"
   inkscape:zoom="0.62242035"
   inkscape:cx="244.6545"
   inkscape:cy="247.12199"
   inkscape:window-x="-8"
   inkscape:window-y="22"
   inkscape:window-maximized="1"
   inkscape:current-layer="Layer_1"
   inkscape:document-rotation="0" />
<inkscape:perspective
   sodipodi:type="inkscape:persp3d"
   inkscape:vp_x="0 : 247.12199 : 1"
   inkscape:vp_y="0 : 1000 : 0"
   inkscape:vp_z="489.31 : 247.12199 : 1"
   id="perspective248"
   inkscape:persp3d-origin="244.655 : 164.748 : 1">
	</inkscape:perspective>
<inkscape:perspective
   sodipodi:type="inkscape:persp3d"
   inkscape:vp_x="0 : 24 : 1"
   inkscape:vp_y="0 : 1000 : 0"
   inkscape:vp_z="48 : 24 : 1"
   id="perspective3079"
   inkscape:persp3d-origin="24 : 16 : 1">
	</inkscape:perspective>
<rect
   x="14.570992"
   y="183.51439"
   width="98.484779"
   height="36.507153"
   id="rect5"
   style="fill:#1a1a1a;fill-opacity:1" />
<rect
   x="14.570992"
   y="280.2106"
   width="98.484779"
   height="36.507153"
   id="rect7"
   style="fill:#1a1a1a;fill-opacity:1" />
<rect
   x="136.25061"
   y="183.51439"
   width="98.484779"
   height="36.507153"
   id="rect9"
   style="fill:#1a1a1a;fill-opacity:1" />
<rect
   x="136.25061"
   y="280.2106"
   width="98.484779"
   height="36.507153"
   id="rect11"
   style="fill:#1a1a1a;fill-opacity:1" />
<path
   d="m 125.35931,183.5144 c 0,-3.05643 -0.25756,-5.97996 -0.70612,-8.7088 -0.45,2.72884 -0.70612,5.65237 -0.70612,8.7088 v 36.50715 c 0,3.05642 0.25756,5.97996 0.70612,8.70883 0.45,-2.72887 0.70612,-5.65241 0.70612,-8.70883 V 183.5144 z"
   id="path13"
   inkscape:connector-curvature="0"
   style="fill:#b3b3b3" />
<rect
   x="257.93167"
   y="280.2106"
   width="98.484779"
   height="36.507153"
   id="rect15"
   style="fill:#1a1a1a;fill-opacity:1" />
<rect
   x="257.93167"
   y="183.51439"
   width="98.484779"
   height="36.507153"
   id="rect17"
   style="fill:#1a1a1a;fill-opacity:1" />
<path
   d="m 247.04038,183.5144 c 0,-3.05643 -0.25756,-5.97996 -0.70612,-8.7088 -0.45,2.72884 -0.70612,5.65237 -0.70612,8.7088 v 36.50715 c 0,3.05642 0.25756,5.97996 0.70612,8.70883 0.45,-2.72887 0.70612,-5.65241 0.70612,-8.70883 V 183.5144 z"
   id="path19"
   inkscape:connector-curvature="0"
   style="fill:#b3b3b3" />
<rect
   x="379.61273"
   y="280.2106"
   width="98.484779"
   height="36.507153"
   id="rect21"
   style="fill:#1a1a1a;fill-opacity:1" />
<rect
   x="379.61273"
   y="183.51439"
   width="98.484779"
   height="36.507153"
   id="rect23"
   style="fill:#1a1a1a;fill-opacity:1" />
<path
   d="m 368.72145,183.5144 c 0,-3.05643 -0.25756,-5.97996 -0.70612,-8.7088 -0.45,2.72884 -0.70612,5.65237 -0.70612,8.7088 v 36.50715 c 0,3.05642 0.25756,5.97996 0.70612,8.70883 0.45,-2.72887 0.70612,-5.65241 0.70612,-8.70883 V 183.5144 z"
   id="path25"
   inkscape:connector-curvature="0"
   style="fill:#b3b3b3" />
<path
   d="m 478.09753,253.92966 h -98.48478 c -5.3639,0 -9.9146,7.34285 -11.59887,17.57214 -1.68427,-10.22621 -6.23497,-17.57214 -11.59887,-17.57214 h -98.48477 c -5.36535,0 -9.91461,7.34285 -11.59887,17.57214 -1.68427,-10.22621 -6.23353,-17.57214 -11.59888,-17.57214 h -98.48188 c -5.36534,0 -9.9146,7.34285 -11.59887,17.57214 -1.68427,-10.22621 -6.23352,-17.57214 -11.59886,-17.57214 H 14.57099 C 7.774595,253.92966 2.266,265.6949 2.266,280.2106 v 36.50715 c 0,14.51263 5.508595,26.28097 12.30499,26.28097 h 98.48477 c 5.36535,0 9.91461,-7.34595 11.59887,-17.57215 1.68428,10.2262 6.23353,17.57215 11.59888,17.57215 h 98.48477 c 5.36534,0 9.9146,-7.34595 11.59887,-17.57215 1.68427,10.2262 6.23353,17.57215 11.59888,17.57215 h 98.48477 c 5.3639,0 9.9146,-7.34595 11.59887,-17.57215 1.68427,10.2262 6.23497,17.57215 11.59887,17.57215 h 98.48477 c 6.79495,0 12.305,-11.76834 12.305,-26.28097 V 280.2106 c -0.006,-14.5157 -5.51583,-26.28094 -12.31078,-26.28094 z M 14.57099,280.2106 h 98.48477 v 36.50715 H 14.57099 V 280.2106 z m 121.67962,0 h 98.48478 v 36.50715 H 136.25061 V 280.2106 z m 121.68107,0 h 98.48478 v 36.50715 H 257.93168 V 280.2106 z m 121.68107,0 h 98.48478 v 36.50715 H 379.61275 V 280.2106 z"
   id="path27"
   inkscape:connector-curvature="0"
   style="fill:#f2f2f2;fill-opacity:1" />
<g
   id="g29"
   transform="matrix(1.446965,0,0,3.0904217,-6.8006824,-479.93733)"
   style="fill:#f2f2f2;fill-opacity:1">
	<path
   d="m 90.359,214.68 c 0,-0.989 0.178,-1.935 0.488,-2.818 -1.164,-3.309 -4.308,-5.686 -8.016,-5.686 H 14.77 c -4.697,0 -8.504,3.807 -8.504,8.504 v 11.813 c 0,4.697 3.807,8.504 8.504,8.504 h 68.063 c 3.708,0 6.852,-2.376 8.016,-5.686 -0.311,-0.883 -0.488,-1.829 -0.488,-2.818 V 214.68 z m -75.589,0 h 68.063 v 11.813 H 14.77 V 214.68 z"
   id="path31"
   inkscape:connector-curvature="0"
   style="fill:#f2f2f2;fill-opacity:1" />
	<path
   d="m 174.453,214.68 c 0,-0.989 0.178,-1.935 0.488,-2.818 -1.164,-3.309 -4.308,-5.686 -8.016,-5.686 H 98.863 c -3.708,0 -6.852,2.376 -8.016,5.686 0.311,0.883 0.488,1.829 0.488,2.818 v 11.813 c 0,0.989 -0.178,1.935 -0.488,2.818 1.164,3.309 4.308,5.686 8.016,5.686 h 68.063 c 3.708,0 6.852,-2.376 8.016,-5.686 -0.311,-0.883 -0.488,-1.829 -0.488,-2.818 V 214.68 z m -75.59,0 h 68.063 v 11.813 H 98.863 V 214.68 z"
   id="path33"
   inkscape:connector-curvature="0"
   style="fill:#f2f2f2;fill-opacity:1" />
	<path
   d="m 258.547,214.68 c 0,-0.989 0.178,-1.935 0.488,-2.818 -1.164,-3.309 -4.309,-5.686 -8.016,-5.686 h -68.063 c -3.708,0 -6.852,2.376 -8.016,5.686 0.311,0.883 0.488,1.829 0.488,2.818 v 11.813 c 0,0.989 -0.178,1.935 -0.488,2.818 1.164,3.309 4.308,5.686 8.016,5.686 h 68.063 c 3.707,0 6.852,-2.376 8.016,-5.686 -0.311,-0.883 -0.488,-1.829 -0.488,-2.818 V 214.68 z m -75.59,0 h 68.063 v 11.813 H 182.957 V 214.68 z"
   id="path35"
   inkscape:connector-curvature="0"
   style="fill:#f2f2f2;fill-opacity:1" />
	<path
   d="m 335.114,206.176 h -68.063 c -3.707,0 -6.852,2.376 -8.016,5.686 0.311,0.883 0.488,1.829 0.488,2.818 v 11.813 c 0,0.989 -0.178,1.935 -0.488,2.818 1.164,3.309 4.309,5.686 8.016,5.686 h 68.063 c 4.696,0 8.504,-3.807 8.504,-8.504 V 214.68 c 0,-4.697 -3.808,-8.504 -8.504,-8.504 z m -68.063,8.504 h 68.063 v 11.813 H 267.051 V 214.68 z"
   id="path37"
   inkscape:connector-curvature="0"
   style="fill:#f2f2f2;fill-opacity:1" />
</g>
</svg>
