<?xml version="1.0" encoding="UTF-8" standalone="no"?>
<!-- Created with Sodipodi ("http://www.sodipodi.com/") -->

<svg
   xmlns:dc="http://purl.org/dc/elements/1.1/"
   xmlns:cc="http://creativecommons.org/ns#"
   xmlns:rdf="http://www.w3.org/1999/02/22-rdf-syntax-ns#"
   xmlns:svg="http://www.w3.org/2000/svg"
   xmlns="http://www.w3.org/2000/svg"
   xmlns:xlink="http://www.w3.org/1999/xlink"
   xmlns:sodipodi="http://sodipodi.sourceforge.net/DTD/sodipodi-0.dtd"
   xmlns:inkscape="http://www.inkscape.org/namespaces/inkscape"
   version="1"
   x="0.00000000"
   y="0.00000000"
   width="640"
   height="480"
   id="svg557"
   sodipodi:version="0.32"
   sodipodi:docname="hr.svg"
   inkscape:version="0.48.1 r9760">
  <sodipodi:namedview
     id="base"
     showgrid="false"
     inkscape:zoom="0.98242188"
     inkscape:cx="256"
     inkscape:cy="256"
     inkscape:window-width="1280"
     inkscape:window-height="746"
     inkscape:window-x="0"
     inkscape:window-y="24"
     inkscape:window-maximized="1"
     inkscape:current-layer="svg557" />
  <metadata
     id="metadata3779">
    <rdf:RDF>
      <cc:Work
         rdf:about="">
        <dc:format>image/svg+xml</dc:format>
        <dc:type
           rdf:resource="http://purl.org/dc/dcmitype/StillImage" />
      </cc:Work>
    </rdf:RDF>
  </metadata>
  <defs
     id="defs559">
    <linearGradient
       spreadMethod="pad"
       gradientUnits="objectBoundingBox"
       id="linearGradient684"
       y2="0.00000000"
       x2="1.00000000"
       y1="0.00000000"
       x1="0.00000000">
      <stop
         id="stop685"
         offset="0.00000000"
         style="stop-color:#000000;stop-opacity:1;" />
      <stop
         id="stop686"
         offset="1.00000000"
         style="stop-color:#ffffff;stop-opacity:1;" />
    </linearGradient>
    <linearGradient
       spreadMethod="pad"
       gradientUnits="objectBoundingBox"
       xlink:href="#linearGradient684"
       id="linearGradient687"
       y2="0.00000000"
       x2="1.00000000"
       y1="0.00000000"
       x1="0.00000000" />
    <clipPath
       clipPathUnits="userSpaceOnUse"
       id="clipPath9804">
      <rect
         id="rect9806"
         height="494.06686"
         x="239.91339"
         style="fill:#000000;fill-opacity:0.67000002;stroke:none"
         width="494.06686"
         y="2.9170465" />
    </clipPath>
    <clipPath
       id="clipPath3618"
       clipPathUnits="userSpaceOnUse">
      <rect
         y="0"
         width="512"
         style="fill:#000000;fill-opacity:0.67000002;stroke:none"
         x="0"
         height="512"
         id="rect3620" />
    </clipPath>
    <clipPath
       id="clipPath4241"
       clipPathUnits="userSpaceOnUse">
      <rect
         y="-1.155316e-05"
         width="682.66669"
         style="fill:#000000;fill-opacity:0.67000002;stroke:none"
         x="-89.83757"
         height="512.00006"
         id="rect4243" />
    </clipPath>
    <clipPath
       clipPathUnits="userSpaceOnUse"
       id="clipPath3868">
      <rect
         id="rect3870"
         height="480"
         x="0"
         style="fill:#000000;fill-opacity:0.67000002;stroke:none"
         width="640"
         y="0" />
    </clipPath>
  </defs>
  <g
     id="flag"
     clip-path="url(#clipPath3868)"
     inkscape:label="#g3472">
    <rect
       style="font-size:12px;fill:#ffffff;fill-opacity:1;fill-rule:evenodd;stroke-width:1pt"
       id="rect675"
       width="936.33905"
       height="170.15332"
       x="-148.85994"
       y="135.65935" />
    <rect
       id="rect714"
       style="font-size:12px;fill:#003e9f;fill-rule:evenodd;stroke-width:1pt"
       y="289.76468"
       x="-148.00731"
       height="190.23532"
       width="938.15955" />
    <rect
       id="rect713"
       style="font-size:12px;fill:#d61517;fill-rule:evenodd;stroke-width:1pt"
       y="-1.1292816e-06"
       x="-150.15227"
       height="159.51213"
       width="939.67596" />
    <g
       id="g3353"
       transform="matrix(1.2445762,0,0,1.2445762,-78.769331,-50.054282)">
      <path
         inkscape:connector-curvature="0"
         d="m 242.64457,155.16792 c 24.53567,-8.72805 51.73987,-13.4374 78.3286,-13.50445 26.58873,-0.0671 53.70466,4.10477 80.49873,13.70589 l 19.94431,-40.23457 -14.01842,-24.41855 c 0,0 -25.01092,10.27257 -25.21625,10.27257 -0.20533,0 -17.63504,-19.181621 -17.63504,-19.181621 L 342.16375,95.330331 321.1454,79.256914 301.37494,95.082377 278.29411,81.742137 261.45807,101.74782 236.22289,90.957912 l -13.50992,24.195358 19.9316,40.01465 z"
         style="font-size:12px;fill:#ffffff;fill-rule:evenodd;stroke:#e5141d;stroke-width:1.06619179;stroke-linecap:round"
         id="path683" />
      <path
         inkscape:connector-curvature="0"
         d="m 370.50292,144.00726 11.42049,-40.3713 24.4571,-9.92514 12.88476,21.63441 -18.49954,37.83876 c -10.63425,-4.2488 -16.33129,-6.06906 -30.26281,-9.17673 z"
         style="font-size:12px;fill:#00a7bd;fill-rule:evenodd;stroke:#0084fd;stroke-width:0.26654766pt"
         id="path680" />
      <path
         inkscape:connector-curvature="0"
         d="m 273.68951,144.11239 -10.6749,-39.68979 16.06148,-19.712378 22.85406,13.193919 3.85712,41.721319 c -11.16685,0.82858 -19.23802,1.88913 -32.09776,4.48693 z"
         style="font-size:12px;fill:none;stroke-width:1pt;stroke-opacity:0.99607801"
         id="path671" />
      <path
         inkscape:connector-curvature="0"
         d="m 306.10485,139.63543 -3.85654,-41.810856 19.43586,-15.44961 20.30678,15.412262 -3.58836,41.885764 c -11.18893,-0.59169 -19.17957,-0.57387 -32.29774,-0.0376 z"
         style="font-size:12px;fill:#00a7bd;fill-rule:evenodd;stroke:#0084fd;stroke-width:0.26654773pt"
         id="path672" />
      <path
         inkscape:connector-curvature="0"
         d="m 243.60585,153.16015 -18.11732,-38.32157 12.10773,-21.154803 25.09919,10.924293 10.60525,39.53547 c -11.45968,2.36972 -17.52821,4.30595 -29.69485,9.01661 z"
         style="font-size:12px;fill:#00a7bd;fill-rule:evenodd;stroke:#0084fd;stroke-width:0.26654794pt;stroke-opacity:0.99607801"
         id="path670" />
      <path
         inkscape:connector-curvature="0"
         d="m 237.97316,131.93404 c 5.70454,1.15503 9.76951,1.19648 14.88537,-0.20619 6.11131,-2.50251 8.26987,-5.8715 10.25997,-8.5802 0.92521,5.72022 -0.042,10.90399 -7.02199,14.56153 -6.26551,2.8877 -14.71734,1.07266 -18.12335,-5.77514 z"
         style="font-size:12px;fill:#ffffff;fill-rule:evenodd;stroke:#ffffff;stroke-width:0.26654794pt"
         id="path561" />
      <g
         transform="matrix(0.26911402,0,0,0.26400632,215.85535,72.486419)"
         id="g591"
         style="font-size:12px">
        <path
           inkscape:connector-curvature="0"
           d="m 410.938,120.565 -4.063,1.016 0.156,7.5 -5,1.094 -3.497,6.614 2.159,2.044 c 0.111,0.221 -1.703,4.892 -1.625,4.892 0.078,0 1.323,1.762 1.323,1.762 l 1.328,4.063 3.359,0.468 0.86,4.766 5.312,0.859 4.922,3.516 0.312,2.188 5.625,0.156 3.829,1.25 13.359,-1.563 1.797,-2.812 0.156,-3.828 7.188,-0.235 0.657,-6.105 3.809,0 -0.474,-6.875 3.177,0.286 -0.82,-3.295 -1.975,-2.683 -0.39,-4.218 -5.625,-5.625 -1.25,-7.344 c 0,0 -3.594,-1.641 -3.594,-1.719 0,-0.078 -0.234,-4.922 -0.234,-4.922 l 4.062,-5.703 -0.39,-2.265 -3.75,-0.079 -2.813,2.344 c 0,0 -3.75,0.391 -3.75,0.469 0,0.078 0,1.719 0,1.719 0,0 0.938,3.203 0.938,3.281 0,0.078 -4.297,0 -4.297,0 l -0.157,-5.078 -6.093,-3.047 c 0,0 -5.703,3.906 -5.703,3.984 0,0.078 -0.313,4.532 -0.313,4.532 l -2.734,0.781 -2.813,-4.219 -4.922,-1.875 -2.656,-0.156 -0.078,3.281 5.156,6.797 -0.468,3.984 z"
           style="fill:#faf703;fill-opacity:0.99607801;fill-rule:evenodd;stroke:#544b20;stroke-width:1pt;stroke-opacity:0.99607801"
           id="path568" />
        <path
           inkscape:connector-curvature="0"
           d="m 449.234,148.039 -1.105,-4.088"
           style="fill:none;stroke:#544b20;stroke-width:1pt"
           id="path570" />
        <path
           inkscape:connector-curvature="0"
           d="m 452.327,141.299 -1.878,-2.762"
           style="fill:none;stroke:#544b20;stroke-width:1pt"
           id="path571" />
        <path
           inkscape:connector-curvature="0"
           d="m 400.841,138.206 5.856,-0.332 1.105,5.303 1.988,1.768 0.332,9.723 1.878,0.773 0.553,-3.867 4.53,-0.331 0.883,7.844 -1.104,0.995 0.442,1.215 5.413,-0.11 c 0,0 1.216,-2.1 1.326,-2.1 0.111,0 3.094,-0.331 3.094,-0.221 0,0.111 1.215,2.321 1.215,2.321 l 0.884,-2.984 c 0,0 2.873,-1.215 2.873,-1.104 0,0.11 2.32,3.756 2.32,3.756 l 3.977,-0.552 -2.43,-2.32 -0.995,-5.083 5.524,-2.983 2.21,3.757 c 0,0 2.099,0.11 1.989,0 -0.111,-0.111 -2.431,-4.309 -2.431,-4.309 l 0,-8.839 4.199,-5.745 5.855,-0.663 0,-2.431 -5.855,-5.414 -1.547,-7.513 -3.315,-1.657 -0.884,0.994 -3.646,0.332 3.646,5.414 0,3.535 1.658,0.884 -0.332,9.723 c 0,0 -4.088,0.552 -4.088,0.663 0,0.11 -0.331,5.413 -0.331,5.413 l -2.541,2.542 c 0,0 -1.437,5.082 -1.547,5.082 -0.111,0 -2.431,3.093 -2.431,3.093 l -4.53,0.111 c 0,0 -2.651,-2.541 -2.651,-2.652 0,-0.11 -0.442,-3.756 -0.442,-3.756 0,0 -1.768,-0.553 -1.879,-0.553 -0.11,0 -0.994,-4.088 -0.994,-4.088 l -3.094,-1.767 -0.22,-2.431 -2.984,-1.326 c 0,0 -0.331,-2.21 -0.442,-2.32 -0.11,-0.111 -1.436,-0.994 -1.546,-0.994 -0.111,0 -0.111,-6.077 -0.111,-6.077 l 2.652,-0.442 -1.485,-1.94 -0.504,-1.706 0,-1.768 2.21,-2.21 c 0,0 -3.978,-0.552 -3.978,-0.442 0,0.111 -3.866,1.768 -3.866,1.658 0.11,0 -0.111,7.181 -0.111,7.181 l -4.53,1.437 -3.646,5.855 1.878,1.658 z"
           style="fill:#544b20;fill-rule:evenodd;stroke:#544b21;stroke-width:1pt;stroke-opacity:0.99998803"
           id="path576" />
        <path
           inkscape:connector-curvature="0"
           d="m 423.712,148.039 2.983,-1.768 -0.111,-3.425 -2.872,-0.663 -1.106,-1.105 3.205,0.553 3.977,-0.332 1.326,-0.663 c -0.552,1.437 -0.994,1.326 -1.105,1.326 -0.11,0 -2.209,1.105 -2.209,1.105 l 0.11,3.315 c 0,0 6.85,0.883 6.74,0.883 -0.111,0 0,1.326 -0.221,1.326 -0.221,0 -7.071,-1.547 -7.071,-1.547 l -4.309,2.652 0.663,-1.657 z"
           style="fill:#544b20;fill-rule:evenodd;stroke:#544b20;stroke-width:1pt"
           id="path577" />
        <path
           inkscape:connector-curvature="0"
           d="m 440.947,127.489 -3.977,3.093 -2.541,4.53 -1.326,0.221 -3.867,-5.193 -4.419,0.111 c 0,0 -2.431,6.076 -2.431,6.187 0,0.11 -1.768,-0.221 -1.768,-0.221 l -4.64,-5.082 c 0,0 -1.437,-2.542 -1.216,-2.542 0.221,0 11.601,0.111 11.601,0.111 l -0.11,-5.524 c 0,0 -1.768,-0.553 -2.652,-1.105 0.663,-0.221 6.298,-0.221 6.298,-0.221 l -2.431,1.657 0,4.751 10.054,0.11 3.425,-0.883 z"
           style="fill:#544b20;fill-rule:evenodd;stroke:#544b20;stroke-width:1pt;stroke-opacity:0.99999599"
           id="path578" />
        <rect
           width="2.6516111"
           height="2.6515961"
           ry="1.325798"
           x="419.51321"
           y="130.14011"
           style="fill:#796a3a;fill-opacity:0.99607903;fill-rule:evenodd;stroke-width:1pt"
           id="rect579" />
        <rect
           width="2.6516111"
           height="2.6515961"
           ry="1.325798"
           x="432.10858"
           y="129.58777"
           style="fill:#7a6b3a;fill-rule:evenodd;stroke-width:1pt"
           id="rect580" />
        <path
           inkscape:connector-curvature="0"
           d="m 413.547,121.301 c 4.198,-1.694 7.181,-3.056 12.374,-3.535 4.898,-0.516 8.692,0.184 13.037,0.994"
           style="fill:none;stroke:#544b20;stroke-width:1pt"
           id="path581" />
        <path
           inkscape:connector-curvature="0"
           d="m 415.867,112.352 -3.425,0 -4.862,-5.193 2.763,0.332 3.204,1.436 2.32,3.425 z"
           style="fill:#544b20;fill-rule:evenodd;stroke:#544b20;stroke-width:1pt"
           id="path584" />
        <path
           inkscape:connector-curvature="0"
           d="m 436.528,110.363 7.734,-5.965 -2.541,-0.332 -2.873,2.651 -3.425,0.553 1.105,3.093 z"
           style="fill:#544b20;fill-rule:evenodd;stroke:#544b20;stroke-width:1pt"
           id="path585" />
        <path
           inkscape:connector-curvature="0"
           d="m 431.968,111.459 -12.123,0.451 0.11,-1.326 4.42,-0.442 0.552,-1.767 c 0,0 1.326,-0.11 1.326,0 0,0.111 0.994,1.657 0.994,1.657 l 4.309,0.773 0.412,0.654 z"
           style="fill:#544b20;fill-rule:evenodd;stroke:#544b20;stroke-width:1pt"
           id="path586" />
        <path
           inkscape:connector-curvature="0"
           d="m 431.335,106.828 -4.198,0.11 -0.332,-2.32 4.53,2.21 z"
           style="fill:#544b20;fill-rule:evenodd;stroke:#544b20;stroke-width:1pt"
           id="path587" />
        <path
           inkscape:connector-curvature="0"
           d="m 424.264,104.729 -0.332,2.319 -4.087,0.663 4.419,-2.982 z"
           style="fill:#544b20;fill-rule:evenodd;stroke:#544b20;stroke-width:1pt"
           id="path588" />
        <path
           inkscape:connector-curvature="0"
           d="m 401.062,147.044 2.099,-5.303 -1.878,-3.646 -1.878,5.414 1.657,3.535 z"
           style="fill:#544b20;fill-rule:evenodd;stroke:#544b20;stroke-width:1pt"
           id="path589" />
        <path
           inkscape:connector-curvature="0"
           d="m 405.371,149.807 2.541,-6.298 -4.861,5.082 2.32,1.216 z"
           transform="translate(-0.110473,0.110443)"
           style="fill:#544b20;fill-rule:evenodd;stroke:#544b20;stroke-width:1pt"
           id="path590" />
      </g>
      <g
         transform="matrix(0.26911402,0,0,0.26400632,197.80597,73.069363)"
         id="g576"
         style="font-size:12px">
        <path
           inkscape:connector-curvature="0"
           d="m 410.938,120.565 -4.063,1.016 0.156,7.5 -5,1.094 -3.497,6.614 2.159,2.044 c 0.111,0.221 -1.703,4.892 -1.625,4.892 0.078,0 1.323,1.762 1.323,1.762 l 1.328,4.063 3.359,0.468 0.86,4.766 5.312,0.859 4.922,3.516 0.312,2.188 5.625,0.156 3.829,1.25 13.359,-1.563 1.797,-2.812 0.156,-3.828 7.188,-0.235 0.657,-6.105 3.809,0 -0.474,-6.875 3.177,0.286 -0.82,-3.295 -1.975,-2.683 -0.39,-4.218 -5.625,-5.625 -1.25,-7.344 c 0,0 -3.594,-1.641 -3.594,-1.719 0,-0.078 -0.234,-4.922 -0.234,-4.922 l 4.062,-5.703 -0.39,-2.265 -3.75,-0.079 -2.813,2.344 c 0,0 -3.75,0.391 -3.75,0.469 0,0.078 0,1.719 0,1.719 0,0 0.938,3.203 0.938,3.281 0,0.078 -4.297,0 -4.297,0 l -0.157,-5.078 -6.093,-3.047 c 0,0 -5.703,3.906 -5.703,3.984 0,0.078 -0.313,4.532 -0.313,4.532 l -2.734,0.781 -2.813,-4.219 -4.922,-1.875 -2.656,-0.156 -0.078,3.281 5.156,6.797 -0.468,3.984 z"
           style="fill:#faf703;fill-opacity:0.99607801;fill-rule:evenodd;stroke:#544b20;stroke-width:1pt;stroke-opacity:0.99607801"
           id="path579" />
        <path
           inkscape:connector-curvature="0"
           d="m 449.234,148.039 -1.105,-4.088"
           style="fill:none;stroke:#544b20;stroke-width:1pt"
           id="path580" />
        <path
           inkscape:connector-curvature="0"
           d="m 452.327,141.299 -1.878,-2.762"
           style="fill:none;stroke:#544b20;stroke-width:1pt"
           id="path591" />
        <path
           inkscape:connector-curvature="0"
           d="m 400.841,138.206 5.856,-0.332 1.105,5.303 1.988,1.768 0.332,9.723 1.878,0.773 0.553,-3.867 4.53,-0.331 0.883,7.844 -1.104,0.995 0.442,1.215 5.413,-0.11 c 0,0 1.216,-2.1 1.326,-2.1 0.111,0 3.094,-0.331 3.094,-0.221 0,0.111 1.215,2.321 1.215,2.321 l 0.884,-2.984 c 0,0 2.873,-1.215 2.873,-1.104 0,0.11 2.32,3.756 2.32,3.756 l 3.977,-0.552 -2.43,-2.32 -0.995,-5.083 5.524,-2.983 2.21,3.757 c 0,0 2.099,0.11 1.989,0 -0.111,-0.111 -2.431,-4.309 -2.431,-4.309 l 0,-8.839 4.199,-5.745 5.855,-0.663 0,-2.431 -5.855,-5.414 -1.547,-7.513 -3.315,-1.657 -0.884,0.994 -3.646,0.332 3.646,5.414 0,3.535 1.658,0.884 -0.332,9.723 c 0,0 -4.088,0.552 -4.088,0.663 0,0.11 -0.331,5.413 -0.331,5.413 l -2.541,2.542 c 0,0 -1.437,5.082 -1.547,5.082 -0.111,0 -2.431,3.093 -2.431,3.093 l -4.53,0.111 c 0,0 -2.651,-2.541 -2.651,-2.652 0,-0.11 -0.442,-3.756 -0.442,-3.756 0,0 -1.768,-0.553 -1.879,-0.553 -0.11,0 -0.994,-4.088 -0.994,-4.088 l -3.094,-1.767 -0.22,-2.431 -2.984,-1.326 c 0,0 -0.331,-2.21 -0.442,-2.32 -0.11,-0.111 -1.436,-0.994 -1.546,-0.994 -0.111,0 -0.111,-6.077 -0.111,-6.077 l 2.652,-0.442 -1.485,-1.94 -0.504,-1.706 0,-1.768 2.21,-2.21 c 0,0 -3.978,-0.552 -3.978,-0.442 0,0.111 -3.866,1.768 -3.866,1.658 0.11,0 -0.111,7.181 -0.111,7.181 l -4.53,1.437 -3.646,5.855 1.878,1.658 z"
           style="fill:#544b20;fill-rule:evenodd;stroke:#544b21;stroke-width:1pt;stroke-opacity:0.99998803"
           id="path592" />
        <path
           inkscape:connector-curvature="0"
           d="m 423.712,148.039 2.983,-1.768 -0.111,-3.425 -2.872,-0.663 -1.106,-1.105 3.205,0.553 3.977,-0.332 1.326,-0.663 c -0.552,1.437 -0.994,1.326 -1.105,1.326 -0.11,0 -2.209,1.105 -2.209,1.105 l 0.11,3.315 c 0,0 6.85,0.883 6.74,0.883 -0.111,0 0,1.326 -0.221,1.326 -0.221,0 -7.071,-1.547 -7.071,-1.547 l -4.309,2.652 0.663,-1.657 z"
           style="fill:#544b20;fill-rule:evenodd;stroke:#544b20;stroke-width:1pt"
           id="path593" />
        <path
           inkscape:connector-curvature="0"
           d="m 440.947,127.489 -3.977,3.093 -2.541,4.53 -1.326,0.221 -3.867,-5.193 -4.419,0.111 c 0,0 -2.431,6.076 -2.431,6.187 0,0.11 -1.768,-0.221 -1.768,-0.221 l -4.64,-5.082 c 0,0 -1.437,-2.542 -1.216,-2.542 0.221,0 11.601,0.111 11.601,0.111 l -0.11,-5.524 c 0,0 -1.768,-0.553 -2.652,-1.105 0.663,-0.221 6.298,-0.221 6.298,-0.221 l -2.431,1.657 0,4.751 10.054,0.11 3.425,-0.883 z"
           style="fill:#544b20;fill-rule:evenodd;stroke:#544b20;stroke-width:1pt;stroke-opacity:0.99999599"
           id="path594" />
        <rect
           width="2.6516111"
           height="2.6515961"
           ry="1.325798"
           x="419.51321"
           y="130.14011"
           style="fill:#796a3a;fill-opacity:0.99607903;fill-rule:evenodd;stroke-width:1pt"
           id="rect595" />
        <rect
           width="2.6516111"
           height="2.6515961"
           ry="1.325798"
           x="432.10858"
           y="129.58777"
           style="fill:#7a6b3a;fill-rule:evenodd;stroke-width:1pt"
           id="rect596" />
        <path
           inkscape:connector-curvature="0"
           d="m 413.547,121.301 c 4.198,-1.694 7.181,-3.056 12.374,-3.535 4.898,-0.516 8.692,0.184 13.037,0.994"
           style="fill:none;stroke:#544b20;stroke-width:1pt"
           id="path597" />
        <path
           inkscape:connector-curvature="0"
           d="m 415.867,112.352 -3.425,0 -4.862,-5.193 2.763,0.332 3.204,1.436 2.32,3.425 z"
           style="fill:#544b20;fill-rule:evenodd;stroke:#544b20;stroke-width:1pt"
           id="path600" />
        <path
           inkscape:connector-curvature="0"
           d="m 436.528,110.363 7.734,-5.965 -2.541,-0.332 -2.873,2.651 -3.425,0.553 1.105,3.093 z"
           style="fill:#544b20;fill-rule:evenodd;stroke:#544b20;stroke-width:1pt"
           id="path601" />
        <path
           inkscape:connector-curvature="0"
           d="m 431.968,111.459 -12.123,0.451 0.11,-1.326 4.42,-0.442 0.552,-1.767 c 0,0 1.326,-0.11 1.326,0 0,0.111 0.994,1.657 0.994,1.657 l 4.309,0.773 0.412,0.654 z"
           style="fill:#544b20;fill-rule:evenodd;stroke:#544b20;stroke-width:1pt"
           id="path602" />
        <path
           inkscape:connector-curvature="0"
           d="m 431.335,106.828 -4.198,0.11 -0.332,-2.32 4.53,2.21 z"
           style="fill:#544b20;fill-rule:evenodd;stroke:#544b20;stroke-width:1pt"
           id="path603" />
        <path
           inkscape:connector-curvature="0"
           d="m 424.264,104.729 -0.332,2.319 -4.087,0.663 4.419,-2.982 z"
           style="fill:#544b20;fill-rule:evenodd;stroke:#544b20;stroke-width:1pt"
           id="path604" />
        <path
           inkscape:connector-curvature="0"
           d="m 401.062,147.044 2.099,-5.303 -1.878,-3.646 -1.878,5.414 1.657,3.535 z"
           style="fill:#544b20;fill-rule:evenodd;stroke:#544b20;stroke-width:1pt"
           id="path605" />
        <path
           inkscape:connector-curvature="0"
           d="m 405.371,149.807 2.541,-6.298 -4.861,5.082 2.32,1.216 z"
           transform="translate(-0.110473,0.110443)"
           style="fill:#544b20;fill-rule:evenodd;stroke:#544b20;stroke-width:1pt"
           id="path606" />
      </g>
      <path
         inkscape:connector-curvature="0"
         d="m 338.69051,139.61603 3.61337,-41.934581 22.20673,-12.776533 17.16588,18.604664 -11.44038,40.40086 c -11.08899,-2.26448 -17.41586,-3.23485 -31.5456,-4.29441 z"
         style="font-size:12px;fill:#001070;fill-rule:evenodd;stroke:#001071;stroke-width:0.26654727pt;stroke-opacity:0.99607801"
         id="path673" />
      <g
         transform="matrix(0.26911402,0,0,0.26400632,207.16487,88.73592)"
         id="g607"
         style="font-size:12px">
        <path
           inkscape:connector-curvature="0"
           d="m 410.938,120.565 -4.063,1.016 0.156,7.5 -5,1.094 -3.497,6.614 2.159,2.044 c 0.111,0.221 -1.703,4.892 -1.625,4.892 0.078,0 1.323,1.762 1.323,1.762 l 1.328,4.063 3.359,0.468 0.86,4.766 5.312,0.859 4.922,3.516 0.312,2.188 5.625,0.156 3.829,1.25 13.359,-1.563 1.797,-2.812 0.156,-3.828 7.188,-0.235 0.657,-6.105 3.809,0 -0.474,-6.875 3.177,0.286 -0.82,-3.295 -1.975,-2.683 -0.39,-4.218 -5.625,-5.625 -1.25,-7.344 c 0,0 -3.594,-1.641 -3.594,-1.719 0,-0.078 -0.234,-4.922 -0.234,-4.922 l 4.062,-5.703 -0.39,-2.265 -3.75,-0.079 -2.813,2.344 c 0,0 -3.75,0.391 -3.75,0.469 0,0.078 0,1.719 0,1.719 0,0 0.938,3.203 0.938,3.281 0,0.078 -4.297,0 -4.297,0 l -0.157,-5.078 -6.093,-3.047 c 0,0 -5.703,3.906 -5.703,3.984 0,0.078 -0.313,4.532 -0.313,4.532 l -2.734,0.781 -2.813,-4.219 -4.922,-1.875 -2.656,-0.156 -0.078,3.281 5.156,6.797 -0.468,3.984 z"
           style="fill:#faf703;fill-opacity:0.99607801;fill-rule:evenodd;stroke:#544b20;stroke-width:1pt;stroke-opacity:0.99607801"
           id="path608" />
        <path
           inkscape:connector-curvature="0"
           d="m 449.234,148.039 -1.105,-4.088"
           style="fill:none;stroke:#544b20;stroke-width:1pt"
           id="path609" />
        <path
           inkscape:connector-curvature="0"
           d="m 452.327,141.299 -1.878,-2.762"
           style="fill:none;stroke:#544b20;stroke-width:1pt"
           id="path610" />
        <path
           inkscape:connector-curvature="0"
           d="m 400.841,138.206 5.856,-0.332 1.105,5.303 1.988,1.768 0.332,9.723 1.878,0.773 0.553,-3.867 4.53,-0.331 0.883,7.844 -1.104,0.995 0.442,1.215 5.413,-0.11 c 0,0 1.216,-2.1 1.326,-2.1 0.111,0 3.094,-0.331 3.094,-0.221 0,0.111 1.215,2.321 1.215,2.321 l 0.884,-2.984 c 0,0 2.873,-1.215 2.873,-1.104 0,0.11 2.32,3.756 2.32,3.756 l 3.977,-0.552 -2.43,-2.32 -0.995,-5.083 5.524,-2.983 2.21,3.757 c 0,0 2.099,0.11 1.989,0 -0.111,-0.111 -2.431,-4.309 -2.431,-4.309 l 0,-8.839 4.199,-5.745 5.855,-0.663 0,-2.431 -5.855,-5.414 -1.547,-7.513 -3.315,-1.657 -0.884,0.994 -3.646,0.332 3.646,5.414 0,3.535 1.658,0.884 -0.332,9.723 c 0,0 -4.088,0.552 -4.088,0.663 0,0.11 -0.331,5.413 -0.331,5.413 l -2.541,2.542 c 0,0 -1.437,5.082 -1.547,5.082 -0.111,0 -2.431,3.093 -2.431,3.093 l -4.53,0.111 c 0,0 -2.651,-2.541 -2.651,-2.652 0,-0.11 -0.442,-3.756 -0.442,-3.756 0,0 -1.768,-0.553 -1.879,-0.553 -0.11,0 -0.994,-4.088 -0.994,-4.088 l -3.094,-1.767 -0.22,-2.431 -2.984,-1.326 c 0,0 -0.331,-2.21 -0.442,-2.32 -0.11,-0.111 -1.436,-0.994 -1.546,-0.994 -0.111,0 -0.111,-6.077 -0.111,-6.077 l 2.652,-0.442 -1.485,-1.94 -0.504,-1.706 0,-1.768 2.21,-2.21 c 0,0 -3.978,-0.552 -3.978,-0.442 0,0.111 -3.866,1.768 -3.866,1.658 0.11,0 -0.111,7.181 -0.111,7.181 l -4.53,1.437 -3.646,5.855 1.878,1.658 z"
           style="fill:#544b20;fill-rule:evenodd;stroke:#544b21;stroke-width:1pt;stroke-opacity:0.99998803"
           id="path611" />
        <path
           inkscape:connector-curvature="0"
           d="m 423.712,148.039 2.983,-1.768 -0.111,-3.425 -2.872,-0.663 -1.106,-1.105 3.205,0.553 3.977,-0.332 1.326,-0.663 c -0.552,1.437 -0.994,1.326 -1.105,1.326 -0.11,0 -2.209,1.105 -2.209,1.105 l 0.11,3.315 c 0,0 6.85,0.883 6.74,0.883 -0.111,0 0,1.326 -0.221,1.326 -0.221,0 -7.071,-1.547 -7.071,-1.547 l -4.309,2.652 0.663,-1.657 z"
           style="fill:#544b20;fill-rule:evenodd;stroke:#544b20;stroke-width:1pt"
           id="path612" />
        <path
           inkscape:connector-curvature="0"
           d="m 440.947,127.489 -3.977,3.093 -2.541,4.53 -1.326,0.221 -3.867,-5.193 -4.419,0.111 c 0,0 -2.431,6.076 -2.431,6.187 0,0.11 -1.768,-0.221 -1.768,-0.221 l -4.64,-5.082 c 0,0 -1.437,-2.542 -1.216,-2.542 0.221,0 11.601,0.111 11.601,0.111 l -0.11,-5.524 c 0,0 -1.768,-0.553 -2.652,-1.105 0.663,-0.221 6.298,-0.221 6.298,-0.221 l -2.431,1.657 0,4.751 10.054,0.11 3.425,-0.883 z"
           style="fill:#544b20;fill-rule:evenodd;stroke:#544b20;stroke-width:1pt;stroke-opacity:0.99999599"
           id="path613" />
        <rect
           width="2.6516111"
           height="2.6515961"
           ry="1.325798"
           x="419.51321"
           y="130.14011"
           style="fill:#796a3a;fill-opacity:0.99607903;fill-rule:evenodd;stroke-width:1pt"
           id="rect614" />
        <rect
           width="2.6516111"
           height="2.6515961"
           ry="1.325798"
           x="432.10858"
           y="129.58777"
           style="fill:#7a6b3a;fill-rule:evenodd;stroke-width:1pt"
           id="rect615" />
        <path
           inkscape:connector-curvature="0"
           d="m 413.547,121.301 c 4.198,-1.694 7.181,-3.056 12.374,-3.535 4.898,-0.516 8.692,0.184 13.037,0.994"
           style="fill:none;stroke:#544b20;stroke-width:1pt"
           id="path616" />
        <path
           inkscape:connector-curvature="0"
           d="m 415.867,112.352 -3.425,0 -4.862,-5.193 2.763,0.332 3.204,1.436 2.32,3.425 z"
           style="fill:#544b20;fill-rule:evenodd;stroke:#544b20;stroke-width:1pt"
           id="path619" />
        <path
           inkscape:connector-curvature="0"
           d="m 436.528,110.363 7.734,-5.965 -2.541,-0.332 -2.873,2.651 -3.425,0.553 1.105,3.093 z"
           style="fill:#544b20;fill-rule:evenodd;stroke:#544b20;stroke-width:1pt"
           id="path620" />
        <path
           inkscape:connector-curvature="0"
           d="m 431.968,111.459 -12.123,0.451 0.11,-1.326 4.42,-0.442 0.552,-1.767 c 0,0 1.326,-0.11 1.326,0 0,0.111 0.994,1.657 0.994,1.657 l 4.309,0.773 0.412,0.654 z"
           style="fill:#544b20;fill-rule:evenodd;stroke:#544b20;stroke-width:1pt"
           id="path621" />
        <path
           inkscape:connector-curvature="0"
           d="m 431.335,106.828 -4.198,0.11 -0.332,-2.32 4.53,2.21 z"
           style="fill:#544b20;fill-rule:evenodd;stroke:#544b20;stroke-width:1pt"
           id="path622" />
        <path
           inkscape:connector-curvature="0"
           d="m 424.264,104.729 -0.332,2.319 -4.087,0.663 4.419,-2.982 z"
           style="fill:#544b20;fill-rule:evenodd;stroke:#544b20;stroke-width:1pt"
           id="path623" />
        <path
           inkscape:connector-curvature="0"
           d="m 401.062,147.044 2.099,-5.303 -1.878,-3.646 -1.878,5.414 1.657,3.535 z"
           style="fill:#544b20;fill-rule:evenodd;stroke:#544b20;stroke-width:1pt"
           id="path624" />
        <path
           inkscape:connector-curvature="0"
           d="m 405.371,149.807 2.541,-6.298 -4.861,5.082 2.32,1.216 z"
           transform="translate(-0.110473,0.110443)"
           style="fill:#544b20;fill-rule:evenodd;stroke:#544b20;stroke-width:1pt"
           id="path625" />
      </g>
      <path
         inkscape:connector-curvature="0"
         d="m 344.19529,132.10538 -1.11306,1.30182 0.0856,1.09193 2.31169,-0.042 c 0.74195,-0.17504 0.92737,-0.43403 1.07027,-0.73499 0.22821,-0.37093 0.0713,-0.57395 0.12836,-1.07081 l -2.48284,-0.54597 z"
         style="font-size:12px;fill:#a0210c;fill-rule:evenodd;stroke:#a0210c;stroke-width:0.26654794pt;stroke-opacity:0.99651998"
         id="path628" />
      <path
         inkscape:connector-curvature="0"
         d="m 349.76042,135.381 -0.9419,0.88178 0,1.00797 2.05496,-0.042 c 0.74194,-0.17504 0.84151,-0.3081 0.98441,-0.6088 0.22821,-0.3712 0.15717,-0.36407 0.21422,-0.86093 l -2.31169,-0.37805 z"
         style="font-size:12px;fill:#a0210c;fill-rule:evenodd;stroke:#a0210c;stroke-width:0.26654794pt;stroke-opacity:0.99651998"
         id="path629" />
      <path
         inkscape:connector-curvature="0"
         d="m 358.79298,132.56732 -1.07027,1.09193 0.0428,0.8398 2.18332,0.084 c 0.74195,-0.17504 0.62758,-0.13993 0.85605,-0.52485 0.22821,-0.37093 0.15717,-0.44802 0.21422,-0.94488 l -2.22611,-0.54596 z"
         style="font-size:12px;fill:#a0210c;fill-rule:evenodd;stroke:#a0210c;stroke-width:0.26654794pt;stroke-opacity:0.99651998"
         id="path630" />
      <path
         inkscape:connector-curvature="0"
         d="m 365.17134,134.54117 -1.24142,1.04969 0,1.04995 2.31169,0.21015 c 0.74195,-0.17504 0.799,-0.39205 0.98469,-0.65104 0.22821,-0.37093 0.1141,-0.40604 0.17115,-0.9029 l -2.22611,-0.75585 z"
         style="font-size:12px;fill:#a0210c;fill-rule:evenodd;stroke:#a0210c;stroke-width:0.26654794pt;stroke-opacity:0.99651998"
         id="path631" />
      <path
         inkscape:connector-curvature="0"
         d="m 349.63193,107.07574 4.36637,2.89773 c 0.8208,-0.68087 2.52833,-0.26823 3.19708,-0.0795 1.20079,0.31338 2.04715,1.02435 3.09589,1.21338 1.91824,0.48207 4.21648,0.81498 5.9571,0.62595 1.7409,-0.18876 3.203,-1.09853 4.48802,-1.75986 l 0,-0.41977 -0.85605,0 c -1.38971,0.50003 -3.33702,0.52748 -4.82818,0.33159 -1.49116,-0.19589 -1.89295,-0.86436 -4.11879,-1.50748 l -0.17115,-0.42003 c 2.7019,0.12831 3.25062,0.0584 4.38171,-0.43482 1.10579,-0.29357 1.60392,-0.93537 2.22826,-1.37864 l -0.0175,-0.49633 -0.81353,-0.042 c -1.04793,0.69803 -1.71587,0.82423 -3.3214,0.67718 -1.46102,-0.14785 -2.77699,-0.97947 -3.75711,-0.99689 -1.03958,0.008 -0.9906,-0.48868 -1.99601,-0.53752 -1.59827,-0.13992 -3.32572,0.0731 -4.83814,0.4372 -1.81221,0.54596 -2.08348,1.00771 -2.99658,1.88976 z"
         style="font-size:12px;fill:#a0210c;fill-rule:evenodd;stroke:#000000;stroke-width:0.26654794pt"
         id="path632" />
      <path
         inkscape:connector-curvature="0"
         d="m 350.47991,106.43314 c 0.41793,0.0951 0.88673,0.21543 1.2285,0.41001 0.34205,0.19457 0.25351,0.19061 0.62085,0.45963 -0.0589,-0.3477 -0.0422,-0.32288 -0.27853,-0.59613 -0.23656,-0.27351 -0.62516,-0.52194 -0.93733,-0.74581 l -0.63349,0.4723 z"
         style="font-size:12px;fill-rule:evenodd;stroke:#000000;stroke-width:0.26654794pt"
         id="path633" />
      <path
         inkscape:connector-curvature="0"
         d="m 354.12802,109.56452 c 0.008,-0.37673 -0.18569,-0.7041 -0.3294,-1.03121 -0.14344,-0.3271 -0.26185,-0.60483 -0.53204,-0.93194 0.33774,0.095 0.5237,0.23998 0.81084,0.58372 0.28688,0.344 0.27019,0.68774 0.32913,1.18037 l -0.27853,0.19906 z"
         style="font-size:12px;fill-rule:evenodd;stroke:#000000;stroke-width:0.26654794pt"
         id="path634" />
      <path
         inkscape:connector-curvature="0"
         d="m 354.96415,104.96685 c 0.10146,0.2611 0.30034,0.44037 0.4688,0.99742 0.14559,0.5061 0.21502,1.21443 0.21502,1.21443 -0.0549,-0.377 0.0423,-0.80364 -0.0127,-1.18064 -0.0549,-0.37674 -0.26184,-0.7041 -0.31674,-1.0811 l -0.35443,0.0499 z"
         style="font-size:12px;fill-rule:evenodd;stroke:#000000;stroke-width:0.26654794pt"
         id="path635" />
      <path
         inkscape:connector-curvature="0"
         d="m 358.51069,105.19047 0.17735,2.08776 0.20291,-1.96342 -0.38026,-0.12434 z"
         style="font-size:12px;fill-rule:evenodd;stroke:#000000;stroke-width:0.26654794pt"
         id="path636" />
      <path
         inkscape:connector-curvature="0"
         d="m 357.64948,109.51485 c 0.0845,-0.33952 0.0676,-0.67929 0.0253,-1.01907 -0.0423,-0.33951 -0.16066,-0.62939 -0.2788,-1.0188 0.33773,0.28988 0.4731,0.65447 0.65879,1.04388 0,0.38915 -0.10119,0.72866 -0.40529,0.99399 z"
         style="font-size:12px;fill-rule:evenodd;stroke:#000000;stroke-width:0.26654794pt"
         id="path637" />
      <path
         inkscape:connector-curvature="0"
         d="m 361.32283,108.59524 c 0.0127,0 0.10792,0.70833 -0.0536,1.21786 -0.16147,0.50953 -0.27557,0.54676 -0.57967,0.82027 0.40528,-0.29807 0.75998,-0.3976 0.88673,-0.72074 0.12675,-0.49713 -0.20291,-1.24268 -0.25351,-1.31739 z"
         style="font-size:12px;fill-rule:evenodd;stroke:#000000;stroke-width:0.26654794pt"
         id="path638" />
      <path
         inkscape:connector-curvature="0"
         d="m 361.95609,107.9244 c -0.25324,0.0414 -0.30383,-1.01088 -0.45588,-1.51619 0.1098,-0.0581 0.21959,-0.0414 0.32939,0.1988 0.11814,0.14098 0.0842,0.87835 0.12649,1.31739 z"
         style="font-size:12px;fill-rule:evenodd;stroke:#000000;stroke-width:0.26654794pt"
         id="path639" />
      <path
         inkscape:connector-curvature="0"
         d="m 364.46415,107.50169 0.10145,-0.8699 0.27854,-0.0248 c 0,0 0,0.72074 0,0.74556 0,0.0251 -0.35443,0.17398 -0.37999,0.14916 z"
         style="font-size:12px;fill-rule:evenodd;stroke:#000000;stroke-width:0.26654794pt"
         id="path640" />
      <path
         inkscape:connector-curvature="0"
         d="m 364.26146,109.83788 c 0.16066,0.26506 0.44754,0.58002 0.48145,0.8699 0.0339,0.28988 -0.0592,0.43086 -0.27854,0.8699 l 0.40529,0.0248 c 0.21933,-0.35192 0.28714,-0.60457 0.25351,-0.88204 -0.0339,-0.27774 -0.16928,-0.55521 -0.45615,-0.78305 l -0.40556,-0.0995 z"
         style="font-size:12px;fill-rule:evenodd;stroke:#000000;stroke-width:0.26654794pt"
         id="path641" />
      <path
         inkscape:connector-curvature="0"
         d="m 367.27644,110.06176 0.10119,1.2176 0.3294,-0.17398 -0.0759,-1.04362 -0.3547,0 z"
         style="font-size:12px;fill-rule:evenodd;stroke:#000000;stroke-width:0.26654794pt"
         id="path642" />
      <path
         inkscape:connector-curvature="0"
         d="m 349.3612,107.29064 c -0.98819,0.28592 -1.34557,0.83188 -1.82917,1.30366 l -2.78425,-1.41006 c -0.45157,0.37463 -0.62542,0.90977 -0.40825,1.45758 0.21718,0.54755 1.09072,1.40478 1.71184,1.82851 -0.15555,0.75638 -0.38484,1.32716 -0.65637,1.99061 -0.30276,0.74581 -0.95267,1.68805 -0.9715,1.9906 -0.0371,0.34638 -0.15017,1.0885 0.36788,1.28624 0.51831,0.19774 2.18466,-0.13702 2.74065,-0.10032 -0.0904,0.29754 -0.30679,0.81789 -0.23305,1.04124 0.0737,0.22335 0.2231,0.2978 0.67548,0.31074 -0.13026,0.27641 -0.41148,0.62675 -0.27665,0.79175 0.34931,0.26427 0.74948,0.2186 1.08614,0.19801 -0.53096,0.61566 -1.85742,1.80052 -2.28774,2.32985 -0.45534,0.61566 -0.49436,1.2807 0.38807,1.21549 -0.32832,0.3638 -0.64399,0.71519 -0.59367,1.02936 0.0759,0.37621 0.26508,0.6286 0.89588,0.41053 -0.37326,0.84403 -0.1281,1.60146 0.004,2.48245 -0.31863,0.66661 -0.18327,1.28386 -0.26239,2.04948 -0.6491,0.3675 -0.72983,0.8464 -1.15181,1.58536 -0.38052,0.79994 -1.08883,1.01827 -1.48174,2.73458 l 2.54717,0.63519 c 0.0936,-0.35297 0.42681,-0.58213 0.52046,-0.93484 0.0934,-0.35298 0.0861,-0.79255 0.0406,-1.18275 0.5054,-0.73183 1.52803,-2.24353 1.85662,-3.04954 0.55626,-0.297 0.96073,-0.48286 1.37813,-0.48286 0.4174,0 0.68301,0.24763 1.1257,0.48286 -0.19591,0.67929 -0.74517,1.42009 -0.77693,2.37184 l 0,2.62607 c -0.11087,0.65236 -0.85282,0.66107 -1.1658,2.6258 l 2.28828,0.59296 c 0.3886,-0.66081 1.00406,-0.75189 1.16553,-1.01642 l 0.16524,-2.72824 c 0.29118,-1.28783 2.09693,-2.35256 2.12304,-3.7518 0.64802,-0.009 0.89265,0.0573 1.14965,-0.0752 0.34527,-0.12012 0.46368,-0.31443 0.73334,-0.55837 0.10387,0.42109 0.43515,0.45805 0.71584,0.45805 0.28042,0 0.83856,-0.39601 1.06892,-0.55706 0.16201,0.22837 0.24785,0.44433 0.5864,0.52406 0.33855,0.0797 1.29525,-0.0634 1.68438,-0.15709 l -1.88029,3.0762 c -0.0702,0.29648 0.0237,0.48155 -0.12218,0.82766 -0.13671,0.31074 -0.41229,0.46043 -0.53635,0.74661 l 2.13166,0.50927 0.34016,-0.89762 c 0.45184,-0.19035 0.81568,-0.2941 1.05304,-0.58345 0.23736,-0.28935 0.2352,-0.83901 0.37165,-1.15318 0.72822,-0.52854 1.87276,-1.67618 2.6766,-2.62581 0.54577,0.0921 1.31866,0.54333 1.612,1.2176 0.0412,0.72338 0.0945,2.0537 -0.23037,2.97535 l -1.38163,2.1601 -0.15662,0.3543 2.17498,0.77485 1.38163,-1.05893 0.0538,-1.51038 c 0.69405,-1.22551 1.68708,-1.8953 2.63355,-2.66804 0,-0.0425 0.10092,-1.62206 0.063,-1.68384 -0.23387,-0.17794 -0.39183,-0.071 -0.47445,-0.39759 -0.0824,-0.32631 -0.0261,-1.22235 0.0178,-1.57348 0.13671,-0.16949 0.42493,-0.36406 0.41013,-0.50874 -0.37649,-0.41317 -0.26131,-1.48266 -0.14586,-2.31665 -0.0283,-0.94963 1.26887,-2.07245 1.46775,-2.62581 l 0.081,-0.99689 c -0.13267,-0.245 -0.32805,-0.39099 -0.33451,-0.59903 -0.006,-0.20777 0.25216,-0.55203 0.41013,-0.77248 l 0.27504,-0.46914 -0.0431,-2.45658 c -0.077,-0.26532 -0.30545,-0.67902 -0.52128,-0.72153 -0.2161,-0.0422 -0.53284,0.20038 -0.77397,0.46729 l -1.25003,0.92271 c -0.59932,0.18322 -1.12302,0.25529 -2.1766,-0.007 l -1.60715,0.0319 c -0.84394,0.23576 -1.28421,0.27378 -2.07783,-0.0723 l -0.95158,0.0153 c -0.29657,0.16157 -0.70697,0.42162 -1.02883,0.48392 -0.32159,0.062 -0.75701,0.0747 -1.07887,-0.024 -2.45648,0.16526 -1.8464,0.34268 -2.54851,0.49554 -0.5638,-0.10693 -0.38295,-0.38704 -2.57435,-0.40763 l -0.8687,-0.25424 c -1.0961,-0.72628 -1.94004,-1.88579 -2.67015,-3.21876 2.28317,-0.65395 3.24121,-1.33297 3.93391,-2.89061 l -3.22856,0.12065 -4.56552,-3.03369 z"
         style="font-size:12px;fill:#dc9103;fill-rule:evenodd;stroke:#544b20;stroke-width:0.26654794pt"
         id="path643" />
      <path
         inkscape:connector-curvature="0"
         d="m 348.21842,111.27489 0.91418,0.3873 c 0.11168,0.13279 0.32805,0.28592 0.47122,0.29489 0.14289,0.009 0.2648,-0.13702 0.38698,-0.24156 l 0.84152,-0.44063 c -0.49867,-0.0721 -0.65072,-0.38149 -1.18087,-0.38149 -0.53016,0 -0.90288,0.27826 -1.43303,0.38149 z"
         style="font-size:12px;fill-rule:evenodd;stroke:#000000;stroke-width:0.26654794pt"
         id="path644" />
      <path
         inkscape:connector-curvature="0"
         d="m 352.23399,111.5018 c 0.2971,0.1753 0.83614,0.5259 1.28045,0.5259 0.48629,-0.0412 0.47848,-0.38149 1.17495,-0.60827 l 1.02156,-0.82581 c -0.61628,0.007 -1.94758,0.12751 -2.6793,0.35113 -0.61627,0.16157 -0.75944,0.40578 -0.79766,0.55705 z"
         style="font-size:12px;fill-rule:evenodd;stroke:#000000;stroke-width:0.26654794pt"
         id="path645" />
      <path
         inkscape:connector-curvature="0"
         d="m 349.8971,122.05687 c -2.6e-4,0.0755 -0.12675,0.13068 -0.19026,0.0412 -0.0783,-1.07134 -0.31432,-1.82296 -0.6448,-2.65722 0.373,0.63467 0.68275,1.66139 0.83506,2.61604 z"
         style="font-size:12px;fill-rule:evenodd;stroke:#000000;stroke-width:0.26654794pt"
         id="path646" />
      <path
         inkscape:connector-curvature="0"
         d="m 352.50549,126.45293 c -0.41551,0.0422 -0.57913,-0.019 -0.99465,0.0232 -0.0457,-1.07794 -0.0498,-2.31059 -0.043,-3.07911 0.1585,0.0195 0.62192,0.5032 0.89614,1.26538 0.0716,0.56234 0.17493,1.19701 0.14156,1.79049 z"
         style="font-size:12px;fill-rule:evenodd;stroke:#000000;stroke-width:0.26654794pt"
         id="path647" />
      <path
         inkscape:connector-curvature="0"
         d="m 355.26556,122.17294 c 0.18731,0.0515 0.44835,0.0517 0.50944,-0.0721 0.0794,-0.22968 -0.1569,-0.47996 -0.24544,-0.76113 -0.30813,-0.60378 -0.47902,-1.25878 -0.60793,-1.54259 -0.13563,-0.0855 -0.28176,-0.0779 -0.24946,0.0636 0.1768,0.53699 0.47983,2.10519 0.59339,2.31217 z"
         style="font-size:12px;fill-rule:evenodd;stroke:#000000;stroke-width:0.26654794pt"
         id="path648" />
      <path
         inkscape:connector-curvature="0"
         d="m 358.21021,121.84794 c 0.0202,0.13016 -0.42224,-0.0591 -0.49679,-0.20724 -0.006,-0.2875 -0.602,-2.39031 -0.50351,-2.47163 0.12514,-0.0613 0.5132,0.70279 0.63834,1.05444 0.0293,0.20804 0.29037,0.97287 0.36196,1.62443 z"
         style="font-size:12px;fill-rule:evenodd;stroke:#000000;stroke-width:0.26654794pt"
         id="path649" />
      <path
         inkscape:connector-curvature="0"
         d="m 357.79281,126.18108 c -0.0105,0.14705 0.33639,0.0261 0.4731,-0.0845 0.39641,-0.61962 0.88754,-1.27014 1.03179,-1.5183 0.0869,-0.26533 0.52073,-1.95365 0.38698,-1.94018 -0.0474,-0.0489 -0.42466,0.83742 -0.91175,1.71208 -0.50675,0.89075 -0.9855,1.74561 -0.98012,1.83088 z"
         style="font-size:12px;fill-rule:evenodd;stroke:#000000;stroke-width:0.26654794pt"
         id="path650" />
      <path
         inkscape:connector-curvature="0"
         d="m 360.74607,125.27369 c -0.14425,0.0694 0.28957,-1.45969 0.32401,-1.73056 0.0794,-0.42822 0.19,-1.19674 0.36384,-2.19205 0.21234,1.39 -0.0382,2.88322 -0.68785,3.92261 z"
         style="font-size:12px;fill-rule:evenodd;stroke:#000000;stroke-width:0.26654794pt"
         id="path651" />
      <path
         inkscape:connector-curvature="0"
         d="m 362.51738,120.59365 c -0.0947,0.0826 -1.36333,-2.01437 -1.24681,-2.02466 0.0326,-0.0929 1.06327,1.31237 1.21048,1.55975 0.0614,0.11721 0.12218,0.29621 0.0363,0.46491 z"
         style="font-size:12px;fill-rule:evenodd;stroke:#000000;stroke-width:0.26654794pt"
         id="path652" />
      <path
         inkscape:connector-curvature="0"
         d="m 365.48624,122.1505 c -0.0947,-0.0715 -0.0568,-0.74107 -0.24462,-1.47633 -0.18757,-0.73526 -0.50674,-1.44385 -0.4435,-1.64502 0.0592,-0.10587 0.26561,-0.057 0.43004,0.0845 0.0783,0.39997 0.26158,1.93464 0.4766,2.93285 -0.003,0.0966 -0.1106,0.16236 -0.21852,0.10402 z"
         style="font-size:12px;fill-rule:evenodd;stroke:#000000;stroke-width:0.26654794pt"
         id="path653" />
      <path
         inkscape:connector-curvature="0"
         d="m 367.56111,120.2874 c -0.10145,-0.10798 0.27558,0.71995 0.55007,1.70364 0.2745,0.98395 0.41498,2.7219 0.48172,2.59835 0.18864,-0.12514 0.15662,-0.28117 0.45049,-0.34453 0.29361,-0.0631 1.38648,0.0385 1.32297,-0.0349 -0.67602,-0.6022 -1.29955,-1.10144 -1.76539,-1.75511 -0.46557,-0.65368 -0.7737,-1.51382 -1.03986,-2.1675 z"
         style="font-size:12px;fill-rule:evenodd;stroke:#000000;stroke-width:0.26654794pt"
         id="path654" />
      <path
         inkscape:connector-curvature="0"
         d="m 370.11689,129.25834 c -0.21206,0.15286 -0.61331,0.27456 -0.73065,0.21094 -0.64452,-1.34036 -1.00541,-2.2166 -1.90236,-3.64989 -0.23117,-0.3403 -0.80654,-0.28777 -0.77397,-0.42188 0.0215,-0.15471 0.3232,-0.0927 0.51831,-0.31707 0.19511,-0.22414 0.22067,-0.50795 0.3415,-0.61091 -0.26373,0.61856 0.42897,1.56714 0.81703,2.31982 0.25808,0.0702 0.46342,0.0686 0.58479,0.22124 0.0288,0.0723 -0.27907,0.12355 -0.23978,0.38149 l 0.65448,1.31792 c 0.21314,0.15998 0.54173,0.24816 0.85982,0.29516 0.0832,0.0739 -0.0651,0.17899 -0.12917,0.25318 z"
         style="font-size:12px;fill-rule:evenodd;stroke:#000000;stroke-width:0.26654794pt"
         id="path655" />
      <path
         inkscape:connector-curvature="0"
         d="m 370.48438,143.99591 11.51272,-40.57744 24.4368,-9.843879 12.96005,21.912699 -18.54966,37.66887 c -10.49252,-3.96532 -16.4932,-6.08366 -30.35991,-9.16025 z"
         style="font-size:12px;fill:none;stroke-width:1pt;stroke-opacity:0.99607801"
         id="path674" />
      <path
         inkscape:connector-curvature="0"
         d="m 371.45681,117.54174 c 0.40448,0.0224 0.76993,0.0578 0.88996,-0.14785 0.24731,-0.50926 0.39075,-0.92903 0.22417,-1.2601 -0.63403,0.051 -1.11306,0.34295 -1.37194,0.90185 0.008,0.19404 0.0552,0.3374 0.25781,0.5061 z"
         style="font-size:12px;fill-rule:evenodd;stroke:#000000;stroke-width:0.26654794pt"
         id="path656" />
      <path
         inkscape:connector-curvature="0"
         d="m 378.11738,117.15972 c 6.26847,1.32426 12.07138,2.8312 17.87428,4.70327 5.80264,1.87207 11.32621,4.10953 16.94288,6.52967 l -9.40257,18.99605 c -5.24826,-1.99721 -10.43032,-3.60712 -15.61265,-5.28118 -5.18206,-1.67433 -10.23252,-3.15514 -15.48052,-4.76479 l 5.67858,-20.18302 z"
         style="font-size:12px;fill:#fdfcfc;fill-rule:evenodd;stroke:#fdfcfc;stroke-width:0.26654794pt"
         id="path681" />
      <path
         inkscape:connector-curvature="0"
         d="m 376.86869,121.64704 c 0,0 8.75482,1.95338 17.23837,4.68188 8.48355,2.72825 16.76123,6.23135 16.72839,6.23135 -0.0659,0 -5.33222,10.84933 -5.33222,10.84933 -5.11236,-2.03416 -10.48845,-3.9395 -15.79834,-5.65079 -5.31016,-1.71129 -10.62005,-3.35789 -16.0618,-4.6172 l 3.2256,-11.49457 z"
         style="font-size:12px;fill:#e6151e;fill-rule:evenodd;stroke:#e6151e;stroke-width:0.26654794pt"
         id="path682" />
      <path
         inkscape:connector-curvature="0"
         d="m 377.59611,126.95277 c 0.86116,-0.48102 1.44433,-0.61091 1.90801,-1.40372 l 3.1002,2.6e-4 0.0401,1.13048 c 0.76186,0.36406 1.20563,0.7672 1.96749,1.131 0.76186,0.36407 1.84181,0.68879 2.60368,1.05286 l 6.67779,0.58504 c 0.89427,0.14282 2.18628,0.51983 2.96133,0.97471 0.77505,0.45514 1.2721,1.02698 1.6895,1.75485 1.37114,0.48102 2.74281,0.76694 4.15377,0.97497 1.41124,0.20778 3.17986,0.29886 4.55126,0.35087 0.67575,0.23417 0.67575,0.58504 0.35765,0.9359 0,0 -0.7554,1.02355 -2.81735,1.03332 -2.06195,0.01 -4.39732,-1.15027 -5.41081,-0.99425 0.0398,0.62385 1.11306,1.91088 2.34533,2.41777 l -0.0396,2.96321 -0.5568,0.50716 -0.59608,-0.38994 c 0.47714,-0.70173 0.31782,-1.52094 0.11921,-2.22267 -0.45722,-0.66292 -0.51669,-0.9359 -1.37113,-0.97471 -1.01375,-0.19537 -1.74924,-0.46835 -3.04099,-1.36518 l -0.47714,0.0781 c -0.27826,0.49395 -0.55653,0.83188 -1.19244,1.13074 l -1.31167,-0.0779 c 0,0 -3.02107,-0.66292 -3.02107,-0.70199 0,-0.0388 -0.0398,-0.46782 0.0398,-0.50689 0.0794,-0.0391 1.0334,-0.0388 1.11279,-0.0388 0.63618,0.19484 1.98767,0.19484 1.98767,0.19484 l -0.0398,-1.13101 2.02724,-0.11695 c -0.41067,-1.40372 -0.54334,-2.30082 -2.42472,-2.61261 l -5.8831,0.15603 0.0797,0.81895 c -1.47071,-0.1951 -4.13386,-0.22995 -5.49423,0.22071 -0.79497,0.0781 -1.93897,0.48102 -2.45567,0.48102 l -0.59636,-0.15577 c -0.39748,-0.11695 -0.39748,-0.23391 -0.23843,-0.58503 2.54393,-0.19511 2.94168,-0.38994 3.69682,-0.74081 0.0398,-0.23391 -0.27827,-0.74106 -0.39748,-0.78014 -1.58993,-0.0779 -2.86203,0.0391 -3.29907,-0.0388 -0.67575,-0.1951 -1.5902,-0.54597 -1.5902,-0.58504 0,-0.0391 -0.11921,-0.62385 -0.0794,-0.62385 0.0395,0 1.03366,0.27298 1.07295,0.27298 1.0735,0.19484 2.94169,0.11696 3.379,-0.11695 l 0.0398,-0.85802 c -0.0398,-0.38994 -0.3181,-0.7408 -0.39775,-0.77988 -0.0794,-0.0391 -1.74898,-0.23391 -2.34533,-0.23391 -0.9672,-0.16896 -0.82134,-0.64998 -0.83452,-1.131 z"
         style="font-size:12px;fill-rule:evenodd;stroke:#010001;stroke-width:0.26654794pt;stroke-opacity:0.99607801"
         id="path657" />
      <path
         inkscape:connector-curvature="0"
         d="m 390.435,133.89403 c 0.90099,0.28591 1.56355,0.37673 2.90185,0.46781 l 2.02724,-0.11695 c -0.41067,-1.40372 -0.54334,-2.30082 -2.42472,-2.61261 l -5.8831,0.15603 0.0797,0.81895 c 1.7888,0.66265 2.66315,1.02672 3.29907,1.28677 z"
         style="font-size:12px;fill:#fdfdfd;fill-opacity:0.996081;fill-rule:evenodd;stroke:#010001;stroke-width:0.26654794pt;stroke-opacity:0.99607801"
         id="path658" />
      <path
         inkscape:connector-curvature="0"
         d="m 273.60326,143.98824 -10.6317,-39.62074 16.22322,-19.652309 22.7485,12.985849 3.85602,41.98472 c -11.60753,0.86022 -19.1275,1.97724 -32.19604,4.30248 z"
         style="font-size:12px;fill:#011171;fill-opacity:0.99607801;fill-rule:evenodd;stroke:#011171;stroke-width:0.2665478pt"
         id="path679" />
      <path
         inkscape:connector-curvature="0"
         d="m 236.92195,112.42213 3.70029,3.25889 -1.05122,5.23894 5.13012,-1.77386 3.78428,3.2589 0.84099,-4.8263 4.2049,-1.36148 -3.19573,-3.46509 1.05116,-4.78485 c 0,0 -5.04588,1.48478 -5.04588,1.44359 0,-0.0412 -3.36366,-3.21744 -3.40591,-3.17626 -0.042,0.0412 -1.09328,4.53748 -1.09328,4.53748 l -4.91972,1.65004 z"
         style="font-size:12px;fill:#fbfd10;fill-opacity:0.99607801;fill-rule:evenodd;stroke:#fdc605;stroke-width:0.26654794pt;stroke-opacity:0.99607801"
         id="path563" />
      <path
         inkscape:connector-curvature="0"
         d="m 237.00604,112.46331 16.48329,3.71299 -4.24716,1.44358 -3.82626,-3.09389 c 0,0 3.1115,7.75519 3.06951,7.714 -0.042,-0.0412 -3.61608,-3.01152 -3.74229,-3.13507 l 0.6308,-4.57893 c 0,0 -5.71881,6.35279 -5.71881,6.3116 0,-0.0415 1.09328,-5.19775 1.09328,-5.19775 l -3.74236,-3.17653 z"
         style="font-size:12px;fill:#ffc500;fill-rule:evenodd;stroke-width:1pt"
         id="path565" />
      <path
         inkscape:connector-curvature="0"
         d="m 241.79961,110.77209 3.65828,3.50653 -2.52294,-8.12638 -1.13534,4.61985 z"
         style="font-size:12px;fill:#ffc500;fill-rule:evenodd;stroke-width:1pt"
         id="path566" />
      <path
         inkscape:connector-curvature="0"
         d="m 246.29914,109.45232 c 0.042,0.0412 -0.88323,4.74367 -0.84125,4.74367 0.42036,-0.49502 5.92885,-6.22897 5.88714,-6.22897 -0.0422,0 -4.96192,1.52648 -5.04589,1.4853 z"
         style="font-size:12px;fill:#ffc500;fill-rule:evenodd;stroke-width:1pt"
         id="path567" />
      <path
         inkscape:connector-curvature="0"
         d="m 396.2117,104.4092 0.7824,4.81753 -4.17962,3.42018 5.12377,1.79143 0.84764,4.86943 3.75142,-3.22952 4.14034,1.54018 -0.2581,-4.66599 3.88808,-3.06747 c 0,0 -4.87276,-1.96396 -4.84632,-1.99595 0.0264,-0.032 -0.54751,-4.57737 -0.60677,-4.57148 -0.0591,0.006 -3.762,2.84929 -3.762,2.84929 l -4.88084,-1.75763 z"
         style="font-size:12px;fill:#fbfd10;fill-opacity:0.99607801;fill-rule:evenodd;stroke:#fdc605;stroke-width:0.26654782pt;stroke-opacity:0.99607801"
         id="path666" />
      <path
         inkscape:connector-curvature="0"
         d="m 396.25058,104.49314 10.42073,13.06756 -4.22587,-1.5025 -0.98618,-4.76718 c 0,0 -2.56127,7.9465 -2.56745,7.88857 -0.006,-0.0579 -0.87578,-4.57335 -0.89451,-4.7473 l 3.42935,-3.16721 c 0,0 -8.5204,1.40179 -8.49396,1.3698 0.0266,-0.0322 4.18585,-3.3622 4.18585,-3.3622 l -0.86796,-4.77954 z"
         style="font-size:12px;fill:#ffc500;fill-rule:evenodd;stroke-width:1pt"
         id="path667" />
      <path
         inkscape:connector-curvature="0"
         d="m 401.05987,106.14085 0.5908,4.98394 3.25674,-7.87124 -3.84754,2.8873 z"
         style="font-size:12px;fill:#fdc605;fill-rule:evenodd;stroke-width:1pt"
         id="path668" />
      <path
         inkscape:connector-curvature="0"
         d="m 405.4023,107.89544 c 0.006,0.0579 -3.7312,3.13923 -3.69858,3.16516 0.64429,-0.12483 8.60408,-1.17584 8.57167,-1.20161 -0.0328,-0.0261 -4.83431,-1.87968 -4.87309,-1.96355 z"
         style="font-size:12px;fill:#fdc605;fill-rule:evenodd;stroke-width:1pt"
         id="path669" />
      <path
         inkscape:connector-curvature="0"
         d="m 263.04907,104.52121 c 5.77411,-2.75992 12.25491,-4.913158 19.0896,-5.852149 6.56907,-0.939387 13.14353,-1.020754 19.88968,-1.006313 0,0 0.88377,10.331202 0.88377,10.418062 -5.30262,0.0433 -9.25429,-0.0552 -18.60843,1.15476 -9.30165,1.28994 -13.1333,2.39533 -18.78954,4.56282 l -2.46508,-9.27718 z"
         style="font-size:12px;fill:#e6141d;fill-rule:evenodd;stroke:#e6141d;stroke-width:0.26654794pt"
         id="path675" />
      <path
         inkscape:connector-curvature="0"
         d="m 267.9935,122.81025 c -0.0885,0 2.92123,10.92907 2.92123,10.92907 5.55317,-1.40161 11.19461,-2.45658 16.83605,-3.25124 5.64143,-0.79466 11.64106,-1.24743 17.10569,-1.60859 L 303.889,118.21997 c -5.7593,-0.3469 -12.32326,-0.3469 -18.25938,0.43323 -5.93612,0.78041 -11.7,2.16301 -17.63612,4.15705 z"
         style="font-size:12px;fill:#e6141d;fill-opacity:0.996081;fill-rule:evenodd;stroke:#e6141d;stroke-width:0.26654794pt"
         id="path677" />
      <path
         inkscape:connector-curvature="0"
         d="m 241.48728,156.55897 161.16496,0 0,103.33762 c -4.09646,40.24433 -42.77837,70.32679 -78.12461,70.09737 -38.15526,1.66456 -80.34857,-29.56607 -83.39149,-70.4419 l 0.35114,-102.99309 z"
         style="font-size:12px;fill:#ffffff;fill-rule:evenodd;stroke:#e5141d;stroke-width:1.06619179"
         id="path688" />
      <path
         inkscape:connector-curvature="0"
         d="m 244.83871,160.17481 154.44737,0 0,99.03036 c -3.92571,38.56689 -40.9953,67.39548 -74.86826,67.17562 -36.56489,1.59518 -76.99952,-28.33371 -79.91561,-67.50579 l 0.3365,-98.70019 z"
         style="font-size:12px;fill:#d61517;fill-rule:evenodd;stroke:#e5141d;stroke-width:1.0217514"
         id="path689" />
      <rect
         width="29.76318"
         height="32.302425"
         ry="0"
         x="337.67673"
         y="160.67328"
         style="font-size:12px;fill:#ffffff;fill-rule:evenodd;stroke-width:1pt"
         id="rect693" />
      <rect
         width="29.76318"
         height="32.302425"
         ry="0"
         x="276.27164"
         y="160.67328"
         style="font-size:12px;fill:#ffffff;fill-rule:evenodd;stroke-width:1pt"
         id="rect694" />
      <rect
         width="30.162325"
         height="31.52639"
         ry="0"
         x="245.21939"
         y="194.04266"
         style="font-size:12px;fill:#ffffff;fill-rule:evenodd;stroke-width:1pt"
         id="rect695" />
      <rect
         width="29.466541"
         height="31.52639"
         ry="0"
         x="307.22141"
         y="194.04265"
         style="font-size:12px;fill:#ffffff;fill-rule:evenodd;stroke-width:1pt"
         id="rect696" />
      <rect
         width="30.363699"
         height="31.52639"
         ry="0"
         x="368.32986"
         y="194.04266"
         style="font-size:12px;fill:#ffffff;fill-rule:evenodd;stroke-width:1pt"
         id="rect697" />
      <rect
         width="29.76318"
         height="32.011414"
         ry="0"
         x="337.67673"
         y="226.53918"
         style="font-size:12px;fill:#ffffff;fill-rule:evenodd;stroke-width:1pt"
         id="rect698" />
      <rect
         width="29.76318"
         height="32.011414"
         ry="0"
         x="276.27164"
         y="226.53918"
         style="font-size:12px;fill:#ffffff;fill-rule:evenodd;stroke-width:1pt"
         id="rect699" />
      <rect
         width="29.466541"
         height="32.011414"
         ry="0"
         x="307.22141"
         y="259.52051"
         style="font-size:12px;fill:#ffffff;fill-rule:evenodd;stroke-width:1pt"
         id="rect700" />
      <path
         inkscape:connector-curvature="0"
         d="m 368.51835,259.80022 0.008,31.44712 18.1224,0.0235 c 8.26746,-12.07829 11.0988,-23.8432 11.87627,-31.46374 -0.13401,0 -29.88807,-0.0143 -30.00621,-0.007 z"
         style="font-size:12px;fill:#ffffff;fill-rule:evenodd;stroke:#ffffff;stroke-width:0.26654794pt"
         id="path705" />
      <path
         inkscape:connector-curvature="0"
         d="m 337.85954,292.78438 0.005,31.55905 c 12.89056,-2.67887 23.38978,-8.78666 29.40017,-13.27001 l 0.002,-18.30171 -29.40716,0.0127 z"
         style="font-size:12px;fill:#ffffff;fill-rule:evenodd;stroke:#ffffff;stroke-width:0.26654794pt"
         id="path706" />
      <path
         inkscape:connector-curvature="0"
         d="m 276.49723,292.72234 -0.0425,17.83204 c 10.12515,7.38531 21.68844,11.70736 29.38941,13.36928 l 0.005,-31.1897 -29.352,-0.0116 z"
         style="font-size:12px;fill:#ffffff;fill-rule:evenodd;stroke:#ffffff;stroke-width:0.26654794pt"
         id="path708" />
      <path
         inkscape:connector-curvature="0"
         d="m 245.27624,259.75719 c 0.96128,12.3555 6.22488,23.81575 11.87977,31.56671 l 18.04598,-0.0304 0.003,-31.54981 -29.92898,0.0135 z"
         style="font-size:12px;fill:#ffffff;fill-rule:evenodd;stroke:#ffffff;stroke-width:0.26654794pt"
         id="path710" />
    </g>
  </g>
</svg>
