<?xml version="1.0" encoding="UTF-8" standalone="no"?>
<svg
   xmlns:dc="http://purl.org/dc/elements/1.1/"
   xmlns:cc="http://creativecommons.org/ns#"
   xmlns:rdf="http://www.w3.org/1999/02/22-rdf-syntax-ns#"
   xmlns:svg="http://www.w3.org/2000/svg"
   xmlns="http://www.w3.org/2000/svg"
   xmlns:xlink="http://www.w3.org/1999/xlink"
   xmlns:sodipodi="http://sodipodi.sourceforge.net/DTD/sodipodi-0.dtd"
   xmlns:inkscape="http://www.inkscape.org/namespaces/inkscape"
   inkscape:version="0.92.5 (2060ec1f9f, 2020-04-08)"
   sodipodi:docname="ct_insert.svg"
   id="svg7567"
   height="16"
   width="16"
   version="1.1">
  <sodipodi:namedview
     inkscape:current-layer="svg7567"
     inkscape:window-maximized="1"
     inkscape:window-y="0"
     inkscape:window-x="0"
     inkscape:cy="8.0443217"
     inkscape:cx="-0.5453562"
     inkscape:zoom="20.388919"
     showgrid="true"
     id="namedview59"
     inkscape:window-height="717"
     inkscape:window-width="1366"
     inkscape:pageshadow="2"
     inkscape:pageopacity="0"
     guidetolerance="10"
     gridtolerance="10"
     objecttolerance="10"
     borderopacity="1"
     bordercolor="#666666"
     pagecolor="#ffffff"
     inkscape:document-rotation="0">
    <inkscape:grid
       type="xygrid"
       id="grid910" />
  </sodipodi:namedview>
  <defs
     id="defs7569">
    <linearGradient
       id="linearGradient4632-92-3-0-8-1-7">
      <stop
         offset="0"
         style="stop-color:#fafafa;stop-opacity:1"
         id="stop4634-68-8-0-2-9-4" />
      <stop
         offset="1"
         style="stop-color:#e1e1e1;stop-opacity:1"
         id="stop4636-8-21-7-1-4-0" />
    </linearGradient>
    <linearGradient
       gradientTransform="matrix(0.50861895,0,0,0.50861895,-0.30363106,-8.1100713)"
       gradientUnits="userSpaceOnUse"
       xlink:href="#linearGradient4035"
       id="linearGradient3159"
       y2="43.470798"
       x2="16.325838"
       y1="19.877497"
       x1="16.325838" />
    <linearGradient
       id="linearGradient4035">
      <stop
         offset="0"
         style="stop-color:#ffffff;stop-opacity:1"
         id="stop4037" />
      <stop
         offset="0.16666664"
         style="stop-color:#ffffff;stop-opacity:0.23529412"
         id="stop4039" />
      <stop
         offset="0.83333331"
         style="stop-color:#ffffff;stop-opacity:0.15686275"
         id="stop4041" />
      <stop
         offset="1"
         style="stop-color:#ffffff;stop-opacity:0.39215687"
         id="stop4043" />
    </linearGradient>
    <radialGradient
       gradientTransform="matrix(0,0.51340805,-0.513408,0,10.229175,-14.463522)"
       gradientUnits="userSpaceOnUse"
       xlink:href="#linearGradient4632-92-3-0-8-1-7"
       id="radialGradient7600"
       fy="4.3419166"
       fx="31.999998"
       r="27.5"
       cy="4.3419166"
       cx="31.999998" />
    <linearGradient
       id="linearGradient12739">
      <stop
         offset="0"
         style="stop-color:#ffffff;stop-opacity:1"
         id="stop12741" />
      <stop
         offset="1"
         style="stop-color:#ffffff;stop-opacity:0"
         id="stop12743" />
    </linearGradient>
    <radialGradient
       spreadMethod="pad"
       gradientTransform="matrix(0,0.13397128,-0.13397131,0,15.116094,3.0451997)"
       gradientUnits="userSpaceOnUse"
       xlink:href="#linearGradient12727"
       id="radialGradient4973"
       fy="38.188026"
       fx="51.91"
       r="27.5"
       cy="38.188026"
       cx="51.91" />
    <linearGradient
       id="linearGradient12727">
      <stop
         offset="0"
         style="stop-color:#181818;stop-opacity:0"
         id="stop12729" />
      <stop
         offset="0.53846145"
         style="stop-color:#181818;stop-opacity:0"
         id="stop12745" />
      <stop
         offset="1"
         style="stop-color:#181818;stop-opacity:1"
         id="stop12731" />
    </linearGradient>
    <linearGradient
       gradientTransform="matrix(0.36842106,0,0,0.36842106,-4.7368544,-1.0530003)"
       gradientUnits="userSpaceOnUse"
       xlink:href="#linearGradient4632-92-3-0-8-1-7-6"
       id="linearGradient4975"
       y2="29.999983"
       x2="49.5"
       y1="29.999983"
       x1="30.5" />
    <linearGradient
       id="linearGradient4632-92-3-0-8-1-7-6">
      <stop
         offset="0"
         style="stop-color:#fafafa;stop-opacity:1"
         id="stop4634-68-8-0-2-9-4-8" />
      <stop
         offset="1"
         style="stop-color:#e1e1e1;stop-opacity:1"
         id="stop4636-8-21-7-1-4-0-7" />
    </linearGradient>
    <linearGradient
       gradientTransform="matrix(0,0.27950309,-0.27950308,0,21.847012,-3.9718003)"
       gradientUnits="userSpaceOnUse"
       xlink:href="#linearGradient3878"
       id="linearGradient4977"
       y2="42.379356"
       x2="66.731972"
       y1="42.379356"
       x1="33.243969" />
    <linearGradient
       id="linearGradient3878">
      <stop
         offset="0"
         style="stop-color:#ffffff;stop-opacity:1"
         id="stop3880" />
      <stop
         offset="0.07692312"
         style="stop-color:#ffffff;stop-opacity:0.23529412"
         id="stop3882" />
      <stop
         offset="0.92307693"
         style="stop-color:#ffffff;stop-opacity:0.15686275"
         id="stop3884" />
      <stop
         offset="1"
         style="stop-color:#ffffff;stop-opacity:0.39215687"
         id="stop3886" />
    </linearGradient>
    <linearGradient
       gradientTransform="matrix(0.41938988,0,0,0.41938988,-23.323523,-5.2898003)"
       gradientUnits="userSpaceOnUse"
       xlink:href="#linearGradient4220-7"
       id="linearGradient4985"
       y2="50.057175"
       x2="79.457138"
       y1="22.857172"
       x1="79.457138" />
    <linearGradient
       id="linearGradient4220-7">
      <stop
         offset="0"
         style="stop-color:#7a8498;stop-opacity:1"
         id="stop4222-7" />
      <stop
         offset="1"
         style="stop-color:#34405c;stop-opacity:1"
         id="stop4224-0" />
    </linearGradient>
    <linearGradient
       gradientTransform="matrix(0.31250001,0,0,0.3888889,-6.8127,-413.47421)"
       gradientUnits="userSpaceOnUse"
       xlink:href="#linearGradient12739"
       id="linearGradient7826"
       y2="1037.505"
       x2="53.800014"
       y1="1037.505"
       x1="44.200016" />
    <clipPath
       id="clipPath7834">
      <rect
         style="color:#000000;fill:url(#linearGradient7838);fill-opacity:1;fill-rule:nonzero;stroke:none;stroke-width:0.99999994;marker:none;visibility:visible;display:inline;overflow:visible;enable-background:accumulate"
         id="rect7836"
         y="6.4996166"
         x="6.4999809"
         ry="25"
         rx="25"
         height="7"
         width="7" />
    </clipPath>
    <linearGradient
       gradientTransform="matrix(0.36842106,0,0,0.36842106,-4.7368544,-1.0530003)"
       gradientUnits="userSpaceOnUse"
       xlink:href="#linearGradient4632-92-3-0-8-1-7-6"
       id="linearGradient7838"
       y2="29.999983"
       x2="49.5"
       y1="29.999983"
       x1="30.5" />
    <linearGradient
       gradientTransform="matrix(0.26248216,0,0,0.26248216,-0.2525121,0.7007399)"
       gradientUnits="userSpaceOnUse"
       y2="44.5"
       x2="44"
       y1="0"
       x1="44"
       id="linearGradient1071"
       xlink:href="#linearGradient1069" />
    <linearGradient
       id="linearGradient1069">
      <stop
         id="stop1065"
         offset="0"
         style="stop-color:#ed5353;stop-opacity:1" />
      <stop
         id="stop1067"
         offset="1"
         style="stop-color:#c6262e;stop-opacity:1" />
    </linearGradient>
    <linearGradient
       gradientTransform="matrix(0.26398086,0,0,0.26010927,11.766914,1.7076502)"
       gradientUnits="userSpaceOnUse"
       y2="39.569332"
       x2="-17.375"
       y1="-2.720588"
       x1="-17.375"
       id="linearGradient1063"
       xlink:href="#linearGradient1061" />
    <linearGradient
       id="linearGradient1061">
      <stop
         id="stop1057"
         offset="0"
         style="stop-color:#4d4d4d;stop-opacity:1" />
      <stop
         id="stop1059"
         offset="1"
         style="stop-color:#333333;stop-opacity:1" />
    </linearGradient>
    <linearGradient
       x1="25.132275"
       y1="0.98520643"
       x2="25.132275"
       y2="47.013336"
       id="linearGradient3940"
       xlink:href="#linearGradient3600"
       gradientUnits="userSpaceOnUse"
       gradientTransform="matrix(0.14285681,0,0,0.1520985,9.5714368,0.11629591)" />
    <linearGradient
       id="linearGradient3600">
      <stop
         id="stop3602"
         style="stop-color:#f4f4f4;stop-opacity:1"
         offset="0" />
      <stop
         id="stop3604"
         style="stop-color:#dbdbdb;stop-opacity:1"
         offset="1" />
    </linearGradient>
    <linearGradient
       x1="23.99999"
       y1="6.9230647"
       x2="23.99999"
       y2="41.076912"
       id="linearGradient3095"
       xlink:href="#linearGradient3977"
       gradientUnits="userSpaceOnUse"
       gradientTransform="matrix(0.12162162,0,0,0.17567566,10.081082,-0.21622051)" />
    <linearGradient
       id="linearGradient3977">
      <stop
         id="stop3979"
         style="stop-color:#ffffff;stop-opacity:1"
         offset="0" />
      <stop
         id="stop3981"
         style="stop-color:#ffffff;stop-opacity:0.23529412"
         offset="0" />
      <stop
         id="stop3983"
         style="stop-color:#ffffff;stop-opacity:0.15686275"
         offset="1" />
      <stop
         id="stop3985"
         style="stop-color:#ffffff;stop-opacity:0.39215687"
         offset="1" />
    </linearGradient>
    <linearGradient
       x1="-51.786404"
       y1="50.786446"
       x2="-51.786404"
       y2="2.9062471"
       id="linearGradient3092"
       xlink:href="#linearGradient3104-9"
       gradientUnits="userSpaceOnUse"
       gradientTransform="matrix(0.12689293,0,0,0.15250932,18.56449,-0.34274501)" />
    <linearGradient
       id="linearGradient3104-9">
      <stop
         id="stop3106-5"
         style="stop-color:#000000;stop-opacity:0.33950618"
         offset="0" />
      <stop
         id="stop3108-5"
         style="stop-color:#000000;stop-opacity:0.24691358"
         offset="1" />
    </linearGradient>
    <radialGradient
       gradientUnits="userSpaceOnUse"
       xlink:href="#linearGradient2378"
       id="radialGradient5583"
       fy="9.3411446"
       fx="38.658855"
       r="8.341651"
       cy="9.3411446"
       cx="38.658855" />
    <linearGradient
       id="linearGradient2378">
      <stop
         offset="0"
         style="stop-color:#ffffff;stop-opacity:1"
         id="stop2380" />
      <stop
         offset="0.25"
         style="stop-color:#fefede;stop-opacity:0.91836733"
         id="stop4146" />
      <stop
         offset="0.5"
         style="stop-color:#f5f328;stop-opacity:1"
         id="stop2386" />
      <stop
         offset="1"
         style="stop-color:#f5f32d;stop-opacity:0.12234043"
         id="stop10317" />
    </linearGradient>
    <radialGradient
       cx="38.658855"
       cy="9.3411446"
       r="8.341651"
       fx="38.658855"
       fy="9.3411446"
       id="radialGradient5583-0"
       xlink:href="#linearGradient2378"
       gradientUnits="userSpaceOnUse" />
    <linearGradient
       gradientUnits="userSpaceOnUse"
       y2="15.977216"
       x2="8.000001"
       y1="0.49613568"
       x1="8.000001"
       id="linearGradient842"
       xlink:href="#linearGradient840" />
    <linearGradient
       id="linearGradient840">
      <stop
         id="stop836"
         offset="0"
         style="stop-color:#ffe16b;stop-opacity:1" />
      <stop
         id="stop838"
         offset="1"
         style="stop-color:#f9c440;stop-opacity:1" />
    </linearGradient>
    <linearGradient
       gradientTransform="matrix(0.4893617,0,0,0.4893617,1.7131795,22.728095)"
       gradientUnits="userSpaceOnUse"
       xlink:href="#linearGradient8265-821-176-38-919-66-249"
       id="linearGradient3674"
       y2="33.95525"
       x2="15.214532"
       y1="22.292103"
       x1="11.566265" />
    <linearGradient
       id="linearGradient8265-821-176-38-919-66-249">
      <stop
         offset="0"
         style="stop-color:#ffffff;stop-opacity:0.27450982"
         id="stop2687" />
      <stop
         offset="1"
         style="stop-color:#ffffff;stop-opacity:0"
         id="stop2689" />
    </linearGradient>
    <linearGradient
       gradientTransform="matrix(0.55048262,0,0,0.57815823,-3.8262247,-5.2762276)"
       gradientUnits="userSpaceOnUse"
       xlink:href="#linearGradient3881"
       id="linearGradient3677"
       y2="34.713669"
       x2="24.046366"
       y1="11.673002"
       x1="24.046366" />
    <linearGradient
       id="linearGradient3881">
      <stop
         offset="0"
         style="stop-color:#ffffff;stop-opacity:1"
         id="stop3883" />
      <stop
         offset="0.33380178"
         style="stop-color:#ffffff;stop-opacity:0.23529412"
         id="stop3885" />
      <stop
         offset="0.67927718"
         style="stop-color:#ffffff;stop-opacity:0.15686275"
         id="stop3887" />
      <stop
         offset="1"
         style="stop-color:#ffffff;stop-opacity:0.39215687"
         id="stop3889" />
    </linearGradient>
  </defs>
  <metadata
     id="metadata7572">
    <rdf:RDF>
      <cc:Work
         rdf:about="">
        <dc:format>image/svg+xml</dc:format>
        <dc:type
           rdf:resource="http://purl.org/dc/dcmitype/StillImage" />
        <dc:title />
      </cc:Work>
    </rdf:RDF>
  </metadata>
  <g
     id="layer1"
     transform="matrix(0.63837478,0,0,0.63837478,2.8930018,2.8930279)">
    <path
       inkscape:connector-curvature="0"
       style="display:inline;overflow:visible;visibility:visible;fill:url(#linearGradient842);fill-opacity:1;fill-rule:nonzero;stroke:#ad5f00;stroke-width:0.99227136;stroke-linecap:butt;stroke-linejoin:round;stroke-miterlimit:4;stroke-dasharray:none;stroke-dashoffset:0;stroke-opacity:0.49803922;marker:none"
       id="path1307"
       d="m 8.0000006,0.49613568 c 0.5064396,0 2.1391894,4.28357812 2.5489094,4.59622212 0.409717,0.3126432 4.793178,0.6198528 4.949676,1.125721 C 15.655085,6.7239468 12.28072,9.6785531 12.124222,10.18442 11.967724,10.690288 13.409718,15.163733 13,15.476376 12.590282,15.789021 8.5064402,13.33149 7.9999999,13.33149 7.4935604,13.33149 3.4097187,15.789021 3,15.476376 2.5902818,15.163733 4.0322763,10.690287 3.8757779,10.18442 3.7192794,9.6785531 0.34491544,6.7239461 0.50141397,6.218078 0.65791242,5.7122106 5.0413721,5.405001 5.4510908,5.0923578 5.8608088,4.7797138 7.4935611,0.49613568 8.0000006,0.49613568 Z" />
    <path
       inkscape:connector-curvature="0"
       style="display:inline;overflow:visible;visibility:visible;opacity:0.8;fill:url(#linearGradient3674);fill-opacity:1;fill-rule:nonzero;stroke:none;stroke-width:1;marker:none;enable-background:accumulate"
       id="path3672"
       transform="matrix(0.71439082,0,0,0.70011588,-0.57240798,-16.954765)"
       d="m 11.96875,26.375 c -0.506596,0.779667 -1.63252,2.593568 -2.90625,5.59375 A 0.14192008,0.14192008 0 0 1 9.03125,32 0.14192008,0.14192008 0 0 1 9,32.03125 a 0.14192008,0.14192008 0 0 1 -0.03125,0 0.14192008,0.14192008 0 0 1 -0.03125,0.03125 0.14192008,0.14192008 0 0 1 -0.03125,-0.03125 0.14192008,0.14192008 0 0 1 -0.03125,0 A 0.14192008,0.14192008 0 0 1 8.84375,32 0.14192008,0.14192008 0 0 1 8.8125,31.96875 a 0.14192008,0.14192008 0 0 1 0,-0.03125 0.14192008,0.14192008 0 0 1 -0.03125,0 c 0.00461,-0.0064 -0.035912,0.0063 -0.03125,0 0.00522,-0.0059 -0.00527,0.03708 0,0.03125 0.00556,-0.0056 -0.036852,0.0055 -0.03125,0 0.00608,-0.005 -0.00612,0.03618 0,0.03125 0.00629,-0.0047 -0.037574,0.0047 -0.03125,0 0.00682,-0.0039 -0.038107,0.0038 -0.03125,0 0.00692,-0.0037 -0.00695,0.03492 0,0.03125 0.00726,-0.003 -0.038533,0.003 -0.03125,0 a 0.14192008,0.14192008 0 0 1 0,0.03125 0.14192008,0.14192008 0 0 1 0.03125,0 0.14192008,0.14192008 0 0 1 0.03125,0.03125 0.14192008,0.14192008 0 0 1 0.03125,0.03125 0.14192008,0.14192008 0 0 1 0,0.03125 0.14192008,0.14192008 0 0 1 0,0.03125 0.14192008,0.14192008 0 0 1 0,0.03125 0.14192008,0.14192008 0 0 1 0,0.03125 0.14192008,0.14192008 0 0 1 -0.03125,0.03125 0.14192008,0.14192008 0 0 1 -0.03125,0.03125 0.14192008,0.14192008 0 0 1 -0.03125,0 C 6.5674679,32.648003 4.0200464,32.991828 2.28125,33.40625 3.3338095,34.641661 4.546242,35.810257 5.71875,37 L 20.75,34.28125 c 0.0052,-0.0052 0.02606,0.0052 0.03125,0 0.28516,-0.285558 0.552815,-0.584263 0.84375,-0.875 -1.985656,-0.473093 -4.21957,-0.75757 -6.28125,-1.09375 a 0.14192008,0.14192008 0 0 1 -0.03125,0 A 0.14192008,0.14192008 0 0 1 15.28125,32.28125 0.14192008,0.14192008 0 0 1 15.25,32.25 a 0.14192008,0.14192008 0 0 1 0,-0.03125 0.14192008,0.14192008 0 0 1 0,-0.03125 0.14192008,0.14192008 0 0 1 0,-0.03125 0.14192008,0.14192008 0 0 1 0,-0.03125 0.14192008,0.14192008 0 0 1 0.03125,-0.03125 0.14192008,0.14192008 0 0 1 0.03125,-0.03125 0.14192008,0.14192008 0 0 1 0.03125,0 0.14192008,0.14192008 0 0 1 0,-0.03125 c 0.0075,0.0027 -0.0387,-0.0027 -0.03125,0 0.0071,0.0035 -0.03835,-0.0035 -0.03125,0 0.007,0.0037 -0.007,-0.03496 0,-0.03125 0.0066,0.0044 -0.03785,-0.0044 -0.03125,0 0.0062,0.0049 -0.0062,-0.03622 0,-0.03125 0.006,0.0052 -0.03724,-0.0052 -0.03125,0 0.0054,0.0058 -0.0053,-0.03713 0,-0.03125 0.0052,0.006 -0.03638,-0.006 -0.03125,0 0.0045,0.0065 -0.0045,-0.0378 0,-0.03125 0.004,0.0069 -0.0352,-0.0069 -0.03125,0 0.0037,0.007 -0.0037,-0.03828 0,-0.03125 l -0.125,0.0625 -0.125,0.0625 c -0.985076,-2.286983 -2.388794,-4.698127 -2.9375,-5.625 z" />
    <path
       inkscape:connector-curvature="0"
       style="display:inline;overflow:visible;visibility:visible;opacity:0.8;fill:none;stroke:url(#linearGradient3677);stroke-width:0.99199998;stroke-linecap:square;stroke-linejoin:miter;stroke-miterlimit:4;stroke-dasharray:none;stroke-dashoffset:0;stroke-opacity:1;marker:none"
       id="path2894"
       d="M 8,2.3125003 C 7.4204974,3.4092238 6.9588891,4.5689462 6.3425158,5.6446934 5.906923,6.2233231 5.14082,6.208774 4.4979816,6.3453057 3.6988865,6.4940441 2.8938979,6.607737 2.09375,6.7500003 c 0.8321477,1.0057613 1.9042251,1.803058 2.6553809,2.8730975 0.2931609,0.5612752 0.086735,1.1940262 0.048954,1.7875722 -0.1300362,0.873671 -0.7822554,2.011403 -0.8721349,2.890749 1.1003565,-0.559851 2.6237664,-1.531888 3.7910708,-1.94011 0.6246409,-0.12796 1.1682081,0.254232 1.7115393,0.49593 0.7264099,0.38268 1.7399469,0.939694 2.4653779,1.324105 -0.123973,-1.302273 -0.773372,-2.733611 -0.799425,-4.042542 0.09173,-0.7298892 0.734153,-1.1887208 1.185876,-1.7078873 C 12.836872,7.884812 13.396785,7.3411772 13.90625,6.7500003 12.695236,6.5344179 11.470554,6.3762266 10.271483,6.1040109 9.5203883,5.8103558 9.33382,4.9605762 8.9786043,4.3239545 8.6518684,3.653685 8.3459188,2.9733088 8,2.3125003 Z" />
  </g>
</svg>
