<?xml version="1.0" encoding="UTF-8" standalone="no"?>
<svg
   xmlns:osb="http://www.openswatchbook.org/uri/2009/osb"
   xmlns:dc="http://purl.org/dc/elements/1.1/"
   xmlns:cc="http://creativecommons.org/ns#"
   xmlns:rdf="http://www.w3.org/1999/02/22-rdf-syntax-ns#"
   xmlns:svg="http://www.w3.org/2000/svg"
   xmlns="http://www.w3.org/2000/svg"
   xmlns:xlink="http://www.w3.org/1999/xlink"
   xmlns:sodipodi="http://sodipodi.sourceforge.net/DTD/sodipodi-0.dtd"
   xmlns:inkscape="http://www.inkscape.org/namespaces/inkscape"
   id="svg4212"
   height="16"
   width="16"
   version="1.1"
   sodipodi:docname="ct_index.svg"
   inkscape:version="1.0 (4035a4fb49, 2020-05-01)">
  <sodipodi:namedview
     inkscape:document-rotation="0"
     pagecolor="#ffffff"
     bordercolor="#666666"
     borderopacity="1"
     objecttolerance="10"
     gridtolerance="10"
     guidetolerance="10"
     inkscape:pageopacity="0"
     inkscape:pageshadow="2"
     inkscape:window-width="1366"
     inkscape:window-height="715"
     id="namedview86"
     showgrid="true"
     inkscape:zoom="19.846187"
     inkscape:cx="3.3837706"
     inkscape:cy="9.4924866"
     inkscape:window-x="-8"
     inkscape:window-y="22"
     inkscape:window-maximized="1"
     inkscape:current-layer="svg4212"
     showguides="false">
    <inkscape:grid
       id="grid906"
       type="xygrid" />
  </sodipodi:namedview>
  <defs
     id="defs4214">
    <linearGradient
       inkscape:collect="always"
       id="linearGradient945">
      <stop
         style="stop-color:#cccccc;stop-opacity:1"
         offset="0"
         id="stop941" />
      <stop
         style="stop-color:#ffffff;stop-opacity:1"
         offset="1"
         id="stop943" />
    </linearGradient>
    <linearGradient
       osb:paint="solid"
       id="linearGradient4526">
      <stop
         id="stop4528"
         offset="0"
         style="stop-color:#ffffff;stop-opacity:1;" />
    </linearGradient>
    <linearGradient
       gradientTransform="matrix(0.67196329,0,0,0.72900257,-0.1560328,-0.51849224)"
       inkscape:collect="always"
       xlink:href="#linearGradient945"
       id="linearGradient947"
       x1="13.328012"
       y1="19.977493"
       x2="13.328012"
       y2="13.601875"
       gradientUnits="userSpaceOnUse" />
  </defs>
  <metadata
     id="metadata4217">
    <rdf:RDF>
      <cc:Work
         rdf:about="">
        <dc:format>image/svg+xml</dc:format>
        <dc:type
           rdf:resource="http://purl.org/dc/dcmitype/StillImage" />
        <dc:title />
      </cc:Work>
    </rdf:RDF>
  </metadata>
  <path
     id="path921"
     style="fill:none;stroke-width:2;stroke:#ffffff;opacity:0.7"
     d="m 2.0107165,15.007022 0.00927,-6.4832086 C 2.3131482,7.8722189 3,7.2456607 4.006256,7.7179568 L 3.9593145,2.9077004 C 4,0.48785576 8,0.23248394 7.981327,2.9935403 l 0.02667,1.9758494 c 1.434054,-0.2766626 1.561598,1.0282079 1.561598,1.0282079 0,0 1.408073,-0.9975976 2.03755,0.7379425 C 12.750121,5.6055869 14,6.6359264 13.975315,8.2969699 l -0.003,6.7149101 z M 13.008843,14.029093 13.004003,8.0417573 C 12.753539,6.4868004 11.60895,7.5247553 11.557583,9.3157539 11.55809,6.6536481 9.990615,5.7190887 9.534644,8.7986381 9,5.6830047 7.692261,4.7847784 6.956092,7.9886458 L 6.894876,2.9533565 C 6.862912,1.7517273 5.024257,1.7519593 5.007525,2.9338095 L 4.994745,10.507086 C 5,11.525241 4,11.436353 3.999726,10.51856 L 3.9972177,8.7392938 C 2.9506827,8.5453301 3.0290036,9.1563108 3.02206,9.9914365 L 2.988648,14.009918 Z"
     sodipodi:nodetypes="cccccccccccccccccccccscc" />
  <path
     sodipodi:nodetypes="ccccccccccccccccccccc"
     id="path850"
     d="M 2.4503425,13.656281 C 3.0394911,11.761914 1.9758477,9.7541668 2.9610455,8.2634946 L 4.9017192,7.9310629 4.9698132,2.2058387 6.0933595,1.2824168 7.4116263,2.3523172 7.2169073,4.4220558 7.2849983,6.0103444 8.1021232,5.5301642 9.0213892,6.0472807 9.6001862,7.0445747 10.349216,6.4166501 11.0642,6.8598926 11.60895,7.5247553 12.58055,7 l 0.730745,1.4851153 0.204279,5.4297257 -1.021404,0.775675 -5.072983,0.216368 -3.2004082,0.0053 z"
     style="fill:url(#linearGradient947);fill-opacity:1;stroke:none;stroke-width:0.909873;stop-color:#000000" />
  <path
     sodipodi:nodetypes="cccccccccccccccccccccscc"
     d="m 2.0107165,15.007022 0.00927,-6.4832086 C 2.3131482,7.8722189 3,7.2456607 4.006256,7.7179568 L 3.9593145,2.9077004 C 4,0.48785576 8,0.23248394 7.981327,2.9935403 l 0.02667,1.9758494 c 1.434054,-0.2766626 1.561598,1.0282079 1.561598,1.0282079 0,0 1.408073,-0.9975976 2.03755,0.7379425 C 12.750121,5.6055869 14,6.6359264 13.975315,8.2969699 l -0.003,6.7149101 z M 13.008843,14.029093 13.004003,8.0417573 C 12.753539,6.4868004 11.60895,7.5247553 11.557583,9.3157539 11.55809,6.6536481 9.990615,5.7190887 9.534644,8.7986381 9,5.6830047 7.692261,4.7847784 6.956092,7.9886458 L 6.894876,2.9533565 C 6.862912,1.7517273 5.024257,1.7519593 5.007525,2.9338095 L 4.994745,10.507086 C 5,11.525241 4,11.436353 3.999726,10.51856 L 3.9972177,8.7392938 C 2.9506827,8.5453301 3.0290036,9.1563108 3.02206,9.9914365 L 2.988648,14.009918 Z"
     style="fill:#1a1a1a;stroke-width:0.699902"
     id="path839" />
  <path
     sodipodi:nodetypes="ccc"
     id="path842"
     d="m 8.7577898,9.802065 c -0.824037,2.503388 -1.8832208,0.201433 -1.8832208,0.201433 0,0 0.8628955,1.067818 1.8832208,-0.201433 z"
     style="fill:#1a1a1a;stroke:none;stroke-width:0.909873;stop-color:#000000" />
  <path
     style="fill:#1a1a1a;stroke:none;stroke-width:0.909873;stop-color:#000000"
     d="m 11.131303,9.779732 c -0.824037,2.503388 -1.8832182,0.2014332 -1.8832182,0.2014332 0,0 0.8628952,1.0678178 1.8832182,-0.2014332 z"
     id="path844"
     sodipodi:nodetypes="ccc" />
  <path
     sodipodi:nodetypes="ccc"
     id="path906"
     d="m 13.577963,9.779732 c -0.824037,2.503388 -1.883218,0.2014332 -1.883218,0.2014332 0,0 0.862895,1.0678178 1.883218,-0.2014332 z"
     style="fill:#1a1a1a;stroke:none;stroke-width:0.909873;stop-color:#000000" />
</svg>
