<?xml version="1.0" encoding="UTF-8" standalone="no"?>
<svg
   xmlns:dc="http://purl.org/dc/elements/1.1/"
   xmlns:cc="http://creativecommons.org/ns#"
   xmlns:rdf="http://www.w3.org/1999/02/22-rdf-syntax-ns#"
   xmlns:svg="http://www.w3.org/2000/svg"
   xmlns="http://www.w3.org/2000/svg"
   xmlns:xlink="http://www.w3.org/1999/xlink"
   xmlns:sodipodi="http://sodipodi.sourceforge.net/DTD/sodipodi-0.dtd"
   xmlns:inkscape="http://www.inkscape.org/namespaces/inkscape"
   inkscape:version="1.0 (4035a4fb49, 2020-05-01)"
   sodipodi:docname="ct_java.svg"
   version="1.1"
   width="16"
   height="16"
   id="svg3828">
  <sodipodi:namedview
     inkscape:current-layer="svg3828"
     inkscape:window-maximized="1"
     inkscape:window-y="22"
     inkscape:window-x="-8"
     inkscape:cy="12"
     inkscape:cx="3.8659158"
     inkscape:zoom="9.9562626"
     showgrid="false"
     id="namedview46"
     inkscape:window-height="715"
     inkscape:window-width="1366"
     inkscape:pageshadow="2"
     inkscape:pageopacity="0"
     guidetolerance="10"
     gridtolerance="10"
     objecttolerance="10"
     borderopacity="1"
     bordercolor="#666666"
     pagecolor="#ffffff"
     inkscape:document-rotation="0" />
  <defs
     id="defs3830">
    <linearGradient
       id="linearGradient3977">
      <stop
         id="stop3979"
         style="stop-color:#ffffff;stop-opacity:1"
         offset="0" />
      <stop
         id="stop3981"
         style="stop-color:#ffffff;stop-opacity:0.23529412"
         offset="0" />
      <stop
         id="stop3983"
         style="stop-color:#ffffff;stop-opacity:0.15686275"
         offset="1" />
      <stop
         id="stop3985"
         style="stop-color:#ffffff;stop-opacity:0.39215687"
         offset="1" />
    </linearGradient>
    <linearGradient
       id="linearGradient3600-4">
      <stop
         id="stop3602-7"
         style="stop-color:#f4f4f4;stop-opacity:1"
         offset="0" />
      <stop
         id="stop3604-6"
         style="stop-color:#dbdbdb;stop-opacity:1"
         offset="1" />
    </linearGradient>
    <linearGradient
       id="linearGradient5060">
      <stop
         id="stop5062"
         style="stop-color:#000000;stop-opacity:1"
         offset="0" />
      <stop
         id="stop5064"
         style="stop-color:#000000;stop-opacity:0"
         offset="1" />
    </linearGradient>
    <linearGradient
       id="linearGradient5048">
      <stop
         id="stop5050"
         style="stop-color:#000000;stop-opacity:0"
         offset="0" />
      <stop
         id="stop5056"
         style="stop-color:#000000;stop-opacity:1"
         offset="0.5" />
      <stop
         id="stop5052"
         style="stop-color:#000000;stop-opacity:0"
         offset="1" />
    </linearGradient>
    <linearGradient
       x1="23.99999"
       y1="6.4736748"
       x2="23.99999"
       y2="41.526306"
       id="linearGradient3013"
       xlink:href="#linearGradient3977"
       gradientUnits="userSpaceOnUse"
       gradientTransform="matrix(0.40540511,0,0,0.51351351,2.2696871,-0.3243195)" />
    <linearGradient
       x1="25.132275"
       y1="0.98520643"
       x2="25.132275"
       y2="47.013336"
       id="linearGradient3016"
       xlink:href="#linearGradient3600-4"
       gradientUnits="userSpaceOnUse"
       gradientTransform="matrix(0.45714178,0,0,0.43456667,1.0285964,0.90372283)" />
    <radialGradient
       cx="605.71429"
       cy="486.64789"
       r="117.14286"
       fx="605.71429"
       fy="486.64789"
       id="radialGradient3021"
       xlink:href="#linearGradient5060"
       gradientUnits="userSpaceOnUse"
       gradientTransform="matrix(0.01204859,0,0,0.0082353,13.238793,18.980564)" />
    <radialGradient
       cx="605.71429"
       cy="486.64789"
       r="117.14286"
       fx="605.71429"
       fy="486.64789"
       id="radialGradient3024"
       xlink:href="#linearGradient5060"
       gradientUnits="userSpaceOnUse"
       gradientTransform="matrix(-0.01204859,0,0,0.0082353,10.761206,18.980564)" />
    <linearGradient
       x1="302.85715"
       y1="366.64789"
       x2="302.85715"
       y2="609.50507"
       id="linearGradient3027"
       xlink:href="#linearGradient5048"
       gradientUnits="userSpaceOnUse"
       gradientTransform="matrix(0.0352071,0,0,0.0082353,-0.724852,18.980547)" />
    <radialGradient
       gradientTransform="matrix(-1.3864709e-7,5.7151119,-6.9396922,-1.7155228e-7,89.555224,-52.459993)"
       gradientUnits="userSpaceOnUse"
       xlink:href="#linearGradient2867-449-88-871-390-598-476-591-434-148-57-177-8-3"
       id="radialGradient3107"
       fy="9.9571075"
       fx="2.8021708"
       r="12.671875"
       cy="9.9571075"
       cx="3.3324013" />
    <linearGradient
       id="linearGradient2867-449-88-871-390-598-476-591-434-148-57-177-8-3">
      <stop
         id="stop3750-1-0"
         style="stop-color:#90dbec;stop-opacity:1"
         offset="0" />
      <stop
         id="stop3752-3-7"
         style="stop-color:#55c1ec;stop-opacity:1"
         offset="0.26238" />
      <stop
         id="stop3754-1-8"
         style="stop-color:#3689e6;stop-opacity:1"
         offset="0.704952" />
      <stop
         id="stop3756-1-6"
         style="stop-color:#2b63a0;stop-opacity:1"
         offset="1" />
    </linearGradient>
    <radialGradient
       r="12.671875"
       fy="9.9571075"
       fx="4.6097999"
       cy="9.9571075"
       cx="5.1400304"
       gradientTransform="matrix(0,4.2229722,-5.1278312,0,71.514325,-44.790352)"
       gradientUnits="userSpaceOnUse"
       id="radialGradient4528-6"
       xlink:href="#linearGradient4530-1" />
    <linearGradient
       id="linearGradient4530-1">
      <stop
         offset="0"
         style="stop-color:#fff3cb;stop-opacity:1"
         id="stop4532-9" />
      <stop
         offset="0.26238"
         style="stop-color:#ffed8d;stop-opacity:1"
         id="stop4534-6" />
      <stop
         offset="0.66093999"
         style="stop-color:#ffde2f;stop-opacity:1"
         id="stop4536-5" />
      <stop
         offset="1"
         style="stop-color:#fbc02d;stop-opacity:1"
         id="stop4538-4" />
    </linearGradient>
    <linearGradient
       id="linearGradient6515">
      <stop
         id="stop6517"
         offset="0"
         style="stop-color:#000000;stop-opacity:1;" />
      <stop
         id="stop6519"
         offset="1"
         style="stop-color:#ffffff;stop-opacity:0;" />
    </linearGradient>
    <linearGradient
       id="linearGradient6972">
      <stop
         id="stop6974"
         offset="0"
         style="stop-color:#ffffff;stop-opacity:1;" />
      <stop
         style="stop-color:#ffffff;stop-opacity:1;"
         offset="0.26791042"
         id="stop6988" />
      <stop
         id="stop6976"
         offset="1"
         style="stop-color:#babdb6;stop-opacity:1" />
    </linearGradient>
    <linearGradient
       id="linearGradient6674">
      <stop
         style="stop-color:#ffffff;stop-opacity:1;"
         offset="0"
         id="stop6676" />
      <stop
         style="stop-color:#d3d7cf;stop-opacity:1"
         offset="1"
         id="stop6678" />
    </linearGradient>
    <linearGradient
       id="linearGradient6415">
      <stop
         id="stop6417"
         offset="0"
         style="stop-color:#8e5801;stop-opacity:1;" />
      <stop
         style="stop-color:#543400;stop-opacity:1"
         offset="0.50000024"
         id="stop6501" />
      <stop
         id="stop6419"
         offset="1"
         style="stop-color:#e9b96e;stop-opacity:1" />
    </linearGradient>
    <linearGradient
       id="linearGradient7010">
      <stop
         style="stop-color:#ffffff;stop-opacity:0.2"
         offset="0"
         id="stop7012" />
      <stop
         style="stop-color:#ffffff;stop-opacity:1;"
         offset="1"
         id="stop7016" />
    </linearGradient>
  </defs>
  <metadata
     id="metadata3833">
    <rdf:RDF>
      <cc:Work
         rdf:about="">
        <dc:format>image/svg+xml</dc:format>
        <dc:type
           rdf:resource="http://purl.org/dc/dcmitype/StillImage" />
        <dc:title></dc:title>
      </cc:Work>
    </rdf:RDF>
  </metadata>
  <path
     id="path980"
     d="M 7.3540152,8.3583499 C 6.8131702,7.7566603 6.5102522,7.3487526 6.3458032,7.0006996 6.1898192,6.6705631 6.1839142,6.6077354 6.2818482,6.320316 6.4194612,5.9164441 6.8412692,5.4763007 8.0262712,4.5000676 8.3330722,4.247317 8.6572722,3.9466098 8.7467142,3.8318291 9.1001592,3.378259 9.2904382,2.7783268 9.2440832,2.263676 l -0.02469,-0.274135 0.09317,0.1986806 c 0.141756,0.3022934 0.160289,0.9585638 0.03827,1.3552216 -0.05084,0.1652454 -0.138852,0.3762952 -0.1956,0.4689983 -0.05675,0.092703 -0.519093,0.5894032 -1.027433,1.10378 -1.014478,1.0265205 -1.213926,1.2953435 -1.245419,1.6786137 -0.03158,0.3842617 0.186248,0.9123971 0.699479,1.6959668 0.115311,0.1760536 0.202747,0.3200967 0.1943,0.3200967 -0.0084,0 -0.198412,-0.2036467 -0.422144,-0.4525488 z"
     style="fill:#ff9955;fill-opacity:1;stroke-width:0.044151" />
  <path
     id="path978"
     d="m 8.5754512,9.0452907 c 0.244193,-0.405525 0.21539,-0.5713258 -0.205615,-1.1836423 -0.270423,-0.3933078 -0.394597,-0.675434 -0.424116,-0.963603 -0.083,-0.8102925 0.671253,-1.5583469 2.1452398,-2.1276018 0.219184,-0.084649 0.423003,-0.1539071 0.452933,-0.1539071 0.02992,0 -0.152292,0.1402239 -0.404936,0.3116087 -0.6556038,0.4447387 -1.0465268,0.7759411 -1.2640998,1.0709861 -0.324545,0.4401083 -0.314393,0.6593288 0.0577,1.2458004 0.446078,0.7031014 0.494684,1.0066256 0.226125,1.4120776 -0.119996,0.1811594 -0.624579,0.639552 -0.703999,0.639552 -0.01679,0 0.03755,-0.1130718 0.120777,-0.2512706 z"
     style="fill:#ff9955;fill-opacity:1;stroke-width:0.044151" />
  <path
     id="path976"
     d="M 5.6608692,10.000874 C 4.7209572,9.9225537 4.1865996,9.7858171 4.2346391,9.6359206 4.2816764,9.489148 5.0778492,9.1718427 5.6957092,9.0536258 c 0.490925,-0.093929 0.54378,-0.078781 0.161221,0.046205 -0.436954,0.1427578 -0.684343,0.2861371 -0.684343,0.3966217 0,0.060814 0.05274,0.1062576 0.176605,0.1521743 0.23403,0.086753 2.808803,0.09488 3.532096,0.011157 0.575148,-0.066577 1.4117548,-0.1796216 1.5673658,-0.2117752 0.06726,-0.013903 0.009,0.039081 -0.149,0.1356205 -0.279316,0.170605 -0.4434036,0.204592 -1.7053478,0.3532206 -0.723637,0.08523 -2.27317,0.1190523 -2.933437,0.06404 z"
     style="fill:#37abc8;fill-opacity:1;stroke-width:0.044151" />
  <path
     id="path974"
     d="m 10.974329,11.102559 c 0.647324,-0.431021 1.107918,-1.010976 1.107918,-1.3950299 0,-0.4407371 -0.324801,-0.7151451 -0.856499,-0.7236098 l -0.225205,-0.0036 0.132454,-0.060657 c 0.07285,-0.033357 0.251661,-0.061109 0.397361,-0.061672 0.758447,-0.00287 1.244624,0.6451866 0.946284,1.2614737 -0.106461,0.219922 -0.519113,0.616993 -0.810385,0.779787 -0.204066,0.114056 -0.658644,0.303896 -0.864394,0.36099 -0.0607,0.01684 0.0169,-0.05412 0.172466,-0.157704 z"
     style="fill:#37abc8;fill-opacity:1;stroke-width:0.044151" />
  <path
     id="path972"
     d="m 6.6074992,11.372652 c -0.786089,-0.07688 -1.242977,-0.201802 -1.329519,-0.363508 -0.08026,-0.149967 0.02992,-0.32642 0.282374,-0.452223 0.232116,-0.115668 0.30405,-0.117454 0.210917,-0.0052 -0.0764,0.09206 -0.02199,0.222978 0.119621,0.287835 0.06631,0.03037 0.3175,0.07673 0.558194,0.103017 0.506069,0.05527 1.810684,-0.0064 2.61091,-0.123641 l 0.487767,-0.0714 0.2295369,0.154467 0.2295369,0.154468 -0.2537159,0.07382 c -0.6307499,0.183533 -1.0894379,0.245875 -1.9314609,0.262519 -0.46138,0.0091 -1.007753,4.5e-5 -1.214161,-0.02012 z"
     style="fill:#37abc8;fill-opacity:1;stroke-width:0.044151" />
  <path
     id="path970"
     d="m 4.9656282,12.754348 c 0.03187,-0.01275 0.06995,-0.01118 0.08462,0.0035 0.01467,0.01467 -0.0114,0.02511 -0.05795,0.02319 -0.05143,-0.0022 -0.0619,-0.01258 -0.02668,-0.02667 z"
     style="fill:#37abc8;fill-opacity:1;stroke-width:0.044151" />
  <path
     id="path968"
     d="m 7.1152402,12.783082 c -0.934692,-0.07498 -1.479066,-0.287115 -1.479066,-0.576378 0,-0.133701 0.158637,-0.276868 0.363856,-0.328375 0.100112,-0.02512 0.112529,-0.01714 0.09248,0.05954 -0.01653,0.06321 0.01226,0.111758 0.10053,0.169578 0.111493,0.07303 0.230561,0.08101 1.207291,0.08101 0.704593,0 1.209072,-0.02089 1.442336,-0.05973 l 0.358737,-0.05973 0.321121,0.177324 0.3211222,0.177323 -0.3208282,0.09555 c -0.787102,0.23441 -1.627157,0.326484 -2.407578,0.263883 z"
     style="fill:#37abc8;fill-opacity:1;stroke-width:0.044151" />
  <path
     id="path966"
     d="m 5.0842842,13.972614 c -0.49599,-0.04201 -1.1578073,-0.142485 -1.4349129,-0.217835 -0.2186095,-0.05944 -0.4415121,-0.205698 -0.4415121,-0.289695 0,-0.215586 0.4856415,-0.484322 1.1141563,-0.616534 0.4912707,-0.103342 0.6478087,-0.07771 0.2480717,0.04061 -0.3983161,0.117909 -0.5675065,0.218298 -0.5675065,0.336729 0,0.164225 0.4092105,0.285508 1.3686865,0.405652 0.994526,0.124536 3.857235,0.05753 5.1557448,-0.120673 0.958139,-0.131492 1.477532,-0.349074 1.348223,-0.564792 -0.01688,-0.02816 0.0029,-0.02393 0.04401,0.0094 0.104268,0.08458 0.09367,0.147974 -0.04672,0.279315 -0.33153,0.310184 -1.224065,0.568883 -2.4172748,0.700645 -0.574008,0.06338 -3.743352,0.09034 -4.370968,0.03717 z"
     style="fill:#37abc8;fill-opacity:1;stroke-width:0.044151" />
  <path
     id="path962"
     d="m 6.6295742,14.633487 c -0.45008,-0.04257 -1.295201,-0.195663 -1.44545,-0.261835 -0.08144,-0.03586 -0.06729,-0.04012 0.07676,-0.02304 1.1806,0.13997 3.84042,0.142887 4.8345558,0.0053 0.993962,-0.137561 1.838387,-0.403435 2.334833,-0.735144 0.135532,-0.09056 0.145075,-0.0919 0.10314,-0.01448 -0.359936,0.664479 -2.195816,1.088271 -4.6455318,1.072367 -0.473521,-0.0031 -1.039762,-0.0225 -1.258312,-0.04317 z"
     style="fill:#37abc8;fill-opacity:1;stroke-width:0.044151" />
</svg>
