<?xml version="1.0" encoding="UTF-8" standalone="no"?>
<svg
   viewBox="0 0 8 8"
   width="16"
   height="16"
   version="1.1"
   id="svg6"
   sodipodi:docname="ct_kubernetes.svg"
   inkscape:version="1.1.1 (3bf5ae0d25, 2021-09-20)"
   xmlns:inkscape="http://www.inkscape.org/namespaces/inkscape"
   xmlns:sodipodi="http://sodipodi.sourceforge.net/DTD/sodipodi-0.dtd"
   xmlns="http://www.w3.org/2000/svg"
   xmlns:svg="http://www.w3.org/2000/svg">
  <defs
     id="defs10" />
  <sodipodi:namedview
     id="namedview8"
     pagecolor="#ffffff"
     bordercolor="#666666"
     borderopacity="1.0"
     inkscape:pageshadow="2"
     inkscape:pageopacity="0.0"
     inkscape:pagecheckerboard="0"
     showgrid="false"
     inkscape:zoom="6.453125"
     inkscape:cx="-0.23244552"
     inkscape:cy="11.079903"
     inkscape:window-width="1920"
     inkscape:window-height="1016"
     inkscape:window-x="0"
     inkscape:window-y="0"
     inkscape:window-maximized="1"
     inkscape:current-layer="svg6" />
  <g
     id="g829"
     transform="matrix(0.24839067,0,0,0.25602407,0.05006405,-0.07142077)">
    <path
       d="M 15.9,0.476 A 2.14,2.14 0 0 0 15.077,0.694 L 3.932,6.01 C 3.35,6.287 2.927,6.814 2.782,7.442 L 0.054,19.373 c -0.13,0.56 -0.025,1.147 0.3,1.627 q 0.057,0.087 0.12,0.168 l 7.7,9.574 c 0.407,0.5 1.018,0.787 1.662,0.784 h 12.35 c 0.646,0.001 1.258,-0.3 1.664,-0.793 l 7.696,-9.576 c 0.404,-0.5 0.555,-1.16 0.4,-1.786 L 29.2,7.43 C 29.055,6.802 28.63,6.275 28.05,5.998 L 16.923,0.695 A 2.14,2.14 0 0 0 15.89,0.476 Z"
       fill="#326ce5"
       id="path2" />
    <path
       d="m 16.002,4.542 c -0.384,0.027 -0.675,0.356 -0.655,0.74 V 5.47 c 0.018,0.213 0.05,0.424 0.092,0.633 a 6.22,6.22 0 0 1 0.066,1.21 C 15.467,7.446 15.391,7.566 15.287,7.658 L 15.272,7.94 c -0.405,0.034 -0.807,0.096 -1.203,0.186 -1.666,0.376 -3.183,1.24 -4.354,2.485 l -0.24,-0.17 C 9.343,10.481 9.201,10.466 9.08,10.401 A 6.22,6.22 0 0 1 8.183,9.591 5.55,5.55 0 0 0 7.746,9.126 L 7.598,9.008 C 7.466,8.902 7.304,8.841 7.135,8.833 A 0.64,0.64 0 0 0 6.604,9.069 C 6.378,9.386 6.452,9.825 6.768,10.052 l 0.138,0.11 a 5.55,5.55 0 0 0 0.552,0.323 c 0.354,0.197 0.688,0.428 0.998,0.7 a 0.74,0.74 0 0 1 0.133,0.384 l 0.218,0.2 c -1.177,1.766 -1.66,3.905 -1.358,6.006 l -0.28,0.08 c -0.073,0.116 -0.17,0.215 -0.286,0.288 a 6.22,6.22 0 0 1 -1.194,0.197 5.57,5.57 0 0 0 -0.64,0.05 l -0.177,0.04 h -0.02 a 0.67,0.67 0 0 0 -0.387,1.132 0.67,0.67 0 0 0 0.684,0.165 h 0.013 l 0.18,-0.02 c 0.203,-0.06 0.403,-0.134 0.598,-0.218 0.375,-0.15 0.764,-0.265 1.162,-0.34 0.138,0.008 0.27,0.055 0.382,0.135 l 0.3,-0.05 c 0.65,2.017 2.016,3.726 3.84,4.803 l -0.122,0.255 c 0.056,0.117 0.077,0.247 0.06,0.376 -0.165,0.382 -0.367,0.748 -0.603,1.092 a 5.58,5.58 0 0 0 -0.358,0.533 l -0.085,0.18 a 0.67,0.67 0 0 0 0.65,1.001 0.67,0.67 0 0 0 0.553,-0.432 l 0.083,-0.17 c 0.076,-0.2 0.14,-0.404 0.192,-0.61 0.177,-0.437 0.273,-0.906 0.515,-1.196 a 0.54,0.54 0 0 1 0.286,-0.14 l 0.15,-0.273 a 8.62,8.62 0 0 0 6.146,0.015 l 0.133,0.255 c 0.136,0.02 0.258,0.095 0.34,0.205 0.188,0.358 0.34,0.733 0.456,1.12 a 5.57,5.57 0 0 0 0.194,0.611 l 0.083,0.17 a 0.67,0.67 0 0 0 1.187,0.131 0.67,0.67 0 0 0 0.016,-0.701 l -0.087,-0.18 a 5.55,5.55 0 0 0 -0.358,-0.531 c -0.23,-0.332 -0.428,-0.686 -0.6,-1.057 a 0.52,0.52 0 0 1 0.068,-0.4 2.29,2.29 0 0 1 -0.111,-0.269 c 1.82,-1.085 3.18,-2.8 3.823,-4.82 l 0.284,0.05 c 0.102,-0.093 0.236,-0.142 0.373,-0.138 0.397,0.076 0.786,0.2 1.162,0.34 0.195,0.09 0.395,0.166 0.598,0.23 0.048,0.013 0.118,0.024 0.172,0.037 h 0.013 A 0.67,0.67 0 0 0 27.678,18.87 0.67,0.67 0 0 0 27.134,18.424 L 26.94,18.378 a 5.57,5.57 0 0 0 -0.64,-0.05 c -0.404,-0.026 -0.804,-0.092 -1.194,-0.197 -0.12,-0.067 -0.22,-0.167 -0.288,-0.288 l -0.27,-0.08 A 8.65,8.65 0 0 0 23.162,11.77 l 0.236,-0.218 c -0.01,-0.137 0.035,-0.273 0.124,-0.378 0.307,-0.264 0.64,-0.497 0.99,-0.696 a 5.57,5.57 0 0 0 0.552,-0.323 L 25.21,10.037 A 0.67,0.67 0 0 0 25.077,8.835 0.67,0.67 0 0 0 24.381,8.996 l -0.148,0.118 a 5.57,5.57 0 0 0 -0.437,0.465 c -0.264,0.302 -0.556,0.577 -0.873,0.823 a 0.74,0.74 0 0 1 -0.404,0.044 l -0.253,0.18 c -1.46,-1.53 -3.427,-2.48 -5.535,-2.67 0,-0.1 -0.013,-0.25 -0.015,-0.297 C 16.603,7.581 16.524,7.462 16.498,7.327 A 6.23,6.23 0 0 1 16.574,6.12 C 16.617,5.91 16.647,5.7 16.666,5.487 v -0.2 c 0.02,-0.384 -0.27,-0.713 -0.655,-0.74 z m -0.834,5.166 -0.2,3.493 h -0.015 c -0.01,0.216 -0.137,0.4 -0.332,0.504 -0.195,0.104 -0.426,0.073 -0.6,-0.054 l -2.865,-2.03 a 6.86,6.86 0 0 1 3.303,-1.799 c 0.234,-0.05 0.47,-0.088 0.707,-0.114 z m 1.668,0 c 1.505,0.187 2.906,0.863 3.99,1.924 l -2.838,2.017 c -0.175,0.14 -0.415,0.168 -0.618,0.072 -0.203,-0.096 -0.333,-0.3 -0.336,-0.524 z m -6.72,3.227 2.62,2.338 v 0.015 c 0.163,0.142 0.234,0.363 0.186,0.574 -0.048,0.211 -0.21,0.378 -0.417,0.435 v 0.01 l -3.362,0.967 a 6.86,6.86 0 0 1 0.974,-4.34 z m 11.753,0 c 0.796,1.295 1.148,2.814 1.002,4.327 l -3.367,-0.97 v -0.013 c -0.21,-0.057 -0.37,-0.224 -0.417,-0.435 -0.047,-0.211 0.023,-0.43 0.186,-0.574 l 2.6,-2.327 z m -6.404,2.52 h 1.072 l 0.655,0.832 -0.238,1.04 -0.963,0.463 -0.965,-0.463 -0.227,-1.04 z m 3.434,2.838 c 0.045,-0.005 0.1,-0.005 0.135,0 l 3.467,0.585 c -0.5,1.44 -1.487,2.67 -2.775,3.493 l -1.34,-3.244 a 0.59,0.59 0 0 1 0.509,-0.819 z m -5.823,0.015 c 0.196,0.003 0.377,0.104 0.484,0.268 0.107,0.164 0.124,0.37 0.047,0.55 v 0.013 l -1.332,3.218 C 11,21.54 10.032,20.325 9.517,18.9 l 3.437,-0.583 c 0.038,-0.004 0.077,-0.004 0.116,0 z m 2.904,1.4 a 0.59,0.59 0 0 1 0.537,0.308 h 0.013 l 1.694,3.057 -0.677,0.2 C 16.301,23.558 15,23.491 13.789,23.079 l 1.7,-3.057 c 0.103,-0.18 0.293,-0.29 0.5,-0.295 z"
       fill="#ffffff"
       stroke="#ffffff"
       stroke-width="0.055"
       id="path4" />
  </g>
</svg>
