<?xml version="1.0" encoding="utf-8"?><!-- Uploaded to: SVG Repo, www.svgrepo.com, Generator: SVG Repo Mixer Tools -->
<svg width="800px" height="800px" viewBox="0 0 128 128" xmlns="http://www.w3.org/2000/svg" xmlns:xlink="http://www.w3.org/1999/xlink" aria-hidden="true" role="img" class="iconify iconify--noto" preserveAspectRatio="xMidYMid meet"><path d="M62.18 22.88c5.55-.08 11.05 1.02 16.09 3c8.7 3.42 28.4 5.23 32.31 12.32c4.63 8.4-2.68 29.11-2.27 32.51c.39 3.29.48 7.47.07 10.68c-.72 5.6-2.93 11.04-6.75 15.94c-3.86 4.94-9.88 9.18-18.24 11.64c-17.63 5.17-41.08 1.87-50.28-5.75c-3.45-2.85-6.01-5.86-7.84-9.08c-3.06-5.36-4.12-11.29-3.94-18.02c.29-10.77-11.4-26.77-3.35-35.82s28.2-13.84 28.2-13.84s6.37-3.43 16-3.58z" fill="#b0b0b0"></path><path d="M92.96 34.76c.24 1.01 2.78 4.31 5.94 10.44c3.03 5.87 5.46 11.97 5.94 12.07c1.14.23 12.93-3.45 13.02-3.83c.1-.38-4.02-20.11-4.02-20.11l-18.67-5.17l-2.21 6.6z" fill="#febdbe"></path><path d="M28.18 45.87c3.16-7.43 5.7-9.53 5.99-10.77c.29-1.24-11.01-3.5-11.01-3.5L10.8 38.97l3.06 14.75s8.52 7.04 9.1 6.94c.58-.09 2.06-7.37 5.22-14.79z" fill="#febdbe"></path><linearGradient id="IconifyId17ecdb2904d178eab9901" gradientUnits="userSpaceOnUse" x1="11.839" y1="72.857" x2="30.504" y2="18.649"><stop offset=".182" stop-color="#c9c7c8"></stop><stop offset=".256" stop-color="#bdbcbd"></stop><stop offset=".411" stop-color="#a8a8aa"></stop><stop offset=".498" stop-color="#9e9ea1"></stop><stop offset=".648" stop-color="#828487"></stop><stop offset=".799" stop-color="#606468"></stop></linearGradient><path d="M46.71 26.43c.38-3.55-13.79-7.18-18.1-4.69c-3.15 1.82.19 3.45-1.15 4.6c-.89.76-9-3.06-15.03 1.53c-4.59 3.49-2.01 3.83-2.3 4.98c-.29 1.15-3.16 2.97-4.98 5.75s-2.78 6.75-2.2 7.37c.71.77 2.79-.77 3.06.77c.29 1.63-3.23 6.98-1.63 11.87c1.53 4.69 2.87 1.15 3.93 2.59c1.05 1.44.1 3.54 2.59 8.04c1.66 3 3.6 3.94 4.31 4.12c1.15.29.96-1.15 2.39-1.24c1.44-.1 3.73 4.02 3.73 4.02s-.1-3.45.53-8.81c.63-5.4 1.77-7.09 1.68-7.95c-.1-.86-9.38-6.51-6.13-16.18s12.16-7.95 13.31-7.66c1.15.29 2.97.96 5.65.29c2.68-.69 9.96-5.86 10.34-9.4z" fill="url(#IconifyId17ecdb2904d178eab9901)"></path><linearGradient id="IconifyId17ecdb2904d178eab9902" gradientUnits="userSpaceOnUse" x1="117.2" y1="67.083" x2="94.42" y2="15.917"><stop offset=".164" stop-color="#c9c7c8"></stop><stop offset=".244" stop-color="#bdbcbd"></stop><stop offset=".411" stop-color="#a8a8aa"></stop><stop offset=".486" stop-color="#96979a"></stop><stop offset=".674" stop-color="#6f7276"></stop><stop offset=".772" stop-color="#606468"></stop></linearGradient><path d="M77.83 25.95c-.15 1.21 3.56 4.07 6.03 5.65c3.45 2.2 7.18 3.54 8.62 3.54s11.87-5.94 17.24 3.06c5.36 9-4.6 17.72-4.88 19.06c-.05 1.87.73 2.93 1.77 6.99c.96 3.73 1.39 5.12 1.63 6.61c.36.62 4.47-2.65 6.75-6.13c1.63-2.49 1.72-5.08 2.68-5.36c.96-.29 1.53 2.68 2.78 2.49c1.24-.19 3.49-6.7 3.02-11.2c-.67-6.32-4.45-8.43-3.3-10.44c1.15-2.01 3.73.38 4.6-1.24c.86-1.63-1.24-6.22-4.41-8.43s-6.32-1.92-6.8-3.06c-.48-1.15 1.63-1.72 1.63-2.97c0-1.24-3.45-3.16-9.48-3.45c-5.18-.25-9.86 2.49-10.15.96s1.05-1.44.96-2.11c-.1-.67-3.68-2.25-9-.77c-4.13 1.15-9.5 5.29-9.69 6.8z" fill="url(#IconifyId17ecdb2904d178eab9902)"></path><path d="M84.82 59.2c-3.6.18-4.24 4.24-4.02 6.97c.23 2.95 1.01 6.46 4.74 6.39c3.81-.07 4.74-4.09 4.81-7.18c.08-3.09-1.14-6.39-5.53-6.18z" fill="#2f2f2f"></path><path d="M43.74 58.99c-3.6.18-4.55 3.08-4.45 5.82c.14 4.24 2.59 7.47 5.17 7.54c3.81.11 4.6-3.45 4.67-6.54c.07-3.09-1.01-7.04-5.39-6.82z" fill="#2f2f2f"></path><path d="M85.69 63.73c-.62 1.45-2.06 2.54-2.94 2.17s-1.08-1.85-.46-3.3s1.83-2.32 2.7-1.94c.88.37 1.32 1.62.7 3.07z" fill="#dfdfdf"></path><path d="M44.68 64.37c-.75 1.3-2.59 2.22-3.45 1.72c-.86-.49-.69-2.2.06-3.5s2.05-1.96 2.91-1.46c.85.49 1.23 1.94.48 3.24z" fill="#dfdfdf"></path><radialGradient id="IconifyId17ecdb2904d178eab9903" cx="64.642" cy="78.883" r="24.191" gradientUnits="userSpaceOnUse"><stop offset=".784" stop-color="#febdbb"></stop><stop offset=".821" stop-color="#f5bebc"></stop><stop offset=".88" stop-color="#dcc1c0"></stop><stop offset=".922" stop-color="#c7c3c3"></stop></radialGradient><path d="M67.73 94.47l-7.47-.14l-6.18-2.08s-.12 3.9.07 6.25c.22 2.59 2.73 8.05 10.92 7.9c7.97-.14 10.63-5.01 10.7-7.97c.07-2.94-.07-5.24-.07-5.24l-7.97 1.28z" fill="url(#IconifyId17ecdb2904d178eab9903)"></path><path d="M64.93 92.89c-2.3.07-5.46-.57-6.68-1.01c-1.22-.43-3.02-1.72-4.17-.36c-1.15 1.36.5 3.16 3.16 4.02c2.66.86 4.67 1.36 7.54 1.29c3.59-.09 6.89-.72 8.04-1.08s3.85-1.53 3.09-3.38c-.86-2.08-2.37-.72-4.31-.22c-1.93.52-4.23.66-6.67.74z" fill="#2f2f2f"></path><path d="M64.86 59.99c-7.18-.15-9.41 5.67-9.98 9.48c-.57 3.81-1.14 7.74-.12 12.4c1.01 4.6 4.64 7.22 10.03 7.13c4.74-.07 7.48-1.74 8.91-4.52c1.58-3.09 1.51-6.18 1.22-12.86c-.29-6.67-3.38-11.49-10.06-11.63z" fill="#303030"></path><path d="M66.26 85.74c0 .69 1.03 1.09 2.19.75c1.22-.36 3.12-1.47 3.7-2.77c.31-.69.07-1.72-.68-1.4s-1.36 1.04-2.41 1.69c-1.04.65-2.8 1.19-2.8 1.73z" fill="#afafaf"></path><path d="M60.69 83.94c-1.6-.97-2.12-1.76-2.84-1.51c-.72.25-.32 1.69.43 2.33s2.08 1.65 3.45 1.94c1.07.22 1.8-.61 1.44-1.08c-.36-.46-1.29-.96-2.48-1.68z" fill="#afafaf"></path></svg>