<?xml version="1.0" encoding="UTF-8" standalone="no"?>
<svg
   width="16"
   height="16"
   version="1.1"
   id="svg64"
   sodipodi:docname="ct_latex_edit.svg"
   inkscape:version="1.1.1 (3bf5ae0d25, 2021-09-20)"
   xmlns:inkscape="http://www.inkscape.org/namespaces/inkscape"
   xmlns:sodipodi="http://sodipodi.sourceforge.net/DTD/sodipodi-0.dtd"
   xmlns:xlink="http://www.w3.org/1999/xlink"
   xmlns="http://www.w3.org/2000/svg"
   xmlns:svg="http://www.w3.org/2000/svg">
  <sodipodi:namedview
     id="namedview66"
     pagecolor="#ffffff"
     bordercolor="#666666"
     borderopacity="1.0"
     inkscape:pageshadow="2"
     inkscape:pageopacity="0.0"
     inkscape:pagecheckerboard="0"
     showgrid="false"
     inkscape:zoom="25.8125"
     inkscape:cx="3.2736077"
     inkscape:cy="6.1404358"
     inkscape:window-width="1920"
     inkscape:window-height="1016"
     inkscape:window-x="0"
     inkscape:window-y="0"
     inkscape:window-maximized="1"
     inkscape:current-layer="svg64" />
  <defs
     id="defs29">
    <clipPath
       id="h">
      <use
         width="228"
         height="228"
         xlink:href="#a"
         id="use2"
         x="0"
         y="0" />
    </clipPath>
    <radialGradient
       id="g"
       cx="167.78799"
       cy="143.93201"
       r="12.322"
       fx="167.78799"
       fy="143.93201"
       gradientUnits="userSpaceOnUse">
      <stop
         offset="0"
         stop-color="#fff"
         id="stop5" />
      <stop
         offset="1"
         id="stop7" />
    </radialGradient>
    <clipPath
       id="f">
      <use
         width="228"
         height="228"
         xlink:href="#b"
         id="use10"
         x="0"
         y="0" />
    </clipPath>
    <radialGradient
       id="e"
       cx="158.50301"
       cy="140.87601"
       r="14.791"
       fx="158.50301"
       fy="140.87601"
       gradientTransform="matrix(1.0191,0,0,1.1269,-6.707,-10.842)"
       gradientUnits="userSpaceOnUse">
      <stop
         offset="0"
         stop-color="#fff"
         id="stop13" />
      <stop
         offset="1"
         id="stop15" />
    </radialGradient>
    <clipPath
       id="j">
      <use
         width="228"
         height="228"
         xlink:href="#c"
         id="use18"
         x="0"
         y="0" />
    </clipPath>
    <radialGradient
       id="i"
       cx="114"
       cy="114"
       r="114"
       fx="114"
       fy="114"
       gradientUnits="userSpaceOnUse">
      <stop
         offset="0"
         stop-color="#fff"
         id="stop21" />
      <stop
         offset="1"
         stop-color="red"
         id="stop23" />
    </radialGradient>
    <filter
       id="d"
       x="-0.019971997"
       y="-0.02096055"
       width="1.039944"
       height="1.0419211">
      <feGaussianBlur
         in="SourceAlpha"
         stdDeviation="1"
         id="feGaussianBlur26" />
    </filter>
    <radialGradient
       cx="64.575233"
       cy="48.605404"
       r="31.000002"
       fx="64.575233"
       fy="48.605404"
       id="radialGradient3259"
       xlink:href="#linearGradient3242-7-3-8-0-4-58-06"
       gradientUnits="userSpaceOnUse"
       gradientTransform="matrix(0,0.38528829,-0.41958841,0,25.389782,-23.793293)" />
    <linearGradient
       id="linearGradient3242-7-3-8-0-4-58-06">
      <stop
         id="stop3244-5-8-5-6-4-3-8"
         style="stop-color:#cdf87e;stop-opacity:1"
         offset="0" />
      <stop
         id="stop3246-9-5-1-5-3-0-7"
         style="stop-color:#a2e34f;stop-opacity:1"
         offset="0.26238" />
      <stop
         id="stop3248-7-2-0-7-5-35-9"
         style="stop-color:#68b723;stop-opacity:1"
         offset="0.66093999" />
      <stop
         id="stop3250-8-2-8-5-6-40-4"
         style="stop-color:#1d7e0d;stop-opacity:1"
         offset="1" />
    </linearGradient>
    <radialGradient
       cx="64.575233"
       cy="48.605404"
       r="31.000002"
       fx="64.575233"
       fy="48.605404"
       id="radialGradient3259-3"
       xlink:href="#linearGradient3242-7-3-8-0-4-58-06"
       gradientUnits="userSpaceOnUse"
       gradientTransform="matrix(0,0.38528829,-0.41958841,0,25.389782,-23.793293)" />
    <linearGradient
       spreadMethod="pad"
       gradientTransform="matrix(0.415777,-0.4174938,0.518983,0.5146192,-15.747227,2.6503673)"
       gradientUnits="userSpaceOnUse"
       xlink:href="#linearGradient902"
       id="linearGradient8639"
       y2="31.210939"
       x2="23.575972"
       y1="25.356892"
       x1="23.575972" />
    <linearGradient
       id="linearGradient902">
      <stop
         id="stop886"
         style="stop-color:#ad5f00;stop-opacity:1"
         offset="0" />
      <stop
         id="stop888"
         style="stop-color:#ffe16b;stop-opacity:1"
         offset="0.13482948" />
      <stop
         id="stop890"
         style="stop-color:#f9c440;stop-opacity:1"
         offset="0.20224422" />
      <stop
         id="stop892"
         style="stop-color:#fff394;stop-opacity:1"
         offset="0.26965895" />
      <stop
         id="stop894"
         style="stop-color:#f9c440;stop-opacity:1"
         offset="0.44650277" />
      <stop
         id="stop896"
         style="stop-color:#f9c440;stop-opacity:1"
         offset="0.57114136" />
      <stop
         id="stop898"
         style="stop-color:#ffe16b;stop-opacity:1"
         offset="0.72038066" />
      <stop
         id="stop900"
         style="stop-color:#ad5f00;stop-opacity:1"
         offset="1" />
    </linearGradient>
    <linearGradient
       spreadMethod="pad"
       y2="31.210939"
       x2="23.575972"
       y1="25.356892"
       x1="23.575972"
       gradientTransform="matrix(0.4282553,-0.43106531,0.53455872,0.53134798,-16.236606,2.2149977)"
       gradientUnits="userSpaceOnUse"
       id="linearGradient881"
       xlink:href="#linearGradient3155-40" />
    <linearGradient
       id="linearGradient3155-40">
      <stop
         offset="0"
         style="stop-color:#555761;stop-opacity:1"
         id="stop2541" />
      <stop
         offset="0.13482948"
         style="stop-color:#d4d4d4;stop-opacity:1"
         id="stop2543" />
      <stop
         offset="0.20224422"
         style="stop-color:#abacae;stop-opacity:1"
         id="stop2545" />
      <stop
         offset="0.26965895"
         style="stop-color:#fafafa;stop-opacity:1"
         id="stop2547" />
      <stop
         offset="0.44650277"
         style="stop-color:#abacae;stop-opacity:1"
         id="stop2549" />
      <stop
         offset="0.57114136"
         style="stop-color:#abacae;stop-opacity:1"
         id="stop2551" />
      <stop
         offset="0.72038066"
         style="stop-color:#d4d4d4;stop-opacity:1"
         id="stop2553" />
      <stop
         offset="1"
         style="stop-color:#555761;stop-opacity:1"
         id="stop2555" />
    </linearGradient>
    <linearGradient
       gradientTransform="matrix(0.4040235,-0.4056919,0.6073752,0.6022679,-17.867764,0.6930272)"
       gradientUnits="userSpaceOnUse"
       xlink:href="#linearGradient3240-279"
       id="linearGradient8641"
       y2="30.000141"
       x2="30.037716"
       y1="24.989594"
       x1="30.037716" />
    <linearGradient
       id="linearGradient3240-279">
      <stop
         offset="0"
         style="stop-color:#555761;stop-opacity:1"
         id="stop2559" />
      <stop
         offset="0.5"
         style="stop-color:#abacae;stop-opacity:1"
         id="stop2561" />
      <stop
         offset="1"
         style="stop-color:#555761;stop-opacity:1"
         id="stop2563" />
    </linearGradient>
    <linearGradient
       gradientTransform="matrix(0.4040235,-0.4056919,0.6073752,0.6022679,-17.983472,0.8092126)"
       gradientUnits="userSpaceOnUse"
       xlink:href="#linearGradient3223-789"
       id="linearGradient8643"
       y2="30.000141"
       x2="30.037716"
       y1="24.989594"
       x1="30.037716" />
    <linearGradient
       id="linearGradient3223-789">
      <stop
         offset="0"
         style="stop-color:#abacae;stop-opacity:1"
         id="stop2567" />
      <stop
         offset="0.5"
         style="stop-color:#fafafa;stop-opacity:1"
         id="stop2569" />
      <stop
         offset="1"
         style="stop-color:#abacae;stop-opacity:1"
         id="stop2571" />
    </linearGradient>
    <linearGradient
       gradientTransform="matrix(0.4040235,-0.4056919,0.6073752,0.6022679,-17.465684,0.2892868)"
       gradientUnits="userSpaceOnUse"
       xlink:href="#linearGradient3240-279"
       id="linearGradient8645"
       y2="30.000141"
       x2="30.037716"
       y1="24.989594"
       x1="30.037716" />
    <linearGradient
       gradientTransform="matrix(0.4040235,-0.4056919,0.6073752,0.6022679,-17.581392,0.4054707)"
       gradientUnits="userSpaceOnUse"
       xlink:href="#linearGradient3223-789"
       id="linearGradient8647"
       y2="30.000141"
       x2="30.037716"
       y1="24.989594"
       x1="30.037716" />
    <linearGradient
       gradientTransform="matrix(0.4040235,-0.4056919,0.6073752,0.6022679,-17.061661,-0.1164056)"
       gradientUnits="userSpaceOnUse"
       xlink:href="#linearGradient3240-279"
       id="linearGradient8649"
       y2="30.000141"
       x2="30.037716"
       y1="24.989594"
       x1="30.037716" />
    <linearGradient
       gradientTransform="matrix(0.4040235,-0.4056919,0.6073752,0.6022679,-17.177369,-2.1969969e-4)"
       gradientUnits="userSpaceOnUse"
       xlink:href="#linearGradient3223-789"
       id="linearGradient8651"
       y2="30.000141"
       x2="30.037716"
       y1="24.989594"
       x1="30.037716" />
    <linearGradient
       gradientTransform="matrix(0.4040235,-0.4056919,0.6073752,0.602268,-17.636692,0.462492)"
       gradientUnits="userSpaceOnUse"
       xlink:href="#linearGradient3290-678"
       id="linearGradient8653"
       y2="26.02973"
       x2="9"
       y1="29.056757"
       x1="9" />
    <linearGradient
       id="linearGradient3290-678">
      <stop
         offset="0"
         style="stop-color:#fff394;stop-opacity:1"
         id="stop2607" />
      <stop
         offset="1"
         style="stop-color:#fafafa;stop-opacity:1"
         id="stop2609" />
    </linearGradient>
    <linearGradient
       gradientTransform="matrix(0.3763801,0.03615261,0.03669995,0.374874,-2.2182805,-1.1331002)"
       gradientUnits="userSpaceOnUse"
       xlink:href="#linearGradient3191-577"
       id="linearGradient8655"
       y2="41.391716"
       x2="9.5220556"
       y1="37.371799"
       x1="5.5178981" />
    <linearGradient
       id="linearGradient3191-577">
      <stop
         offset="0"
         style="stop-color:#d48e15;stop-opacity:1"
         id="stop2613" />
      <stop
         offset="1"
         style="stop-color:#ad5f00;stop-opacity:1"
         id="stop2615" />
    </linearGradient>
  </defs>
  <g
     id="g966"
     transform="matrix(0.12803251,0,0,0.13411476,-0.17396338,-1.1733847)">
    <g
       filter="url(#d)"
       opacity="0.5"
       transform="translate(-67.95,-99.838)"
       id="g35">
      <path
         d="m 132.203,150.82 17.996,-3.069 c 3.267,5.121 5.57,10.76 6.912,16.912 3.369,-4.984 5.911,-8.473 7.631,-10.468 2.303,-2.681 4.204,-4.425 5.698,-5.233 a 9.895,9.895 0 0 1 4.771,-1.211 c 1.89,0 3.342,0.521 4.356,1.563 1.015,1.04 1.522,2.447 1.522,4.216 0,1.668 -0.508,3.029 -1.522,4.089 -1.015,1.059 -2.276,1.586 -3.789,1.586 -1.1,0 -2.363,-0.215 -3.79,-0.648 -1.429,-0.433 -2.415,-0.65 -2.966,-0.65 -1.444,0 -2.818,0.518 -4.124,1.549 -1.791,1.409 -3.99,4.418 -6.603,9.023 2.912,10.293 5.239,16.568 6.987,18.83 1.027,1.34 2.071,2.008 3.135,2.008 0.89,0 1.661,-0.242 2.312,-0.729 0.992,-0.783 2.519,-2.746 4.574,-5.883 l 1.889,1.127 c -3.015,5.084 -5.961,8.666 -8.837,10.744 -2.192,1.609 -4.351,2.416 -6.475,2.416 -2.194,0 -4.018,-0.492 -5.475,-1.477 -1.456,-0.986 -2.749,-2.594 -3.878,-4.822 -1.131,-2.229 -2.467,-5.799 -4.008,-10.707 -4.048,5.15 -7.224,8.91 -9.524,11.277 -2.3,2.369 -4.212,3.914 -5.733,4.641 a 11.204,11.204 0 0 1 -4.879,1.088 c -1.797,0 -3.225,-0.514 -4.28,-1.543 -1.055,-1.029 -1.583,-2.367 -1.583,-4.012 0,-1.748 0.572,-3.188 1.714,-4.32 1.146,-1.131 2.6,-1.697 4.367,-1.697 0.934,0 1.991,0.285 3.17,0.852 1.73,0.85 2.976,1.275 3.735,1.275 1.001,0 1.899,-0.209 2.695,-0.629 1.035,-0.523 2.346,-1.656 3.936,-3.402 0.966,-1.08 2.743,-3.385 5.333,-6.908 -3.324,-12.189 -5.921,-19.481 -7.789,-21.878 -1.188,-1.542 -2.687,-2.313 -4.499,-2.313 -0.94,0 -2.092,0.139 -3.451,0.413 z"
         id="path31" />
      <path
         d="m 188.875,113.224 h -73.5 a 3.001,3.001 0 0 0 -2.955,2.479 L 97.794,198.758 90.61,171.46 a 2.999,2.999 0 0 0 -4.587,-1.718 l -13,8.834 a 3,3 0 0 0 -0.871,4.051 l 0.729,1.188 a 3,3 0 0 0 3.91,1.108 l 6.352,-3.211 12.345,43.826 a 3,3 0 0 0 5.841,-0.286 l 17.559,-98.36 h 69.989 a 3,3 0 0 0 3,-3 v -7.668 a 3.003,3.003 0 0 0 -3.002,-3 z"
         id="path33" />
    </g>
    <path
       d="m 63.262,49.925 17.996,-3.069 c 3.267,5.121 5.57,10.76 6.912,16.912 3.37,-4.983 5.911,-8.472 7.631,-10.468 2.303,-2.68 4.204,-4.425 5.698,-5.233 a 9.895,9.895 0 0 1 4.771,-1.21 c 1.89,0 3.342,0.52 4.356,1.563 1.015,1.04 1.522,2.447 1.522,4.216 0,1.667 -0.508,3.029 -1.522,4.089 -1.015,1.059 -2.276,1.585 -3.789,1.585 -1.1,0 -2.363,-0.215 -3.79,-0.648 -1.429,-0.432 -2.415,-0.65 -2.966,-0.65 -1.444,0 -2.818,0.518 -4.124,1.55 -1.79,1.408 -3.99,4.418 -6.603,9.022 2.912,10.293 5.24,16.569 6.987,18.83 1.027,1.34 2.071,2.008 3.135,2.008 0.89,0 1.661,-0.242 2.312,-0.728 0.992,-0.784 2.52,-2.747 4.574,-5.884 l 1.89,1.127 c -3.016,5.085 -5.962,8.666 -8.838,10.745 -2.192,1.608 -4.35,2.415 -6.475,2.415 -2.194,0 -4.018,-0.491 -5.475,-1.477 -1.456,-0.986 -2.749,-2.594 -3.878,-4.822 -1.13,-2.228 -2.467,-5.799 -4.008,-10.707 -4.048,5.15 -7.224,8.91 -9.524,11.277 -2.3,2.37 -4.212,3.915 -5.733,4.642 a 11.204,11.204 0 0 1 -4.879,1.087 c -1.797,0 -3.225,-0.514 -4.28,-1.543 -1.055,-1.029 -1.583,-2.367 -1.583,-4.012 0,-1.748 0.572,-3.188 1.714,-4.32 1.146,-1.13 2.6,-1.697 4.367,-1.697 0.934,0 1.991,0.285 3.17,0.852 1.73,0.85 2.976,1.276 3.735,1.276 1.001,0 1.9,-0.21 2.695,-0.63 1.035,-0.523 2.346,-1.655 3.936,-3.401 0.966,-1.08 2.743,-3.385 5.333,-6.909 -3.324,-12.189 -5.92,-19.48 -7.789,-21.877 -1.188,-1.543 -2.687,-2.313 -4.499,-2.313 -0.94,0 -2.092,0.138 -3.45,0.412 z"
       id="path37" />
    <g
       transform="translate(-67.95,-99.838)"
       id="g44">
      <defs
         id="defs40">
        <path
           id="b"
           d="m 147.445,175.285 c -3.391,-12.432 -5.996,-19.703 -7.965,-22.229 -1.378,-1.79 -3.158,-2.699 -5.288,-2.699 -0.204,0 -0.424,0.01 -0.646,0.021 l 15.161,-2.586 c 3.004,4.854 5.175,10.238 6.438,16.025 l 0.497,2.281 z" />
      </defs>
      <path
         fill="url(#e)"
         d="m 139.938,131.031 h 29.769 v 33.75 h -29.769 z"
         clip-path="url(#f)"
         id="path42"
         style="fill:url(#e)" />
    </g>
    <g
       transform="translate(-67.95,-99.838)"
       id="g51">
      <defs
         id="defs47">
        <path
           id="a"
           d="m 156.949,164.165 c 3.338,-4.938 5.882,-8.428 7.561,-10.374 2.21,-2.574 4.032,-4.258 5.416,-5.007 a 8.948,8.948 0 0 1 4.295,-1.091 c 1.622,0 2.813,0.412 3.641,1.26 0.833,0.855 1.238,2.006 1.238,3.519 0,1.411 -0.407,2.522 -1.245,3.397 -0.824,0.859 -1.827,1.277 -3.066,1.277 -0.998,0 -2.176,-0.203 -3.499,-0.605 -1.563,-0.473 -2.598,-0.693 -3.257,-0.693 -1.667,0 -3.263,0.594 -4.744,1.764 -1.906,1.5 -4.147,4.548 -6.853,9.316 z" />
      </defs>
      <path
         fill="url(#g)"
         d="m 155.622,131.457 h 24.333 v 24.949 h -24.333 z"
         clip-path="url(#h)"
         id="path49"
         style="fill:url(#g)" />
    </g>
    <path
       fill="#7a0000"
       d="m 119.934,12.328 h -73.5 a 3.001,3.001 0 0 0 -2.955,2.48 L 28.852,97.861 21.668,70.563 a 2.999,2.999 0 0 0 -4.587,-1.718 l -13,8.834 a 3,3 0 0 0 -0.87,4.051 l 0.728,1.189 a 3,3 0 0 0 3.91,1.108 l 6.352,-3.212 12.345,43.826 a 3,3 0 0 0 5.841,-0.286 l 17.56,-98.36 h 69.988 a 3,3 0 0 0 3,-3 v -7.667 a 3.001,3.001 0 0 0 -3,-3 z"
       id="path53" />
    <path
       fill="#ff1a00"
       d="m 119.934,13.828 h -73.5 a 1.5,1.5 0 0 0 -1.477,1.24 L 29.144,104.862 20.22,70.946 a 1.498,1.498 0 0 0 -2.294,-0.858 l -13,8.834 a 1.5,1.5 0 0 0 -0.435,2.025 l 0.73,1.189 a 1.501,1.501 0 0 0 1.954,0.553 l 7.978,-4.031 12.84,45.579 a 1.5,1.5 0 0 0 2.92,-0.143 L 48.69,24.497 h 71.245 a 1.5,1.5 0 0 0 1.5,-1.5 V 15.33 a 1.502,1.502 0 0 0 -1.5,-1.5 z"
       id="path55" />
    <g
       transform="translate(-67.95,-99.838)"
       id="g62">
      <defs
         id="defs58">
        <path
           id="c"
           d="m 97.384,211.697 -10.666,-40.531 -13,8.834 0.729,1.188 9.604,-4.855 13.333,47.334 18,-100.833 h 72.501 v -7.668 h -73.501 z" />
      </defs>
      <path
         fill="url(#i)"
         d="M 0,0 H 228 V 228 H 0 Z"
         clip-path="url(#j)"
         id="path60"
         style="fill:url(#i)" />
    </g>
  </g>
  <g
     transform="translate(7.6478543,-6.4275433)"
     id="g1043">
    <g
       id="g8626"
       transform="matrix(1.030012,0,0,1.0325071,-0.016773,-0.52152502)">
      <path
         style="fill:url(#linearGradient8639);fill-opacity:1;stroke:none;stroke-width:0.484844;stroke-linecap:butt;stroke-linejoin:round;stroke-miterlimit:4;stroke-dasharray:none;stroke-dashoffset:0;stroke-opacity:1"
         id="rect2383"
         d="m 2.0488085,11.037368 c 0.2865424,-0.207707 1.1479509,0.256388 1.9603385,1.061945 0.8104458,0.803629 1.2601996,1.641331 1.0575577,1.930575 -7.708e-4,0.0011 0.01977,0.01774 0.01898,0.01882 L 15.224149,3.8683779 C 15.481557,3.6099071 15.011041,2.7247557 14.172862,1.893626 13.334685,1.0624962 12.444681,0.59856571 12.187272,0.85703737 Z" />
      <path
         style="opacity:0.6;fill:#f9c440;fill-opacity:1;stroke:none"
         id="path3208"
         d="m 2.0488079,11.037368 c 0.286543,-0.207708 1.1479512,0.256388 1.960339,1.061943 0.8104449,0.80363 1.2601992,1.641332 1.0575579,1.930577 -7.714e-4,0.0011 0.01977,0.01774 0.01898,0.01882 l 6.9820302,-7.0108637 0.02525,-0.025356 c 7.9e-4,-0.00108 -0.01975,-0.01772 -0.01898,-0.01882 C 12.276628,6.7044221 11.826873,5.8667226 11.01643,5.0630931 10.204041,4.2575368 9.3426319,3.7934425 9.0560897,4.0011493 l -0.025251,0.025355 z" />
      <path
         d="m 2.0488085,11.037368 c 0.2865424,-0.207707 1.1479509,0.256388 1.9603385,1.061945 0.8104458,0.803629 1.2601996,1.641331 1.0575577,1.930575 -7.708e-4,0.0011 0.01977,0.01774 0.01898,0.01882 L 15.224149,3.8683779 C 15.481557,3.6099071 15.011041,2.7247557 14.172862,1.893626 13.334685,1.0624962 12.444681,0.59856571 12.187272,0.85703737 Z"
         id="path884"
         style="fill:none;fill-opacity:1;stroke:#ad5f00;stroke-width:0.484844;stroke-linecap:butt;stroke-linejoin:round;stroke-miterlimit:4;stroke-dasharray:none;stroke-dashoffset:0;stroke-opacity:1" />
      <path
         id="path877"
         transform="matrix(0.97086248,0,0,0.96851634,0.01628428,0.50510587)"
         d="m 12.664062,0.296875 c -0.05213,0.0107666 -0.09381,0.033047 -0.126953,0.0664063 L 9.3125,3.609375 c 0.2965301,-0.2119541 1.182118,0.2672165 2.017578,1.0976562 0.834766,0.8297532 1.298569,1.6935388 1.089844,1.9921876 -7.93e-4,0.00114 0.02035,0.018416 0.01953,0.019531 l 3.22461,-3.2460936 C 15.929196,3.2057833 15.445366,2.2917411 14.582031,1.4335938 13.826615,0.68271476 13.02895,0.22150867 12.664062,0.296875 Z"
         style="fill:url(#linearGradient881);fill-opacity:1;stroke:#555761;stroke-width:0.5;stroke-linecap:butt;stroke-linejoin:round;stroke-miterlimit:4;stroke-dasharray:none;stroke-dashoffset:0;stroke-opacity:1" />
      <path
         style="opacity:0.9;fill:#fe9ab8;fill-opacity:1;stroke:#de3e80;stroke-width:0.484844;stroke-linecap:butt;stroke-linejoin:round;stroke-miterlimit:4;stroke-dasharray:none;stroke-dashoffset:0;stroke-opacity:1"
         id="rect3175"
         d="m 10.565423,2.4840909 c 0.286542,-0.2077065 1.147951,0.2563879 1.960338,1.0619443 0.810445,0.8036291 1.260199,1.6413295 1.057557,1.9305744 -7.69e-4,0.0011 0.01977,0.017738 0.01898,0.018821 L 15.154234,3.9383089 C 15.562715,3.5297289 15.124956,2.8454879 14.172862,1.893626 13.360476,1.0880699 12.499066,0.6239749 12.212525,0.83168148 l -0.02525,0.0253559 -1.621849,1.62705352 z" />
      <path
         style="fill:url(#linearGradient8641);fill-opacity:1;stroke:none"
         id="path3233"
         d="m 9.1785348,3.8767048 c 0.2865413,-0.2077068 1.1479522,0.2563879 1.9603392,1.0619443 0.810445,0.8036291 1.2602,1.6413294 1.057556,1.9305753 -7.71e-4,0.0011 0.01977,0.017736 0.01898,0.01882 l 0.126256,-0.1267795 c 7.9e-4,-0.00108 -0.01975,-0.01772 -0.01898,-0.01882 C 12.525331,6.4531992 12.075576,5.6154986 11.26513,4.8118704 10.452743,4.0063135 9.5913335,3.542219 9.3047918,3.7499256 Z" />
      <path
         style="fill:url(#linearGradient8643);fill-opacity:1;stroke:none"
         id="path3216"
         d="m 9.0628273,3.9928895 c 0.2865436,-0.2077068 1.1479527,0.2563878 1.9603397,1.061944 0.810444,0.8036294 1.2602,1.6413292 1.057556,1.9305742 -7.71e-4,0.0011 0.01977,0.017738 0.01898,0.018822 L 12.22596,6.8774498 c 7.9e-4,-0.00108 -0.01975,-0.017721 -0.01898,-0.018821 C 12.409623,6.569384 11.95987,5.7316836 11.149423,4.9280545 10.337036,4.1224982 9.4756273,3.6584033 9.1890844,3.8661101 Z" />
      <path
         style="fill:url(#linearGradient8645);fill-opacity:1;stroke:none"
         id="path3248"
         d="m 9.5806143,3.4729643 c 0.2865426,-0.2077069 1.1479517,0.2563872 1.9603387,1.0619442 0.810446,0.803629 1.2602,1.6413292 1.057558,1.9305747 -7.73e-4,0.0011 0.01977,0.017737 0.01898,0.01882 l 0.126258,-0.1267784 c 7.91e-4,-0.00108 -0.01975,-0.017721 -0.01898,-0.01882 C 12.927411,6.0494594 12.477656,5.2117588 11.66721,4.4081298 10.854824,3.6025731 9.9934151,3.1384786 9.7068717,3.3461854 Z" />
      <path
         style="fill:url(#linearGradient8647);fill-opacity:1;stroke:none"
         id="path3250"
         d="m 9.4649071,3.5891488 c 0.2865435,-0.207707 1.1479529,0.2563877 1.9603379,1.061944 0.810447,0.8036298 1.260201,1.6413294 1.057558,1.9305748 -7.69e-4,0.0011 0.01977,0.017737 0.01898,0.018821 l 0.126257,-0.12678 c 7.9e-4,-0.00108 -0.01975,-0.01772 -0.01898,-0.01882 C 12.811705,6.1656438 12.361949,5.3279425 11.551504,4.5243147 10.739118,3.718758 9.877708,3.254663 9.5911645,3.46237 Z" />
      <path
         style="fill:url(#linearGradient8649);fill-opacity:1;stroke:none"
         id="path3256"
         d="M 9.9846388,3.0672723 C 10.27118,2.8595657 11.13259,3.3236601 11.944976,4.1292168 c 0.810446,0.8036288 1.260201,1.641329 1.057558,1.9305741 -7.7e-4,0.0011 0.01977,0.017738 0.01898,0.018821 L 13.14777,5.9518328 c 7.92e-4,-0.00108 -0.01975,-0.017721 -0.01898,-0.018821 C 13.331434,5.6437674 12.881679,4.8060668 12.071233,4.0024374 11.258848,3.1968815 10.397438,2.7327869 10.110895,2.9404937 Z" />
      <path
         style="fill:url(#linearGradient8651);fill-opacity:1;stroke:none"
         id="path3258"
         d="m 9.8689318,3.1834569 c 0.2865412,-0.2077072 1.1479512,0.2563879 1.9603392,1.0619447 0.810444,0.8036283 1.260198,1.6413291 1.057556,1.9305739 -7.71e-4,0.0011 0.01977,0.017737 0.01898,0.018821 l 0.126258,-0.1267782 c 7.89e-4,-0.00108 -0.01975,-0.017722 -0.01898,-0.018821 C 13.215727,5.7599515 12.765972,4.9222512 11.955527,4.1186224 11.143141,3.313066 10.281731,2.848971 9.9951884,3.0566783 Z" />
      <path
         style="fill:url(#linearGradient8653);fill-opacity:1;fill-rule:evenodd;stroke:url(#linearGradient8655);stroke-width:0.484844;stroke-linecap:butt;stroke-linejoin:miter;stroke-miterlimit:4;stroke-dasharray:none;stroke-opacity:1"
         id="path3270"
         d="m 0.25980529,15.79419 4.77185621,-1.725488 0.039308,-0.03926 C 5.2736124,13.740202 4.8185731,12.902156 4.0081274,12.098526 3.1957395,11.29297 2.335449,10.831246 2.0489062,11.038953 Z" />
      <path
         style="fill:#333333;fill-opacity:1;fill-rule:evenodd;stroke:#1a1a1a;stroke-width:0.484844;stroke-linecap:butt;stroke-linejoin:miter;stroke-miterlimit:4;stroke-dasharray:none;stroke-opacity:1"
         id="path3281"
         d="M 0.7444326,14.506276 0.25922075,15.788967 1.560593,15.315574 C 1.446907,15.182439 1.3413094,15.047739 1.2062351,14.913801 1.0507282,14.759602 0.89915498,14.633134 0.7444326,14.506276 Z" />
    </g>
  </g>
</svg>
