<?xml version="1.0" encoding="iso-8859-1"?>
<!-- Uploaded to: SVG Repo, www.svgrepo.com, Generator: SVG Repo Mixer Tools -->
<svg height="800px" width="800px" version="1.1" id="Capa_1" xmlns="http://www.w3.org/2000/svg" xmlns:xlink="http://www.w3.org/1999/xlink" 
	 viewBox="0 0 512 512" xml:space="preserve">
<g>
	<g>
		<g>
			<path style="fill:#B9BBC1;" d="M256,32c-4.422,0-8-3.582-8-8V8c0-4.418,3.578-8,8-8s8,3.582,8,8v16C264,28.418,260.422,32,256,32
				z"/>
		</g>
	</g>
	<g>
		<g>
			<path style="fill:#B9BBC1;" d="M24,264H8c-4.422,0-8-3.582-8-8s3.578-8,8-8h16c4.422,0,8,3.582,8,8S28.422,264,24,264z"/>
		</g>
	</g>
	<g>
		<g>
			<path style="fill:#B9BBC1;" d="M256,512c-4.422,0-8-3.582-8-8v-16c0-4.418,3.578-8,8-8s8,3.582,8,8v16
				C264,508.418,260.422,512,256,512z"/>
		</g>
	</g>
	<g>
		<g>
			<path style="fill:#B9BBC1;" d="M504,264h-16c-4.422,0-8-3.582-8-8s3.578-8,8-8h16c4.422,0,8,3.582,8,8S508.422,264,504,264z"/>
		</g>
	</g>
	<g>
		<path style="fill:#D8DCE1;" d="M256,16C123.664,16,16,123.664,16,256s107.664,240,240,240s240-107.664,240-240S388.336,16,256,16z
			 M256,376c-66.172,0-120-53.832-120-120s53.828-120,120-120s120,53.832,120,120S322.172,376,256,376z"/>
	</g>
	<g>
		<path style="fill:#B9BBC1;" d="M256,72C154.537,72,72,154.542,72,256s82.537,184,184,184s184-82.542,184-184S357.463,72,256,72z
			 M256,376c-66.172,0-120-53.832-120-120s53.828-120,120-120s120,53.832,120,120S322.172,376,256,376z"/>
	</g>
	<g>
		<g>
			<path style="fill:#646464;" d="M141.812,206.383c-2.047,0-4.094-0.781-5.656-2.344L60.5,128.383
				c-3.125-3.125-3.125-8.188,0-11.312c3.125-3.125,8.188-3.125,11.312,0l75.656,75.656c3.125,3.125,3.125,8.188,0,11.312
				C145.906,205.601,143.859,206.383,141.812,206.383z"/>
		</g>
		<g>
			<path style="fill:#646464;" d="M198.383,149.812c-2.047,0-4.094-0.781-5.656-2.344L117.07,71.812
				c-3.125-3.125-3.125-8.187,0-11.312c3.125-3.125,8.188-3.125,11.312,0l75.656,75.656c3.125,3.125,3.125,8.187,0,11.312
				C202.476,149.031,200.43,149.812,198.383,149.812z"/>
		</g>
		<g>
			<path style="fill:#646464;" d="M66.156,397.277c-2.047,0-4.094-0.781-5.656-2.344c-3.125-3.125-3.125-8.188,0-11.312
				l75.656-75.66c3.125-3.125,8.187-3.125,11.312,0s3.125,8.188,0,11.312l-75.656,75.66
				C70.25,396.496,68.203,397.277,66.156,397.277z"/>
		</g>
		<g>
			<path style="fill:#646464;" d="M122.727,453.844c-2.047,0-4.094-0.781-5.656-2.344c-3.125-3.125-3.125-8.188,0-11.312
				l75.656-75.656c3.125-3.125,8.188-3.125,11.312,0c3.125,3.125,3.125,8.188,0,11.312L128.383,451.5
				C126.82,453.062,124.773,453.844,122.727,453.844z"/>
		</g>
		<g>
			<path style="fill:#646464;" d="M313.617,149.812c-2.047,0-4.094-0.781-5.656-2.344c-3.125-3.125-3.125-8.187,0-11.312
				L383.617,60.5c3.125-3.125,8.188-3.125,11.312,0c3.125,3.125,3.125,8.188,0,11.312l-75.656,75.656
				C317.711,149.031,315.664,149.812,313.617,149.812z"/>
		</g>
		<g>
			<path style="fill:#646464;" d="M370.187,206.383c-2.047,0-4.094-0.781-5.656-2.344c-3.125-3.125-3.125-8.187,0-11.312
				l75.656-75.656c3.125-3.125,8.188-3.125,11.312,0c3.125,3.125,3.125,8.188,0,11.312l-75.656,75.656
				C374.281,205.601,372.234,206.383,370.187,206.383z"/>
		</g>
		<g>
			<path style="fill:#646464;" d="M445.844,397.277c-2.047,0-4.094-0.781-5.656-2.344l-75.656-75.656
				c-3.125-3.125-3.125-8.188,0-11.312s8.188-3.125,11.312,0l75.656,75.656c3.125,3.125,3.125,8.188,0,11.312
				C449.937,396.496,447.89,397.277,445.844,397.277z"/>
		</g>
		<g>
			<path style="fill:#646464;" d="M389.273,453.844c-2.047,0-4.094-0.781-5.656-2.344l-75.656-75.656
				c-3.125-3.125-3.125-8.188,0-11.312s8.188-3.125,11.312,0l75.656,75.656c3.125,3.125,3.125,8.188,0,11.312
				C393.367,453.062,391.32,453.844,389.273,453.844z"/>
		</g>
	</g>
	<g>
		<path style="fill:#FF4F19;" d="M220.55,141.353l-89.912-89.912c-32.202,19.807-59.388,46.995-79.196,79.196l89.912,89.912
			C153.037,182.843,182.842,153.037,220.55,141.353z"/>
	</g>
	<g>
		<path style="fill:#FF4F19;" d="M370.646,220.549l89.912-89.912c-19.808-32.202-46.994-59.389-79.196-79.196l-89.912,89.912
			C329.158,153.037,358.963,182.843,370.646,220.549z"/>
	</g>
	<g>
		<path style="fill:#FF4F19;" d="M141.353,291.451l-89.912,89.912c19.808,32.202,46.994,59.388,79.196,79.196l89.912-89.912
			C182.843,358.963,153.037,329.157,141.353,291.451z"/>
	</g>
	<g>
		<path style="fill:#FF4F19;" d="M291.45,370.646l89.912,89.912c32.202-19.808,59.388-46.994,79.196-79.196l-89.912-89.912
			C358.963,329.157,329.157,358.963,291.45,370.646z"/>
	</g>
	<g>
		<path style="fill:#E9001E;" d="M92.521,171.717l48.832,48.833c11.683-37.707,41.489-67.513,79.196-79.196l-48.833-48.832
			C137.824,110.066,110.066,137.824,92.521,171.717z"/>
	</g>
	<g>
		<path style="fill:#E9001E;" d="M340.283,92.521l-48.833,48.832c37.708,11.683,67.513,41.489,79.196,79.196l48.832-48.833
			C401.934,137.824,374.176,110.066,340.283,92.521z"/>
	</g>
	<g>
		<path style="fill:#E9001E;" d="M141.353,291.451l-48.832,48.833c17.545,33.893,45.303,61.65,79.196,79.196l48.833-48.833
			C182.843,358.963,153.037,329.157,141.353,291.451z"/>
	</g>
	<g>
		<path style="fill:#E9001E;" d="M419.479,340.283l-48.832-48.833c-11.683,37.707-41.489,67.512-79.196,79.195l48.833,48.833
			C374.176,401.933,401.934,374.176,419.479,340.283z"/>
	</g>
</g>
</svg>