<?xml version="1.0" encoding="UTF-8" standalone="no"?>
<svg
   xmlns:dc="http://purl.org/dc/elements/1.1/"
   xmlns:cc="http://creativecommons.org/ns#"
   xmlns:rdf="http://www.w3.org/1999/02/22-rdf-syntax-ns#"
   xmlns:svg="http://www.w3.org/2000/svg"
   xmlns="http://www.w3.org/2000/svg"
   xmlns:sodipodi="http://sodipodi.sourceforge.net/DTD/sodipodi-0.dtd"
   xmlns:inkscape="http://www.inkscape.org/namespaces/inkscape"
   width="16"
   height="16"
   viewBox="0 0 4.2333333 4.2333333"
   version="1.1"
   id="svg29"
   inkscape:version="1.0 (4035a4fb49, 2020-05-01)"
   sodipodi:docname="ct_list_bulleted.svg">
  <defs
     id="defs23" />
  <sodipodi:namedview
     id="base"
     pagecolor="#ffffff"
     bordercolor="#666666"
     borderopacity="1.0"
     inkscape:pageopacity="0.0"
     inkscape:pageshadow="2"
     inkscape:zoom="28.892764"
     inkscape:cx="4.4953932"
     inkscape:cy="9.5759609"
     inkscape:document-units="px"
     inkscape:current-layer="layer1"
     inkscape:document-rotation="0"
     showgrid="true"
     inkscape:window-width="1366"
     inkscape:window-height="715"
     inkscape:window-x="-8"
     inkscape:window-y="22"
     inkscape:window-maximized="1"
     units="px"
     inkscape:snap-global="true"
     showguides="false">
    <inkscape:grid
       type="xygrid"
       id="grid18" />
  </sodipodi:namedview>
  <metadata
     id="metadata26">
    <rdf:RDF>
      <cc:Work
         rdf:about="">
        <dc:format>image/svg+xml</dc:format>
        <dc:type
           rdf:resource="http://purl.org/dc/dcmitype/StillImage" />
        <dc:title />
      </cc:Work>
    </rdf:RDF>
  </metadata>
  <g
     inkscape:label="Capa 1"
     inkscape:groupmode="layer"
     id="layer1">
    <path
       d="M 2.6458333,2.1166666 A 1.0583333,1.0583333 0 0 1 1.5875,3.1749998 1.0583333,1.0583333 0 0 1 0.5291667,2.1166666 1.0583333,1.0583333 0 0 1 1.5875,1.0583333 1.0583333,1.0583333 0 0 1 2.6458333,2.1166666 Z"
       style="fill:none;stroke:#ffffff;stroke-width:0.264583;stroke-linecap:round;stop-color:#000000"
       id="path839" />
    <path
       id="path836"
       style="fill:#0e141f;stroke:none;stroke-width:0.264583;stroke-linecap:round;stop-color:#000000;fill-opacity:1"
       d="M 2.6458333,2.1166666 A 1.0583333,1.0583333 0 0 1 1.5875,3.1749998 1.0583333,1.0583333 0 0 1 0.5291667,2.1166666 1.0583333,1.0583333 0 0 1 1.5875,1.0583333 1.0583333,1.0583333 0 0 1 2.6458333,2.1166666 Z" />
    <g
       id="g31"
       transform="matrix(2.5289195,0,0,2.5289195,0.45361386,2.0358129)"
       style="fill:none;fill-opacity:1;stroke:#f2f2f2;stroke-opacity:1" />
    <path
       id="path854"
       d="M 3.175,2.6458333 V 3.175 H 3.6987142 V 2.6458333 Z"
       style="color:#bebebe;fill:none;stroke-width:0.26458333;marker:none;stroke:#ffffff" />
    <path
       style="color:#bebebe;fill:#0e141f;stroke-width:0.175479;marker:none;fill-opacity:1"
       d="M 3.175,2.6458333 V 3.175 H 3.6987142 V 2.6458333 Z"
       id="path17" />
  </g>
</svg>
