<?xml version="1.0" encoding="UTF-8" standalone="no"?>
<!-- Generator: Adobe Illustrator 19.0.0, SVG Export Plug-In . SVG Version: 6.00 Build 0)  -->

<svg
   version="1.1"
   id="Layer_1"
   x="0px"
   y="0px"
   viewBox="0 0 509.287 509.287"
   style="enable-background:new 0 0 509.287 509.287;"
   xml:space="preserve"
   sodipodi:docname="ct_microchip.svg"
   inkscape:version="1.1.1 (3bf5ae0d25, 2021-09-20)"
   xmlns:inkscape="http://www.inkscape.org/namespaces/inkscape"
   xmlns:sodipodi="http://sodipodi.sourceforge.net/DTD/sodipodi-0.dtd"
   xmlns="http://www.w3.org/2000/svg"
   xmlns:svg="http://www.w3.org/2000/svg"><defs
   id="defs75">
	
	
	
	
	
	
	
	
	
	
	
	
	
	
	
	
</defs><sodipodi:namedview
   id="namedview73"
   pagecolor="#ffffff"
   bordercolor="#666666"
   borderopacity="1.0"
   inkscape:pageshadow="2"
   inkscape:pageopacity="0.0"
   inkscape:pagecheckerboard="0"
   showgrid="false"
   inkscape:zoom="1.6218753"
   inkscape:cx="250.01922"
   inkscape:cy="254.33521"
   inkscape:window-width="1920"
   inkscape:window-height="1016"
   inkscape:window-x="0"
   inkscape:window-y="0"
   inkscape:window-maximized="1"
   inkscape:current-layer="Layer_1" />
<circle
   style="fill:#008000"
   cx="254.644"
   cy="254.644"
   r="254.644"
   id="circle2" />
<path
   style="fill:#646B79;"
   d="M369.25,120.371H140.037c-10.85,0-19.666,8.816-19.666,19.666V369.25  c0,10.85,8.816,19.666,19.666,19.666H369.25c10.85,0,19.666-8.816,19.666-19.666V140.037  C388.917,129.187,380.101,120.371,369.25,120.371z"
   id="path4" />
<path
   style="fill:#4F5565;"
   d="M331.952,164.111H177.335c-7.46,0-13.224,6.103-13.224,13.224v154.278  c0,7.46,6.103,13.224,13.224,13.224h154.278c7.46,0,13.224-6.103,13.224-13.224V177.335  C345.176,170.215,339.073,164.111,331.952,164.111z"
   id="path6" />
<rect
   x="40.011002"
   y="164.11099"
   style="fill:#f1f3f7"
   width="80.360001"
   height="22.718"
   id="rect8" /><rect
   x="40.011002"
   y="241.007"
   style="fill:#f1f3f7"
   width="80.360001"
   height="22.718"
   id="rect10" /><rect
   x="40.011002"
   y="322.45801"
   style="fill:#f1f3f7"
   width="80.360001"
   height="22.718"
   id="rect14" /><rect
   x="388.91699"
   y="164.11099"
   style="fill:#f1f3f7"
   width="80.360001"
   height="22.718"
   id="rect16" /><rect
   x="388.91699"
   y="241.007"
   style="fill:#f1f3f7"
   width="80.360001"
   height="22.718"
   id="rect18" /><rect
   x="388.91699"
   y="322.45801"
   style="fill:#f1f3f7"
   width="80.360001"
   height="22.718"
   id="rect22" /><rect
   x="164.11099"
   y="388.91699"
   style="fill:#f1f3f7"
   width="22.718"
   height="80.360001"
   id="rect24" /><rect
   x="239.56299"
   y="388.91699"
   style="fill:#f1f3f7"
   width="22.718"
   height="80.360001"
   id="rect28" /><rect
   x="322.45801"
   y="388.91699"
   style="fill:#f1f3f7"
   width="22.718"
   height="80.360001"
   id="rect30" /><rect
   x="164.11099"
   y="40.011002"
   style="fill:#f1f3f7"
   width="22.718"
   height="80.360001"
   id="rect32" /><rect
   x="241.56299"
   y="40.011002"
   style="fill:#f1f3f7"
   width="22.718"
   height="80.360001"
   id="rect36" /><rect
   x="322.45801"
   y="40.011002"
   style="fill:#f1f3f7"
   width="22.718"
   height="80.360001"
   id="rect38" />
<g
   id="g42">
</g>
<g
   id="g44">
</g>
<g
   id="g46">
</g>
<g
   id="g48">
</g>
<g
   id="g50">
</g>
<g
   id="g52">
</g>
<g
   id="g54">
</g>
<g
   id="g56">
</g>
<g
   id="g58">
</g>
<g
   id="g60">
</g>
<g
   id="g62">
</g>
<g
   id="g64">
</g>
<g
   id="g66">
</g>
<g
   id="g68">
</g>
<g
   id="g70">
</g>
</svg>
