<?xml version="1.0" encoding="UTF-8" standalone="no"?>
<svg
   xmlns:dc="http://purl.org/dc/elements/1.1/"
   xmlns:cc="http://creativecommons.org/ns#"
   xmlns:rdf="http://www.w3.org/1999/02/22-rdf-syntax-ns#"
   xmlns:svg="http://www.w3.org/2000/svg"
   xmlns="http://www.w3.org/2000/svg"
   xmlns:xlink="http://www.w3.org/1999/xlink"
   xmlns:sodipodi="http://sodipodi.sourceforge.net/DTD/sodipodi-0.dtd"
   xmlns:inkscape="http://www.inkscape.org/namespaces/inkscape"
   inkscape:version="1.0 (4035a4fb49, 2020-05-01)"
   sodipodi:docname="ct_node_link.svg"
   version="1.1"
   width="16"
   height="16"
   id="svg3803">
  <sodipodi:namedview
     inkscape:current-layer="svg3803"
     inkscape:window-maximized="1"
     inkscape:window-y="22"
     inkscape:window-x="-8"
     inkscape:cy="8"
     inkscape:cx="8"
     inkscape:zoom="16.930865"
     showgrid="false"
     id="namedview32"
     inkscape:window-height="715"
     inkscape:window-width="1366"
     inkscape:pageshadow="2"
     inkscape:pageopacity="0"
     guidetolerance="10"
     gridtolerance="10"
     objecttolerance="10"
     borderopacity="1"
     bordercolor="#666666"
     pagecolor="#ffffff" />
  <metadata
     id="metadata25386">
    <rdf:RDF>
      <cc:Work
         rdf:about="">
        <dc:format>image/svg+xml</dc:format>
        <dc:type
           rdf:resource="http://purl.org/dc/dcmitype/StillImage" />
        <dc:title></dc:title>
      </cc:Work>
    </rdf:RDF>
  </metadata>
  <defs
     id="defs3805">
    <radialGradient
       cx="64.575233"
       cy="48.605404"
       r="31.000002"
       fx="64.575233"
       fy="48.605404"
       id="radialGradient3259"
       xlink:href="#linearGradient3242-7-3-8-0-4-58-06"
       gradientUnits="userSpaceOnUse"
       gradientTransform="matrix(0,0.38528829,-0.41958841,0,32.389496,-16.793007)" />
    <linearGradient
       id="linearGradient3242-7-3-8-0-4-58-06">
      <stop
         id="stop3244-5-8-5-6-4-3-8"
         style="stop-color:#cdf87e;stop-opacity:1"
         offset="0" />
      <stop
         id="stop3246-9-5-1-5-3-0-7"
         style="stop-color:#a2e34f;stop-opacity:1"
         offset="0.26238" />
      <stop
         id="stop3248-7-2-0-7-5-35-9"
         style="stop-color:#68b723;stop-opacity:1"
         offset="0.66093999" />
      <stop
         id="stop3250-8-2-8-5-6-40-4"
         style="stop-color:#1d7e0d;stop-opacity:1"
         offset="1" />
    </linearGradient>
    <linearGradient
       id="linearGradient6201">
      <stop
         style="stop-color:#000000;stop-opacity:1;"
         offset="0"
         id="stop6203" />
      <stop
         style="stop-color:#ffffff;stop-opacity:1"
         offset="1"
         id="stop6205" />
    </linearGradient>
    <linearGradient
       xlink:href="#linearGradient6201"
       id="linearGradient1116"
       x1="58.695213"
       y1="-43.66399"
       x2="62.695213"
       y2="-43.66399"
       gradientUnits="userSpaceOnUse"
       gradientTransform="translate(12.804933,56.413844)" />
    <linearGradient
       xlink:href="#linearGradient6201"
       id="linearGradient3541"
       x1="65.5"
       y1="12.75"
       x2="73.25"
       y2="12.75"
       gradientUnits="userSpaceOnUse" />
    <linearGradient
       xlink:href="#linearGradient6201"
       id="linearGradient3551"
       x1="75.75"
       y1="12.75"
       x2="83.5"
       y2="12.75"
       gradientUnits="userSpaceOnUse" />
  </defs>
  <g
     id="g1055"
     transform="matrix(1.7817553,0,0,1.7817553,-7.6831361,-3.1901916)">
    <g
       transform="translate(11.036554,3.061234)"
       style="stroke:#7a0000;stroke-opacity:1"
       id="g1018">
      <g
         style="stroke:#7a0000;stroke-opacity:1"
         id="cherry2-3"
         transform="matrix(0.1203468,0.00521202,-0.00532923,0.12128682,-8.3880628,-3.3438663)">
        <path
           style="fill:#c6262e;fill-opacity:1;stroke:#7a0000;stroke-width:4.1346;stroke-opacity:1"
           id="p5-12"
           d="m 42.021325,38.735182 c -2.279722,6.288872 -8.636377,11.670921 -14.976424,9.411231 -6.70613,-0.642133 -10.13411,-8.200552 -9.485159,-14.85215 0.72889,-7.470957 6.639519,-10.416091 14.793381,-8.602451 8.153861,1.813641 12.228746,6.979824 9.668202,14.04337 z" />
        <path
           style="fill:none;stroke:#333333;stroke-width:4.1346;stroke-opacity:1"
           id="p8-9"
           d="m 28.22429,26.01175 c -0.601384,3.336063 4.88838,5.213413 6.335518,2.000743" />
      </g>
      <path
         style="fill:#275100;fill-opacity:0.945098;stroke:#3a9104;stroke-width:0.5;stroke-linecap:round;stroke-opacity:1;stop-color:#000000"
         d="m -4.8335274,0.08055881 c 0.1452989,-0.3893675 0.4855397,-0.6981762 0.9667054,-1.08754371"
         id="path1009"
         sodipodi:nodetypes="cc" />
    </g>
    <path
       d="M 5.7418096,3.9793271 A 0.52363216,0.40279397 48.878523 0 1 5.0940074,3.8497667 0.52363216,0.40279397 48.878523 0 1 5.0530684,3.1904052 0.52363216,0.40279397 48.878523 0 1 5.7008706,3.3199656 0.52363216,0.40279397 48.878523 0 1 5.7418096,3.9793271"
       style="opacity:1;fill:#ff8c82;fill-opacity:1;stroke:none;stroke-width:0.495729;stroke-linecap:round;stroke-opacity:1;stop-color:#000000"
       id="path1046" />
  </g>
  <g
     id="g1146"
     transform="rotate(-45,35.516346,90.64785)">
    <path
       id="rect1112"
       d="M 67.449219,9.9999996 C 66.368919,9.9999999 65.5,10.868919 65.5,11.949219 l 0,1.601562 c 0,1.0803 0.868919,1.949219 1.949219,1.949219 l 3.851562,0 C 72.381082,15.5 73.25,14.631081 73.25,13.550781 V 11.949219 C 73.25,10.868918 72.381082,10 71.300781,10 Z M 67.75,11.75 l 3.25,0 c 0.277,0 0.500001,0.223 0.5,0.5 v 1 c 10e-7,0.277 -0.223,0.5 -0.5,0.5 l -3.25,0 c -0.277,0 -0.5,-0.223 -0.5,-0.5 l 0,-1 c 0,-0.277 0.223,-0.5 0.5,-0.5 z"
       style="opacity:1;fill:#d4d4d4;fill-opacity:1;stroke:#000000;stroke-width:0.99999988;stroke-linecap:round;stroke-linejoin:bevel;stroke-opacity:0.42745098" />
    <path
       id="rect1116"
       d="m 77.699219,10 c -1.0803,-6e-7 -1.949219,0.868918 -1.949219,1.949219 l 0,1.601562 c 0,1.0803 0.868919,1.949219 1.949219,1.949219 l 3.851562,0 C 82.631082,15.5 83.5,14.631081 83.5,13.550781 v -1.601563 c 0,-1.080299 -0.868918,-1.9492186 -1.949219,-1.9492186 z M 78,11.75 l 3.25,0 c 0.277,0 0.5,0.223 0.500001,0.5 L 81.75,13.249999 C 81.75,13.527 81.527,13.75 81.25,13.75 H 78 c -0.277,0 -0.5,-0.223 -0.5,-0.5 l 0,-1 c 0,-0.277 0.223,-0.5 0.5,-0.5 z"
       style="opacity:1;fill:#d4d4d4;fill-opacity:1;stroke:#000000;stroke-width:1;stroke-linecap:round;stroke-linejoin:bevel;stroke-opacity:0.42745098" />
    <path
       style="opacity:0.2;fill:url(#linearGradient3541);fill-opacity:1;stroke:none;stroke-width:0.99999988;stroke-linecap:round;stroke-linejoin:bevel;stroke-opacity:0.42745098"
       d="M 67.449219,9.9999996 C 66.368919,9.9999999 65.5,10.868919 65.5,11.949219 l 0,1.601562 c 0,1.0803 0.868919,1.949219 1.949219,1.949219 l 3.851562,0 C 72.381082,15.5 73.25,14.631081 73.25,13.550781 V 11.949219 C 73.25,10.868918 72.381082,10 71.300781,10 Z M 67.75,11.75 l 3.25,0 c 0.277,0 0.500001,0.223 0.5,0.5 v 1 c 10e-7,0.277 -0.223,0.5 -0.5,0.5 l -3.25,0 c -0.277,0 -0.5,-0.223 -0.5,-0.5 l 0,-1 c 0,-0.277 0.223,-0.5 0.5,-0.5 z"
       id="path2990" />
    <path
       style="opacity:0.4;fill:none;fill-opacity:1;stroke:#ffffff;stroke-width:0.99999994;stroke-linecap:round;stroke-linejoin:bevel;stroke-opacity:1"
       d="M 71.25,14.5 H 67.5 c -0.554,0 -1,-0.446 -1,-1 V 12 m 1,-1 h 3.75 c 0.554,0 1,0.446 1,1"
       id="path1139" />
    <path
       style="opacity:0.2;fill:url(#linearGradient3551);fill-opacity:1;stroke:none;stroke-width:1;stroke-linecap:round;stroke-linejoin:bevel;stroke-opacity:0.42745098"
       d="m 77.699219,10 c -1.0803,-6e-7 -1.949219,0.868918 -1.949219,1.949219 l 0,1.601562 c 0,1.0803 0.868919,1.949219 1.949219,1.949219 l 3.851562,0 C 82.631082,15.5 83.5,14.631081 83.5,13.550781 v -1.601563 c 0,-1.080299 -0.868918,-1.9492186 -1.949219,-1.9492186 z M 78,11.75 l 3.25,0 c 0.277,0 0.5,0.223 0.500001,0.5 L 81.75,13.249999 C 81.75,13.527 81.527,13.75 81.25,13.75 H 78 c -0.277,0 -0.5,-0.223 -0.5,-0.5 l 0,-1 c 0,-0.277 0.223,-0.5 0.5,-0.5 z"
       id="path3543" />
    <path
       id="rect1136"
       d="m 77.75,11 h 3.75 c 0.554,0 1,0.446 1,1 v 1.5 m -1,1 h -3.75 c -0.554,0 -1,-0.446 -1,-1"
       style="opacity:0.4;fill:none;fill-opacity:1;stroke:#ffffff;stroke-width:0.99999994;stroke-linecap:round;stroke-linejoin:bevel;stroke-opacity:1" />
    <rect
       ry="0.875"
       style="opacity:1;fill:#d4d4d4;fill-opacity:1;stroke:#000000;stroke-width:1;stroke-linecap:round;stroke-linejoin:bevel;stroke-opacity:0.40392157"
       id="rect1120"
       width="8"
       height="1.75"
       x="70.5"
       y="11.874998"
       rx="0.875" />
    <rect
       ry="0.5"
       style="opacity:0.2;fill:url(#linearGradient1116);fill-opacity:1;stroke:none;stroke-width:1;stroke-linecap:round;stroke-linejoin:bevel;stroke-opacity:1"
       id="rect303"
       width="7"
       height="0.75"
       x="71.000145"
       y="12.374854"
       rx="0.5" />
    <rect
       rx="0.5"
       y="12.374854"
       x="71.000145"
       height="0.75"
       width="7"
       id="rect1118"
       style="opacity:0.4;fill:#ffffff;fill-opacity:1;stroke:none;stroke-width:1;stroke-linecap:round;stroke-linejoin:bevel;stroke-opacity:1"
       ry="0.5" />
  </g>
</svg>
