<?xml version="1.0" encoding="UTF-8" standalone="no"?>
<svg
   xmlns:dc="http://purl.org/dc/elements/1.1/"
   xmlns:cc="http://creativecommons.org/ns#"
   xmlns:rdf="http://www.w3.org/1999/02/22-rdf-syntax-ns#"
   xmlns:svg="http://www.w3.org/2000/svg"
   xmlns="http://www.w3.org/2000/svg"
   xmlns:sodipodi="http://sodipodi.sourceforge.net/DTD/sodipodi-0.dtd"
   xmlns:inkscape="http://www.inkscape.org/namespaces/inkscape"
   sodipodi:docname="ct_bullet.svg"
   inkscape:version="1.0 (4035a4fb49, 2020-05-01)"
   id="svg29"
   version="1.1"
   viewBox="0 0 4.2333333 4.2333333"
   height="16"
   width="16">
  <defs
     id="defs23" />
  <sodipodi:namedview
     showguides="false"
     inkscape:snap-global="true"
     units="px"
     inkscape:window-maximized="1"
     inkscape:window-y="22"
     inkscape:window-x="-8"
     inkscape:window-height="715"
     inkscape:window-width="1366"
     showgrid="true"
     inkscape:document-rotation="0"
     inkscape:current-layer="layer1"
     inkscape:document-units="px"
     inkscape:cy="9.5759609"
     inkscape:cx="9.5963885"
     inkscape:zoom="27.754864"
     inkscape:pageshadow="2"
     inkscape:pageopacity="0.0"
     borderopacity="1.0"
     bordercolor="#666666"
     pagecolor="#ffffff"
     id="base">
    <inkscape:grid
       id="grid18"
       type="xygrid" />
  </sodipodi:namedview>
  <metadata
     id="metadata26">
    <rdf:RDF>
      <cc:Work
         rdf:about="">
        <dc:format>image/svg+xml</dc:format>
        <dc:type
           rdf:resource="http://purl.org/dc/dcmitype/StillImage" />
        <dc:title></dc:title>
      </cc:Work>
    </rdf:RDF>
  </metadata>
  <g
     id="layer1"
     inkscape:groupmode="layer"
     inkscape:label="Capa 1">
    <path
       id="path839"
       style="fill:none;stroke:#ffffff;stroke-width:0.264583;stroke-linecap:round;stop-color:#000000"
       d="M 3.175,2.1166667 A 1.0583333,1.0583333 0 0 1 2.1166667,3.1749999 1.0583333,1.0583333 0 0 1 1.0583334,2.1166667 1.0583333,1.0583333 0 0 1 2.1166667,1.0583334 1.0583333,1.0583333 0 0 1 3.175,2.1166667 Z" />
    <path
       d="M 3.175,2.1166667 A 1.0583333,1.0583333 0 0 1 2.1166667,3.1749999 1.0583333,1.0583333 0 0 1 1.0583334,2.1166667 1.0583333,1.0583333 0 0 1 2.1166667,1.0583334 1.0583333,1.0583333 0 0 1 3.175,2.1166667 Z"
       style="fill:#0e141f;fill-opacity:1;stroke:none;stroke-width:0.264583;stroke-linecap:round;stop-color:#000000"
       id="path836" />
    <g
       style="fill:none;fill-opacity:1;stroke:#f2f2f2;stroke-opacity:1"
       transform="matrix(2.5289195,0,0,2.5289195,0.45361386,2.0358129)"
       id="g31" />
  </g>
</svg>
