<?xml version="1.0" encoding="UTF-8" standalone="no"?>
<svg
   xmlns:dc="http://purl.org/dc/elements/1.1/"
   xmlns:cc="http://creativecommons.org/ns#"
   xmlns:rdf="http://www.w3.org/1999/02/22-rdf-syntax-ns#"
   xmlns:svg="http://www.w3.org/2000/svg"
   xmlns="http://www.w3.org/2000/svg"
   xmlns:xlink="http://www.w3.org/1999/xlink"
   id="svg7698"
   height="16"
   width="16"
   version="1.1">
  <metadata
     id="metadata103">
    <rdf:RDF>
      <cc:Work
         rdf:about="">
        <dc:format>image/svg+xml</dc:format>
        <dc:type
           rdf:resource="http://purl.org/dc/dcmitype/StillImage" />
        <dc:title />
      </cc:Work>
    </rdf:RDF>
  </metadata>
  <defs
     id="defs7700">
    <linearGradient
       id="linearGradient942">
      <stop
         id="stop926"
         style="stop-color:#181818;stop-opacity:1"
         offset="0" />
      <stop
         id="stop928"
         style="stop-color:#ffe16b;stop-opacity:1"
         offset="0.13482948" />
      <stop
         id="stop930"
         style="stop-color:#f9c440;stop-opacity:1"
         offset="0.20224422" />
      <stop
         id="stop932"
         style="stop-color:#fff394;stop-opacity:1"
         offset="0.26965895" />
      <stop
         id="stop934"
         style="stop-color:#f9c440;stop-opacity:1"
         offset="0.44650277" />
      <stop
         id="stop936"
         style="stop-color:#f9c440;stop-opacity:1"
         offset="0.57114136" />
      <stop
         id="stop938"
         style="stop-color:#ffe16b;stop-opacity:1"
         offset="0.72038066" />
      <stop
         id="stop940"
         style="stop-color:#ad5f00;stop-opacity:1"
         offset="1" />
    </linearGradient>
    <linearGradient
       id="linearGradient3155-40">
      <stop
         offset="0"
         style="stop-color:#555761;stop-opacity:1"
         id="stop2541" />
      <stop
         offset="0.13482948"
         style="stop-color:#d4d4d4;stop-opacity:1"
         id="stop2543" />
      <stop
         offset="0.20224422"
         style="stop-color:#abacae;stop-opacity:1"
         id="stop2545" />
      <stop
         offset="0.26965895"
         style="stop-color:#fafafa;stop-opacity:1"
         id="stop2547" />
      <stop
         offset="0.44650277"
         style="stop-color:#abacae;stop-opacity:1"
         id="stop2549" />
      <stop
         offset="0.57114136"
         style="stop-color:#abacae;stop-opacity:1"
         id="stop2551" />
      <stop
         offset="0.72038066"
         style="stop-color:#d4d4d4;stop-opacity:1"
         id="stop2553" />
      <stop
         offset="1"
         style="stop-color:#555761;stop-opacity:1"
         id="stop2555" />
    </linearGradient>
    <linearGradient
       id="linearGradient3240-279">
      <stop
         offset="0"
         style="stop-color:#555761;stop-opacity:1"
         id="stop2559" />
      <stop
         offset="0.5"
         style="stop-color:#abacae;stop-opacity:1"
         id="stop2561" />
      <stop
         offset="1"
         style="stop-color:#555761;stop-opacity:1"
         id="stop2563" />
    </linearGradient>
    <linearGradient
       id="linearGradient3223-789">
      <stop
         offset="0"
         style="stop-color:#abacae;stop-opacity:1"
         id="stop2567" />
      <stop
         offset="0.5"
         style="stop-color:#fafafa;stop-opacity:1"
         id="stop2569" />
      <stop
         offset="1"
         style="stop-color:#abacae;stop-opacity:1"
         id="stop2571" />
    </linearGradient>
    <linearGradient
       id="linearGradient3240-686">
      <stop
         offset="0"
         style="stop-color:#555761;stop-opacity:1"
         id="stop2575" />
      <stop
         offset="0.5"
         style="stop-color:#abacae;stop-opacity:1"
         id="stop2577" />
      <stop
         offset="1"
         style="stop-color:#555761;stop-opacity:1"
         id="stop2579" />
    </linearGradient>
    <linearGradient
       id="linearGradient3223-768">
      <stop
         offset="0"
         style="stop-color:#abacae;stop-opacity:1"
         id="stop2583" />
      <stop
         offset="0.5"
         style="stop-color:#fafafa;stop-opacity:1"
         id="stop2585" />
      <stop
         offset="1"
         style="stop-color:#abacae;stop-opacity:1"
         id="stop2587" />
    </linearGradient>
    <linearGradient
       id="linearGradient3240-907">
      <stop
         offset="0"
         style="stop-color:#555761;stop-opacity:1"
         id="stop2591" />
      <stop
         offset="0.5"
         style="stop-color:#abacae;stop-opacity:1"
         id="stop2593" />
      <stop
         offset="1"
         style="stop-color:#555761;stop-opacity:1"
         id="stop2595" />
    </linearGradient>
    <linearGradient
       id="linearGradient3223-699">
      <stop
         offset="0"
         style="stop-color:#abacae;stop-opacity:1"
         id="stop2599" />
      <stop
         offset="0.5"
         style="stop-color:#fafafa;stop-opacity:1"
         id="stop2601" />
      <stop
         offset="1"
         style="stop-color:#abacae;stop-opacity:1"
         id="stop2603" />
    </linearGradient>
    <linearGradient
       id="linearGradient3290-678">
      <stop
         offset="0"
         style="stop-color:#fff394;stop-opacity:1"
         id="stop2607" />
      <stop
         offset="1"
         style="stop-color:#fafafa;stop-opacity:1"
         id="stop2609" />
    </linearGradient>
    <linearGradient
       id="linearGradient3191-577">
      <stop
         offset="0"
         style="stop-color:#d48e15;stop-opacity:1"
         id="stop2613" />
      <stop
         offset="1"
         style="stop-color:#ad5f00;stop-opacity:1"
         id="stop2615" />
    </linearGradient>
    <linearGradient
       spreadMethod="pad"
       gradientTransform="matrix(0.415777,-0.4174938,0.518983,0.5146192,-15.747227,2.6503673)"
       gradientUnits="userSpaceOnUse"
       xlink:href="#linearGradient942"
       id="linearGradient3140"
       y2="31.210939"
       x2="23.575972"
       y1="25.356892"
       x1="23.575972" />
    <linearGradient
       gradientTransform="matrix(0.4040235,-0.4056919,0.6073752,0.6022679,-17.867764,0.6930272)"
       gradientUnits="userSpaceOnUse"
       xlink:href="#linearGradient3240-279"
       id="linearGradient3142"
       y2="30.000141"
       x2="30.037716"
       y1="24.989594"
       x1="30.037716" />
    <linearGradient
       gradientTransform="matrix(0.4040235,-0.4056919,0.6073752,0.6022679,-17.983472,0.8092126)"
       gradientUnits="userSpaceOnUse"
       xlink:href="#linearGradient3223-789"
       id="linearGradient3144"
       y2="30.000141"
       x2="30.037716"
       y1="24.989594"
       x1="30.037716" />
    <linearGradient
       gradientTransform="matrix(0.4040235,-0.4056919,0.6073752,0.6022679,-17.465684,0.2892868)"
       gradientUnits="userSpaceOnUse"
       xlink:href="#linearGradient3240-686"
       id="linearGradient3146"
       y2="30.000141"
       x2="30.037716"
       y1="24.989594"
       x1="30.037716" />
    <linearGradient
       gradientTransform="matrix(0.4040235,-0.4056919,0.6073752,0.6022679,-17.581392,0.4054707)"
       gradientUnits="userSpaceOnUse"
       xlink:href="#linearGradient3223-768"
       id="linearGradient3148"
       y2="30.000141"
       x2="30.037716"
       y1="24.989594"
       x1="30.037716" />
    <linearGradient
       gradientTransform="matrix(0.4040235,-0.4056919,0.6073752,0.6022679,-17.061661,-0.1164056)"
       gradientUnits="userSpaceOnUse"
       xlink:href="#linearGradient3240-907"
       id="linearGradient3150"
       y2="30.000141"
       x2="30.037716"
       y1="24.989594"
       x1="30.037716" />
    <linearGradient
       gradientTransform="matrix(0.4040235,-0.4056919,0.6073752,0.6022679,-17.177369,-2.1969969e-4)"
       gradientUnits="userSpaceOnUse"
       xlink:href="#linearGradient3223-699"
       id="linearGradient3152"
       y2="30.000141"
       x2="30.037716"
       y1="24.989594"
       x1="30.037716" />
    <linearGradient
       gradientTransform="matrix(0.4040235,-0.4056919,0.6073752,0.602268,-17.636692,0.462492)"
       gradientUnits="userSpaceOnUse"
       xlink:href="#linearGradient3290-678"
       id="linearGradient3154"
       y2="26.02973"
       x2="9"
       y1="29.056757"
       x1="9" />
    <linearGradient
       gradientTransform="matrix(0.3763801,0.03615261,0.03669995,0.374874,-2.2182805,-1.1331002)"
       gradientUnits="userSpaceOnUse"
       xlink:href="#linearGradient3191-577"
       id="linearGradient3156"
       y2="41.391716"
       x2="9.5220556"
       y1="37.371799"
       x1="5.5178981" />
    <linearGradient
       id="linearGradient3600-3">
      <stop
         offset="0"
         style="stop-color:#ffffff;stop-opacity:1"
         id="stop3602-9" />
      <stop
         offset="1"
         style="stop-color:#e6e6e6;stop-opacity:1"
         id="stop3604-4" />
    </linearGradient>
    <linearGradient
       id="linearGradient3104-8">
      <stop
         offset="0"
         style="stop-color:#969696;stop-opacity:1"
         id="stop3106-1" />
      <stop
         offset="1"
         style="stop-color:#bebebe;stop-opacity:1"
         id="stop3108-2" />
    </linearGradient>
    <linearGradient
       gradientUnits="userSpaceOnUse"
       xlink:href="#linearGradient3104-8"
       id="linearGradient3735"
       y2="2.0010207"
       x2="2"
       y1="18.00102"
       x1="2" />
    <linearGradient
       gradientUnits="userSpaceOnUse"
       xlink:href="#linearGradient3600-3"
       id="linearGradient3737"
       y2="17.00102"
       x2="6"
       y1="4.0010209"
       x1="6" />
    <linearGradient
       spreadMethod="pad"
       y2="31.210939"
       x2="23.575972"
       y1="25.356892"
       x1="23.575972"
       gradientTransform="matrix(0.29211546,-0.29402456,0.36462565,0.36242618,-6.0319343,3.5294879)"
       gradientUnits="userSpaceOnUse"
       id="linearGradient923"
       xlink:href="#linearGradient3155-40" />
  </defs>
  <g
     id="g3433">
    <g
       id="layer1-3"
       transform="translate(0,-2.0010207)">
      <path
         style="fill:url(#linearGradient3737);fill-opacity:1;stroke:url(#linearGradient3735);stroke-width:1.00000012;stroke-linecap:round;stroke-linejoin:round;stroke-miterlimit:4;stroke-opacity:1;stroke-dasharray:none;display:inline"
         id="path2855"
         d="m 0.54277019,2.5010209 12.95722981,0.01 0.042,14.9900001 -12.9992298,0 -10e-9,-15 z" />
      <g
         style="fill:#999999"
         id="g4198"
         transform="matrix(1.0195441,0,0,1,29.209894,6.7743598)">
        <path
           style="opacity:0.7;fill:#686868;fill-opacity:1;stroke:none;display:inline"
           id="path6035"
           d="m -25.665515,-1.773339 1.124072,0 0,1 -1.124072,0 0,-1 z" />
        <path
           style="opacity:0.7;fill:#686868;fill-opacity:1;stroke:none;display:inline"
           id="path6033"
           d="m -24.388326,-1.773339 1.060612,0 0,1 -1.060612,0 0,-1 z" />
        <path
           style="opacity:0.7;fill:#686868;fill-opacity:1;stroke:none;display:inline"
           id="path6031"
           d="m -23.174597,-1.773339 0.933684,0 0,1 -0.933684,0 0,-1 z" />
        <path
           style="opacity:0.7;fill:#686868;fill-opacity:1;stroke:none;display:inline"
           id="path6029"
           d="m -22.087797,-1.773339 0.410114,0 0,1 -0.410114,0 0,-1 z" />
        <path
           style="opacity:0.7;fill:#686868;fill-opacity:1;stroke:none;display:inline"
           id="path6027"
           d="m -21.524561,-1.773339 0.917815,0 0,1 -0.917815,0 0,-1 z" />
        <path
           style="opacity:0.7;fill:#686868;fill-opacity:1;stroke:none;display:inline"
           id="path6025"
           d="m -20.453624,-1.773339 2.377462,0 0,1 -2.377462,0 0,-1 z" />
        <path
           style="opacity:0.7;fill:#686868;fill-opacity:1;stroke:none;display:inline"
           id="path6017"
           d="m -25.665515,4.226661 1.124072,0 0,1 -1.124072,0 0,-1 z" />
        <path
           style="opacity:0.7;fill:#686868;fill-opacity:1;stroke:none;display:inline"
           id="path6015"
           d="m -24.388327,4.226661 1.060612,0 0,1 -1.060612,0 0,-1 z" />
        <path
           style="opacity:0.7;fill:#686868;fill-opacity:1;stroke:none;display:inline"
           id="path6013"
           d="m -23.174598,4.226661 0.933683,0 0,1 -0.933683,0 0,-1 z" />
        <path
           style="opacity:0.7;fill:#686868;fill-opacity:1;stroke:none;display:inline"
           id="path6011"
           d="m -22.087799,4.226661 0.410114,0 0,1 -0.410114,0 0,-1 z" />
        <path
           style="opacity:0.7;fill:#686868;fill-opacity:1;stroke:none;display:inline"
           id="path6009"
           d="m -21.524563,4.226661 0.917814,0 0,1 -0.917814,0 0,-1 z" />
        <path
           style="opacity:0.7;fill:#686868;fill-opacity:1;stroke:none;display:inline"
           id="path5999"
           d="m -25.665515,0.22666104 1.742834,0 0,0.99999996 -1.742834,0 0,-0.99999996 z" />
        <path
           style="opacity:0.7;fill:#686868;fill-opacity:1;stroke:none;display:inline"
           id="path5997"
           d="m -23.76361,0.22666104 0.838487,0 0,0.99999996 -0.838487,0 0,-0.99999996 z" />
        <path
           style="opacity:0.7;fill:#686868;fill-opacity:1;stroke:none;display:inline"
           id="path5995"
           d="m -22.766052,0.22666104 0.394245,0 0,0.99999996 -0.394245,0 0,-0.99999996 z" />
        <path
           style="opacity:0.7;fill:#686868;fill-opacity:1;stroke:none;display:inline"
           id="path5993"
           d="m -22.212735,0.22666104 0.759159,0 0,0.99999996 -0.759159,0 0,-0.99999996 z" />
        <path
           style="opacity:0.7;fill:#686868;fill-opacity:1;stroke:none;display:inline"
           id="path5991"
           d="m -21.29451,0.22666104 0.759159,0 0,0.99999996 -0.759159,0 0,-0.99999996 z" />
        <path
           style="opacity:0.7;fill:#686868;fill-opacity:1;stroke:none;display:inline"
           id="path5989"
           d="m -20.376281,0.22666104 1.219264,0 0,0.99999996 -1.219264,0 0,-0.99999996 z" />
        <path
           style="opacity:0.7;fill:#686868;fill-opacity:1;stroke:none;display:inline"
           id="path5981"
           d="m -25.665515,2.226661 1.996685,0 0,1 -1.996685,0 0,-1 z" />
        <path
           style="opacity:0.7;fill:#686868;fill-opacity:1;stroke:none;display:inline"
           id="path5979"
           d="m -23.512309,2.226661 2.139471,0 0,1 -2.139471,0 0,-1 z" />
        <path
           style="opacity:0.7;fill:#686868;fill-opacity:1;stroke:none;display:inline"
           id="path5977"
           d="m -21.216317,2.226661 0.854355,0 0,1 -0.854355,0 0,-1 z" />
        <path
           style="opacity:0.7;fill:#686868;fill-opacity:1;stroke:none;display:inline"
           id="path5975"
           d="m -20.205441,2.226661 2.012548,0 0,1 -2.012548,0 0,-1 z" />
        <path
           style="opacity:0.7;fill:#686868;fill-opacity:1;stroke:none;display:inline"
           id="path2916"
           d="m -25.665515,6.226661 1.124072,0 0,1 -1.124072,0 0,-1 z" />
        <path
           style="opacity:0.7;fill:#686868;fill-opacity:1;stroke:none;display:inline"
           id="path2918"
           d="m -24.388327,6.226661 1.060612,0 0,1 -1.060612,0 0,-1 z" />
        <path
           style="opacity:0.7;fill:#686868;fill-opacity:1;stroke:none;display:inline"
           id="path2920"
           d="m -23.174598,6.226661 0.933683,0 0,1 -0.933683,0 0,-1 z" />
      </g>
      <path
         style="opacity:0.15;fill:#0c0c0c;fill-opacity:1;fill-rule:evenodd;stroke:none"
         id="path2422"
         d="m 13.296519,7.7055032 c -0.08415,-0.04997 -0.14927,-0.03697 -0.192287,-0.0092 l -5.7295616,3.6800668 -1.054515,0.679217 -0.03247,0.01374 -1.2484838,2.837694 3.0940808,0.094 0.02569,-0.01734 1.0612942,-0.675616 5.7281354,-3.711804 C 15.120475,10.485049 14.848333,9.7479892 14.337925,8.9399932 13.955117,8.3339992 13.548979,7.8553662 13.296517,7.7054652 z" />
    </g>
    <g
       id="g8626"
       transform="matrix(0.70257725,0,0,0.7042609,5.0317091,1.6629378)">
      <path
         style="fill:url(#linearGradient3140);fill-opacity:1;stroke:none;stroke-width:0.60797864;stroke-linecap:butt;stroke-linejoin:round;stroke-miterlimit:4;stroke-opacity:1;stroke-dasharray:none;stroke-dashoffset:0"
         id="path3041"
         d="m 2.0488085,11.037368 c 0.2865424,-0.207707 1.1479509,0.256388 1.9603385,1.061945 0.8104458,0.803629 1.2601996,1.641331 1.0575577,1.930575 -7.708e-4,0.0011 0.01977,0.01774 0.01898,0.01882 L 15.224149,3.8683779 C 15.481557,3.6099071 15.011041,2.7247557 14.172862,1.893626 13.334685,1.0624962 12.444681,0.59856571 12.187272,0.85703737 L 2.0488085,11.037368 z" />
      <path
         style="opacity:0.6;fill:#f9c440;fill-opacity:1;stroke:none"
         id="path3045"
         d="m 2.0488079,11.037368 c 0.286543,-0.207708 1.1479512,0.256388 1.960339,1.061943 0.8104449,0.80363 1.2601992,1.641332 1.0575579,1.930577 -7.714e-4,0.0011 0.01977,0.01774 0.01898,0.01882 l 6.9820302,-7.0108637 0.02525,-0.025356 c 7.9e-4,-0.00108 -0.01975,-0.01772 -0.01898,-0.01882 C 12.276628,6.7044221 11.826873,5.8667226 11.01643,5.0630931 10.204041,4.2575368 9.3426319,3.7934425 9.0560897,4.0011493 l -0.025251,0.025355 -6.9820304,7.0108637 z" />
      <path
         style="fill:url(#linearGradient3154);fill-opacity:1;fill-rule:evenodd;stroke:url(#linearGradient3156);stroke-width:0.60797864;stroke-linecap:butt;stroke-linejoin:miter;stroke-miterlimit:4;stroke-opacity:1;stroke-dasharray:none"
         id="path3059"
         d="m 0.25980529,15.79419 4.77185621,-1.725488 0.039308,-0.03926 C 5.2736124,13.740202 4.8185731,12.902156 4.0081274,12.098526 3.1957395,11.29297 2.335449,10.831246 2.0489062,11.038953 L 0.25980529,15.79419 z" />
      <path
         style="fill:#333333;fill-opacity:1;fill-rule:evenodd;stroke:#1a1a1a;stroke-width:0.60797864;stroke-linecap:butt;stroke-linejoin:miter;stroke-miterlimit:4;stroke-opacity:1;stroke-dasharray:none"
         id="path3061"
         d="M 0.7444326,14.506276 0.25922075,15.788967 1.560593,15.315574 C 1.446907,15.182439 1.3413094,15.047739 1.2062351,14.913801 1.0507282,14.759602 0.89915498,14.633134 0.7444326,14.506276 z" />
      <path
         d="m 2.0488085,11.037368 c 0.2865424,-0.207707 1.1479509,0.256388 1.9603385,1.061945 0.8104458,0.803629 1.2601996,1.641331 1.0575577,1.930575 -7.708e-4,0.0011 0.01977,0.01774 0.01898,0.01882 L 15.224149,3.8683779 C 15.481557,3.6099071 15.011041,2.7247557 14.172862,1.893626 13.334685,1.0624962 12.444681,0.59856571 12.187272,0.85703737 L 2.0488085,11.037368 z"
         id="path909"
         style="fill:none;fill-opacity:1;stroke:#ad5f00;stroke-width:0.60797864;stroke-linecap:butt;stroke-linejoin:round;stroke-miterlimit:4;stroke-opacity:1;stroke-dasharray:none;stroke-dashoffset:0" />
      <path
         id="path911"
         transform="matrix(1.423331,0,0,1.4199283,-7.1617877,-2.3612525)"
         d="M 13.681641 2.2207031 C 13.646085 2.2280469 13.616356 2.2428711 13.59375 2.265625 L 11.394531 4.4804688 C 11.595849 4.334189 12.200718 4.6611938 12.771484 5.2285156 C 13.340883 5.7944805 13.656044 6.3841858 13.513672 6.5878906 C 13.513131 6.5886653 13.527899 6.6008019 13.527344 6.6015625 L 15.728516 4.3867188 C 15.909365 4.2046879 15.577167 3.5814259 14.988281 2.9960938 C 14.473008 2.4839281 13.930533 2.1692966 13.681641 2.2207031 z "
         style="fill:url(#linearGradient923);fill-opacity:1;stroke:#555761;stroke-width:0.42766348;stroke-linecap:butt;stroke-linejoin:round;stroke-miterlimit:4;stroke-dasharray:none;stroke-dashoffset:0;stroke-opacity:1" />
      <path
         style="fill:url(#linearGradient3146);fill-opacity:1;stroke:none"
         id="path3051"
         d="m 9.5806143,3.4729643 c 0.2865426,-0.2077069 1.1479517,0.2563872 1.9603387,1.0619442 0.810446,0.803629 1.2602,1.6413292 1.057558,1.9305747 -7.73e-4,0.0011 0.01977,0.017737 0.01898,0.01882 l 0.126258,-0.1267784 c 7.91e-4,-0.00108 -0.01975,-0.017721 -0.01898,-0.01882 C 12.927411,6.0494594 12.477656,5.2117588 11.66721,4.4081298 10.854824,3.6025731 9.9934151,3.1384786 9.7068717,3.3461854 L 9.5806143,3.4729643 z" />
      <path
         style="opacity:0.9;fill:#fe9ab8;fill-opacity:1;stroke:#de3e80;stroke-width:0.60797864;stroke-linecap:butt;stroke-linejoin:round;stroke-miterlimit:4;stroke-opacity:1;stroke-dasharray:none;stroke-dashoffset:0"
         id="path3043"
         d="m 10.565423,2.4840909 c 0.286542,-0.2077065 1.147951,0.2563879 1.960338,1.0619443 0.810445,0.8036291 1.260199,1.6413295 1.057557,1.9305744 -7.69e-4,0.0011 0.01977,0.017738 0.01898,0.018821 L 15.154234,3.9383089 C 15.562715,3.5297289 15.124956,2.8454879 14.172862,1.893626 13.360476,1.0880699 12.499066,0.6239749 12.212525,0.83168148 l -0.02525,0.0253559 -1.621849,1.62705352 z" />
      <path
         style="fill:url(#linearGradient3142);fill-opacity:1;stroke:none"
         id="path3047"
         d="m 9.1785348,3.8767048 c 0.2865413,-0.2077068 1.1479522,0.2563879 1.9603392,1.0619443 0.810445,0.8036291 1.2602,1.6413294 1.057556,1.9305753 -7.71e-4,0.0011 0.01977,0.017736 0.01898,0.01882 l 0.126256,-0.1267795 c 7.9e-4,-0.00108 -0.01975,-0.01772 -0.01898,-0.01882 C 12.525331,6.4531992 12.075576,5.6154986 11.26513,4.8118704 10.452743,4.0063135 9.5913335,3.542219 9.3047918,3.7499256 l -0.126257,0.1267792 z" />
      <path
         style="fill:url(#linearGradient3144);fill-opacity:1;stroke:none"
         id="path3049"
         d="m 9.0628273,3.9928895 c 0.2865436,-0.2077068 1.1479527,0.2563878 1.9603397,1.061944 0.810444,0.8036294 1.2602,1.6413292 1.057556,1.9305742 -7.71e-4,0.0011 0.01977,0.017738 0.01898,0.018822 L 12.22596,6.8774498 c 7.9e-4,-0.00108 -0.01975,-0.017721 -0.01898,-0.018821 C 12.409623,6.569384 11.95987,5.7316836 11.149423,4.9280545 10.337036,4.1224982 9.4756273,3.6584033 9.1890844,3.8661101 L 9.0628273,3.9928895 z" />
      <path
         style="fill:url(#linearGradient3148);fill-opacity:1;stroke:none"
         id="path3053"
         d="m 9.4649071,3.5891488 c 0.2865435,-0.207707 1.1479529,0.2563877 1.9603379,1.061944 0.810447,0.8036298 1.260201,1.6413294 1.057558,1.9305748 -7.69e-4,0.0011 0.01977,0.017737 0.01898,0.018821 l 0.126257,-0.12678 c 7.9e-4,-0.00108 -0.01975,-0.01772 -0.01898,-0.01882 C 12.811705,6.1656438 12.361949,5.3279425 11.551504,4.5243147 10.739118,3.718758 9.877708,3.254663 9.5911645,3.46237 L 9.4649071,3.5891488 z" />
      <path
         style="fill:url(#linearGradient3150);fill-opacity:1;stroke:none"
         id="path3055"
         d="M 9.9846388,3.0672723 C 10.27118,2.8595657 11.13259,3.3236601 11.944976,4.1292168 c 0.810446,0.8036288 1.260201,1.641329 1.057558,1.9305741 -7.7e-4,0.0011 0.01977,0.017738 0.01898,0.018821 L 13.14777,5.9518328 c 7.92e-4,-0.00108 -0.01975,-0.017721 -0.01898,-0.018821 C 13.331434,5.6437674 12.881679,4.8060668 12.071233,4.0024374 11.258848,3.1968815 10.397438,2.7327869 10.110895,2.9404937 L 9.9846388,3.0672723 z" />
      <path
         style="fill:url(#linearGradient3152);fill-opacity:1;stroke:none"
         id="path3057"
         d="m 9.8689318,3.1834569 c 0.2865412,-0.2077072 1.1479512,0.2563879 1.9603392,1.0619447 0.810444,0.8036283 1.260198,1.6413291 1.057556,1.9305739 -7.71e-4,0.0011 0.01977,0.017737 0.01898,0.018821 l 0.126258,-0.1267782 c 7.89e-4,-0.00108 -0.01975,-0.017722 -0.01898,-0.018821 C 13.215727,5.7599515 12.765972,4.9222512 11.955527,4.1186224 11.143141,3.313066 10.281731,2.848971 9.9951884,3.0566783 L 9.8689318,3.1834569 z" />
    </g>
  </g>
</svg>
