<?xml version="1.0" encoding="UTF-8" standalone="no"?>
<svg
   xmlns:dc="http://purl.org/dc/elements/1.1/"
   xmlns:cc="http://creativecommons.org/ns#"
   xmlns:rdf="http://www.w3.org/1999/02/22-rdf-syntax-ns#"
   xmlns:svg="http://www.w3.org/2000/svg"
   xmlns="http://www.w3.org/2000/svg"
   xmlns:xlink="http://www.w3.org/1999/xlink"
   xmlns:sodipodi="http://sodipodi.sourceforge.net/DTD/sodipodi-0.dtd"
   xmlns:inkscape="http://www.inkscape.org/namespaces/inkscape"
   inkscape:version="1.0 (4035a4fb49, 2020-05-01)"
   sodipodi:docname="ct_node_link.svg"
   id="svg3946"
   height="48"
   width="48"
   version="1.1">
  <sodipodi:namedview
     inkscape:current-layer="svg3946"
     inkscape:window-maximized="1"
     inkscape:window-y="22"
     inkscape:window-x="-8"
     inkscape:cy="24"
     inkscape:cx="24"
     inkscape:zoom="5.477186"
     showgrid="false"
     id="namedview47"
     inkscape:window-height="715"
     inkscape:window-width="1366"
     inkscape:pageshadow="2"
     inkscape:pageopacity="0"
     guidetolerance="10"
     gridtolerance="10"
     objecttolerance="10"
     borderopacity="1"
     bordercolor="#666666"
     pagecolor="#ffffff" />
  <defs
     id="defs3948">
    <linearGradient
       id="linearGradient4251">
      <stop
         style="stop-color:#000000;stop-opacity:1;"
         offset="0"
         id="stop4247" />
      <stop
         style="stop-color:#ffffff;stop-opacity:1"
         offset="1"
         id="stop4249" />
    </linearGradient>
    <linearGradient
       id="linearGradient3242-7-3-8-0-4-58-06">
      <stop
         id="stop3244-5-8-5-6-4-3-8"
         style="stop-color:#cdf87e;stop-opacity:1"
         offset="0" />
      <stop
         id="stop3246-9-5-1-5-3-0-7"
         style="stop-color:#a2e34f;stop-opacity:1"
         offset="0.26238" />
      <stop
         id="stop3248-7-2-0-7-5-35-9"
         style="stop-color:#68b723;stop-opacity:1"
         offset="0.66093999" />
      <stop
         id="stop3250-8-2-8-5-6-40-4"
         style="stop-color:#1d7e0d;stop-opacity:1"
         offset="1" />
    </linearGradient>
    <radialGradient
       gradientTransform="matrix(0,0.95936489,-1.0436697,0,87.757589,-35.865792)"
       gradientUnits="userSpaceOnUse"
       xlink:href="#linearGradient3242-7-3-8-0-4-58-06"
       id="radialGradient3343"
       fy="48.744953"
       fx="65.59787"
       r="31.000002"
       cy="48.744953"
       cx="65.59787" />
    <linearGradient
       gradientTransform="matrix(0.70448868,0,0,0.59520312,21.241407,23.219131)"
       gradientUnits="userSpaceOnUse"
       xlink:href="#linearGradient4154"
       id="linearGradient3030-3"
       y2="36.594009"
       x2="24.138529"
       y1="9.712431"
       x1="24.138529" />
    <linearGradient
       id="linearGradient4154">
      <stop
         offset="0"
         style="stop-color:#ffffff;stop-opacity:1"
         id="stop4156" />
      <stop
         offset="0"
         style="stop-color:#ffffff;stop-opacity:0.23529412"
         id="stop4158" />
      <stop
         offset="1"
         style="stop-color:#ffffff;stop-opacity:0.15686275"
         id="stop4160" />
      <stop
         offset="1"
         style="stop-color:#ffffff;stop-opacity:0.39215687"
         id="stop4162" />
    </linearGradient>
    <linearGradient
       gradientTransform="matrix(0.60015241,0,0,0.69748032,23.556108,20.861165)"
       gradientUnits="userSpaceOnUse"
       xlink:href="#linearGradient4154"
       id="linearGradient3030-1-3"
       y2="26.006231"
       x2="24.138529"
       y1="20.271303"
       x1="24.138529" />
    <linearGradient
       xlink:href="#linearGradient4251"
       id="linearGradient4253"
       x1="76.25"
       y1="40.125"
       x2="97"
       y2="40.125"
       gradientUnits="userSpaceOnUse" />
    <linearGradient
       xlink:href="#linearGradient4251"
       id="linearGradient4257"
       gradientUnits="userSpaceOnUse"
       x1="76.25"
       y1="40.125"
       x2="97"
       y2="40.125"
       gradientTransform="translate(-27.75)" />
    <linearGradient
       xlink:href="#linearGradient4251"
       id="linearGradient4267"
       x1="66"
       y1="40.125"
       x2="77"
       y2="40.125"
       gradientUnits="userSpaceOnUse" />
    <radialGradient
       gradientTransform="matrix(0.11948551,0,0,0.07603625,0.1521741,28.071563)"
       gradientUnits="userSpaceOnUse"
       xlink:href="#linearGradient3820-7-2-2"
       id="radialGradient4277"
       fy="186.17059"
       fx="99.157013"
       r="62.769119"
       cy="186.17059"
       cx="99.157013" />
    <linearGradient
       id="linearGradient3820-7-2-2">
      <stop
         offset="0"
         style="stop-color:#3d3d3d;stop-opacity:1"
         id="stop3822-2-6-36" />
      <stop
         offset="0.5"
         style="stop-color:#686868;stop-opacity:0.49803922"
         id="stop3864-8-7-6" />
      <stop
         offset="1"
         style="stop-color:#686868;stop-opacity:0"
         id="stop3824-1-2-4" />
    </linearGradient>
  </defs>
  <metadata
     id="metadata3951">
    <rdf:RDF>
      <cc:Work
         rdf:about="">
        <dc:format>image/svg+xml</dc:format>
        <dc:type
           rdf:resource="http://purl.org/dc/dcmitype/StillImage" />
        <dc:title></dc:title>
      </cc:Work>
    </rdf:RDF>
  </metadata>
  <path
     d="m 19.5,42.227273 a 7.5,4.7727271 0 1 1 -15,0 7.5,4.7727271 0 1 1 15,0 z"
     id="path3818-0-2"
     style="fill:url(#radialGradient4277);fill-opacity:1;stroke:none;stroke-width:1" />
  <g
     id="g4282"
     transform="rotate(-45,28.910403,90.908956)">
    <path
       id="rect3636"
       d="m 53.75,32.75 c -2.9085,0 -5.25,2.3415 -5.25,5.25 v 4.25 c 0,2.9085 2.3415,5.25 5.25,5.25 H 64 c 2.9085,0 5.25,-2.3415 5.25,-5.25 V 38 c 0,-2.9085 -2.3415,-5.25 -5.25,-5.25 z m 0.375,3.75 h 9.5 c 1.03875,0 1.875,0.83625 1.875,1.875 v 3.5 c 0,1.03875 -0.83625,1.875 -1.875,1.875 h -9.5 c -1.03875,0 -1.875,-0.83625 -1.875,-1.875 v -3.5 c 0,-1.03875 0.83625,-1.875 1.875,-1.875 z"
       style="opacity:1;fill:#d4d4d4;fill-opacity:1;stroke:#000000;stroke-width:1;stroke-linecap:round;stroke-linejoin:bevel;stroke-opacity:0.42745098" />
    <path
       id="rect3650"
       d="m 81.5,32.75 c -2.9085,0 -5.25,2.3415 -5.25,5.25 v 4.25 c 0,2.9085 2.3415,5.25 5.25,5.25 H 91.75 C 94.6585,47.5 97,45.1585 97,42.25 V 38 c 0,-2.9085 -2.3415,-5.25 -5.25,-5.25 z m 0.375,3.75 h 9.5 c 1.03875,0 1.875,0.83625 1.875,1.875 v 3.5 c 0,1.03875 -0.83625,1.875 -1.875,1.875 h -9.5 C 80.83625,43.75 80,42.91375 80,41.875 v -3.5 C 80,37.33625 80.83625,36.5 81.875,36.5 Z"
       style="opacity:1;fill:#d4d4d4;fill-opacity:1;stroke:#000000;stroke-width:1;stroke-linecap:round;stroke-linejoin:bevel;stroke-opacity:0.42745098" />
    <path
       style="opacity:0.2;fill:url(#linearGradient4253);fill-opacity:1;stroke:none;stroke-width:1;stroke-linecap:round;stroke-linejoin:bevel;stroke-opacity:0.42745098"
       d="m 81.5,32.75 c -2.9085,0 -5.25,2.3415 -5.25,5.25 v 4.25 c 0,2.9085 2.3415,5.25 5.25,5.25 H 91.75 C 94.6585,47.5 97,45.1585 97,42.25 V 38 c 0,-2.9085 -2.3415,-5.25 -5.25,-5.25 z m 0.375,3.75 h 9.5 c 1.03875,0 1.875,0.83625 1.875,1.875 v 3.5 c 0,1.03875 -0.83625,1.875 -1.875,1.875 h -9.5 C 80.83625,43.75 80,42.91375 80,41.875 v -3.5 C 80,37.33625 80.83625,36.5 81.875,36.5 Z"
       id="path3702" />
    <path
       id="rect3646"
       d="m 81.5,33.75 h 10.25 c 2.3545,0 4.25,1.8955 4.25,4.25 v 4.25"
       style="opacity:0.4;fill:none;fill-opacity:1;stroke:#ffffff;stroke-width:1;stroke-linecap:round;stroke-linejoin:bevel;stroke-opacity:1" />
    <path
       id="rect3648"
       d="M 91.375001,44.75 H 81.875 C 80.28225,44.75 79,43.46775 79,41.875"
       style="opacity:0.4;fill:none;fill-opacity:1;stroke:#ffffff;stroke-width:1;stroke-linecap:round;stroke-linejoin:bevel;stroke-opacity:1" />
    <path
       id="path4255"
       d="m 53.75,32.75 c -2.9085,0 -5.25,2.3415 -5.25,5.25 v 4.25 c 0,2.9085 2.3415,5.25 5.25,5.25 H 64 c 2.9085,0 5.25,-2.3415 5.25,-5.25 V 38 c 0,-2.9085 -2.3415,-5.25 -5.25,-5.25 z m 0.375,3.75 h 9.5 c 1.03875,0 1.875,0.83625 1.875,1.875 v 3.5 c 0,1.03875 -0.83625,1.875 -1.875,1.875 h -9.5 c -1.03875,0 -1.875,-0.83625 -1.875,-1.875 v -3.5 c 0,-1.03875 0.83625,-1.875 1.875,-1.875 z"
       style="opacity:0.2;fill:url(#linearGradient4257);fill-opacity:1;stroke:none;stroke-width:1;stroke-linecap:round;stroke-linejoin:bevel;stroke-opacity:0.42745098" />
    <path
       style="opacity:0.4;fill:none;fill-opacity:1;stroke:#ffffff;stroke-width:1;stroke-linecap:round;stroke-linejoin:bevel;stroke-opacity:1"
       d="M 64,46.5 H 53.75 c -2.3545,0 -4.25,-1.8955 -4.25,-4.25 V 38"
       id="path3691" />
    <path
       style="opacity:0.4;fill:none;fill-opacity:1;stroke:#ffffff;stroke-width:1;stroke-linecap:round;stroke-linejoin:bevel;stroke-opacity:1"
       d="M 54.124999,35.5 H 63.625 c 1.59275,0 2.875,1.28225 2.875,2.875"
       id="path3693" />
    <rect
       ry="2.25"
       rx="2.25"
       y="38.25"
       x="62.75"
       height="3.75"
       width="20"
       id="rect3644"
       style="opacity:1;fill:#d4d4d4;fill-opacity:1;stroke:#000000;stroke-width:1;stroke-linecap:round;stroke-linejoin:bevel;stroke-opacity:0.42745098" />
    <rect
       style="opacity:0.2;fill:url(#linearGradient4267);fill-opacity:1;stroke:none;stroke-width:1;stroke-linecap:round;stroke-linejoin:bevel;stroke-opacity:0.42745098"
       id="rect4259"
       width="20"
       height="3.75"
       x="62.75"
       y="38.25"
       rx="2.25"
       ry="2.25" />
    <path
       id="rect3687"
       d="m 63.75,40.125 c 0,-0.48475 0.5575,-0.875 1.25,-0.875 h 15.5 c 0.6925,0 1.25,0.39025 1.25,0.875"
       style="opacity:0.4;fill:none;fill-opacity:1;stroke:#ffffff;stroke-width:1;stroke-linecap:round;stroke-linejoin:bevel;stroke-opacity:1" />
  </g>
  <g
     id="g1055"
     transform="matrix(5.0357941,0,0,5.0357941,-21.68198,-9.0211326)">
    <g
       transform="translate(11.036554,3.061234)"
       style="stroke:#7a0000;stroke-opacity:1"
       id="g1018">
      <g
         style="stroke:#7a0000;stroke-opacity:1"
         id="cherry2-3"
         transform="matrix(0.1203468,0.00521202,-0.00532923,0.12128682,-8.3880628,-3.3438663)">
        <path
           style="fill:#c6262e;fill-opacity:1;stroke:#7a0000;stroke-width:4.1346;stroke-opacity:1"
           id="p5-12"
           d="m 42.021325,38.735182 c -2.279722,6.288872 -8.636377,11.670921 -14.976424,9.411231 -6.70613,-0.642133 -10.13411,-8.200552 -9.485159,-14.85215 0.72889,-7.470957 6.639519,-10.416091 14.793381,-8.602451 8.153861,1.813641 12.228746,6.979824 9.668202,14.04337 z" />
        <path
           style="fill:none;stroke:#333333;stroke-width:4.1346;stroke-opacity:1"
           id="p8-9"
           d="m 28.22429,26.01175 c -0.601384,3.336063 4.88838,5.213413 6.335518,2.000743" />
      </g>
      <path
         style="fill:#275100;fill-opacity:0.945098;stroke:#3a9104;stroke-width:0.5;stroke-linecap:round;stroke-opacity:1;stop-color:#000000"
         d="m -4.8335274,0.08055881 c 0.1452989,-0.3893675 0.4855397,-0.6981762 0.9667054,-1.08754371"
         id="path1009"
         sodipodi:nodetypes="cc" />
    </g>
    <path
       d="M 5.7418096,3.9793271 A 0.52363216,0.40279397 48.878523 0 1 5.0940074,3.8497667 0.52363216,0.40279397 48.878523 0 1 5.0530684,3.1904052 0.52363216,0.40279397 48.878523 0 1 5.7008706,3.3199656 0.52363216,0.40279397 48.878523 0 1 5.7418096,3.9793271"
       style="opacity:1;fill:#ff8c82;fill-opacity:1;stroke:none;stroke-width:0.495729;stroke-linecap:round;stroke-opacity:1;stop-color:#000000"
       id="path1046" />
  </g>
</svg>
