<?xml version="1.0" encoding="UTF-8"?>
<!-- Created with Inkscape (http://www.inkscape.org/) -->
<svg id="svg3260" width="48" height="48" version="1.0" xmlns="http://www.w3.org/2000/svg" xmlns:xlink="http://www.w3.org/1999/xlink">
 <defs id="defs3262">
  <radialGradient id="radialGradient2486" cx="62.625" cy="4.625" r="10.625" gradientTransform="matrix(2.1647 0 0 .75294 -111.56 36.518)" gradientUnits="userSpaceOnUse">
   <stop id="stop8840" offset="0"/>
   <stop id="stop8842" style="stop-opacity:0" offset="1"/>
  </radialGradient>
  <linearGradient id="linearGradient2483" x1="18.379" x2="18.379" y1="44.98" y2="3.0816" gradientTransform="matrix(.95844 0 0 .95844 .99752 1.9975)" gradientUnits="userSpaceOnUse">
   <stop id="stop2492" style="stop-color:#791235" offset="0"/>
   <stop id="stop2494" style="stop-color:#dd3b27" offset="1"/>
  </linearGradient>
  <radialGradient id="radialGradient2481" cx="23.896" cy="3.99" r="20.397" gradientTransform="matrix(0 2.2875 -3.0194 0 36.047 -50.63)" gradientUnits="userSpaceOnUse">
   <stop id="stop3244" style="stop-color:#f8b17e" offset="0"/>
   <stop id="stop3246" style="stop-color:#e35d4f" offset=".26238"/>
   <stop id="stop3248" style="stop-color:#c6262e" offset=".66094"/>
   <stop id="stop3250" style="stop-color:#690b54" offset="1"/>
  </radialGradient>
  <linearGradient id="linearGradient2478" x1="63.397" x2="63.397" y1="-12.489" y2="5.4676" gradientTransform="matrix(2.1154 0 0 2.1153 -107.58 32.427)" gradientUnits="userSpaceOnUse">
   <stop id="stop4875" style="stop-color:#fff" offset="0"/>
   <stop id="stop4877" style="stop-color:#fff;stop-opacity:0" offset="1"/>
  </linearGradient>
 </defs>
 <g id="layer1">
  <path id="path8836" d="m47 40c0 4.4183-10.297 8-23 8s-23-3.5817-23-8 10.297-8 23-8 23 3.5817 23 8z" style="fill-rule:evenodd;fill:url(#radialGradient2486);opacity:.3"/>
  <path id="path2555" d="m24 5.5018c-10.758 0-19.498 8.7398-19.498 19.498s8.7398 19.498 19.498 19.498c10.758 0 19.498-8.7398 19.498-19.498 0-10.758-8.7398-19.498-19.498-19.498z" style="fill:url(#radialGradient2481);stroke-linecap:round;stroke-linejoin:round;stroke-width:1.0037;stroke:url(#linearGradient2483)"/>
  <path id="path8655" d="m42.5 24.999c0 10.218-8.2833 18.501-18.5 18.501-10.217 0-18.5-8.2832-18.5-18.501 0-10.217 8.2829-18.499 18.5-18.499 10.216 0 18.5 8.2822 18.5 18.499z" style="fill:none;opacity:.4;stroke:url(#linearGradient2478)"/>
  <path id="path2975" d="m9 26h30v-5h-30v5z" style="opacity:.2"/>
  <path id="path3360" d="m9 27h30v-5h-30v5z" style="fill:#fff"/>
 </g>
</svg>
