<?xml version="1.0" encoding="UTF-8" standalone="no"?>
<svg
   xmlns:dc="http://purl.org/dc/elements/1.1/"
   xmlns:cc="http://creativecommons.org/ns#"
   xmlns:rdf="http://www.w3.org/1999/02/22-rdf-syntax-ns#"
   xmlns:svg="http://www.w3.org/2000/svg"
   xmlns="http://www.w3.org/2000/svg"
   xmlns:xlink="http://www.w3.org/1999/xlink"
   xmlns:sodipodi="http://sodipodi.sourceforge.net/DTD/sodipodi-0.dtd"
   xmlns:inkscape="http://www.inkscape.org/namespaces/inkscape"
   inkscape:version="1.0 (4035a4fb49, 2020-05-01)"
   sodipodi:docname="ct_python.svg"
   version="1.1"
   width="16"
   height="16"
   id="svg3810">
  <sodipodi:namedview
     inkscape:current-layer="svg3810"
     inkscape:window-maximized="1"
     inkscape:window-y="22"
     inkscape:window-x="-8"
     inkscape:cy="8.123786"
     inkscape:cx="8"
     inkscape:zoom="33.861729"
     showgrid="false"
     id="namedview33"
     inkscape:window-height="715"
     inkscape:window-width="1366"
     inkscape:pageshadow="2"
     inkscape:pageopacity="0"
     guidetolerance="10"
     gridtolerance="10"
     objecttolerance="10"
     borderopacity="1"
     bordercolor="#666666"
     pagecolor="#ffffff" />
  <defs
     id="defs3812">
    <linearGradient
       id="linearGradient880">
      <stop
         style="stop-color:#3689e6;stop-opacity:1"
         offset="0"
         id="stop876" />
      <stop
         style="stop-color:#0d52bf;stop-opacity:1"
         offset="1"
         id="stop878" />
    </linearGradient>
    <linearGradient
       id="linearGradient872">
      <stop
         style="stop-color:#f9c440;stop-opacity:1"
         offset="0"
         id="stop868" />
      <stop
         style="stop-color:#d48e15;stop-opacity:1"
         offset="1"
         id="stop870" />
    </linearGradient>
    <linearGradient
       x1="23.99999"
       y1="6.9230647"
       x2="23.99999"
       y2="41.076912"
       id="linearGradient3988"
       xlink:href="#linearGradient3977"
       gradientUnits="userSpaceOnUse"
       gradientTransform="matrix(0.24324324,0,0,0.35135133,2.1621636,-0.43242804)" />
    <linearGradient
       id="linearGradient3977">
      <stop
         id="stop3979"
         style="stop-color:#ffffff;stop-opacity:1"
         offset="0" />
      <stop
         id="stop3981"
         style="stop-color:#ffffff;stop-opacity:0.23529412"
         offset="0" />
      <stop
         id="stop3983"
         style="stop-color:#ffffff;stop-opacity:0.15686275"
         offset="1" />
      <stop
         id="stop3985"
         style="stop-color:#ffffff;stop-opacity:0.39215687"
         offset="1" />
    </linearGradient>
    <linearGradient
       id="linearGradient3600">
      <stop
         id="stop3602"
         style="stop-color:#f4f4f4;stop-opacity:1"
         offset="0" />
      <stop
         id="stop3604"
         style="stop-color:#dbdbdb;stop-opacity:1"
         offset="1" />
    </linearGradient>
    <linearGradient
       x1="25.132275"
       y1="0.98520643"
       x2="25.132275"
       y2="47.013336"
       id="linearGradient3806"
       xlink:href="#linearGradient3600"
       gradientUnits="userSpaceOnUse"
       gradientTransform="matrix(0.28571361,0,0,0.30419701,1.1428727,0.2326048)" />
    <linearGradient
       id="linearGradient3104-9">
      <stop
         id="stop3106-5"
         style="stop-color:#000000;stop-opacity:0.33950618"
         offset="0" />
      <stop
         id="stop3108-5"
         style="stop-color:#000000;stop-opacity:0.24691358"
         offset="1" />
    </linearGradient>
    <linearGradient
       x1="-51.786404"
       y1="50.786446"
       x2="-51.786404"
       y2="2.9062471"
       id="linearGradient3019"
       xlink:href="#linearGradient3104-9"
       gradientUnits="userSpaceOnUse"
       gradientTransform="matrix(0.25378586,0,0,0.30501865,19.128979,-0.68547704)" />
    <linearGradient
       gradientTransform="matrix(1.457744,0,0,1.457744,-3.6619513,-3.6619513)"
       xlink:href="#linearGradient872"
       id="linearGradient874"
       x1="8.980072"
       y1="6"
       x2="8.980072"
       y2="14.969172"
       gradientUnits="userSpaceOnUse" />
    <linearGradient
       gradientTransform="matrix(1.457744,0,0,1.457744,-3.6619513,-3.6619513)"
       xlink:href="#linearGradient880"
       id="linearGradient882"
       x1="7.3926425"
       y1="4"
       x2="7.3926425"
       y2="14.938807"
       gradientUnits="userSpaceOnUse" />
  </defs>
  <metadata
     id="metadata3815">
    <rdf:RDF>
      <cc:Work
         rdf:about="">
        <dc:format>image/svg+xml</dc:format>
        <dc:type
           rdf:resource="http://purl.org/dc/dcmitype/StillImage" />
        <dc:title></dc:title>
      </cc:Work>
    </rdf:RDF>
  </metadata>
  <path
     id="path1948"
     style="color:#000000;clip-rule:nonzero;display:inline;overflow:visible;visibility:visible;opacity:1;isolation:auto;mix-blend-mode:normal;color-interpolation:sRGB;color-interpolation-filters:linearRGB;solid-color:#000000;solid-opacity:1;fill:url(#linearGradient882);fill-opacity:1;fill-rule:nonzero;stroke:none;stroke-width:0.480202;stroke-linecap:butt;stroke-linejoin:miter;stroke-miterlimit:4;stroke-dasharray:none;stroke-dashoffset:0;stroke-opacity:1;marker:none;color-rendering:auto;image-rendering:auto;shape-rendering:auto;text-rendering:auto;enable-background:accumulate"
     d="M 7.9305607,2.1691198 C 7.4496894,2.1713645 6.9904678,2.2118911 6.5863999,2.282612 5.396067,2.4906077 5.179949,2.9259605 5.1799485,3.7288253 V 4.7891651 H 7.9928513 V 5.1426118 H 5.1799485 4.1242906 c -0.8175076,0 -1.5333409,0.486002 -1.7572444,1.4105441 -0.2582703,1.0597402 -0.2697258,1.7210348 0,2.8275736 0.1999513,0.8236645 0.6774618,1.4105435 1.494969,1.4105435 H 4.8291556 V 9.5201627 c 0,-0.9183027 0.8033117,-1.7283216 1.7572443,-1.7283221 h 2.8096243 c 0.7820998,0 1.4064508,-0.6369212 1.4064508,-1.4137865 V 3.7288253 C 10.802475,2.9748394 10.159379,2.408449 9.3960242,2.282612 8.9128096,2.2030532 8.4114326,2.16691 7.9305607,2.1691198 Z M 6.4093641,3.0219314 c 0.2905535,0 0.5278289,0.2385173 0.5278289,0.5317919 0,0.2922341 -0.2372754,0.5285487 -0.5278289,0.5285487 -0.2915951,0 -0.527829,-0.2363146 -0.527829,-0.5285487 0,-0.2932746 0.2362339,-0.5317919 0.527829,-0.5317919 z" />
  <path
     id="path1950-4-1"
     style="color:#000000;clip-rule:nonzero;display:inline;overflow:visible;visibility:visible;opacity:1;isolation:auto;mix-blend-mode:normal;color-interpolation:sRGB;color-interpolation-filters:linearRGB;solid-color:#000000;solid-opacity:1;fill:url(#linearGradient874);fill-opacity:1;fill-rule:nonzero;stroke:none;stroke-width:0.480202;stroke-linecap:butt;stroke-linejoin:miter;stroke-miterlimit:4;stroke-dasharray:none;stroke-dashoffset:0;stroke-opacity:1;marker:none;color-rendering:auto;image-rendering:auto;shape-rendering:auto;text-rendering:auto;enable-background:accumulate"
     d="m 11.153269,5.1426112 v 1.2354453 c 0,0.9578198 -0.821018,1.7639884 -1.7572462,1.7639884 H 6.5864005 c -0.769605,0 -1.406452,0.6514825 -1.4064524,1.4137856 v 2.6492315 c 0,0.753986 0.6628823,1.19747 1.4064524,1.413784 0.890407,0.258957 1.7442585,0.305756 2.8096223,0 0.7081592,-0.202794 1.4064512,-0.610923 1.4064512,-1.413784 V 11.14472 H 7.9928513 v -0.353444 h 2.8096227 1.40645 c 0.81751,0 1.122146,-0.564002 1.406453,-1.410545 0.293678,-0.8715041 0.281183,-1.7095968 0,-2.8275744 C 13.413344,5.7482124 13.027475,5.1426112 12.208924,5.1426112 Z M 9.5730599,11.851614 c 0.2915943,0 0.5278281,0.236316 0.5278281,0.52855 0,0.293274 -0.2362338,0.531792 -0.5278281,0.531792 -0.2905555,0 -0.5278283,-0.238518 -0.5278283,-0.531792 0,-0.292234 0.2372728,-0.52855 0.5278283,-0.52855 z" />
</svg>
