<?xml version="1.0" encoding="UTF-8" standalone="no"?>
<svg
   xmlns:dc="http://purl.org/dc/elements/1.1/"
   xmlns:cc="http://creativecommons.org/ns#"
   xmlns:rdf="http://www.w3.org/1999/02/22-rdf-syntax-ns#"
   xmlns:svg="http://www.w3.org/2000/svg"
   xmlns="http://www.w3.org/2000/svg"
   xmlns:xlink="http://www.w3.org/1999/xlink"
   version="1.0"
   width="16"
   height="16"
   id="svg11300">
  <metadata
     id="metadata38">
    <rdf:RDF>
      <cc:Work
         rdf:about="">
        <dc:format>image/svg+xml</dc:format>
        <dc:type
           rdf:resource="http://purl.org/dc/dcmitype/StillImage" />
        <dc:title></dc:title>
      </cc:Work>
    </rdf:RDF>
  </metadata>
  <defs
     id="defs3">
    <linearGradient
       id="linearGradient978">
      <stop
         offset="0"
         style="stop-color:#ffffff;stop-opacity:1"
         id="stop970" />
      <stop
         offset="0.21971756"
         style="stop-color:#ffffff;stop-opacity:0.23529412"
         id="stop972" />
      <stop
         offset="0.95779753"
         style="stop-color:#ffffff;stop-opacity:0.15686275"
         id="stop974" />
      <stop
         offset="1"
         style="stop-color:#ffffff;stop-opacity:0.39215687"
         id="stop976" />
    </linearGradient>
    <linearGradient
       id="linearGradient868">
      <stop
         id="stop864"
         offset="0"
         style="stop-color:#fafafa;stop-opacity:1" />
      <stop
         id="stop866"
         offset="1"
         style="stop-color:#d4d4d4;stop-opacity:1" />
    </linearGradient>
    <linearGradient
       xlink:href="#linearGradient978"
       id="linearGradient968"
       x1="11.07965"
       y1="4.1472802"
       x2="11.07965"
       y2="13.103444"
       gradientUnits="userSpaceOnUse" />
    <linearGradient
       xlink:href="#linearGradient868"
       id="linearGradient980"
       x1="11.011719"
       y1="2.4787073"
       x2="11.011719"
       y2="15.17359"
       gradientUnits="userSpaceOnUse" />
  </defs>
  <path
     id="path883"
     style="font-variation-settings:normal;opacity:1;vector-effect:none;fill:url(#linearGradient980);fill-opacity:1;stroke:#555761;stroke-width:1;stroke-linecap:butt;stroke-linejoin:round;stroke-miterlimit:4;stroke-dasharray:none;stroke-dashoffset:0;stroke-opacity:0.5;marker:none;stop-color:#000000;stop-opacity:1"
     d="M 11.011719,2.4787073 C 9,2.4787073 7.5,4 7.5,6.0253906 7.5000481,8 9,9.3656873 10.707031,9.496094 8.3724102,9.566471 6.4838188,11.058594 6.4838188,13 c 0,1.108 0.892,1.500736 2,1.500736 h 5.0514622 c 1.108,0 2,-0.392736 2,-1.500736 C 15.484651,11.323329 13.5,9.5822548 11.275391,9.5 13,9.3860695 14.500438,8 14.5,6.0253906 14.5,4 13,2.4787073 11.011719,2.4787073 Z M 3.9257812,4.5 C 2.5,4.5250663 1.4997662,5.5 1.5,7.0136719 1.5005817,8.5 2.5,9.4678593 3.9101562,9.5 2.4424392,9.56475 0.53953864,11.690738 0.5,13 c 0,1.108 0.392,1.500736 1.5,1.500736 h 3 c 0.1594372,0 2.351522,0.03492 2.5,0 -0.5,-0.5 -1.0236396,-0.719242 -1,-1.500002 C 6.5,12.5 6.4838188,12 6.4838188,11.058594 6.5,10.5 5.1378677,9.549207 4.09375,9.5 5.5,9.445944 6.5001294,8.5 6.5,7.0136719 6.5,5.5 5.5,4.5 3.9785156,4.5 c -0.017578,-1.545e-4 -0.035157,-1.545e-4 -0.052734,0 z" />
  <path
     id="path874"
     style="font-variation-settings:normal;opacity:1;vector-effect:none;fill:none;fill-opacity:1;stroke:url(#linearGradient968);stroke-width:1;stroke-linecap:butt;stroke-linejoin:round;stroke-miterlimit:4;stroke-dasharray:none;stroke-dashoffset:0;stroke-opacity:1;marker:none;stop-color:#000000;stop-opacity:1"
     d="M 11 3.5 A 2.5 2.5 0 0 0 8.5 6 A 2.5 2.5 0 0 0 11 8.5 A 2.5 2.5 0 0 0 13.5 6 A 2.5 2.5 0 0 0 11 3.5 z M 4 5.5 A 1.5 1.5 0 0 0 2.5 7 A 1.5 1.5 0 0 0 4 8.5 A 1.5 1.5 0 0 0 5.5 7 A 1.5 1.5 0 0 0 4 5.5 z M 11 10.337891 C 6.3614455 11.176966 6 14.5 11 13.5 C 16.706422 14.5 15.004162 10.985812 11 10.337891 z M 4 10.5 C 1.5 11.943376 -0.49999997 14.5 4.5 13.5 C 6.3660254 14 6.5 11.169873 4 10.5 z " />
</svg>
