<?xml version="1.0" encoding="UTF-8" standalone="no"?>
<svg
   xmlns:dc="http://purl.org/dc/elements/1.1/"
   xmlns:cc="http://creativecommons.org/ns#"
   xmlns:rdf="http://www.w3.org/1999/02/22-rdf-syntax-ns#"
   xmlns:svg="http://www.w3.org/2000/svg"
   xmlns="http://www.w3.org/2000/svg"
   xmlns:xlink="http://www.w3.org/1999/xlink"
   xmlns:sodipodi="http://sodipodi.sourceforge.net/DTD/sodipodi-0.dtd"
   xmlns:inkscape="http://www.inkscape.org/namespaces/inkscape"
   id="svg3828"
   height="16"
   width="16"
   version="1.1"
   sodipodi:docname="ct_perl.svg"
   inkscape:version="1.0 (4035a4fb49, 2020-05-01)">
  <sodipodi:namedview
     inkscape:document-rotation="0"
     pagecolor="#ffffff"
     bordercolor="#666666"
     borderopacity="1"
     objecttolerance="10"
     gridtolerance="10"
     guidetolerance="10"
     inkscape:pageopacity="0"
     inkscape:pageshadow="2"
     inkscape:window-width="1366"
     inkscape:window-height="715"
     id="namedview46"
     showgrid="false"
     inkscape:zoom="14.637677"
     inkscape:cx="12"
     inkscape:cy="13.743757"
     inkscape:window-x="-8"
     inkscape:window-y="22"
     inkscape:window-maximized="1"
     inkscape:current-layer="svg3828" />
  <defs
     id="defs3830">
    <linearGradient
       id="linearGradient3977">
      <stop
         offset="0"
         style="stop-color:#ffffff;stop-opacity:1"
         id="stop3979" />
      <stop
         offset="0"
         style="stop-color:#ffffff;stop-opacity:0.23529412"
         id="stop3981" />
      <stop
         offset="1"
         style="stop-color:#ffffff;stop-opacity:0.15686275"
         id="stop3983" />
      <stop
         offset="1"
         style="stop-color:#ffffff;stop-opacity:0.39215687"
         id="stop3985" />
    </linearGradient>
    <linearGradient
       id="linearGradient3600-4">
      <stop
         offset="0"
         style="stop-color:#f4f4f4;stop-opacity:1"
         id="stop3602-7" />
      <stop
         offset="1"
         style="stop-color:#dbdbdb;stop-opacity:1"
         id="stop3604-6" />
    </linearGradient>
    <linearGradient
       id="linearGradient5060">
      <stop
         offset="0"
         style="stop-color:#000000;stop-opacity:1"
         id="stop5062" />
      <stop
         offset="1"
         style="stop-color:#000000;stop-opacity:0"
         id="stop5064" />
    </linearGradient>
    <linearGradient
       id="linearGradient5048">
      <stop
         offset="0"
         style="stop-color:#000000;stop-opacity:0"
         id="stop5050" />
      <stop
         offset="0.5"
         style="stop-color:#000000;stop-opacity:1"
         id="stop5056" />
      <stop
         offset="1"
         style="stop-color:#000000;stop-opacity:0"
         id="stop5052" />
    </linearGradient>
    <linearGradient
       gradientTransform="matrix(0.40540511,0,0,0.51351351,2.2696871,-0.3243195)"
       gradientUnits="userSpaceOnUse"
       xlink:href="#linearGradient3977"
       id="linearGradient3013"
       y2="41.526306"
       x2="23.99999"
       y1="6.4736748"
       x1="23.99999" />
    <linearGradient
       gradientTransform="matrix(0.45714178,0,0,0.43456667,1.0285964,0.90372283)"
       gradientUnits="userSpaceOnUse"
       xlink:href="#linearGradient3600-4"
       id="linearGradient3016"
       y2="47.013336"
       x2="25.132275"
       y1="0.98520643"
       x1="25.132275" />
    <radialGradient
       gradientTransform="matrix(0.01204859,0,0,0.0082353,13.238793,18.980564)"
       gradientUnits="userSpaceOnUse"
       xlink:href="#linearGradient5060"
       id="radialGradient3021"
       fy="486.64789"
       fx="605.71429"
       r="117.14286"
       cy="486.64789"
       cx="605.71429" />
    <radialGradient
       gradientTransform="matrix(-0.01204859,0,0,0.0082353,10.761206,18.980564)"
       gradientUnits="userSpaceOnUse"
       xlink:href="#linearGradient5060"
       id="radialGradient3024"
       fy="486.64789"
       fx="605.71429"
       r="117.14286"
       cy="486.64789"
       cx="605.71429" />
    <linearGradient
       gradientTransform="matrix(0.0352071,0,0,0.0082353,-0.724852,18.980547)"
       gradientUnits="userSpaceOnUse"
       xlink:href="#linearGradient5048"
       id="linearGradient3027"
       y2="609.50507"
       x2="302.85715"
       y1="366.64789"
       x1="302.85715" />
    <radialGradient
       cx="3.3324013"
       cy="9.9571075"
       r="12.671875"
       fx="2.8021708"
       fy="9.9571075"
       id="radialGradient3107"
       xlink:href="#linearGradient2867-449-88-871-390-598-476-591-434-148-57-177-8-3"
       gradientUnits="userSpaceOnUse"
       gradientTransform="matrix(-1.3864709e-7,5.7151119,-6.9396922,-1.7155228e-7,89.555224,-52.459993)" />
    <linearGradient
       id="linearGradient2867-449-88-871-390-598-476-591-434-148-57-177-8-3">
      <stop
         offset="0"
         style="stop-color:#90dbec;stop-opacity:1"
         id="stop3750-1-0" />
      <stop
         offset="0.26238"
         style="stop-color:#55c1ec;stop-opacity:1"
         id="stop3752-3-7" />
      <stop
         offset="0.704952"
         style="stop-color:#3689e6;stop-opacity:1"
         id="stop3754-1-8" />
      <stop
         offset="1"
         style="stop-color:#2b63a0;stop-opacity:1"
         id="stop3756-1-6" />
    </linearGradient>
    <radialGradient
       xlink:href="#linearGradient4530-1"
       id="radialGradient4528-6"
       gradientUnits="userSpaceOnUse"
       gradientTransform="matrix(0,4.2229722,-5.1278312,0,71.514325,-44.790352)"
       cx="5.1400304"
       cy="9.9571075"
       fx="4.6097999"
       fy="9.9571075"
       r="12.671875" />
    <linearGradient
       id="linearGradient4530-1">
      <stop
         id="stop4532-9"
         style="stop-color:#fff3cb;stop-opacity:1"
         offset="0" />
      <stop
         id="stop4534-6"
         style="stop-color:#ffed8d;stop-opacity:1"
         offset="0.26238" />
      <stop
         id="stop4536-5"
         style="stop-color:#ffde2f;stop-opacity:1"
         offset="0.66093999" />
      <stop
         id="stop4538-4"
         style="stop-color:#fbc02d;stop-opacity:1"
         offset="1" />
    </linearGradient>
  </defs>
  <metadata
     id="metadata3833">
    <rdf:RDF>
      <cc:Work
         rdf:about="">
        <dc:format>image/svg+xml</dc:format>
        <dc:type
           rdf:resource="http://purl.org/dc/dcmitype/StillImage" />
        <dc:title></dc:title>
      </cc:Work>
    </rdf:RDF>
  </metadata>
  <path
     inkscape:connector-curvature="0"
     id="path2997"
     d="m 10.473775,0.44991406 c 0.224116,0.0374912 0.416375,0.15526557 0.627736,0.22545 0.446591,0.28701551 0.805471,0.72772584 0.897389,1.25842524 0.279569,0.8978886 1.10153,1.4881347 1.388544,2.3784757 0.23635,0.5709662 0.659475,1.0208192 1.054624,1.4793043 0.272344,0.3400124 0.242512,0.7960408 0.362507,1.1935829 0.119932,0.1082422 0.20506,0.3562779 -0.01919,0.3831304 0.006,0.2021352 0.144578,0.4271239 -0.0013,0.6203655 -0.11347,0.4222024 -0.314106,0.8264695 -0.512802,1.2171733 -0.03948,0.142298 -0.28278,0.3074556 -0.319759,0.078103 -0.02952,-0.3272953 -0.171171,-0.7163424 0.05891,-1.004965 0.147456,-0.3701016 0.02616,-0.7608195 -0.04272,-1.1302245 0.03338,-0.2279038 -0.04795,-0.4879891 -0.170934,-0.6690011 -0.126922,0.068378 -0.0837,0.2977655 -0.134048,0.4208702 -0.121198,0.8855198 -0.157932,1.8062392 0.06625,2.6795026 0.08345,0.3421182 -0.05368,0.7042114 0.02652,1.0403374 0.287999,0.312923 0.06489,0.762202 0.03973,1.125806 -0.139959,0.674631 -0.0634,1.375341 0.138509,2.020255 0.0051,0.231602 0.08544,0.443014 0.134106,0.66458 -0.0807,0.278668 -0.463765,0.376628 -0.719106,0.310914 -0.158979,-0.107244 -0.462047,0.09715 -0.53785,-0.157667 -0.02304,-0.276668 0.247346,-0.483607 0.225462,-0.764781 0.168481,-0.771306 0.295099,-1.574799 0.131442,-2.361414 -0.08442,-0.456928 -0.05142,-0.945553 -0.180051,-1.385854 C 12.703755,9.7157157 12.509204,9.2939232 12.388042,8.8521646 12.219189,8.4850153 12.114664,8.0390224 12.012284,7.6895317 11.57146,8.398127 11.306541,9.2472038 11.4218,10.092794 c -0.01495,0.329811 0.191398,0.716168 -0.0857,0.976592 -0.336025,0.525607 -0.760072,1.02127 -0.929961,1.627309 -0.01338,0.253376 0.32803,0.257425 0.418492,0.462696 0.200652,0.291686 0.17939,0.663308 0.201885,1.000556 -0.189393,0.07347 -0.467466,0.269278 -0.627738,0.03387 -0.156497,-0.165052 -0.223232,-0.453763 -0.386069,-0.58058 -0.1003916,0.190039 -0.0061,0.497916 -0.2652449,0.590894 -0.3708379,0.132992 -0.7985955,0.16995 -1.1832725,0.0781 -0.1976003,-0.171355 0.072624,-0.413021 0.2401847,-0.478897 0.277998,-0.08233 0.4411853,-0.299047 0.5363768,-0.561424 0.087425,-0.144946 0.1498577,-0.314374 -0.020675,-0.425872 C 8.9189348,12.329447 8.3670871,12.007297 7.9422942,11.551726 7.6859438,11.195609 7.7535119,10.699611 7.8508688,10.297721 7.97093,10.063277 8.0578469,9.8172519 7.9923346,9.5506264 7.9477521,9.3211273 8.1050558,9.0840452 8.0954553,8.8801556 c -0.2248498,-0.014563 -0.487629,-0.00633 -0.6881434,0.069264 -0.054428,0.3628046 0.026284,0.7496728 -0.078103,1.1007437 -0.1702116,0.16254 -0.2508326,0.419303 -0.2622921,0.652787 -0.1589388,0.195595 -0.058551,0.483281 -0.1016347,0.722047 0.1017574,0.388998 -0.04298,0.772765 -0.162103,1.142019 C 6.585153,13.269609 6.6773302,14.02692 6.4907922,14.731677 6.3490797,14.931818 6.5868202,15.265863 6.3095465,15.397725 5.8807286,15.557937 5.306276,15.603822 4.9406322,15.281269 4.8291563,15.058556 5.1581096,14.930581 5.3163903,14.859822 5.5388118,14.811489 5.7075915,14.656034 5.7548333,14.42595 6.0932507,13.727718 6.2584422,12.944579 6.1401941,12.166434 6.1229935,11.791458 6.0715643,11.420728 5.9750609,11.063916 5.929716,10.699192 5.9239987,10.324193 5.8173922,9.977904 5.7547459,9.4899019 5.8611044,8.9757679 5.7246008,8.5013891 5.5038841,8.6416095 5.2670885,8.7834359 5.0054926,8.8034758 4.8354814,8.9324355 4.6527531,8.8037989 4.5604845,8.6487466 4.4240794,8.461372 4.2601058,8.9618402 4.1353805,8.7080368 3.9806391,8.5325772 3.7810214,8.4073672 3.605616,8.269998 3.5062449,8.1079829 3.3021376,8.112929 3.1591403,8.0386452 3.0598794,7.9089191 3.223153,7.7037282 3.0398152,7.6039487 2.9772945,7.4377862 2.8178149,7.656877 2.7451029,7.4993349 2.6677605,7.3279658 2.6802117,7.0919401 2.4739669,7.0174726 2.0996172,6.720132 2.2116638,6.177873 2.1446421,5.7577135 2.1484069,5.3387007 2.0659333,4.8946759 2.1684289,4.4908438 2.288493,4.1712209 2.4857514,3.8462795 2.5653525,3.5280767 2.2004688,3.2368635 1.5551566,3.4782581 1.3069267,2.999071 1.1993153,2.6485475 1.5377072,2.3492766 1.7607914,2.1267165 1.977746,1.9222904 2.3199249,2.0196031 2.5851812,1.9191399 c 0.2059073,-0.06987 0.5260535,0.00748 0.5799098,-0.2728042 0.086308,-0.221601 0.3564884,-0.2198201 0.5010188,-0.38754 0.2313769,-0.1191955 0.4412835,0.15311 0.6689867,0.1753549 0.253449,0.1769374 0.5439898,0.3495148 0.7058428,0.6188938 0.069256,0.1756791 0.0099,0.4051018 0.198933,0.5142706 C 5.5561198,2.9309424 5.4233119,3.4703471 5.4535389,3.9126775 5.4497658,4.1147616 5.4547889,4.3193989 5.34007,4.4844158 5.3227518,4.7324101 5.0971831,4.895186 5.1373502,5.1504657 5.1688626,5.3180981 5.0213993,5.6760454 5.2988056,5.5984385 5.3832448,5.4574709 5.3706685,5.2176856 5.4494007,5.0522565 5.6814015,4.3388411 6.0330079,3.5656536 6.7355251,3.2083168 7.2311155,2.8453508 7.5848757,2.3178277 7.7905964,1.7450668 7.9852093,1.4544899 8.3434289,1.2754602 8.4964395,0.96113144 8.6975393,0.87543978 8.9402903,0.90507926 9.1403813,0.7931491 9.3888731,0.68292318 9.6135494,0.48330405 9.911016,0.51855176 c 0.196169,0.0144453 0.377028,-0.0539318 0.562947,-0.0687499 z M 10.111268,8.4528239 C 9.9394136,8.5098807 9.9924473,8.7777036 9.9300214,8.9170011 9.8495716,9.1124705 9.9176143,9.4592708 9.6898373,9.5580025 9.5613386,9.77071 9.6410188,10.058523 9.5115294,10.25499 c 0.029884,0.139435 0.075485,0.399983 -0.1414649,0.403756 -0.1945345,-0.01683 -0.2478188,0.200592 -0.3845887,0.297667 -0.1265483,0.176936 -0.2678707,0.427683 -0.072236,0.614471 0.1897036,0.230161 0.3195598,0.591494 0.6689999,0.601221 0.1439811,0.01544 0.3428512,0.239701 0.4081786,0.0088 0.2490017,-0.42016 0.4608147,-0.867349 0.4126017,-1.367457 -0.0037,-0.785308 -0.182667,-1.5569406 -0.272619,-2.3311856 0.0037,-0.021672 -0.0037,-0.030884 -0.01917,-0.029521 z"
     style="fill:#53536c;fill-opacity:1;stroke:none;stroke-width:0.0459173" />
</svg>
