<?xml version="1.0" encoding="UTF-8"?>
<!-- Created with Inkscape (http://www.inkscape.org/) -->
<svg id="svg11300" width="48" height="48" version="1.0" xmlns="http://www.w3.org/2000/svg" xmlns:xlink="http://www.w3.org/1999/xlink">
 <defs id="defs3">
  <linearGradient id="linearGradient6828">
   <stop id="stop6830" style="stop-color:#6e6e6e" offset="0"/>
   <stop id="stop6832" style="stop-color:#1e1e1e" offset="1"/>
  </linearGradient>
  <linearGradient id="linearGradient2366">
   <stop id="stop2368" style="stop-color:#2e3436" offset="0"/>
   <stop id="stop2370" style="stop-color:#555753" offset="1"/>
  </linearGradient>
  <linearGradient id="linearGradient8589">
   <stop id="stop8591" style="stop-color:#fefefe" offset="0"/>
   <stop id="stop8593" style="stop-color:#bebebe" offset="1"/>
  </linearGradient>
  <linearGradient id="linearGradient3104">
   <stop id="stop3106" style="stop-color:#969696" offset="0"/>
   <stop id="stop3108" style="stop-color:#bebebe" offset="1"/>
  </linearGradient>
  <linearGradient id="linearGradient5538" x1="24.875" x2="24.875" y1="41" y2="38" gradientTransform="translate(0,2)" gradientUnits="userSpaceOnUse" xlink:href="#linearGradient6828"/>
  <linearGradient id="linearGradient5541" x1="21.062" x2="21.062" y1="38" y2="43.38" gradientTransform="translate(0,2)" gradientUnits="userSpaceOnUse" xlink:href="#linearGradient8589"/>
  <radialGradient id="radialGradient5544" cx="40.092" cy="31.497" r=".38913" gradientTransform="matrix(.95852 -.09967 .11357 1.0922 -.88142 3.7206)" gradientUnits="userSpaceOnUse">
   <stop id="stop6395" style="stop-color:#f7fc66" offset="0"/>
   <stop id="stop6397" style="stop-color:#6efb27" offset="1"/>
  </radialGradient>
  <linearGradient id="linearGradient5547" x1="39.948" x2="39.931" y1="28.417" y2="31.987" gradientTransform="matrix(.56262 0 0 .64302 18.433 14.727)" gradientUnits="userSpaceOnUse" xlink:href="#linearGradient3104"/>
  <radialGradient id="radialGradient5550" cx="11.537" cy="15.28" r="13" gradientTransform="matrix(1 0 0 .38462 0 18.615)" gradientUnits="userSpaceOnUse">
   <stop id="stop2465" style="stop-color:#fff" offset="0"/>
   <stop id="stop2467" style="stop-color:#fff;stop-opacity:0" offset="1"/>
  </radialGradient>
  <linearGradient id="linearGradient5553" x1="7.517" x2="7.4545" y1="31.156" y2="40.875" gradientTransform="matrix(.97059 0 0 .8 .70588 10.1)" gradientUnits="userSpaceOnUse" xlink:href="#linearGradient6828"/>
  <linearGradient id="linearGradient5555" x1="9.5625" x2="9.5" y1="41.375" y2="33.5" gradientTransform="translate(.5 1.5)" gradientUnits="userSpaceOnUse" xlink:href="#linearGradient2366"/>
  <linearGradient id="linearGradient5558" x1="21.919" x2="22.008" y1="21" y2="33" gradientTransform="translate(-2.5e-7 2)" gradientUnits="userSpaceOnUse" xlink:href="#linearGradient6828"/>
  <linearGradient id="linearGradient5560" x1="15.601" x2="15.335" y1="33" y2="21" gradientTransform="translate(-2.5e-7 2)" gradientUnits="userSpaceOnUse" xlink:href="#linearGradient2366"/>
  <linearGradient id="linearGradient5563" x1="32.892" x2="36.358" y1="8.059" y2="5.4565" gradientTransform="matrix(.78283 0 0 .86392 4.8577 .66277)" gradientUnits="userSpaceOnUse" xlink:href="#linearGradient8589"/>
  <linearGradient id="linearGradient5567" x1="25.132" x2="25.132" y1="6.7287" y2="47.013" gradientTransform="matrix(.71428 0 0 .69987 6.8572 1.4502)" gradientUnits="userSpaceOnUse">
   <stop id="stop3602" style="stop-color:#f4f4f4" offset="0"/>
   <stop id="stop3604" style="stop-color:#dbdbdb" offset="1"/>
  </linearGradient>
  <linearGradient id="linearGradient5569" x1="-51.786" x2="-51.786" y1="50.786" y2="2.9062" gradientTransform="matrix(.57678 0 0 .65497 49.293 .67023)" gradientUnits="userSpaceOnUse" xlink:href="#linearGradient3104"/>
  <radialGradient id="radialGradient5572" cx="3.7591" cy="11.918" r="21" gradientTransform="matrix(.99982 .018764 -.012627 .67282 .15115 16.489)" gradientUnits="userSpaceOnUse">
   <stop id="stop6844" style="stop-color:#fff" offset="0"/>
   <stop id="stop6846" style="stop-color:#fff;stop-opacity:0" offset="1"/>
  </radialGradient>
  <linearGradient id="linearGradient5575" x1="11.519" x2="11.506" y1="20" y2="37" gradientTransform="translate(-2.5e-7 2)" gradientUnits="userSpaceOnUse" xlink:href="#linearGradient8589"/>
  <linearGradient id="linearGradient5577" x1="20.562" x2="20.279" y1="37" y2="20" gradientTransform="translate(0,2)" gradientUnits="userSpaceOnUse">
   <stop id="stop6868" style="stop-color:#828282" offset="0"/>
   <stop id="stop6870" style="stop-color:#aaa" offset="1"/>
  </linearGradient>
  <linearGradient id="linearGradient5580" x1="21.586" x2="21.687" y1="9.5516" y2="18.92" gradientTransform="matrix(.87891 0 0 1.1284 2.9061 .90641)" gradientUnits="userSpaceOnUse" xlink:href="#linearGradient6828"/>
  <linearGradient id="linearGradient5582" x1="7.4375" x2="7.4375" y1="14.105" y2="8.9372" gradientTransform="matrix(.87891 0 0 1.1284 2.9061 .90641)" gradientUnits="userSpaceOnUse" xlink:href="#linearGradient2366"/>
  <radialGradient id="radialGradient5585" cx="24" cy="41.875" r="19.125" gradientTransform="matrix(1.2549 0 0 .33987 -6.1176 27.268)" gradientUnits="userSpaceOnUse">
   <stop id="stop7614" offset="0"/>
   <stop id="stop7616" style="stop-opacity:0" offset="1"/>
  </radialGradient>
  <linearGradient id="linearGradient6317" x1="24" x2="24" y1="21" y2="6" gradientUnits="userSpaceOnUse">
   <stop id="stop6313" style="stop-color:#9b9b9b" offset="0"/>
   <stop id="stop6315" style="stop-color:#9b9b9b;stop-opacity:0" offset="1"/>
  </linearGradient>
 </defs>
 <g id="g6448">
  <path id="path3087" d="m48 41.5c0 3.5899-10.745 6.5-24 6.5-13.255 0-24-2.9102-24-6.5s10.745-6.5 24-6.5c13.255 0 24 2.9102 24 6.5z" style="fill:url(#radialGradient5585);opacity:.5"/>
  <rect id="rect2315" x="9.4979" y="10.498" width="29.004" height="22.004" rx=".56379" ry=".72384" style="fill:url(#linearGradient5580);stroke-linecap:round;stroke-linejoin:round;stroke-width:.99603;stroke:url(#linearGradient5582)"/>
  <path id="rect2313" d="m4.579 22.5h4.921l1 1h27l1-1h4.921c1.1517 0 2.079 0.92722 2.079 2.079v13.921h-43v-13.921c0-1.1517 0.92722-2.079 2.079-2.079z" style="fill:url(#linearGradient5575);stroke-linecap:round;stroke-linejoin:round;stroke:url(#linearGradient5577)"/>
  <path id="rect2374" d="m4.5 23.5h39c0.51882 0 1 0.48118 1 1v13h-41v-13c0-0.51882 0.48118-1 1-1z" style="fill:none;opacity:.9;stroke-linecap:round;stroke:url(#radialGradient5572)"/>
  <path id="rect2594" d="m11.5 2.5h17.186c1.005 0.3397 6.4039 4.2098 7.8137 6.8894v15.111h-25v-22z" style="fill:url(#linearGradient5567);stroke-linejoin:round;stroke-width:.99998;stroke:url(#linearGradient5569)"/>
  <path id="path8596" d="m28.173 2.5037c0.46163 3.1312 0.44132 6.8577 0.44132 6.8577s3.5263-0.084635 7.8823 0.45083c-3.546-3.6342-6.0308-5.1496-8.3236-7.3085z" style="fill-opacity:.32663;fill-rule:evenodd;stroke-linejoin:round;stroke-opacity:.16583;stroke-width:1.0075;stroke:#000"/>
  <path id="path12038" d="m28 2c1.1081 3.3466 1.0162 6.7061 1.0162 6.7061s6.1461 0.4443 7.9838 1.2939c0-1.3891-7.2952-7.9763-9-8z" style="fill-rule:evenodd;fill:url(#linearGradient5563)"/>
  <rect id="rect2319" x="10.5" y="23.5" width="27" height="11" style="fill:url(#linearGradient5558);stroke-linecap:round;stroke:url(#linearGradient5560)"/>
  <path id="rect6333" d="m3.5 38.5c0.080089 1.0365-0.20738 2.1519 0.25363 3.1122 0.86482 1.2188 2.4701 0.81806 3.7464 0.88781 0.023032 0.7195-0.21346 1.8302 0.77274 1.9833 10.418 0.03903 20.839 0.0056 31.259 0.01673 1.0752 0.03177 1.0035-1.162 0.96875-1.9196 0.35116-0.18661 1.0479-0.02762 1.5329-0.08044 1.1999 0.16309 2.6671-0.65983 2.4671-2.0281v-1.9719h-41z" style="fill:url(#linearGradient5553);stroke-linecap:square;stroke:url(#linearGradient5555)"/>
  <rect id="rect2459" x="11.5" y="24.5" width="25" height="9" style="fill:none;opacity:.3;stroke-linecap:round;stroke:url(#radialGradient5550)"/>
  <path id="path2726" d="m42.625 34.5c0 0.62148-0.50379 1.1253-1.1252 1.1253-0.62145 0-1.1252-0.50381-1.1252-1.1253 0-0.62148 0.50379-1.1253 1.1252-1.1253 0.62145 0 1.1252 0.50381 1.1252 1.1253z" style="fill:none;stroke-linecap:round;stroke-linejoin:round;stroke-width:.74988;stroke:url(#linearGradient5547)"/>
  <path id="path2764" d="m42.3 34.5c3.88e-4 0.4421-0.3579 0.8007-0.8 0.8007s-0.80039-0.3586-0.8-0.8007c-3.88e-4 -0.4421 0.3579-0.8007 0.8-0.8007s0.80039 0.3586 0.8 0.8007z" style="fill:url(#radialGradient5544)"/>
  <path id="rect6331" d="m40 40v3.5c0 0.277-0.223 0.5-0.5 0.5h-31c-0.277 0-0.5-0.223-0.5-0.5v-3.5h32z" style="fill:url(#linearGradient5541)"/>
  <rect id="rect6329" x="10" y="40" width="28" height="2" style="fill:url(#linearGradient5538)"/>
  <path id="path3288" d="m31 13-7 8-7-8h3v-7h8v7h3z" style="fill:url(#linearGradient6317)"/>
 </g>
</svg>
