<?xml version="1.0" encoding="utf-8"?><!-- Uploaded to: SVG Repo, www.svgrepo.com, Generator: SVG Repo Mixer Tools -->
<svg width="800px" height="800px" viewBox="0 0 128 128" xmlns="http://www.w3.org/2000/svg" xmlns:xlink="http://www.w3.org/1999/xlink" aria-hidden="true" role="img" class="iconify iconify--noto" preserveAspectRatio="xMidYMid meet"><path d="M63.99 16.83c-11.4-.29-20.55 4.65-20.55 4.65S31.82 4.11 15.42 16.41c-16.89 12.67-.99 30.83-.99 30.83S2.91 61.36 3.88 79.34c1.04 19.28 11.26 42.02 61.38 41.18c50.12-.84 58.82-22.74 58.71-41.74c-.11-18.3-8.73-29-8.73-29s15.63-17.03 2.53-30.41s-28.02 4.65-28.02 4.65s-9.29-6.77-25.76-7.19z" fill="#4d4d4d"></path><path d="M63.47 20.51c-9.45 0-21.02 1.95-36.64 17.15S3.74 70.75 8.39 88.21s18.72 29.42 56.73 29s50.64-11.66 54.76-30.97c1.54-7.22.98-19.73-5.35-31.53c-8.3-15.49-26.96-34.2-51.06-34.2z" fill="#ffffff"></path><path d="M53.53 49.87c-7.77-4.74-15.86.28-21.96 8.54c-5.32 7.2-10.72 9.56-11.17 17.08c-.38 6.29 4.32 15.3 14.08 15.3c8.92 0 10.89-8.45 15.02-14.17c4.12-5.73 15.65-19.66 4.03-26.75z" fill="#4d4d4d"></path><path d="M72.49 51.56c-5.06 4.6-4.04 12.2-.28 16.99s6.09 7.46 7.7 10.42c2.11 3.89 9.61 18.31 21.68 8.82c12.29-9.67 3.03-21.47.19-24.4c-1.11-1.14-11.12-11.64-13.05-13.23c-2.49-2.07-9.02-5.17-16.24 1.4z" fill="#4d4d4d"></path><path d="M93.6 67.04c.32 4.99-1.41 9.29-5.82 9.67c-4.29.36-8.16-3.41-8.92-8.35c-.75-4.94 1.6-9.01 6.29-9.2c4.31-.17 8.08 2.06 8.45 7.88z" fill="#040301"></path><path d="M47.05 73.14c-2.36 3.51-7.43 4.3-11.17 1.5c-2.63-1.97-3.22-7.63-.84-11.73c2.51-4.33 7.62-4.94 11.43-2.24c3.02 2.15 3.87 7.59.58 12.47z" fill="#040301"></path><path d="M81.31 63.48c-1.07 2.6-.38 6.01 1.6 5.91c2.53-.12 1.69-2.25 2.53-3.28c.84-1.03 2.35-3.19.75-4.41c-2.01-1.55-4.22.18-4.88 1.78z" fill="#e0e0e0"></path><path d="M37.2 62.91c-1.77 2.8-1.39 5.24-.38 6.1c1.55 1.31 3.43-.52 4.65-2.77c1.22-2.25 2.77-4.18.89-5.58c-1.33-.99-4.04.47-5.16 2.25z" fill="#e0e0e0"></path><path d="M63.67 81.4c-5.63.07-12.29 3.85-12.39 5.73c-.09 1.88 2.82 4.04 4.79 5.54c1.47 1.12 4.69 2.91 4.41 3.85c-.28.94-2.45 1.99-4.79 2.25c-3.1.35-7.17-2.39-8.17-3.1c-1.2-.84-3.94.35-2.67 2.82c1.26 2.45 3.71 4.06 6.34 4.72c2.84.71 4.41.54 4.41.54s2.74 3.9 7.88 4.32c5.82.47 8.63-4.69 8.63-4.69s3.53.55 5.82-.28c3.1-1.13 4.29-3.12 5.07-4.69c.9-1.83-.33-4.42-3.28-2.53c-2.35 1.5-3.47 3.19-8.12 2.98c-2.88-.13-4.08-1.95-4.08-2.7s3.47-2.82 5.54-4.32c2.08-1.52 3.66-3.19 3.75-4.6c.09-1.43-5.73-5.93-13.14-5.84z" fill="#030200"></path><path d="M63.99 99.4s-1.36 1.71-1.92 2.09c-.56.38-2.44 1.43-2.44 1.43s1.44 1.61 3.31 1.83c3.59.42 5.07-1.62 5.07-1.62s-.82-.66-1.76-1.34c-.86-.62-2.26-2.39-2.26-2.39z" fill="#fda4a5"></path></svg>