<?xml version="1.0" encoding="UTF-8" standalone="no"?>
<svg
   xmlns:dc="http://purl.org/dc/elements/1.1/"
   xmlns:cc="http://creativecommons.org/ns#"
   xmlns:rdf="http://www.w3.org/1999/02/22-rdf-syntax-ns#"
   xmlns:svg="http://www.w3.org/2000/svg"
   xmlns="http://www.w3.org/2000/svg"
   xmlns:xlink="http://www.w3.org/1999/xlink"
   xmlns:sodipodi="http://sodipodi.sourceforge.net/DTD/sodipodi-0.dtd"
   xmlns:inkscape="http://www.inkscape.org/namespaces/inkscape"
   version="1.1"
   width="16"
   height="16"
   id="svg2"
   sodipodi:docname="ct_preferences.svg"
   inkscape:version="1.0 (4035a4fb49, 2020-05-01)">
  <g
     id="g110">
    <path
       style="color:#000000;display:inline;overflow:visible;visibility:visible;fill:#ffffff;fill-opacity:1;fill-rule:evenodd;stroke:none;stroke-width:0.756288;marker:none;enable-background:accumulate"
       id="path104"
       d="m 13.985494,13.53805 a 0.99355201,0.99355201 0 0 1 -1.987098,0 0.99355201,0.99355201 0 1 1 1.987098,0 z" />
    <path
       style="color:#000000;display:inline;overflow:visible;visibility:visible;opacity:0.4;fill:#000000;fill-opacity:1;fill-rule:evenodd;stroke:none;stroke-width:0.756288;marker:none;enable-background:accumulate"
       id="path106"
       d="m 13.985494,13.024719 a 0.99355201,0.99355201 0 0 1 -1.987098,0 0.99355201,0.99355201 0 1 1 1.987098,0 z" />
  </g>
  <sodipodi:namedview
     inkscape:snap-global="false"
     inkscape:document-rotation="0"
     pagecolor="#ffffff"
     bordercolor="#666666"
     borderopacity="1"
     objecttolerance="10"
     gridtolerance="10"
     guidetolerance="10"
     inkscape:pageopacity="0"
     inkscape:pageshadow="2"
     inkscape:window-width="1366"
     inkscape:window-height="715"
     id="namedview45"
     showgrid="true"
     inkscape:zoom="32.528134"
     inkscape:cx="8.6178727"
     inkscape:cy="7.9582269"
     inkscape:window-x="-8"
     inkscape:window-y="22"
     inkscape:window-maximized="1"
     inkscape:current-layer="svg2">
    <inkscape:grid
       type="xygrid"
       id="grid55" />
  </sodipodi:namedview>
  <metadata
     id="metadata17">
    <rdf:RDF>
      <cc:Work
         rdf:about="">
        <dc:format>image/svg+xml</dc:format>
        <dc:type
           rdf:resource="http://purl.org/dc/dcmitype/StillImage" />
        <dc:title></dc:title>
      </cc:Work>
    </rdf:RDF>
  </metadata>
  <defs
     id="defs4">
    <linearGradient
       id="linearGradient3195">
      <stop
         id="stop3197"
         style="stop-color:#ffffff;stop-opacity:1"
         offset="0" />
      <stop
         id="stop3199"
         style="stop-color:#ffffff;stop-opacity:0"
         offset="1" />
    </linearGradient>
    <linearGradient
       id="linearGradient3172">
      <stop
         id="stop3174"
         style="stop-color:#6e6e6e;stop-opacity:1"
         offset="0" />
      <stop
         id="stop3176"
         style="stop-color:#808080;stop-opacity:1"
         offset="1" />
    </linearGradient>
    <linearGradient
       id="linearGradient3164">
      <stop
         id="stop3166"
         style="stop-color:#000000;stop-opacity:1"
         offset="0" />
      <stop
         id="stop3168"
         style="stop-color:#000000;stop-opacity:0"
         offset="1" />
    </linearGradient>
    <linearGradient
       x1="10.240438"
       y1="1054.8215"
       x2="10.240438"
       y2="1038.3619"
       id="linearGradient3170"
       xlink:href="#linearGradient3164"
       gradientUnits="userSpaceOnUse"
       gradientTransform="translate(-16,0)" />
    <linearGradient
       x1="8"
       y1="1052.3622"
       x2="8"
       y2="1039.6725"
       id="linearGradient3201"
       xlink:href="#linearGradient3195"
       gradientUnits="userSpaceOnUse" />
    <linearGradient
       x1="8.3127279"
       y1="14.055195"
       x2="8.3127279"
       y2="2.1865864"
       id="linearGradient3827"
       xlink:href="#linearGradient3829"
       gradientUnits="userSpaceOnUse" />
    <linearGradient
       id="linearGradient3829">
      <stop
         id="stop3831"
         style="stop-color:#8b8b8b;stop-opacity:1"
         offset="0" />
      <stop
         id="stop3833"
         style="stop-color:#a9a9a9;stop-opacity:1"
         offset="1" />
    </linearGradient>
    <linearGradient
       x1="72.421684"
       y1="124.75623"
       x2="72.421684"
       y2="51.244411"
       id="linearGradient4426"
       xlink:href="#linearGradient2490-3-9"
       gradientUnits="userSpaceOnUse"
       gradientTransform="matrix(0.10408428,0,0,0.10482496,2.9743343,2.6416488)" />
    <radialGradient
       cx="69.447609"
       cy="51.694645"
       r="31.000002"
       fx="69.447609"
       fy="51.694645"
       id="radialGradient4424"
       xlink:href="#linearGradient3242-7-8"
       gradientUnits="userSpaceOnUse"
       gradientTransform="matrix(0,0.25030935,-0.27259303,0,25.378478,-8.2104642)" />
    <linearGradient
       id="linearGradient2490-3-9">
      <stop
         id="stop2492-3-0"
         style="stop-color:#365f0e;stop-opacity:1"
         offset="0" />
      <stop
         id="stop2494-8-3"
         style="stop-color:#84a718;stop-opacity:1"
         offset="1" />
    </linearGradient>
    <linearGradient
       id="linearGradient3242-7-8">
      <stop
         id="stop3244-5-4"
         style="stop-color:#eef87e;stop-opacity:1"
         offset="0" />
      <stop
         id="stop3246-9-6"
         style="stop-color:#cde34f;stop-opacity:1"
         offset="0.26238" />
      <stop
         id="stop3248-7-9"
         style="stop-color:#93b723;stop-opacity:1"
         offset="0.66093999" />
      <stop
         id="stop3250-8-2"
         style="stop-color:#5a7e0d;stop-opacity:1"
         offset="1" />
    </linearGradient>
    <linearGradient
       id="linearGradient3943-5">
      <stop
         id="stop3945-9"
         style="stop-color:#ffffff;stop-opacity:1"
         offset="0" />
      <stop
         id="stop3947-4"
         style="stop-color:#ffffff;stop-opacity:0"
         offset="1" />
    </linearGradient>
    <linearGradient
       x1="24.138529"
       y1="7.0478544"
       x2="24.138529"
       y2="39.268391"
       id="linearGradient5530-3"
       xlink:href="#linearGradient3943-5"
       gradientUnits="userSpaceOnUse"
       gradientTransform="matrix(0.20131127,0,0,0.1999165,7.5470542,7.1750987)" />
    <linearGradient
       x1="25.000017"
       y1="17.828943"
       x2="25.000017"
       y2="8.1973696"
       id="linearGradient2934"
       xlink:href="#linearGradient2781"
       gradientUnits="userSpaceOnUse"
       gradientTransform="matrix(0.42424193,0,0,0.45901666,-2.972304,-3.7649048)" />
    <linearGradient
       id="linearGradient2781">
      <stop
         id="stop2783"
         style="stop-color:#cdcdcd;stop-opacity:1"
         offset="0" />
      <stop
         id="stop2785"
         style="stop-color:#ffffff;stop-opacity:1"
         offset="1" />
    </linearGradient>
    <linearGradient
       x1="24.138529"
       y1="7.0478544"
       x2="24.138529"
       y2="39.268391"
       id="linearGradient3866"
       xlink:href="#linearGradient3943-5"
       gradientUnits="userSpaceOnUse"
       gradientTransform="matrix(0.20131127,0,0,0.1999165,-17.745318,1057.409)" />
    <radialGradient
       cx="69.447609"
       cy="51.694645"
       r="31.000002"
       fx="69.447609"
       fy="51.694645"
       id="radialGradient3869"
       xlink:href="#linearGradient3242-7-8"
       gradientUnits="userSpaceOnUse"
       gradientTransform="matrix(0,0.25030935,-0.27259303,0,0.086106,1042.0234)" />
    <linearGradient
       x1="72.421684"
       y1="124.75623"
       x2="72.421684"
       y2="51.244411"
       id="linearGradient3871"
       xlink:href="#linearGradient2490-3-9"
       gradientUnits="userSpaceOnUse"
       gradientTransform="matrix(0.10408428,0,0,0.10482496,-22.318038,1052.8755)" />
    <linearGradient
       x1="25.000017"
       y1="17.828943"
       x2="25.000017"
       y2="8.1973696"
       id="linearGradient3882"
       xlink:href="#linearGradient2781"
       gradientUnits="userSpaceOnUse"
       gradientTransform="matrix(0.42424193,0,0,0.45901666,-28.264676,1046.469)" />
    <linearGradient
       xlink:href="#linearGradient27416-1-2"
       id="linearGradient3884"
       gradientUnits="userSpaceOnUse"
       gradientTransform="matrix(0.22397536,0,0,0.25197229,1.6737958,0.5262893)"
       x1="30.271185"
       y1="10.028973"
       x2="30.271185"
       y2="55.052982" />
    <linearGradient
       id="linearGradient27416-1-2">
      <stop
         offset="0"
         style="stop-color:#64baff;stop-opacity:1"
         id="stop27420-2-0" />
      <stop
         offset="1"
         style="stop-color:#3689e6;stop-opacity:1"
         id="stop27422-3-5" />
    </linearGradient>
    <linearGradient
       xlink:href="#linearGradient4215-8-4-07-7"
       id="linearGradient3869"
       gradientUnits="userSpaceOnUse"
       gradientTransform="matrix(-0.07026678,0,0,0.07026678,13.105296,6.200333)"
       x1="38.976662"
       y1="59.967686"
       x2="38.976662"
       y2="8.0928917" />
    <linearGradient
       id="linearGradient4215-8-4-07-7">
      <stop
         style="stop-color:#e9e9e9;stop-opacity:1;"
         offset="0"
         id="stop4217-1-2-1-2" />
      <stop
         style="stop-color:#ffffff;stop-opacity:1;"
         offset="1"
         id="stop4219-3-4-0-96" />
    </linearGradient>
    <linearGradient
       xlink:href="#linearGradient4011-2-96"
       id="linearGradient3866-4"
       gradientUnits="userSpaceOnUse"
       gradientTransform="matrix(-0.07264064,0,0,0.07264064,16.06753,6.7474372)"
       x1="71.204407"
       y1="6.2375584"
       x2="71.204407"
       y2="44.340794" />
    <linearGradient
       id="linearGradient4011-2-96">
      <stop
         offset="0"
         style="stop-color:#ffffff;stop-opacity:1"
         id="stop4013-5-8" />
      <stop
         offset="0.507761"
         style="stop-color:#ffffff;stop-opacity:0.23529412"
         id="stop4015-3-48" />
      <stop
         offset="0.83456558"
         style="stop-color:#ffffff;stop-opacity:0.15686275"
         id="stop4017-7-1" />
      <stop
         offset="1"
         style="stop-color:#ffffff;stop-opacity:0.39215687"
         id="stop4019-6-4" />
    </linearGradient>
    <linearGradient
       gradientTransform="matrix(0.69230769,0,0,0.69230769,13.923076,-17.076924)"
       gradientUnits="userSpaceOnUse"
       y2="-0.070297658"
       x2="14.329722"
       y1="32.022377"
       x1="14.329722"
       id="linearGradient903"
       xlink:href="#linearGradient909" />
    <linearGradient
       id="linearGradient909">
      <stop
         offset="0"
         style="stop-color:#fafafa;stop-opacity:1"
         id="stop905" />
      <stop
         offset="1"
         style="stop-color:#d4d4d4;stop-opacity:1"
         id="stop907" />
    </linearGradient>
    <linearGradient
       inkscape:collect="always"
       xlink:href="#linearGradient909"
       id="linearGradient161"
       x1="0"
       y1="1038.3622"
       x2="7.3476487e-16"
       y2="1050.3622"
       gradientUnits="userSpaceOnUse" />
    <linearGradient
       y2="55.052982"
       x2="30.271185"
       y1="10.028973"
       x1="30.271185"
       gradientTransform="matrix(0.38888771,0,0,0.4374987,-0.4423505,-1.5061265)"
       gradientUnits="userSpaceOnUse"
       id="linearGradient3884-2"
       xlink:href="#linearGradient27416-1-2" />
    <linearGradient
       y2="8.0928917"
       x2="38.976662"
       y1="59.967686"
       x1="38.976662"
       gradientTransform="matrix(-0.12200399,0,0,0.12200399,19.406172,8.3456976)"
       gradientUnits="userSpaceOnUse"
       id="linearGradient3869-6"
       xlink:href="#linearGradient4215-8-4-07-7" />
    <linearGradient
       y2="44.340794"
       x2="71.204407"
       y1="6.2375584"
       x1="71.204407"
       gradientTransform="matrix(-0.12612572,0,0,0.12612572,24.549488,9.2956328)"
       gradientUnits="userSpaceOnUse"
       id="linearGradient3866-2"
       xlink:href="#linearGradient4011-2-96" />
  </defs>
  <g
     transform="matrix(1.146154,0,0,1.1447032,8.0512546,-1187.4673)"
     id="layer1">
    <rect
       width="13"
       height="13.000017"
       rx="2"
       ry="2"
       x="-6.5"
       y="1037.8622"
       id="rect7169"
       style="fill:url(#linearGradient161);fill-opacity:1;stroke:#8c8c8c;stroke-width:1;stroke-miterlimit:4;stroke-dasharray:none;stroke-opacity:1" />
  </g>
  <path
     d="m 3.0007281,14.957074 c -0.727307,0 -1.3370805,-0.418602 -1.5603856,-1 H 14.61087 c -0.223305,0.581398 -0.830896,1 -1.558203,1 z"
     style="opacity:0.5;fill:#f9f9f9;stroke-width:1.9899;stroke-linecap:round;stop-color:#000000"
     id="path135" />
  <path
     d="m 3.9854942,13.53805 a 0.99355201,0.99355201 0 0 1 -1.987098,0 0.99355201,0.99355201 0 1 1 1.987098,0 z"
     id="path66"
     style="color:#000000;display:inline;overflow:visible;visibility:visible;fill:#ffffff;fill-opacity:1;fill-rule:evenodd;stroke:none;stroke-width:0.756288;marker:none;enable-background:accumulate" />
  <path
     d="m 3.9854942,13.024719 a 0.99355201,0.99355201 0 0 1 -1.987098,0 0.99355201,0.99355201 0 1 1 1.987098,0 z"
     id="path68"
     style="color:#000000;display:inline;overflow:visible;visibility:visible;opacity:0.4;fill:#000000;fill-opacity:1;fill-rule:evenodd;stroke:none;stroke-width:0.756288;marker:none;enable-background:accumulate" />
  <path
     id="rect116"
     style="fill:#ffffff;stroke-width:2.00149;stroke-linecap:round;stop-color:#000000"
     d="m 2.9267114,1.1084646 c -0.7357953,0 -1.3526854,0.4186016 -1.5785967,1 H 14.672355 c -0.225911,-0.5813984 -0.840592,-1 -1.576389,-1 z" />
  <path
     id="path137"
     style="opacity:0.5;fill:#f9f9f9;stroke-width:1.99917;stroke-linecap:round;stop-color:#000000"
     d="m 14.952239,13.050065 c 0,0.734099 -0.418602,1.349566 -1,1.574956 V 1.3315281 c 0.581398,0.2253897 1,0.8386534 1,1.5727518 z" />
  <path
     d="m 1.105325,13.090564 c 0,0.686563 0.418602,1.262176 1,1.472972 V 2.1308362 c -0.581398,0.210795 -1,0.7843481 -1,1.4709114 z"
     style="opacity:0.5;fill:#f9f9f9;stroke-width:1.93337;stroke-linecap:round;stop-color:#000000"
     id="path139" />
  <g
     transform="matrix(1.4842141,0,0,1.4868773,-3.8815367,-3.9346967)"
     id="g98">
    <g
       transform="matrix(0.57328853,0,0,0.57328853,1.1089423,0.86038069)"
       id="g87">
      <path
         d="m 8.5452698,8.9938381 c -1.9150596,0 -3.4567864,1.5417259 -3.4567864,3.4567849 0,1.91506 1.5417268,3.456788 3.4567864,3.456788 h 6.9135732 c 1.915061,0 3.456787,-1.541728 3.456787,-3.456788 0,-1.915059 -1.541726,-3.4567849 -3.456787,-3.4567849 z"
         id="rect13708-6"
         style="color:#000000;display:inline;overflow:visible;visibility:visible;opacity:0.2;fill:#ffffff;fill-opacity:1;stroke:none;stroke-width:1.55555;marker:none;enable-background:accumulate" />
      <path
         d="m 8.5020659,8.9938427 c -1.9389936,0 -3.4999886,1.5609953 -3.4999886,3.4999893 0,1.938993 1.560995,3.49999 3.4999886,3.49999 h 6.9999801 c 1.938994,0 3.499988,-1.560996 3.499988,-3.49999 0,-1.938994 -1.560994,-3.4999893 -3.499988,-3.4999893 z"
         id="rect13708"
         style="color:#000000;display:inline;overflow:visible;visibility:visible;fill:url(#linearGradient3884-2);fill-opacity:1;stroke:none;stroke-width:1.55555;marker:none;enable-background:accumulate" />
      <path
         id="path5598"
         d="m 8.5019531,8.9929463 c -1.9389936,0 -3.5,1.5610047 -3.5,3.4999987 0,0.171373 0.025258,0.33535 0.048828,0.5 0.2431172,-1.698286 1.6835509,-2.9999987 3.451172,-2.9999987 h 6.9999999 c 1.767622,0 3.208055,1.3017127 3.451172,2.9999987 0.02357,-0.16465 0.04883,-0.328627 0.04883,-0.5 0,-1.938994 -1.561006,-3.4999987 -3.5,-3.4999987 H 8.5019551 Z"
         style="color:#000000;display:inline;overflow:visible;visibility:visible;opacity:0.3;fill:#002e99;fill-opacity:1;stroke:none;stroke-width:1.55555;marker:none;enable-background:accumulate" />
      <path
         style="color:#000000;display:inline;overflow:visible;visibility:visible;opacity:0.3;fill:#000000;fill-opacity:1;fill-rule:nonzero;stroke:none;stroke-width:1.55555;marker:none;enable-background:accumulate"
         id="path2555-7-1-9-4-9"
         d="m 15.502045,9.9699662 c 1.931172,0 3.499989,1.5688108 3.499989,3.4999868 0,1.931173 -1.568817,3.499988 -3.499989,3.499988 -1.931177,0 -3.499993,-1.568815 -3.49999,-3.499988 0,-1.931176 1.568813,-3.4999868 3.49999,-3.4999868 z" />
      <path
         style="color:#000000;display:inline;overflow:visible;visibility:visible;opacity:0.3;fill:none;stroke:#000000;stroke-width:0.777775;stroke-linecap:round;stroke-linejoin:round;stroke-miterlimit:4;stroke-dasharray:none;stroke-dashoffset:0;stroke-opacity:1;marker:none;enable-background:accumulate"
         id="path2555-7-1-9-9-41"
         d="m 15.502046,9.382732 c 1.716599,0 3.111101,1.394502 3.111101,3.111101 0,1.7166 -1.394502,3.111101 -3.111101,3.111101 -1.716601,0 -3.111106,-1.394501 -3.111103,-3.111101 0,-1.716599 1.394502,-3.111101 3.111103,-3.111101 z" />
      <path
         style="color:#000000;display:inline;overflow:visible;visibility:visible;fill:url(#linearGradient3869-6);fill-opacity:1;fill-rule:nonzero;stroke:none;stroke-width:0.777775;marker:none;enable-background:accumulate"
         id="path2555-7-1-9-4"
         d="m 15.502045,9.3827312 c 1.716597,0 3.111102,1.3945028 3.111102,3.1111008 0,1.716601 -1.394505,3.111103 -3.111102,3.111103 -1.7166,0 -3.111105,-1.394502 -3.111102,-3.111103 0,-1.716598 1.394502,-3.1111008 3.111102,-3.1111008 z" />
      <path
         style="color:#000000;display:inline;overflow:visible;visibility:visible;fill:none;stroke:url(#linearGradient3866-2);stroke-width:0.777775;stroke-linecap:round;stroke-linejoin:round;stroke-miterlimit:4;stroke-dasharray:none;stroke-dashoffset:0;stroke-opacity:1;marker:none;enable-background:accumulate"
         id="path8655-6-0-5-2"
         d="m 13.168718,12.493749 c 0,1.288704 1.044745,2.33341 2.333299,2.33341 1.28867,0 2.333354,-1.044719 2.333354,-2.33341 0,-1.288641 -1.044684,-2.333242 -2.333354,-2.333242 -1.288554,0 -2.333299,1.044601 -2.333299,2.333242 z" />
    </g>
    <circle
       r="1.6288397"
       cy="8.0376987"
       cx="10.070365"
       id="path202"
       style="opacity:1;fill:none;stroke:#265078;stroke-width:0.713215;stroke-linecap:round;stroke-opacity:1;stop-color:#000000" />
  </g>
  <path
     style="color:#000000;display:inline;overflow:visible;visibility:visible;fill:#ffffff;fill-opacity:1;fill-rule:evenodd;stroke:none;stroke-width:0.756288;marker:none;enable-background:accumulate"
     id="path100"
     d="m 13.985494,13.53805 a 0.99355201,0.99355201 0 0 1 -1.987098,0 0.99355201,0.99355201 0 1 1 1.987098,0 z" />
  <path
     style="color:#000000;display:inline;overflow:visible;visibility:visible;opacity:0.4;fill:#000000;fill-opacity:1;fill-rule:evenodd;stroke:none;stroke-width:0.756288;marker:none;enable-background:accumulate"
     id="path102"
     d="m 13.985494,13.024719 a 0.99355201,0.99355201 0 0 1 -1.987098,0 0.99355201,0.99355201 0 1 1 1.987098,0 z" />
  <path
     d="m 13.985494,3.53805 a 0.99355201,0.99355201 0 0 1 -1.987098,0 0.99355201,0.99355201 0 1 1 1.987098,0 z"
     id="path112"
     style="color:#000000;display:inline;overflow:visible;visibility:visible;fill:#ffffff;fill-opacity:1;fill-rule:evenodd;stroke:none;stroke-width:0.756288;marker:none;enable-background:accumulate" />
  <path
     d="m 13.985494,3.024719 a 0.99355201,0.99355201 0 0 1 -1.987098,0 0.99355201,0.99355201 0 1 1 1.987098,0 z"
     id="path114"
     style="color:#000000;display:inline;overflow:visible;visibility:visible;opacity:0.4;fill:#000000;fill-opacity:1;fill-rule:evenodd;stroke:none;stroke-width:0.756288;marker:none;enable-background:accumulate" />
  <path
     style="color:#000000;display:inline;overflow:visible;visibility:visible;fill:#ffffff;fill-opacity:1;fill-rule:evenodd;stroke:none;stroke-width:0.756288;marker:none;enable-background:accumulate"
     id="path116"
     d="m 3.985494,3.53805 a 0.99355201,0.99355201 0 0 1 -1.987098,0 0.99355201,0.99355201 0 1 1 1.987098,0 z" />
  <path
     style="color:#000000;display:inline;overflow:visible;visibility:visible;opacity:0.4;fill:#000000;fill-opacity:1;fill-rule:evenodd;stroke:none;stroke-width:0.756288;marker:none;enable-background:accumulate"
     id="path118"
     d="m 3.985494,3.024719 a 0.99355201,0.99355201 0 0 1 -1.987098,0 0.99355201,0.99355201 0 1 1 1.987098,0 z" />
</svg>
