<?xml version="1.0" encoding="utf-8"?><!-- Uploaded to: SVG Repo, www.svgrepo.com, Generator: SVG Repo Mixer Tools -->
<svg width="800px" height="800px" viewBox="0 0 128 128" xmlns="http://www.w3.org/2000/svg" xmlns:xlink="http://www.w3.org/1999/xlink" aria-hidden="true" role="img" class="iconify iconify--noto" preserveAspectRatio="xMidYMid meet"><path d="M52.83 29.41s6.95-3.71 10.04-9.24S67 8.76 62.26 6.32c-5.67-2.92-11.83 4.22-11.83 4.22s.56-4.46-3.57-4.93c-9.21-1.05-10.61 9.71-10.61 9.71s-2.34-1.96-5.26-.94c-3.47 1.22-4.01 5.81-3.85 8.07c.23 3.24 2.21 7.41 2.21 7.41l23.48-.45z" fill="#a42e1a"></path><path d="M66.67 95.11l-24-5.21s.92 8.59.28 9.57c-1.24 1.93-8.09 1.9-12.04 2.82c-3.71.86-8.73 6.21-5.14 10.63c3.38 4.15 6.97-3.45 8.87-3.31c1.9.14 2.3 3.97 4.43 3.87c3.1-.14 1.27-4.43 2.75-5.98c1.48-1.55 7.04-1.27 8.17-3.1s.7-7.95.7-7.95l7.18 2.53s4.08 4.86 3.8 8.87s-2.39 6.57-3.8 6.9c-4.93 1.13-11.4 2.53-10.98 5.49c.43 3.01 6.04 1.55 14.29 1.55c8.02 0 12.18.99 12.81-2.39s-5.42-3.45-5.49-4.65c-.07-1.2 1.9-6.62 1.55-9.08c-.35-2.47-3.38-10.56-3.38-10.56z" fill="#ffb70c"></path><radialGradient id="IconifyId17ecdb2904d178eab19929" cx="20.103" cy="100.174" r="95.94" gradientUnits="userSpaceOnUse"><stop offset=".468" stop-color="#8d5e50"></stop><stop offset=".675" stop-color="#5a7439"></stop><stop offset=".821" stop-color="#34642e"></stop><stop offset="1" stop-color="#315427"></stop></radialGradient><path d="M55.22 50.71l-25.58 2.44s-5.98 4.79-6.99 13.98c-.59 5.38 1.52 13.59 8.45 20.27c5.8 5.58 13.61 15.67 29.09 14.08s25.85-14.67 29.28-21.73c3.28-6.76 4.6-14.5 5.44-14.59c.84-.09 8.69 11.29 11.36 10.7c1.69-.38 1.64-5.64 1.22-8.73c-.66-4.79-2.44-7.79-2.44-7.79s7.79 5.73 8.92 4.08c.85-1.23.19-7.27-.99-11.83c-1.29-5-3.33-8.12-3.33-8.12s8.26 8.21 8.96 5.87c.33-1.1.61-17.03-13.28-21.26s-23.89 8.59-26.28 14.64c-2.57 6.51-4.65 17.03-4.65 17.03l-19.18-9.04z" fill="url(#IconifyId17ecdb2904d178eab19929)"></path><path d="M41.89 22.84c-6.84.32-12.39 6.85-12.39 6.85s-6.03.38-7.98 1.03c-2.86.96-4.88 3.2-5.07 4.32c-.47 2.77 10.32 3.94 10.32 3.94l.84 15.96s6.66 5.82 7.41 5.91c.75.09 5.82-6.19 6.48-6.29s7.79 7.32 7.79 7.32l18.7-6.05s-2.6-4.79-4.5-8.09c-1.88-3.28-2.96-13.8-8.66-19.78c-3.74-3.95-8.9-5.31-12.94-5.12z" fill="#ffb903"></path><path d="M31.85 36.07s-4.55.03-7.13-.09c-1.97-.09-8.26-.94-8.26-.94s-.23.66.38.94c.61.28 6.19 1.69 8.12 1.83c1.92.14 7.7.38 7.7.38l.47-.94l-1.28-1.18z" fill="#ff732d"></path><path d="M32.22 38.93s-4.79.19-5.54.38s-7.27 3.8-9.71 7.65s-2.91 9.9.47 12.2c2.9 1.97 8.87.94 11.97-4.83c2.61-4.86 4.55-9.53 4.55-9.53s10.79-.19 11.22-9.24c.42-9.06-7.98-9.95-11.03-9.24c-2.42.56-4.88 3.33-4.88 3.33s2.21 3.19 2.44 4.69c.23 1.5.51 4.59.51 4.59z" fill="#ff6157"></path><path d="M39.7 35.64c-.51 2.18-2.27 3.71-3.86 3.34c-1.59-.37-2.48-2.79-1.97-4.97c.51-2.18 2.1-3.35 3.71-3.05c1.93.36 2.63 2.5 2.12 4.68z" fill="#29292a"></path><path d="M59.63 50.34S46.47 56.25 43.58 64.7s-.4 17.75 6.83 22.24c7.81 4.86 18.11 3.81 24.71 1.06c5.56-2.32 7.32-5.42 6.97-7.6c-.42-2.58-1.69-3.45-1.69-3.45s4.15-2.75 4.08-5.84c-.07-3.1-3.8-3.94-3.8-3.94s3.31-2.04 3.03-5.07c-.28-3.03-4.96-5.1-9.64-5.63c-5.64-.64-14.44-6.13-14.44-6.13z" fill="#d27856"></path></svg>