<?xml version="1.0" encoding="UTF-8" standalone="no"?>
<!-- Created with Sodipodi ("http://www.sodipodi.com/") -->

<svg
   xmlns:dc="http://purl.org/dc/elements/1.1/"
   xmlns:cc="http://creativecommons.org/ns#"
   xmlns:rdf="http://www.w3.org/1999/02/22-rdf-syntax-ns#"
   xmlns:svg="http://www.w3.org/2000/svg"
   xmlns="http://www.w3.org/2000/svg"
   xmlns:sodipodi="http://sodipodi.sourceforge.net/DTD/sodipodi-0.dtd"
   xmlns:inkscape="http://www.inkscape.org/namespaces/inkscape"
   id="svg552"
   sodipodi:version="0.32"
   width="640"
   height="480"
   sodipodi:docname="si.svg"
   version="1.1"
   inkscape:version="0.48.1 r9760">
  <sodipodi:namedview
     id="base"
     showgrid="false"
     inkscape:zoom="0.33060318"
     inkscape:cx="111.91665"
     inkscape:cy="248.03149"
     inkscape:window-width="1280"
     inkscape:window-height="746"
     inkscape:window-x="0"
     inkscape:window-y="24"
     inkscape:window-maximized="1"
     inkscape:current-layer="svg552" />
  <metadata
     id="metadata3095">
    <rdf:RDF>
      <cc:Work
         rdf:about="">
        <dc:format>image/svg+xml</dc:format>
        <dc:type
           rdf:resource="http://purl.org/dc/dcmitype/StillImage" />
      </cc:Work>
    </rdf:RDF>
  </metadata>
  <defs
     id="defs554">
    <clipPath
       clipPathUnits="userSpaceOnUse"
       id="clipPath5006">
      <rect
         id="rect5008"
         height="497.33014"
         x="60.223572"
         style="fill:#000000;fill-opacity:0.67000002;stroke:none"
         width="497.33014"
         y="1.6667118e-05" />
    </clipPath>
    <clipPath
       clipPathUnits="userSpaceOnUse"
       id="clipPath9826">
      <rect
         id="rect9828"
         height="512"
         x="-15.066603"
         style="fill:#000000;fill-opacity:0.67000002;stroke:none"
         width="682.66669"
         y="-1.6208771e-05" />
    </clipPath>
  </defs>
  <g
     transform="matrix(0.9375,0,0,0.9375,14.12494,1.5195723e-5)"
     id="flag"
     clip-path="url(#clipPath9826)"
     inkscape:label="#g9739">
    <rect
       style="font-size:12px;fill:#ffffff;fill-opacity:1;fill-rule:evenodd;stroke-width:1pt"
       id="rect555"
       width="1024.0001"
       height="512"
       x="-62"
       y="-1.7158753e-05" />
    <rect
       style="font-size:12px;fill:#de2918;fill-opacity:1;fill-rule:evenodd;stroke-width:1pt"
       id="rect556"
       x="-62"
       height="170.66667"
       width="1024.0001"
       y="341.33331" />
    <rect
       style="font-size:12px;fill:#08399c;fill-opacity:1;fill-rule:evenodd;stroke-width:1pt"
       id="rect563"
       x="-62"
       height="170.66667"
       width="1024.0001"
       y="170.66666" />
    <path
       inkscape:connector-curvature="0"
       style="font-size:12px;fill:#de2918;fill-rule:evenodd;stroke-width:1pt"
       d="m 228.36698,92.975502 c -4.01913,61.651438 -6.32193,95.436448 -15.70948,111.067308 -10.15035,16.78904 -20.02484,29.08123 -59.62956,43.88232 C 113.42202,233.12404 103.54753,220.83185 93.39718,204.04281 84.009635,188.41195 81.706826,154.62694 77.687704,92.975502 l 5.852973,-1.971488 c 11.782706,-3.593254 20.574163,-6.48367 27.077193,-7.766526 9.31319,-1.970973 17.22789,-4.199525 42.25655,-4.72251 25.02865,0.430536 32.98294,2.797659 42.29612,4.768734 6.44907,1.375202 15.61713,4.080824 27.31228,7.743981 l 5.88416,1.947809 z"
       id="path694"
       sodipodi:nodetypes="ccccccccccc" />
    <path
       inkscape:connector-curvature="0"
       style="font-size:12px;fill:#08399c;fill-rule:evenodd;stroke-width:1pt"
       d="m 222.59796,90.955083 c -3.80203,61.518477 -6.98279,89.690367 -11.94342,103.235167 -9.62623,23.19287 -24.86554,35.90869 -57.66498,48.03753 C 120.19132,230.09894 104.952,217.38312 95.325782,194.19025 90.365148,180.64545 87.231169,152.55388 83.538279,90.893296 c 11.534434,-3.602403 20.576561,-6.417533 27.079591,-7.700751 9.31319,-1.971529 17.22789,-4.293184 42.25655,-4.723842 25.02865,0.430658 33.03691,2.752313 42.3501,4.723842 6.50303,1.283218 15.73226,4.098348 27.37344,7.762538 z"
       id="path675"
       sodipodi:nodetypes="ccccccccc" />
    <path
       inkscape:connector-curvature="0"
       style="font-size:12px;fill:#ffcc00;fill-rule:evenodd;stroke-width:1pt"
       d="m 152.96222,109.78881 1.5726,3.7226 6.91033,0.94737 -4.47791,2.69998 4.32952,2.89414 -6.29736,1.05543 -1.91653,3.37326 -2.15506,-3.47389 -5.99505,-0.85074 4.07991,-2.95704 -4.20056,-2.69117 6.63574,-1.01724 1.51437,-3.7027 z"
       id="path651"
       sodipodi:nodetypes="ccccccccccccc" />
    <path
       inkscape:connector-curvature="0"
       style="font-size:12px;fill:#ffffff;fill-rule:evenodd;stroke-width:1pt"
       d="m 208.28336,179.62416 -3.83082,-3.02775 -2.76816,-4.55449 -5.4224,-4.70378 -2.82574,-4.75319 -5.42239,-4.85202 -2.65303,-4.75215 -2.88331,-2.3277 -1.90342,-1.83147 -4.89826,4.29506 -2.66982,4.66465 -3.32708,3.01643 -3.65451,-2.8548 -2.76337,-4.86643 -10.2583,-18.21695 -10.25949,18.21695 -2.76337,4.86643 -3.65451,2.8548 -3.32708,-3.01643 -2.66982,-4.66465 -4.89827,-4.29506 -1.90341,1.83147 -2.88331,2.3277 -2.65303,4.75215 -5.4224,4.85202 -2.82573,4.75319 -5.4224,4.70378 -2.76817,4.55449 -3.821221,3.09879 c 1.983774,16.88581 12.748211,30.11588 18.613171,36.16829 6.54502,6.35509 20.03924,14.85771 36.5403,20.48597 16.54785,-5.50781 30.22917,-14.13088 36.77419,-20.48597 5.86496,-6.05241 16.62939,-19.28248 18.62516,-36.23933 z"
       id="path627"
       sodipodi:nodetypes="ccccccccccccccccccccccccccccccccc" />
    <path
       inkscape:connector-curvature="0"
       style="font-size:12px;fill:#ffcc00;fill-rule:evenodd;stroke-width:1pt"
       d="m 169.4537,83.890483 1.5726,3.722592 6.91033,0.947372 -4.47791,2.69998 4.32952,2.894143 -6.29736,1.05543 -1.91653,3.37326 -2.15506,-3.473886 -5.99505,-0.850747 4.07991,-2.957035 -4.20056,-2.691175 6.63574,-1.017238 1.51437,-3.702696 z"
       id="path654"
       sodipodi:nodetypes="ccccccccccccc" />
    <path
       inkscape:connector-curvature="0"
       style="font-size:12px;fill:#ffcc00;fill-rule:evenodd;stroke-width:1pt"
       d="m 136.4707,83.833624 1.5726,3.722592 6.91033,0.947372 -4.47791,2.69998 4.32952,2.894143 -6.29736,1.05543 -1.91653,3.37326 -2.15506,-3.473886 -5.99505,-0.850747 4.07991,-2.957035 -4.20056,-2.691175 6.63574,-1.017238 1.51437,-3.702696 z"
       id="path655"
       sodipodi:nodetypes="ccccccccccccc" />
    <path
       inkscape:connector-curvature="0"
       style="font-size:12px;fill:#08399c;fill-opacity:1;fill-rule:evenodd;stroke-width:1pt"
       d="m 199.71859,203.02978 -7.46854,0.0226 -6.89163,-0.51269 -8.34768,-4.09431 -9.40914,0.0566 -8.14858,3.98107 -6.42748,0.56828 -6.42747,-0.56828 -8.14859,-3.98107 -9.40913,-0.0566 -8.34769,4.09431 -6.89163,0.51269 -7.56209,-0.10398 -3.65211,-6.18625 0.13553,-0.14207 11.17222,1.84795 6.89163,-0.51269 8.34769,-4.09431 9.40913,0.0566 8.14859,3.98107 6.42747,0.56828 6.42748,-0.56828 8.14858,-3.98107 9.40914,-0.0566 8.34768,4.09431 6.89164,0.51269 10.87357,-1.90663 0.14393,0.2862 -3.64252,6.18213 z"
       id="path664"
       sodipodi:nodetypes="cccccccccccccccccccccccccc" />
    <path
       inkscape:connector-curvature="0"
       style="font-size:12px;fill:#08399c;fill-opacity:1;fill-rule:evenodd;stroke-width:1pt"
       d="m 113.25284,212.5431 7.39297,-0.51269 8.34769,-4.09431 9.40913,0.0566 8.14859,3.98107 6.42747,0.56828 6.42748,-0.56828 8.14858,-3.98107 9.40914,-0.0566 8.34768,4.09431 7.49372,0.51269 4.8347,-5.95976 -0.16311,-0.13487 -5.18012,1.51028 -6.89164,-0.51269 -8.34768,-4.09431 -9.40914,0.0566 -8.14858,3.98106 -6.42748,0.56829 -6.42747,-0.56829 -8.14859,-3.98106 -9.40913,-0.0566 -8.34769,4.09431 -6.89163,0.51269 -5.07698,-1.27967 -0.0612,0.24914 4.54325,5.61488 z"
       id="path665"
       sodipodi:nodetypes="cccccccccccccccccccccccc" />
  </g>
</svg>
