<?xml version="1.0" encoding="UTF-8"?>
<!-- Created with Inkscape (http://www.inkscape.org/) -->
<svg id="svg2" width="48" height="48" version="1.0" xmlns="http://www.w3.org/2000/svg" xmlns:xlink="http://www.w3.org/1999/xlink">
 <defs id="defs4">
  <linearGradient id="linearGradient7638">
   <stop id="stop7640" style="stop-color:#729fcf" offset="0"/>
   <stop id="stop7642" style="stop-color:#729fcf;stop-opacity:0" offset="1"/>
  </linearGradient>
  <linearGradient id="linearGradient7567">
   <stop id="stop7569" style="stop-color:#fff" offset="0"/>
   <stop id="stop7571" style="stop-color:#fff;stop-opacity:0" offset="1"/>
  </linearGradient>
  <linearGradient id="linearGradient7549">
   <stop id="stop7551" offset="0"/>
   <stop id="stop7553" style="stop-color:#888a85" offset="1"/>
  </linearGradient>
  <radialGradient id="radialGradient6472" cx="12.047" cy="10.047" r="9.5469" gradientUnits="userSpaceOnUse">
   <stop id="stop3736" offset="0"/>
   <stop id="stop3738" style="stop-opacity:0" offset="1"/>
  </radialGradient>
  <radialGradient id="radialGradient6474" cx="9.3747" cy="7.8025" r="10.049" gradientTransform="matrix(1.2008 0 0 1.2008 -1.921 -1.5654)" gradientUnits="userSpaceOnUse">
   <stop id="stop3754" style="stop-color:#fff" offset="0"/>
   <stop id="stop3756" style="stop-color:#fce94f" offset=".8"/>
   <stop id="stop3758" style="stop-color:#edd400" offset="1"/>
  </radialGradient>
  <linearGradient id="linearGradient6476" x1="18.826" x2="19.236" y1="-140.43" y2="-134.39" gradientUnits="userSpaceOnUse">
   <stop id="stop8433" style="stop-color:#fff" offset="0"/>
   <stop id="stop8435" style="stop-color:#fff;stop-opacity:0" offset="1"/>
  </linearGradient>
  <radialGradient id="radialGradient6478" cx="5.3851" cy="3.2659" r="10.108" gradientTransform="matrix(1.2424 0 0 1.2424 -1.2815 -.83942)" gradientUnits="userSpaceOnUse">
   <stop id="stop3714" style="stop-color:#fff" offset="0"/>
   <stop id="stop3716" style="stop-color:#fff;stop-opacity:.5057" offset="1"/>
  </radialGradient>
  <radialGradient id="radialGradient6480" cx="25.35" cy="33.075" r="14.5" gradientTransform="matrix(1.2263 0 0 .42803 -5.6492 17.378)" gradientUnits="userSpaceOnUse">
   <stop id="stop3537" style="stop-color:#fff" offset="0"/>
   <stop id="stop3539" style="stop-color:#fff;stop-opacity:0" offset="1"/>
  </radialGradient>
  <linearGradient id="linearGradient7525" x1="43.781" x2="44.312" y1="14.688" y2="13.375" gradientUnits="userSpaceOnUse">
   <stop id="stop7521" style="stop-color:#2e3436" offset="0"/>
   <stop id="stop7523" style="stop-color:#2e3436;stop-opacity:0" offset="1"/>
  </linearGradient>
  <linearGradient id="linearGradient7555" x1="22" x2="-3.8114" y1="19" y2="17.494" gradientUnits="userSpaceOnUse" xlink:href="#linearGradient7549"/>
  <linearGradient id="linearGradient7563" x1="40.875" x2="19.25" y1="20.125" y2="16" gradientUnits="userSpaceOnUse" xlink:href="#linearGradient7549"/>
  <linearGradient id="linearGradient7573" x1="12.312" x2="12.312" y1="17.102" y2="23.001" gradientUnits="userSpaceOnUse" xlink:href="#linearGradient7567"/>
  <linearGradient id="linearGradient7577" x1="15.936" x2="15.936" y1="17.34" y2="23.019" gradientUnits="userSpaceOnUse" xlink:href="#linearGradient7567"/>
  <radialGradient id="radialGradient7589" cx="10.472" cy="20.834" r="8" gradientTransform="matrix(-1.4271 0 0 .71355 33.226 2.2589)" gradientUnits="userSpaceOnUse" xlink:href="#linearGradient7638"/>
  <radialGradient id="radialGradient7597" cx="11.339" cy="21.949" r="8" gradientTransform="matrix(1.4271 0 0 .71355 -7.226 2.2589)" gradientUnits="userSpaceOnUse" xlink:href="#linearGradient7638"/>
  <linearGradient id="linearGradient7626" x1="4.5497" x2="4.5497" y1="15.219" y2="14.719" gradientTransform="translate(0,-1)" gradientUnits="userSpaceOnUse">
   <stop id="stop7622" style="stop-color:#2e3436" offset="0"/>
   <stop id="stop7624" style="stop-color:#2e3436;stop-opacity:0" offset="1"/>
  </linearGradient>
 </defs>
 <g id="layer1">
  <path id="path6446" transform="matrix(2.4092 0 0 1.2046 -5.0229 23.398)" d="m21.594 10.047a9.5469 9.5469 0 1 1-19.094 0 9.5469 9.5469 0 1 1 19.094 0z" style="fill:url(#radialGradient6472);opacity:.4"/>
  <path id="path7513" d="m42.452 15.5c0.97624 0 2.4394-0.375 1.9515-1.5-0.48788-1.125-3.9031-1.5-3.9031-1.5" style="fill:none;stroke-linecap:round;stroke-linejoin:round;stroke-width:3;stroke:#2e3436"/>
  <path id="path7509" d="m42.5 15.5c1.0005 0 2.5-0.43056 2-1.7222-0.5-1.2917-4-1.7222-4-1.7222" style="fill:none;stroke-linecap:round;stroke-linejoin:round;stroke-width:1px;stroke:#d3d7cf"/>
  <path id="path7527" d="m5.5993 15.5c-1.0005 0-2.5-0.375-2-1.5s4-1.5 4-1.5" style="fill:none;stroke-linecap:round;stroke-linejoin:round;stroke-width:3;stroke:#2e3436"/>
  <path id="path7535" d="m5.5993 15.5c-1.0005 0-2.5-0.375-2-1.5s4-1.5 4-1.5" style="fill:none;stroke-linecap:round;stroke-linejoin:round;stroke-width:1px;stroke:#d3d7cf"/>
  <path id="path6448" transform="matrix(2.1473,0,0,2.1473,-1.8687,1.4268)" d="m21.594 10.047a9.5469 9.5469 0 1 1-19.094 0 9.5469 9.5469 0 1 1 19.094 0z" style="fill:url(#radialGradient6474);stroke-linecap:round;stroke-width:.4657;stroke:#c4a000"/>
  <path id="path6450" transform="matrix(2.2078 -.59159 .4553 1.6992 40.743 258.37)" d="m25.688-135.97a6.125 5.9688 0 1 1-12.25 0 6.125 5.9688 0 1 1 12.25 0z" style="fill-rule:evenodd;fill:url(#linearGradient6476)"/>
  <path id="path6452" transform="matrix(2.0426 0 0 2.0426 -.6064 2.4787)" d="m21.594 10.047a9.5469 9.5469 0 1 1-19.094 0 9.5469 9.5469 0 1 1 19.094 0z" style="fill:none;stroke-linecap:round;stroke-width:.48958;stroke:url(#radialGradient6478)"/>
  <path id="path7599" d="m7.4688 15.5c-1.0896 0-2.9688 0.5-2.9688 2.9688v1.0312c0 3.5 3.791 5 8.5 5 4.709-1e-6 8.5-1.4594 8.5-3.2812v-2.6562c0.5255 8.06e-4 0.96678-0.40597 1-0.9375 0.02443-0.01211 0.0074-0.0093 0.09375-0.03125 0.2945-0.074965 0.87054-0.09375 1.4062-0.09375s1.1117 0.01879 1.4062 0.09375c0.08632 0.02197 0.06932 0.01914 0.09375 0.03125 0.03322 0.53153 0.4745 0.93831 1 0.9375v2.6562c0 1.8219 3.791 3.2812 8.5 3.2812 4.709 0 8.5-1.5 8.5-5v-1.0312c0-2.4688-1.8791-2.9688-2.9688-2.9688-1.5312 0-3.4056 1-6.5312 1h-4.5312c-0.57552 0-1.3778 0.23419-2 0.625-0.080684-0.36543-0.28319-0.70598-0.53125-0.9375-0.33075-0.3087-0.68743-0.44373-1.0312-0.53125-0.68764-0.17504-1.3705-0.15625-1.9062-0.15625s-1.2186-0.01878-1.9062 0.15625c-0.34382 0.08752-0.7005 0.22255-1.0312 0.53125-0.24806 0.23152-0.45057 0.57207-0.53125 0.9375-0.62217-0.39081-1.4245-0.625-2-0.625h-4.5312c-3.1256 0-5-1-6.5312-1z" style="opacity:.15;stroke-dashoffset:.7;stroke-linecap:square;stroke-linejoin:round;stroke:#000"/>
  <path id="path7507" d="m18.531 15.5c1.0912 0 2.9688 0.87755 2.9688 1.9688v2.75c0 1.8219-3.791 3.2812-8.5 3.2812-4.709 0-8.5-1.5-8.5-5v-1.0312c0-2.4688 1.8791-2.9688 2.9688-2.9688 1.5312 0 3.4056 1 6.5312 1h4.5312z" style="fill:url(#linearGradient7555);stroke-dashoffset:.7;stroke-linecap:square;stroke-linejoin:round;stroke:#000"/>
  <path id="path7595" transform="translate(0,-1)" d="m7.4688 16c-0.46849 0-1.1077 0.12094-1.5938 0.46875s-0.875 0.89222-0.875 2v1.0312c0 1.5699 0.79437 2.6217 2.2188 3.375s3.4797 1.125 5.7812 1.125c2.303 0 4.3873-0.37577 5.8438-0.9375 0.7282-0.28087 1.2943-0.60592 1.6562-0.9375s0.5-0.62382 0.5-0.90625v-2.75c0-0.25942-0.28293-0.65773-0.8125-0.96875s-1.2444-0.5-1.6562-0.5h-4.5312c-3.232 0-5.2172-1-6.5312-1z" style="fill:url(#radialGradient7597);opacity:.25"/>
  <path id="path7539" d="m7.4688 15.5c-0.39017 0-0.94945 0.11523-1.3125 0.375s-0.65625 0.6159-0.65625 1.5938v1.0312c0 1.385 0.65931 2.2138 1.9688 2.9062s3.2841 1.0938 5.5312 1.0938c2.2501 0 4.2819-0.37617 5.6562-0.90625 0.68717-0.26504 1.2069-0.57523 1.5-0.84375s0.34375-0.42642 0.34375-0.53125v-2.75c0 0.03428-0.14241-0.26617-0.59375-0.53125s-1.1004-0.4375-1.375-0.4375h-4.5312c-3.3413 0-5.4402-1-6.5312-1z" style="fill:none;opacity:.15;stroke-dashoffset:.7;stroke-linecap:square;stroke-linejoin:round;stroke:url(#linearGradient7573)"/>
  <path id="path7529" d="m5.5993 15.5c-1.0005 0-2.5-0.5-2-2" style="fill:none;stroke-linecap:round;stroke-linejoin:round;stroke-width:3;stroke:url(#linearGradient7626)"/>
  <path id="path7531" d="m5.5993 15.5c-1.0005 0-2.5-0.5-2-2" style="fill:none;stroke-linecap:round;stroke-linejoin:round;stroke-width:1px;stroke:#d3d7cf"/>
  <path id="path6454" d="m10.25 26.75c-0.25 2.25 1.0577 5.0554 13.75 5.0554 12.692 0 13.75-2.7916 13.75-5.0554" style="fill:none;stroke-linecap:round;stroke-width:1.5;stroke:url(#radialGradient6480)"/>
  <path id="path6456" d="m10.5 26.5c0 2.5 1.0385 4 13.5 4 12.461 0 13.5-1.5 13.5-4" style="fill:none;stroke-linecap:round;stroke-width:1px;stroke:#c4a000"/>
  <path id="path6501" d="m29.469 15.5c-1.0912 0-2.9688 0.87755-2.9688 1.9688v2.75c0 1.8219 3.791 3.2812 8.5 3.2812 4.709 0 8.5-1.5 8.5-5v-1.0312c0-2.4688-1.8791-2.9688-2.9688-2.9688-1.5312 0-3.4056 1-6.5312 1h-4.5312z" style="fill:url(#linearGradient7563);stroke-dashoffset:.7;stroke-linecap:square;stroke-linejoin:round;stroke:#000"/>
  <path id="path7581" transform="matrix(-1,0,0,1,48,-1)" d="m7.4688 16c-0.46849 0-1.1077 0.12094-1.5938 0.46875s-0.875 0.89222-0.875 2v1.0312c0 1.5699 0.79437 2.6217 2.2188 3.375s3.4797 1.125 5.7812 1.125c2.303 0 4.3873-0.37577 5.8438-0.9375 0.7282-0.28087 1.2943-0.60592 1.6562-0.9375s0.5-0.62382 0.5-0.90625v-2.75c0-0.25942-0.28293-0.65773-0.8125-0.96875s-1.2444-0.5-1.6562-0.5h-4.5312c-3.232 0-5.2172-1-6.5312-1z" style="fill:url(#radialGradient7589);opacity:.25"/>
  <path id="path7575" transform="matrix(-1,0,0,1,48,0)" d="m7.4688 15.5c-0.39017 0-0.94945 0.11523-1.3125 0.375s-0.65625 0.6159-0.65625 1.5938v1.0312c0 1.385 0.65931 2.2138 1.9688 2.9062s3.2841 1.0938 5.5312 1.0938c2.2501 0 4.2819-0.37617 5.6562-0.90625 0.68717-0.26504 1.2069-0.57523 1.5-0.84375s0.34375-0.42642 0.34375-0.53125v-2.75c0 0.03428-0.14241-0.26617-0.59375-0.53125s-1.1004-0.4375-1.375-0.4375h-4.5312c-3.3413 0-5.4402-1-6.5312-1z" style="fill:none;opacity:.15;stroke-dashoffset:.7;stroke-linecap:square;stroke-linejoin:round;stroke:url(#linearGradient7577)"/>
  <path id="path7487" d="m21.5 16.5c0-1 1.4286-1 2.5-1 1.0714 0 2.5 0 2.5 1" style="fill:none;stroke-linecap:round;stroke-width:3;stroke:#2e3436"/>
  <path id="path7503" d="m21.5 16.5c0-1 1.4286-1 2.5-1 1.0714 0 2.5 0 2.5 1" style="fill:none;stroke-linecap:round;stroke:#d3d7cf"/>
  <path id="path7517" d="m42.5 15.5c1.0005 0 2.5-0.5 2-2" style="fill:none;stroke-linecap:round;stroke-linejoin:round;stroke-width:3;stroke:url(#linearGradient7525)"/>
  <path id="path7515" d="m42.5 15.5c1.0005 0 2.5-0.5 2-2" style="fill:none;stroke-linecap:round;stroke-linejoin:round;stroke-width:1px;stroke:#d3d7cf"/>
  <path id="path7628" transform="matrix(1.5,0,0,1.5,-10.75,-9.5)" d="m22.5 16.5a0.5 0.5 0 1 1-1 0 0.5 0.5 0 1 1 1 0z" style="fill:#fff"/>
  <path id="path7630" transform="matrix(1.5,0,0,1.5,-29.25,-10.5)" d="m22.5 16.5a0.5 0.5 0 1 1-1 0 0.5 0.5 0 1 1 1 0z" style="fill:#fff"/>
  <path id="path7632" transform="matrix(1.5,0,0,1.5,9.75,-9.5)" d="m22.5 16.5a0.5 0.5 0 1 1-1 0 0.5 0.5 0 1 1 1 0z" style="fill:#fff"/>
 </g>
</svg>
