<?xml version="1.0" encoding="UTF-8" standalone="no"?>
<svg
   xmlns:dc="http://purl.org/dc/elements/1.1/"
   xmlns:cc="http://creativecommons.org/ns#"
   xmlns:rdf="http://www.w3.org/1999/02/22-rdf-syntax-ns#"
   xmlns:svg="http://www.w3.org/2000/svg"
   xmlns="http://www.w3.org/2000/svg"
   xmlns:sodipodi="http://sodipodi.sourceforge.net/DTD/sodipodi-0.dtd"
   xmlns:inkscape="http://www.inkscape.org/namespaces/inkscape"
   height="16"
   width="16"
   version="1.1"
   id="svg6"
   sodipodi:docname="ct_sort-desc.svg"
   inkscape:version="1.0 (4035a4fb49, 2020-05-01)">
  <metadata
     id="metadata12">
    <rdf:RDF>
      <cc:Work
         rdf:about="">
        <dc:format>image/svg+xml</dc:format>
        <dc:type
           rdf:resource="http://purl.org/dc/dcmitype/StillImage" />
        <dc:title />
      </cc:Work>
    </rdf:RDF>
  </metadata>
  <defs
     id="defs10" />
  <sodipodi:namedview
     inkscape:document-rotation="0"
     pagecolor="#ffffff"
     bordercolor="#666666"
     borderopacity="1"
     objecttolerance="10"
     gridtolerance="10"
     guidetolerance="10"
     inkscape:pageopacity="0"
     inkscape:pageshadow="2"
     inkscape:window-width="1366"
     inkscape:window-height="715"
     id="namedview8"
     showgrid="false"
     inkscape:zoom="32.528134"
     inkscape:cx="7.0008649"
     inkscape:cy="8"
     inkscape:window-x="-8"
     inkscape:window-y="22"
     inkscape:window-maximized="1"
     inkscape:current-layer="svg6" />
  <g
     id="g858">
    <path
       style="marker:none;fill:none;stroke:#ffffff"
       d="M 1.385,11 A 0.381,0.381 0 0 0 1,11.379 v 1.242 C 1,12.831 1.172,13 1.385,13 h 1.23 C 2.829,13 3,12.83 3,12.621 V 11.38 A 0.381,0.381 0 0 0 2.615,11.001 Z"
       id="path846" />
    <path
       style="marker:none;fill:none;stroke:#ffffff"
       d="M 1.385,7.016 A 0.381,0.381 0 0 0 1,7.395 v 1.242 c 0,0.21 0.172,0.379 0.385,0.379 h 1.23 A 0.381,0.381 0 0 0 3,8.636 V 7.395 A 0.381,0.381 0 0 0 2.615,7.015 Z"
       id="path848" />
    <path
       style="marker:none;fill:none;stroke:#ffffff"
       d="M 7,3 V 7 H 3.938 L 9,13 14.188,7 H 11 V 3 Z"
       id="path850" />
    <path
       style="marker:none;fill:none;stroke:#ffffff"
       d="M 1.385,3 A 0.381,0.381 0 0 0 1,3.379 V 4.621 C 1,4.831 1.172,5 1.385,5 h 1.23 C 2.829,5 3,4.83 3,4.621 V 3.38 A 0.381,0.381 0 0 0 2.615,3.001 Z"
       id="path852" />
  </g>
  <path
     style="marker:none;fill:#0e141f;fill-opacity:1"
     d="M 1.385,11 A 0.381,0.381 0 0 0 1,11.379 v 1.242 C 1,12.831 1.172,13 1.385,13 h 1.23 C 2.829,13 3,12.83 3,12.621 V 11.38 A 0.381,0.381 0 0 0 2.615,11.001 Z"
     id="path844" />
  <path
     style="marker:none;fill:#0e141f;fill-opacity:1"
     d="M 1.385,7.016 A 0.381,0.381 0 0 0 1,7.395 v 1.242 c 0,0.21 0.172,0.379 0.385,0.379 h 1.23 A 0.381,0.381 0 0 0 3,8.636 V 7.395 A 0.381,0.381 0 0 0 2.615,7.015 Z"
     id="path842" />
  <path
     style="marker:none;fill:#0e141f;fill-opacity:1"
     d="M 7,3 V 7 H 3.938 L 9,13 14.188,7 H 11 V 3 Z"
     id="path840" />
  <path
     style="marker:none;fill:#0e141f;fill-opacity:1"
     d="M 1.385,3 A 0.381,0.381 0 0 0 1,3.379 V 4.621 C 1,4.831 1.172,5 1.385,5 h 1.23 C 2.829,5 3,4.83 3,4.621 V 3.38 A 0.381,0.381 0 0 0 2.615,3.001 Z"
     id="path2" />
</svg>
