<?xml version="1.0" encoding="UTF-8" standalone="no"?>
<!-- Uploaded to: SVG Repo, www.svgrepo.com, Generator: SVG Repo Mixer Tools -->
<svg width="800px" height="800px" viewBox="-5 0 48 48" version="1.1" xmlns="http://www.w3.org/2000/svg" xmlns:xlink="http://www.w3.org/1999/xlink">
    
    <title>stackoverflow-color</title>
    <desc>Created with Sketch.</desc>
    <defs>

</defs>
    <g id="Icons" stroke="none" stroke-width="1" fill="none" fill-rule="evenodd">
        <g id="Color-" transform="translate(-807.000000, -952.000000)">
            <g id="stackoverflow" transform="translate(807.000000, 952.000000)">
                <path d="M25.0860128,41.5922927 L5.97459514,41.6011499 L5.97294973,37.5538824 L25.0835447,37.5440929 L25.0860128,41.5922927 L25.0860128,41.5922927 Z M38,18.6708298 L34.7306912,0 L30.7087256,0.692025863 L33.9775643,19.3628557 L38,18.6708298 L38,18.6708298 Z M25.5455518,32.3547147 L6.51569942,30.616026 L6.14101644,34.6470941 L25.1712214,36.3841513 L25.5455518,32.3547147 L25.5455518,32.3547147 Z M26.8009984,27.0731519 L8.34598112,22.1539179 L7.28563299,26.0621508 L25.7419431,30.9819676 L26.8009984,27.0731519 L26.8009984,27.0731519 Z M29.2103463,22.4436411 L12.7494464,12.8164635 L10.6748215,16.3015328 L27.1365441,25.9292931 L29.2103463,22.4436411 L29.2103463,22.4436411 Z M33.2466504,19.6088756 L22.4792159,3.95170309 L19.106599,6.23184556 L29.8745036,21.8883189 L33.2466504,19.6088756 L33.2466504,19.6088756 Z" fill="#FF810F">

</path>
                <polygon id="stackoverflow-icon-path" fill="#BEBCBC" points="28.3315807 28.2784283 28.3315807 44.8243495 3.2648427 44.8243495 3.2648427 28.2784283 0 28.2784283 0 48 31.5799693 48 31.5799693 28.2784283">

</polygon>
            </g>
        </g>
    </g>
</svg>