<?xml version="1.0" encoding="UTF-8" standalone="no"?>
<svg
   xmlns:dc="http://purl.org/dc/elements/1.1/"
   xmlns:cc="http://creativecommons.org/ns#"
   xmlns:rdf="http://www.w3.org/1999/02/22-rdf-syntax-ns#"
   xmlns:svg="http://www.w3.org/2000/svg"
   xmlns="http://www.w3.org/2000/svg"
   xmlns:sodipodi="http://sodipodi.sourceforge.net/DTD/sodipodi-0.dtd"
   xmlns:inkscape="http://www.inkscape.org/namespaces/inkscape"
   inkscape:version="1.0 (4035a4fb49, 2020-05-01)"
   sodipodi:docname="ct_sort-asc.svg"
   id="svg6"
   version="1.1"
   width="16"
   height="16">
  <metadata
     id="metadata12">
    <rdf:RDF>
      <cc:Work
         rdf:about="">
        <dc:format>image/svg+xml</dc:format>
        <dc:type
           rdf:resource="http://purl.org/dc/dcmitype/StillImage" />
        <dc:title />
      </cc:Work>
    </rdf:RDF>
  </metadata>
  <defs
     id="defs10" />
  <sodipodi:namedview
     inkscape:current-layer="svg6"
     inkscape:window-maximized="1"
     inkscape:window-y="22"
     inkscape:window-x="-8"
     inkscape:cy="8"
     inkscape:cx="3.9113295"
     inkscape:zoom="31.24706"
     showgrid="true"
     id="namedview8"
     inkscape:window-height="715"
     inkscape:window-width="1366"
     inkscape:pageshadow="2"
     inkscape:pageopacity="0"
     guidetolerance="10"
     gridtolerance="10"
     objecttolerance="10"
     borderopacity="1"
     bordercolor="#666666"
     pagecolor="#ffffff"
     inkscape:document-rotation="0">
    <inkscape:grid
       id="grid837"
       type="xygrid" />
  </sodipodi:namedview>
  <g
     id="g845">
    <g
       style="fill:none;stroke:#ffffff"
       id="g841"
       transform="translate(-873 -77)">
      <path
         id="path839"
         style="marker:none;fill:none;stroke:#ffffff"
         overflow="visible"
         fill="#666"
         d="M874.385 80a.381.381 0 0 0-.385.379v1.242c0 .21.172.379.385.379h1.23c.214 0 .385-.17.385-.379V80.38a.381.381 0 0 0-.385-.379zm7.615.219L876.938 86H880v4h4v-4h3.188zm-7.615 3.797a.381.381 0 0 0-.385.379v1.242c0 .21.172.379.385.379h1.23a.381.381 0 0 0 .385-.38v-1.241a.381.381 0 0 0-.385-.38zm0 3.984a.381.381 0 0 0-.385.379v1.242c0 .21.172.379.385.379h1.23c.214 0 .385-.17.385-.379V88.38a.381.381 0 0 0-.385-.379z"
         color="#000" />
    </g>
  </g>
  <path
     style="fill:#0e141f;marker:none;fill-opacity:1"
     d="M 1.385,11 A 0.381,0.381 0 0 0 1,11.379 v 1.242 C 1,12.831 1.172,13 1.385,13 h 1.23 C 2.829,13 3,12.83 3,12.621 V 11.38 A 0.381,0.381 0 0 0 2.615,11.001 Z"
     id="path842" />
  <path
     style="fill:#0e141f;marker:none;fill-opacity:1"
     d="M 1.385,7.016 A 0.381,0.381 0 0 0 1,7.395 v 1.242 c 0,0.21 0.172,0.379 0.385,0.379 h 1.23 A 0.381,0.381 0 0 0 3,8.636 V 7.395 A 0.381,0.381 0 0 0 2.615,7.015 Z"
     id="path840" />
  <path
     style="fill:#0e141f;marker:none;fill-opacity:1"
     d="M 9,3.219 3.938,9 H 7 v 4 h 4 V 9 h 3.188 z"
     id="path838" />
  <path
     style="fill:#0e141f;marker:none;fill-opacity:1"
     d="M 1.385,3 A 0.381,0.381 0 0 0 1,3.379 V 4.621 C 1,4.831 1.172,5 1.385,5 h 1.23 C 2.829,5 3,4.83 3,4.621 V 3.38 A 0.381,0.381 0 0 0 2.615,3.001 Z"
     id="path2" />
</svg>
