<?xml version="1.0" encoding="UTF-8" standalone="no"?>
<svg
   xmlns:dc="http://purl.org/dc/elements/1.1/"
   xmlns:cc="http://creativecommons.org/ns#"
   xmlns:rdf="http://www.w3.org/1999/02/22-rdf-syntax-ns#"
   xmlns:svg="http://www.w3.org/2000/svg"
   xmlns="http://www.w3.org/2000/svg"
   xmlns:xlink="http://www.w3.org/1999/xlink"
   xmlns:sodipodi="http://sodipodi.sourceforge.net/DTD/sodipodi-0.dtd"
   xmlns:inkscape="http://www.inkscape.org/namespaces/inkscape"
   width="48"
   height="48"
   id="svg3119"
   version="1.1"
   inkscape:version="1.0.2 (1.0.2+r75+1)"
   sodipodi:docname="ct_skull.svg">
  <defs
     id="defs3121">
    <inkscape:perspective
       sodipodi:type="inkscape:persp3d"
       inkscape:vp_x="0 : 526.18109 : 1"
       inkscape:vp_y="0 : 1000 : 0"
       inkscape:vp_z="744.09448 : 526.18109 : 1"
       inkscape:persp3d-origin="372.04724 : 350.78739 : 1"
       id="perspective3127" />
    <inkscape:perspective
       id="perspective3073"
       inkscape:persp3d-origin="0.5 : 0.33333333 : 1"
       inkscape:vp_z="1 : 0.5 : 1"
       inkscape:vp_y="0 : 1000 : 0"
       inkscape:vp_x="0 : 0.5 : 1"
       sodipodi:type="inkscape:persp3d" />
    <linearGradient
       id="G1-6-5-0">
      <stop
         id="s1-3-2"
         style="stop-color:#59a40f;stop-opacity:1"
         offset="0" />
      <stop
         id="s2-9-9"
         style="stop-color:#306102;stop-opacity:1"
         offset="1" />
    </linearGradient>
    <linearGradient
       id="G4-0">
      <stop
         id="s7-3"
         style="stop-color:#d50f0f;stop-opacity:1"
         offset="0" />
      <stop
         id="s8-9"
         style="stop-color:#860000;stop-opacity:1"
         offset="1" />
    </linearGradient>
    <linearGradient
       id="G2-9">
      <stop
         id="s3-69"
         style="stop-color:#fff;stop-opacity:1"
         offset="0" />
      <stop
         id="s4-33"
         style="stop-color:#fff;stop-opacity:0"
         offset="1" />
    </linearGradient>
    <linearGradient
       id="linearGradient3090">
      <stop
         id="stop3092"
         style="stop-color:#d50f0f;stop-opacity:1"
         offset="0" />
      <stop
         id="stop3094"
         style="stop-color:#860000;stop-opacity:1"
         offset="1" />
    </linearGradient>
    <linearGradient
       id="G5">
      <stop
         id="s9"
         style="stop-color:#000;stop-opacity:1"
         offset="0" />
      <stop
         id="s10"
         style="stop-color:#000;stop-opacity:0"
         offset="1" />
    </linearGradient>
    <radialGradient
       inkscape:collect="always"
       xlink:href="#G5"
       id="radialGradient4122"
       gradientUnits="userSpaceOnUse"
       gradientTransform="matrix(1.0486065,0.04541342,-0.02992369,0.68102682,6.9899093,-6.6725099)"
       cx="15.115514"
       cy="63.965389"
       fx="15.115514"
       fy="63.965389"
       r="12.289036" />
    <linearGradient
       id="linearGradient3101">
      <stop
         id="stop3103"
         style="stop-color:#000;stop-opacity:1"
         offset="0" />
      <stop
         id="stop3105"
         style="stop-color:#000;stop-opacity:0"
         offset="1" />
    </linearGradient>
    <inkscape:perspective
       id="perspective3235"
       inkscape:persp3d-origin="0.5 : 0.33333333 : 1"
       inkscape:vp_z="1 : 0.5 : 1"
       inkscape:vp_y="0 : 1000 : 0"
       inkscape:vp_x="0 : 0.5 : 1"
       sodipodi:type="inkscape:persp3d" />
    <linearGradient
       id="G1-6-5-8">
      <stop
         id="s1-3-5"
         style="stop-color:#59a40f;stop-opacity:1"
         offset="0" />
      <stop
         id="s2-9-8"
         style="stop-color:#306102;stop-opacity:1"
         offset="1" />
    </linearGradient>
    <inkscape:perspective
       id="perspective3306"
       inkscape:persp3d-origin="0.5 : 0.33333333 : 1"
       inkscape:vp_z="1 : 0.5 : 1"
       inkscape:vp_y="0 : 1000 : 0"
       inkscape:vp_x="0 : 0.5 : 1"
       sodipodi:type="inkscape:persp3d" />
    <inkscape:perspective
       id="perspective3464"
       inkscape:persp3d-origin="0.5 : 0.33333333 : 1"
       inkscape:vp_z="1 : 0.5 : 1"
       inkscape:vp_y="0 : 1000 : 0"
       inkscape:vp_x="0 : 0.5 : 1"
       sodipodi:type="inkscape:persp3d" />
    <inkscape:perspective
       id="perspective3486"
       inkscape:persp3d-origin="0.5 : 0.33333333 : 1"
       inkscape:vp_z="1 : 0.5 : 1"
       inkscape:vp_y="0 : 1000 : 0"
       inkscape:vp_x="0 : 0.5 : 1"
       sodipodi:type="inkscape:persp3d" />
    <inkscape:perspective
       id="perspective2941"
       inkscape:persp3d-origin="0.5 : 0.33333333 : 1"
       inkscape:vp_z="1 : 0.5 : 1"
       inkscape:vp_y="0 : 1000 : 0"
       inkscape:vp_x="0 : 0.5 : 1"
       sodipodi:type="inkscape:persp3d" />
    <radialGradient
       cx="33.921108"
       cy="32.026119"
       r="12.011442"
       fx="33.921108"
       fy="32.026119"
       id="R1-3-3"
       xlink:href="#G1-6-0"
       gradientUnits="userSpaceOnUse"
       gradientTransform="matrix(1.097181,-0.06040066,0.05995679,1.0724194,-10.979838,34.702065)" />
    <linearGradient
       id="G1-6-0">
      <stop
         id="s1-8-0"
         style="stop-color:#59a40f;stop-opacity:1"
         offset="0" />
      <stop
         id="s2-4-4"
         style="stop-color:#306102;stop-opacity:1"
         offset="1" />
    </linearGradient>
    <radialGradient
       cx="25.346392"
       cy="30.310101"
       r="12.011442"
       fx="22.505642"
       fy="25.064268"
       id="R2-6-8"
       xlink:href="#G2-6-2"
       gradientUnits="userSpaceOnUse"
       gradientTransform="matrix(0.7893072,0.4930809,-0.2597058,0.4157284,7.0875417,40.768202)" />
    <linearGradient
       id="G2-6-2">
      <stop
         id="s3-7-2"
         style="stop-color:#fff;stop-opacity:1"
         offset="0" />
      <stop
         id="s4-2-0"
         style="stop-color:#fff;stop-opacity:0"
         offset="1" />
    </linearGradient>
    <linearGradient
       x1="42.550949"
       y1="46.025867"
       x2="22.733898"
       y2="23.322678"
       id="G6-7-2"
       xlink:href="#G1-6-0"
       gradientUnits="userSpaceOnUse"
       gradientTransform="translate(-6.1712263,35.360536)" />
    <linearGradient
       id="linearGradient2954">
      <stop
         id="stop2956"
         style="stop-color:#59a40f;stop-opacity:1"
         offset="0" />
      <stop
         id="stop2958"
         style="stop-color:#306102;stop-opacity:1"
         offset="1" />
    </linearGradient>
    <inkscape:perspective
       id="perspective2953"
       inkscape:persp3d-origin="0.5 : 0.33333333 : 1"
       inkscape:vp_z="1 : 0.5 : 1"
       inkscape:vp_y="0 : 1000 : 0"
       inkscape:vp_x="0 : 0.5 : 1"
       sodipodi:type="inkscape:persp3d" />
    <linearGradient
       id="G1-1">
      <stop
         id="s1-9"
         style="stop-color:#d491fa;stop-opacity:1;"
         offset="0" />
      <stop
         id="s2-8"
         style="stop-color:#600261;stop-opacity:1;"
         offset="1" />
    </linearGradient>
    <linearGradient
       id="G2-4">
      <stop
         id="s3-9"
         style="stop-color:#fff;stop-opacity:1"
         offset="0" />
      <stop
         id="s4-0"
         style="stop-color:#fff;stop-opacity:0"
         offset="1" />
    </linearGradient>
    <linearGradient
       id="linearGradient2966">
      <stop
         id="stop2968"
         style="stop-color:#d491fa;stop-opacity:1;"
         offset="0" />
      <stop
         id="stop2970"
         style="stop-color:#600261;stop-opacity:1;"
         offset="1" />
    </linearGradient>
    <inkscape:perspective
       id="perspective2934"
       inkscape:persp3d-origin="0.5 : 0.33333333 : 1"
       inkscape:vp_z="1 : 0.5 : 1"
       inkscape:vp_y="0 : 1000 : 0"
       inkscape:vp_x="0 : 0.5 : 1"
       sodipodi:type="inkscape:persp3d" />
    <linearGradient
       id="G1-7">
      <stop
         id="s1-86"
         style="stop-color:#429fe4;stop-opacity:1;"
         offset="0" />
      <stop
         id="s2-6"
         style="stop-color:#3653ba;stop-opacity:1;"
         offset="1" />
    </linearGradient>
    <linearGradient
       id="G2-5">
      <stop
         id="s3-3"
         style="stop-color:#fff;stop-opacity:1"
         offset="0" />
      <stop
         id="s4-4"
         style="stop-color:#fff;stop-opacity:0"
         offset="1" />
    </linearGradient>
  </defs>
  <sodipodi:namedview
     id="base"
     pagecolor="#ffffff"
     bordercolor="#666666"
     borderopacity="1.0"
     inkscape:pageopacity="0.0"
     inkscape:pageshadow="2"
     inkscape:zoom="5.6"
     inkscape:cx="89.345666"
     inkscape:cy="-8.0662935"
     inkscape:document-units="px"
     inkscape:current-layer="g155"
     showgrid="false"
     inkscape:window-width="1920"
     inkscape:window-height="1016"
     inkscape:window-x="1920"
     inkscape:window-y="0"
     inkscape:window-maximized="1"
     inkscape:document-rotation="0" />
  <metadata
     id="metadata3124">
    <rdf:RDF>
      <cc:Work
         rdf:about="">
        <dc:format>image/svg+xml</dc:format>
        <dc:type
           rdf:resource="http://purl.org/dc/dcmitype/StillImage" />
        <dc:title />
      </cc:Work>
    </rdf:RDF>
  </metadata>
  <g
     inkscape:label="Layer 1"
     inkscape:groupmode="layer"
     id="layer1"
     transform="translate(0,-1004.3622)">
    <g
       id="g155"
       transform="matrix(0.13674338,0,0,0.13290661,-10.086488,999.84264)">
      <g
         id="g220"
         transform="matrix(0.02751888,0,0,0.02783712,572.22978,188.39258)"
         style="fill:#000080">
        <ellipse
           style="fill:#000080;stroke-width:5.14961"
           id="path154"
           ry="3664.8418"
           rx="4527.9038"
           cy="-1713.6218"
           cx="-11734.118" />
        <ellipse
           style="fill:#000080;stroke-width:3.83136"
           id="path154-3"
           ry="2533.8569"
           rx="3625.1597"
           cy="1504.0204"
           cx="-11667.575" />
        <ellipse
           style="fill:#000080;stroke-width:3.20073"
           id="path154-3-6"
           ry="2533.8569"
           rx="2530.0017"
           cy="4767.6938"
           cx="-11734.934" />
        <ellipse
           style="fill:#000080;stroke-width:3.33002"
           id="path154-3-6-7"
           ry="2533.8569"
           rx="2738.5173"
           cy="2947.2898"
           cx="-11739.583" />
      </g>
      <g
         transform="matrix(0.02683263,0,0,-0.0279265,122.5808,394.06533)"
         fill="#000000"
         stroke="none"
         id="g98"
         style="fill:#00ffff">
        <path
           d="m 4510,12793 c -1011,-44 -1959,-262 -2645,-608 -279,-141 -487,-284 -720,-496 C 646,11236 282,10631 105,9965 31,9684 5,9469 6,9150 8,8405 223,7624 595,7010 693,6848 848,6643 963,6523 l 50,-51 -43,-218 c -52,-271 -64,-389 -56,-579 13,-309 67,-557 172,-783 108,-233 260,-383 514,-507 50,-24 86,-46 81,-49 -6,-4 18,-74 55,-164 212,-509 301,-793 339,-1076 16,-120 16,-136 1,-225 -30,-183 -36,-253 -36,-451 0,-734 197,-1243 670,-1734 C 2934,454 3167,299 3425,210 3877,55 4227,0 4765,0 c 560,0 906,60 1355,233 256,99 446,225 669,442 247,241 436,515 545,792 146,369 195,947 119,1399 -16,96 -16,110 0,230 37,285 146,624 370,1152 29,67 33,84 21,89 -18,7 -18,23 -1,23 23,0 237,111 314,163 225,150 378,435 454,843 15,79 22,170 26,334 6,258 2,303 -63,630 l -44,225 81,85 c 633,665 945,1501 915,2444 -32,1009 -393,1850 -1082,2528 -262,257 -469,417 -694,536 -498,264 -1447,529 -2210,617 -239,28 -730,41 -1030,28 z m 655,-263 c 401,-16 801,-79 1305,-206 480,-120 854,-250 1139,-397 126,-64 167,-90 291,-186 783,-600 1232,-1386 1346,-2356 23,-194 23,-631 1,-814 -70,-560 -275,-1070 -600,-1491 -69,-89 -169,-202 -174,-196 -10,10 -44,302 -53,459 -7,114 -7,217 0,320 17,258 18,262 135,612 52,154 101,315 110,358 37,187 57,625 35,764 -23,139 -74,252 -164,359 l -39,46 -93,-93 -94,-93 24,-26 c 40,-43 66,-87 89,-147 20,-53 21,-76 21,-283 -1,-363 -23,-483 -151,-845 -97,-272 -120,-387 -138,-710 -4,-60 -2,-190 4,-287 17,-275 48,-480 165,-1068 55,-277 59,-322 53,-538 -7,-293 -53,-505 -152,-709 -121,-248 -245,-327 -829,-529 -261,-91 -451,-192 -671,-358 -241,-181 -380,-427 -416,-733 -6,-51 -9,-109 -7,-128 l 4,-36 -110,-35 c -140,-44 -306,-78 -511,-103 -539,-67 -1515,-65 -1955,5 -156,25 -298,57 -418,96 l -62,20 v 91 c 0,214 -74,425 -216,612 -81,107 -120,146 -230,228 -236,176 -337,226 -654,325 -392,123 -546,198 -685,337 -66,65 -89,97 -128,175 -90,183 -138,379 -159,639 -16,212 -3,338 81,764 111,563 141,798 141,1112 0,336 -30,512 -134,807 -125,355 -136,407 -156,736 -16,279 9,422 91,516 48,55 49,53 -59,159 l -79,78 -51,-56 c -61,-67 -114,-170 -143,-280 -42,-158 -22,-644 35,-880 14,-55 57,-192 96,-305 39,-113 80,-236 91,-275 43,-152 62,-528 39,-770 -15,-155 -52,-415 -60,-415 -8,0 -102,121 -171,220 -254,365 -464,895 -563,1420 -35,185 -53,332 -68,548 -34,513 81,1051 332,1553 227,452 555,848 946,1144 755,570 2182,904 3619,845 z M 7461,4050 c -222,-555 -312,-966 -267,-1221 60,-342 45,-720 -40,-1063 -44,-175 -93,-291 -195,-468 C 6825,1067 6558,785 6330,633 6100,479 5683,337 5325,290 c -326,-42 -870,-37 -1199,11 -251,36 -603,138 -781,225 -297,147 -633,494 -820,846 -121,231 -183,456 -216,781 -17,176 -7,501 21,657 17,97 21,144 16,211 -21,276 -111,611 -277,1026 -38,97 -68,177 -67,179 4,3 241,-67 248,-74 3,-3 -1,-7 -7,-9 -10,-4 -9,-13 3,-41 180,-418 335,-895 407,-1252 29,-141 70,-403 88,-560 l 12,-105 91,-93 c 355,-364 782,-548 1434,-617 246,-26 612,-38 798,-26 604,40 1153,230 1479,510 71,62 102,96 160,176 43,60 43,61 65,220 77,591 192,1028 415,1585 77,194 83,206 117,223 34,17 221,86 225,83 1,-1 -34,-89 -76,-196 z m -4960,-23 c 211,-141 277,-202 367,-340 54,-84 88,-165 107,-258 19,-90 19,-159 0,-186 -15,-21 -13,-23 66,-62 45,-23 72,-41 60,-41 -25,0 -22,63 -30,-585 l -6,-499 -73,69 c -110,103 -109,102 -133,277 -43,319 -87,546 -155,796 -50,183 -166,529 -244,724 -36,92 -63,168 -60,168 4,0 50,-28 101,-63 z m 4547,-99 c -65,-161 -197,-557 -242,-728 -66,-250 -106,-459 -150,-783 l -24,-177 -40,-53 c -23,-28 -61,-72 -86,-97 l -46,-44 v 254 c 0,140 -3,393 -7,562 l -6,306 64,32 c 79,40 75,35 60,63 -10,18 -10,42 -1,107 32,235 138,410 335,554 106,78 176,124 186,125 4,1 -15,-54 -43,-121 z M 6350,2877 v -243 l -78,-47 c -43,-25 -107,-60 -142,-76 l -65,-31 -5,277 -5,278 110,32 c 61,17 121,36 135,42 52,21 50,28 50,-232 z m -3089,211 c 35,-12 111,-34 169,-49 74,-19 95,-28 70,-28 l -35,-1 v -77 c 0,-43 -1,-162 -3,-265 l -2,-187 -57,25 c -32,14 -95,47 -140,72 l -83,47 v 243 c 0,133 4,242 8,242 4,0 37,-10 73,-22 z m 440,-102 c 57,-8 126,-18 153,-21 l 49,-7 -7,-75 c -3,-42 -6,-181 -6,-309 v -233 l -92,25 c -51,14 -123,34 -160,46 l -68,22 v 289 c 0,240 2,288 14,284 7,-3 60,-12 117,-21 z m 2249,-264 v -289 l -87,-26 c -89,-27 -208,-57 -229,-57 -7,0 -12,6 -11,13 0,6 -1,143 -1,304 -2,268 -3,292 -19,296 -10,3 5,6 32,7 28,1 100,10 160,20 61,9 120,18 133,19 l 22,1 z m -432,-79 2,-311 -22,-5 c -34,-9 -239,-30 -243,-25 -2,2 -7,142 -11,311 l -7,307 h -49 -48 v -314 -313 l -67,-7 c -38,-3 -108,-6 -158,-7 l -90,-2 -2,319 -3,319 -50,3 -50,3 v -325 -326 h -119 c -65,0 -139,3 -165,6 l -46,7 v 322 322 l 473,7 c 259,4 508,11 552,15 44,4 85,7 90,6 6,-1 11,-115 13,-312 z m -1263,288 30,-6 -5,-321 -5,-320 -133,16 c -73,10 -136,21 -140,26 -4,5 -6,147 -4,316 l 3,307 112,-6 c 62,-3 126,-8 142,-12 z m 2104,-783 c 1,-118 4,-158 13,-158 20,0 -83,-66 -196,-125 -56,-30 -106,-55 -109,-55 -4,0 -7,125 -6,278 v 277 l 142,70 142,70 6,-100 c 4,-55 7,-171 8,-257 z m -3032,282 133,-65 v -278 -277 l -62,31 c -35,17 -100,54 -145,82 l -83,52 v 263 c 0,206 3,263 13,260 6,-2 72,-33 144,-68 z m 407,-154 c 71,-20 136,-36 144,-36 11,0 13,-44 10,-279 -2,-154 -6,-282 -9,-285 -7,-7 -225,54 -285,79 l -37,15 6,98 c 4,53 7,177 7,276 0,165 1,178 18,173 9,-3 75,-21 146,-41 z m 2226,-234 v -278 l -117,-38 c -174,-56 -174,-56 -195,-56 -17,0 -18,13 -16,286 l 3,287 105,23 c 57,13 123,30 145,38 81,29 75,50 75,-262 z m -440,85 c 0,-52 3,-182 7,-289 l 6,-196 -58,-12 c -32,-7 -96,-18 -142,-24 l -83,-13 v 299 c 0,164 3,298 8,299 4,0 52,7 107,14 55,7 112,13 128,14 l 27,1 z m -1385,68 c 61,-8 118,-15 128,-15 16,0 17,-20 17,-285 v -285 l -37,1 c -21,0 -85,8 -143,17 l -105,17 -3,283 c -2,264 -1,282 15,282 10,0 68,-7 128,-15 z m 1005,-607 c -3,-4 -75,-8 -160,-10 l -155,-3 -2,298 -3,297 53,1 c 28,1 99,4 157,8 l 105,6 5,-295 c 3,-162 3,-298 0,-302 z m -420,286 v -297 l -162,8 c -90,4 -167,9 -172,12 -4,3 -7,133 -5,289 l 4,284 h 168 167 z"
           id="path88"
           style="fill:#00ffff" />
        <path
           d="m 3485,7689 c -27,-5 -183,-25 -345,-44 -295,-36 -624,-82 -775,-109 -294,-52 -498,-222 -590,-491 -23,-67 -31,-231 -15,-303 14,-65 71,-213 162,-427 36,-82 77,-184 93,-225 46,-124 169,-277 314,-392 92,-73 177,-117 311,-159 93,-29 118,-33 220,-33 145,-1 216,20 340,100 79,50 135,105 255,249 311,375 584,814 629,1012 44,195 2,447 -99,599 -119,180 -295,258 -500,223 z"
           id="path90"
           style="fill:#00ffff" />
        <path
           d="m 5861,7690 c -185,-39 -342,-209 -402,-437 -28,-103 -30,-297 -5,-398 39,-159 273,-552 510,-854 284,-364 409,-462 626,-493 151,-22 368,30 531,128 163,98 342,302 403,459 19,50 62,155 96,235 152,357 178,445 167,575 -8,87 -46,211 -87,283 -45,77 -152,186 -234,237 -160,100 -241,116 -1196,236 -288,37 -350,41 -409,29 z"
           id="path92"
           style="fill:#00ffff" />
        <path
           d="m 4555,5827 c -137,-110 -227,-205 -318,-336 -81,-115 -190,-328 -227,-441 -28,-86 -56,-255 -70,-418 -29,-352 59,-677 196,-722 47,-16 119,7 199,65 60,43 217,199 288,286 l 37,46 -2,800 -3,800 z"
           id="path94"
           style="fill:#00ffff" />
        <path
           d="m 4868,5098 4,-803 46,-55 c 85,-102 257,-265 315,-299 41,-24 75,-36 112,-39 51,-4 55,-3 98,37 137,127 184,473 122,896 -23,155 -52,244 -135,418 -52,111 -179,301 -259,389 -51,55 -288,258 -302,258 -2,0 -2,-361 -1,-802 z"
           id="path96"
           style="fill:#00ffff" />
      </g>
    </g>
  </g>
</svg>
