<?xml version="1.0" encoding="utf-8"?>
<!-- Uploaded to: SVG Repo, www.svgrepo.com, Generator: SVG Repo Mixer Tools -->
<svg width="800px" height="800px" viewBox="0 0 128 128" xmlns="http://www.w3.org/2000/svg" xmlns:xlink="http://www.w3.org/1999/xlink" aria-hidden="true" role="img" class="iconify iconify--noto" preserveAspectRatio="xMidYMid meet">
<path d="M83.1 44.23l.54-22.63c.02-.8.47-1.49 1.14-1.71c1.38-.45 4.04-1.05 8-.78c2.94.2 4.73.77 5.71 1.21c.62.28 1.01.99.99 1.76l-.54 22.66l-15.84-.51z" fill="#356477">
</path>
<path d="M98.49 20.32c-.98-.44-2.77-1-5.71-1.21c-3.96-.27-6.62.33-8 .78c-.66.22-1.12.91-1.14 1.71l-.14 5.85c.09-.04.17-.1.26-.13c1.51-.45 4.42-1.04 8.77-.75c3.23.21 5.19.78 6.27 1.23c.2.08.37.21.53.36l.14-6.09c.02-.76-.36-1.48-.98-1.75z" fill="#f44336">
</path>
<path d="M51.53 38.53l.62-26.57c.02-.76.55-1.41 1.32-1.62c1.59-.43 4.68-1 9.27-.74c3.41.19 5.48.73 6.63 1.15c.72.26 1.17.94 1.15 1.67l-.63 26.6l-18.36-.49z" fill="#356477">
</path>
<path d="M69.37 10.75c-1.14-.42-3.21-.95-6.63-1.15c-4.6-.26-7.68.31-9.27.74c-.77.21-1.3.86-1.32 1.62l-.16 5.55c.1-.04.19-.1.31-.12c1.75-.43 5.13-.99 10.17-.71c3.75.2 6.02.74 7.27 1.16c.23.08.43.2.61.34l.17-5.77c.02-.72-.43-1.4-1.15-1.66z" fill="#f44336">
</path>
<path d="M86.01 26.82c1.35-.22 3.11-.37 5.26-.3v-7.47c-2.26-.04-4.01.21-5.26.5v7.27z" fill="#ff7555">
</path>
<path d="M55.03 16.9c1.39-.18 3.15-.3 5.26-.28V9.54c-2.2.01-3.96.21-5.26.45v6.91z" fill="#ff7555">
</path>
<g>
<path d="M54.33 73.61l-.42 8.4l-34.65-1.57l.26-6.83s7.78-11.44 7.78-34.96l32.56-1.94s1.55 3.32.39 13.19c-1.94 16.73-5.92 23.71-5.92 23.71z" fill="#eee">
</path>
<path d="M59.97 44.76l-32.9.8c-.1 1.39-.22 2.73-.36 4.01L59.79 49l.18-4.24z" fill="#82aec0">
</path>
<path d="M59.5 57.05l-33.99.1c-.3 1.43-.62 2.77-.95 4.01h34.09l.85-4.11z" fill="#82aec0">
</path>
<path d="M54.96 68.97l-33.04-.07c-.82 1.92-1.53 3.25-1.96 3.99l32.72.07c.01 0 1.78-2.67 2.28-3.99z" fill="#82aec0">
</path>
</g>
<g>
<path d="M52.56 73.66l65.73 7.65l1.12-12.58l-11.14-1.4l2.02-22.19l-50.3-8.2c.38 24.56-5.65 33.81-7.43 36.03v.69z" fill="#82aec0">
</path>
<path d="M109.68 51.75l-49.8-7.02s-.2 3.2-.31 4.3l49.75 6.72l.36-4z" fill="#365666">
</path>
<path d="M108.26 67.33l.36-3.95l-50.07-6.32c-.27 1.4-.54 2.87-.85 4.08l50.56 6.19z" fill="#365666">
</path>
<path d="M54.96 68.97c-.91 1.74-1.95 3.32-2.42 4l-.01.15l65.84 7.22l.35-3.99l-63.76-7.38z" fill="#365666">
</path>
<path d="M105.82 55.27l.46-4l-1.98-.28l-.46 4.01l-4.3-.58l.47-4.04l-1.98-.28l-.47 4.05l-4.3-.58l.47-4.07l-1.98-.28l-.47 4.08l-4.3-.58l.47-4.11l-1.98-.28l-.48 4.12l-4.3-.58l.48-4.14l-1.98-.28l-.48 4.16l-4.3-.58l.48-4.18l-1.98-.28l-.48 4.19l-4.3-.58l.49-4.22l-1.98-.28l-.49 4.23l-6.65-.9s-.08.88-.1 1.42c-.02.54-.1 1.58-.1 1.58l49.75 6.68l.27-2.96l-3.5-.46z" fill="#eee">
</path>
<path fill="#eee" d="M110.08 47.36l-50.24-7.64l.02-3.02l50.5 7.64z">
</path>
<path d="M104.79 66.9l.42-3.94l-1.98-.25l-.42 3.94l-4.3-.53l.42-3.95l-1.98-.25l-.42 3.95l-4.3-.53l.42-3.96l-1.98-.25l-.42 3.96l-4.3-.53l.42-3.97l-1.98-.25l-.42 3.97l-4.3-.53l.42-3.97l-1.98-.25l-.42 3.98l-4.3-.53l.42-3.98l-1.98-.25l-.42 3.98l-4.3-.53l.42-3.99l-2.02-.24l-.43 3.99l-7.37-.85s-.2.7-.81 2.85l62.24 7.74l.28-3.02l-14.63-1.81z" fill="#eee">
</path>
<path fill="#eee" d="M114.05 79.8l.42-3.94l-1.98-.23l-.43 3.95l-4.63-.54l.42-3.95l-1.98-.23l-.43 3.95l-4.63-.53l.43-3.95l-1.99-.23l-.43 3.95l-4.63-.53l.43-3.96l-1.99-.23l-.43 3.96l-4.63-.53l.43-3.97l-1.99-.23l-.43 3.97l-4.63-.53l.43-3.97l-1.99-.23l-.43 3.97l-4.63-.54l.43-3.97l-1.99-.23l-.43 3.98l-4.63-.54l.43-3.98l-1.99-.23l-.43 3.98l-4.63-.53l.43-3.98l-1.99-.24l-.43 3.99l-6.58-.52l-.65 9.79l65.72 6.72l.79-9.16z">
</path>
</g>
<g>
<path d="M6.15 78.96s-2.12-.1-1.93 1.99c0 0-2.49 16.6 4.41 28C15.26 119.89 24.43 124 28.52 124h80.46c5.02 0 10.23-3.78 12.03-9.39c1.41-4.41 2.66-20.35 2.92-25.21c.04-.78-.55-1.45-1.33-1.51c0 0-72.87-9.04-116.45-8.93z" fill="#356477">
</path>
<path d="M123.48 95.94S47.46 90.75 3.86 91.11l-.02-5.64c43.82-.37 119.06 7.83 119.83 7.89l-.19 2.58z" fill="#f44336">
</path>
<path d="M19.38 78.33l-.07.83c36.27 1.05 83.26 6.37 98.47 8.16l.17-2c-11.02-1.29-38.67-4.35-66.8-6.36c-10.82-.77-31.77-.63-31.77-.63z" fill="#82aec0">
</path>
</g>
</svg>