<?xml version="1.0" encoding="UTF-8" standalone="no"?>
<svg
   xmlns:dc="http://purl.org/dc/elements/1.1/"
   xmlns:cc="http://creativecommons.org/ns#"
   xmlns:rdf="http://www.w3.org/1999/02/22-rdf-syntax-ns#"
   xmlns:svg="http://www.w3.org/2000/svg"
   xmlns="http://www.w3.org/2000/svg"
   xmlns:sodipodi="http://sodipodi.sourceforge.net/DTD/sodipodi-0.dtd"
   xmlns:inkscape="http://www.inkscape.org/namespaces/inkscape"
   height="48"
   width="48"
   version="1.1"
   id="svg8"
   sodipodi:docname="ct_sort-desc.svg"
   inkscape:version="1.0 (4035a4fb49, 2020-05-01)">
  <metadata
     id="metadata14">
    <rdf:RDF>
      <cc:Work
         rdf:about="">
        <dc:format>image/svg+xml</dc:format>
        <dc:type
           rdf:resource="http://purl.org/dc/dcmitype/StillImage" />
        <dc:title></dc:title>
      </cc:Work>
    </rdf:RDF>
  </metadata>
  <defs
     id="defs12" />
  <sodipodi:namedview
     pagecolor="#ffffff"
     bordercolor="#666666"
     borderopacity="1"
     objecttolerance="10"
     gridtolerance="10"
     guidetolerance="10"
     inkscape:pageopacity="0"
     inkscape:pageshadow="2"
     inkscape:window-width="1366"
     inkscape:window-height="715"
     id="namedview10"
     showgrid="false"
     showborder="true"
     inkscape:zoom="9.6117257"
     inkscape:cx="11.555766"
     inkscape:cy="15.530559"
     inkscape:window-x="-8"
     inkscape:window-y="22"
     inkscape:window-maximized="1"
     inkscape:current-layer="svg8"
     inkscape:document-rotation="0">
    <inkscape:grid
       type="xygrid"
       id="grid821" />
  </sodipodi:namedview>
  <path
     id="path836"
     d="m 43.149667,37.468859 a 4.4872002,4.4871998 0 0 0 -8.9744,0 4.4872002,4.4871998 0 0 0 8.9744,0 z"
     style="opacity:1;vector-effect:none;fill:none;fill-opacity:1;stroke:#f2f2f2;stroke-width:3;stroke-linecap:butt;stroke-linejoin:miter;stroke-miterlimit:4;stroke-dasharray:none;stroke-dashoffset:0;stroke-opacity:1" />
  <path
     id="path838"
     d="m 43.149667,24.007259 a 4.4872002,4.4871998 0 0 0 -8.9744,0 4.4872002,4.4871998 0 0 0 8.9744,0 z"
     style="opacity:1;vector-effect:none;fill:none;fill-opacity:1;stroke:#f2f2f2;stroke-width:3;stroke-linecap:butt;stroke-linejoin:miter;stroke-miterlimit:4;stroke-dasharray:none;stroke-dashoffset:0;stroke-opacity:1" />
  <path
     id="path840"
     d="m 43.149667,10.545662 a 4.4872002,4.4871998 0 0 0 -8.9744,0 4.4872002,4.4871998 0 0 0 8.9744,0 z"
     style="opacity:1;vector-effect:none;fill:none;fill-opacity:1;stroke:#f2f2f2;stroke-width:3;stroke-linecap:butt;stroke-linejoin:miter;stroke-miterlimit:4;stroke-dasharray:none;stroke-dashoffset:0;stroke-opacity:1" />
  <path
     id="path842"
     d="m 26.04424,13.979908 a 2.119384,2.1193837 0 0 1 -2.123522,2.115245 2.119384,2.1193837 0 0 1 -1.262523,-0.422222 l -0.0043,0.0082 -7.210877,-5.406086 -7.2108728,5.406086 -0.00415,-0.0042 A 2.119384,2.1193837 0 0 1 6.9655817,16.095015 2.119384,2.1193837 0 0 1 4.850337,13.971491 2.119384,2.1193837 0 0 1 5.7817068,12.220516 L 14.085387,5.9948259 a 2.119384,2.1193837 0 0 1 0.07865,-0.0621 2.119384,2.1193837 0 0 1 1.287361,-0.43464 2.119384,2.1193837 0 0 1 1.403263,0.538124 L 25.0383,12.170833 a 2.119384,2.1193837 0 0 1 1.005879,1.808926 z"
     style="opacity:1;vector-effect:none;fill:none;fill-opacity:1;stroke:#f2f2f2;stroke-width:3;stroke-linecap:butt;stroke-linejoin:miter;stroke-miterlimit:4;stroke-dasharray:none;stroke-dashoffset:0;stroke-opacity:1" />
  <rect
     transform="scale(1,-1)"
     ry="2.0092976"
     y="-42.501915"
     x="13.345429"
     height="33.546539"
     width="4.1415477"
     id="rect844"
     style="fill:none;fill-opacity:1;stroke:#f2f2f2;stroke-width:3;stroke-linecap:round;stroke-miterlimit:4;stroke-dasharray:none;stroke-opacity:1;stop-color:#000000" />
  <path
     style="opacity:1;vector-effect:none;fill:#1a1a1a;fill-opacity:1;stroke-width:4.4872;stroke-linecap:butt;stroke-linejoin:miter;stroke-miterlimit:4;stroke-dasharray:none;stroke-dashoffset:0;stroke-opacity:1"
     d="m 43.149667,37.468859 a 4.4872002,4.4871998 0 0 0 -8.9744,0 4.4872002,4.4871998 0 0 0 8.9744,0 z"
     id="path839" />
  <path
     style="opacity:1;vector-effect:none;fill:#1a1a1a;fill-opacity:1;stroke-width:4.4872;stroke-linecap:butt;stroke-linejoin:miter;stroke-miterlimit:4;stroke-dasharray:none;stroke-dashoffset:0;stroke-opacity:1"
     d="m 43.149667,24.007259 a 4.4872002,4.4871998 0 0 0 -8.9744,0 4.4872002,4.4871998 0 0 0 8.9744,0 z"
     id="path837" />
  <path
     style="opacity:1;vector-effect:none;fill:#1a1a1a;fill-opacity:1;stroke-width:4.4872;stroke-linecap:butt;stroke-linejoin:miter;stroke-miterlimit:4;stroke-dasharray:none;stroke-dashoffset:0;stroke-opacity:1"
     d="m 43.149667,10.545662 a 4.4872002,4.4871998 0 0 0 -8.9744,0 4.4872002,4.4871998 0 0 0 8.9744,0 z"
     id="path835" />
  <path
     style="opacity:1;vector-effect:none;fill:#1a1a1a;fill-opacity:1;stroke-width:2.11937;stroke-linecap:butt;stroke-linejoin:miter;stroke-miterlimit:4;stroke-dasharray:none;stroke-dashoffset:0;stroke-opacity:1"
     d="m 26.04424,13.979908 a 2.119384,2.1193837 0 0 1 -2.123522,2.115245 2.119384,2.1193837 0 0 1 -1.262523,-0.422222 l -0.0043,0.0082 -7.210877,-5.406086 -7.2108728,5.406086 -0.00415,-0.0042 A 2.119384,2.1193837 0 0 1 6.9655817,16.095015 2.119384,2.1193837 0 0 1 4.850337,13.971491 2.119384,2.1193837 0 0 1 5.7817068,12.220516 L 14.085387,5.9948259 a 2.119384,2.1193837 0 0 1 0.07865,-0.0621 2.119384,2.1193837 0 0 1 1.287361,-0.43464 2.119384,2.1193837 0 0 1 1.403263,0.538124 L 25.0383,12.170833 a 2.119384,2.1193837 0 0 1 1.005879,1.808926 z"
     id="path833" />
  <rect
     style="fill:#1a1a1a;fill-opacity:1;stroke:none;stroke-width:17.6999;stroke-linecap:round;stroke-miterlimit:4;stroke-dasharray:none;stroke-opacity:1;stop-color:#000000"
     id="rect843"
     width="4.1415477"
     height="33.546539"
     x="13.345429"
     y="-42.501915"
     ry="2.0092976"
     transform="scale(1,-1)" />
</svg>
