<?xml version="1.0" encoding="UTF-8" standalone="no"?>
<svg
   xmlns:dc="http://purl.org/dc/elements/1.1/"
   xmlns:cc="http://creativecommons.org/ns#"
   xmlns:rdf="http://www.w3.org/1999/02/22-rdf-syntax-ns#"
   xmlns:svg="http://www.w3.org/2000/svg"
   xmlns="http://www.w3.org/2000/svg"
   xmlns:sodipodi="http://sodipodi.sourceforge.net/DTD/sodipodi-0.dtd"
   xmlns:inkscape="http://www.inkscape.org/namespaces/inkscape"
   inkscape:version="1.0 (4035a4fb49, 2020-05-01)"
   sodipodi:docname="ct_tree-node-dupl.svg"
   id="svg6"
   version="1.1"
   width="48"
   height="48">
  <metadata
     id="metadata12">
    <rdf:RDF>
      <cc:Work
         rdf:about="">
        <dc:format>image/svg+xml</dc:format>
        <dc:type
           rdf:resource="http://purl.org/dc/dcmitype/StillImage" />
        <dc:title></dc:title>
      </cc:Work>
    </rdf:RDF>
  </metadata>
  <defs
     id="defs10">
    <linearGradient
       id="G5">
      <stop
         offset="0"
         style="stop-color:#000;stop-opacity:1"
         id="s9" />
      <stop
         offset="1"
         style="stop-color:#000;stop-opacity:0"
         id="s10" />
    </linearGradient>
    <linearGradient
       id="G4-0">
      <stop
         offset="0"
         style="stop-color:#d50f0f;stop-opacity:1"
         id="s7-3" />
      <stop
         offset="1"
         style="stop-color:#860000;stop-opacity:1"
         id="s8-9" />
    </linearGradient>
    <linearGradient
       id="G2-9">
      <stop
         offset="0"
         style="stop-color:#fff;stop-opacity:1"
         id="s3-69" />
      <stop
         offset="1"
         style="stop-color:#fff;stop-opacity:0"
         id="s4-33" />
    </linearGradient>
    <linearGradient
       id="G1-6-5-0">
      <stop
         offset="0"
         style="stop-color:#59a40f;stop-opacity:1"
         id="s1-3-2" />
      <stop
         offset="1"
         style="stop-color:#306102;stop-opacity:1"
         id="s2-9-9" />
    </linearGradient>
  </defs>
  <sodipodi:namedview
     inkscape:guide-bbox="true"
     showguides="true"
     inkscape:snap-global="false"
     inkscape:current-layer="svg6"
     inkscape:window-maximized="1"
     inkscape:window-y="22"
     inkscape:window-x="-8"
     inkscape:cy="4.78511"
     inkscape:cx="8.9977855"
     inkscape:zoom="5.2812605"
     showgrid="false"
     id="namedview8"
     inkscape:window-height="715"
     inkscape:window-width="1366"
     inkscape:pageshadow="2"
     inkscape:pageopacity="0"
     guidetolerance="10"
     gridtolerance="10"
     objecttolerance="10"
     borderopacity="1"
     bordercolor="#666666"
     pagecolor="#ffffff"
     inkscape:document-rotation="0" />
  <g
     transform="matrix(5.5479985,0,0,5.5479985,-9.5698764,-9.8702008)"
     id="g1055">
    <g
       id="g1018"
       style="stroke:#7a0000;stroke-opacity:1"
       transform="translate(11.036554,3.061234)">
      <g
         transform="matrix(0.1203468,0.00521202,-0.00532923,0.12128682,-8.3880628,-3.3438663)"
         id="cherry2-3"
         style="stroke:#7a0000;stroke-opacity:1">
        <path
           d="m 42.021325,38.735182 c -2.279722,6.288872 -8.636377,11.670921 -14.976424,9.411231 -6.70613,-0.642133 -10.13411,-8.200552 -9.485159,-14.85215 0.72889,-7.470957 6.639519,-10.416091 14.793381,-8.602451 8.153861,1.813641 12.228746,6.979824 9.668202,14.04337 z"
           id="p5-12"
           style="fill:#c6262e;fill-opacity:1;stroke:#7a0000;stroke-width:4.1346;stroke-opacity:1" />
        <path
           d="m 28.22429,26.01175 c -0.601384,3.336063 4.88838,5.213413 6.335518,2.000743"
           id="p8-9"
           style="fill:none;stroke:#333333;stroke-width:4.1346;stroke-opacity:1" />
      </g>
      <path
         sodipodi:nodetypes="cc"
         id="path1009"
         d="m -4.8335274,0.08055881 c 0.1452989,-0.3893675 0.4855397,-0.6981762 0.9667054,-1.08754371"
         style="fill:#275100;fill-opacity:0.945098;stroke:#3a9104;stroke-width:0.5;stroke-linecap:round;stroke-opacity:1;stop-color:#000000" />
    </g>
    <path
       id="path1046"
       style="opacity:1;fill:#ff8c82;fill-opacity:1;stroke:none;stroke-width:0.495729;stroke-linecap:round;stroke-opacity:1;stop-color:#000000"
       d="M 5.7418096,3.9793271 A 0.52363216,0.40279397 48.878523 0 1 5.0940074,3.8497667 0.52363216,0.40279397 48.878523 0 1 5.0530684,3.1904052 0.52363216,0.40279397 48.878523 0 1 5.7008706,3.3199656 0.52363216,0.40279397 48.878523 0 1 5.7418096,3.9793271" />
  </g>
  <g
     id="g897"
     transform="matrix(5.5479985,0,0,5.5479985,-9.5698764,14.425639)">
    <g
       transform="translate(11.036554,3.061234)"
       style="stroke:#7a0000;stroke-opacity:1"
       id="g893">
      <g
         style="stroke:#7a0000;stroke-opacity:1"
         id="g889"
         transform="matrix(0.1203468,0.00521202,-0.00532923,0.12128682,-8.3880628,-3.3438663)">
        <path
           style="fill:#c6262e;fill-opacity:1;stroke:#7a0000;stroke-width:4.1346;stroke-opacity:1"
           id="path885"
           d="m 42.021325,38.735182 c -2.279722,6.288872 -8.636377,11.670921 -14.976424,9.411231 -6.70613,-0.642133 -10.13411,-8.200552 -9.485159,-14.85215 0.72889,-7.470957 6.639519,-10.416091 14.793381,-8.602451 8.153861,1.813641 12.228746,6.979824 9.668202,14.04337 z" />
        <path
           style="fill:none;stroke:#333333;stroke-width:4.1346;stroke-opacity:1"
           id="path887"
           d="m 28.22429,26.01175 c -0.601384,3.336063 4.88838,5.213413 6.335518,2.000743" />
      </g>
      <path
         style="fill:#275100;fill-opacity:0.945098;stroke:#3a9104;stroke-width:0.5;stroke-linecap:round;stroke-opacity:1;stop-color:#000000"
         d="m -4.8335274,0.08055881 c 0.1452989,-0.3893675 0.4855397,-0.6981762 0.9667054,-1.08754371"
         id="path891"
         sodipodi:nodetypes="cc" />
    </g>
    <path
       d="M 5.7418096,3.9793271 A 0.52363216,0.40279397 48.878523 0 1 5.0940074,3.8497667 0.52363216,0.40279397 48.878523 0 1 5.0530684,3.1904052 0.52363216,0.40279397 48.878523 0 1 5.7008706,3.3199656 0.52363216,0.40279397 48.878523 0 1 5.7418096,3.9793271"
       style="opacity:1;fill:#ff8c82;fill-opacity:1;stroke:none;stroke-width:0.495729;stroke-linecap:round;stroke-opacity:1;stop-color:#000000"
       id="path895" />
  </g>
</svg>
