<?xml version="1.0" encoding="UTF-8" standalone="no"?>
<!-- Created with Sodipodi ("http://www.sodipodi.com/") -->

<svg
   xmlns:dc="http://purl.org/dc/elements/1.1/"
   xmlns:cc="http://creativecommons.org/ns#"
   xmlns:rdf="http://www.w3.org/1999/02/22-rdf-syntax-ns#"
   xmlns:svg="http://www.w3.org/2000/svg"
   xmlns="http://www.w3.org/2000/svg"
   xmlns:sodipodi="http://sodipodi.sourceforge.net/DTD/sodipodi-0.dtd"
   xmlns:inkscape="http://www.inkscape.org/namespaces/inkscape"
   id="svg548"
   sodipodi:version="0.31.1win"
   width="640"
   height="480"
   sodipodi:docname="tr.svg"
   version="1.1"
   inkscape:version="0.48.1 r9760">
  <sodipodi:namedview
     id="base"
     showgrid="true"
     snaptogrid="false"
     snaptoguides="true"
     inkscape:zoom="0.5"
     inkscape:cx="2"
     inkscape:cy="256"
     inkscape:window-width="1280"
     inkscape:window-height="746"
     inkscape:window-x="0"
     inkscape:window-y="24"
     inkscape:window-maximized="1"
     inkscape:current-layer="svg548"
     showguides="false">
    <inkscape:grid
       snapvisiblegridlinesonly="true"
       enabled="false"
       visible="true"
       units="pt"
       id="GridFromPre046Settings"
       type="xygrid"
       originx="0px"
       originy="0px"
       spacingx="14.1732pt"
       spacingy="14.1732pt"
       color="#0000ff"
       empcolor="#0000ff"
       opacity="0.2"
       empopacity="0.4"
       empspacing="5" />
  </sodipodi:namedview>
  <metadata
     id="metadata4108">
    <rdf:RDF>
      <cc:Work
         rdf:about="">
        <dc:format>image/svg+xml</dc:format>
        <dc:type
           rdf:resource="http://purl.org/dc/dcmitype/StillImage" />
      </cc:Work>
    </rdf:RDF>
  </metadata>
  <defs
     id="defs550">
    <clipPath
       id="clipPath5848"
       clipPathUnits="userSpaceOnUse">
      <rect
         y="-3.3573051e-05"
         width="354.33075"
         style="fill:#000000;fill-opacity:0.67000002;stroke:none"
         x="76.12574"
         height="354.33075"
         id="rect5850" />
    </clipPath>
  </defs>
  <g
     id="flag"
     inkscape:label="#g5104">
    <rect
       style="font-size:12px;fill:#f31930;fill-rule:evenodd;stroke-width:1pt"
       id="rect551"
       width="640"
       height="480"
       x="0"
       y="2.5924682e-15"
       sodipodi:fill-cmyk="(0 0.89524 0.8 0.047619)" />
    <g
       id="g3005"
       transform="matrix(0.9375,0,0,0.9375,132.00696,7.2462177)">
      <path
         id="path670"
         d="m 393.35354,220.63525 c 0,0 0,0 0,0"
         style="font-size:12px;fill:none;stroke:#000000;stroke-width:0.77658238pt"
         inkscape:connector-curvature="0" />
      <path
         transform="matrix(0.71361847,0,0,0.70145094,166.01453,-56.352232)"
         sodipodi:ry="182.30783"
         sodipodi:rx="182.30783"
         sodipodi:cy="445.6362"
         sodipodi:cx="-3.9347081"
         d="m 178.37312,445.6362 c 0,100.68583 -81.621993,182.30783 -182.3078281,182.30783 -100.6858319,0 -182.3078319,-81.622 -182.3078319,-182.30783 0,-100.68583 81.622,-182.30783 182.3078319,-182.30783 100.6858351,0 182.3078281,81.622 182.3078281,182.30783 z"
         id="path614"
         style="fill:#ffffff;fill-opacity:1;fill-rule:evenodd;stroke:none"
         sodipodi:type="arc" />
      <path
         sodipodi:fill-cmyk="(0 0.9 0.8 0.05)"
         transform="matrix(1.300892,0,0,1.2787097,320.28444,55.365403)"
         sodipodi:ry="80.005608"
         sodipodi:rx="80.005592"
         sodipodi:cy="157.0914"
         sodipodi:cx="-95.744408"
         d="m -15.738815,157.0914 c 0,44.18588 -35.819724,80.00561 -80.005593,80.00561 -44.185872,0 -80.005592,-35.81973 -80.005592,-80.00561 0,-44.18588 35.81972,-80.005607 80.005592,-80.005607 44.185869,0 80.005593,35.819727 80.005593,80.005607 z"
         id="path615"
         style="fill:#f31830;fill-opacity:1;fill-rule:evenodd;stroke:none"
         sodipodi:type="arc" />
      <path
         id="path563"
         d="m 318.62705,196.50433 -1.05009,47.27295 -44.10333,11.97343 43.47327,15.48216 -1.0501,43.35061 28.35188,-33.85445 42.84247,14.86284 -24.78155,-36.33243 30.24205,-36.12528 -46.4128,12.79846 -27.5118,-39.42829 z"
         style="font-size:12px;fill:#ffffff;fill-rule:evenodd;stroke-width:1pt"
         inkscape:connector-curvature="0" />
    </g>
  </g>
</svg>
