<?xml version="1.0" encoding="UTF-8" standalone="no"?>
<!-- Uploaded to: SVG Repo, www.svgrepo.com, Generator: SVG Repo Mixer Tools -->

<svg
   width="800px"
   height="800px"
   viewBox="0 0 1024 1024"
   version="1.1"
   id="svg10"
   sodipodi:docname="ct_visible.svg"
   inkscape:version="1.2.2 (b0a8486541, 2022-12-01)"
   xmlns:inkscape="http://www.inkscape.org/namespaces/inkscape"
   xmlns:sodipodi="http://sodipodi.sourceforge.net/DTD/sodipodi-0.dtd"
   xmlns="http://www.w3.org/2000/svg"
   xmlns:svg="http://www.w3.org/2000/svg">
  <defs
     id="defs14" />
  <sodipodi:namedview
     id="namedview12"
     pagecolor="#ffffff"
     bordercolor="#666666"
     borderopacity="1.0"
     inkscape:showpageshadow="2"
     inkscape:pageopacity="0.0"
     inkscape:pagecheckerboard="0"
     inkscape:deskcolor="#d1d1d1"
     showgrid="false"
     inkscape:zoom="1.0475"
     inkscape:cx="400"
     inkscape:cy="401.43198"
     inkscape:window-width="1920"
     inkscape:window-height="1003"
     inkscape:window-x="0"
     inkscape:window-y="0"
     inkscape:window-maximized="1"
     inkscape:current-layer="svg10" />
  <path
     fill="#D9D9D9"
     d="M81.8 537.8a60.3 60.3 0 0 1 0-51.5C176.6 286.5 319.8 186 512 186c-192.2 0-335.4 100.5-430.2 300.3a60.3 60.3 0 0 0 0 51.5C176.6 737.5 319.9 838 512 838c-192.1 0-335.4-100.5-430.2-300.2z"
     id="path2" />
  <path
     fill="#D9D9D9"
     d="M512 258c-161.3 0-279.4 81.8-362.7 254C232.6 684.2 350.7 766 512 766c161.4 0 279.5-81.8 362.7-254C791.4 339.8 673.3 258 512 258zm-4 430c-97.2 0-176-78.8-176-176s78.8-176 176-176 176 78.8 176 176-78.8 176-176 176z"
     id="path4" />
  <path
     d="M942.2 486.2C847.4 286.5 704.1 186 512 186c-192.2 0-335.4 100.5-430.2 300.3a60.3 60.3 0 0 0 0 51.5C176.6 737.5 319.9 838 512 838c192.2 0 335.4-100.5 430.2-300.3 7.7-16.2 7.7-35 0-51.5zM512 766c-161.3 0-279.4-81.8-362.7-254C232.6 339.8 350.7 258 512 258s279.4 81.8 362.7 254C791.5 684.2 673.4 766 512 766z"
     id="path6"
     style="fill:#666666" />
  <rect
     style="fill:#ff0000;stroke:#ffffa4;stroke-width:1.28"
     id="rect461"
     width="243.30406"
     height="228.83289"
     x="384.70786"
     y="396.34616" />
  <path
     d="m 507.52153,335.3768 c -97.2,0 -176,78.8 -176,176 0,97.2 78.8,176 176,176 97.2,0 176,-78.8 176,-176 0,-97.2 -78.8,-176 -176,-176 z m 0,288 c -61.9,0 -112,-50.1 -112,-112 0,-61.9 50.1,-112 112,-112 61.9,0 112,50.1 112,112 0,61.9 -50.1,112 -112,112 z"
     id="path8"
     style="fill:#666666" />
</svg>
