<?xml version="1.0" encoding="UTF-8"?>
<!-- Created with Inkscape (http://www.inkscape.org/) -->
<svg id="svg2862" width="48" height="48" version="1.1" xmlns="http://www.w3.org/2000/svg" xmlns:xlink="http://www.w3.org/1999/xlink">
 <defs id="defs2864">
  <radialGradient id="radialGradient2894" cx="33.249" cy="41.297" r="2.674" fx="33.626" gradientTransform="matrix(3.6594 -3.0216e-7 3.0216e-7 3.6594 -92.121 -143.36)" gradientUnits="userSpaceOnUse" xlink:href="#linearGradient3837"/>
  <linearGradient id="linearGradient3837">
   <stop id="stop3839" style="stop-color:#e3e3e2;stop-opacity:0" offset="0"/>
   <stop id="stop3845" style="stop-color:#d4d4d3" offset=".61194"/>
   <stop id="stop3841" style="stop-color:#fff" offset="1"/>
  </linearGradient>
  <radialGradient id="radialGradient2890" cx="33.249" cy="41.297" r="2.674" fx="33.626" gradientTransform="matrix(3.6594 -3.0216e-7 3.0216e-7 3.6594 -85.674 -143.12)" gradientUnits="userSpaceOnUse" xlink:href="#linearGradient3837"/>
  <radialGradient id="radialGradient2886" cx="33.249" cy="41.297" r="2.674" fx="33.626" gradientTransform="matrix(3.6594 -3.0216e-7 3.0216e-7 3.6594 -93.801 -149.29)" gradientUnits="userSpaceOnUse" xlink:href="#linearGradient3837"/>
  <radialGradient id="radialGradient2882" cx="33.249" cy="41.297" r="2.674" fx="33.626" gradientTransform="matrix(3.6594 -3.0216e-7 3.0216e-7 3.6594 -87.473 -154.69)" gradientUnits="userSpaceOnUse" xlink:href="#linearGradient3837"/>
  <radialGradient id="radialGradient2878" cx="33.249" cy="41.297" r="2.674" fx="33.626" gradientTransform="matrix(3.6594 -3.0216e-7 3.0216e-7 3.6594 -82.367 -149.02)" gradientUnits="userSpaceOnUse" xlink:href="#linearGradient3837"/>
  <radialGradient id="radialGradient2874" cx="33.249" cy="41.297" r="2.674" fx="33.626" gradientTransform="matrix(3.6594 -3.0216e-7 3.0216e-7 3.6594 -77.889 -145.29)" gradientUnits="userSpaceOnUse" xlink:href="#linearGradient3837"/>
  <radialGradient id="radialGradient2411" cx="33.249" cy="41.297" r="2.674" fx="33.626" gradientTransform="matrix(4.3444 -3.5871e-7 3.5871e-7 4.3444 -123.09 -172.07)" gradientUnits="userSpaceOnUse" xlink:href="#linearGradient3837"/>
  <radialGradient id="radialGradient2414" cx="33.249" cy="41.297" r="2.674" fx="33.626" gradientTransform="matrix(3.6594 -3.0216e-7 3.0216e-7 3.6594 -93.196 -154.88)" gradientUnits="userSpaceOnUse" xlink:href="#linearGradient3837"/>
  <radialGradient id="radialGradient2417" cx="33.249" cy="41.297" r="2.674" fx="33.626" gradientTransform="matrix(3.6594 -3.0216e-7 3.0216e-7 3.6594 -107.67 -143.12)" gradientUnits="userSpaceOnUse" xlink:href="#linearGradient3837"/>
  <radialGradient id="radialGradient2420" cx="33.249" cy="41.297" r="2.674" fx="33.626" gradientTransform="matrix(3.6594 -3.0216e-7 3.0216e-7 3.6594 -103.63 -150.88)" gradientUnits="userSpaceOnUse" xlink:href="#linearGradient3837"/>
  <radialGradient id="radialGradient2423" cx="33.249" cy="41.297" r="2.674" fx="33.626" gradientTransform="matrix(3.6594 -3.0216e-7 3.0216e-7 3.6594 -98.196 -153.65)" gradientUnits="userSpaceOnUse" xlink:href="#linearGradient3837"/>
  <filter id="filter3636" x="-.093072" y="-.16885" width="1.1861" height="1.3377" color-interpolation-filters="sRGB">
   <feGaussianBlur id="feGaussianBlur3638" stdDeviation="1.5126458"/>
  </filter>
  <radialGradient id="radialGradient3169" cx="33.249" cy="41.297" r="2.674" fx="33.626" gradientTransform="matrix(3.6594 -3.0216e-7 3.0216e-7 3.6594 -100.2 -135.65)" gradientUnits="userSpaceOnUse" xlink:href="#linearGradient3837"/>
  <radialGradient id="radialGradient3171" cx="33.249" cy="41.297" r="2.674" fx="33.626" gradientTransform="matrix(3.6594 -3.0216e-7 3.0216e-7 3.6594 -105.63 -132.88)" gradientUnits="userSpaceOnUse" xlink:href="#linearGradient3837"/>
  <radialGradient id="radialGradient3173" cx="33.249" cy="41.297" r="2.674" fx="33.626" gradientTransform="matrix(3.6594 -3.0216e-7 3.0216e-7 3.6594 -109.67 -125.12)" gradientUnits="userSpaceOnUse" xlink:href="#linearGradient3837"/>
  <radialGradient id="radialGradient3175" cx="33.249" cy="41.297" r="2.674" fx="33.626" gradientTransform="matrix(3.6594 -3.0216e-7 3.0216e-7 3.6594 -95.196 -136.88)" gradientUnits="userSpaceOnUse" xlink:href="#linearGradient3837"/>
  <radialGradient id="radialGradient3177" cx="33.249" cy="41.297" r="2.674" fx="33.626" gradientTransform="matrix(4.3444 -3.5871e-7 3.5871e-7 4.3444 -125.09 -154.07)" gradientUnits="userSpaceOnUse" xlink:href="#linearGradient3837"/>
  <radialGradient id="radialGradient3179" cx="33.249" cy="41.297" r="2.674" fx="33.626" gradientTransform="matrix(3.6594 -3.0216e-7 3.0216e-7 3.6594 -79.889 -127.29)" gradientUnits="userSpaceOnUse" xlink:href="#linearGradient3837"/>
  <radialGradient id="radialGradient3181" cx="33.249" cy="41.297" r="2.674" fx="33.626" gradientTransform="matrix(3.6594 -3.0216e-7 3.0216e-7 3.6594 -84.367 -131.02)" gradientUnits="userSpaceOnUse" xlink:href="#linearGradient3837"/>
  <radialGradient id="radialGradient3183" cx="33.249" cy="41.297" r="2.674" fx="33.626" gradientTransform="matrix(3.6594 -3.0216e-7 3.0216e-7 3.6594 -89.473 -136.69)" gradientUnits="userSpaceOnUse" xlink:href="#linearGradient3837"/>
  <radialGradient id="radialGradient3185" cx="33.249" cy="41.297" r="2.674" fx="33.626" gradientTransform="matrix(3.6594 -3.0216e-7 3.0216e-7 3.6594 -95.801 -131.29)" gradientUnits="userSpaceOnUse" xlink:href="#linearGradient3837"/>
  <radialGradient id="radialGradient3187" cx="33.249" cy="41.297" r="2.674" fx="33.626" gradientTransform="matrix(3.6594 -3.0216e-7 3.0216e-7 3.6594 -87.674 -125.12)" gradientUnits="userSpaceOnUse" xlink:href="#linearGradient3837"/>
  <radialGradient id="radialGradient3189" cx="33.249" cy="41.297" r="2.674" fx="33.626" gradientTransform="matrix(3.6594 -3.0216e-7 3.0216e-7 3.6594 -94.121 -125.36)" gradientUnits="userSpaceOnUse" xlink:href="#linearGradient3837"/>
 </defs>
 <g id="layer1" transform="translate(0,16)">
  <path id="path2862" d="m27-12.5c-2.2053 0-6.0219-0.0067-6.4062 2.088-2.5938-0.1875-4.5938 1.287-4.5938 3.412-3.2611-0.85573-5.8584-0.14713-6.3584 2.4779-0.27376 1.4372 0.3584 2.5221 0.1204 2.8034-3.762 1.7188-4.262 4.164-4.262 5.75 0 2.4726 3.9962 2.4688 6.4688 2.4688 4.6349 2.2674 8.3327 0.54154 13.031 0 2.1719 0 5 2.5 8 2.5 2.1719 0 4.8594-2.5 7.0312-2.5 2.4726 0 4.6008-1.9997 4.4688-4.4688-0.11947-2.234-4.1875-3.8125-4.1875-3.8125s-1.2816-6.0085-6.8125-4.2608c1.7699-1.5664 1.1477-3.9359-0.5-3.458-0.24629 0.07143-1.5052 0.02123-1.75 0.0625-0.60278-1.7752-2.2719-3.0625-4.25-3.0625z" style="filter:url(#filter3636);opacity:.3"/>
  <path id="rect3758" d="m27-12.5c-2.2053 0-6.0219-0.0067-6.4062 2.088-2.5938-0.1875-4.5938 1.287-4.5938 3.412-3.2611-0.85573-5.8584-0.14713-6.3584 2.4779-0.27376 1.4372 0.3584 2.5221 0.1204 2.8034-3.762 1.7188-4.262 4.164-4.262 5.75 0 2.4726 3.9962 2.4688 6.4688 2.4688 4.6349 2.2674 8.3327 0.54154 13.031 0 2.1719 0 5 2.5 8 2.5 2.1719 0 4.8594-2.5 7.0312-2.5 2.4726 0 4.6008-1.9997 4.4688-4.4688-0.11947-2.234-4.1875-3.8125-4.1875-3.8125s-1.2816-6.0085-6.8125-4.2608c1.7699-1.5664 1.1477-3.9359-0.5-3.458-0.24629 0.07143-1.5052 0.02123-1.75 0.0625-0.60278-1.7752-2.2719-3.0625-4.25-3.0625z" style="fill:#e3e3e2;stroke-linecap:square;stroke-linejoin:round;stroke:#b4b5b3"/>
  <path id="path3835" d="m23.478-6.5221c0 2.2091-1.7909 4-4 4-2.2091 0-3-1.7909-3-4 0-2.2091 1-3 3-3 2.2091 0 4 0.79086 4 3z" style="fill:url(#radialGradient2423)"/>
  <path id="path3847" d="m18.044-3.7611c0 2.2091-1.7909 3-4 3-3 0-4-0.79086-4-3 0-2.2091 1.7909-3 4-3 2.2091 0 4 0.79086 4 3z" style="fill:url(#radialGradient2420)"/>
  <path id="path3851" d="m14 4c0 2.2091-1.7909 2-4 2-2.2091 0-4-1-4-2 0.044269-1.8805 2-4 4-5 1.9759-0.98796 4 2.7909 4 5z" style="fill:url(#radialGradient2417)"/>
  <path id="path3855" d="m28.478-7.7611c0 2.2091-1.7909 4-4 4-2.2091 0-4-1.7909-4-4 0-2.2091 1.7909-4 4-4 2.2091 0 4 1.7909 4 4z" style="fill:url(#radialGradient2414)"/>
  <path id="path3859" d="m21.358 2.5973c0 2.6227-2.1261 4.7487-4.7487 4.7487-2.6227 0-4.7487-2.1261-4.7487-4.7487s2.1261-4.7487 4.7487-4.7487c2.6227 0 4.7487 2.1261 4.7487 4.7487z" style="fill:url(#radialGradient2411)"/>
  <path id="path2872" d="m43.784 1.8381c0 2.2091-1.7909 4-4 4-2.2091 0-4-1.7909-4-4 0-2.2091 1.9181-2.9576 4.1272-2.9576 1 0 4 2 3.8728 2.9576z" style="fill:url(#radialGradient2874)"/>
  <path id="path2876" d="m39.306-1.892c0 2.2091-1.7909 4-4 4-2.2091 0-4-1.7909-4-4 0-2.2091 1.7909-4 4-4 2.2091 0 4 1.7909 4 4z" style="fill:url(#radialGradient2878)"/>
  <path id="path2880" d="m34-7.5645c-1.9115 1.7313-2.1884 3.8805-3.8002 4-2.2031 0.16329-4-1.7909-4-4 0-2.2091 2.5154-5.0195 4.1272-0.95759 1.1272 0.04241 3.673-1.2515 3.673 0.95759z" style="fill:url(#radialGradient2882)"/>
  <path id="path2884" d="m27.873-2.1619c0 2.2091-1.7909 4-4 4-2.2091 0-4-1.7909-4-4 0-2.2091 1.7909-2 4-2 1.1272-0.95759 4-0.20914 4 2z" style="fill:url(#radialGradient2886)"/>
  <path id="path2888" d="m36 4c0 2.2091-1.7909 4-4 4-2.2091 0-4-1.7909-4-4 0-2.2091 1.9181-2.9576 4.1272-2.9576 1 0 3.8728 0.74845 3.8728 2.9576z" style="fill:url(#radialGradient2890)"/>
  <path id="path2892" d="m29.553 3.7611c0 2.2091-1.7909 2-4 2-2.2091 0-4-1-4-2 1-2 2-4 4-5 1.9759-0.98796 4 2.7909 4 5z" style="fill:url(#radialGradient2894)"/>
  <path id="path3143" d="m25 5.5c-2.2053 0-6.0219-0.0067-6.4062 2.088-2.5938-0.1875-4.5938 1.287-4.5938 3.412-3.2611-0.85573-5.8584-0.14714-6.3584 2.4779-0.27376 1.4372 0.3584 2.5221 0.1204 2.8034-3.762 1.7188-4.262 4.164-4.262 5.75 0 2.4726 3.9962 2.4688 6.4688 2.4688 4.6349 2.2674 8.3327 0.54154 13.031 0 2.1719 0 5 2.5 8 2.5 2.1719 0 4.8594-2.5 7.0312-2.5 2.4726 0 4.6008-1.9997 4.4688-4.4688-0.11947-2.234-4.1875-3.8125-4.1875-3.8125s-1.2816-6.0085-6.8125-4.2608c1.7699-1.5664 1.1477-3.9359-0.5-3.458-0.24629 0.07143-1.5052 0.02123-1.75 0.0625-0.60278-1.7752-2.2719-3.0625-4.25-3.0625z" style="filter:url(#filter3636);opacity:.3"/>
  <path id="path3145" d="m25 5.5c-2.2053 0-6.0219-0.0067-6.4062 2.088-2.5938-0.1875-4.5938 1.287-4.5938 3.412-3.2611-0.85573-5.8584-0.14714-6.3584 2.4779-0.27376 1.4372 0.3584 2.5221 0.1204 2.8034-3.762 1.7188-4.262 4.164-4.262 5.75 0 2.4726 3.9962 2.4688 6.4688 2.4688 4.6349 2.2674 8.3327 0.54154 13.031 0 2.1719 0 5 2.5 8 2.5 2.1719 0 4.8594-2.5 7.0312-2.5 2.4726 0 4.6008-1.9997 4.4688-4.4688-0.11947-2.234-4.1875-3.8125-4.1875-3.8125s-1.2816-6.0085-6.8125-4.2608c1.7699-1.5664 1.1477-3.9359-0.5-3.458-0.24629 0.07143-1.5052 0.02123-1.75 0.0625-0.60278-1.7752-2.2719-3.0625-4.25-3.0625z" style="fill:#e3e3e2;stroke-linecap:square;stroke-linejoin:round;stroke:#b4b5b3"/>
  <path id="path3147" d="m21.478 11.478c0 2.2091-1.7909 4-4 4-2.2091 0-3-1.7909-3-4 0-2.2091 1-3 3-3 2.2091 0 4 0.79086 4 3z" style="fill:url(#radialGradient3169)"/>
  <path id="path3149" d="m16.044 14.239c0 2.2091-1.7909 3-4 3-3 0-4-0.79086-4-3 0-2.2091 1.7909-3 4-3 2.2091 0 4 0.79086 4 3z" style="fill:url(#radialGradient3171)"/>
  <path id="path3151" d="m12 22c0 2.2091-1.7909 2-4 2-2.2091 0-4-1-4-2 0.044269-1.8805 2-4 4-5 1.9759-0.98796 4 2.7909 4 5z" style="fill:url(#radialGradient3173)"/>
  <path id="path3153" d="m26.478 10.239c0 2.2091-1.7909 4-4 4-2.2091 0-4-1.7909-4-4 0-2.2091 1.7909-4 4-4 2.2091 0 4 1.7909 4 4z" style="fill:url(#radialGradient3175)"/>
  <path id="path3155" d="m19.358 20.597c0 2.6227-2.1261 4.7487-4.7487 4.7487-2.6227 0-4.7487-2.1261-4.7487-4.7487s2.1261-4.7487 4.7487-4.7487c2.6227 0 4.7487 2.1261 4.7487 4.7487z" style="fill:url(#radialGradient3177)"/>
  <path id="path3157" d="m41.784 19.838c0 2.2091-1.7909 4-4 4-2.2091 0-4-1.7909-4-4 0-2.2091 1.9181-2.9576 4.1272-2.9576 1 0 4 2 3.8728 2.9576z" style="fill:url(#radialGradient3179)"/>
  <path id="path3159" d="m37.306 16.108c0 2.2091-1.7909 4-4 4-2.2091 0-4-1.7909-4-4 0-2.2091 1.7909-4 4-4 2.2091 0 4 1.7909 4 4z" style="fill:url(#radialGradient3181)"/>
  <path id="path3161" d="m32 10.435c-1.9115 1.7313-2.1884 3.8805-3.8002 4-2.2031 0.16329-4-1.7909-4-4 0-2.2091 2.5154-5.0195 4.1272-0.95759 1.1272 0.04241 3.673-1.2515 3.673 0.95759z" style="fill:url(#radialGradient3183)"/>
  <path id="path3163" d="m25.873 15.838c0 2.2091-1.7909 4-4 4-2.2091 0-4-1.7909-4-4 0-2.2091 1.7909-2 4-2 1.1272-0.95759 4-0.20914 4 2z" style="fill:url(#radialGradient3185)"/>
  <path id="path3165" d="m34 22c0 2.2091-1.7909 4-4 4-2.2091 0-4-1.7909-4-4 0-2.2091 1.9181-2.9576 4.1272-2.9576 1 0 3.8728 0.74845 3.8728 2.9576z" style="fill:url(#radialGradient3187)"/>
  <path id="path3167" d="m27.553 21.761c0 2.2091-1.7909 2-4 2-2.2091 0-4-1-4-2 1-2 2-4 4-5 1.9759-0.98796 4 2.7909 4 5z" style="fill:url(#radialGradient3189)"/>
 </g>
</svg>
