<?xml version="1.0" encoding="utf-8"?>
<!-- Uploaded to: SVG Repo, www.svgrepo.com, Generator: SVG Repo Mixer Tools -->
<svg width="800px" height="800px" viewBox="0 0 24 24" fill="none" xmlns="http://www.w3.org/2000/svg">
<g id="style=bulk">
<g id="wifi-twowave">
<path id="rectangle" d="M1.25 7.25C1.25 3.93629 3.93629 1.25 7.25 1.25H16.75C20.0637 1.25 22.75 3.93629 22.75 7.25V16.75C22.75 20.0637 20.0637 22.75 16.75 22.75H7.25C3.93629 22.75 1.25 20.0637 1.25 16.75V7.25Z" fill="#BFBFBF"/>
<path id="ellipse (Stroke)" fill-rule="evenodd" clip-rule="evenodd" d="M10.5 16.5C10.5 15.6716 11.1716 15 12 15H12.0075C12.8359 15 13.5075 15.6716 13.5075 16.5C13.5075 17.3284 12.8359 18 12.0075 18H12C11.1716 18 10.5 17.3284 10.5 16.5Z" fill="#000000"/>
<path id="vector (Stroke)" fill-rule="evenodd" clip-rule="evenodd" d="M18.5417 11.0506C14.5697 7.98313 9.43044 7.98313 5.45845 11.0506C5.13062 11.3038 4.65962 11.2433 4.40644 10.9154C4.15327 10.5876 4.21379 10.1166 4.54162 9.86342C9.05368 6.37886 14.9465 6.37886 19.4585 9.86342C19.7864 10.1166 19.8469 10.5876 19.5937 10.9154C19.3405 11.2433 18.8695 11.3038 18.5417 11.0506Z" fill="#000000"/>
<path id="vector (Stroke)_2" fill-rule="evenodd" clip-rule="evenodd" d="M15.1808 14.041C13.2462 12.5425 10.747 12.5425 8.81234 14.041C8.48488 14.2947 8.01379 14.2349 7.76014 13.9074C7.50648 13.5799 7.56632 13.1088 7.89378 12.8552C10.3692 10.9378 13.624 10.9378 16.0994 12.8552C16.4268 13.1088 16.4867 13.5799 16.233 13.9074C15.9794 14.2349 15.5083 14.2947 15.1808 14.041Z" fill="#000000"/>
</g>
</g>
</svg>