<?xml version="1.0" encoding="UTF-8"?>
<!-- Created with Inkscape (http://www.inkscape.org/) -->
<svg id="svg2862" width="48" height="48" version="1.1" xmlns="http://www.w3.org/2000/svg" xmlns:xlink="http://www.w3.org/1999/xlink">
 <defs id="defs2864">
  <radialGradient id="radialGradient2894" cx="33.249" cy="41.297" r="2.674" fx="33.626" gradientTransform="matrix(3.6594 -3.0216e-7 3.0216e-7 3.6594 -93.12 -143.36)" gradientUnits="userSpaceOnUse" xlink:href="#linearGradient3837"/>
  <linearGradient id="linearGradient3837">
   <stop id="stop3839" style="stop-color:#e3e3e2;stop-opacity:0" offset="0"/>
   <stop id="stop3845" style="stop-color:#d4d4d3" offset=".61194"/>
   <stop id="stop3841" style="stop-color:#fff" offset="1"/>
  </linearGradient>
  <radialGradient id="radialGradient2890" cx="33.249" cy="41.297" r="2.674" fx="33.626" gradientTransform="matrix(3.6594 -3.0216e-7 3.0216e-7 3.6594 -86.673 -143.12)" gradientUnits="userSpaceOnUse" xlink:href="#linearGradient3837"/>
  <radialGradient id="radialGradient2886" cx="33.249" cy="41.297" r="2.674" fx="33.626" gradientTransform="matrix(3.6594 -3.0216e-7 3.0216e-7 3.6594 -94.8 -149.29)" gradientUnits="userSpaceOnUse" xlink:href="#linearGradient3837"/>
  <radialGradient id="radialGradient2882" cx="33.249" cy="41.297" r="2.674" fx="33.626" gradientTransform="matrix(3.6594 -3.0216e-7 3.0216e-7 3.6594 -88.473 -154.69)" gradientUnits="userSpaceOnUse" xlink:href="#linearGradient3837"/>
  <radialGradient id="radialGradient2878" cx="33.249" cy="41.297" r="2.674" fx="33.626" gradientTransform="matrix(3.6594 -3.0216e-7 3.0216e-7 3.6594 -83.367 -149.02)" gradientUnits="userSpaceOnUse" xlink:href="#linearGradient3837"/>
  <radialGradient id="radialGradient2874" cx="33.249" cy="41.297" r="2.674" fx="33.626" gradientTransform="matrix(3.6594 -3.0216e-7 3.0216e-7 3.6594 -78.889 -145.29)" gradientUnits="userSpaceOnUse" xlink:href="#linearGradient3837"/>
  <radialGradient id="radialGradient2411" cx="33.249" cy="41.297" r="2.674" fx="33.626" gradientTransform="matrix(4.3444 -3.5871e-7 3.5871e-7 4.3444 -124.09 -172.07)" gradientUnits="userSpaceOnUse" xlink:href="#linearGradient3837"/>
  <radialGradient id="radialGradient2414" cx="33.249" cy="41.297" r="2.674" fx="33.626" gradientTransform="matrix(3.6594 -3.0216e-7 3.0216e-7 3.6594 -94.195 -154.88)" gradientUnits="userSpaceOnUse" xlink:href="#linearGradient3837"/>
  <radialGradient id="radialGradient2417" cx="33.249" cy="41.297" r="2.674" fx="33.626" gradientTransform="matrix(3.6594 -3.0216e-7 3.0216e-7 3.6594 -108.67 -143.12)" gradientUnits="userSpaceOnUse" xlink:href="#linearGradient3837"/>
  <radialGradient id="radialGradient2420" cx="33.249" cy="41.297" r="2.674" fx="33.626" gradientTransform="matrix(3.6594 -3.0216e-7 3.0216e-7 3.6594 -104.63 -150.88)" gradientUnits="userSpaceOnUse" xlink:href="#linearGradient3837"/>
  <radialGradient id="radialGradient2423" cx="33.249" cy="41.297" r="2.674" fx="33.626" gradientTransform="matrix(3.6594 -3.0216e-7 3.0216e-7 3.6594 -99.195 -153.65)" gradientUnits="userSpaceOnUse" xlink:href="#linearGradient3837"/>
  <filter id="filter3636" x="-.093072" y="-.16885" width="1.1861" height="1.3377" color-interpolation-filters="sRGB">
   <feGaussianBlur id="feGaussianBlur3638" stdDeviation="1.5126458"/>
  </filter>
  <linearGradient id="linearGradient3417" x1="23.119" x2="28.016" y1="89.516" y2="89.516" gradientTransform="matrix(.9203 .39122 -.39122 .9203 26.895 -14.527)" gradientUnits="userSpaceOnUse" xlink:href="#linearGradient3907"/>
  <linearGradient id="linearGradient3907">
   <stop id="stop3909" style="stop-color:#8badea" offset="0"/>
   <stop id="stop3911" style="stop-color:#3b7caf" offset="1"/>
  </linearGradient>
  <linearGradient id="linearGradient3420" x1="24.308" x2="24.308" y1="165.42" y2="150.61" gradientTransform="matrix(.9203 .39122 -.39122 .9203 54.852 -77.075)" gradientUnits="userSpaceOnUse" xlink:href="#linearGradient3419"/>
  <linearGradient id="linearGradient3419">
   <stop id="stop3421" style="stop-color:#4083c2" offset="0"/>
   <stop id="stop3423" style="stop-color:#4083c2;stop-opacity:0" offset="1"/>
  </linearGradient>
  <linearGradient id="linearGradient3429">
   <stop id="stop3431" style="stop-color:#fff" offset="0"/>
   <stop id="stop3433" style="stop-color:#fff;stop-opacity:0" offset="1"/>
  </linearGradient>
  <radialGradient id="radialGradient3676" cx="24.308" cy="158.02" r="1.9484" gradientTransform="matrix(.9203 .39122 -1.3867 3.262 212.15 -447.1)" gradientUnits="userSpaceOnUse" xlink:href="#linearGradient3429"/>
  <linearGradient id="linearGradient3703" x1="23.119" x2="28.016" y1="89.516" y2="89.516" gradientTransform="matrix(.9203 .39122 -.39122 .9203 51.51 -14.527)" gradientUnits="userSpaceOnUse" xlink:href="#linearGradient3907"/>
  <linearGradient id="linearGradient3705" x1="24.308" x2="24.308" y1="165.42" y2="150.61" gradientTransform="matrix(.9203 .39122 -.39122 .9203 79.468 -77.075)" gradientUnits="userSpaceOnUse" xlink:href="#linearGradient3419"/>
  <radialGradient id="radialGradient3707" cx="24.308" cy="158.02" r="1.9484" gradientTransform="matrix(.9203 .39122 -1.3867 3.262 236.76 -447.1)" gradientUnits="userSpaceOnUse" xlink:href="#linearGradient3429"/>
  <linearGradient id="linearGradient3713" x1="23.119" x2="28.016" y1="89.516" y2="89.516" gradientTransform="matrix(.9203 .39122 -.39122 .9203 76.125 -14.527)" gradientUnits="userSpaceOnUse" xlink:href="#linearGradient3907"/>
  <linearGradient id="linearGradient3715" x1="24.308" x2="24.308" y1="165.42" y2="150.61" gradientTransform="matrix(.9203 .39122 -.39122 .9203 104.08 -77.075)" gradientUnits="userSpaceOnUse" xlink:href="#linearGradient3419"/>
  <radialGradient id="radialGradient3717" cx="24.308" cy="158.02" r="1.9484" gradientTransform="matrix(.9203 .39122 -1.3867 3.262 261.38 -447.1)" gradientUnits="userSpaceOnUse" xlink:href="#linearGradient3429"/>
  <linearGradient id="linearGradient3731" x1="23.119" x2="28.016" y1="89.516" y2="89.516" gradientTransform="matrix(.9203 .39122 -.39122 .9203 17.049 5.1651)" gradientUnits="userSpaceOnUse" xlink:href="#linearGradient3907"/>
  <linearGradient id="linearGradient3733" x1="24.308" x2="24.308" y1="165.42" y2="150.61" gradientTransform="matrix(.9203 .39122 -.39122 .9203 45.006 -57.382)" gradientUnits="userSpaceOnUse" xlink:href="#linearGradient3419"/>
  <radialGradient id="radialGradient3735" cx="24.308" cy="158.02" r="1.9484" gradientTransform="matrix(.9203 .39122 -1.3867 3.262 202.3 -427.41)" gradientUnits="userSpaceOnUse" xlink:href="#linearGradient3429"/>
  <linearGradient id="linearGradient3737" x1="23.119" x2="28.016" y1="89.516" y2="89.516" gradientTransform="matrix(.9203 .39122 -.39122 .9203 41.664 5.1651)" gradientUnits="userSpaceOnUse" xlink:href="#linearGradient3907"/>
  <linearGradient id="linearGradient3739" x1="24.308" x2="24.308" y1="165.42" y2="150.61" gradientTransform="matrix(.9203 .39122 -.39122 .9203 69.621 -57.382)" gradientUnits="userSpaceOnUse" xlink:href="#linearGradient3419"/>
  <radialGradient id="radialGradient3741" cx="24.308" cy="158.02" r="1.9484" gradientTransform="matrix(.9203 .39122 -1.3867 3.262 226.92 -427.41)" gradientUnits="userSpaceOnUse" xlink:href="#linearGradient3429"/>
  <linearGradient id="linearGradient3743" x1="23.119" x2="28.016" y1="89.516" y2="89.516" gradientTransform="matrix(.9203 .39122 -.39122 .9203 66.279 5.1651)" gradientUnits="userSpaceOnUse" xlink:href="#linearGradient3907"/>
  <linearGradient id="linearGradient3745" x1="24.308" x2="24.308" y1="165.42" y2="150.61" gradientTransform="matrix(.9203 .39122 -.39122 .9203 94.237 -57.382)" gradientUnits="userSpaceOnUse" xlink:href="#linearGradient3419"/>
  <radialGradient id="radialGradient3747" cx="24.308" cy="158.02" r="1.9484" gradientTransform="matrix(.9203 .39122 -1.3867 3.262 251.53 -427.41)" gradientUnits="userSpaceOnUse" xlink:href="#linearGradient3429"/>
  <linearGradient id="linearGradient3814" x1="22.235" x2="22.635" y1="-12.668" y2="11.955" gradientUnits="userSpaceOnUse">
   <stop id="stop3810" style="stop-color:#fbfbfb" offset="0"/>
   <stop id="stop3812" style="stop-color:#fbfbfb;stop-opacity:0" offset="1"/>
  </linearGradient>
 </defs>
 <g id="layer1" transform="translate(0,16)">
  <path id="path2862" d="m26-12.5c-2.2053 0-6.0219-0.0067-6.4062 2.088-2.5938-0.1875-4.5938 1.287-4.5938 3.412-3.2611-0.85573-5.8584-0.14713-6.3584 2.4779-0.27376 1.4372 0.3584 2.5221 0.1204 2.8034-3.762 1.7188-4.262 4.164-4.262 5.75 0 2.4726 3.9962 2.4688 6.4688 2.4688 4.6349 2.2674 8.3327 0.54154 13.031 0 2.1719 0 5 2.5 8 2.5 2.1719 0 4.8594-2.5 7.0312-2.5 2.4726 0 4.6008-1.9997 4.4688-4.4688-0.11947-2.234-4.1875-3.8125-4.1875-3.8125s-1.2816-6.0085-6.8125-4.2608c1.7699-1.5664 1.1477-3.9359-0.5-3.458-0.24629 0.07143-1.5052 0.02123-1.75 0.0625-0.60278-1.7752-2.2719-3.0625-4.25-3.0625z" style="filter:url(#filter3636);opacity:.3"/>
  <path id="rect3758" d="m26-12.5c-2.2053 0-6.0219-0.0067-6.4062 2.088-2.5938-0.1875-4.5938 1.287-4.5938 3.412-3.2611-0.85573-5.8584-0.14713-6.3584 2.4779-0.27376 1.4372 0.3584 2.5221 0.1204 2.8034-3.762 1.7188-4.262 4.164-4.262 5.75 0 2.4726 3.9962 2.4688 6.4688 2.4688 4.6349 2.2674 8.3327 0.54154 13.031 0 2.1719 0 5 2.5 8 2.5 2.1719 0 4.8594-2.5 7.0312-2.5 2.4726 0 4.6008-1.9997 4.4688-4.4688-0.11947-2.234-4.1875-3.8125-4.1875-3.8125s-1.2816-6.0085-6.8125-4.2608c1.7699-1.5664 1.1477-3.9359-0.5-3.458-0.24629 0.07143-1.5052 0.02123-1.75 0.0625-0.60278-1.7752-2.2719-3.0625-4.25-3.0625z" style="fill:#e3e3e2;stroke-linecap:square;stroke-linejoin:round;stroke:#b4b5b3"/>
  <path id="path3835" d="m22.478-6.5221c0 2.2091-1.7909 4-4 4-2.2091 0-3-1.7909-3-4 0-2.2091 1-3 3-3 2.2091 0 4 0.79086 4 3z" style="fill:url(#radialGradient2423)"/>
  <path id="path3847" d="m17.045-3.7611c0 2.2091-1.7909 3-4 3-3 0-4-0.79086-4-3 0-2.2091 1.7909-3 4-3 2.2091 0 4 0.79086 4 3z" style="fill:url(#radialGradient2420)"/>
  <path id="path3851" d="m13 4c0 2.2091-1.7909 2-4 2-2.2091 0-4-1-4-2 0.044269-1.8805 2-4 4-5 1.9759-0.98796 4 2.7909 4 5z" style="fill:url(#radialGradient2417)"/>
  <path id="path3855" d="m27.478-7.7611c0 2.2091-1.7909 4-4 4-2.2091 0-4-1.7909-4-4 0-2.2091 1.7909-4 4-4 2.2091 0 4 1.7909 4 4z" style="fill:url(#radialGradient2414)"/>
  <path id="path3859" d="m20.359 2.5973c0 2.6227-2.1261 4.7487-4.7487 4.7487-2.6227 0-4.7487-2.1261-4.7487-4.7487s2.1261-4.7487 4.7487-4.7487c2.6227 0 4.7487 2.1261 4.7487 4.7487z" style="fill:url(#radialGradient2411)"/>
  <path id="path2872" d="m42.785 1.8381c0 2.2091-1.7909 4-4 4-2.2091 0-4-1.7909-4-4 0-2.2091 1.9181-2.9576 4.1272-2.9576 1 0 4 2 3.8728 2.9576z" style="fill:url(#radialGradient2874)"/>
  <path id="path2876" d="m38.307-1.892c0 2.2091-1.7909 4-4 4-2.2091 0-4-1.7909-4-4 0-2.2091 1.7909-4 4-4 2.2091 0 4 1.7909 4 4z" style="fill:url(#radialGradient2878)"/>
  <path id="path2880" d="m33.001-7.5645c-1.9115 1.7313-2.1884 3.8805-3.8002 4-2.2031 0.16329-4-1.7909-4-4 0-2.2091 2.5154-5.0195 4.1272-0.95759 1.1272 0.04241 3.673-1.2515 3.673 0.95759z" style="fill:url(#radialGradient2882)"/>
  <path id="path2884" d="m26.873-2.1619c0 2.2091-1.7909 4-4 4-2.2091 0-4-1.7909-4-4 0-2.2091 1.7909-2 4-2 1.1272-0.95759 4-0.20914 4 2z" style="fill:url(#radialGradient2886)"/>
  <path id="path2888" d="m35 4c0 2.2091-1.7909 4-4 4-2.2091 0-4-1.7909-4-4 0-2.2091 1.9181-2.9576 4.1272-2.9576 1 0 3.8728 0.74845 3.8728 2.9576z" style="fill:url(#radialGradient2890)"/>
  <path id="path2892" d="m28.553 3.7611c0 2.2091-1.7909 2-4 2-2.2091 0-4-1-4-2 1-2 2-4 4-5 1.9759-0.98796 4 2.7909 4 5z" style="fill:url(#radialGradient2894)"/>
  <g id="g3174" transform="matrix(.40625 0 0 .40625 7.5192 -16.465)" style="enable-background:new">
   <g id="g3910">
    <g id="g3770" transform="translate(4.1853)">
     <path id="path3176" d="m18.414 71.632s-6.9795 7.7035-6.8134 11.184c0.06146 1.2876 1.7921 1.975 2.7748 1.1796 2.6087-2.1116 4.0386-12.363 4.0386-12.363z" style="fill-rule:evenodd;fill:url(#linearGradient3417);stroke:url(#linearGradient3420)"/>
     <path id="path3178" d="m18.414 71.632s-6.9795 7.7035-6.8134 11.184c0.06146 1.2876 1.7921 1.975 2.7748 1.1796 2.6087-2.1116 4.0386-12.363 4.0386-12.363z" style="enable-background:new;fill-rule:evenodd;fill:url(#radialGradient3676)"/>
     <path id="path3699" d="m43.029 71.632s-6.9795 7.7035-6.8134 11.184c0.06146 1.2876 1.7921 1.975 2.7748 1.1796 2.6087-2.1116 4.0386-12.363 4.0386-12.363z" style="fill-rule:evenodd;fill:url(#linearGradient3703);stroke:url(#linearGradient3705)"/>
     <path id="path3701" d="m43.029 71.632s-6.9795 7.7035-6.8134 11.184c0.06146 1.2876 1.7921 1.975 2.7748 1.1796 2.6087-2.1116 4.0386-12.363 4.0386-12.363z" style="enable-background:new;fill-rule:evenodd;fill:url(#radialGradient3707)"/>
     <path id="path3709" d="m67.644 71.632s-6.9795 7.7035-6.8134 11.184c0.06146 1.2876 1.7921 1.975 2.7748 1.1796 2.6087-2.1116 4.0386-12.363 4.0386-12.363z" style="fill-rule:evenodd;fill:url(#linearGradient3713);stroke:url(#linearGradient3715)"/>
     <path id="path3711" d="m67.644 71.632s-6.9795 7.7035-6.8134 11.184c0.06146 1.2876 1.7921 1.975 2.7748 1.1796 2.6087-2.1116 4.0386-12.363 4.0386-12.363z" style="enable-background:new;fill-rule:evenodd;fill:url(#radialGradient3717)"/>
     <path id="path3719" d="m8.5679 91.325s-6.9795 7.7035-6.8134 11.184c0.06146 1.2876 1.7921 1.975 2.7748 1.1796 2.6087-2.1116 4.0386-12.363 4.0386-12.363z" style="fill-rule:evenodd;fill:url(#linearGradient3731);stroke:url(#linearGradient3733)"/>
     <path id="path3721" d="m8.5679 91.325s-6.9795 7.7035-6.8134 11.184c0.06146 1.2876 1.7921 1.975 2.7748 1.1796 2.6087-2.1116 4.0386-12.363 4.0386-12.363z" style="enable-background:new;fill-rule:evenodd;fill:url(#radialGradient3735)"/>
     <path id="path3723" d="m33.183 91.325s-6.9795 7.7035-6.8134 11.184c0.06146 1.2876 1.7921 1.975 2.7748 1.1796 2.6087-2.1116 4.0386-12.363 4.0386-12.363z" style="fill-rule:evenodd;fill:url(#linearGradient3737);stroke:url(#linearGradient3739)"/>
     <path id="path3725" d="m33.183 91.325s-6.9795 7.7035-6.8134 11.184c0.06146 1.2876 1.7921 1.975 2.7748 1.1796 2.6087-2.1116 4.0386-12.363 4.0386-12.363z" style="enable-background:new;fill-rule:evenodd;fill:url(#radialGradient3741)"/>
     <path id="path3727" d="m57.798 91.325s-6.9795 7.7035-6.8134 11.184c0.06146 1.2876 1.7921 1.975 2.7748 1.1796 2.6087-2.1116 4.0386-12.363 4.0386-12.363z" style="fill-rule:evenodd;fill:url(#linearGradient3743);stroke:url(#linearGradient3745)"/>
     <path id="path3729" d="m57.798 91.325s-6.9795 7.7035-6.8134 11.184c0.06146 1.2876 1.7921 1.975 2.7748 1.1796 2.6087-2.1116 4.0386-12.363 4.0386-12.363z" style="enable-background:new;fill-rule:evenodd;fill:url(#radialGradient3747)"/>
    </g>
    <g id="g3805" transform="translate(-5.6608 -9.8461)">
     <path id="path3807" d="m18.414 71.632s-6.9795 7.7035-6.8134 11.184c0.06146 1.2876 1.7921 1.975 2.7748 1.1796 2.6087-2.1116 4.0386-12.363 4.0386-12.363z" style="fill-rule:evenodd;fill:url(#linearGradient3417);stroke:url(#linearGradient3420)"/>
     <path id="path3809" d="m18.414 71.632s-6.9795 7.7035-6.8134 11.184c0.06146 1.2876 1.7921 1.975 2.7748 1.1796 2.6087-2.1116 4.0386-12.363 4.0386-12.363z" style="enable-background:new;fill-rule:evenodd;fill:url(#radialGradient3676)"/>
     <path id="path3811" d="m43.029 71.632s-6.9795 7.7035-6.8134 11.184c0.06146 1.2876 1.7921 1.975 2.7748 1.1796 2.6087-2.1116 4.0386-12.363 4.0386-12.363z" style="fill-rule:evenodd;fill:url(#linearGradient3703);stroke:url(#linearGradient3705)"/>
     <path id="path3813" d="m43.029 71.632s-6.9795 7.7035-6.8134 11.184c0.06146 1.2876 1.7921 1.975 2.7748 1.1796 2.6087-2.1116 4.0386-12.363 4.0386-12.363z" style="enable-background:new;fill-rule:evenodd;fill:url(#radialGradient3707)"/>
     <path id="path3815" d="m67.644 71.632s-6.9795 7.7035-6.8134 11.184c0.06146 1.2876 1.7921 1.975 2.7748 1.1796 2.6087-2.1116 4.0386-12.363 4.0386-12.363z" style="fill-rule:evenodd;fill:url(#linearGradient3713);stroke:url(#linearGradient3715)"/>
     <path id="path3817" d="m67.644 71.632s-6.9795 7.7035-6.8134 11.184c0.06146 1.2876 1.7921 1.975 2.7748 1.1796 2.6087-2.1116 4.0386-12.363 4.0386-12.363z" style="enable-background:new;fill-rule:evenodd;fill:url(#radialGradient3717)"/>
     <path id="path3819" d="m8.5679 91.325s-6.9795 7.7035-6.8134 11.184c0.06146 1.2876 1.7921 1.975 2.7748 1.1796 2.6087-2.1116 4.0386-12.363 4.0386-12.363z" style="fill-rule:evenodd;fill:url(#linearGradient3731);stroke:url(#linearGradient3733)"/>
     <path id="path3821" d="m8.5679 91.325s-6.9795 7.7035-6.8134 11.184c0.06146 1.2876 1.7921 1.975 2.7748 1.1796 2.6087-2.1116 4.0386-12.363 4.0386-12.363z" style="enable-background:new;fill-rule:evenodd;fill:url(#radialGradient3735)"/>
     <path id="path3823" d="m33.183 91.325s-6.9795 7.7035-6.8134 11.184c0.06146 1.2876 1.7921 1.975 2.7748 1.1796 2.6087-2.1116 4.0386-12.363 4.0386-12.363z" style="fill-rule:evenodd;fill:url(#linearGradient3737);stroke:url(#linearGradient3739)"/>
     <path id="path3825" d="m33.183 91.325s-6.9795 7.7035-6.8134 11.184c0.06146 1.2876 1.7921 1.975 2.7748 1.1796 2.6087-2.1116 4.0386-12.363 4.0386-12.363z" style="enable-background:new;fill-rule:evenodd;fill:url(#radialGradient3741)"/>
     <path id="path3827" d="m57.798 91.325s-6.9795 7.7035-6.8134 11.184c0.06146 1.2876 1.7921 1.975 2.7748 1.1796 2.6087-2.1116 4.0386-12.363 4.0386-12.363z" style="fill-rule:evenodd;fill:url(#linearGradient3743);stroke:url(#linearGradient3745)"/>
     <path id="path3829" d="m57.798 91.325s-6.9795 7.7035-6.8134 11.184c0.06146 1.2876 1.7921 1.975 2.7748 1.1796 2.6087-2.1116 4.0386-12.363 4.0386-12.363z" style="enable-background:new;fill-rule:evenodd;fill:url(#radialGradient3747)"/>
    </g>
   </g>
  </g>
  <path id="path3759" d="m26-12.5c-2.2053 0-6.0219-0.0067-6.4062 2.088-2.5938-0.1875-4.5938 1.287-4.5938 3.412-3.2611-0.85573-5.8584-0.14713-6.3584 2.4779-0.27376 1.4372 0.3584 2.5221 0.1204 2.8034-3.762 1.7188-4.262 4.164-4.262 5.75 0 2.4726 3.9962 2.4688 6.4688 2.4688 4.6349 2.2674 8.3327 0.54154 13.031 0 2.1719 0 5 2.5 8 2.5 2.1719 0 4.8594-2.5 7.0312-2.5 2.4726 0 4.6008-1.9997 4.4688-4.4688-0.11947-2.234-4.1875-3.8125-4.1875-3.8125s-1.2816-6.0085-6.8125-4.2608c1.7699-1.5664 1.1477-3.9359-0.5-3.458-0.24629 0.07143-1.5052 0.02123-1.75 0.0625-0.60278-1.7752-2.2719-3.0625-4.25-3.0625z" style="opacity:.24;stroke-linecap:square;stroke-linejoin:round;stroke-opacity:.32292;stroke:#000"/>
  <path id="path3798" d="m26-11.75c-1.1027 0-2.5557 0.01191-3.7188 0.25-0.58151 0.11905-1.0837 0.31845-1.4062 0.53125s-0.47541 0.38315-0.53125 0.6875a0.75905 0.75905 0 0 1-0.8125 0.625c-1.1407-0.082463-2.0945 0.2029-2.75 0.6875s-1.0312 1.1444-1.0312 1.9688a0.75905 0.75905 0 0 1-0.9375 0.71875c-1.5338-0.40249-2.8771-0.38342-3.7812-0.0625s-1.4176 0.88003-1.625 1.9688c-0.11101 0.58281-0.050791 1.1042 0.03125 1.5625 0.041021 0.22917 0.098742 0.42906 0.125 0.65625s0.099997 0.56083-0.21875 0.9375a0.75905 0.75905 0 0 1-0.28125 0.1875c-1.7685 0.808-2.6806 1.7482-3.1875 2.625-0.5069 0.87677-0.625 1.7223-0.625 2.4375 0 0.4137 0.13219 0.61341 0.40625 0.84375s0.72655 0.45573 1.3125 0.59375c1.1719 0.27603 2.7633 0.28125 4 0.28125a0.75905 0.75905 0 0 1 0.34375 0.0625c2.1776 1.0653 4.0548 1.2071 6.0625 1s4.1134-0.78382 6.5312-1.0625a0.75905 0.75905 0 0 1 0.09375 0c1.3772 0 2.6599 0.69367 4 1.3125s2.7108 1.1875 4 1.1875c0.79472 0 1.9414-0.5625 3.1562-1.1875s2.4978-1.3125 3.875-1.3125c2.0634 0 3.8264-1.6746 3.7188-3.6875-0.03571-0.66777-0.85812-1.5018-1.8125-2.125s-1.9062-1-1.9062-1a0.75905 0.75905 0 0 1-0.46875-0.5625s-0.306-1.3527-1.1875-2.4688-2.1447-2.0124-4.6562-1.2188a0.75905 0.75905 0 0 1-0.71875-1.2812c0.70901-0.6275 0.86162-1.3623 0.78125-1.7812-0.04019-0.20947-0.11933-0.32813-0.1875-0.375-0.06817-0.046874-0.13722-0.10021-0.375-0.03125-0.25055 0.072667-0.35708 0.05584-0.53125 0.0625s-0.3719 0.030471-0.5625 0.03125c-0.1906 7.791e-4 -0.38414-0.00208-0.53125 0s-0.28763 0.011614-0.21875 0a0.75905 0.75905 0 0 1-0.84375-0.5c-0.50155-1.4771-1.8824-2.5625-3.5312-2.5625z" style="fill:none;stroke-linecap:square;stroke-linejoin:round;stroke-opacity:.32292;stroke-width:1.5;stroke:url(#linearGradient3814)"/>
 </g>
</svg>
