<?xml version="1.0" encoding="utf-8"?><!-- Uploaded to: SVG Repo, www.svgrepo.com, Generator: SVG Repo Mixer Tools -->
<svg width="800px" height="800px" viewBox="0 0 128 128" xmlns="http://www.w3.org/2000/svg" xmlns:xlink="http://www.w3.org/1999/xlink" aria-hidden="true" role="img" class="iconify iconify--noto" preserveAspectRatio="xMidYMid meet"><path d="M48.37 30.91S36.73 20.77 35.61 19.65c-1.13-1.13-3.94-3.19-3.38-4.69c.56-1.5 9.95-5.26 16.52-6.57s20.23-3.38 32.43 2.25s22.01 13.14 30.64 27.03s10.91 33.24 11.45 43.92c.56 11.23-3.63 27.24-3.63 27.24l-1.82 2.79l-69.45-80.71z" fill="#464c4f"></path><path d="M122.49 94.27c-.74 8.26-2.86 14.73-2.86 14.73l-1.5 3.19l-69.46-80.72l10.11-2.82L45.9 9.09c2.43-1.02 7.29-1.97 12.78-1.97l6.65 26.11l8.55-25.09c3.7.53 9.54 3.27 10.88 4.26L71.88 39.22l4.08 1.48l17.1-23.3c2.39 1.23 3.98 2.39 5.84 4.5L81.59 44.64l5.63 4.15l17.95-20.41c2.5 2.36 4.29 4.8 6.16 8.41l-17.7 16.65L97.01 59l19.22-12.67c1.16 2.32 1.79 3.84 2.22 6.02L99.33 63.71l4.65 5.21l16.61-9.08c.81 2.18 1.27 4.01 1.37 6.55l-17.77 8.94l2.96 6.69l15.94-5.77c.49 2.39.53 3.7.21 6.05l-13.55 4.93l3.24 8.09l9.5-1.05z" fill="#dfdfe0"></path><path d="M56.53 27.11s-6.48.28-10.56 3.38s-11.96 11.12-15.76 15.62s-10 12.67-10 12.67l8.02 24.64l5.07 6.76s9.15 1.27 17.03-1.27c7.88-2.53 12.95-6.19 12.95-6.19s-1.55 9.85-2.82 18.44c-1.27 8.59-2.86 19.01-2.16 19.85c.7.84 15.67 1.69 30.88 1.27s29-1.41 29.7-2.11c.7-.7 2.82-20.27-6.76-45.19S86.38 38.93 84.83 37.95c-1.55-.99-6.05-3.1-6.05-3.1s.56-12.11-2.82-18.16s-4.16-9.05-6.34-9.29c-2.6-.28-7.67 6.26-9.43 9.01c-2.22 3.46-3.66 10.7-3.66 10.7z" fill="#2f2f2f"></path><path d="M22.53 58.86l10.49-13.09s1.62 2.04-1.13 6.05c-1.83 2.68-5.98 7.81-5.98 7.81l-3.38-.77z" fill="#ffffff"></path><path d="M28.47 78.02s10.3-9.82 16.89-8.54c8.26 1.6 6.62 15.3 6.62 15.3s-1.36.7-2.63 1.08c-.89.26-2.82.59-2.82.59s.8-8.52-2.67-10.02c-3.47-1.5-7.23.19-10.14 1.88s-3.94 2.25-3.94 2.25l-1.31-2.54z" fill="#ffffff"></path><path d="M32.69 85.39s2.25-2.82 5.07-2.35c2.82.47 2.96 4.32 2.96 4.32s-2.11.14-3.52.14s-5.16-.14-5.16-.14l.65-1.97z" fill="#ffffff"></path><path d="M28.47 64.04l1.5 5.77s8.49-10.46 21.02-6.01s7.27 17.55 7.27 17.55l3.43-1.6s1.32-5.78.19-9.85c-1.5-5.4-5.77-7.88-4.69-13.37s2.06-7.84 2.91-9.29c.48-.83 2.91-3.43 4.25-1.41c2.23 3.36-1.2 5.12-.49 11.36s2.61 5.46 4.69 12.76c.84 2.96-.14 9.1-.19 10.98c-.05 1.88-.7 5.58-.7 5.58s12.2-6.89 16.14-9.67c7.37-5.19 17.64-14.55 17.64-14.55s-.44-1.11-1.27-2.39c-.63-.99-1.22-1.64-1.22-1.64s-7.53 5.49-11.1 7.98c-3.57 2.49-12.88 8.26-13.68 8.73s-2.2 1.41-2.58.99c-.63-.7 1.29-5.56 2.18-8.38c.89-2.82 4.95-13.21 6.31-16.96c1.36-3.75 3.52-8.92 3.52-8.92s-1.45-1.31-2.44-1.78s-3.14-1.27-3.14-1.27s-2.44 6.19-3.28 7.51c-.84 1.31-2.96 5.4-4.83 4.04c-1.88-1.36-1.83-7.65 1.41-11.97c1.73-2.31 3.8-3.05 4.08-9.43s-1.85-10.51-2.82-12.67c-1.08-2.42-2.16-4.46-3.1-4.41c-.94.05-4.15 3.85-5.56 5.96c-1.27 1.9-2.42 3.71-2.98 7.79s-.61 4.46-.61 4.46l-2.02.75s-.96 10.46-3.26 12.2c-2.3 1.74-6.05 1.2-6.45-1.78c-.52-3.91-.33-7.93-.33-7.93s-1.5.52-2.53 1.5c-1.03.99-1.83 1.22-2.67 5.44c-.84 4.22-.91 9.58-2.82 12.72c-2.11 3.47-3.94 6.34-7.32 8.82s-4.46 2.39-4.46 2.39z" fill="#ffffff"></path><path d="M89.76 47.43s-5.33 11.83-5.16 12.44s10.23-7.46 10.23-7.46s-.97-1.21-2.25-2.63c-1.53-1.69-2.82-2.35-2.82-2.35z" fill="#ffffff"></path><path d="M54.23 53.58c0 2.8-1.08 5.58-4.22 5.3c-2.34-.21-4.27-2.5-4.27-5.3s1.9-5.07 4.25-5.07s4.24 2.27 4.24 5.07z" fill="#0b0b0b"></path><path d="M63.71 101.51l-.84 7.67s11.76-4.43 19.29-9.36c7.53-4.93 19.36-17.25 21.89-19.99s3.8-4.65 3.8-4.65s-.46-1.74-1.2-3.24c-.73-1.5-1.62-2.89-1.62-2.89S90.39 84.62 88.35 86.24c-2.04 1.62-7.81 6.76-12.18 9.15c-4.36 2.39-12.46 6.12-12.46 6.12z" fill="#ffffff"></path><path d="M66.88 118.9c.78-.78 14.15-5.84 19.22-10.35c1.79-1.59 13.23-12.32 17.03-16.61s7.88-9.08 7.88-9.08s.28 1.41.77 3.03c.48 1.57.7 2.75.7 2.75s-4.79 7.25-7.32 10.49c-2.53 3.24-8.52 9.71-10 11.12c-1.48 1.41-2.96 3.1-6.9 5.49c-1.4.85-6.62 3.52-6.62 3.52s-4.15.07-6.97.14c-1.25.02-8.14-.15-7.79-.5z" fill="#ffffff"></path><path d="M114.46 99.82s-4.15 8.02-5.56 10.28c-1.41 2.25-5.56 7.88-5.56 7.88s5.7-.21 7.67-.28s5-.35 5-.7c0-.8-.56-9.08-.63-10.91s-.35-7.32-.92-6.27z" fill="#ffffff"></path><path d="M68.64 18.45c-1.48-.16-3.52 4.86-3.94 7.11c-1.27 6.69-1.06 9.71 2.6 9.71c4.05 0 3.73-7.32 3.73-8.94c0-1.61-1.12-7.74-2.39-7.88z" fill="#454c50"></path><path d="M29.88 60c-2.89-2.64-7.41-3.57-9.67-1.22c-2.25 2.35-3.57 5.35-5.44 7.32c-1.88 1.97-5.82 5.35-7.98 9.95S3.6 86.66 6.6 91.63s9.1 8.26 16.61 5.63S33.72 90.78 34 87.97s0-6.95-2.91-9.29c-1.18-.95-3.28-2.25-2.53-4.04s6.76-9.66 1.32-14.64z" fill="#464c4f"></path><path d="M11.11 79.71c-.1 1.56 1.92 1.27 2.63 2.72c.7 1.45-.94 4.27.89 4.6c1.83.33 4.18-3.28 3.05-6.71c-1.13-3.42-6.43-2.86-6.57-.61z" fill="#303030"></path><path d="M14.23 97.64s5-2.44 7.25-4.55c2.19-2.06 4.32-4.55 4.83-5.35c.52-.8 1.6-2.25 2.53-1.6c.94.66.52 1.83-.09 2.72c-.61.89-2.16 3.1-4.6 5.35c-2.11 1.95-3.14 2.44-4.69 3.28c-1.13.61-2.21.7-2.21.7s-.88.01-1.79-.14c-.35-.05-1.23-.41-1.23-.41z" fill="#303030"></path></svg>