<?xml version="1.0" encoding="UTF-8" standalone="no"?>
<svg
   xmlns:dc="http://purl.org/dc/elements/1.1/"
   xmlns:cc="http://creativecommons.org/ns#"
   xmlns:rdf="http://www.w3.org/1999/02/22-rdf-syntax-ns#"
   xmlns:svg="http://www.w3.org/2000/svg"
   xmlns="http://www.w3.org/2000/svg"
   xmlns:xlink="http://www.w3.org/1999/xlink"
   xmlns:sodipodi="http://sodipodi.sourceforge.net/DTD/sodipodi-0.dtd"
   xmlns:inkscape="http://www.inkscape.org/namespaces/inkscape"
   width="48"
   height="48"
   viewBox="0 0 12.7 12.7"
   version="1.1"
   id="svg8"
   inkscape:version="1.0 (4035a4fb49, 2020-05-01)"
   sodipodi:docname="ct_zoom-in.svg">
  <defs
     id="defs2">
    <linearGradient
       y2="9.2499981"
       x2="1.8003722"
       y1="9.2499981"
       x1="24.200359"
       gradientTransform="matrix(0,-0.21111625,-0.2955626,0,8.2757624,7.9519176)"
       gradientUnits="userSpaceOnUse"
       id="linearGradient942"
       xlink:href="#linearGradient78" />
    <linearGradient
       id="linearGradient78">
      <stop
         style="stop-color:#9bdb4d;stop-opacity:1"
         offset="0"
         id="stop74" />
      <stop
         style="stop-color:#68b723;stop-opacity:1"
         offset="1"
         id="stop76" />
    </linearGradient>
    <linearGradient
       gradientTransform="matrix(0.14575439,0,0,0.15004921,1.8381092,1.7332066)"
       gradientUnits="userSpaceOnUse"
       xlink:href="#linearGradient965"
       id="linearGradient3030"
       y2="36.94162"
       x2="24.138529"
       y1="9.3648252"
       x1="24.138529" />
    <linearGradient
       id="linearGradient965">
      <stop
         id="stop957"
         style="stop-color:#ffffff;stop-opacity:1"
         offset="0" />
      <stop
         id="stop959"
         style="stop-color:#ffffff;stop-opacity:0.23529412"
         offset="0" />
      <stop
         id="stop961"
         style="stop-color:#ffffff;stop-opacity:0.15686275"
         offset="1" />
      <stop
         id="stop963"
         style="stop-color:#ffffff;stop-opacity:0.39215687"
         offset="1" />
    </linearGradient>
    <linearGradient
       gradientTransform="matrix(0.15129691,0,0,0.14434813,1.7093449,1.8670867)"
       gradientUnits="userSpaceOnUse"
       xlink:href="#linearGradient4333"
       id="linearGradient3030-1"
       y2="26.211538"
       x2="24.138529"
       y1="20.068834"
       x1="24.138529" />
    <linearGradient
       id="linearGradient4333">
      <stop
         id="stop4335"
         style="stop-color:#ffffff;stop-opacity:1"
         offset="0" />
      <stop
         id="stop4337"
         style="stop-color:#ffffff;stop-opacity:0.23529412"
         offset="0.00000005" />
      <stop
         id="stop4339"
         style="stop-color:#ffffff;stop-opacity:0.15686275"
         offset="1" />
      <stop
         id="stop4341"
         style="stop-color:#ffffff;stop-opacity:0.39215687"
         offset="1" />
    </linearGradient>
  </defs>
  <sodipodi:namedview
     id="base"
     pagecolor="#ffffff"
     bordercolor="#666666"
     borderopacity="1.0"
     inkscape:pageopacity="0.0"
     inkscape:pageshadow="2"
     inkscape:zoom="2.5778305"
     inkscape:cx="3.540083"
     inkscape:cy="3.4701713"
     inkscape:document-units="mm"
     inkscape:current-layer="layer1"
     inkscape:document-rotation="0"
     showgrid="false"
     inkscape:showpageshadow="false"
     units="px"
     inkscape:window-width="1366"
     inkscape:window-height="715"
     inkscape:window-x="-8"
     inkscape:window-y="22"
     inkscape:window-maximized="1" />
  <metadata
     id="metadata5">
    <rdf:RDF>
      <cc:Work
         rdf:about="">
        <dc:format>image/svg+xml</dc:format>
        <dc:type
           rdf:resource="http://purl.org/dc/dcmitype/StillImage" />
        <dc:title></dc:title>
      </cc:Work>
    </rdf:RDF>
  </metadata>
  <g
     inkscape:label="Capa 1"
     inkscape:groupmode="layer"
     id="layer1">
    <path
       d="M 5.0601193,0.0061551 A 5.0524082,5.0401756 0 0 0 0.00746497,5.0465762 5.0524082,5.0401756 0 0 0 5.0601193,10.086998 5.0524082,5.0401756 0 0 0 7.9293939,9.1948097 c 0.033462,0.056923 0.071464,0.1115404 0.1205229,0.1604804 l 3.1201492,3.1125939 c 0.308632,0.307885 0.805559,0.307885 1.114191,0 l 0.184664,-0.184732 c 0.308632,-0.307885 0.308632,-0.803609 0,-1.111494 L 9.349289,8.0595798 C 9.3021308,8.012536 9.2492335,7.9751123 9.1946263,7.9424446 A 5.0524082,5.0401756 0 0 0 10.112257,5.0465762 5.0524082,5.0401756 0 0 0 5.0601193,0.0061551 Z m -0.036726,1.0691803 a 3.9806855,3.9710477 0 0 1 0.036726,0 3.9806855,3.9710477 0 0 1 3.980879,3.9712408 A 3.9806855,3.9710477 0 0 1 5.0601193,9.017817 3.9806855,3.9710477 0 0 1 1.0792402,5.0465762 3.9806855,3.9710477 0 0 1 5.0233933,1.0753354 Z"
       style="fill:#333333;stroke-width:2.26957;stroke-linecap:round;stop-color:#000000"
       id="path39" />
    <path
       id="rect919"
       style="font-variation-settings:normal;opacity:1;vector-effect:none;fill:url(#linearGradient942);fill-opacity:1;stroke:#206b00;stroke-width:0.147781;stroke-linecap:round;stroke-linejoin:round;stroke-miterlimit:4;stroke-dasharray:none;stroke-dashoffset:0;stroke-opacity:0.5;stop-color:#000000;stop-opacity:1"
       d="m 4.5644898,2.9167193 c -0.07262,0 -0.1310405,0.058457 -0.1310405,0.1310404 V 4.5423134 H 2.9388956 c -0.072583,0 -0.1310404,0.058421 -0.1310404,0.1310404 v 1.0679507 c 0,0.072619 0.058457,0.1310405 0.1310404,0.1310405 h 1.4945537 v 1.4945536 c 0,0.072584 0.058421,0.1310405 0.1310405,0.1310405 h 1.0679506 c 0.072619,0 0.1310405,-0.058457 0.1310405,-0.1310405 V 5.872345 h 1.4945536 c 0.072584,0 0.1310405,-0.058421 0.1310405,-0.1310405 V 4.6733538 c 0,-0.072619 -0.058457,-0.1310404 -0.1310405,-0.1310404 H 5.7634809 V 3.0477597 c 0,-0.072584 -0.058421,-0.1310404 -0.1310405,-0.1310404 z" />
    <path
       style="display:inline;opacity:0.5;fill:none;stroke:url(#linearGradient3030);stroke-width:0.147781;stroke-linecap:butt;stroke-linejoin:round;stroke-miterlimit:4;stroke-dasharray:none;stroke-opacity:1"
       id="path2272"
       d="M 4.5812304,4.6185638 V 3.0645004 H 5.6156997 V 4.616204 m 0,1.1822503 V 7.3501579 H 4.5812304 V 5.7984543" />
    <path
       style="display:inline;opacity:0.5;fill:none;stroke:url(#linearGradient3030-1);stroke-width:0.147781;stroke-linecap:butt;stroke-linejoin:round;stroke-miterlimit:4;stroke-dasharray:none;stroke-opacity:1"
       id="path2272-2"
       d="m 5.6895902,4.6938572 1.5517036,-0.00376 v 1.0307065 l -1.5517036,0.00376 m -1.1822503,0 -1.5517035,-0.00376 v -1.030704 l 1.5517035,-4e-7" />
  </g>
</svg>
