<?xml version="1.0" encoding="UTF-8" standalone="no"?>
<svg
   xmlns:dc="http://purl.org/dc/elements/1.1/"
   xmlns:cc="http://creativecommons.org/ns#"
   xmlns:rdf="http://www.w3.org/1999/02/22-rdf-syntax-ns#"
   xmlns:svg="http://www.w3.org/2000/svg"
   xmlns="http://www.w3.org/2000/svg"
   xmlns:xlink="http://www.w3.org/1999/xlink"
   xmlns:sodipodi="http://sodipodi.sourceforge.net/DTD/sodipodi-0.dtd"
   xmlns:inkscape="http://www.inkscape.org/namespaces/inkscape"
   inkscape:version="1.0.1 (3bc2e813f5, 2020-09-07)"
   sodipodi:docname="ct_color_bg.svg"
   id="svg7567"
   height="48"
   width="48"
   version="1.1">
  <sodipodi:namedview
     inkscape:current-layer="svg7567"
     inkscape:window-maximized="1"
     inkscape:window-y="22"
     inkscape:window-x="-8"
     inkscape:cy="32.177345"
     inkscape:cx="19.809554"
     inkscape:zoom="7.1009148"
     showgrid="false"
     id="namedview59"
     inkscape:window-height="715"
     inkscape:window-width="1366"
     inkscape:pageshadow="2"
     inkscape:pageopacity="0"
     guidetolerance="10"
     gridtolerance="10"
     objecttolerance="10"
     borderopacity="1"
     bordercolor="#666666"
     pagecolor="#ffffff"
     inkscape:document-rotation="0" />
  <defs
     id="defs7569">
    <linearGradient
       inkscape:collect="always"
       id="linearGradient896">
      <stop
         style="stop-color:#fe9ab8;stop-opacity:1;"
         offset="0"
         id="stop892" />
      <stop
         style="stop-color:#f4679d;stop-opacity:1"
         offset="1"
         id="stop894" />
    </linearGradient>
    <linearGradient
       gradientTransform="matrix(0.50861895,0,0,0.50861895,-0.30363106,-8.1100713)"
       gradientUnits="userSpaceOnUse"
       xlink:href="#linearGradient4035"
       id="linearGradient3159"
       y2="43.470798"
       x2="16.325838"
       y1="19.877497"
       x1="16.325838" />
    <linearGradient
       id="linearGradient4035">
      <stop
         offset="0"
         style="stop-color:#ffffff;stop-opacity:1"
         id="stop4037" />
      <stop
         offset="0.16666664"
         style="stop-color:#ffffff;stop-opacity:0.23529412"
         id="stop4039" />
      <stop
         offset="0.83333331"
         style="stop-color:#ffffff;stop-opacity:0.15686275"
         id="stop4041" />
      <stop
         offset="1"
         style="stop-color:#ffffff;stop-opacity:0.39215687"
         id="stop4043" />
    </linearGradient>
    <linearGradient
       id="linearGradient4632-92-3-0-8-1-7-6">
      <stop
         offset="0"
         style="stop-color:#fafafa;stop-opacity:1"
         id="stop4634-68-8-0-2-9-4-8" />
      <stop
         offset="1"
         style="stop-color:#e1e1e1;stop-opacity:1"
         id="stop4636-8-21-7-1-4-0-7" />
    </linearGradient>
    <clipPath
       id="clipPath7834">
      <rect
         style="color:#000000;display:inline;overflow:visible;visibility:visible;fill:url(#linearGradient7838);fill-opacity:1;fill-rule:nonzero;stroke:none;stroke-width:1;marker:none;enable-background:accumulate"
         id="rect7836"
         y="6.4996166"
         x="6.4999809"
         ry="25"
         rx="25"
         height="7"
         width="7" />
    </clipPath>
    <linearGradient
       gradientTransform="matrix(0.36842106,0,0,0.36842106,-4.7368544,-1.0530003)"
       gradientUnits="userSpaceOnUse"
       xlink:href="#linearGradient4632-92-3-0-8-1-7-6"
       id="linearGradient7838"
       y2="29.999983"
       x2="49.5"
       y1="29.999983"
       x1="30.5" />
    <linearGradient
       id="linearGradient1069">
      <stop
         id="stop1065"
         offset="0"
         style="stop-color:#b3b3b3;stop-opacity:1" />
      <stop
         id="stop1067"
         offset="1"
         style="stop-color:#1a1a1a;stop-opacity:1" />
    </linearGradient>
    <linearGradient
       inkscape:collect="always"
       xlink:href="#linearGradient896"
       id="linearGradient898"
       x1="11.985938"
       y1="8.6034765"
       x2="11.985938"
       y2="15.354699"
       gradientUnits="userSpaceOnUse" />
    <linearGradient
       gradientTransform="matrix(1.2756328,0,0,1.2756328,-22.754283,-23.91717)"
       gradientUnits="userSpaceOnUse"
       y2="44.5"
       x2="44"
       y1="0"
       x1="44"
       id="linearGradient1071-1"
       xlink:href="#linearGradient1069" />
  </defs>
  <metadata
     id="metadata7572">
    <rdf:RDF>
      <cc:Work
         rdf:about="">
        <dc:format>image/svg+xml</dc:format>
        <dc:type
           rdf:resource="http://purl.org/dc/dcmitype/StillImage" />
        <dc:title></dc:title>
      </cc:Work>
    </rdf:RDF>
  </metadata>
  <g
     id="layer1"
     transform="matrix(3,0,0,3,4.7840907,-4.520734)">
    <g
       id="g8134">
      <rect
         style="color:#000000;display:inline;overflow:visible;visibility:visible;fill:#ffd328;fill-opacity:1;fill-rule:nonzero;stroke:none;stroke-width:1;marker:none;enable-background:accumulate"
         id="rect5505-21-3-8-5-2"
         y="2.0000002"
         x="2"
         height="12"
         width="12" />
      <rect
         style="opacity:0.3;fill:none;stroke:none;stroke-width:1;stroke-opacity:1"
         id="rect3993"
         y="1.4999999"
         x="1.5"
         ry="1"
         rx="1"
         height="13"
         width="13" />
      <rect
         style="fill:none;stroke:url(#linearGradient3159);stroke-width:1;stroke-linecap:round;stroke-linejoin:round;stroke-miterlimit:4;stroke-dasharray:none;stroke-dashoffset:0;stroke-opacity:1"
         id="rect6741-5-0-2-3"
         y="2.5"
         x="2.4999986"
         height="11"
         width="11" />
      <g
         style="font-style:normal;font-variant:normal;font-weight:bold;font-stretch:normal;font-size:8px;line-height:125%;font-family:'Open Sans';-inkscape-font-specification:'Open Sans Bold';text-align:center;letter-spacing:0px;word-spacing:0px;text-anchor:middle;opacity:0.6;fill:#000000;fill-opacity:1;stroke:none"
         id="text6626" />
      <g
         style="font-style:normal;font-variant:normal;font-weight:bold;font-stretch:normal;font-size:9px;line-height:125%;font-family:'Open Sans';-inkscape-font-specification:'Open Sans Bold';text-align:center;letter-spacing:0px;word-spacing:0px;text-anchor:middle;opacity:0.6;fill:#000000;fill-opacity:1;stroke:none"
         id="text7828"
         clip-path="url(#clipPath7834)" />
    </g>
  </g>
  <path
     id="text942-4"
     d="m 28.953695,6.4488722 c -2.790451,-1.5e-6 -5.173957,0.9550623 -7.150523,2.8651899 -1.976568,1.9101279 -3.496364,4.3268529 -4.559391,7.2501789 -0.481685,1.328785 -0.838795,2.665873 -1.071333,4.011268 -0.232536,1.328784 -0.348804,2.665872 -0.348804,4.011273 0,1.328786 0.191007,2.516388 0.573037,3.562816 1.063029,2.906724 3.106034,4.360086 6.129018,4.360086 3.022984,0 5.589194,-1.577934 7.698643,-4.733813 0.19932,1.511509 0.730839,2.6825 1.594548,3.512993 0.863715,0.813879 1.968273,1.22082 3.313674,1.22082 1.361997,0 2.48316,-0.48171 3.363477,-1.445055 0.498297,-0.564726 1.104555,-1.802167 1.818777,-3.712309 -0.29898,0.14949 -0.672696,0.22425 -1.121169,0.22425 -1.395216,0 -2.092827,-0.581344 -2.092827,-1.744035 0,-0.614567 0.07473,-1.212518 0.22425,-1.793867 L 40.98752,6.698021 H 33.637679 L 33.089555,9.4137203 V 9.0400046 c 0,-0.7474422 -0.323913,-1.3620051 -0.971679,-1.843689 C 31.470086,6.698018 30.415352,6.4488722 28.953695,6.4488722 Z m 1.370307,3.164166 c 0.946764,0 1.561329,0.2491438 1.843698,0.7474418 0.29898,0.481683 0.448473,0.88032 0.448473,1.195906 l -2.441649,11.510593 c -0.315606,1.395222 -0.888628,2.49978 -1.719118,3.313663 -0.830486,0.797274 -1.752334,1.195914 -2.765532,1.195914 -0.548123,0 -1.004893,-0.18267 -1.370308,-0.548131 -0.631173,-0.597957 -0.946759,-1.652679 -0.946759,-3.164178 0,-0.780657 0.04151,-1.519797 0.124572,-2.217411 0.548138,-4.567691 1.901836,-8.07236 4.061111,-10.514001 0.896931,-1.013197 1.818777,-1.5197968 2.765527,-1.5197968 z"
     style="font-style:normal;font-weight:normal;font-size:40px;line-height:1.25;font-family:sans-serif;letter-spacing:0px;word-spacing:0px;fill:url(#linearGradient1071-1);fill-opacity:1;stroke:none;stroke-width:4.85988" />
  <g
     transform="matrix(3,0,0,3,-27.257362,0.0485914)"
     id="g895"
     style="opacity:0.5">
    <path
       id="path18"
       d="m 13,6 c 0,0 -3.3863888,4.77998 -3.3863888,6.453744 0,1.675693 1.3560498,3.017406 2.9773328,3.017406 1.621283,0 2.917563,-1.341713 2.917563,-3.017406 C 15.508507,10.77998 13,6 13,6 Z"
       style="fill:url(#linearGradient898);fill-opacity:1;stroke:#f4679d;stroke-width:1;stroke-opacity:1;marker:none" />
    <path
       id="path890"
       style="opacity:0.5;fill:#ffffff;fill-opacity:1;stroke:none;stroke-width:1.18622;stroke-linecap:round;stroke-opacity:1;stop-color:#000000"
       d="m 11.942377,12.498544 a 1.206973,1.7487171 0 0 1 -1.206973,1.748717 1.206973,1.7487171 0 0 1 -1.2069702,-1.748717 1.206973,1.7487171 0 0 1 1.2069702,-1.748716 1.206973,1.7487171 0 0 1 1.206973,1.748716 z" />
  </g>
  <g
     transform="matrix(3,0,0,3,-27.257362,0.0485914)"
     id="g963"
     style="stroke-width:0.5">
    <path
       id="path959"
       d="m 13,6 c 0,0 -3.3863888,4.77998 -3.3863888,6.453744 0,1.675693 1.3560498,3.017406 2.9773328,3.017406 1.621283,0 2.917563,-1.341713 2.917563,-3.017406 C 15.508507,10.77998 13,6 13,6 Z"
       style="fill:url(#linearGradient898);fill-opacity:1;stroke:#f4679d;stroke-width:0.5;stroke-opacity:1;marker:none" />
    <path
       id="path961"
       style="opacity:0.5;fill:#ffffff;fill-opacity:1;stroke:none;stroke-width:0.5;stroke-linecap:round;stroke-opacity:1;stop-color:#000000"
       d="m 11.942377,12.498544 a 1.206973,1.7487171 0 0 1 -1.206973,1.748717 1.206973,1.7487171 0 0 1 -1.2069702,-1.748717 1.206973,1.7487171 0 0 1 1.2069702,-1.748716 1.206973,1.7487171 0 0 1 1.206973,1.748716 z" />
  </g>
</svg>
