<?xml version="1.0" encoding="UTF-8" standalone="no"?>
<svg
   xmlns:dc="http://purl.org/dc/elements/1.1/"
   xmlns:cc="http://creativecommons.org/ns#"
   xmlns:rdf="http://www.w3.org/1999/02/22-rdf-syntax-ns#"
   xmlns:svg="http://www.w3.org/2000/svg"
   xmlns="http://www.w3.org/2000/svg"
   xmlns:xlink="http://www.w3.org/1999/xlink"
   xmlns:sodipodi="http://sodipodi.sourceforge.net/DTD/sodipodi-0.dtd"
   xmlns:inkscape="http://www.inkscape.org/namespaces/inkscape"
   id="svg3901"
   height="48"
   width="48"
   version="1.1"
   sodipodi:docname="ct_code.svg"
   inkscape:version="1.0.1 (3bc2e813f5, 2020-09-07)">
  <g
     id="g47"
     style="fill:#206b00;fill-opacity:1;stroke:#9bdb4d;stroke-opacity:1;opacity:0.5">
    <path
       id="path44"
       d="M 17,7.666667 C 13.627473,7.6666997 11.839851,8.1662904 10.145834,9.1979174 8.4673386,10.215661 7.666667,11.835601 7.666667,14.010417 v 4.156251 c 0,1.296555 -0.5784327,2.202468 -1.604166,2.843748 -1.0102049,0.627376 -0.9643947,1.020849 -3.0625,1.020834 v 3.9375 c 4.1340411,9e-6 4.666666,1.344427 4.666666,3.9375 v 3.572916 c 0,2.383959 0.7636301,4.190457 2.333334,5.25 1.585227,1.073473 3.409894,1.576277 6.999999,1.604167 v -3.791667 c -1.78729,-0.02788 -2.707396,-0.362384 -3.500001,-0.947916 -0.792632,-0.585535 -1.166665,-1.408897 -1.166665,-2.552083 v -3.9375 c 0,-2.802194 -1.399332,-4.456436 -4.9583332,-4.958334 v -0.291666 c 3.5590012,-0.543698 4.9583332,-2.256915 4.9583332,-5.031251 v -3.864583 c 0,-1.143162 0.374033,-1.907546 1.166665,-2.479166 C 14.308145,11.893659 15.228251,11.528065 17,11.458334 Z m 14,0 v 3.791667 c 1.771749,0.06974 2.691855,0.435325 3.500001,1.020833 0.792632,0.57162 1.166665,1.336004 1.166665,2.479166 v 3.864583 c 0,2.774336 1.399332,4.487553 4.958333,5.031251 v 0.291666 c -3.559001,0.501898 -4.958333,2.15614 -4.958333,4.958334 v 3.9375 c 0,1.143186 -0.374033,1.966548 -1.166665,2.552083 C 33.707396,36.179282 32.78729,36.513783 31,36.541666 v 3.791667 c 3.590105,-0.02788 5.414772,-0.530694 6.999999,-1.604167 1.569704,-1.059543 2.333334,-2.866041 2.333334,-5.25 V 29.90625 c 0,-2.593073 0.532625,-3.937491 4.666666,-3.9375 v -3.9375 c -2.098105,1.5e-5 -2.052296,-0.393458 -3.0625,-1.020834 -1.025733,-0.64128 -1.604166,-1.547193 -1.604166,-2.843748 v -4.156251 c 0,-2.174816 -0.800671,-3.794756 -2.479167,-4.8124996 C 36.160149,8.1662904 34.372527,7.6666997 31,7.666667 Z"
       style="color:#000000;font-style:normal;font-variant:normal;font-weight:600;font-stretch:normal;font-size:19px;line-height:125%;font-family:'Open Sans';-inkscape-font-specification:'Open Sans Semi-Bold';text-align:start;letter-spacing:0px;word-spacing:0px;writing-mode:lr-tb;text-anchor:start;clip-rule:nonzero;display:inline;overflow:visible;visibility:visible;opacity:1;isolation:auto;mix-blend-mode:normal;color-interpolation:sRGB;color-interpolation-filters:linearRGB;solid-color:#000000;solid-opacity:1;fill:#206b00;fill-opacity:1;fill-rule:nonzero;stroke:#9bdb4d;stroke-width:2.33334;stroke-linecap:butt;stroke-linejoin:miter;stroke-miterlimit:4;stroke-dasharray:none;stroke-dashoffset:0;stroke-opacity:1;marker:none;color-rendering:auto;image-rendering:auto;shape-rendering:auto;text-rendering:auto;enable-background:accumulate" />
  </g>
  <g
     id="g41"
     style="fill:#206b00;fill-opacity:1;stroke:#206b00;stroke-opacity:1;stroke-width:1">
    <path
       id="path39"
       d="M 17,7.666667 C 13.627473,7.6666997 11.839851,8.1662904 10.145834,9.1979174 8.4673386,10.215661 7.666667,11.835601 7.666667,14.010417 v 4.156251 c 0,1.296555 -0.5784327,2.202468 -1.604166,2.843748 -1.0102049,0.627376 -0.9643947,1.020849 -3.0625,1.020834 v 3.9375 c 4.1340411,9e-6 4.666666,1.344427 4.666666,3.9375 v 3.572916 c 0,2.383959 0.7636301,4.190457 2.333334,5.25 1.585227,1.073473 3.409894,1.576277 6.999999,1.604167 v -3.791667 c -1.78729,-0.02788 -2.707396,-0.362384 -3.500001,-0.947916 -0.792632,-0.585535 -1.166665,-1.408897 -1.166665,-2.552083 v -3.9375 c 0,-2.802194 -1.399332,-4.456436 -4.9583332,-4.958334 v -0.291666 c 3.5590012,-0.543698 4.9583332,-2.256915 4.9583332,-5.031251 v -3.864583 c 0,-1.143162 0.374033,-1.907546 1.166665,-2.479166 C 14.308145,11.893659 15.228251,11.528065 17,11.458334 Z m 14,0 v 3.791667 c 1.771749,0.06974 2.691855,0.435325 3.500001,1.020833 0.792632,0.57162 1.166665,1.336004 1.166665,2.479166 v 3.864583 c 0,2.774336 1.399332,4.487553 4.958333,5.031251 v 0.291666 c -3.559001,0.501898 -4.958333,2.15614 -4.958333,4.958334 v 3.9375 c 0,1.143186 -0.374033,1.966548 -1.166665,2.552083 C 33.707396,36.179282 32.78729,36.513783 31,36.541666 v 3.791667 c 3.590105,-0.02788 5.414772,-0.530694 6.999999,-1.604167 1.569704,-1.059543 2.333334,-2.866041 2.333334,-5.25 V 29.90625 c 0,-2.593073 0.532625,-3.937491 4.666666,-3.9375 v -3.9375 c -2.098105,1.5e-5 -2.052296,-0.393458 -3.0625,-1.020834 -1.025733,-0.64128 -1.604166,-1.547193 -1.604166,-2.843748 v -4.156251 c 0,-2.174816 -0.800671,-3.794756 -2.479167,-4.8124996 C 36.160149,8.1662904 34.372527,7.6666997 31,7.666667 Z"
       style="color:#000000;font-style:normal;font-variant:normal;font-weight:600;font-stretch:normal;font-size:19px;line-height:125%;font-family:'Open Sans';-inkscape-font-specification:'Open Sans Semi-Bold';text-align:start;letter-spacing:0px;word-spacing:0px;writing-mode:lr-tb;text-anchor:start;clip-rule:nonzero;display:inline;overflow:visible;visibility:visible;opacity:1;isolation:auto;mix-blend-mode:normal;color-interpolation:sRGB;color-interpolation-filters:linearRGB;solid-color:#000000;solid-opacity:1;fill:#206b00;fill-opacity:1;fill-rule:nonzero;stroke:#206b00;stroke-width:1;stroke-linecap:butt;stroke-linejoin:miter;stroke-miterlimit:4;stroke-dasharray:none;stroke-dashoffset:0;stroke-opacity:1;marker:none;color-rendering:auto;image-rendering:auto;shape-rendering:auto;text-rendering:auto;enable-background:accumulate" />
  </g>
  <path
     id="path3873-9-6"
     d="M 17,7.666667 C 13.627473,7.6666997 11.839851,8.1662904 10.145834,9.1979174 8.4673386,10.215661 7.666667,11.835601 7.666667,14.010417 v 4.156251 c 0,1.296555 -0.5784327,2.202468 -1.604166,2.843748 -1.0102049,0.627376 -0.9643947,1.020849 -3.0625,1.020834 v 3.9375 c 4.1340411,9e-6 4.666666,1.344427 4.666666,3.9375 v 3.572916 c 0,2.383959 0.7636301,4.190457 2.333334,5.25 1.585227,1.073473 3.409894,1.576277 6.999999,1.604167 v -3.791667 c -1.78729,-0.02788 -2.707396,-0.362384 -3.500001,-0.947916 -0.792632,-0.585535 -1.166665,-1.408897 -1.166665,-2.552083 v -3.9375 c 0,-2.802194 -1.399332,-4.456436 -4.9583332,-4.958334 v -0.291666 c 3.5590012,-0.543698 4.9583332,-2.256915 4.9583332,-5.031251 v -3.864583 c 0,-1.143162 0.374033,-1.907546 1.166665,-2.479166 C 14.308145,11.893659 15.228251,11.528065 17,11.458334 Z m 14,0 v 3.791667 c 1.771749,0.06974 2.691855,0.435325 3.500001,1.020833 0.792632,0.57162 1.166665,1.336004 1.166665,2.479166 v 3.864583 c 0,2.774336 1.399332,4.487553 4.958333,5.031251 v 0.291666 c -3.559001,0.501898 -4.958333,2.15614 -4.958333,4.958334 v 3.9375 c 0,1.143186 -0.374033,1.966548 -1.166665,2.552083 C 33.707396,36.179282 32.78729,36.513783 31,36.541666 v 3.791667 c 3.590105,-0.02788 5.414772,-0.530694 6.999999,-1.604167 1.569704,-1.059543 2.333334,-2.866041 2.333334,-5.25 V 29.90625 c 0,-2.593073 0.532625,-3.937491 4.666666,-3.9375 v -3.9375 c -2.098105,1.5e-5 -2.052296,-0.393458 -3.0625,-1.020834 -1.025733,-0.64128 -1.604166,-1.547193 -1.604166,-2.843748 v -4.156251 c 0,-2.174816 -0.800671,-3.794756 -2.479167,-4.8124996 C 36.160149,8.1662904 34.372527,7.6666997 31,7.666667 Z"
     style="color:#000000;font-style:normal;font-variant:normal;font-weight:600;font-stretch:normal;font-size:19px;line-height:125%;font-family:'Open Sans';-inkscape-font-specification:'Open Sans Semi-Bold';text-align:start;letter-spacing:0px;word-spacing:0px;writing-mode:lr-tb;text-anchor:start;clip-rule:nonzero;display:inline;overflow:visible;visibility:visible;opacity:1;isolation:auto;mix-blend-mode:normal;color-interpolation:sRGB;color-interpolation-filters:linearRGB;solid-color:#000000;solid-opacity:1;fill:url(#linearGradient4514-3);fill-opacity:1;fill-rule:nonzero;stroke:none;stroke-width:2.33334;stroke-linecap:butt;stroke-linejoin:miter;stroke-miterlimit:4;stroke-dasharray:none;stroke-dashoffset:0;stroke-opacity:1;marker:none;color-rendering:auto;image-rendering:auto;shape-rendering:auto;text-rendering:auto;enable-background:accumulate" />
  <sodipodi:namedview
     pagecolor="#ffffff"
     bordercolor="#666666"
     borderopacity="1"
     objecttolerance="10"
     gridtolerance="10"
     guidetolerance="10"
     inkscape:pageopacity="0"
     inkscape:pageshadow="2"
     inkscape:window-width="1366"
     inkscape:window-height="715"
     id="namedview42"
     showgrid="true"
     inkscape:zoom="13.443427"
     inkscape:cx="21.582462"
     inkscape:cy="24"
     inkscape:window-x="-8"
     inkscape:window-y="22"
     inkscape:window-maximized="1"
     inkscape:current-layer="svg3901"
     inkscape:document-rotation="0">
    <inkscape:grid
       type="xygrid"
       id="grid42" />
  </sodipodi:namedview>
  <defs
     id="defs3903">
    <linearGradient
       id="linearGradient3403">
      <stop
         id="stop3405"
         style="stop-color:#ffffff;stop-opacity:1"
         offset="0" />
      <stop
         id="stop3407"
         style="stop-color:#ffffff;stop-opacity:0.23529412"
         offset="0" />
      <stop
         id="stop3409"
         style="stop-color:#ffffff;stop-opacity:0.15686275"
         offset="1" />
      <stop
         id="stop3411"
         style="stop-color:#ffffff;stop-opacity:0.39215687"
         offset="1" />
    </linearGradient>
    <linearGradient
       id="linearGradient3600">
      <stop
         offset="0"
         style="stop-color:#f4f4f4;stop-opacity:1"
         id="stop3602" />
      <stop
         offset="1"
         style="stop-color:#dbdbdb;stop-opacity:1"
         id="stop3604" />
    </linearGradient>
    <linearGradient
       id="linearGradient5060">
      <stop
         offset="0"
         style="stop-color:#000000;stop-opacity:1"
         id="stop5062" />
      <stop
         offset="1"
         style="stop-color:#000000;stop-opacity:0"
         id="stop5064" />
    </linearGradient>
    <linearGradient
       id="linearGradient5048">
      <stop
         offset="0"
         style="stop-color:#000000;stop-opacity:0"
         id="stop5050" />
      <stop
         offset="0.5"
         style="stop-color:#000000;stop-opacity:1"
         id="stop5056" />
      <stop
         offset="1"
         style="stop-color:#000000;stop-opacity:0"
         id="stop5052" />
    </linearGradient>
    <linearGradient
       id="linearGradient3104-6">
      <stop
         id="stop3106-3"
         style="stop-color:#000000;stop-opacity:0.31782946"
         offset="0" />
      <stop
         id="stop3108-9"
         style="stop-color:#000000;stop-opacity:0.24031007"
         offset="1" />
    </linearGradient>
    <linearGradient
       y2="42.110645"
       x2="23.99999"
       y1="5.9404659"
       x1="23.99999"
       gradientTransform="matrix(0.89189189,0,0,1.1351351,2.5945999,-4.7432314)"
       gradientUnits="userSpaceOnUse"
       id="linearGradient3106"
       xlink:href="#linearGradient3403" />
    <linearGradient
       y2="47.013336"
       x2="25.132275"
       y1="0.98520643"
       x1="25.132275"
       gradientTransform="matrix(0.97142632,0,0,0.93431938,0.68576678,-1.3569996)"
       gradientUnits="userSpaceOnUse"
       id="linearGradient3109"
       xlink:href="#linearGradient3600" />
    <radialGradient
       r="117.14286"
       fy="486.64789"
       fx="605.71429"
       cy="486.64789"
       cx="605.71429"
       gradientTransform="matrix(0.02303995,0,0,0.01470022,26.360882,37.040176)"
       gradientUnits="userSpaceOnUse"
       id="radialGradient3112"
       xlink:href="#linearGradient5060" />
    <radialGradient
       r="117.14286"
       fy="486.64789"
       fx="605.71429"
       cy="486.64789"
       cx="605.71429"
       gradientTransform="matrix(-0.02303994,0,0,0.01470022,21.62311,37.040176)"
       gradientUnits="userSpaceOnUse"
       id="radialGradient3115"
       xlink:href="#linearGradient5060" />
    <linearGradient
       y2="609.50507"
       x2="302.85715"
       y1="366.64789"
       x1="302.85715"
       gradientTransform="matrix(0.06732488,0,0,0.01470022,-0.3411391,37.040146)"
       gradientUnits="userSpaceOnUse"
       id="linearGradient3118"
       xlink:href="#linearGradient5048" />
    <linearGradient
       y2="2.9062471"
       x2="-51.786404"
       y1="50.786446"
       x1="-51.786404"
       gradientTransform="matrix(0.80749686,0,0,0.89471714,59.410232,-2.9773433)"
       gradientUnits="userSpaceOnUse"
       id="linearGradient3170"
       xlink:href="#linearGradient3104-6" />
    <linearGradient
       y2="59.385937"
       x2="27.191767"
       y1="-2.1010971"
       x1="17.231043"
       gradientTransform="matrix(2.5813626,0.68860566,-0.41817337,1.553817,-27.274,-39.187299)"
       gradientUnits="userSpaceOnUse"
       id="linearGradient4514-3"
       xlink:href="#linearGradient937" />
    <linearGradient
       id="linearGradient937">
      <stop
         style="stop-color:#9bdb4d;stop-opacity:1"
         offset="0"
         id="stop933" />
      <stop
         style="stop-color:#3a9104;stop-opacity:1"
         offset="1"
         id="stop935" />
    </linearGradient>
    <linearGradient
       gradientTransform="matrix(0.5,0,0,0.5,-8.5,-5.5)"
       y2="118.53259"
       x2="60.551304"
       y1="1.5206056"
       x1="60.520607"
       gradientUnits="userSpaceOnUse"
       id="linearGradient913"
       xlink:href="#linearGradient937" />
  </defs>
  <metadata
     id="metadata3906">
    <rdf:RDF>
      <cc:Work
         rdf:about="">
        <dc:format>image/svg+xml</dc:format>
        <dc:type
           rdf:resource="http://purl.org/dc/dcmitype/StillImage" />
        <dc:title />
      </cc:Work>
    </rdf:RDF>
  </metadata>
</svg>
