<?xml version="1.0" encoding="UTF-8" standalone="no"?>
<svg
   xmlns:dc="http://purl.org/dc/elements/1.1/"
   xmlns:cc="http://creativecommons.org/ns#"
   xmlns:rdf="http://www.w3.org/1999/02/22-rdf-syntax-ns#"
   xmlns:svg="http://www.w3.org/2000/svg"
   xmlns="http://www.w3.org/2000/svg"
   xmlns:sodipodi="http://sodipodi.sourceforge.net/DTD/sodipodi-0.dtd"
   xmlns:inkscape="http://www.inkscape.org/namespaces/inkscape"
   inkscape:version="0.92.5 (2060ec1f9f, 2020-04-08)"
   sodipodi:docname="ct_fmt-txt-italic.svg"
   version="1.1"
   width="16"
   height="16"
   id="svg3828">
  <sodipodi:namedview
     inkscape:current-layer="svg3828"
     inkscape:window-maximized="1"
     inkscape:window-y="0"
     inkscape:window-x="0"
     inkscape:cy="6.8302101"
     inkscape:cx="-0.18231067"
     inkscape:zoom="23.974747"
     showgrid="true"
     id="namedview41"
     inkscape:window-height="717"
     inkscape:window-width="1366"
     inkscape:pageshadow="2"
     inkscape:pageopacity="0"
     guidetolerance="10"
     gridtolerance="10"
     objecttolerance="10"
     borderopacity="1"
     bordercolor="#666666"
     pagecolor="#ffffff"
     inkscape:document-rotation="0"
     inkscape:pagecheckerboard="true"
     inkscape:snap-global="false"
     inkscape:showpageshadow="false">
    <inkscape:grid
       id="grid864"
       type="xygrid" />
  </sodipodi:namedview>
  <defs
     id="defs3830" />
  <metadata
     id="metadata3833">
    <rdf:RDF>
      <cc:Work
         rdf:about="">
        <dc:format>image/svg+xml</dc:format>
        <dc:type
           rdf:resource="http://purl.org/dc/dcmitype/StillImage" />
        <dc:title />
      </cc:Work>
    </rdf:RDF>
  </metadata>
  <g
     aria-label="s"
     id="g867"
     style="font-style:normal;font-variant:normal;font-weight:normal;font-stretch:normal;font-size:40px;line-height:1.25;font-family:'Swis721 BlkCn BT';-inkscape-font-specification:'Swis721 BlkCn BT';letter-spacing:0px;word-spacing:0px;white-space:pre;shape-inside:url(#rect868);fill:none;fill-opacity:1;stroke:#ffffff;stroke-width:3.70049743"
     transform="matrix(0.27032347,0,0,0.27014444,21.492757,14.111409)" />
  <path
     style="font-style:normal;font-weight:normal;font-size:40px;line-height:1.25;font-family:sans-serif;letter-spacing:0px;word-spacing:0px;opacity:0.7;fill:none;fill-opacity:1;stroke:#ffffff;stroke-width:2"
     d="m 8.905604,4.758259 c -0.931381,0 -1.8263743,0.318564 -2.6849846,0.955694 C 5.3620113,6.3510823 4.6031134,7.1571897 3.9439285,8.1322757 3.6448016,8.5754957 3.3863908,9.0214863 3.1686942,9.4702473 2.9527218,9.9134687 2.7747001,10.359459 2.6346186,10.80822 2.4962663,11.251441 2.4363642,11.647569 2.454926,11.996605 c 0.052168,0.969546 0.582748,1.454318 1.591743,1.454318 1.008995,0 2.029827,-0.526324 3.0624916,-1.578974 -0.090846,0.504164 -0.035365,0.894751 0.1664494,1.171765 0.2035432,0.271473 0.529843,0.407209 0.978902,0.407209 0.4546016,0 0.878968,-0.160668 1.2731021,-0.482004 0.2251166,-0.188367 0.5563139,-0.601117 0.9935879,-1.238246 -0.115351,0.04985 -0.24788,0.0748 -0.397569,0.0748 -0.4656913,0 -0.6380069,-0.19391 -0.5169483,-0.581729 0.06399,-0.20499 0.151187,-0.404438 0.261627,-0.598348 L 12.896243,4.8413633 H 10.443056 L 9.9773467,5.747195 10.016257,5.6225393 C 10.094077,5.3732267 10.049957,5.1682383 9.8838997,5.0075697 9.7195687,4.8413633 9.3934699,4.758259 8.905604,4.758259 Z m 0.1279233,1.0554183 c 0.316004,0 0.4951898,0.083096 0.5375524,0.2493124 0.04964,0.1606666 0.05803,0.2936336 0.02517,0.3988983 L 7.582816,10.301287 c -0.2506035,0.465381 -0.5568757,0.833808 -0.9188128,1.105282 -0.3602071,0.265932 -0.709402,0.398899 -1.047581,0.398899 -0.182951,0 -0.3163824,-0.06095 -0.4003033,-0.18283 C 5.0677082,11.423188 5.0721898,11.071383 5.2295655,10.567219 5.3108473,10.306827 5.4016659,10.060285 5.5020307,9.8275943 6.1605647,8.3040247 6.9772986,7.13503 7.9522316,6.3206123 8.3570972,5.9826563 8.7175323,5.8136773 9.0335363,5.8136773 Z"
     id="path46"
     inkscape:connector-curvature="0" />
  <path
     id="path868"
     d="m 9.2316663,4.758259 c -0.931381,0 -1.8263743,0.318564 -2.6849846,0.955694 C 5.6880736,6.3510823 4.9291757,7.1571897 4.2699908,8.1322757 3.9708639,8.5754957 3.7124531,9.0214863 3.4947565,9.4702473 3.2787841,9.9134687 3.1007624,10.359459 2.9606809,10.80822 c -0.1383523,0.443221 -0.1982544,0.839349 -0.1796926,1.188385 0.052168,0.969546 0.582748,1.454318 1.591743,1.454318 1.008995,0 2.029827,-0.526324 3.0624916,-1.578974 -0.090846,0.504164 -0.035365,0.894751 0.1664494,1.171765 0.2035432,0.271473 0.529843,0.407209 0.978902,0.407209 0.4546016,0 0.878968,-0.160668 1.2731021,-0.482004 0.2251166,-0.188367 0.5563136,-0.601117 0.9935876,-1.238246 -0.115351,0.04985 -0.24788,0.0748 -0.397569,0.0748 -0.465691,0 -0.6380066,-0.19391 -0.516948,-0.581729 0.06399,-0.20499 0.151187,-0.404438 0.261627,-0.598348 l 3.027931,-5.7840327 h -2.453187 l -0.465709,0.9058317 0.03891,-0.1246557 c 0.07782,-0.2493126 0.0337,-0.454301 -0.132357,-0.6149696 C 10.045631,4.8413633 9.7195322,4.758259 9.2316663,4.758259 Z m 0.1279233,1.0554183 c 0.316004,0 0.4951898,0.083096 0.5375524,0.2493124 0.04964,0.1606666 0.05803,0.2936336 0.02517,0.3988983 l -2.0134337,3.839399 c -0.2506035,0.465381 -0.5568757,0.833808 -0.9188128,1.105282 -0.3602071,0.265932 -0.709402,0.398899 -1.047581,0.398899 -0.182951,0 -0.3163824,-0.06095 -0.4003033,-0.18283 C 5.3937705,11.423188 5.3982521,11.071383 5.5556278,10.567219 5.6369096,10.306827 5.7277282,10.060285 5.828093,9.8275943 6.486627,8.3040247 7.3033609,7.13503 8.2782939,6.3206123 8.6831595,5.9826563 9.0435946,5.8136773 9.3595986,5.8136773 Z"
     style="font-style:normal;font-weight:normal;font-size:40px;line-height:1.25;font-family:sans-serif;letter-spacing:0px;word-spacing:0px;fill:#1a1a1a;fill-opacity:1;stroke:none;stroke-width:0.1"
     inkscape:connector-curvature="0" />
  <g
     aria-label="s"
     id="g42"
     style="font-style:normal;font-variant:normal;font-weight:normal;font-stretch:normal;font-size:40px;line-height:1.25;font-family:'Swis721 BlkCn BT';-inkscape-font-specification:'Swis721 BlkCn BT';letter-spacing:0px;word-spacing:0px;white-space:pre;shape-inside:url(#rect868);fill:none;fill-opacity:1;stroke:#ffffff;stroke-width:4.34076;stroke-opacity:1"
     transform="matrix(0.23045098,0,0,0.23029835,20.82761,14.287063)" />
</svg>
