<?xml version="1.0" encoding="UTF-8" standalone="no"?>
<svg
   xmlns:dc="http://purl.org/dc/elements/1.1/"
   xmlns:cc="http://creativecommons.org/ns#"
   xmlns:rdf="http://www.w3.org/1999/02/22-rdf-syntax-ns#"
   xmlns:svg="http://www.w3.org/2000/svg"
   xmlns="http://www.w3.org/2000/svg"
   xmlns:sodipodi="http://sodipodi.sourceforge.net/DTD/sodipodi-0.dtd"
   xmlns:inkscape="http://www.inkscape.org/namespaces/inkscape"
   inkscape:version="0.92.5 (2060ec1f9f, 2020-04-08)"
   sodipodi:docname="ct_fmt-txt-bold.svg"
   version="1.1"
   width="16"
   height="16"
   id="svg3828">
  <sodipodi:namedview
     inkscape:current-layer="svg3828"
     inkscape:window-maximized="1"
     inkscape:window-y="0"
     inkscape:window-x="0"
     inkscape:cy="6.7366105"
     inkscape:cx="-4.1213405"
     inkscape:zoom="23.974747"
     showgrid="true"
     id="namedview41"
     inkscape:window-height="717"
     inkscape:window-width="1366"
     inkscape:pageshadow="2"
     inkscape:pageopacity="0"
     guidetolerance="10"
     gridtolerance="10"
     objecttolerance="10"
     borderopacity="1"
     bordercolor="#666666"
     pagecolor="#ffffff"
     inkscape:document-rotation="0"
     inkscape:pagecheckerboard="true"
     inkscape:snap-global="false"
     inkscape:showpageshadow="false">
    <inkscape:grid
       id="grid864"
       type="xygrid" />
  </sodipodi:namedview>
  <defs
     id="defs3830" />
  <metadata
     id="metadata3833">
    <rdf:RDF>
      <cc:Work
         rdf:about="">
        <dc:format>image/svg+xml</dc:format>
        <dc:type
           rdf:resource="http://purl.org/dc/dcmitype/StillImage" />
        <dc:title />
      </cc:Work>
    </rdf:RDF>
  </metadata>
  <g
     aria-label="s"
     id="g867"
     style="font-style:normal;font-variant:normal;font-weight:normal;font-stretch:normal;font-size:40px;line-height:1.25;font-family:'Swis721 BlkCn BT';-inkscape-font-specification:'Swis721 BlkCn BT';letter-spacing:0px;word-spacing:0px;white-space:pre;shape-inside:url(#rect868);fill:none;fill-opacity:1;stroke:#ffffff;stroke-width:3.70049743"
     transform="matrix(0.27032347,0,0,0.27014444,21.492757,14.111409)" />
  <path
     inkscape:connector-curvature="0"
     id="path49"
     d="m 8.087891,3.5208254 c -1.070896,0 -2.047325,0.3898757 -2.810547,1.1269531 C 4.54485,5.3551816 3.9873037,6.2488139 3.6054688,7.2981691 3.4328828,7.7739479 3.302691,8.2542393 3.21875,8.7395754 c -0.08367,0.4777818 -0.125,0.9593218 -0.125,1.4433536 0,0.50189 0.07235,0.97099 0.2285156,1.398437 0.41914,1.145324 1.4161244,1.855469 2.6210934,1.855469 0.91938,0 1.708161,-0.487191 2.398438,-1.175781 0.106216,0.192515 0.12134,0.445875 0.279297,0.597656 l 0.002,0.002 0.002,0.002 c 0.403716,0.380175 0.953038,0.574219 1.525391,0.574219 0.598763,0 1.174349,-0.244335 1.574218,-0.681641 l 0.0039,-0.0039 0.0039,-0.0039 c 0.296852,-0.336209 0.472883,-0.765402 0.720703,-1.427735 l 0.544922,-1.4570294 -1.390625,0.6953114 c 0.0095,-0.0048 -0.01986,0.0098 -0.101563,0.0098 -0.09135,0 -0.07109,9.52e-4 -0.08203,-0.002 0.0026,-0.142711 0.01659,-0.281228 0.05078,-0.414062 l 0.0039,-0.01172 1.380859,-6.5351502 H 9.150465 L 9.113355,3.7904496 C 8.797153,3.6574754 8.487549,3.5208254 8.087891,3.5208254 Z m 0.457031,2.2792968 c 0.0985,0 0.126158,0.00656 0.130859,0.00391 4.44e-4,-0.00232 0.01389,0.027058 0.01367,0.017578 L 7.898438,9.5423084 C 7.813168,9.9176288 7.674995,10.16527 7.496094,10.341132 7.309976,10.518937 7.17501,10.567694 6.998047,10.567694 c -0.04706,0 -0.0097,0.0099 -0.02344,-0.0039 l -0.0059,-0.0059 -0.0059,-0.0059 c -0.02377,-0.0225 -0.125,-0.192386 -0.125,-0.6113272 0,-0.2386776 0.01256,-0.4599486 0.03711,-0.6660102 C 7.048067,7.8327753 7.467742,6.7926864 8.079995,6.1008285 8.308515,5.8428564 8.446952,5.8000473 8.544839,5.8000472 Z"
     style="color:#000000;font-style:normal;font-variant:normal;font-weight:normal;font-stretch:normal;font-size:40px;line-height:1.25;font-family:sans-serif;font-variant-ligatures:normal;font-variant-position:normal;font-variant-caps:normal;font-variant-numeric:normal;font-variant-alternates:normal;font-feature-settings:normal;text-indent:0;text-align:start;text-decoration:none;text-decoration-line:none;text-decoration-style:solid;text-decoration-color:#000000;letter-spacing:0px;word-spacing:0px;text-transform:none;writing-mode:lr-tb;direction:ltr;text-orientation:mixed;dominant-baseline:auto;baseline-shift:baseline;text-anchor:start;white-space:normal;shape-padding:0;clip-rule:nonzero;display:inline;overflow:visible;visibility:visible;opacity:0.7;isolation:auto;mix-blend-mode:normal;color-interpolation:sRGB;color-interpolation-filters:linearRGB;solid-color:#000000;solid-opacity:1;vector-effect:none;fill:none;fill-opacity:1;fill-rule:nonzero;stroke:#ffffff;stroke-width:2;stroke-linecap:butt;stroke-linejoin:miter;stroke-miterlimit:4;stroke-dasharray:none;stroke-dashoffset:0;stroke-opacity:1;color-rendering:auto;image-rendering:auto;shape-rendering:auto;text-rendering:auto;enable-background:accumulate" />
  <path
     style="color:#000000;font-style:normal;font-variant:normal;font-weight:normal;font-stretch:normal;font-size:40px;line-height:1.25;font-family:sans-serif;font-variant-ligatures:normal;font-variant-position:normal;font-variant-caps:normal;font-variant-numeric:normal;font-variant-alternates:normal;font-feature-settings:normal;text-indent:0;text-align:start;text-decoration:none;text-decoration-line:none;text-decoration-style:solid;text-decoration-color:#000000;letter-spacing:0px;word-spacing:0px;text-transform:none;writing-mode:lr-tb;direction:ltr;text-orientation:mixed;dominant-baseline:auto;baseline-shift:baseline;text-anchor:start;white-space:normal;shape-padding:0;clip-rule:nonzero;display:inline;overflow:visible;visibility:visible;opacity:1;isolation:auto;mix-blend-mode:normal;color-interpolation:sRGB;color-interpolation-filters:linearRGB;solid-color:#000000;solid-opacity:1;vector-effect:none;fill:#1a1a1a;fill-opacity:1;fill-rule:nonzero;stroke:none;stroke-width:0.1;stroke-linecap:butt;stroke-linejoin:miter;stroke-miterlimit:4;stroke-dasharray:none;stroke-dashoffset:0;stroke-opacity:1;color-rendering:auto;image-rendering:auto;shape-rendering:auto;text-rendering:auto;enable-background:accumulate"
     d="m 8.087891,3.5208254 c -1.070896,0 -2.047325,0.3898757 -2.810547,1.1269531 C 4.54485,5.3551816 3.9873037,6.2488139 3.6054688,7.2981691 3.4328828,7.7739479 3.302691,8.2542393 3.21875,8.7395754 c -0.08367,0.4777818 -0.125,0.9593218 -0.125,1.4433536 0,0.50189 0.07235,0.97099 0.2285156,1.398437 0.41914,1.145324 1.4161244,1.855469 2.6210934,1.855469 0.91938,0 1.708161,-0.487191 2.398438,-1.175781 0.106216,0.192515 0.12134,0.445875 0.279297,0.597656 l 0.002,0.002 0.002,0.002 c 0.403716,0.380175 0.953038,0.574219 1.525391,0.574219 0.598763,0 1.174349,-0.244335 1.574218,-0.681641 l 0.0039,-0.0039 0.0039,-0.0039 c 0.296852,-0.336209 0.472883,-0.765402 0.720703,-1.427735 l 0.544922,-1.4570294 -1.390625,0.6953114 c 0.0095,-0.0048 -0.01986,0.0098 -0.101563,0.0098 -0.09135,0 -0.07109,9.52e-4 -0.08203,-0.002 0.0026,-0.142711 0.01659,-0.281228 0.05078,-0.414062 l 0.0039,-0.01172 1.380859,-6.5351502 H 9.150465 L 9.113355,3.7904496 C 8.797153,3.6574754 8.487549,3.5208254 8.087891,3.5208254 Z m 0.457031,2.2792968 c 0.0985,0 0.126158,0.00656 0.130859,0.00391 4.44e-4,-0.00232 0.01389,0.027058 0.01367,0.017578 L 7.898438,9.5423084 C 7.813168,9.9176288 7.674995,10.16527 7.496094,10.341132 7.309976,10.518937 7.17501,10.567694 6.998047,10.567694 c -0.04706,0 -0.0097,0.0099 -0.02344,-0.0039 l -0.0059,-0.0059 -0.0059,-0.0059 c -0.02377,-0.0225 -0.125,-0.192386 -0.125,-0.6113272 0,-0.2386776 0.01256,-0.4599486 0.03711,-0.6660102 C 7.048067,7.8327753 7.467742,6.7926864 8.079995,6.1008285 8.308515,5.8428564 8.446952,5.8000473 8.544839,5.8000472 Z"
     id="path57"
     inkscape:connector-curvature="0" />
  <g
     aria-label="s"
     id="g42"
     style="font-style:normal;font-variant:normal;font-weight:normal;font-stretch:normal;font-size:40px;line-height:1.25;font-family:'Swis721 BlkCn BT';-inkscape-font-specification:'Swis721 BlkCn BT';letter-spacing:0px;word-spacing:0px;white-space:pre;shape-inside:url(#rect868);fill:none;fill-opacity:1;stroke:#ffffff;stroke-width:4.34076;stroke-opacity:1"
     transform="matrix(0.23045098,0,0,0.23029835,20.82761,14.287063)" />
</svg>
