<?xml version="1.0" encoding="UTF-8" standalone="no"?>
<svg
   xmlns:dc="http://purl.org/dc/elements/1.1/"
   xmlns:cc="http://creativecommons.org/ns#"
   xmlns:rdf="http://www.w3.org/1999/02/22-rdf-syntax-ns#"
   xmlns:svg="http://www.w3.org/2000/svg"
   xmlns="http://www.w3.org/2000/svg"
   xmlns:sodipodi="http://sodipodi.sourceforge.net/DTD/sodipodi-0.dtd"
   xmlns:inkscape="http://www.inkscape.org/namespaces/inkscape"
   inkscape:version="0.92.5 (2060ec1f9f, 2020-04-08)"
   sodipodi:docname="ct_fmt-txt-monospace.svg"
   version="1.1"
   width="16"
   height="16"
   id="svg3828">
  <sodipodi:namedview
     inkscape:guide-bbox="true"
     showguides="true"
     inkscape:current-layer="svg3828"
     inkscape:window-maximized="1"
     inkscape:window-y="0"
     inkscape:window-x="0"
     inkscape:cy="11.665476"
     inkscape:cx="-18.835747"
     inkscape:zoom="18.487714"
     showgrid="false"
     id="namedview41"
     inkscape:window-height="717"
     inkscape:window-width="1366"
     inkscape:pageshadow="2"
     inkscape:pageopacity="0"
     guidetolerance="10"
     gridtolerance="10"
     objecttolerance="10"
     borderopacity="1"
     bordercolor="#666666"
     pagecolor="#ffffff"
     inkscape:document-rotation="0">
    <sodipodi:guide
       id="guide875"
       orientation="0,-1"
       position="-39.646712,54.076816"
       inkscape:locked="false" />
  </sodipodi:namedview>
  <defs
     id="defs3830" />
  <metadata
     id="metadata3833">
    <rdf:RDF>
      <cc:Work
         rdf:about="">
        <dc:format>image/svg+xml</dc:format>
        <dc:type
           rdf:resource="http://purl.org/dc/dcmitype/StillImage" />
        <dc:title />
      </cc:Work>
    </rdf:RDF>
  </metadata>
  <path
     style="color:#000000;font-style:normal;font-variant:normal;font-weight:normal;font-stretch:normal;font-size:40px;line-height:1.25;font-family:'Swis721 BlkCn BT';-inkscape-font-specification:'Swis721 BlkCn BT';font-variant-ligatures:normal;font-variant-position:normal;font-variant-caps:normal;font-variant-numeric:normal;font-variant-alternates:normal;font-feature-settings:normal;text-indent:0;text-align:start;text-decoration:none;text-decoration-line:none;text-decoration-style:solid;text-decoration-color:#000000;letter-spacing:0px;word-spacing:0px;text-transform:none;writing-mode:lr-tb;direction:ltr;text-orientation:mixed;dominant-baseline:auto;baseline-shift:baseline;text-anchor:start;white-space:pre;shape-inside:url(#rect868);shape-padding:0;clip-rule:nonzero;display:inline;overflow:visible;visibility:visible;opacity:0.7;isolation:auto;mix-blend-mode:normal;color-interpolation:sRGB;color-interpolation-filters:linearRGB;solid-color:#000000;solid-opacity:1;vector-effect:none;fill:#ffffff;fill-opacity:1;fill-rule:nonzero;stroke:none;stroke-width:2;stroke-linecap:butt;stroke-linejoin:miter;stroke-miterlimit:4;stroke-dasharray:none;stroke-dashoffset:0;stroke-opacity:1;color-rendering:auto;image-rendering:auto;shape-rendering:auto;text-rendering:auto;enable-background:accumulate"
     d="M 7.2089844 3.6601562 C 6.6677734 3.6601562 6.15006 3.8590715 5.7109375 4.1738281 C 5.288498 3.868282 4.7910228 3.6757813 4.2714844 3.6757812 C 4.0911988 3.6757812 3.9480458 3.8248911 3.7695312 3.8671875 L -0.28125 3.8671875 L -0.171875 4.9667969 C -0.164174 5.0440339 -0.16015625 5.1127665 -0.16015625 5.171875 L -0.16015625 13.015625 C -0.16015625 13.072565 -0.16676922 13.151114 -0.18164062 13.248047 L -0.35742188 14.398438 L 2.7929688 14.398438 L 4 14.398438 L 5.5292969 14.398438 L 6.7246094 14.398438 L 9.7871094 14.398438 L 9.7265625 13.599609 C 10.433558 14.163565 11.347134 14.429687 12.34375 14.429688 C 13.457671 14.429687 14.468683 14.151753 15.212891 13.490234 C 15.953519 12.831898 16.320312 11.845082 16.320312 10.804688 C 16.320312 9.9918051 16.10666 9.2137433 15.623047 8.6074219 C 15.541138 8.5046798 15.35369 8.4560804 15.259766 8.3632812 L 16.234375 8.3671875 L 16.234375 7.2128906 C 16.234375 6.2046402 15.881608 5.2427298 15.158203 4.609375 C 14.442051 3.9734065 13.471455 3.7089844 12.408203 3.7089844 C 11.364145 3.7089844 10.396024 3.9949756 9.6699219 4.6269531 L 9.6679688 4.6289062 L 9.6660156 4.6289062 C 9.5320723 4.7465756 9.4210579 4.8839517 9.3105469 5.0214844 C 9.2712928 4.9449258 9.2370498 4.8662244 9.1914062 4.7929688 C 8.7830853 4.1253356 7.9945676 3.6601563 7.2089844 3.6601562 z M 11.226562 5.6523438 C 11.223862 5.6547338 11.225256 5.6596894 11.222656 5.6621094 C 11.219856 5.6646294 11.215691 5.6634656 11.212891 5.6660156 L 11.226562 5.6523438 z M 7.2089844 5.6601562 C 7.4005295 5.6601562 7.3617595 5.6310692 7.4863281 5.8359375 L 7.4902344 5.8417969 L 7.4941406 5.8476562 C 7.6189857 6.0468329 7.6933594 6.2846751 7.6933594 6.6445312 L 7.6933594 7.5878906 C 7.6880663 7.2443886 7.6616947 6.9024327 7.4394531 6.5429688 C 7.2790886 6.2835877 6.9316619 6.2050955 6.6210938 6.0917969 L 6.6347656 6.0585938 C 6.7975194 5.6568397 6.8000092 5.6601563 7.2089844 5.6601562 z M 4.2714844 5.6757812 C 4.607592 5.6757812 4.6122101 5.6623532 4.7890625 6.0761719 L 4.9941406 6.5546875 C 4.7920612 6.8870537 4.7698414 7.2034483 4.7597656 7.5214844 C 4.7506955 7.2081633 4.7352286 6.900776 4.5429688 6.5683594 C 4.4140476 6.3454551 4.1025917 6.2905869 3.8378906 6.1621094 C 3.9168295 5.980396 4.0023399 5.796142 4.0527344 5.75 C 4.1217914 5.686771 4.1330514 5.6757811 4.2714844 5.6757812 z M 13.845703 5.9082031 L 13.855469 5.9238281 C 13.854169 5.9217481 13.851009 5.9219919 13.849609 5.9199219 C 13.847009 5.9160019 13.848303 5.9121221 13.845703 5.9082031 z M 1.8398438 6.0253906 L 2.7792969 6.1660156 C 2.5247557 6.285995 2.2283233 6.3221907 2.0898438 6.5410156 C 1.8732212 6.8833219 1.8509042 7.2173643 1.8398438 7.5507812 L 1.8398438 6.0253906 z M 11.021484 6.1230469 C 10.88215 6.3811782 10.685547 6.6240682 10.685547 6.890625 C 10.685547 7.3898525 10.947005 7.8402652 11.25 8.1328125 C 11.552995 8.4253598 11.90763 8.6244907 12.320312 8.8066406 L 12.3125 8.8046875 C 12.40726 8.8473285 12.480868 8.8794427 12.53125 8.9023438 L 12.533203 8.9042969 L 12.535156 8.9042969 C 13.410706 9.297852 13.931112 9.6936883 14.058594 9.8535156 C 14.214107 10.048488 14.320313 10.320237 14.320312 10.804688 C 14.320312 10.951054 14.234652 10.967266 14.21875 11.082031 C 14.215081 10.718881 14.08699 10.306797 13.826172 10 C 13.509928 9.6167531 13.214635 9.4890389 12.816406 9.3007812 C 12.726592 9.2560975 12.613091 9.201309 12.455078 9.1269531 L 12.453125 9.125 L 12.449219 9.1230469 C 11.670182 8.7624104 11.167097 8.4180342 11 8.2460938 L 10.992188 8.2382812 L 10.984375 8.2304688 C 10.846191 8.095124 10.748201 7.9486973 10.673828 7.765625 C 10.597667 7.5781524 10.560547 7.3936563 10.560547 7.1835938 C 10.560547 6.6557346 10.684689 6.3978034 10.986328 6.1328125 C 10.993828 6.1263325 11.013864 6.1294069 11.021484 6.1230469 z M 14.140625 11.292969 C 14.069825 11.534787 14.053695 11.844196 13.882812 11.996094 C 13.873712 12.004194 13.843414 12.001896 13.833984 12.009766 C 13.980311 11.782817 14.105839 11.552402 14.140625 11.292969 z M 10.757812 11.585938 L 10.824219 11.587891 C 10.874529 11.725639 10.865409 11.879682 10.949219 12.011719 C 10.939619 12.003419 10.911624 12.006517 10.902344 11.998047 C 10.807404 11.909927 10.821764 11.697808 10.757812 11.585938 z "
     id="path56" />
  <g
     transform="matrix(0.36630558,0,0,0.36630558,25.033938,11.574632)"
     style="font-style:normal;font-variant:normal;font-weight:normal;font-stretch:normal;font-size:40px;line-height:1.25;font-family:'Swis721 BlkCn BT';-inkscape-font-specification:'Swis721 BlkCn BT';letter-spacing:0px;word-spacing:0px;white-space:pre;shape-inside:url(#rect868);fill:#1a1a1a;fill-opacity:1;stroke:none;stroke-width:0.27299611"
     id="text866"
     aria-label="s">
    <path
       id="path872"
       style="font-style:normal;font-variant:normal;font-weight:normal;font-stretch:normal;font-family:'Swis721 BlkCn BT';-inkscape-font-specification:'Swis721 BlkCn BT';fill:#1a1a1a;fill-opacity:1;stroke:none;stroke-width:0.27299611"
       d="m -42.474609,-2.7089844 5.644531,0.019531 q 0.09766,1.75781247 0.683594,2.57812498 0.585937,0.80078124 1.757812,0.80078124 0.9375,0 1.542969,-0.546875 0.605469,-0.56640625 0.605469,-1.44531252 0,-0.7617187 -0.429688,-1.25 -0.410156,-0.5078125 -1.855469,-1.1914062 -0.3125,-0.15625 -0.976562,-0.46875 -3.417969,-1.5820313 -4.765625,-2.96875 -0.957031,-0.9375 -1.464844,-2.1875 -0.507812,-1.2500001 -0.507812,-2.6171871 0,-3.085938 2.089843,-4.921875 2.109375,-1.835938 5.683594,-1.835938 3.710938,0 5.703125,1.777344 2.011719,1.757813 2.011719,5.058594 v 0.410156 l -5.527344,-0.01953 q -0.03906,-1.699219 -0.527344,-2.421875 -0.46875,-0.722656 -1.542968,-0.722656 -0.957032,0 -1.523438,0.527343 -0.566406,0.507813 -0.566406,1.347657 0,1.484375 2.832031,2.734375 0.390625,0.1757806 0.605469,0.2734368 3.867187,1.7382813 5.175781,3.3789063 1.308594,1.640625 1.308594,4.296875 0,3.4179687 -2.109375,5.2929687 -2.109375,1.875 -6.015625,1.875 -3.710938,0 -5.78125,-1.8945312 -2.050781,-1.8945313 -2.050781,-5.3125 z" />
  </g>
  <g
     transform="matrix(0.40861248,0,0,0.40976372,20.092131,9.556834)"
     style="font-style:normal;font-variant:normal;font-weight:normal;font-stretch:normal;font-size:40px;line-height:1.25;font-family:'Open Sans';-inkscape-font-specification:'Open Sans';letter-spacing:0px;word-spacing:0px;white-space:pre;shape-inside:url(#rect879);fill:#1a1a1a;fill-opacity:1;stroke:none;stroke-width:0.24438663"
     id="text877"
     aria-label="m">
    <path
       id="path885"
       style="font-style:normal;font-variant:normal;font-weight:bold;font-stretch:normal;font-family:DFGothic-EB;-inkscape-font-specification:'DFGothic-EB Bold';fill:#1a1a1a;stroke:none;stroke-width:0.24438663;fill-opacity:1"
       d="m -27.859375,9.3769531 h -4.960937 q 0.07813,-0.546875 0.07813,-1.015625 v -12.96875 q 0,-1.953125 -1.210938,-1.953125 -1.210937,0 -1.210937,1.953125 v 13.984375 h -4.726563 v -13.984375 q 0,-1.953125 -1.132812,-1.953125 -1.289063,0 -1.289063,2.03125 V 8.4003906 q 0,0.46875 0.07813,0.9765625 h -4.960937 q 0.07813,-0.5078125 0.07813,-0.9375 V -10.701172 q 0,-0.351562 -0.03906,-0.742187 h 4.882813 q 0,1.171875 0,1.171875 0,0.4296871 -0.03906,1.0546871 0,0.46875 0,0.5859375 1.015625,-3.2812496 3.59375,-3.2812496 2.460938,0 3.515625,2.4609371 1.015625,-2.5000001 3.671875,-2.5000001 1.796875,0 2.773438,1.601563 0.859375,1.3671871 0.859375,3.2421871 V 8.4003906 q 0,0.46875 0.03906,0.9765625 z" />
  </g>
  <text
     xml:space="preserve"
     id="text864"
     style="font-style:normal;font-variant:normal;font-weight:normal;font-stretch:normal;font-size:40px;line-height:1.25;font-family:DFGothic-EB;-inkscape-font-specification:DFGothic-EB;letter-spacing:0px;word-spacing:0px;white-space:pre;shape-inside:url(#rect866);fill:#000000;fill-opacity:1;stroke:none;" />
  <text
     xml:space="preserve"
     style="font-style:normal;font-weight:normal;font-size:40px;line-height:1.25;font-family:sans-serif;letter-spacing:0px;word-spacing:0px;fill:#000000;fill-opacity:1;stroke:none"
     x="-21.633255"
     y="-7.7980337"
     id="text872"><tspan
       sodipodi:role="line"
       id="tspan870"
       x="-21.633255"
       y="-7.7980337" /></text>
  <text
     xml:space="preserve"
     id="text874"
     style="font-style:normal;font-weight:normal;font-size:40px;line-height:1.25;font-family:sans-serif;letter-spacing:0px;word-spacing:0px;white-space:pre;shape-inside:url(#rect876);fill:#000000;fill-opacity:1;stroke:none;"><tspan
       style="visibility:hidden"
       x="-27.417969"
       y="54.507812"
       id="tspan52"><tspan
         id="tspan50">h</tspan></tspan></text>
</svg>
