<?xml version="1.0" encoding="UTF-8" standalone="no"?>
<svg
   xmlns:dc="http://purl.org/dc/elements/1.1/"
   xmlns:cc="http://creativecommons.org/ns#"
   xmlns:rdf="http://www.w3.org/1999/02/22-rdf-syntax-ns#"
   xmlns:svg="http://www.w3.org/2000/svg"
   xmlns="http://www.w3.org/2000/svg"
   xmlns:sodipodi="http://sodipodi.sourceforge.net/DTD/sodipodi-0.dtd"
   xmlns:inkscape="http://www.inkscape.org/namespaces/inkscape"
   inkscape:version="1.0.1 (3bc2e813f5, 2020-09-07)"
   sodipodi:docname="ct_fmt-txt-underline.svg"
   version="1.1"
   width="16"
   height="16"
   id="svg3828">
  <sodipodi:namedview
     inkscape:current-layer="svg3828"
     inkscape:window-maximized="1"
     inkscape:window-y="22"
     inkscape:window-x="-8"
     inkscape:cy="2.5047543"
     inkscape:cx="0.58348185"
     inkscape:zoom="23.030537"
     showgrid="false"
     id="namedview41"
     inkscape:window-height="715"
     inkscape:window-width="1366"
     inkscape:pageshadow="2"
     inkscape:pageopacity="0"
     guidetolerance="10"
     gridtolerance="10"
     objecttolerance="10"
     borderopacity="1"
     bordercolor="#666666"
     pagecolor="#ffffff"
     inkscape:document-rotation="0"
     inkscape:pagecheckerboard="false"
     inkscape:snap-global="false"
     inkscape:showpageshadow="false">
    <inkscape:grid
       id="grid864"
       type="xygrid" />
  </sodipodi:namedview>
  <defs
     id="defs3830" />
  <metadata
     id="metadata3833">
    <rdf:RDF>
      <cc:Work
         rdf:about="">
        <dc:format>image/svg+xml</dc:format>
        <dc:type
           rdf:resource="http://purl.org/dc/dcmitype/StillImage" />
        <dc:title></dc:title>
      </cc:Work>
    </rdf:RDF>
  </metadata>
  <g
     aria-label="s"
     id="g867"
     style="font-style:normal;font-variant:normal;font-weight:normal;font-stretch:normal;font-size:40px;line-height:1.25;font-family:'Swis721 BlkCn BT';-inkscape-font-specification:'Swis721 BlkCn BT';letter-spacing:0px;word-spacing:0px;white-space:pre;shape-inside:url(#rect868);fill:none;fill-opacity:1;stroke:#ffffff;stroke-width:3.70049743"
     transform="matrix(0.27032347,0,0,0.27014444,21.492757,14.111409)" />
  <g
     aria-label="s"
     id="g42"
     style="font-style:normal;font-variant:normal;font-weight:normal;font-stretch:normal;font-size:40px;line-height:1.25;font-family:'Swis721 BlkCn BT';-inkscape-font-specification:'Swis721 BlkCn BT';letter-spacing:0px;word-spacing:0px;white-space:pre;shape-inside:url(#rect868);fill:none;fill-opacity:1;stroke:#ffffff;stroke-width:4.34076;stroke-opacity:1"
     transform="matrix(0.23045098,0,0,0.23029835,20.82761,14.287063)" />
  <path
     style="color:#000000;font-style:normal;font-variant:normal;font-weight:normal;font-stretch:normal;font-size:40px;line-height:1.25;font-family:sans-serif;font-variant-ligatures:normal;font-variant-position:normal;font-variant-caps:normal;font-variant-numeric:normal;font-variant-alternates:normal;font-feature-settings:normal;text-indent:0;text-align:start;text-decoration:none;text-decoration-line:none;text-decoration-style:solid;text-decoration-color:#000000;letter-spacing:0px;word-spacing:0px;text-transform:none;writing-mode:lr-tb;direction:ltr;text-orientation:mixed;dominant-baseline:auto;baseline-shift:baseline;text-anchor:start;white-space:normal;shape-padding:0;clip-rule:nonzero;display:inline;overflow:visible;visibility:visible;opacity:0.7;isolation:auto;mix-blend-mode:normal;color-interpolation:sRGB;color-interpolation-filters:linearRGB;solid-color:#000000;solid-opacity:1;vector-effect:none;fill:#ffffff;fill-opacity:1;fill-rule:nonzero;stroke:none;stroke-width:2;stroke-linecap:butt;stroke-linejoin:miter;stroke-miterlimit:4;stroke-dasharray:none;stroke-dashoffset:0;stroke-opacity:1;color-rendering:auto;image-rendering:auto;shape-rendering:auto;text-rendering:auto;enable-background:accumulate"
     d="M 8.0917969 3.7597656 C 6.9323932 3.7597656 5.8405961 4.1956096 5.0117188 4.9960938 C 4.233062 5.7480785 3.6431201 6.6964965 3.2441406 7.7929688 C 3.0640627 8.2894026 2.9297508 8.7922419 2.8417969 9.3007812 C 2.7545073 9.7998679 2.7109375 10.304788 2.7109375 10.810547 C 2.7109375 11.349657 2.7885575 11.864605 2.9628906 12.341797 C 3.0421437 12.55836 3.1496979 12.756907 3.2695312 12.947266 L 0.01171875 12.943359 L 0.01171875 13.943359 L 0.01171875 15.978516 L 15.976562 15.978516 L 15.976562 12.958984 L 12.46875 12.955078 C 12.588624 12.704914 12.692725 12.423025 12.820312 12.082031 L 13.712891 9.7011719 L 11.916016 10.599609 L 13.341797 3.84375 L 8.8378906 3.84375 L 8.8144531 3.9589844 C 8.5702904 3.9126462 8.3527637 3.7597656 8.0917969 3.7597656 z M 9.7441406 4.2070312 L 9.7578125 4.2167969 C 9.7549125 4.2145669 9.7509569 4.2170491 9.7480469 4.2148438 C 9.7457769 4.2131337 9.7464206 4.2087212 9.7441406 4.2070312 z M 10.474609 5.84375 L 10.875 5.84375 L 9.9179688 10.376953 C 9.846844 10.653286 9.8125 10.93851 9.8125 11.224609 C 9.8125 11.60347 9.986939 12.073715 10.326172 12.382812 C 10.275482 12.400132 10.252222 12.453125 10.154297 12.453125 C 9.9102166 12.453125 9.8377718 12.411365 9.7402344 12.320312 C 9.6435524 12.226603 9.5526288 12.081805 9.5078125 11.742188 L 9.3730469 10.716797 C 9.3937099 10.644877 9.4579949 10.596843 9.4746094 10.523438 L 9.4765625 10.517578 L 10.314453 6.5683594 L 10.314453 6.4628906 C 10.314453 6.2141356 10.212334 6.0825864 10.138672 5.9160156 L 10.453125 5.9472656 L 10.474609 5.84375 z M 6.421875 6.4277344 C 5.8473548 7.3439512 5.4354486 8.410532 5.2792969 9.7109375 C 5.2463789 9.9871649 5.2304688 10.272482 5.2304688 10.568359 C 5.2304688 11.206758 5.3457423 11.850575 5.8515625 12.337891 C 5.9056915 12.390931 5.9974353 12.377005 6.0605469 12.421875 C 6.0200499 12.424075 5.9890189 12.453125 5.9472656 12.453125 C 5.2585709 12.453125 5.0895213 12.336553 4.8398438 11.654297 C 4.7591497 11.433417 4.7109375 11.157879 4.7109375 10.810547 C 4.7109375 10.419433 4.7428209 10.03126 4.8105469 9.6445312 L 4.8125 9.6425781 C 4.8797761 9.2535955 4.983528 8.8646155 5.125 8.4746094 C 5.4355494 7.6222853 5.8601978 6.9572361 6.4003906 6.4355469 C 6.4065406 6.4296069 6.415718 6.4335944 6.421875 6.4277344 z M 7.9296875 8.1738281 L 7.5234375 10.085938 C 7.4517205 10.39905 7.3458903 10.568449 7.2304688 10.683594 C 7.2189048 10.624864 7.2304688 10.695734 7.2304688 10.568359 C 7.2304688 10.344158 7.2412669 10.137893 7.2636719 9.9492188 L 7.2636719 9.9472656 C 7.3637084 9.115821 7.6817034 8.7151556 7.9296875 8.1738281 z "
     id="path62" />
  <path
     style="font-style:normal;font-weight:normal;font-size:40px;line-height:1.25;font-family:sans-serif;letter-spacing:0px;word-spacing:0px;fill:#1a1a1a;fill-opacity:1;stroke:none;stroke-width:0.1"
     d="m 8.0925083,4.760054 c -0.931381,0 -1.726934,0.318564 -2.386663,0.955694 -0.659727,0.637129 -1.166997,1.443237 -1.521807,2.418323 -0.160775,0.44322 -0.279969,0.88921 -0.357584,1.337971 -0.07762,0.443222 -0.116425,0.889212 -0.116425,1.337973 0,0.443221 0.06375,0.839349 0.191264,1.188385 0.354814,0.969546 1.036716,1.454318 2.045711,1.454318 1.008995,0 1.865534,-0.526324 2.569612,-1.578974 0.06653,0.504164 0.243933,0.894751 0.532218,1.171765 0.288284,0.271473 0.656954,0.407209 1.1060127,0.407209 0.454602,0 0.828818,-0.160668 1.122646,-0.482004 0.166317,-0.188367 0.368671,-0.601117 0.607061,-1.238246 -0.09979,0.04985 -0.22453,0.0748 -0.374217,0.0748 -0.465689,0 -0.698534,-0.19391 -0.698534,-0.581729 0,-0.20499 0.02494,-0.404438 0.07485,-0.598348 L 12.109085,4.843158 H 9.6558953 L 9.4729463,5.74899 V 5.624334 c 0,-0.249312 -0.108113,-0.454301 -0.32432,-0.614969 C 8.9324133,4.843158 8.5803743,4.760054 8.0925083,4.760054 Z m 0.457374,1.055418 c 0.316004,0 0.521128,0.0831 0.615376,0.249313 0.09979,0.160666 0.149687,0.293633 0.149687,0.398898 l -0.814958,3.839399 c -0.105334,0.465381 -0.296601,0.833808 -0.573797,1.105282 -0.277196,0.265932 -0.584885,0.398899 -0.923064,0.398899 -0.182951,0 -0.335408,-0.06095 -0.457374,-0.18283 -0.21067,-0.19945 -0.316005,-0.551255 -0.316005,-1.055419 0,-0.260392 0.01386,-0.506934 0.04159,-0.739625 0.182949,-1.523569 0.634779,-2.692564 1.35549,-3.506982 0.299372,-0.337956 0.60706,-0.506935 0.923064,-0.506935 z"
     id="path868"
     inkscape:connector-curvature="0" />
  <path
     sodipodi:nodetypes="ccccc"
     d="m 1.0123189,13.943775 13.9650081,0.01361 v 1.020612 H 1.0123189 Z"
     style="fill:#1a1a1a;fill-opacity:1;stroke-width:0.1;stroke-linecap:round;stop-color:#000000;stroke:none"
     id="rect44" />
</svg>
