<?xml version="1.0" encoding="UTF-8" standalone="no"?>
<svg
   xmlns:dc="http://purl.org/dc/elements/1.1/"
   xmlns:cc="http://creativecommons.org/ns#"
   xmlns:rdf="http://www.w3.org/1999/02/22-rdf-syntax-ns#"
   xmlns:svg="http://www.w3.org/2000/svg"
   xmlns="http://www.w3.org/2000/svg"
   xmlns:sodipodi="http://sodipodi.sourceforge.net/DTD/sodipodi-0.dtd"
   xmlns:inkscape="http://www.inkscape.org/namespaces/inkscape"
   inkscape:version="0.92.5 (2060ec1f9f, 2020-04-08)"
   sodipodi:docname="ct_fmt-txt-strikethrough.svg"
   version="1.1"
   width="16"
   height="16"
   id="svg3828">
  <sodipodi:namedview
     inkscape:current-layer="svg3828"
     inkscape:window-maximized="1"
     inkscape:window-y="0"
     inkscape:window-x="0"
     inkscape:cy="5.3298708"
     inkscape:cx="-11.052791"
     inkscape:zoom="23.974747"
     showgrid="true"
     id="namedview41"
     inkscape:window-height="717"
     inkscape:window-width="1366"
     inkscape:pageshadow="2"
     inkscape:pageopacity="0"
     guidetolerance="10"
     gridtolerance="10"
     objecttolerance="10"
     borderopacity="1"
     bordercolor="#666666"
     pagecolor="#ffffff"
     inkscape:document-rotation="0"
     inkscape:pagecheckerboard="true"
     inkscape:snap-global="false"
     inkscape:showpageshadow="false">
    <inkscape:grid
       id="grid864"
       type="xygrid" />
  </sodipodi:namedview>
  <defs
     id="defs3830" />
  <metadata
     id="metadata3833">
    <rdf:RDF>
      <cc:Work
         rdf:about="">
        <dc:format>image/svg+xml</dc:format>
        <dc:type
           rdf:resource="http://purl.org/dc/dcmitype/StillImage" />
        <dc:title />
      </cc:Work>
    </rdf:RDF>
  </metadata>
  <g
     aria-label="s"
     id="g867"
     style="font-style:normal;font-variant:normal;font-weight:normal;font-stretch:normal;font-size:40px;line-height:1.25;font-family:'Swis721 BlkCn BT';-inkscape-font-specification:'Swis721 BlkCn BT';letter-spacing:0px;word-spacing:0px;white-space:pre;shape-inside:url(#rect868);fill:none;fill-opacity:1;stroke:#ffffff;stroke-width:3.70049743"
     transform="matrix(0.27032347,0,0,0.27014444,21.492757,14.111409)" />
  <path
     style="font-style:normal;font-weight:normal;font-size:40px;line-height:1.25;font-family:sans-serif;letter-spacing:0px;word-spacing:0px;fill:none;fill-opacity:1;stroke:#ffffff;stroke-width:2;opacity:0.7"
     d="M 8.0917969 4.7597656 C 7.1604159 4.7597656 6.3648071 5.0777138 5.7050781 5.7148438 C 5.0724913 6.3257622 4.5983352 7.1135149 4.2460938 8.0351562 L 6.6933594 8.0429688 C 6.9280202 7.3684658 7.2251317 6.776332 7.6269531 6.3222656 C 7.9263251 5.9843096 8.2347772 5.8164062 8.5507812 5.8164062 C 8.8667854 5.8164062 9.0717676 5.8982401 9.1660156 6.0644531 C 9.2658056 6.2251191 9.3144531 6.3576256 9.3144531 6.4628906 L 8.9785156 8.0488281 L 11.429688 8.0566406 L 12.109375 4.84375 L 9.65625 4.84375 L 9.4726562 5.7480469 L 9.4726562 5.625 C 9.4726562 5.375688 9.3646445 5.1704336 9.1484375 5.0097656 C 8.9322245 4.8435586 8.5796629 4.7597656 8.0917969 4.7597656 z M 1.0117188 8.9863281 L 1.0117188 10.019531 L 14.976562 10.019531 L 14.976562 9 L 1.0117188 8.9863281 z M 3.7441406 11.021484 C 3.7627612 11.372246 3.7955196 11.71099 3.9003906 11.998047 C 4.2552046 12.967593 4.9382706 13.453125 5.9472656 13.453125 C 6.9562606 13.453125 7.8135001 12.925697 8.5175781 11.873047 C 8.5841081 12.377211 8.7605431 12.767908 9.0488281 13.044922 C 9.3371121 13.316395 9.7052381 13.453125 10.154297 13.453125 C 10.608899 13.453125 10.983516 13.292039 11.277344 12.970703 C 11.443661 12.782336 11.646376 12.369551 11.884766 11.732422 C 11.784976 11.782272 11.659453 11.806641 11.509766 11.806641 C 11.044077 11.806641 10.8125 11.612428 10.8125 11.224609 C 10.8125 11.154933 10.832127 11.089881 10.837891 11.021484 L 8.1269531 11.021484 C 8.0509978 11.140227 8.0227813 11.313205 7.9257812 11.408203 C 7.6485853 11.674135 7.3420853 11.806641 7.0039062 11.806641 C 6.8209552 11.806641 6.6668879 11.74688 6.5449219 11.625 C 6.4245901 11.511077 6.4168343 11.234821 6.3652344 11.021484 L 3.7441406 11.021484 z "
     id="path46" />
  <path
     d="M 10.837891 11.021484 L 8.1269531 11.021484 C 8.0509978 11.140227 8.0227813 11.313205 7.9257812 11.408203 C 7.6485853 11.674135 7.3420853 11.806641 7.0039062 11.806641 C 6.8209552 11.806641 6.6668879 11.74688 6.5449219 11.625 C 6.4245901 11.511077 6.4168343 11.234821 6.3652344 11.021484 L 3.7441406 11.021484 C 3.7627612 11.372246 3.7955196 11.71099 3.9003906 11.998047 C 4.2552046 12.967593 4.9382706 13.453125 5.9472656 13.453125 C 6.9562606 13.453125 7.8135001 12.925697 8.5175781 11.873047 C 8.5841081 12.377211 8.7605431 12.767908 9.0488281 13.044922 C 9.3371121 13.316395 9.7052382 13.453125 10.154297 13.453125 C 10.608899 13.453125 10.983516 13.292039 11.277344 12.970703 C 11.443661 12.782336 11.646376 12.369551 11.884766 11.732422 C 11.784976 11.782272 11.659453 11.806641 11.509766 11.806641 C 11.044077 11.806641 10.8125 11.612428 10.8125 11.224609 C 10.8125 11.154933 10.832127 11.089881 10.837891 11.021484 z "
     style="font-style:normal;font-weight:normal;font-size:40px;line-height:1.25;font-family:sans-serif;letter-spacing:0px;word-spacing:0px;fill:#1a1a1a;fill-opacity:1;stroke:none;stroke-width:0.1"
     id="path905" />
  <path
     d="M 8.0917969 4.7597656 C 7.1604159 4.7597656 6.3648071 5.0777138 5.7050781 5.7148438 C 5.0724913 6.3257622 4.5983353 7.1135148 4.2460938 8.0351562 L 6.6933594 8.0429688 C 6.9280202 7.368466 7.2251317 6.776332 7.6269531 6.3222656 C 7.9263251 5.9843096 8.2347772 5.8164062 8.5507812 5.8164062 C 8.8667852 5.8164062 9.0717676 5.8982401 9.1660156 6.0644531 C 9.2658056 6.2251191 9.3144531 6.3576256 9.3144531 6.4628906 L 8.9785156 8.0488281 L 11.429688 8.0566406 L 12.109375 4.84375 L 9.65625 4.84375 L 9.4726562 5.7480469 L 9.4726562 5.625 C 9.4726562 5.375688 9.3646445 5.1704336 9.1484375 5.0097656 C 8.9322245 4.8435586 8.5796629 4.7597656 8.0917969 4.7597656 z "
     style="font-style:normal;font-weight:normal;font-size:40px;line-height:1.25;font-family:sans-serif;letter-spacing:0px;word-spacing:0px;fill:#1a1a1a;fill-opacity:1;stroke:none;stroke-width:0.1"
     id="path901" />
  <g
     aria-label="s"
     id="g42"
     style="font-style:normal;font-variant:normal;font-weight:normal;font-stretch:normal;font-size:40px;line-height:1.25;font-family:'Swis721 BlkCn BT';-inkscape-font-specification:'Swis721 BlkCn BT';letter-spacing:0px;word-spacing:0px;white-space:pre;shape-inside:url(#rect868);fill:none;fill-opacity:1;stroke:#ffffff;stroke-width:4.34076;stroke-opacity:1"
     transform="matrix(0.23045098,0,0,0.23029835,20.82761,14.287063)" />
  <path
     id="path869"
     style="fill:#1a1a1a;fill-opacity:1;stroke-width:0.1;stroke-linecap:round;stop-color:#000000;stroke:none"
     d="m 1.0123189,8.985543 13.9650081,0.01361 v 1.020612 H 1.0123189 Z"
     sodipodi:nodetypes="ccccc" />
</svg>
