<?xml version="1.0" encoding="UTF-8" standalone="no"?>
<svg
   xmlns:dc="http://purl.org/dc/elements/1.1/"
   xmlns:cc="http://creativecommons.org/ns#"
   xmlns:rdf="http://www.w3.org/1999/02/22-rdf-syntax-ns#"
   xmlns:svg="http://www.w3.org/2000/svg"
   xmlns="http://www.w3.org/2000/svg"
   xmlns:xlink="http://www.w3.org/1999/xlink"
   xmlns:sodipodi="http://sodipodi.sourceforge.net/DTD/sodipodi-0.dtd"
   xmlns:inkscape="http://www.inkscape.org/namespaces/inkscape"
   inkscape:version="1.0.1 (3bc2e813f5, 2020-09-07)"
   sodipodi:docname="ct_insert.svg"
   id="svg6"
   version="1.1"
   width="48"
   height="48">
  <sodipodi:namedview
     inkscape:current-layer="svg6"
     inkscape:window-maximized="1"
     inkscape:window-y="22"
     inkscape:window-x="-8"
     inkscape:cy="7.9987557"
     inkscape:cx="8"
     inkscape:zoom="2.3327941"
     showgrid="false"
     id="namedview17"
     inkscape:window-height="715"
     inkscape:window-width="1366"
     inkscape:pageshadow="2"
     inkscape:pageopacity="0"
     guidetolerance="10"
     gridtolerance="10"
     objecttolerance="10"
     borderopacity="1"
     bordercolor="#666666"
     pagecolor="#ffffff"
     inkscape:document-rotation="0" />
  <metadata
     id="metadata12">
    <rdf:RDF>
      <cc:Work
         rdf:about="">
        <dc:format>image/svg+xml</dc:format>
        <dc:type
           rdf:resource="http://purl.org/dc/dcmitype/StillImage" />
        <dc:title></dc:title>
      </cc:Work>
    </rdf:RDF>
  </metadata>
  <defs
     id="defs10">
    <linearGradient
       id="linearGradient1168">
      <stop
         offset="0"
         style="stop-color:#ffffff;stop-opacity:1"
         id="stop1160" />
      <stop
         offset="0.41666666"
         style="stop-color:#ffffff;stop-opacity:0.23529412"
         id="stop1162" />
      <stop
         offset="0.67927718"
         style="stop-color:#ffffff;stop-opacity:0.15686275"
         id="stop1164" />
      <stop
         offset="1"
         style="stop-color:#ffffff;stop-opacity:0.39215687"
         id="stop1166" />
    </linearGradient>
    <linearGradient
       xlink:href="#linearGradient1168"
       id="linearGradient946"
       x1="8"
       y1="2"
       x2="8"
       y2="14"
       gradientUnits="userSpaceOnUse" />
    <linearGradient
       id="linearGradient851">
      <stop
         style="stop-color:#ffe16b;stop-opacity:1"
         offset="0"
         id="stop847" />
      <stop
         style="stop-color:#f9c440;stop-opacity:1"
         offset="1"
         id="stop849" />
    </linearGradient>
    <linearGradient
       xlink:href="#linearGradient851"
       id="linearGradient1129"
       gradientUnits="userSpaceOnUse"
       gradientTransform="translate(-23.314286,-3.4714286)"
       x1="31.292801"
       y1="4.9792409"
       x2="31.314285"
       y2="17.471428" />
    <linearGradient
       gradientUnits="userSpaceOnUse"
       y2="45.013279"
       x2="23.999998"
       y1="1.4961348"
       x1="23.999998"
       id="linearGradient851-3"
       xlink:href="#linearGradient851" />
    <linearGradient
       gradientUnits="userSpaceOnUse"
       xlink:href="#linearGradient3881"
       id="linearGradient3648"
       y2="43.443626"
       x2="29.646643"
       y1="2"
       x1="29.646643" />
    <linearGradient
       id="linearGradient3881">
      <stop
         offset="0"
         style="stop-color:#ffffff;stop-opacity:1"
         id="stop3883" />
      <stop
         offset="0.33380178"
         style="stop-color:#ffffff;stop-opacity:0.23529412"
         id="stop3885" />
      <stop
         offset="0.67927718"
         style="stop-color:#ffffff;stop-opacity:0.15686275"
         id="stop3887" />
      <stop
         offset="1"
         style="stop-color:#ffffff;stop-opacity:0.39215687"
         id="stop3889" />
    </linearGradient>
    <linearGradient
       gradientTransform="translate(2.9799125,-3.1216548)"
       gradientUnits="userSpaceOnUse"
       xlink:href="#linearGradient8265-821-176-38-919-66-249"
       id="linearGradient3619"
       y2="33.95525"
       x2="15.214532"
       y1="22.292103"
       x1="11.566265" />
    <linearGradient
       id="linearGradient8265-821-176-38-919-66-249">
      <stop
         offset="0"
         style="stop-color:#ffffff;stop-opacity:0.27450982"
         id="stop2687" />
      <stop
         offset="1"
         style="stop-color:#ffffff;stop-opacity:0"
         id="stop2689" />
    </linearGradient>
  </defs>
  <g
     id="g868"
     transform="matrix(0.53481601,0,0,0.53481601,11.164415,11.699212)">
    <path
       d="m 23.999999,1.4961347 c 1.518797,0 6.415369,12.2754723 7.644103,13.1714173 1.228732,0.895944 14.374596,1.776317 14.843931,3.225986 0.469334,1.449669 -9.650283,9.916699 -10.119617,11.366368 -0.469334,1.449669 2.758685,14.269241 1.529951,15.165186 -1.228733,0.895944 -12.379571,-6.146615 -13.89837,-6.146615 -1.518797,0 -12.669635,7.042559 -13.898369,6.146615 C 8.8728956,43.529147 12.100914,30.709574 11.63158,29.259906 11.162246,27.810237 1.0426298,19.343205 1.5119642,17.893536 1.9812985,16.443869 15.127162,15.563496 16.355896,14.667552 17.584628,13.771607 22.481202,1.4961347 23.999999,1.4961347 Z"
       id="path1307"
       style="display:inline;overflow:visible;visibility:visible;fill:url(#linearGradient851-3);fill-opacity:1;fill-rule:nonzero;stroke:#ad5f00;stroke-width:0.992271;stroke-linecap:butt;stroke-linejoin:round;stroke-miterlimit:4;stroke-dasharray:none;stroke-dashoffset:0;stroke-opacity:0.498039;marker:none" />
    <path
       d="m 24,2.5 c 2.255601,4.3171106 4.478429,8.952433 6.73403,13.269542 4.843973,0.789864 10.26201,1.380836 14.771263,2.50542 -3.449934,3.457984 -6.875961,7.131147 -10.325895,10.589132 0.738138,4.805274 1.300453,9.696699 2.038592,14.501973 C 32.830213,41.18611 28.355003,39.093584 23.967226,36.913625 19.579447,39.093584 15.19167,41.273542 10.803892,43.453499 11.542029,38.648225 11.929163,33.581617 12.6673,28.776343 9.2173666,25.318358 5.9355586,21.692246 2.4856257,18.234262 7.329597,17.444398 12.356449,16.559406 17.20042,15.769542 19.456021,11.452433 21.744398,6.8171106 24,2.5 Z"
       id="path1309"
       style="display:inline;overflow:visible;visibility:visible;opacity:0.8;fill:none;stroke:url(#linearGradient3648);stroke-width:1;stroke-linecap:butt;stroke-linejoin:round;stroke-miterlimit:4;stroke-dasharray:none;stroke-dashoffset:0;stroke-opacity:1;marker:none" />
    <path
       d="m 24.023909,2.0218291 c 0,0 4.502337,7.4701031 7.020932,13.3173589 4.843973,0.789864 10.309827,1.404745 14.914715,2.720597 0,0 -2.463879,2.468624 -3.480641,3.487759 0,0 -31.782299,5.712288 -31.782299,5.712288 C 7.7999341,24.283482 4.5120994,21.39468 1.9615429,18.048297 5.5144527,16.97153 12.093455,16.105144 16.937426,15.31528 20.29282,7.4118887 24.023909,2.0218291 24.023909,2.0218291 Z"
       id="path3382"
       style="display:inline;overflow:visible;visibility:visible;opacity:0.8;fill:url(#linearGradient3619);fill-opacity:1;fill-rule:nonzero;stroke:none;stroke-width:1;marker:none;enable-background:accumulate" />
  </g>
</svg>
