<?xml version="1.0" encoding="UTF-8" standalone="no"?>
<svg
   xmlns:dc="http://purl.org/dc/elements/1.1/"
   xmlns:cc="http://creativecommons.org/ns#"
   xmlns:rdf="http://www.w3.org/1999/02/22-rdf-syntax-ns#"
   xmlns:svg="http://www.w3.org/2000/svg"
   xmlns="http://www.w3.org/2000/svg"
   xmlns:xlink="http://www.w3.org/1999/xlink"
   xmlns:sodipodi="http://sodipodi.sourceforge.net/DTD/sodipodi-0.dtd"
   xmlns:inkscape="http://www.inkscape.org/namespaces/inkscape"
   id="svg3828"
   height="48"
   width="48"
   version="1.1"
   sodipodi:docname="ct_java.svg"
   inkscape:version="1.0 (4035a4fb49, 2020-05-01)">
  <sodipodi:namedview
     inkscape:document-rotation="0"
     pagecolor="#ffffff"
     bordercolor="#666666"
     borderopacity="1"
     objecttolerance="10"
     gridtolerance="10"
     guidetolerance="10"
     inkscape:pageopacity="0"
     inkscape:pageshadow="2"
     inkscape:window-width="1366"
     inkscape:window-height="715"
     id="namedview46"
     showgrid="false"
     inkscape:zoom="3.664387"
     inkscape:cx="3.8659158"
     inkscape:cy="12"
     inkscape:window-x="-8"
     inkscape:window-y="22"
     inkscape:window-maximized="1"
     inkscape:current-layer="svg3828" />
  <defs
     id="defs3830">
    <linearGradient
       id="linearGradient3977">
      <stop
         offset="0"
         style="stop-color:#ffffff;stop-opacity:1"
         id="stop3979" />
      <stop
         offset="0"
         style="stop-color:#ffffff;stop-opacity:0.23529412"
         id="stop3981" />
      <stop
         offset="1"
         style="stop-color:#ffffff;stop-opacity:0.15686275"
         id="stop3983" />
      <stop
         offset="1"
         style="stop-color:#ffffff;stop-opacity:0.39215687"
         id="stop3985" />
    </linearGradient>
    <linearGradient
       id="linearGradient3600-4">
      <stop
         offset="0"
         style="stop-color:#f4f4f4;stop-opacity:1"
         id="stop3602-7" />
      <stop
         offset="1"
         style="stop-color:#dbdbdb;stop-opacity:1"
         id="stop3604-6" />
    </linearGradient>
    <linearGradient
       id="linearGradient5060">
      <stop
         offset="0"
         style="stop-color:#000000;stop-opacity:1"
         id="stop5062" />
      <stop
         offset="1"
         style="stop-color:#000000;stop-opacity:0"
         id="stop5064" />
    </linearGradient>
    <linearGradient
       id="linearGradient5048">
      <stop
         offset="0"
         style="stop-color:#000000;stop-opacity:0"
         id="stop5050" />
      <stop
         offset="0.5"
         style="stop-color:#000000;stop-opacity:1"
         id="stop5056" />
      <stop
         offset="1"
         style="stop-color:#000000;stop-opacity:0"
         id="stop5052" />
    </linearGradient>
    <linearGradient
       gradientTransform="matrix(0.40540511,0,0,0.51351351,2.2696871,-0.3243195)"
       gradientUnits="userSpaceOnUse"
       xlink:href="#linearGradient3977"
       id="linearGradient3013"
       y2="41.526306"
       x2="23.99999"
       y1="6.4736748"
       x1="23.99999" />
    <linearGradient
       gradientTransform="matrix(0.45714178,0,0,0.43456667,1.0285964,0.90372283)"
       gradientUnits="userSpaceOnUse"
       xlink:href="#linearGradient3600-4"
       id="linearGradient3016"
       y2="47.013336"
       x2="25.132275"
       y1="0.98520643"
       x1="25.132275" />
    <radialGradient
       gradientTransform="matrix(0.01204859,0,0,0.0082353,13.238793,18.980564)"
       gradientUnits="userSpaceOnUse"
       xlink:href="#linearGradient5060"
       id="radialGradient3021"
       fy="486.64789"
       fx="605.71429"
       r="117.14286"
       cy="486.64789"
       cx="605.71429" />
    <radialGradient
       gradientTransform="matrix(-0.01204859,0,0,0.0082353,10.761206,18.980564)"
       gradientUnits="userSpaceOnUse"
       xlink:href="#linearGradient5060"
       id="radialGradient3024"
       fy="486.64789"
       fx="605.71429"
       r="117.14286"
       cy="486.64789"
       cx="605.71429" />
    <linearGradient
       gradientTransform="matrix(0.0352071,0,0,0.0082353,-0.724852,18.980547)"
       gradientUnits="userSpaceOnUse"
       xlink:href="#linearGradient5048"
       id="linearGradient3027"
       y2="609.50507"
       x2="302.85715"
       y1="366.64789"
       x1="302.85715" />
    <radialGradient
       cx="3.3324013"
       cy="9.9571075"
       r="12.671875"
       fx="2.8021708"
       fy="9.9571075"
       id="radialGradient3107"
       xlink:href="#linearGradient2867-449-88-871-390-598-476-591-434-148-57-177-8-3"
       gradientUnits="userSpaceOnUse"
       gradientTransform="matrix(-1.3864709e-7,5.7151119,-6.9396922,-1.7155228e-7,89.555224,-52.459993)" />
    <linearGradient
       id="linearGradient2867-449-88-871-390-598-476-591-434-148-57-177-8-3">
      <stop
         offset="0"
         style="stop-color:#90dbec;stop-opacity:1"
         id="stop3750-1-0" />
      <stop
         offset="0.26238"
         style="stop-color:#55c1ec;stop-opacity:1"
         id="stop3752-3-7" />
      <stop
         offset="0.704952"
         style="stop-color:#3689e6;stop-opacity:1"
         id="stop3754-1-8" />
      <stop
         offset="1"
         style="stop-color:#2b63a0;stop-opacity:1"
         id="stop3756-1-6" />
    </linearGradient>
    <radialGradient
       xlink:href="#linearGradient4530-1"
       id="radialGradient4528-6"
       gradientUnits="userSpaceOnUse"
       gradientTransform="matrix(0,4.2229722,-5.1278312,0,71.514325,-44.790352)"
       cx="5.1400304"
       cy="9.9571075"
       fx="4.6097999"
       fy="9.9571075"
       r="12.671875" />
    <linearGradient
       id="linearGradient4530-1">
      <stop
         id="stop4532-9"
         style="stop-color:#fff3cb;stop-opacity:1"
         offset="0" />
      <stop
         id="stop4534-6"
         style="stop-color:#ffed8d;stop-opacity:1"
         offset="0.26238" />
      <stop
         id="stop4536-5"
         style="stop-color:#ffde2f;stop-opacity:1"
         offset="0.66093999" />
      <stop
         id="stop4538-4"
         style="stop-color:#fbc02d;stop-opacity:1"
         offset="1" />
    </linearGradient>
    <linearGradient
       id="linearGradient6515">
      <stop
         style="stop-color:#000000;stop-opacity:1;"
         offset="0"
         id="stop6517" />
      <stop
         style="stop-color:#ffffff;stop-opacity:0;"
         offset="1"
         id="stop6519" />
    </linearGradient>
    <linearGradient
       id="linearGradient6972">
      <stop
         style="stop-color:#ffffff;stop-opacity:1;"
         offset="0"
         id="stop6974" />
      <stop
         id="stop6988"
         offset="0.26791042"
         style="stop-color:#ffffff;stop-opacity:1;" />
      <stop
         style="stop-color:#babdb6;stop-opacity:1"
         offset="1"
         id="stop6976" />
    </linearGradient>
    <linearGradient
       id="linearGradient6674">
      <stop
         id="stop6676"
         offset="0"
         style="stop-color:#ffffff;stop-opacity:1;" />
      <stop
         id="stop6678"
         offset="1"
         style="stop-color:#d3d7cf;stop-opacity:1" />
    </linearGradient>
    <linearGradient
       id="linearGradient6415">
      <stop
         style="stop-color:#8e5801;stop-opacity:1;"
         offset="0"
         id="stop6417" />
      <stop
         id="stop6501"
         offset="0.50000024"
         style="stop-color:#543400;stop-opacity:1" />
      <stop
         style="stop-color:#e9b96e;stop-opacity:1"
         offset="1"
         id="stop6419" />
    </linearGradient>
    <linearGradient
       id="linearGradient7010">
      <stop
         id="stop7012"
         offset="0"
         style="stop-color:#ffffff;stop-opacity:0.2" />
      <stop
         id="stop7016"
         offset="1"
         style="stop-color:#ffffff;stop-opacity:1;" />
    </linearGradient>
  </defs>
  <metadata
     id="metadata3833">
    <rdf:RDF>
      <cc:Work
         rdf:about="">
        <dc:format>image/svg+xml</dc:format>
        <dc:type
           rdf:resource="http://purl.org/dc/dcmitype/StillImage" />
        <dc:title></dc:title>
      </cc:Work>
    </rdf:RDF>
  </metadata>
  <path
     style="fill:#ff9955;fill-opacity:1;stroke-width:0.144677"
     d="m 22.392498,23.160592 c -1.772275,-1.971656 -2.764898,-3.308315 -3.303773,-4.448838 -0.51114,-1.081813 -0.53049,-1.287691 -0.209574,-2.229526 0.450941,-1.323434 1.833148,-2.765725 5.71624,-5.96471 C 25.600737,9.6892884 26.663097,8.703911 26.956187,8.3277901 28.11438,6.8415016 28.737899,4.8756044 28.586,3.1891627 l -0.0809,-0.8983038 0.3053,0.6510498 c 0.464513,0.990575 0.525246,3.1410851 0.1254,4.4408793 -0.166578,0.5414872 -0.454998,1.2330692 -0.640953,1.5368447 -0.185955,0.3037758 -1.700998,1.9313953 -3.366762,3.6169393 -3.324307,3.36377 -3.977871,4.244667 -4.081069,5.500592 -0.10347,1.259174 0.610309,2.989803 2.292098,5.557456 0.377859,0.576904 0.664375,1.048914 0.636694,1.048914 -0.02768,0 -0.65017,-0.667323 -1.383307,-1.482942 z"
     id="path980" />
  <path
     style="fill:#ff9955;fill-opacity:1;stroke-width:0.144677"
     d="m 26.394982,25.411605 c 0.800186,-1.328851 0.705803,-1.872158 -0.673774,-3.878637 -0.88614,-1.288817 -1.293041,-2.213307 -1.389771,-3.157598 -0.271993,-2.65522 2.199605,-5.106494 7.029665,-6.971866 0.718238,-0.277383 1.386128,-0.504333 1.484203,-0.504333 0.09806,0 -0.499041,0.459495 -1.326923,1.0211 -2.148328,1.457349 -3.429331,2.542655 -4.142287,3.509478 -1.06349,1.442176 -1.030224,2.160532 0.189066,4.082321 1.461738,2.303969 1.621014,3.298577 0.74098,4.627189 -0.393211,0.593635 -2.046662,2.095726 -2.30691,2.095726 -0.05502,0 0.123061,-0.370521 0.39577,-0.82338 z"
     id="path978" />
  <path
     style="fill:#37abc8;fill-opacity:1;stroke-width:0.144677"
     d="m 16.844286,28.542921 c -3.079965,-0.256646 -4.830983,-0.704711 -4.673564,-1.195901 0.154135,-0.480954 2.763088,-1.520721 4.787732,-1.908102 1.608696,-0.307792 1.781892,-0.258156 0.528298,0.151408 -1.431838,0.467798 -2.2425,0.937633 -2.2425,1.299676 0,0.19928 0.172825,0.348192 0.57871,0.498655 0.766886,0.284277 9.204071,0.310909 11.574205,0.03656 1.884684,-0.218165 4.626134,-0.588596 5.136054,-0.693959 0.220384,-0.04556 0.02963,0.128062 -0.488256,0.44441 -0.915283,0.55905 -1.452977,0.670421 -5.588199,1.157455 -2.371261,0.279277 -7.448871,0.390118 -9.61248,0.209837 z"
     id="path976" />
  <path
     style="fill:#37abc8;fill-opacity:1;stroke-width:0.144677"
     d="m 34.255788,32.152993 c 2.121194,-1.412397 3.630498,-3.31283 3.630498,-4.571322 0,-1.444236 -1.06433,-2.343434 -2.806632,-2.371172 l -0.737967,-0.0118 0.434032,-0.198765 c 0.238718,-0.109307 0.824661,-0.200246 1.302099,-0.202091 2.485331,-0.0094 4.078466,2.11419 3.100848,4.133679 -0.348861,0.720655 -1.701066,2.021801 -2.655525,2.555257 -0.668696,0.373744 -2.158286,0.995827 -2.832502,1.182915 -0.198915,0.05519 0.05538,-0.17735 0.565149,-0.516775 z"
     id="path974" />
  <path
     style="fill:#37abc8;fill-opacity:1;stroke-width:0.144677"
     d="m 19.946268,33.038054 c -2.57591,-0.251938 -4.073072,-0.661279 -4.356658,-1.191168 -0.263001,-0.491421 0.09803,-1.069636 0.925304,-1.481875 0.760611,-0.379029 0.996331,-0.384879 0.691147,-0.01717 -0.250358,0.301665 -0.07206,0.730669 0.391981,0.943198 0.217296,0.09952 1.040405,0.251422 1.829128,0.337572 1.65832,0.181126 5.933367,-0.02103 8.555602,-0.405154 l 1.598345,-0.233967 0.752164,0.506167 0.752161,0.506172 -0.831395,0.241908 c -2.066882,0.601413 -3.569941,0.805699 -6.329138,0.860239 -1.51188,0.02991 -3.302272,1.48e-4 -3.978641,-0.06594 z"
     id="path972" />
  <path
     style="fill:#37abc8;fill-opacity:1;stroke-width:0.144677"
     d="m 14.566075,37.565685 c 0.104438,-0.04178 0.229222,-0.03665 0.2773,0.01159 0.04808,0.04809 -0.03737,0.08227 -0.18989,0.07598 -0.168542,-0.0071 -0.202823,-0.04122 -0.08742,-0.0874 z"
     id="path970" />
  <path
     style="fill:#37abc8;fill-opacity:1;stroke-width:0.144677"
     d="m 21.610066,37.659842 c -3.062859,-0.245685 -4.8467,-0.940835 -4.8467,-1.888712 0,-0.43812 0.519832,-0.907259 1.192306,-1.076041 0.328055,-0.08233 0.368742,-0.05616 0.30304,0.195117 -0.05418,0.207134 0.04017,0.366216 0.329426,0.555684 0.365346,0.239303 0.755516,0.265473 3.956128,0.265473 2.308857,0 3.961967,-0.06845 4.726342,-0.195739 l 1.175533,-0.19574 1.052273,0.581067 1.052272,0.581066 -1.051311,0.313095 c -2.579227,0.768129 -5.331974,1.069842 -7.889309,0.864709 z"
     id="path968" />
  <path
     style="fill:#37abc8;fill-opacity:1;stroke-width:0.144677"
     d="m 14.954896,41.557781 c -1.625294,-0.137675 -3.79398,-0.466906 -4.702018,-0.713816 -0.716354,-0.194774 -1.446776,-0.674046 -1.446776,-0.949294 0,-0.706445 1.591382,-1.587058 3.650941,-2.020299 1.609827,-0.338638 2.122783,-0.254639 0.812896,0.133083 -1.305227,0.386372 -1.859641,0.715335 -1.859641,1.103417 0,0.538144 1.340927,0.935571 4.485003,1.329267 3.258926,0.408089 12.639642,0.188529 16.894688,-0.39543 3.139694,-0.430882 4.841674,-1.143867 4.417946,-1.850748 -0.05532,-0.09229 0.0094,-0.07843 0.144219,0.03077 0.341671,0.277151 0.306928,0.484892 -0.153102,0.915279 -1.08638,1.016433 -4.011097,1.864153 -7.921091,2.29592 -1.880948,0.207691 -12.266462,0.296033 -14.323076,0.121816 z"
     id="path966" />
  <path
     style="fill:#37abc8;fill-opacity:1;stroke-width:0.144677"
     d="m 20.018604,43.723371 c -1.474851,-0.139498 -4.244202,-0.641159 -4.736546,-0.857996 -0.266876,-0.117525 -0.220515,-0.131452 0.251548,-0.07551 3.868667,0.458664 12.584542,0.468221 15.842192,0.01738 3.257084,-0.450767 6.024152,-1.322003 7.650939,-2.408969 0.44412,-0.296746 0.475391,-0.301136 0.337974,-0.04744 -1.179462,2.177409 -7.195395,3.566117 -15.222787,3.514002 -1.551665,-0.01008 -3.40716,-0.07373 -4.12332,-0.141472 z"
     id="path962" />
</svg>
