<?xml version="1.0" encoding="UTF-8" standalone="no"?>
<svg
   xmlns:dc="http://purl.org/dc/elements/1.1/"
   xmlns:cc="http://creativecommons.org/ns#"
   xmlns:rdf="http://www.w3.org/1999/02/22-rdf-syntax-ns#"
   xmlns:svg="http://www.w3.org/2000/svg"
   xmlns="http://www.w3.org/2000/svg"
   xmlns:xlink="http://www.w3.org/1999/xlink"
   xmlns:sodipodi="http://sodipodi.sourceforge.net/DTD/sodipodi-0.dtd"
   xmlns:inkscape="http://www.inkscape.org/namespaces/inkscape"
   inkscape:version="1.0 (4035a4fb49, 2020-05-01)"
   sodipodi:docname="ct_perl.svg"
   version="1.1"
   width="48"
   height="48"
   id="svg3828">
  <sodipodi:namedview
     inkscape:current-layer="svg3828"
     inkscape:window-maximized="1"
     inkscape:window-y="22"
     inkscape:window-x="-8"
     inkscape:cy="13.743757"
     inkscape:cx="12"
     inkscape:zoom="3.809449"
     showgrid="false"
     id="namedview46"
     inkscape:window-height="715"
     inkscape:window-width="1366"
     inkscape:pageshadow="2"
     inkscape:pageopacity="0"
     guidetolerance="10"
     gridtolerance="10"
     objecttolerance="10"
     borderopacity="1"
     bordercolor="#666666"
     pagecolor="#ffffff"
     inkscape:document-rotation="0" />
  <defs
     id="defs3830">
    <linearGradient
       id="linearGradient3977">
      <stop
         id="stop3979"
         style="stop-color:#ffffff;stop-opacity:1"
         offset="0" />
      <stop
         id="stop3981"
         style="stop-color:#ffffff;stop-opacity:0.23529412"
         offset="0" />
      <stop
         id="stop3983"
         style="stop-color:#ffffff;stop-opacity:0.15686275"
         offset="1" />
      <stop
         id="stop3985"
         style="stop-color:#ffffff;stop-opacity:0.39215687"
         offset="1" />
    </linearGradient>
    <linearGradient
       id="linearGradient3600-4">
      <stop
         id="stop3602-7"
         style="stop-color:#f4f4f4;stop-opacity:1"
         offset="0" />
      <stop
         id="stop3604-6"
         style="stop-color:#dbdbdb;stop-opacity:1"
         offset="1" />
    </linearGradient>
    <linearGradient
       id="linearGradient5060">
      <stop
         id="stop5062"
         style="stop-color:#000000;stop-opacity:1"
         offset="0" />
      <stop
         id="stop5064"
         style="stop-color:#000000;stop-opacity:0"
         offset="1" />
    </linearGradient>
    <linearGradient
       id="linearGradient5048">
      <stop
         id="stop5050"
         style="stop-color:#000000;stop-opacity:0"
         offset="0" />
      <stop
         id="stop5056"
         style="stop-color:#000000;stop-opacity:1"
         offset="0.5" />
      <stop
         id="stop5052"
         style="stop-color:#000000;stop-opacity:0"
         offset="1" />
    </linearGradient>
    <linearGradient
       x1="23.99999"
       y1="6.4736748"
       x2="23.99999"
       y2="41.526306"
       id="linearGradient3013"
       xlink:href="#linearGradient3977"
       gradientUnits="userSpaceOnUse"
       gradientTransform="matrix(0.40540511,0,0,0.51351351,2.2696871,-0.3243195)" />
    <linearGradient
       x1="25.132275"
       y1="0.98520643"
       x2="25.132275"
       y2="47.013336"
       id="linearGradient3016"
       xlink:href="#linearGradient3600-4"
       gradientUnits="userSpaceOnUse"
       gradientTransform="matrix(0.45714178,0,0,0.43456667,1.0285964,0.90372283)" />
    <radialGradient
       cx="605.71429"
       cy="486.64789"
       r="117.14286"
       fx="605.71429"
       fy="486.64789"
       id="radialGradient3021"
       xlink:href="#linearGradient5060"
       gradientUnits="userSpaceOnUse"
       gradientTransform="matrix(0.01204859,0,0,0.0082353,13.238793,18.980564)" />
    <radialGradient
       cx="605.71429"
       cy="486.64789"
       r="117.14286"
       fx="605.71429"
       fy="486.64789"
       id="radialGradient3024"
       xlink:href="#linearGradient5060"
       gradientUnits="userSpaceOnUse"
       gradientTransform="matrix(-0.01204859,0,0,0.0082353,10.761206,18.980564)" />
    <linearGradient
       x1="302.85715"
       y1="366.64789"
       x2="302.85715"
       y2="609.50507"
       id="linearGradient3027"
       xlink:href="#linearGradient5048"
       gradientUnits="userSpaceOnUse"
       gradientTransform="matrix(0.0352071,0,0,0.0082353,-0.724852,18.980547)" />
    <radialGradient
       gradientTransform="matrix(-1.3864709e-7,5.7151119,-6.9396922,-1.7155228e-7,89.555224,-52.459993)"
       gradientUnits="userSpaceOnUse"
       xlink:href="#linearGradient2867-449-88-871-390-598-476-591-434-148-57-177-8-3"
       id="radialGradient3107"
       fy="9.9571075"
       fx="2.8021708"
       r="12.671875"
       cy="9.9571075"
       cx="3.3324013" />
    <linearGradient
       id="linearGradient2867-449-88-871-390-598-476-591-434-148-57-177-8-3">
      <stop
         id="stop3750-1-0"
         style="stop-color:#90dbec;stop-opacity:1"
         offset="0" />
      <stop
         id="stop3752-3-7"
         style="stop-color:#55c1ec;stop-opacity:1"
         offset="0.26238" />
      <stop
         id="stop3754-1-8"
         style="stop-color:#3689e6;stop-opacity:1"
         offset="0.704952" />
      <stop
         id="stop3756-1-6"
         style="stop-color:#2b63a0;stop-opacity:1"
         offset="1" />
    </linearGradient>
    <radialGradient
       r="12.671875"
       fy="9.9571075"
       fx="4.6097999"
       cy="9.9571075"
       cx="5.1400304"
       gradientTransform="matrix(0,4.2229722,-5.1278312,0,71.514325,-44.790352)"
       gradientUnits="userSpaceOnUse"
       id="radialGradient4528-6"
       xlink:href="#linearGradient4530-1" />
    <linearGradient
       id="linearGradient4530-1">
      <stop
         offset="0"
         style="stop-color:#fff3cb;stop-opacity:1"
         id="stop4532-9" />
      <stop
         offset="0.26238"
         style="stop-color:#ffed8d;stop-opacity:1"
         id="stop4534-6" />
      <stop
         offset="0.66093999"
         style="stop-color:#ffde2f;stop-opacity:1"
         id="stop4536-5" />
      <stop
         offset="1"
         style="stop-color:#fbc02d;stop-opacity:1"
         id="stop4538-4" />
    </linearGradient>
  </defs>
  <metadata
     id="metadata3833">
    <rdf:RDF>
      <cc:Work
         rdf:about="">
        <dc:format>image/svg+xml</dc:format>
        <dc:type
           rdf:resource="http://purl.org/dc/dcmitype/StillImage" />
        <dc:title></dc:title>
      </cc:Work>
    </rdf:RDF>
  </metadata>
  <path
     style="fill:#53536c;fill-opacity:1;stroke:none;stroke-width:0.124773"
     d="m 30.555689,3.7293149 c 0.609002,0.1018776 1.131432,0.4219094 1.705773,0.6126244 1.213537,0.7799186 2.188739,1.9774792 2.438513,3.4195692 0.759682,2.4398685 2.993227,4.0437675 3.773145,6.4631265 0.64224,1.551509 1.792013,2.773912 2.865767,4.019772 0.740052,0.923929 0.65899,2.163113 0.985055,3.24337 0.325912,0.294131 0.557218,0.968128 -0.05214,1.041095 0.01656,0.54927 0.392865,1.160641 -0.0034,1.685744 -0.308332,1.147267 -0.853532,2.245798 -1.393458,3.307472 -0.107289,0.386674 -0.768407,0.835461 -0.868895,0.212226 -0.08022,-0.889372 -0.465126,-1.946546 0.160081,-2.730832 0.400688,-1.005692 0.07108,-2.067405 -0.116095,-3.071204 0.09071,-0.619292 -0.130302,-1.326032 -0.464488,-1.817903 -0.344896,0.185806 -0.22744,0.80913 -0.364254,1.143647 -0.329324,2.406258 -0.429155,4.908165 0.180046,7.281118 0.226768,0.929652 -0.145875,1.913582 0.07206,2.826948 0.782592,0.850317 0.176351,2.071163 0.107985,3.059196 -0.380317,1.833203 -0.172272,3.737268 0.376377,5.489718 0.01368,0.629342 0.232167,1.203822 0.36441,1.805887 -0.219305,0.757239 -1.260208,1.023431 -1.954057,0.844863 -0.431997,-0.291405 -1.25554,0.264003 -1.461518,-0.428438 -0.06261,-0.751796 0.672121,-1.314123 0.612657,-2.078167 0.457815,-2.095903 0.80188,-4.27926 0.357173,-6.416764 -0.22948,-1.241627 -0.13978,-2.569387 -0.489331,-3.765831 -0.771793,-0.968908 -1.30045,-2.11506 -1.629691,-3.315468 -0.458831,-0.99767 -0.74286,-2.209584 -1.02106,-3.159269 -1.197869,1.925494 -1.917747,4.232723 -1.604549,6.530479 -0.04063,0.896205 0.520095,1.946068 -0.232887,2.65373 -0.913096,1.428251 -2.065374,2.775134 -2.527019,4.421951 -0.03635,0.688506 0.891368,0.699508 1.137185,1.257299 0.545238,0.79261 0.487464,1.802435 0.548588,2.71885 -0.514645,0.199676 -1.270262,0.731719 -1.705776,0.09205 -0.425256,-0.448506 -0.606596,-1.233029 -1.049078,-1.577634 -0.272786,0.516402 -0.01656,1.353009 -0.720762,1.60566 -1.007694,0.361381 -2.170055,0.461812 -3.215352,0.212226 -0.536948,-0.46563 0.197324,-1.122318 0.652662,-1.301326 0.755415,-0.22372 1.198848,-0.812613 1.45752,-1.525583 0.23759,-0.393852 0.407224,-0.854245 -0.05618,-1.157222 -1.090039,-1.322248 -2.589598,-2.197639 -3.743906,-3.435582 -0.69659,-0.967689 -0.512985,-2.315485 -0.248434,-3.407555 0.326255,-0.637059 0.562432,-1.305595 0.384411,-2.030107 -0.121159,-0.623626 0.306285,-1.267858 0.280201,-1.821896 -0.610992,-0.03957 -1.325051,-0.01704 -1.869916,0.188205 -0.147915,0.985864 0.07141,2.037117 -0.212225,2.991096 -0.462523,0.441677 -0.681597,1.139385 -0.712738,1.773838 -0.43189,0.531498 -0.159097,1.31324 -0.276174,1.962048 0.276508,1.057038 -0.116791,2.099865 -0.440489,3.103254 -0.592452,1.909184 -0.341975,3.96705 -0.848862,5.882117 -0.385081,0.543852 0.260943,1.451564 -0.492506,1.809879 -1.165244,0.435351 -2.726227,0.560035 -3.719805,-0.316467 -0.302916,-0.605183 0.59096,-0.952936 1.021062,-1.145212 0.604395,-0.131333 1.063027,-0.553764 1.191399,-1.178976 0.919595,-1.897334 1.368476,-4.025388 1.047156,-6.139872 -0.04673,-1.018931 -0.18648,-2.026325 -0.448713,-2.995908 -0.123217,-0.991076 -0.138753,-2.010074 -0.428439,-2.951057 -0.170231,-1.326069 0.118781,-2.723146 -0.252146,-4.012193 -0.599762,0.381028 -1.243216,0.766416 -1.954061,0.820874 -0.461978,0.350424 -0.958513,8.78e-4 -1.209238,-0.420454 -0.370659,-0.50916 -0.816231,0.850784 -1.155152,0.161113 -0.420485,-0.476784 -0.962914,-0.817022 -1.43955,-1.190301 -0.270025,-0.44025 -0.824654,-0.42681 -1.213226,-0.628664 -0.269726,-0.35251 0.173944,-0.910083 -0.324247,-1.181218 -0.16989,-0.45152 -0.6032502,0.143824 -0.8008332,-0.284271 C 9.3440992,22.419318 9.3779332,21.777956 8.8174961,21.575602 7.8002608,20.767627 8.1047296,19.294125 7.9226089,18.152409 7.9328389,17.013809 7.7087304,15.807243 7.9872459,14.709894 8.3135005,13.84137 8.8495187,12.958394 9.065822,12.093729 8.0743091,11.302404 6.3207767,11.958355 5.6462514,10.656241 5.3538349,9.7037494 6.2733607,8.8905288 6.8795561,8.2857577 7.4690956,7.7302627 8.398912,7.9946937 9.119703,7.7217012 c 0.5595204,-0.189861 1.429466,0.020321 1.575812,-0.7413015 0.234529,-0.6021653 0.9687,-0.5973259 1.361438,-1.0530783 0.62873,-0.3238941 1.199117,0.4160524 1.817864,0.4764994 0.688707,0.4807991 1.478205,0.9497501 1.918015,1.6817446 0.18819,0.4773799 0.02689,1.1007991 0.540568,1.3974479 0.859352,0.9880987 0.498468,2.4538447 0.580605,3.6558067 -0.01024,0.549131 0.0034,1.1052 -0.308333,1.553607 -0.04706,0.673885 -0.660007,1.116202 -0.550859,1.809884 0.08563,0.455514 -0.315078,1.428178 0.438729,1.217294 0.22945,-0.383057 0.195276,-1.034635 0.409218,-1.484162 0.630425,-1.938592 1.585859,-4.039605 3.494837,-5.01061 1.346686,-0.986302 2.307975,-2.4197614 2.866988,-3.9761471 0.528827,-0.7895962 1.502232,-1.276081 1.918014,-2.1302197 0.546458,-0.2328533 1.206093,-0.1523111 1.749808,-0.4564648 0.675238,-0.2995231 1.285759,-0.8419544 2.094077,-0.7461746 0.533056,0.039254 1.024511,-0.1465496 1.529713,-0.1868159 z M 29.570636,25.475939 c -0.466986,0.155042 -0.322882,0.882808 -0.492509,1.261326 -0.218633,0.531157 -0.03369,1.473532 -0.652659,1.741819 -0.349177,0.578001 -0.132653,1.360084 -0.484525,1.89395 0.0812,0.378892 0.205099,1.086888 -0.384406,1.097144 -0.528621,-0.04571 -0.67341,0.545071 -1.045059,0.808858 -0.343869,0.480796 -0.727898,1.162162 -0.196292,1.669729 0.515492,0.625423 0.868355,1.607289 1.817902,1.633721 0.391243,0.04197 0.931644,0.651347 1.109161,0.02376 0.676618,-1.141717 1.252188,-2.356878 1.121174,-3.715844 -0.01008,-2.133947 -0.496369,-4.230731 -0.740794,-6.334618 0.01008,-0.05889 -0.01008,-0.08392 -0.05207,-0.08022 z"
     id="path2997"
     inkscape:connector-curvature="0" />
</svg>
