<?xml version="1.0" encoding="UTF-8" standalone="no"?>
<!-- Generator: Adobe Illustrator 15.0.0, SVG Export Plug-In . SVG Version: 6.00 Build 0)  -->

<svg
   xmlns:dc="http://purl.org/dc/elements/1.1/"
   xmlns:cc="http://creativecommons.org/ns#"
   xmlns:rdf="http://www.w3.org/1999/02/22-rdf-syntax-ns#"
   xmlns:svg="http://www.w3.org/2000/svg"
   xmlns="http://www.w3.org/2000/svg"
   xmlns:sodipodi="http://sodipodi.sourceforge.net/DTD/sodipodi-0.dtd"
   xmlns:inkscape="http://www.inkscape.org/namespaces/inkscape"
   version="1.1"
   id="Layer_1"
   inkscape:version="0.48.3.1 r9886"
   sodipodi:docname="case_upper.svg"
   x="0px"
   y="0px"
   width="489.309px"
   height="494.244px"
   viewBox="0 0 489.309 494.244"
   enable-background="new 0 0 489.309 494.244"
   xml:space="preserve"><metadata
   id="metadata37"><rdf:RDF><cc:Work
       rdf:about=""><dc:format>image/svg+xml</dc:format><dc:type
         rdf:resource="http://purl.org/dc/dcmitype/StillImage" /></cc:Work></rdf:RDF></metadata>
<defs
   id="defs3">
	
	
		<inkscape:perspective
   sodipodi:type="inkscape:persp3d"
   inkscape:vp_x="0 : 247.12199 : 1"
   inkscape:vp_y="0 : 1000 : 0"
   inkscape:vp_z="489.31 : 247.12199 : 1"
   id="perspective248"
   inkscape:persp3d-origin="244.655 : 164.748 : 1">
		</inkscape:perspective>
	
		<inkscape:perspective
   sodipodi:type="inkscape:persp3d"
   inkscape:vp_x="0 : 24 : 1"
   inkscape:vp_y="0 : 1000 : 0"
   inkscape:vp_z="48 : 24 : 1"
   id="perspective3079"
   inkscape:persp3d-origin="24 : 16 : 1">
		</inkscape:perspective>
	
		<inkscape:perspective
   sodipodi:type="inkscape:persp3d"
   inkscape:vp_x="0 : 24 : 1"
   inkscape:vp_y="0 : 1000 : 0"
   inkscape:vp_z="48 : 24 : 1"
   id="perspective2902"
   inkscape:persp3d-origin="24 : 16 : 1">
		</inkscape:perspective>
	
		<inkscape:perspective
   sodipodi:type="inkscape:persp3d"
   inkscape:vp_x="0 : 24 : 1"
   inkscape:vp_y="0 : 1000 : 0"
   inkscape:vp_z="48 : 24 : 1"
   id="perspective2950"
   inkscape:persp3d-origin="24 : 16 : 1">
		</inkscape:perspective>
	
		<inkscape:perspective
   sodipodi:type="inkscape:persp3d"
   inkscape:vp_x="0 : 24 : 1"
   inkscape:vp_y="0 : 1000 : 0"
   inkscape:vp_z="48 : 24 : 1"
   id="perspective2884"
   inkscape:persp3d-origin="24 : 16 : 1">
		</inkscape:perspective>
	
		<inkscape:perspective
   sodipodi:type="inkscape:persp3d"
   inkscape:vp_x="0 : 24 : 1"
   inkscape:vp_y="0 : 1000 : 0"
   inkscape:vp_z="48 : 24 : 1"
   id="perspective33"
   inkscape:persp3d-origin="24 : 16 : 1">
		</inkscape:perspective>
</defs>
<sodipodi:namedview
   pagecolor="#ffffff"
   inkscape:zoom="0.47749696"
   inkscape:cx="269.78606"
   bordercolor="#666666"
   guidetolerance="10"
   showgrid="false"
   gridtolerance="10"
   inkscape:cy="330.89216"
   objecttolerance="10"
   borderopacity="1"
   id="namedview242"
   inkscape:window-height="718"
   inkscape:pageshadow="2"
   inkscape:pageopacity="0"
   inkscape:current-layer="Layer_1"
   inkscape:window-y="0"
   inkscape:window-x="0"
   inkscape:window-width="1366"
   inkscape:window-maximized="1">
	</sodipodi:namedview>
<path
   d="m 280.45842,329.53363 c 0.0261,0.0242 0.0506,0.0472 0.0782,0.0714 2.18065,2.02008 6.14838,4.70585 15.37311,4.70585 7.50277,0 17.21949,-3.89613 28.30074,-11.31438 v -70.06252 c -17.49009,10.41146 -31.12098,21.3107 -40.64813,32.51614 -7.67354,9.10428 -11.40394,17.85877 -11.40394,26.76092 -0.002,6.5819 2.71315,12.24877 8.30008,17.32257 z"
   id="path12"
   inkscape:connector-curvature="0"
   style="fill:none" />
<path
   d="m 449.23118,356.59955 c -3.03583,0 -5.72005,-0.7964 -8.04975,-2.39892 -2.33548,-1.59766 -4.08492,-4.04862 -5.25122,-7.34684 -1.17063,-3.30064 -1.75089,-11.34586 -1.75089,-24.14292 V 213.84079 c 0,-30.18864 -1.63513,-49.48651 -4.90104,-57.88394 -5.37133,-13.19648 -17.0965,-25.44163 -35.18131,-36.73906 -18.08771,-11.29381 -42.65226,-16.94495 -73.68642,-16.94495 -25.67441,0 -50.40827,3.50155 -74.21169,10.49739 -23.80341,7.00069 -42.35706,17.04783 -55.65948,30.14143 -13.30098,13.09844 -19.95291,26.84322 -19.95291,41.23917 0,10.19722 4.95603,19.09574 14.87678,26.69191 9.9164,7.60102 22.22906,11.3967 36.93075,11.3967 13.76691,0 24.90894,-3.44952 33.43042,-10.34731 8.51713,-6.89781 12.77715,-15.24441 12.77715,-25.04222 0,-7.99439 -4.4351,-16.29377 -13.30097,-24.89334 -6.53762,-6.19458 -9.80065,-11.39668 -9.80065,-15.5954 0,-4.79784 3.03006,-8.99777 9.10029,-12.59615 9.80209,-5.79638 22.28261,-8.6976 37.45747,-8.6976 9.33036,0 17.73174,2.05276 25.20413,6.14859 7.46516,4.10069 12.54129,8.89973 15.22551,14.39595 2.68132,5.50105 4.0256,18.84763 4.0256,40.03849 V 213.842 c -72.11062,28.39247 -118.90423,51.13623 -140.37217,68.23126 -21.47373,17.09502 -32.2048,36.34085 -32.2048,57.73385 0,15.79753 6.1802,28.94076 18.5522,39.43816 12.3662,10.4974 27.884,15.74669 46.55775,15.74669 31.73452,0 67.5612,-15.09552 107.46702,-45.28779 2.3297,15.1972 8.75155,26.54305 19.254,34.03998 10.50244,7.49814 25.08403,11.24781 43.75633,11.24781 15.86798,0 30.0444,-3.35147 42.53215,-10.04835 12.48196,-6.69568 24.55876,-17.44119 36.2304,-32.2414 l -10.501,-7.19676 c -6.30031,7.39647 -12.48631,11.0941 -18.55365,11.0941 z M 336.51439,327.80767 c -15.40348,11.20061 -28.93887,16.79608 -40.60617,16.79608 -10.50244,0 -18.67375,-2.69909 -24.50522,-8.09727 -7.70102,-6.99706 -11.55154,-15.09553 -11.55154,-24.29301 0,-10.99364 4.55232,-21.89408 13.6526,-32.69164 13.76836,-16.19574 34.77036,-31.3881 63.01033,-45.58675 v 93.87259 z"
   id="path14"
   inkscape:connector-curvature="0"
   style="fill:#1a1a1a" />
<path
   d="m 273.50406,279.52062 c -9.10028,10.79756 -13.6526,21.698 -13.6526,32.69164 0,9.19869 3.85052,17.29595 11.55154,24.29301 5.83002,5.39818 14.00278,8.09726 24.50522,8.09726 11.6673,0 25.20269,-5.59546 40.60617,-16.79607 v -93.8738 c -28.23997,14.20107 -49.24197,29.39222 -63.01033,45.58796 z m 50.70491,43.4759 c -11.07981,7.41825 -20.79797,11.31437 -28.30075,11.31437 -9.22473,0 -13.19245,-2.68576 -15.3731,-4.70584 -0.0275,-0.0242 -0.0521,-0.0472 -0.0782,-0.0714 -5.58549,-5.0738 -8.30009,-10.74067 -8.30009,-17.32257 0,-8.90215 3.73041,-17.65663 11.40394,-26.76092 9.52716,-11.20544 23.15805,-22.10589 40.64814,-32.51614 v 70.06252 z"
   id="path16"
   inkscape:connector-curvature="0"
   style="fill:#b3b3b3" />
<path
   d="m 486.08525,344.73809 -10.501,-7.19676 c -2.21104,-1.51536 -4.97195,-2.33114 -7.79942,-2.33114 -0.54118,0 -1.08526,0.029 -1.62789,0.0908 -3.37879,0.37763 -6.41753,1.90874 -8.39559,4.23019 -4.79107,5.62452 -7.94702,6.77556 -8.53161,6.77556 -0.0738,0 -0.12445,-0.003 -0.15483,-0.006 -0.0188,-0.0109 -0.0448,-0.0267 -0.0796,-0.0509 -0.17943,-0.14041 -0.73798,-0.81821 -1.26614,-2.3142 -0.21127,-0.61002 -1.24589,-4.46137 -1.24589,-21.22597 V 213.83958 c 0,-42.0513 -3.14147,-54.99119 -5.50444,-61.06717 -0.0174,-0.0448 -0.0347,-0.0896 -0.0535,-0.13314 -6.16136,-15.13789 -19.43919,-29.15741 -39.46445,-41.66883 -20.18298,-12.603415 -47.45201,-18.99166 -81.05028,-18.99166 -26.93621,0 -53.2777,3.727889 -78.29083,11.07958 -25.77714,7.58165 -46.28571,18.74716 -60.95556,33.18667 -15.18354,14.9515 -22.88168,31.06856 -22.88168,47.90458 0,13.16138 6.34951,24.69606 18.87344,34.28448 12.20124,9.3524 27.42386,14.09698 45.23953,14.09698 17.00534,0 31.13255,-4.45652 41.98807,-13.24369 10.96549,-8.88157 16.52493,-19.79533 16.52493,-32.43868 0,-10.49498 -5.47986,-21.13156 -16.28762,-31.61564 -0.0304,-0.0302 -0.0622,-0.0593 -0.0926,-0.0896 -6.48842,-6.14981 -6.72139,-8.77507 -6.72284,-8.80048 0,-0.44904 0,-1.86516 3.91129,-4.18299 7.62722,-4.51099 17.84026,-6.80219 30.34104,-6.80219 6.93989,0 12.97974,1.46091 18.45959,4.46379 5.30332,2.91211 8.86587,6.17159 10.58059,9.6804 0.72639,1.49237 3.11108,8.533 3.11108,36.146 V 207.323 c -69.93575,27.81271 -114.64567,49.85083 -136.55205,67.29322 -23.90471,19.0304 -36.02492,40.96321 -36.02492,65.18843 0,18.52567 7.43332,34.22517 22.09594,46.66517 14.70603,12.48238 33.319,18.81253 55.31944,18.81253 17.73464,0 36.64569,-4.17935 56.20501,-12.42306 14.05776,-5.92347 28.78984,-14.09458 43.96615,-24.37169 4.10808,9.46739 10.31433,17.19549 18.56088,23.08265 12.74243,9.09824 30.15293,13.71089 51.7453,13.71089 18.18176,0 34.72695,-3.92881 49.17252,-11.67507 13.88268,-7.44731 27.29218,-19.30271 39.86096,-35.23823 3.47284,-4.40206 2.40349,-10.28679 -2.47295,-13.62979 z m -86.56053,50.25146 c -18.6723,0 -33.25388,-3.74968 -43.75633,-11.24782 -10.50244,-7.49693 -16.92285,-18.84278 -19.254,-34.03998 -39.90581,30.19226 -75.7325,45.2878 -107.46701,45.2878 -18.67375,0 -34.1901,-5.24931 -46.55776,-15.74671 -12.37198,-10.49739 -18.55219,-23.64061 -18.55219,-39.43815 0,-21.393 10.73107,-40.63883 32.20479,-57.73385 21.46794,-17.09504 68.26156,-39.83758 140.37217,-68.23126 v -28.19155 c 0,-21.19087 -1.34572,-34.53744 -4.0256,-40.03849 -2.68421,-5.49742 -7.76034,-10.29526 -15.22551,-14.39595 -7.47239,-4.09583 -15.87376,-6.14859 -25.20413,-6.14859 -15.17341,0 -27.65393,2.90001 -37.45746,8.6976 -6.07024,3.59959 -9.10029,7.7983 -9.10029,12.59615 0,4.19872 3.26447,9.40082 9.80065,15.5954 8.86587,8.59957 13.30097,16.89774 13.30097,24.89334 0,9.79902 -4.26002,18.14441 -12.77716,25.04221 -8.52148,6.8978 -19.6635,10.34732 -33.43041,10.34732 -14.70314,0 -27.01436,-3.79568 -36.93076,-11.3967 -9.92074,-7.59617 -14.87677,-16.49469 -14.87677,-26.69192 0,-14.39594 6.65193,-28.14072 19.9529,-41.23916 13.30243,-13.09239 31.85607,-23.14074 55.65949,-30.14143 23.80342,-6.99584 48.53727,-10.49739 74.21168,-10.49739 31.03416,0 55.59872,5.65114 73.68643,16.94495 18.08336,11.29743 29.80998,23.54378 35.1813,36.73906 3.26592,8.39743 4.90105,27.6953 4.90105,57.88394 v 108.87008 c 0,12.79706 0.58025,20.84349 1.75088,24.14292 1.1663,3.29942 2.91574,5.74918 5.25123,7.34685 2.3297,1.6025 5.01536,2.39892 8.04975,2.39892 6.06589,0 12.25334,-3.69764 18.55365,-11.09652 l 10.501,7.19675 c -11.67164,14.8002 -23.74844,25.54452 -36.2304,32.2414 -12.48776,6.6993 -26.66417,10.05078 -42.53216,10.05078 z"
   id="path18"
   inkscape:connector-curvature="0"
   style="fill:#b3b3b3" />
<g
   id="layer6"
   transform="matrix(8.9010878,0,0,10.096998,-925.92906,-83.289632)"
   inkscape:label="Shadow">
</g>
<g
   id="g5772"
   transform="matrix(8.9010878,0,0,10.096998,-925.92906,-83.289632)"
   inkscape:label="Base">
</g>
<g
   id="g2637"
   transform="matrix(8.9010878,0,0,10.096998,-1038.203,399.25883)"
   inkscape:label="base">
</g>
<radialGradient
   id="path4346_1_"
   cx="-777.6465"
   cy="1002.082"
   r="8.0625"
   gradientTransform="matrix(-17.5116,-0.0756,-0.0387,8.9723,-13443.815,-8598.4512)"
   gradientUnits="userSpaceOnUse">
	<stop
   offset="0"
   style="stop-color:#000000"
   id="stop24" />
	<stop
   offset="1"
   style="stop-color:#000000;stop-opacity:0"
   id="stop26" />
</radialGradient>
<path
   id="path4346"
   sodipodi:type="arc"
   sodipodi:ry="2.28125"
   sodipodi:rx="8.0625"
   sodipodi:cy="19.03125"
   sodipodi:cx="11.25"
   enable-background="new    "
   d="m 19.3125,19.03125 a 8.0625,2.28125 0 1 1 -16.125,0 8.0625,2.28125 0 1 1 16.125,0 z"
   style="opacity:0.16290002;fill:url(#path4346_1_)"
   transform="translate(-10,0)" />
<path
   id="path4348"
   inkscape:connector-curvature="0"
   sodipodi:nodetypes="cccccccc"
   d="M 240.741,276.271 125.292,26.979 8.28,275.268 l 55.556,0.24 -0.856,198.395 120.398,0.52 0.856,-198.396 56.507,0.244 z"
   style="fill:#3465a4;stroke:#204a87;stroke-width:9.63589954" />
<path
   id="path4352"
   inkscape:connector-curvature="0"
   sodipodi:nodetypes="cccccc"
   enable-background="new    "
   d="m 179.852,467.915 -56.138,-0.242 2.03,-430.993 107.323,232.144 -52.355,-0.226 -0.86,199.317 z"
   style="opacity:0.35390003;fill:#729fcf" />
<linearGradient
   id="path4360_1_"
   gradientUnits="userSpaceOnUse"
   x1="-779.8232"
   y1="999.9893"
   x2="-739.6838"
   y2="979.7657"
   gradientTransform="translate(-10,0)">
	<stop
   offset="0"
   style="stop-color:#FFFFFF"
   id="stop32" />
	<stop
   offset="1"
   style="stop-color:#FFFFFF;stop-opacity:0"
   id="stop34" />
</linearGradient>
<path
   id="path4360"
   inkscape:connector-curvature="0"
   sodipodi:nodetypes="cccccccc"
   enable-background="new    "
   d="M 225.682,263.284 125.062,45.61 23.886,262.413 l 47.569,0.205 -0.855,198.165 105.738,0.456 0.855,-198.164 48.489,0.209 z"
   style="opacity:0.35400008;fill:none;stroke:url(#path4360_1_);stroke-width:9.63589954" />
</svg>