<?xml version="1.0" encoding="UTF-8" standalone="no"?>
<!-- Created with Inkscape (http://www.inkscape.org/) -->

<svg
   xmlns:dc="http://purl.org/dc/elements/1.1/"
   xmlns:cc="http://creativecommons.org/ns#"
   xmlns:rdf="http://www.w3.org/1999/02/22-rdf-syntax-ns#"
   xmlns:svg="http://www.w3.org/2000/svg"
   xmlns="http://www.w3.org/2000/svg"
   xmlns:xlink="http://www.w3.org/1999/xlink"
   xmlns:sodipodi="http://sodipodi.sourceforge.net/DTD/sodipodi-0.dtd"
   xmlns:inkscape="http://www.inkscape.org/namespaces/inkscape"
   width="48"
   height="48"
   id="svg2"
   sodipodi:version="0.32"
   inkscape:version="0.48.3.1 r9886"
   version="1.0"
   sodipodi:docname="color_foreground.svg"
   inkscape:export-filename="/home/lapo/Desktop/xubuntu/pngs/wksp.png"
   inkscape:export-xdpi="90"
   inkscape:export-ydpi="90"
   inkscape:output_extension="org.inkscape.output.svg.inkscape">
  <sodipodi:namedview
     inkscape:window-height="718"
     inkscape:window-width="1366"
     inkscape:pageshadow="2"
     inkscape:pageopacity="0.0"
     guidetolerance="10.0"
     gridtolerance="10.0"
     objecttolerance="10.0"
     borderopacity="1"
     bordercolor="#c8c8c8"
     pagecolor="#ffffff"
     id="base"
     showgrid="false"
     inkscape:showpageshadow="false"
     showborder="false"
     inkscape:zoom="2.13"
     inkscape:cx="-120.74912"
     inkscape:cy="-13.943362"
     inkscape:window-x="0"
     inkscape:window-y="0"
     inkscape:current-layer="layer1"
     inkscape:grid-points="true"
     showguides="true"
     inkscape:guide-bbox="true"
     inkscape:window-maximized="1">
    <inkscape:grid
       id="GridFromPre046Settings"
       type="xygrid"
       originx="0px"
       originy="0px"
       spacingx="0.5px"
       spacingy="0.5px"
       color="#0000ff"
       empcolor="#0000ff"
       opacity="0.2"
       empopacity="0.4"
       empspacing="2" />
  </sodipodi:namedview>
  <defs
     id="defs4">
    <inkscape:perspective
       sodipodi:type="inkscape:persp3d"
       inkscape:vp_x="0 : 24 : 1"
       inkscape:vp_y="0 : 1000 : 0"
       inkscape:vp_z="48 : 24 : 1"
       inkscape:persp3d-origin="24 : 16 : 1"
       id="perspective98" />
    <linearGradient
       inkscape:collect="always"
       id="linearGradient3310">
      <stop
         style="stop-color:#c17d11;stop-opacity:1"
         offset="0"
         id="stop3312" />
      <stop
         style="stop-color:#e9b96e;stop-opacity:1"
         offset="1"
         id="stop3314" />
    </linearGradient>
    <linearGradient
       inkscape:collect="always"
       id="linearGradient3301">
      <stop
         style="stop-color:#ffffff;stop-opacity:1;"
         offset="0"
         id="stop3304" />
      <stop
         style="stop-color:#ffffff;stop-opacity:0;"
         offset="1"
         id="stop3306" />
    </linearGradient>
    <linearGradient
       inkscape:collect="always"
       id="linearGradient3315">
      <stop
         style="stop-color:#000000;stop-opacity:1;"
         offset="0"
         id="stop3317" />
      <stop
         style="stop-color:#000000;stop-opacity:0;"
         offset="1"
         id="stop3319" />
    </linearGradient>
    <linearGradient
       id="linearGradient3299"
       inkscape:collect="always">
      <stop
         id="stop3301"
         offset="0"
         style="stop-color:white;stop-opacity:1;" />
      <stop
         id="stop3303"
         offset="1"
         style="stop-color:#ffffff;stop-opacity:0.52091253" />
    </linearGradient>
    <linearGradient
       inkscape:collect="always"
       id="linearGradient3266">
      <stop
         style="stop-color:#000000;stop-opacity:1;"
         offset="0"
         id="stop3268" />
      <stop
         style="stop-color:#000000;stop-opacity:0;"
         offset="1"
         id="stop3270" />
    </linearGradient>
    <linearGradient
       inkscape:collect="always"
       id="linearGradient3222">
      <stop
         style="stop-color:#eac586;stop-opacity:1;"
         offset="0"
         id="stop3224" />
      <stop
         style="stop-color:#eac586;stop-opacity:0;"
         offset="1"
         id="stop3226" />
    </linearGradient>
    <linearGradient
       inkscape:collect="always"
       id="linearGradient2911">
      <stop
         style="stop-color:#8ae234;stop-opacity:1"
         offset="0"
         id="stop2913" />
      <stop
         style="stop-color:#73d216;stop-opacity:1"
         offset="1"
         id="stop2915" />
    </linearGradient>
    <linearGradient
       inkscape:collect="always"
       id="linearGradient2892">
      <stop
         style="stop-color:black;stop-opacity:1;"
         offset="0"
         id="stop2894" />
      <stop
         style="stop-color:black;stop-opacity:0;"
         offset="1"
         id="stop2896" />
    </linearGradient>
    <linearGradient
       id="linearGradient2880"
       inkscape:collect="always">
      <stop
         id="stop2882"
         offset="0"
         style="stop-color:#729fcf;stop-opacity:1" />
      <stop
         id="stop2884"
         offset="1"
         style="stop-color:#3465a4;stop-opacity:1" />
    </linearGradient>
    <linearGradient
       inkscape:collect="always"
       id="linearGradient2866">
      <stop
         style="stop-color:#ef2929;stop-opacity:1"
         offset="0"
         id="stop2868" />
      <stop
         style="stop-color:#cc0000;stop-opacity:1"
         offset="1"
         id="stop2870" />
    </linearGradient>
    <linearGradient
       id="linearGradient3235"
       inkscape:collect="always">
      <stop
         id="stop3237"
         offset="0"
         style="stop-color:#eeeeec;stop-opacity:1" />
      <stop
         id="stop3239"
         offset="1"
         style="stop-color:#888a85;stop-opacity:1" />
    </linearGradient>
    <linearGradient
       inkscape:collect="always"
       id="linearGradient3201">
      <stop
         style="stop-color:#e7ce79;stop-opacity:1"
         offset="0"
         id="stop3203" />
      <stop
         style="stop-color:#c17d11;stop-opacity:1"
         offset="1"
         id="stop3205" />
    </linearGradient>
    <linearGradient
       id="linearGradient3171"
       inkscape:collect="always">
      <stop
         id="stop3173"
         offset="0"
         style="stop-color:white;stop-opacity:1;" />
      <stop
         id="stop3175"
         offset="1"
         style="stop-color:white;stop-opacity:0.06844106" />
    </linearGradient>
    <linearGradient
       inkscape:collect="always"
       id="linearGradient3126">
      <stop
         style="stop-color:#555753;stop-opacity:1"
         offset="0"
         id="stop3128" />
      <stop
         style="stop-color:#1f2324;stop-opacity:1"
         offset="1"
         id="stop3130" />
    </linearGradient>
    <linearGradient
       inkscape:collect="always"
       id="linearGradient3088">
      <stop
         style="stop-color:white;stop-opacity:1;"
         offset="0"
         id="stop3090" />
      <stop
         style="stop-color:white;stop-opacity:0.34600762"
         offset="1"
         id="stop3092" />
    </linearGradient>
    <radialGradient
       inkscape:collect="always"
       xlink:href="#linearGradient2866"
       id="radialGradient2872"
       cx="32.450172"
       cy="33.609394"
       fx="32.450172"
       fy="33.609394"
       r="5.0383151"
       gradientTransform="matrix(0.636942,0.6968413,0.5532571,-0.5101348,-5.0012019,25.28829)"
       gradientUnits="userSpaceOnUse" />
    <radialGradient
       inkscape:collect="always"
       xlink:href="#linearGradient2880"
       id="radialGradient2878"
       gradientUnits="userSpaceOnUse"
       gradientTransform="matrix(-0.8570757,0.7036892,-0.6305522,-0.6305522,89.175967,19.040701)"
       cx="33.290813"
       cy="36.070057"
       fx="33.290813"
       fy="36.070057"
       r="5.0383151" />
    <radialGradient
       inkscape:collect="always"
       xlink:href="#linearGradient2911"
       id="radialGradient2917"
       cx="23.537704"
       cy="36.025131"
       fx="23.537704"
       fy="36.025131"
       r="4.2448119"
       gradientTransform="matrix(0.9409277,0,0,1.0482489,1.6820709,-3.1775018)"
       gradientUnits="userSpaceOnUse" />
    <radialGradient
       inkscape:collect="always"
       xlink:href="#linearGradient2892"
       id="radialGradient3832"
       gradientUnits="userSpaceOnUse"
       cx="6.5"
       cy="23.5"
       fx="6.5"
       fy="23.5"
       r="4.5" />
    <radialGradient
       inkscape:collect="always"
       xlink:href="#linearGradient2892"
       id="radialGradient3834"
       gradientUnits="userSpaceOnUse"
       cx="6.5"
       cy="23.5"
       fx="6.5"
       fy="23.5"
       r="4.5" />
    <linearGradient
       inkscape:collect="always"
       xlink:href="#linearGradient3088"
       id="linearGradient3236"
       gradientUnits="userSpaceOnUse"
       x1="21.424923"
       y1="14.769098"
       x2="16.6399"
       y2="5.5"
       gradientTransform="translate(1.0640333,-0.44484987)" />
    <linearGradient
       inkscape:collect="always"
       xlink:href="#linearGradient3299"
       id="linearGradient3238"
       gradientUnits="userSpaceOnUse"
       x1="15.299923"
       y1="9.1440983"
       x2="51.568203"
       y2="83.076073"
       gradientTransform="translate(1.0640333,2.46337e-2)" />
    <radialGradient
       inkscape:collect="always"
       xlink:href="#linearGradient3266"
       id="radialGradient3274"
       cx="28.469051"
       cy="23.21442"
       fx="28.469051"
       fy="23.21442"
       r="12.3671"
       gradientTransform="matrix(0.1675436,0.1340677,-0.9393554,1.1739072,43.937672,-7.5867473)"
       gradientUnits="userSpaceOnUse" />
    <radialGradient
       inkscape:collect="always"
       xlink:href="#linearGradient3201"
       id="radialGradient3297"
       cx="28.6576"
       cy="33.986694"
       fx="28.6576"
       fy="33.986694"
       r="18.572308"
       gradientTransform="matrix(6.0429881,0,0,5.537076,-142.79439,-152.23844)"
       gradientUnits="userSpaceOnUse" />
    <radialGradient
       inkscape:collect="always"
       xlink:href="#linearGradient3315"
       id="radialGradient3321"
       cx="10.5625"
       cy="46.0625"
       fx="10.5625"
       fy="46.0625"
       r="8.5625"
       gradientTransform="matrix(1,0,0,0.5328467,0,21.518248)"
       gradientUnits="userSpaceOnUse" />
    <linearGradient
       inkscape:collect="always"
       xlink:href="#linearGradient3171"
       id="linearGradient3237"
       gradientUnits="userSpaceOnUse"
       gradientTransform="matrix(0.6424152,0,0,0.7146281,3.445805,6.787435)"
       x1="9.3437004"
       y1="38.811657"
       x2="10.924745"
       y2="46.82093" />
    <linearGradient
       inkscape:collect="always"
       xlink:href="#linearGradient3126"
       id="linearGradient3240"
       gradientUnits="userSpaceOnUse"
       gradientTransform="matrix(1,0,0,1.2675301,-0.999995,-14.85358)"
       x1="10.593056"
       y1="38.581955"
       x2="10.165062"
       y2="43.382187" />
    <linearGradient
       inkscape:collect="always"
       xlink:href="#linearGradient3171"
       id="linearGradient3252"
       gradientUnits="userSpaceOnUse"
       x1="12.186543"
       y1="38.012455"
       x2="12.186543"
       y2="39.53223" />
    <linearGradient
       inkscape:collect="always"
       xlink:href="#linearGradient3222"
       id="linearGradient3270"
       gradientUnits="userSpaceOnUse"
       gradientTransform="matrix(0.8048011,-8.4058945e-2,-0.2587753,0.8411918,10.626724,5.876157)"
       x1="38.289421"
       y1="5.2539482"
       x2="36.610626"
       y2="7.3314619" />
    <linearGradient
       inkscape:collect="always"
       xlink:href="#linearGradient3235"
       id="linearGradient3276"
       gradientUnits="userSpaceOnUse"
       gradientTransform="matrix(0.8048011,-8.4058945e-2,-0.2587753,0.8411918,10.723364,3.5105159)"
       x1="19.635454"
       y1="29.591417"
       x2="23.529133"
       y2="33.485096" />
    <linearGradient
       inkscape:collect="always"
       xlink:href="#linearGradient3310"
       id="linearGradient3279"
       gradientUnits="userSpaceOnUse"
       gradientTransform="matrix(0.8048011,-8.4058945e-2,-0.2587753,0.8411918,10.723364,3.5105159)"
       x1="33.175713"
       y1="18.657627"
       x2="31.180811"
       y2="17.17729" />
    <linearGradient
       inkscape:collect="always"
       xlink:href="#linearGradient3301"
       id="linearGradient3308"
       x1="18.1875"
       y1="28.625"
       x2="41.4375"
       y2="6.1875"
       gradientUnits="userSpaceOnUse"
       gradientTransform="translate(0,-1)" />
    <linearGradient
       y2="43.194206"
       x2="35.75"
       y1="18.120352"
       x1="35.75"
       gradientTransform="matrix(1.95238,0,0,1.952379,-46.28565,-43.38086)"
       gradientUnits="userSpaceOnUse"
       id="linearGradient1954"
       xlink:href="#linearGradient2833"
       inkscape:collect="always" />
    <radialGradient
       r="2.4999993"
       fy="42.500427"
       fx="43"
       cy="42.500427"
       cx="43"
       gradientTransform="matrix(2,0,0,0.999829,-116,-84.99275)"
       gradientUnits="userSpaceOnUse"
       id="radialGradient1945"
       xlink:href="#linearGradient2812"
       inkscape:collect="always" />
    <linearGradient
       y2="45.00021"
       x2="35.001785"
       y1="40.000072"
       x1="35.001785"
       gradientUnits="userSpaceOnUse"
       id="linearGradient1943"
       xlink:href="#linearGradient2824"
       inkscape:collect="always" />
    <radialGradient
       r="2.4999993"
       fy="42.500427"
       fx="43"
       cy="42.500427"
       cx="43"
       gradientTransform="matrix(2,0,0,0.999829,-43,7.251099e-3)"
       gradientUnits="userSpaceOnUse"
       id="radialGradient1941"
       xlink:href="#linearGradient2812"
       inkscape:collect="always" />
    <linearGradient
       id="linearGradient2833">
      <stop
         id="stop2835"
         offset="0"
         style="stop-color:#babdb6;stop-opacity:1" />
      <stop
         id="stop2837"
         offset="1"
         style="stop-color:#eeeeec;stop-opacity:1" />
    </linearGradient>
    <linearGradient
       id="linearGradient2812"
       inkscape:collect="always">
      <stop
         id="stop2814"
         offset="0"
         style="stop-color:black;stop-opacity:1;" />
      <stop
         id="stop2816"
         offset="1"
         style="stop-color:black;stop-opacity:0;" />
    </linearGradient>
    <linearGradient
       id="linearGradient2824">
      <stop
         id="stop2826"
         offset="0"
         style="stop-color:black;stop-opacity:0;" />
      <stop
         style="stop-color:black;stop-opacity:1;"
         offset="0.5"
         id="stop2832" />
      <stop
         id="stop2828"
         offset="1"
         style="stop-color:black;stop-opacity:0;" />
    </linearGradient>
    <inkscape:perspective
       id="perspective32"
       inkscape:persp3d-origin="24 : 16 : 1"
       inkscape:vp_z="48 : 24 : 1"
       inkscape:vp_y="0 : 1000 : 0"
       inkscape:vp_x="0 : 24 : 1"
       sodipodi:type="inkscape:persp3d" />
    <linearGradient
       id="linearGradient2512">
      <stop
         id="stop2514"
         offset="0"
         style="stop-color:#babdb6;stop-opacity:1" />
      <stop
         id="stop2516"
         offset="1"
         style="stop-color:#555753;stop-opacity:1" />
    </linearGradient>
  </defs>
  <sodipodi:namedview
     id="namedview30"
     pagecolor="#ffffff"
     bordercolor="#666666"
     borderopacity="1.0"
     inkscape:pageopacity="0.0"
     inkscape:pageshadow="2"
     inkscape:zoom="1"
     inkscape:cx="10.097903"
     inkscape:cy="38.917761"
     inkscape:document-units="px"
     inkscape:current-layer="layer1"
     showgrid="false"
     inkscape:window-width="965"
     inkscape:window-height="763"
     inkscape:window-x="176"
     inkscape:window-y="103"
     fill="#729fcf"
     stroke="#3465a4"
     inkscape:showpageshadow="false"
     showguides="false"
     inkscape:guide-bbox="true"
     inkscape:grid-points="true"
     inkscape:grid-bbox="false"
     showborder="true">
    <sodipodi:guide
       orientation="vertical"
       position="24.041631"
       id="guide2191" />
    <sodipodi:guide
       orientation="horizontal"
       position="25.986174"
       id="guide2203" />
    <inkscape:grid
       id="grid87"
       type="xygrid"
       originx="0px"
       originy="0px"
       spacingx="0.5px"
       spacingy="0.5px"
       color="#0000ff"
       empcolor="#0000ff"
       opacity="0.2"
       empopacity="0.4"
       empspacing="2" />
  </sodipodi:namedview>
  <metadata
     id="metadata7">
    <rdf:RDF>
      <cc:Work
         rdf:about="">
        <dc:format>image/svg+xml</dc:format>
        <dc:type
           rdf:resource="http://purl.org/dc/dcmitype/StillImage" />
        <dc:creator>
          <cc:Agent>
            <dc:title>Ulisse Perusin</dc:title>
          </cc:Agent>
        </dc:creator>
        <dc:title>applications-graphics</dc:title>
        <dc:subject>
          <rdf:Bag />
        </dc:subject>
        <cc:license
           rdf:resource="http://creativecommons.org/licenses/GPL/2.0/" />
        <dc:contributor>
          <cc:Agent>
            <dc:title>Lapo Calamandrei</dc:title>
          </cc:Agent>
        </dc:contributor>
      </cc:Work>
      <cc:License
         rdf:about="http://creativecommons.org/licenses/GPL/2.0/">
        <cc:permits
           rdf:resource="http://web.resource.org/cc/Reproduction" />
        <cc:permits
           rdf:resource="http://web.resource.org/cc/Distribution" />
        <cc:requires
           rdf:resource="http://web.resource.org/cc/Notice" />
        <cc:permits
           rdf:resource="http://web.resource.org/cc/DerivativeWorks" />
        <cc:requires
           rdf:resource="http://web.resource.org/cc/ShareAlike" />
        <cc:requires
           rdf:resource="http://web.resource.org/cc/SourceCode" />
      </cc:License>
    </rdf:RDF>
  </metadata>
  <g
     inkscape:label="Livello 1"
     inkscape:groupmode="layer"
     id="layer1">
    <path
       sodipodi:type="arc"
       style="opacity:0.1;fill:url(#radialGradient3321);fill-opacity:1;stroke:none;stroke-width:1;stroke-linecap:round;stroke-linejoin:round;stroke-miterlimit:4;stroke-dasharray:none;stroke-dashoffset:0;stroke-opacity:1"
       id="path3305"
       sodipodi:cx="10.5625"
       sodipodi:cy="46.0625"
       sodipodi:rx="8.5625"
       sodipodi:ry="4.5625"
       d="M 19.125 46.0625 A 8.5625 4.5625 0 1 1  2,46.0625 A 8.5625 4.5625 0 1 1  19.125 46.0625 z"
       transform="matrix(1.1094891,0,0,0.5479452,-1.7189781,16.635274)" />
    <g
       id="g3828"
       transform="matrix(1.2345971,0,0,1.1113159,-22.671972,-10.707451)"
       style="opacity:0.30268196">
      <path
         sodipodi:end="6.2831853"
         sodipodi:start="3.1415927"
         transform="matrix(0,-1,5.888889,0,-94.88889,53)"
         d="M 2,23.5 C 2.0000001,21.014718 4.0147188,19 6.5000002,19 8.9852815,19 11,21.014719 11,23.5 l -4.5,0 z"
         sodipodi:ry="4.5"
         sodipodi:rx="4.5"
         sodipodi:cy="23.5"
         sodipodi:cx="6.5"
         id="path3814"
         style="opacity:1;fill:url(#radialGradient3832);fill-opacity:1;fill-rule:evenodd;stroke:none;stroke-width:0.5;stroke-linecap:round;stroke-linejoin:round;stroke-miterlimit:4;stroke-dasharray:none;stroke-opacity:1"
         sodipodi:type="arc" />
      <path
         sodipodi:end="6.2831853"
         sodipodi:start="3.1415927"
         transform="matrix(0,-1,-3,0,114,53)"
         d="M 2,23.5 C 2.0000001,21.014718 4.0147188,19 6.5000002,19 8.9852815,19 11,21.014719 11,23.5 l -4.5,0 z"
         sodipodi:ry="4.5"
         sodipodi:rx="4.5"
         sodipodi:cy="23.5"
         sodipodi:cx="6.5"
         id="path3824"
         style="opacity:1;fill:url(#radialGradient3834);fill-opacity:1;fill-rule:evenodd;stroke:none;stroke-width:0.5;stroke-linecap:round;stroke-linejoin:round;stroke-miterlimit:4;stroke-dasharray:none;stroke-opacity:1"
         sodipodi:type="arc" />
    </g>
    <path
       style="opacity:1;fill:url(#radialGradient3297);fill-opacity:1;fill-rule:evenodd;stroke:#c17d11;stroke-width:0.99999988;stroke-linecap:butt;stroke-linejoin:miter;stroke-miterlimit:4;stroke-dasharray:none;stroke-opacity:1"
       d="M 23.03125,4.5 C 17.164481,4.5769393 9.304703,6.5845978 9.4375,13.03125 C 9.5791607,19.90817 17.932526,17.194685 18.25,20.25 C 18.763103,25.188007 8.0762698,40.211023 24.3125,43.15625 C 35.151762,45.122476 46.655802,38.37184 45.5,24.75 C 44.460562,12.499581 34.3249,4.8118411 24.1875,4.5 C 23.81714,4.4886072 23.422368,4.4948707 23.03125,4.5 z M 20.5,8.5 C 23.26,8.5 25.5,10.068 25.5,12 C 25.500001,13.932 23.26,15.5 20.5,15.5 C 17.74,15.5 15.5,13.932 15.5,12 C 15.5,10.068 17.74,8.5 20.5,8.5 z "
       id="path2193" />
    <path
       style="opacity:0.67049806;fill:none;fill-opacity:1;fill-rule:evenodd;stroke:url(#linearGradient3238);stroke-width:1;stroke-linecap:butt;stroke-linejoin:miter;stroke-miterlimit:4;stroke-opacity:1"
       d="M 23.095283,5.5246337 C 20.271,5.5616725 16.972108,6.0922297 14.501533,7.3058837 C 12.030958,8.5195377 10.443616,10.213046 10.501533,13.024634 C 10.532717,14.538464 10.981199,15.35297 11.595283,15.930884 C 12.209367,16.508798 13.090956,16.854793 14.095283,17.118384 C 15.09961,17.381975 16.186837,17.537653 17.157783,17.868384 C 17.643256,18.033749 18.118863,18.248296 18.532783,18.618384 C 18.946703,18.988472 19.250062,19.565243 19.314033,20.180884 C 19.484935,21.825613 18.835106,23.684235 18.157783,25.837134 C 17.48046,27.990033 16.711693,30.350748 16.439033,32.587134 C 16.166373,34.82352 16.397821,36.867163 17.501533,38.493384 C 18.605245,40.119605 20.67224,41.474919 24.564033,42.180884 C 29.722581,43.116637 35.012897,41.973742 38.845283,39.024634 C 42.677669,36.075526 45.116917,31.384464 44.564033,24.868384 C 43.568283,13.13285 33.869202,5.8214484 24.220283,5.5246337 C 23.88329,5.5142673 23.488268,5.5194799 23.095283,5.5246337 z "
       id="path3230"
       sodipodi:nodetypes="cssssssssssssssc" />
    <path
       sodipodi:type="inkscape:offset"
       inkscape:radius="0.49386048"
       inkscape:original="M 35.59375 8.8125 C 26.637129 15.810387 22.047254 21.103661 19.5 24.5 C 17.827475 26.564266 15.917493 29.727714 14.375 32.65625 C 14.162554 34.597604 14.291968 36.50388 15.09375 38.15625 C 19.00526 35.905485 24.206667 31.000466 25.5 29.5 C 28.41897 26.164035 33.106845 20.263993 38.03125 10.90625 C 37.265184 10.155881 36.450537 9.4387222 35.59375 8.8125 z "
       style="opacity:0.16475094;fill:url(#radialGradient3274);fill-opacity:1;fill-rule:evenodd;stroke:none;stroke-width:1px;stroke-linecap:butt;stroke-linejoin:round;stroke-opacity:1"
       id="path3260"
       d="M 35.5,8.3125 C 35.417504,8.3345558 35.342135,8.3776237 35.28125,8.4375 C 26.293923,15.459378 21.66408,20.791642 19.09375,24.21875 C 17.381636,26.331878 15.48999,29.489983 13.9375,32.4375 C 13.907882,32.485625 13.886742,32.538475 13.875,32.59375 C 13.656392,34.591416 13.798454,36.607192 14.65625,38.375 C 14.714969,38.498476 14.822246,38.592088 14.952537,38.633544 C 15.082828,38.675 15.224475,38.660592 15.34375,38.59375 C 19.360055,36.282684 24.501651,31.405797 25.875,29.8125 C 28.811442,26.456567 33.524032,20.521343 38.46875,11.125 C 38.55983,10.936574 38.522268,10.711201 38.375,10.5625 C 37.596274,9.7997303 36.756404,9.0504646 35.875,8.40625 C 35.767927,8.3253531 35.632545,8.2915077 35.5,8.3125 z "
       transform="translate(0.4375,-0.875)" />
    <path
       style="fill:url(#linearGradient3279);fill-opacity:1;fill-rule:evenodd;stroke:#8f5902;stroke-width:0.99999994px;stroke-linecap:butt;stroke-linejoin:round;stroke-opacity:1"
       d="M 24.377603,26.216886 C 28.122394,22.659661 34.668929,15.824043 42.5,4.9999999 C 42.815076,4.651051 42.290608,4.3510868 42,4.5 C 30.168297,12.786013 24.217866,18.976254 20.842673,22.51528"
       id="path3096"
       sodipodi:nodetypes="cccc" />
    <path
       style="opacity:0.15;fill:#000000;fill-opacity:1;fill-rule:evenodd;stroke:#000000;stroke-width:1;stroke-linecap:butt;stroke-linejoin:round;stroke-miterlimit:4;stroke-dasharray:none;stroke-opacity:1"
       d="M 21.436423,21.92153 C 22.917899,22.515381 24.234359,23.457599 24.971353,25.623136 C 23.470957,27.062363 17.507905,32.047842 13.789563,34.11851 L 12.697511,32.604245 C 14.810426,29.533985 18.670981,24.682271 21.436423,21.92153 z "
       id="path3316"
       sodipodi:nodetypes="ccccc" />
    <path
       style="opacity:0.7356322;fill:none;stroke:url(#linearGradient3236);stroke-width:1;stroke-linecap:butt;stroke-linejoin:miter;stroke-miterlimit:4;stroke-opacity:1"
       d="m 20.564033,7.0551501 c 1.570976,0 3.022716,0.4159014 4.125,1.1875 1.102284,0.7715986 1.875,1.9567529 1.875,3.3124999 1e-6,1.355748 -0.772716,2.540901 -1.875,3.3125 -1.102284,0.771599 -2.554024,1.1875 -4.125,1.1875 -1.570976,0 -3.022716,-0.415901 -4.125,-1.1875 -1.102284,-0.771599 -1.875,-1.956753 -1.875,-3.3125 0,-1.355747 0.772716,-2.5409013 1.875,-3.3124999 1.102284,-0.7715986 2.554024,-1.1875 4.125,-1.1875 z"
       id="path3086"
       sodipodi:nodetypes="csssssssc"
       inkscape:connector-curvature="0" />
    <path
       style="fill:url(#linearGradient3276);fill-opacity:1;fill-rule:evenodd;stroke:#888a85;stroke-width:0.99999994px;stroke-linecap:butt;stroke-linejoin:miter;stroke-opacity:1"
       d="M 20.842673,22.51528 C 22.324149,23.109131 23.640609,24.051349 24.377603,26.216886 C 22.877207,27.656113 16.914155,32.641592 13.195813,34.71226 L 12.103761,33.197995 C 14.216676,30.127735 18.077231,25.276021 20.842673,22.51528 z "
       id="path3098"
       sodipodi:nodetypes="ccccc" />
    <g
       id="g3292"
       transform="translate(1.2209709,0.4254758)"
       style="opacity:0.13026817">
      <path
         sodipodi:nodetypes="cssssssssc"
         id="path3286"
         d="M 26.824405,37.496498 C 25.843366,38.089334 26.895931,38.770346 27.369354,39.167078 C 27.744822,39.481722 27.180957,41.00241 26.508539,40.330386 C 25.733629,39.555928 25.2347,38.478498 24.930767,38.450885 C 23.183843,38.292163 24.528898,40.598656 23.123134,40.091388 C 22.281926,39.787838 23.328561,38.513549 22.205241,38.122462 C 21.312835,37.811766 21.401497,38.766519 20.885481,38.301308 C 18.456205,36.1112 19.733093,34.20872 20.857329,32.722957 C 21.981581,31.23717 24.202522,31.077841 25.849436,32.395339 C 27.496348,33.712837 27.933134,35.998157 26.824405,37.496498 z "
         style="fill:#000000;fill-opacity:1;fill-rule:evenodd;stroke:#000000;stroke-width:0.99999982;stroke-linecap:butt;stroke-linejoin:round;stroke-miterlimit:5;stroke-opacity:1" />
      <path
         sodipodi:nodetypes="cssssssssss"
         id="path3288"
         d="M 35.474535,34.483528 C 36.369083,34.483528 37.870365,34.634524 38.265451,35.099165 C 39.189278,36.185632 40.008953,34.756527 39.30616,34.139572 C 38.496243,33.428577 37.419779,33.019366 37.366902,32.717334 C 37.062977,30.981339 39.391454,32.134717 38.782944,30.769593 C 38.418813,29.952703 37.28783,31.107681 36.815256,30.015639 C 36.439827,29.148081 37.363024,29.156758 36.87212,28.679069 C 34.561071,26.430225 32.847726,27.868477 31.520702,29.118906 C 30.193658,30.369351 30.233783,32.606693 31.64015,34.145318 C 32.217737,34.777222 32.501554,36.296156 33.238166,36.478821 C 34.295133,36.740926 33.221952,34.483528 35.474535,34.483528 z "
         style="fill:#000000;fill-opacity:1;fill-rule:evenodd;stroke:#000000;stroke-width:1;stroke-linecap:butt;stroke-linejoin:round;stroke-miterlimit:5;stroke-opacity:1" />
      <path
         sodipodi:nodetypes="cssssssssss"
         id="path3290"
         d="M 37.020609,23.500481 C 36.139674,23.500481 35.963242,24.108432 35.548119,24.500087 C 35.218887,24.810704 33.831149,24.195639 34.523247,23.647451 C 35.32084,23.015707 35.496046,22.269439 35.548119,22.001071 C 35.84742,20.458572 32.892058,21.208472 33.5,20 C 33.942679,19.120033 35.552495,19.957869 35.548119,19.502056 C 35.541371,18.799225 35.128019,17.737432 36.008764,17.56379 C 37.861929,17.198433 39.995178,18.475962 41,19.5 C 41.960731,20.479104 41.427845,22.191241 40.859805,23.407468 C 40.512739,24.150569 39.717463,25.66294 38.795277,25.480876 C 37.748856,25.274285 39.238914,23.500481 37.020609,23.500481 z "
         style="fill:#000000;fill-opacity:1;fill-rule:evenodd;stroke:#000000;stroke-width:1;stroke-linecap:butt;stroke-linejoin:round;stroke-miterlimit:5;stroke-opacity:1" />
    </g>
    <path
       style="opacity:0.68000016;fill:url(#linearGradient3308);fill-opacity:1;fill-rule:evenodd;stroke:none;stroke-width:1px;stroke-linecap:butt;stroke-linejoin:miter;stroke-opacity:1"
       d="M 12.9375,33.4375 C 18.547566,24.933929 36.615367,9.233779 40.5,6.6249999 C 32.235232,15.427256 21.892146,25.266733 12.9375,33.4375 z "
       id="path3299"
       sodipodi:nodetypes="ccc" />
    <path
       style="fill:url(#radialGradient2917);fill-opacity:1;fill-rule:evenodd;stroke:#4e9a06;stroke-width:0.99999982;stroke-linecap:butt;stroke-linejoin:round;stroke-miterlimit:5;stroke-opacity:1"
       d="M 27.824405,37.496498 C 26.843366,38.089334 27.895931,38.770346 28.369354,39.167078 C 28.744822,39.481722 28.180957,41.00241 27.508539,40.330386 C 26.733629,39.555928 26.2347,38.478498 25.930767,38.450885 C 24.183843,38.292163 25.528898,40.598656 24.123134,40.091388 C 23.281926,39.787838 24.328561,38.513549 23.205241,38.122462 C 22.312835,37.811766 22.401497,38.766519 21.885481,38.301308 C 19.456205,36.1112 20.733093,34.20872 21.857329,32.722957 C 22.981581,31.23717 25.202522,31.077841 26.849436,32.395339 C 28.496348,33.712837 28.933134,35.998157 27.824405,37.496498 z "
       id="path1937"
       sodipodi:nodetypes="cssssssssc" />
    <path
       style="opacity:0.77011497;fill:#eeeeec;fill-opacity:1;fill-rule:evenodd;stroke:none;stroke-width:1;stroke-linecap:round;stroke-linejoin:miter;stroke-miterlimit:4;stroke-dasharray:none;stroke-opacity:1"
       d="M 25.71875,32.75 C 24.385472,31.971878 22.878695,32.797938 22.34375,33.46875 C 21.808805,34.139562 21.082612,35.451211 21.65625,36.6875 C 22.033056,35.498191 22.574726,34.707555 23.125,34.09375 C 23.676092,33.479032 24.318087,32.817139 25.71875,32.75 z "
       id="path2836"
       sodipodi:nodetypes="csczc" />
    <path
       style="fill:url(#linearGradient3240);fill-opacity:1;fill-rule:evenodd;stroke:#000000;stroke-width:0.99999988;stroke-linecap:butt;stroke-linejoin:miter;stroke-miterlimit:4;stroke-opacity:1"
       d="M 2.5,39.533975 C 7.193467,39.535788 6.721149,34.641896 9,33.141696 C 11.640769,31.403242 13.954982,33.557379 14.41701,35.330183 C 15,37.56712 14,40.025689 11,41.009116 C 7.636352,42.111751 2.889473,41.484545 2.5,39.533975 z "
       id="path3100"
       sodipodi:nodetypes="csssc" />
    <path
       style="opacity:0.29118772;fill:none;fill-opacity:1;fill-rule:evenodd;stroke:url(#linearGradient3237);stroke-width:1;stroke-linecap:butt;stroke-linejoin:round;stroke-miterlimit:5;stroke-dasharray:none;stroke-opacity:1"
       d="M 4,40.11888 C 6.035358,40.093247 7.435893,37.673955 7.966235,36.139832 C 9.56545,31.513773 14.380709,33.712896 13.5,36.932714 C 12.451529,42.114231 7.044828,40.127047 4,40.11888 z "
       id="path3161"
       sodipodi:nodetypes="cscc" />
    <path
       sodipodi:type="arc"
       style="opacity:0.5;fill:url(#linearGradient3252);fill-opacity:1;fill-rule:evenodd;stroke:none;stroke-width:1;stroke-linecap:butt;stroke-linejoin:miter;stroke-miterlimit:5;stroke-dasharray:none;stroke-opacity:0.06844105"
       id="path3177"
       sodipodi:cx="12.186543"
       sodipodi:cy="38.708176"
       sodipodi:rx="1.138"
       sodipodi:ry="0.91702908"
       d="M 13.324543 38.708176 A 1.138 0.91702908 0 1 1  11.048543,38.708176 A 1.138 0.91702908 0 1 1  13.324543 38.708176 z"
       transform="matrix(2.6362041,0,0,2.180959,-21.126216,-49.420941)" />
    <path
       style="fill:url(#radialGradient2872);fill-opacity:1;fill-rule:evenodd;stroke:#a40000;stroke-width:1;stroke-linecap:butt;stroke-linejoin:round;stroke-miterlimit:5;stroke-opacity:1"
       d="M 36.474535,34.483528 C 37.369083,34.483528 38.870365,34.634524 39.265451,35.099165 C 40.189278,36.185632 41.008953,34.756527 40.30616,34.139572 C 39.496243,33.428577 38.419779,33.019366 38.366902,32.717334 C 38.062977,30.981339 40.391454,32.134717 39.782944,30.769593 C 39.418813,29.952703 38.28783,31.107681 37.815256,30.015639 C 37.439827,29.148081 38.363024,29.156758 37.87212,28.679069 C 35.561071,26.430225 33.847726,27.868477 32.520702,29.118906 C 31.193658,30.369351 31.233783,32.606693 32.64015,34.145318 C 33.217737,34.777222 33.501554,36.296156 34.238166,36.478821 C 35.295133,36.740926 34.221952,34.483528 36.474535,34.483528 z "
       id="path2852"
       sodipodi:nodetypes="cssssssssss" />
    <path
       style="fill:none;fill-opacity:1;fill-rule:evenodd;stroke:url(#linearGradient3270);stroke-width:0.99999994px;stroke-linecap:round;stroke-linejoin:miter;stroke-opacity:1"
       d="M 41.510654,5.5 L 38.5,8.5088128"
       id="path3212"
       sodipodi:nodetypes="cc" />
    <path
       style="fill:url(#radialGradient2878);fill-opacity:1;fill-rule:evenodd;stroke:#204a87;stroke-width:1;stroke-linecap:butt;stroke-linejoin:round;stroke-miterlimit:5;stroke-opacity:1"
       d="M 38.020609,23.500481 C 37.139674,23.500481 36.963242,24.108432 36.548119,24.500087 C 36.218887,24.810704 34.831149,24.195639 35.523247,23.647451 C 36.32084,23.015707 36.496046,22.269439 36.548119,22.001071 C 36.84742,20.458572 33.892058,21.208472 34.5,20 C 34.942679,19.120033 36.552495,19.957869 36.548119,19.502056 C 36.541371,18.799225 36.128019,17.737432 37.008764,17.56379 C 38.861929,17.198433 40.995178,18.475962 42,19.5 C 42.960731,20.479104 42.427845,22.191241 41.859805,23.407468 C 41.512739,24.150569 40.717463,25.66294 39.795277,25.480876 C 38.748856,25.274285 40.238914,23.500481 38.020609,23.500481 z "
       id="path2876"
       sodipodi:nodetypes="cssssssssss" />
    <path
       style="opacity:0.77011497;fill:#eeeeec;fill-opacity:1;fill-rule:evenodd;stroke:none;stroke-width:1;stroke-linecap:round;stroke-linejoin:miter;stroke-miterlimit:4;stroke-dasharray:none;stroke-opacity:1"
       d="M 38,18.5 C 37.144714,18.887353 37,20 37.5,21 C 38.033147,19.553298 39.5,20 41,20 C 40.5,19 38.596324,18.300529 38,18.5 z "
       id="path2886"
       sodipodi:nodetypes="cccc" />
    <path
       style="opacity:0.77011497;fill:#eeeeec;fill-opacity:1;fill-rule:evenodd;stroke:none;stroke-width:1;stroke-linecap:round;stroke-linejoin:miter;stroke-miterlimit:4;stroke-dasharray:none;stroke-opacity:1"
       d="M 36.768036,28.732129 C 35.434758,27.954007 33.927981,28.780067 33.393036,29.450879 C 32.858091,30.121691 32.131898,31.43334 32.705536,32.669629 C 33.082342,31.48032 33.624012,30.689684 34.174286,30.075879 C 34.725378,29.461161 35.367373,28.799268 36.768036,28.732129 z "
       id="path3280"
       sodipodi:nodetypes="csczc" />
    <g
       id="g3174"
       transform="matrix(0.78532576,0,0,0.71767656,294.97684,-122.72913)">
      <path
         style="fill:none"
         inkscape:connector-curvature="0"
         id="path15"
         d="m -365.58851,201.16895 c 0,1.34189 0.42433,2.41436 1.29735,3.27914 0.84544,0.8383 1.77311,1.24578 2.83629,1.24578 1.05551,0 2.98689,-0.49269 6.25159,-2.78724 v -9.579 c -2.80415,1.01873 -4.66839,1.76115 -5.55092,2.21078 -0.002,0.001 -0.005,0.003 -0.008,0.004 -1.7767,0.88791 -3.04821,1.80809 -3.77966,2.73495 -0.70463,0.89237 -1.04711,1.83824 -1.04711,2.8918 z" />
      <path
         style="fill:none"
         inkscape:connector-curvature="0"
         id="path27"
         d="m -366.10129,197.29726 c 0,1.40273 0.4571,2.5237 1.39754,3.42781 0.91073,0.87631 1.91003,1.30226 3.05531,1.30226 1.13702,0 3.21753,-0.51502 6.73434,-2.9136 v -10.01329 c -3.02002,1.06469 -5.02795,1.84054 -5.97957,2.31102 -0.003,0.001 -0.005,0.003 -0.008,0.004 -1.9139,0.92818 -3.2836,1.89007 -4.0714,2.85883 -0.7593,0.93283 -1.12823,1.9217 -1.12823,3.02314 z" />
      <path
         style="fill:#1a1a1a"
         inkscape:connector-curvature="0"
         id="path33"
         d="m -345.40348,202.63944 c -0.3933,0 -0.74105,-0.11395 -1.04232,-0.34245 -0.30167,-0.22792 -0.5181,-0.67898 -0.64902,-1.35261 -0.13146,-0.67317 -0.19672,-2.50533 -0.19672,-5.49649 v -10.65017 c 0,-3.03605 -0.23601,-5.04531 -0.70802,-6.02721 -0.7344,-1.5068 -1.87514,-2.61393 -3.42211,-3.32175 -2.04536,-0.93585 -4.66781,-1.40401 -7.86683,-1.40401 -4.16942,0 -7.4084,0.82189 -9.7156,2.46568 -2.30786,1.64378 -3.4614,3.44757 -3.4614,5.41078 0,1.02737 0.30793,1.83798 0.92432,2.43138 0.61586,0.59397 1.40925,0.89038 2.37979,0.89038 0.99624,0 1.80269,-0.28524 2.41907,-0.85608 0.61586,-0.57037 0.92432,-1.38098 0.92432,-2.43137 l -0.0786,-1.98624 c 0,-1.00434 0.49786,-1.89472 1.49463,-2.67115 0.96987,-0.77584 2.28136,-1.16435 3.93341,-1.16435 2.17628,0 3.83513,0.58212 4.97574,1.74658 1.14075,1.16435 1.71105,3.31048 1.71105,6.43804 v 1.23284 c -6.18907,1.96367 -10.61408,3.6299 -13.27529,4.99972 -2.66187,1.36982 -4.53022,2.83115 -5.60518,4.38342 -0.7866,1.11888 -1.18003,2.44324 -1.18003,3.97236 0,2.42021 0.80631,4.37226 2.41907,5.85592 1.61263,1.48436 3.66425,2.22602 6.15578,2.22602 1.59918,0 3.10739,-0.28571 4.52343,-0.85608 0.94403,-0.38804 3.26482,-1.82623 6.96222,-4.31493 0.0258,1.87239 0.41914,3.19663 1.18004,3.97247 0.76023,0.77585 1.78298,1.16435 3.0681,1.16435 2.6748,0 5.48038,-1.71227 8.41756,-5.13682 v -1.91763 c -1.57334,1.3697 -2.63538,2.20345 -3.18611,2.49986 -0.31458,0.15989 -0.68205,0.23954 -1.10132,0.23954 z m -8.37813,-3.04779 c -3.2519,2.28323 -5.87435,3.42444 -7.86683,3.42444 -1.46892,0 -2.76683,-0.542 -3.89413,-1.62658 -1.12782,-1.08399 -1.69134,-2.44858 -1.69134,-4.09225 0,-1.30133 0.44564,-2.49986 1.33747,-3.59583 0.89115,-1.09586 2.37286,-2.14566 4.44472,-3.15059 1.15366,-0.57025 3.71032,-1.54098 7.67024,-2.9108 v 11.95161 z" />
      <path
         style="fill:#b3b3b3"
         inkscape:connector-curvature="0"
         id="path35"
         d="m -361.45172,190.55084 c -2.07186,1.00493 -3.55357,2.05473 -4.44472,3.15059 -0.89183,1.09597 -1.33747,2.29439 -1.33747,3.59583 0,1.64379 0.56352,3.00826 1.69134,4.09225 1.12717,1.08458 2.42521,1.62658 3.89413,1.62658 1.99248,0 4.61506,-1.14121 7.86683,-3.42444 v -11.95161 c -3.95979,1.36982 -6.51658,2.34055 -7.67011,2.9108 z m 6.53748,8.56289 c -3.5168,2.39858 -5.59732,2.9136 -6.73434,2.9136 -1.14527,0 -2.14457,-0.42595 -3.05531,-1.30226 -0.94056,-0.90399 -1.39753,-2.02508 -1.39753,-3.42781 0,-1.10143 0.36906,-2.09031 1.1281,-3.02314 0.78793,-0.96875 2.15763,-1.93065 4.07139,-2.85882 0.003,-0.001 0.005,-0.003 0.008,-0.004 0.95163,-0.47048 2.95955,-1.24632 5.97957,-2.31102 v 10.01329 z" />
      <g
         id="g3171">
        <path
           d="m -340.68186,198.98651 c -0.14038,-0.0509 -0.28769,-0.0755 -0.43393,-0.0755 -0.29421,0 -0.58336,0.1 -0.80005,0.28861 -1.9424,1.691 -2.69078,2.19892 -2.96741,2.35114 -0.13745,0.0671 -0.30793,0.0998 -0.52023,0.0998 -0.1188,0 -0.20204,-0.0272 -0.29514,-0.0969 -0.0181,-0.0193 -0.16649,-0.19314 -0.27956,-0.77479 -0.0826,-0.42246 -0.1806,-1.68937 -0.1806,-5.33102 v -10.65017 c 0,-3.19861 -0.26052,-5.29532 -0.79633,-6.4099 -0.83801,-1.71948 -2.16322,-3.00151 -3.94061,-3.81491 -2.20011,-1.00666 -5.02381,-1.51703 -8.39265,-1.51703 -4.41808,0 -7.92769,0.90445 -10.43161,2.68836 -2.57317,1.83286 -3.87787,3.91107 -3.87787,6.17697 0,1.27622 0.40981,2.31777 1.21799,3.09582 0.83562,0.80584 1.91869,1.21481 3.21873,1.21481 1.31616,0 2.40736,-0.39245 3.24324,-1.16667 0.81804,-0.75782 1.23278,-1.80402 1.23278,-3.10977 0,-0.0114 -2.2e-4,-0.0228 -6.5e-4,-0.0342 l -0.0779,-1.96775 c 0.005,-0.70956 0.37053,-1.33691 1.11598,-1.91751 0.004,-0.003 0.007,-0.006 0.0112,-0.009 0.76076,-0.60863 1.79722,-0.90457 3.16825,-0.90457 1.84584,0 3.19196,0.45804 4.11508,1.4004 0.65662,0.67014 1.43922,2.2195 1.43922,5.79534 v 0.54141 c -5.84399,1.87519 -10.12023,3.50222 -12.71791,4.83937 -2.81052,1.44633 -4.82817,3.03453 -5.99675,4.72006 -0.89302,1.27133 -1.34586,2.78104 -1.34586,4.48761 0,2.6708 0.91846,4.86996 2.73021,6.53665 1.82692,1.68146 4.17448,2.53416 6.9774,2.53416 1.75634,0 3.43783,-0.31861 4.99785,-0.94713 0.003,-0.001 0.005,-0.002 0.008,-0.003 0.57803,-0.23768 1.77831,-0.85003 5.51674,-3.32198 0.21683,1.17399 0.6417,2.07426 1.28273,2.72801 0.98172,1.00178 2.30347,1.50994 3.92835,1.50994 1.56774,0 3.16892,-0.492 4.75917,-1.4625 1.49516,-0.91248 3.03108,-2.28195 4.56486,-4.07039 0.14677,-0.17117 0.22602,-0.37908 0.22602,-0.59281 v -1.91763 c -2.2e-4,-0.39978 -0.27583,-0.76003 -0.6987,-0.91341 z m -8.85162,7.96787 c -1.28512,0 -2.30786,-0.38851 -3.0681,-1.16435 -0.76089,-0.77584 -1.1542,-2.1002 -1.18003,-3.97248 -3.69741,2.4887 -6.01819,3.92701 -6.96223,4.31493 -1.41604,0.57037 -2.92425,0.85608 -4.52343,0.85608 -2.49166,0 -4.54314,-0.74165 -6.15577,-2.22601 -1.61277,-1.48378 -2.41908,-3.43571 -2.41908,-5.85592 0,-1.52913 0.39344,-2.85348 1.18004,-3.97236 1.07495,-1.55239 2.9433,-3.01361 5.60518,-4.38343 2.66121,-1.3697 7.08635,-3.03593 13.27529,-4.99972 v -1.23284 c 0,-3.12756 -0.57031,-5.2738 -1.71106,-6.43803 -1.14061,-1.16435 -2.79946,-1.74658 -4.97573,-1.74658 -1.65206,0 -2.96355,0.3885 -3.93342,1.16434 -0.99677,0.77643 -1.49462,1.66681 -1.49462,2.67115 l 0.0786,1.98624 c 0,1.05039 -0.30847,1.861 -0.92432,2.43137 -0.61639,0.57096 -1.42284,0.85608 -2.41908,0.85608 -0.97053,0 -1.76393,-0.2964 -2.37979,-0.89038 -0.61639,-0.5934 -0.92431,-1.40401 -0.92431,-2.43137 0,-1.96322 1.15353,-3.76701 3.46139,-5.41079 2.3072,-1.64378 5.54618,-2.46567 9.7156,-2.46567 3.19902,0 5.82148,0.46815 7.86683,1.404 1.54697,0.70794 2.68772,1.81496 3.42211,3.32176 0.47202,0.98189 0.70802,2.99104 0.70802,6.0272 v 10.65017 c 0,2.99116 0.0651,4.82333 0.19672,5.49649 0.13092,0.67363 0.34722,1.1247 0.64902,1.35261 0.30127,0.2285 0.64902,0.34246 1.04232,0.34246 0.41914,0 0.78674,-0.0798 1.10146,-0.23978 0.55073,-0.29641 1.61263,-1.13016 3.1861,-2.49986 v 1.91763 c -2.93731,3.42478 -5.74302,5.13706 -8.41769,5.13706 z"
           id="path37"
           inkscape:connector-curvature="0"
           style="fill:#b3b3b3" />
      </g>
    </g>
  </g>
</svg>
