<?xml version="1.0" encoding="UTF-8" standalone="no"?>
<!-- Generator: Adobe Illustrator 15.0.0, SVG Export Plug-In . SVG Version: 6.00 Build 0)  -->

<svg
   xmlns:dc="http://purl.org/dc/elements/1.1/"
   xmlns:cc="http://creativecommons.org/ns#"
   xmlns:rdf="http://www.w3.org/1999/02/22-rdf-syntax-ns#"
   xmlns:svg="http://www.w3.org/2000/svg"
   xmlns="http://www.w3.org/2000/svg"
   xmlns:xlink="http://www.w3.org/1999/xlink"
   xmlns:sodipodi="http://sodipodi.sourceforge.net/DTD/sodipodi-0.dtd"
   xmlns:inkscape="http://www.inkscape.org/namespaces/inkscape"
   version="1.1"
   id="Layer_1"
   inkscape:version="0.91 r13725"
   sodipodi:docname="find_sel.svg"
   x="0px"
   y="0px"
   width="512"
   height="512"
   viewBox="0 0 512.00001 512.00001"
   enable-background="new 0 0 489.309 494.244"
   xml:space="preserve"><metadata
     id="metadata16"><rdf:RDF><cc:Work
         rdf:about=""><dc:format>image/svg+xml</dc:format><dc:type
           rdf:resource="http://purl.org/dc/dcmitype/StillImage" /></cc:Work></rdf:RDF></metadata><defs
     id="defs3"><inkscape:perspective
       sodipodi:type="inkscape:persp3d"
       inkscape:vp_x="0 : 247.12199 : 1"
       inkscape:vp_y="0 : 1000 : 0"
       inkscape:vp_z="489.31 : 247.12199 : 1"
       id="perspective248"
       inkscape:persp3d-origin="244.655 : 164.748 : 1" /><inkscape:perspective
       sodipodi:type="inkscape:persp3d"
       inkscape:vp_x="0 : 24 : 1"
       inkscape:vp_y="0 : 1000 : 0"
       inkscape:vp_z="48 : 24 : 1"
       id="perspective3079"
       inkscape:persp3d-origin="24 : 16 : 1" /><inkscape:perspective
       id="perspective3127"
       inkscape:persp3d-origin="372.04724 : 350.78739 : 1"
       inkscape:vp_z="744.09448 : 526.18109 : 1"
       inkscape:vp_y="0 : 1000 : 0"
       inkscape:vp_x="0 : 526.18109 : 1"
       sodipodi:type="inkscape:persp3d" /><inkscape:perspective
       sodipodi:type="inkscape:persp3d"
       inkscape:vp_x="0 : 0.5 : 1"
       inkscape:vp_y="0 : 1000 : 0"
       inkscape:vp_z="1 : 0.5 : 1"
       inkscape:persp3d-origin="0.5 : 0.33333333 : 1"
       id="perspective3073" /><linearGradient
       id="G1-6-5-0"><stop
         offset="0"
         style="stop-color:#59a40f;stop-opacity:1"
         id="s1-3-2" /><stop
         offset="1"
         style="stop-color:#306102;stop-opacity:1"
         id="s2-9-9" /></linearGradient><radialGradient
       r="12.011442"
       fy="32.026119"
       fx="33.921108"
       cy="32.026119"
       cx="33.921108"
       gradientTransform="matrix(1.097181,-0.06040066,0.05995679,1.0724194,-4.5150948,1.1399226)"
       gradientUnits="userSpaceOnUse"
       id="radialGradient3059"
       xlink:href="#G4-0"
       inkscape:collect="always" /><linearGradient
       id="G4-0"><stop
         offset="0"
         style="stop-color:#d50f0f;stop-opacity:1"
         id="s7-3" /><stop
         offset="1"
         style="stop-color:#860000;stop-opacity:1"
         id="s8-9" /></linearGradient><radialGradient
       r="12.011442"
       fy="25.064268"
       fx="22.505642"
       cy="30.310101"
       cx="25.346392"
       gradientTransform="matrix(0.7893072,0.4930809,-0.2597058,0.4157284,13.532895,6.7682)"
       gradientUnits="userSpaceOnUse"
       id="radialGradient3061"
       xlink:href="#G2-9"
       inkscape:collect="always" /><linearGradient
       id="G2-9"><stop
         offset="0"
         style="stop-color:#fff;stop-opacity:1"
         id="s3-69" /><stop
         offset="1"
         style="stop-color:#fff;stop-opacity:0"
         id="s4-33" /></linearGradient><linearGradient
       y2="23.322678"
       x2="22.733898"
       y1="46.025867"
       x1="42.550949"
       gradientTransform="translate(0.28382124,1.5794635)"
       gradientUnits="userSpaceOnUse"
       id="linearGradient3063"
       xlink:href="#G4-0"
       inkscape:collect="always" /><radialGradient
       r="12.289036"
       fy="60.043758"
       fx="13.292242"
       cy="63.965389"
       cx="15.115514"
       gradientTransform="matrix(1.1562307,0.05007445,-0.03237903,0.73690732,5.7106611,995.05931)"
       gradientUnits="userSpaceOnUse"
       id="radialGradient4124"
       xlink:href="#G5"
       inkscape:collect="always" /><linearGradient
       id="G5"><stop
         offset="0"
         style="stop-color:#000;stop-opacity:1"
         id="s9" /><stop
         offset="1"
         style="stop-color:#000;stop-opacity:0"
         id="s10" /></linearGradient><radialGradient
       r="12.289036"
       fy="63.965389"
       fx="15.115514"
       cy="63.965389"
       cx="15.115514"
       gradientTransform="matrix(1.0486065,0.04541342,-0.02992369,0.68102682,6.9899093,-6.6725099)"
       gradientUnits="userSpaceOnUse"
       id="radialGradient4122"
       xlink:href="#G5"
       inkscape:collect="always" /><radialGradient
       inkscape:collect="always"
       xlink:href="#G5"
       id="radialGradient3117"
       gradientUnits="userSpaceOnUse"
       gradientTransform="matrix(1.1346481,0.04913974,-0.03237903,0.73690732,2.4057922,994.13075)"
       cx="15.115514"
       cy="63.965389"
       fx="15.115514"
       fy="63.965389"
       r="12.289036" /><inkscape:perspective
       sodipodi:type="inkscape:persp3d"
       inkscape:vp_x="0 : 0.5 : 1"
       inkscape:vp_y="0 : 1000 : 0"
       inkscape:vp_z="1 : 0.5 : 1"
       inkscape:persp3d-origin="0.5 : 0.33333333 : 1"
       id="perspective3235" /><inkscape:perspective
       sodipodi:type="inkscape:persp3d"
       inkscape:vp_x="0 : 0.5 : 1"
       inkscape:vp_y="0 : 1000 : 0"
       inkscape:vp_z="1 : 0.5 : 1"
       inkscape:persp3d-origin="0.5 : 0.33333333 : 1"
       id="perspective3306" /><inkscape:perspective
       sodipodi:type="inkscape:persp3d"
       inkscape:vp_x="0 : 0.5 : 1"
       inkscape:vp_y="0 : 1000 : 0"
       inkscape:vp_z="1 : 0.5 : 1"
       inkscape:persp3d-origin="0.5 : 0.33333333 : 1"
       id="perspective3464" /><inkscape:perspective
       sodipodi:type="inkscape:persp3d"
       inkscape:vp_x="0 : 0.5 : 1"
       inkscape:vp_y="0 : 1000 : 0"
       inkscape:vp_z="1 : 0.5 : 1"
       inkscape:persp3d-origin="0.5 : 0.33333333 : 1"
       id="perspective3486" /></defs><sodipodi:namedview
     pagecolor="#ffffff"
     inkscape:zoom="0.47749696"
     inkscape:cx="143.21065"
     bordercolor="#666666"
     guidetolerance="10"
     showgrid="false"
     gridtolerance="10"
     inkscape:cy="255.62797"
     objecttolerance="10"
     borderopacity="1"
     id="namedview242"
     inkscape:window-height="747"
     inkscape:pageshadow="2"
     inkscape:pageopacity="0"
     inkscape:current-layer="Layer_1"
     inkscape:window-y="0"
     inkscape:window-x="0"
     inkscape:window-width="1366"
     inkscape:window-maximized="1"
     fit-margin-top="0"
     fit-margin-left="0"
     fit-margin-right="0"
     fit-margin-bottom="0" /><path
     d="M 183.504,53.754001 C 113.754,53.754001 57.008,110.5 57.008,180.25 c 0,69.75 56.746,126.496 126.496,126.496 69.75,0 126.497,-56.746 126.497,-126.496 0,-69.75 -56.747,-126.495999 -126.497,-126.495999 z"
     id="path8"
     inkscape:connector-curvature="0"
     style="fill:none" /><path
     d="M 497.368,450.74 390.014,343.387 c -2.964,-2.964 -6.85,-4.446 -10.735,-4.446 -3.885,0 -7.771,1.482 -10.735,4.446 l -0.588,0.587 -53.623,-53.623 c 25.061,-29.749 40.171,-68.158 40.171,-110.101 0,-94.440999 -76.56,-170.9999984 -171,-170.9999984 -94.441,0 -171,76.5589994 -171,170.9999984 0,94.44 76.559,171 171,171 39.527,0 75.917,-13.418 104.877,-35.939 l 54.119,54.119 -0.795,0.795 c -5.929,5.931 -5.929,15.542 0,21.472 L 449.057,499.05 c 2.966,2.964 6.852,4.446 10.737,4.446 3.885,0 7.771,-1.482 10.735,-4.446 l 26.838,-26.838 c 5.93,-5.929 5.93,-15.544 10e-4,-21.472 z M 183.504,315.25 c -74.559,0 -135,-60.441 -135,-135 0,-74.559 60.441,-134.999999 135,-134.999999 74.559,0 135,60.440999 135,134.999999 0,74.559 -60.441,135 -135,135 z"
     id="path10"
     inkscape:connector-curvature="0" /><path
     d="M 503.379,444.726 396.028,337.374 c -4.473,-4.474 -10.422,-6.938 -16.749,-6.938 -3.676,0 -7.224,0.831 -10.429,2.405 l -43.103,-43.103 c 11.011,-14.273 19.754,-30.017 26.039,-46.899 7.446,-20.004 11.222,-41.063 11.222,-62.59 0,-24.229 -4.747,-47.738 -14.11,-69.874 -9.041,-21.375999 -21.983,-40.571999 -38.466,-57.054999 -16.482,-16.482 -35.679,-29.424 -57.055,-38.465 C 231.242,5.4930016 207.733,0.74600165 183.504,0.74600165 c -24.229,0 -47.738,4.74699995 -69.874,14.10999935 -21.376,9.041 -40.572,21.983 -57.055,38.465 C 40.093,69.804001 27.151,89.000001 18.11,110.376 8.747,132.512 4,156.021 4,180.25 c 0,24.229 4.747,47.738 14.11,69.874 9.041,21.376 21.983,40.573 38.465,57.055 16.483,16.482 35.679,29.424 57.055,38.466 22.135,9.362 45.645,14.109 69.874,14.109 20.294,0 40.214,-3.364 59.207,-10 15.991,-5.587 31.048,-13.389 44.854,-23.233 l 43.742,43.742 c -4.489,8.887 -3.027,20.033 4.385,27.446 l 107.352,107.353 c 4.478,4.475 10.426,6.938 16.751,6.938 6.326,0 12.273,-2.464 16.747,-6.936 l 26.84,-26.84 c 4.473,-4.472 6.938,-10.42 6.938,-16.748 0,-6.328 -2.466,-12.277 -6.941,-16.75 z m -43.584,58.769 c -3.886,0 -7.771,-1.482 -10.737,-4.446 L 341.706,391.696 c -5.929,-5.93 -5.929,-15.541 0,-21.472 l 0.795,-0.795 -54.119,-54.119 c -28.961,22.522 -65.351,35.94 -104.878,35.94 -94.441,0 -171,-76.56 -171,-171 0,-94.440999 76.559,-170.9999984 171,-170.9999984 94.44,0 171,76.5589994 171,170.9999984 0,41.943 -15.11,80.352 -40.172,110.101 l 53.623,53.623 0.588,-0.587 c 2.964,-2.964 6.85,-4.446 10.735,-4.446 3.885,0 7.771,1.482 10.735,4.446 L 497.368,450.74 c 5.93,5.928 5.93,15.543 0,21.471 l -26.838,26.838 c -2.965,2.964 -6.85,4.446 -10.735,4.446 z"
     id="path12"
     inkscape:connector-curvature="0"
     style="fill:#b3b3b3" /><path
     d="m 183.504,45.250001 c -74.559,0 -135,60.440999 -135,134.999999 0,74.559 60.441,135 135,135 74.559,0 135,-60.441 135,-135 0,-74.559 -60.441,-134.999999 -135,-134.999999 z m 0,261.495999 C 113.754,306.746 57.008,250 57.008,180.25 c 0,-69.75 56.746,-126.495999 126.496,-126.495999 69.75,0 126.497,56.745999 126.497,126.495999 0,69.75 -56.747,126.496 -126.497,126.496 z"
     id="path14"
     inkscape:connector-curvature="0"
     style="fill:#b3b3b3" /><g
     transform="matrix(3.7852655,0,0,3.384528,100.12836,-3309.467)"
     id="layer1"
     inkscape:label="Layer 1"><path
       d="m 31.429174,1042.6141 c -0.218256,5.0022 -6.639723,8.7873 -14.341717,8.4538 -7.7019939,-0.3336 -13.7670658,-4.6595 -13.5457438,-9.6616 0.218255,-5.0022 6.6397238,-8.7874 14.3417158,-8.4538 7.701994,0.3336 13.767067,4.6595 13.545745,9.6616 l 0,0 z"
       id="path30"
       style="fill:url(#radialGradient3117)"
       inkscape:connector-curvature="0" /><path
       d="m 35.325501,1043.5682 c -0.218227,5.0022 -6.758449,8.7822 -14.606944,8.4423 -7.848497,-0.3399 -14.032324,-4.671 -13.8109738,-9.673 0.2182275,-5.0022 6.7584498,-8.7822 14.6069458,-8.4423 7.848495,0.3399 14.032324,4.671 13.810972,9.673 l 0,0 z"
       id="path32"
       style="fill:url(#radialGradient4124)"
       inkscape:connector-curvature="0" /><g
       id="cherry2"
       transform="matrix(1.2846675,0.05563683,-0.05688801,1.294702,-15.32258,984.94165)"><path
         style="fill:url(#radialGradient3059);stroke:#520000;stroke-width:1"
         id="p5"
         d="m 42.021325,38.735182 c -2.279722,6.288872 -8.636377,11.670921 -14.976424,9.411231 -6.70613,-0.642133 -10.13411,-8.200552 -9.485159,-14.85215 0.72889,-7.470957 6.639519,-10.416091 14.793381,-8.602451 8.153861,1.813641 12.228746,6.979824 9.668202,14.04337 z"
         inkscape:connector-curvature="0" /><path
         style="opacity:0.66000001;fill:url(#radialGradient3061);stroke:#520000;stroke-width:1"
         id="p6"
         d="m 41.995025,38.724258 c -2.277279,6.295786 -8.627121,11.683751 -14.960373,9.421577 -6.698943,-0.642839 -10.123249,-8.209567 -9.474994,-14.868477 0.728109,-7.47917 6.632404,-10.427541 14.777527,-8.611908 8.145122,1.815635 12.21564,6.987497 9.65784,14.058808 z"
         inkscape:connector-curvature="0" /><path
         style="fill:none;stroke:url(#linearGradient3063);stroke-width:1"
         id="p7"
         d="m 26.860256,25.276851 c -3.07205,0.155699 -5.787765,1.525561 -7.161646,4.252889 -2.536789,5.035851 -0.534722,11.521311 1.70598,14.298856 2.676736,3.324223 4.934282,3.044001 6.227098,3.37753 C 31.98885,48.626804 36.499841,46.13494 39.35924,41.601151 44.142636,34.01672 41.126134,28.919644 34.880189,26.51358 32.383871,25.551948 29.61338,25.137315 26.860256,25.276851 Z"
         inkscape:connector-curvature="0" /><path
         style="fill:none;stroke:#520000;stroke-width:1"
         id="p8"
         d="m 28.22429,26.01175 c -0.601384,3.336063 4.88838,5.213413 6.335518,2.000743"
         inkscape:connector-curvature="0" /></g><path
       sodipodi:nodetypes="ccccccccc"
       id="stem"
       d="m 38.309689,1005.9357 c -0.242021,-0.016 -0.518013,-0.037 -0.794517,-0.032 -4.953086,5.8834 -10.588897,11.1259 -16.251328,16.3417 0.425785,0.9105 1.247114,1.0829 2.352255,1.1304 l 6.53591,-6.5438 c 3.162588,-2.8697 6.022094,-5.1403 7.278558,-6.921 0.673327,-0.929 1.445991,-1.9118 2.506397,-3.0289 -0.359151,-0.663 -0.902941,-0.8824 -1.627286,-0.9462 l 1.1e-5,-2e-4 z"
       style="fill:#4e9a06;stroke:#275000;stroke-width:0.77096552"
       inkscape:connector-curvature="0" /></g></svg>