<?xml version="1.0" encoding="utf-8"?>
<!-- Generator: Adobe Illustrator 15.0.0, SVG Export Plug-In . SVG Version: 6.00 Build 0)  -->
<!DOCTYPE svg PUBLIC "-//W3C//DTD SVG 1.1//EN" "http://www.w3.org/Graphics/SVG/1.1/DTD/svg11.dtd">
<svg version="1.1"
	 id="Layer_1" xmlns:dc="http://purl.org/dc/elements/1.1/" xmlns:cc="http://creativecommons.org/ns#" xmlns:rdf="http://www.w3.org/1999/02/22-rdf-syntax-ns#" xmlns:svg="http://www.w3.org/2000/svg" xmlns:sodipodi="http://sodipodi.sourceforge.net/DTD/sodipodi-0.dtd" xmlns:inkscape="http://www.inkscape.org/namespaces/inkscape" inkscape:version="0.48.3.1 r9886" sodipodi:docname="format-text-large.svg"
	 xmlns="http://www.w3.org/2000/svg" xmlns:xlink="http://www.w3.org/1999/xlink" x="0px" y="0px" width="489.309px"
	 height="494.244px" viewBox="0 0 489.309 494.244" enable-background="new 0 0 489.309 494.244" xml:space="preserve">
<defs>
	
	
		<inkscape:perspective  sodipodi:type="inkscape:persp3d" inkscape:vp_x="0 : 247.12199 : 1" inkscape:vp_y="0 : 1000 : 0" inkscape:vp_z="489.31 : 247.12199 : 1" id="perspective248" inkscape:persp3d-origin="244.655 : 164.748 : 1">
		</inkscape:perspective>
	
		<inkscape:perspective  sodipodi:type="inkscape:persp3d" inkscape:vp_x="0 : 24 : 1" inkscape:vp_y="0 : 1000 : 0" inkscape:vp_z="48 : 24 : 1" id="perspective3079" inkscape:persp3d-origin="24 : 16 : 1">
		</inkscape:perspective>
</defs>
<sodipodi:namedview  pagecolor="#ffffff" inkscape:zoom="0.47749696" inkscape:cx="248.84351" bordercolor="#666666" guidetolerance="10" showgrid="false" gridtolerance="10" inkscape:cy="247.12199" objecttolerance="10" borderopacity="1" id="namedview242" inkscape:window-height="778" inkscape:pageshadow="2" inkscape:pageopacity="0" inkscape:current-layer="Layer_1" inkscape:window-y="0" inkscape:window-x="50" inkscape:window-width="1230" inkscape:window-maximized="1">
	</sodipodi:namedview>
<path fill="#1A1A1A" d="M251.395,190.363c-5.979-9.876-14.865-17.992-26.667-24.343c-11.802-6.35-25.043-9.525-39.718-9.525
	c-28.597,0-53.187,14.024-73.763,42.071V55.949H47.47v387.896h63.776V303.081c0-23.636,1.929-41.496,5.788-53.581
	c3.858-12.08,9.947-21.122,18.271-27.121c8.32-5.995,17.777-8.996,28.37-8.996c9.228,0,16.909,2.34,23.037,7.012
	c6.128,4.676,10.401,10.981,12.824,18.918c2.418,7.938,3.631,26.637,3.631,56.094v148.438h63.776V279.003
	c0-25.224-1.1-43.832-3.291-55.83C261.457,211.18,257.372,200.245,251.395,190.363z"/>
<path fill="#B3B3B3" d="M272.017,221.646c-2.372-12.958-6.861-24.963-13.346-35.684c-6.752-11.154-16.816-20.382-29.915-27.43
	c-12.999-6.994-27.718-10.541-43.748-10.541c-24.426,0-46.297,9.316-65.259,27.75V55.949c0-4.696-3.807-8.504-8.504-8.504H47.47
	c-4.697,0-8.504,3.808-8.504,8.504v387.896c0,4.696,3.807,8.504,8.504,8.504h63.776c4.697,0,8.504-3.808,8.504-8.504V303.081
	c0-22.646,1.812-39.804,5.385-50.994c3.275-10.253,8.369-17.927,15.142-22.809c6.902-4.973,14.556-7.391,23.398-7.391
	c7.38,0,13.229,1.724,17.881,5.271c4.717,3.599,7.938,8.388,9.846,14.638c1.487,4.88,3.261,18.147,3.261,53.611v148.438
	c0,4.696,3.807,8.504,8.504,8.504h63.776c4.696,0,8.504-3.808,8.504-8.504V279.003C275.447,253.041,274.325,234.279,272.017,221.646
	z M199.535,239.313c-2.422-7.938-6.696-14.243-12.824-18.918c-6.128-4.672-13.809-7.012-23.037-7.012
	c-10.593,0-20.05,3.001-28.37,8.996c-8.323,5.999-14.412,15.041-18.271,27.121c-3.858,12.085-5.788,29.945-5.788,53.581v140.765
	H47.47V55.949h63.776v142.617c20.576-28.047,45.166-42.071,73.763-42.071c14.675,0,27.917,3.175,39.718,9.525
	c11.802,6.351,20.689,14.466,26.667,24.343c5.977,9.881,10.062,20.816,12.257,32.81c2.191,11.998,3.291,30.606,3.291,55.83v164.843
	h-63.776V295.407C203.167,265.95,201.954,247.251,199.535,239.313z"/>
<path fill="#1A1A1A" d="M379.842,278.166c-11.192,8.945-21.562,15.021-31.105,18.225v34.048
	c18.134-6.143,33.882-15.622,47.244-28.44v141.397h36.571V246.855h-29.674C398.714,258.784,391.036,269.22,379.842,278.166z"/>
<path fill="#B3B3B3" d="M432.552,238.351h-29.674c-3.616,0-6.837,2.287-8.028,5.701c-3.609,10.337-10.444,19.581-20.317,27.471
	c-10.359,8.28-19.949,13.934-28.503,16.806c-3.463,1.162-5.797,4.408-5.797,8.062v34.048c0,2.741,1.321,5.313,3.549,6.911
	c1.463,1.049,3.2,1.593,4.956,1.593c0.916,0,1.837-0.148,2.728-0.449c13.113-4.442,25.167-10.603,36.012-18.389v123.291
	c0,4.696,3.808,8.504,8.504,8.504h36.571c4.696,0,8.504-3.808,8.504-8.504V246.855C441.056,242.158,437.249,238.351,432.552,238.351
	z M348.737,330.438v-34.048c9.544-3.204,19.913-9.279,31.105-18.225c11.193-8.946,18.872-19.382,23.036-31.311h29.674v196.541
	h-36.571V301.998C382.619,314.816,366.871,324.296,348.737,330.438z"/>
</svg>
