<?xml version="1.0" encoding="utf-8"?>
<!-- Generator: Adobe Illustrator 15.0.0, SVG Export Plug-In . SVG Version: 6.00 Build 0)  -->
<!DOCTYPE svg PUBLIC "-//W3C//DTD SVG 1.1//EN" "http://www.w3.org/Graphics/SVG/1.1/DTD/svg11.dtd">
<svg version="1.1"
	 id="Layer_1" xmlns:dc="http://purl.org/dc/elements/1.1/" xmlns:cc="http://creativecommons.org/ns#" xmlns:rdf="http://www.w3.org/1999/02/22-rdf-syntax-ns#" xmlns:svg="http://www.w3.org/2000/svg" xmlns:sodipodi="http://sodipodi.sourceforge.net/DTD/sodipodi-0.dtd" xmlns:inkscape="http://www.inkscape.org/namespaces/inkscape" inkscape:version="0.48.3.1 r9886" sodipodi:docname="format-text-large2.svg"
	 xmlns="http://www.w3.org/2000/svg" xmlns:xlink="http://www.w3.org/1999/xlink" x="0px" y="0px" width="489.309px"
	 height="494.244px" viewBox="0 0 489.309 494.244" enable-background="new 0 0 489.309 494.244" xml:space="preserve">
<defs>
	
	
		<inkscape:perspective  sodipodi:type="inkscape:persp3d" inkscape:vp_x="0 : 247.12199 : 1" inkscape:vp_y="0 : 1000 : 0" inkscape:vp_z="489.31 : 247.12199 : 1" id="perspective248" inkscape:persp3d-origin="244.655 : 164.748 : 1">
		</inkscape:perspective>
	
		<inkscape:perspective  sodipodi:type="inkscape:persp3d" inkscape:vp_x="0 : 24 : 1" inkscape:vp_y="0 : 1000 : 0" inkscape:vp_z="48 : 24 : 1" id="perspective3079" inkscape:persp3d-origin="24 : 16 : 1">
		</inkscape:perspective>
</defs>
<sodipodi:namedview  pagecolor="#ffffff" inkscape:zoom="0.47749696" inkscape:cx="248.84351" bordercolor="#666666" guidetolerance="10" showgrid="false" gridtolerance="10" inkscape:cy="247.12199" objecttolerance="10" borderopacity="1" id="namedview242" inkscape:window-height="778" inkscape:pageshadow="2" inkscape:pageopacity="0" inkscape:current-layer="Layer_1" inkscape:window-y="0" inkscape:window-x="50" inkscape:window-width="1230" inkscape:window-maximized="1">
	</sodipodi:namedview>
<path fill="#1A1A1A" d="M251.395,190.363c-5.979-9.876-14.865-17.992-26.667-24.343c-11.802-6.35-25.043-9.525-39.718-9.525
	c-28.597,0-53.187,14.024-73.763,42.071V55.949H47.47v387.896h63.776V303.081c0-23.636,1.929-41.496,5.788-53.581
	c3.858-12.08,9.947-21.122,18.271-27.121c8.32-5.995,17.777-8.996,28.37-8.996c9.228,0,16.909,2.34,23.037,7.012
	c6.128,4.676,10.401,10.981,12.824,18.918c2.418,7.938,3.631,26.637,3.631,56.094v148.438h63.776V279.003
	c0-25.224-1.1-43.832-3.291-55.83C261.457,211.18,257.372,200.245,251.395,190.363z"/>
<path fill="#B3B3B3" d="M272.017,221.646c-2.372-12.958-6.861-24.963-13.346-35.684c-6.752-11.154-16.816-20.382-29.915-27.43
	c-12.999-6.994-27.718-10.541-43.748-10.541c-24.426,0-46.297,9.316-65.259,27.75V55.949c0-4.696-3.807-8.504-8.504-8.504H47.47
	c-4.697,0-8.504,3.808-8.504,8.504v387.896c0,4.696,3.807,8.504,8.504,8.504h63.776c4.697,0,8.504-3.808,8.504-8.504V303.081
	c0-22.646,1.812-39.804,5.385-50.994c3.275-10.253,8.369-17.927,15.142-22.809c6.902-4.973,14.556-7.391,23.398-7.391
	c7.38,0,13.229,1.724,17.881,5.271c4.717,3.599,7.938,8.388,9.846,14.638c1.487,4.88,3.261,18.147,3.261,53.611v148.438
	c0,4.696,3.807,8.504,8.504,8.504h63.776c4.696,0,8.504-3.808,8.504-8.504V279.003C275.447,253.041,274.325,234.279,272.017,221.646
	z M199.535,239.313c-2.422-7.938-6.696-14.243-12.824-18.918c-6.128-4.672-13.809-7.012-23.037-7.012
	c-10.593,0-20.05,3.001-28.37,8.996c-8.323,5.999-14.412,15.041-18.271,27.121c-3.858,12.085-5.788,29.945-5.788,53.581v140.765
	H47.47V55.949h63.776v142.617c20.576-28.047,45.166-42.071,73.763-42.071c14.675,0,27.917,3.175,39.718,9.525
	c11.802,6.351,20.689,14.466,26.667,24.343c5.977,9.881,10.062,20.816,12.257,32.81c2.191,11.998,3.291,30.606,3.291,55.83v164.843
	h-63.776V295.407C203.167,265.95,201.954,247.251,199.535,239.313z"/>
<path fill="#1A1A1A" d="M385.205,398.02c2.271-3.521,7.665-10.655,16.179-21.402c8.513-10.745,14.403-18.979,17.668-24.705
	c4.928-8.631,8.529-16.889,10.802-24.771c2.271-7.882,3.409-16.185,3.409-24.904c0-15.325-3.971-28.14-11.907-38.445
	c-7.938-10.305-18.853-15.457-32.742-15.457c-12.675,0-23.236,4.448-31.687,13.344c-8.449,8.896-13.476,23.562-15.075,43.994
	l26.886,3.699c0.512-10.834,2.432-18.583,5.762-23.252c3.327-4.668,7.809-7.003,13.442-7.003c5.696,0,10.161,2.226,13.395,6.672
	c3.231,4.449,4.849,10.813,4.849,19.091c0,7.487-1.857,15.061-5.568,22.724c-2.753,5.549-10.211,16.118-22.373,31.708
	c-15.107,19.288-25.222,34.769-30.342,46.438c-5.122,11.672-8.194,24.024-9.218,37.059h94.579v-34.482h-53.579
	C381.09,404.979,382.931,401.544,385.205,398.02z"/>
<path fill="#B3B3B3" d="M433.262,399.82h-38.975c2.269-3.161,6.371-8.593,13.762-17.923c8.868-11.193,14.883-19.624,18.39-25.773
	c5.238-9.175,9.137-18.136,11.585-26.628c2.483-8.616,3.742-17.787,3.742-27.26c0-17.172-4.601-31.853-13.674-43.634
	c-9.595-12.457-22.878-18.772-39.479-18.772c-15.037,0-27.772,5.38-37.853,15.991c-9.927,10.452-15.614,26.542-17.387,49.187
	c-0.352,4.489,2.857,8.475,7.318,9.089l26.886,3.699c0.387,0.053,0.774,0.079,1.159,0.079c1.974,0,3.899-0.688,5.436-1.964
	c1.836-1.526,2.946-3.754,3.059-6.139c0.565-11.964,2.868-16.861,4.191-18.715c1.74-2.442,3.628-3.438,6.519-3.438
	c2.991,0,4.88,0.918,6.517,3.17c2.107,2.9,3.223,7.774,3.223,14.089c0,6.142-1.582,12.527-4.7,18.979
	c-1.726,3.464-6.852,11.518-21.442,30.222c-15.683,20.022-25.965,35.811-31.424,48.251c-5.481,12.49-8.815,25.885-9.908,39.81
	c-0.186,2.364,0.624,4.698,2.233,6.439c1.609,1.74,3.873,2.73,6.244,2.73h94.579c4.696,0,8.504-3.808,8.504-8.504v-34.482
	C441.766,403.628,437.958,399.82,433.262,399.82z M406.184,304.879c0-8.277-1.617-14.642-4.849-19.091
	c-3.233-4.446-7.698-6.672-13.395-6.672c-5.634,0-10.115,2.335-13.442,7.003c-3.33,4.669-5.25,12.418-5.762,23.252l-26.886-3.699
	c1.6-20.433,6.626-35.098,15.075-43.994c8.45-8.896,19.012-13.344,31.687-13.344c13.89,0,24.805,5.152,32.742,15.457
	c7.937,10.306,11.907,23.12,11.907,38.445c0,8.72-1.138,17.022-3.409,24.904c-2.272,7.883-5.874,16.141-10.802,24.771
	c-3.265,5.726-9.155,13.96-17.668,24.705c-8.514,10.747-13.907,17.881-16.179,21.402c-2.273,3.524-4.114,6.959-5.521,10.305h53.579
	v34.482h-94.579c1.023-13.034,4.096-25.387,9.218-37.059c5.12-11.669,15.234-27.149,30.342-46.438
	c12.162-15.59,19.62-26.159,22.373-31.708C404.327,319.939,406.184,312.366,406.184,304.879z"/>
</svg>
