<?xml version="1.0" encoding="utf-8"?>
<!-- Generator: Adobe Illustrator 15.0.0, SVG Export Plug-In . SVG Version: 6.00 Build 0)  -->
<!DOCTYPE svg PUBLIC "-//W3C//DTD SVG 1.1//EN" "http://www.w3.org/Graphics/SVG/1.1/DTD/svg11.dtd">
<svg version="1.1"
	 id="Layer_1" xmlns:dc="http://purl.org/dc/elements/1.1/" xmlns:cc="http://creativecommons.org/ns#" xmlns:rdf="http://www.w3.org/1999/02/22-rdf-syntax-ns#" xmlns:svg="http://www.w3.org/2000/svg" xmlns:sodipodi="http://sodipodi.sourceforge.net/DTD/sodipodi-0.dtd" xmlns:inkscape="http://www.inkscape.org/namespaces/inkscape" inkscape:version="0.48.3.1 r9886" sodipodi:docname="format-text-large3.svg"
	 xmlns="http://www.w3.org/2000/svg" xmlns:xlink="http://www.w3.org/1999/xlink" x="0px" y="0px" width="489.309px"
	 height="494.244px" viewBox="0 0 489.309 494.244" enable-background="new 0 0 489.309 494.244" xml:space="preserve">
<inkscape:perspective  sodipodi:type="inkscape:persp3d" inkscape:vp_x="0 : 247.12199 : 1" inkscape:vp_y="0 : 1000 : 0" inkscape:vp_z="489.31 : 247.12199 : 1" id="perspective248" inkscape:persp3d-origin="244.655 : 164.748 : 1">
	</inkscape:perspective>
<inkscape:perspective  sodipodi:type="inkscape:persp3d" inkscape:vp_x="0 : 24 : 1" inkscape:vp_y="0 : 1000 : 0" inkscape:vp_z="48 : 24 : 1" id="perspective3079" inkscape:persp3d-origin="24 : 16 : 1">
	</inkscape:perspective>
<path fill="#1A1A1A" d="M251.395,190.363c-5.979-9.876-14.865-17.992-26.667-24.343c-11.802-6.35-25.043-9.525-39.718-9.525
	c-28.597,0-53.187,14.024-73.763,42.071V55.949H47.47v387.896h63.776V303.081c0-23.636,1.929-41.496,5.788-53.581
	c3.858-12.08,9.947-21.122,18.271-27.121c8.32-5.995,17.777-8.996,28.37-8.996c9.228,0,16.909,2.34,23.037,7.012
	c6.128,4.676,10.401,10.981,12.824,18.918c2.418,7.938,3.631,26.637,3.631,56.094v148.438h63.776V279.003
	c0-25.224-1.1-43.832-3.291-55.83C261.457,211.18,257.372,200.245,251.395,190.363z"/>
<path fill="#B3B3B3" d="M272.017,221.646c-2.372-12.958-6.861-24.963-13.346-35.684c-6.752-11.154-16.816-20.382-29.915-27.43
	c-12.999-6.994-27.718-10.541-43.748-10.541c-24.426,0-46.297,9.316-65.259,27.75V55.949c0-4.696-3.807-8.504-8.504-8.504H47.47
	c-4.697,0-8.504,3.808-8.504,8.504v387.896c0,4.696,3.807,8.504,8.504,8.504h63.776c4.697,0,8.504-3.808,8.504-8.504V303.081
	c0-22.646,1.812-39.804,5.385-50.994c3.275-10.253,8.369-17.927,15.142-22.809c6.902-4.973,14.556-7.391,23.398-7.391
	c7.38,0,13.229,1.724,17.881,5.271c4.717,3.599,7.938,8.388,9.846,14.638c1.487,4.88,3.261,18.147,3.261,53.611v148.438
	c0,4.696,3.807,8.504,8.504,8.504h63.776c4.696,0,8.504-3.808,8.504-8.504V279.003C275.447,253.041,274.325,234.279,272.017,221.646
	z M199.535,239.313c-2.422-7.938-6.696-14.243-12.824-18.918c-6.128-4.672-13.809-7.012-23.037-7.012
	c-10.593,0-20.05,3.001-28.37,8.996c-8.323,5.999-14.412,15.041-18.271,27.121c-3.858,12.085-5.788,29.945-5.788,53.581v140.765
	H47.47V55.949h63.776v142.617c20.576-28.047,45.166-42.071,73.763-42.071c14.675,0,27.917,3.175,39.718,9.525
	c11.802,6.351,20.689,14.466,26.667,24.343c5.977,9.881,10.062,20.816,12.257,32.81c2.191,11.998,3.291,30.606,3.291,55.83v164.843
	h-63.776V295.407C203.167,265.95,201.954,247.251,199.535,239.313z"/>
<path fill="#1A1A1A" d="M432.384,355.585c-5.104-8.133-11.913-13.369-20.429-15.706c14.26-9.95,21.392-23.276,21.392-39.979
	c0-11.767-3.482-22.325-10.442-31.671c-8.45-11.423-19.669-17.134-33.659-17.134c-8.179,0-15.563,1.97-22.152,5.906
	c-6.59,3.938-11.728,9.346-15.411,16.225c-3.685,6.88-6.438,16.075-8.263,27.583l26.259,5.711
	c0.743-8.308,2.839-14.623,6.286-18.951c3.446-4.325,7.604-6.489,12.47-6.489c4.934,0,8.887,1.904,11.862,5.711
	c2.974,3.809,4.461,8.913,4.461,15.316c0,7.528-2.028,13.563-6.083,18.107c-3.836,4.297-9.305,6.446-16.407,6.446
	c-0.406,0-0.817-0.008-1.234-0.021l-3.143,29.725c5.069-1.817,9.429-2.727,13.079-2.727c5.541,0,10.239,2.684,14.092,8.048
	c3.853,5.366,5.779,12.636,5.779,21.807c0,9.692-2.012,17.394-6.032,23.104c-4.022,5.711-8.973,8.566-14.854,8.566
	c-5.475,0-10.138-2.379-13.99-7.139c-3.853-4.758-6.22-11.638-7.098-20.639l-27.576,4.284c1.42,16.01,6.556,28.968,15.41,38.875
	c8.854,9.909,20.006,14.862,33.457,14.862c14.193,0,26.056-5.884,35.586-17.653c9.529-11.767,14.295-26.002,14.295-42.704
	C440.039,373.542,437.487,363.72,432.384,355.585z"/>
<path fill="#B3B3B3" d="M439.588,351.066c-3.419-5.447-7.523-9.867-12.273-13.229c9.656-10.333,14.536-23.043,14.536-37.938
	c0-13.581-4.08-25.946-12.126-36.75c-10.086-13.635-23.711-20.559-40.479-20.559c-9.695,0-18.616,2.392-26.514,7.109
	c-7.903,4.725-14.144,11.288-18.547,19.511c-4.172,7.791-7.17,17.691-9.165,30.266c-0.706,4.453,2.187,8.684,6.592,9.642
	l26.259,5.711c0.6,0.13,1.205,0.194,1.808,0.194c1.796,0,3.563-0.569,5.035-1.651c1.967-1.444,3.218-3.665,3.435-6.095
	c0.581-6.486,2.126-11.47,4.468-14.411c2.306-2.893,4.235-3.283,5.818-3.283c2.31,0,3.806,0.708,5.162,2.444
	c1.763,2.257,2.657,5.649,2.657,10.079c0,5.415-1.284,9.486-3.924,12.445c-1.381,1.547-3.927,3.604-10.063,3.604
	c-0.312,0-0.628-0.006-0.948-0.017c-0.097-0.003-0.194-0.005-0.291-0.005c-4.332,0-7.993,3.271-8.452,7.609l-3.143,29.725
	c-0.308,2.91,0.902,5.773,3.203,7.581c1.521,1.194,3.376,1.817,5.255,1.817c0.965,0,1.935-0.164,2.869-0.499
	c5.136-1.841,8.387-2.228,10.209-2.228c1.839,0,4.317,0.512,7.185,4.505c2.775,3.865,4.183,9.533,4.183,16.846
	c0,7.858-1.508,13.984-4.482,18.209c-3.095,4.395-5.848,4.958-7.899,4.958c-1.935,0-4.521-0.453-7.38-3.985
	c-2.771-3.421-4.535-8.843-5.244-16.113c-0.228-2.329-1.403-4.461-3.252-5.895c-1.501-1.164-3.337-1.784-5.212-1.784
	c-0.435,0-0.871,0.033-1.306,0.101l-27.576,4.284c-4.427,0.688-7.561,4.692-7.165,9.154c1.579,17.802,7.48,32.535,17.54,43.791
	c10.494,11.744,23.885,17.699,39.798,17.699c16.819,0,31.016-7,42.194-20.806c10.743-13.265,16.19-29.434,16.19-48.056
	C448.542,371.973,445.53,360.539,439.588,351.066z M390.158,445.407c-13.451,0-24.603-4.953-33.457-14.862
	c-8.854-9.907-13.99-22.865-15.41-38.875l27.576-4.284c0.878,9.001,3.245,15.881,7.098,20.639c3.853,4.76,8.516,7.139,13.99,7.139
	c5.881,0,10.831-2.855,14.854-8.566c4.021-5.711,6.032-13.412,6.032-23.104c0-9.171-1.927-16.44-5.779-21.807
	c-3.853-5.364-8.551-8.048-14.092-8.048c-3.65,0-8.01,0.909-13.079,2.727l3.143-29.725c0.417,0.014,0.828,0.021,1.234,0.021
	c7.103,0,12.571-2.149,16.407-6.446c4.055-4.544,6.083-10.579,6.083-18.107c0-6.403-1.487-11.508-4.461-15.316
	c-2.976-3.807-6.929-5.711-11.862-5.711c-4.866,0-9.023,2.164-12.47,6.489c-3.447,4.328-5.543,10.644-6.286,18.951l-26.259-5.711
	c1.825-11.508,4.578-20.703,8.263-27.583c3.684-6.879,8.821-12.286,15.411-16.225c6.59-3.937,13.974-5.906,22.152-5.906
	c13.99,0,25.209,5.711,33.659,17.134c6.96,9.346,10.442,19.904,10.442,31.671c0,16.702-7.132,30.028-21.392,39.979
	c8.516,2.337,15.324,7.573,20.429,15.706c5.103,8.135,7.654,17.957,7.654,29.465c0,16.702-4.766,30.938-14.295,42.704
	C416.213,439.523,404.351,445.407,390.158,445.407z"/>
</svg>
