<?xml version="1.0" encoding="UTF-8" standalone="no"?>
<!-- Generator: Adobe Illustrator 15.0.0, SVG Export Plug-In . SVG Version: 6.00 Build 0)  -->

<svg
   xmlns:dc="http://purl.org/dc/elements/1.1/"
   xmlns:cc="http://creativecommons.org/ns#"
   xmlns:rdf="http://www.w3.org/1999/02/22-rdf-syntax-ns#"
   xmlns:svg="http://www.w3.org/2000/svg"
   xmlns="http://www.w3.org/2000/svg"
   xmlns:sodipodi="http://sodipodi.sourceforge.net/DTD/sodipodi-0.dtd"
   xmlns:inkscape="http://www.inkscape.org/namespaces/inkscape"
   version="1.1"
   id="Layer_1"
   inkscape:version="0.48.3.1 r9886"
   sodipodi:docname="format-text-italic.svg"
   x="0px"
   y="0px"
   width="489.309px"
   height="494.244px"
   viewBox="0 0 489.309 494.244"
   enable-background="new 0 0 489.309 494.244"
   xml:space="preserve"><metadata
   id="metadata16"><rdf:RDF><cc:Work
       rdf:about=""><dc:format>image/svg+xml</dc:format><dc:type
         rdf:resource="http://purl.org/dc/dcmitype/StillImage" /></cc:Work></rdf:RDF></metadata>
<defs
   id="defs3">
	
	
		<inkscape:perspective
   sodipodi:type="inkscape:persp3d"
   inkscape:vp_x="0 : 247.12199 : 1"
   inkscape:vp_y="0 : 1000 : 0"
   inkscape:vp_z="489.31 : 247.12199 : 1"
   id="perspective248"
   inkscape:persp3d-origin="244.655 : 164.748 : 1">
		</inkscape:perspective>
	
		<inkscape:perspective
   sodipodi:type="inkscape:persp3d"
   inkscape:vp_x="0 : 24 : 1"
   inkscape:vp_y="0 : 1000 : 0"
   inkscape:vp_z="48 : 24 : 1"
   id="perspective3079"
   inkscape:persp3d-origin="24 : 16 : 1">
		</inkscape:perspective>
</defs>
<sodipodi:namedview
   pagecolor="#ffffff"
   inkscape:zoom="0.47749696"
   inkscape:cx="257.22053"
   bordercolor="#666666"
   guidetolerance="10"
   showgrid="false"
   gridtolerance="10"
   inkscape:cy="247.12199"
   objecttolerance="10"
   borderopacity="1"
   id="namedview242"
   inkscape:window-height="718"
   inkscape:pageshadow="2"
   inkscape:pageopacity="0"
   inkscape:current-layer="Layer_1"
   inkscape:window-y="0"
   inkscape:window-x="0"
   inkscape:window-width="1366"
   inkscape:window-maximized="1">
	</sodipodi:namedview>
<path
   d="m 285.81954,139.5425 c -14.15473,0 -29.77866,6.30394 -46.44097,18.73564 -24.95594,18.62221 -47.5931,46.84152 -67.28095,83.87234 -19.61041,36.88603 -29.55357,70.46321 -29.55357,99.79391 0,13.07609 3.36563,22.93264 10.29171,30.13679 6.7978,7.07625 14.23702,10.51663 22.74002,10.51663 24.90269,0 53.15407,-17.5977 83.98805,-52.32368 42.16405,-47.24215 63.54257,-96.10614 63.54257,-145.22958 0,-16.77954 -3.32204,-28.71286 -9.87054,-35.46811 -6.54972,-6.75164 -15.51744,-10.03394 -27.41632,-10.03394 z"
   id="path8"
   inkscape:connector-curvature="0"
   style="fill:none" />
<path
   d="m 348.09866,346.10157 75.42936,-234.83269 -61.50458,8.31315 -13.92478,39.48531 c -5.41574,-17.08484 -13.3451,-29.32105 -23.7905,-36.71346 -10.44299,-7.38758 -23.53515,-11.08379 -39.26195,-11.08379 -26.30292,0 -54.28804,9.69847 -83.93963,29.09419 -37.90771,24.47725 -69.181,57.09508 -93.80412,97.84625 -24.630397,40.75719 -36.940752,79.48951 -36.940752,116.20417 0,24.47725 6.83048,43.70041 20.501121,57.66827 13.665801,13.96787 29.911791,20.95481 48.739171,20.95481 19.59468,0 39.58266,-5.66075 59.95671,-16.9714 28.36513,-15.69952 59.43752,-43.29495 93.22322,-82.78026 l -8.12299,25.97722 c -5.67593,18.47619 -8.51027,33.36841 -8.51027,44.67905 0,9.4716 2.76899,16.68542 8.31664,21.64748 5.5428,4.96206 13.85943,7.44671 24.94989,7.44671 15.98579,0 33.39237,-6.29429 52.22097,-18.87683 18.82134,-12.58374 37.13559,-30.88014 54.92945,-54.89762 l -13.15145,-8.31315 c -16.76639,21.01394 -30.1732,34.86838 -40.23012,41.56209 -5.41574,3.69621 -9.80399,5.5425 -13.15146,5.5425 -3.09453,0 -5.67472,-1.03899 -7.73694,-3.11698 -2.5814,-2.77185 -3.86786,-6.00226 -3.86786,-9.69846 0,-2.07798 0.38606,-4.61574 1.1606,-7.61928 l 8.51027,-31.51728 z m -80.84631,-9.00581 c -33.01237,37.18046 -63.57163,55.76406 -91.67657,55.76406 -11.35065,0 -21.40757,-4.55661 -30.17198,-13.68067 -8.77046,-9.12044 -13.15145,-21.52921 -13.15145,-37.23355 0,-31.17218 10.25055,-66.03693 30.75168,-104.6003 20.50112,-38.55975 43.90435,-67.65393 70.20847,-87.28256 18.5672,-13.85442 36.10086,-20.78225 52.60704,-20.78225 14.69933,0 26.30412,4.38886 34.81439,13.16178 8.51027,8.77772 12.76539,22.97849 12.76539,42.60228 -10e-4,51.95321 -22.04899,102.64178 -66.14697,152.05121 z"
   id="path10"
   inkscape:connector-curvature="0"
   style="fill:#1a1a1a" />
<path
   d="m 320.63393,142.44227 c -8.51027,-8.77292 -20.11506,-13.16178 -34.81439,-13.16178 -16.50618,0 -34.03984,6.92783 -52.60704,20.78225 -26.30412,19.62863 -49.70614,48.72281 -70.20847,87.28256 -20.50113,38.56458 -30.75168,73.42812 -30.75168,104.6003 0,15.70555 4.3822,28.11432 13.15145,37.23355 8.76441,9.12406 18.82133,13.68067 30.17198,13.68067 28.10494,0 58.6642,-18.5836 91.67657,-55.76406 44.09798,-49.40943 66.14576,-100.098 66.14576,-152.05121 0,-19.62379 -4.25391,-33.82456 -12.76418,-42.60228 z M 175.57578,382.59781 c -8.503,0 -15.94222,-3.44038 -22.74002,-10.51663 -6.92729,-7.20415 -10.29171,-17.0607 -10.29171,-30.13679 0,-29.33191 9.94316,-62.90788 29.55357,-99.79391 19.68906,-37.03203 42.32622,-65.25013 67.28095,-83.87234 16.66231,-12.4317 32.28624,-18.73564 46.44097,-18.73564 11.89888,0 20.8666,3.2823 27.41632,10.03394 6.5485,6.75525 9.87054,18.68857 9.87054,35.46811 0,49.12344 -21.37852,97.98743 -63.54257,145.22958 -30.83398,34.72598 -59.08536,52.32368 -83.98805,52.32368 z"
   id="path12"
   inkscape:connector-curvature="0"
   style="fill:#b3b3b3" />
<path
   d="m 357.97284,349.00133 75.35675,-234.60219 c 1.0783,-3.35349 0.35459,-7.02436 -1.91457,-9.72381 -1.97024,-2.34225 -4.8663,-3.66844 -7.88579,-3.66844 -0.45988,0 -0.92219,0.0302 -1.38449,0.093 l -61.50458,8.31313 c -3.82913,0.51769 -7.04348,3.13026 -8.32631,6.76491 l -5.47503,15.52575 c -4.71381,-7.3188 -10.24935,-13.24383 -16.57396,-17.71958 -12.17482,-8.6124 -27.38727,-12.97713 -45.21865,-12.97713 -28.21749,0 -58.35074,10.35009 -89.5623,30.76188 -39.04774,25.21938 -71.68132,59.24908 -96.996696,101.14543 C 72.995146,275.09896 60.07,315.97683 60.07,354.4147 c 0,27.13929 7.882161,48.95209 23.427433,64.83623 15.611833,15.95776 34.488837,24.05007 56.104567,24.05007 21.27083,0 43.12861,-6.14707 64.96339,-18.26864 20.49507,-11.34202 42.47024,-28.76475 65.61569,-51.9882 -2.90332,12.03468 -4.32412,22.2279 -4.32412,30.89944 0,12.46791 3.94895,22.32203 11.73671,29.28726 7.46222,6.68045 18.17025,10.07014 31.82153,10.07014 17.98506,0 37.4817,-6.93506 57.95015,-20.61331 19.73264,-13.19314 39.06952,-32.47906 57.47696,-57.32556 1.69674,-2.29037 2.36357,-5.18289 1.83954,-7.98249 -0.52403,-2.79961 -2.19413,-5.25651 -4.60731,-6.78182 l -13.15145,-8.31314 c -1.70157,-1.07639 -3.6113,-1.59408 -5.50408,-1.59529 -3.04371,0 -6.04021,1.34309 -8.05886,3.8748 -16.02815,20.08718 -28.7766,33.3491 -37.89197,39.41653 -0.0327,0.0218 -0.0665,0.0434 -0.0992,0.0676 -5.22088,3.56346 -7.36055,3.74689 -7.38112,3.7481 -0.15854,-0.001 -0.26383,-0.0157 -0.32071,-0.0253 -0.78543,-0.91229 -0.95002,-1.65321 -0.95002,-2.5293 0,-0.67577 0.10771,-2.22158 0.82295,-5.01154 l 8.43281,-31.22888 z m -48.55643,84.03645 c -11.09167,0 -19.40709,-2.48464 -24.94989,-7.44671 -5.54765,-4.96205 -8.31664,-12.17708 -8.31664,-21.64747 0,-11.31065 2.83434,-26.20407 8.51027,-44.67906 l 8.12299,-25.97721 c -33.7857,39.48531 -64.8593,67.08074 -93.22322,82.78025 -20.37404,11.31066 -40.36203,16.97141 -59.95671,16.97141 -18.82738,0 -35.07337,-6.98694 -48.73917,-20.95481 -13.671852,-13.96786 -20.501121,-33.19103 -20.501121,-57.66827 0,-36.71466 12.311565,-75.44577 36.940751,-116.20418 24.62312,-40.75117 55.89641,-73.36899 93.80412,-97.84625 29.65159,-19.39571 57.63671,-29.09418 83.93963,-29.09418 15.72681,0 28.81896,3.69621 39.26195,11.08378 10.4454,7.39241 18.37597,19.62863 23.7905,36.71347 l 13.92478,-39.48531 61.50458,-8.31315 -75.42936,234.83268 -8.51027,31.5185 c -0.77454,3.00354 -1.1606,5.54249 -1.1606,7.61927 0,3.69621 1.28646,6.92662 3.86786,9.69847 2.06101,2.07798 4.64241,3.11697 7.73694,3.11697 3.34868,0 7.73693,-1.84509 13.15145,-5.54249 10.05814,-6.69492 23.46374,-20.54815 40.23013,-41.56209 l 13.15145,8.31314 c -17.79386,24.01748 -36.10811,42.31387 -54.92945,54.89762 -18.8286,12.58134 -36.23518,18.87562 -52.22097,18.87562 z"
   id="path14"
   inkscape:connector-curvature="0"
   style="fill:#b3b3b3" />
</svg>