<?xml version="1.0" encoding="UTF-8" standalone="no"?>
<!-- Created with Inkscape (http://www.inkscape.org/) -->
<svg
   xmlns:dc="http://purl.org/dc/elements/1.1/"
   xmlns:cc="http://creativecommons.org/ns#"
   xmlns:rdf="http://www.w3.org/1999/02/22-rdf-syntax-ns#"
   xmlns:svg="http://www.w3.org/2000/svg"
   xmlns="http://www.w3.org/2000/svg"
   xmlns:xlink="http://www.w3.org/1999/xlink"
   xmlns:sodipodi="http://sodipodi.sourceforge.net/DTD/sodipodi-0.dtd"
   xmlns:inkscape="http://www.inkscape.org/namespaces/inkscape"
   width="48px"
   height="48px"
   id="svg8056"
   sodipodi:version="0.32"
   inkscape:version="0.46"
   sodipodi:docname="emblem-web.svg"
   inkscape:output_extension="org.inkscape.output.svg.inkscape">
  <defs
     id="defs8058">
    <radialGradient
       r="10.081216"
       fy="-3.4420195"
       fx="62.225393"
       cy="-3.4420195"
       cx="62.225393"
       gradientTransform="matrix(0.918134,0,0,0.854079,2.429764,1.490099)"
       gradientUnits="userSpaceOnUse"
       id="radialGradient9207"
       xlink:href="#linearGradient8740"
       inkscape:collect="always" />
    <radialGradient
       r="9.82225"
       fy="17.257843"
       fx="25.968998"
       cy="17.257854"
       cx="25.969097"
       gradientTransform="matrix(6.168149e-2,2.223638,-1.495968,4.148028e-2,50.51125,-44.50839)"
       gradientUnits="userSpaceOnUse"
       id="radialGradient9205"
       xlink:href="#linearGradient8918"
       inkscape:collect="always" />
    <radialGradient
       r="10.081216"
       fy="-3.4420195"
       fx="62.225393"
       cy="-3.4420195"
       cx="62.225393"
       gradientTransform="matrix(1,0,0,0.930233,0,-0.240141)"
       gradientUnits="userSpaceOnUse"
       id="radialGradient8824"
       xlink:href="#linearGradient8740"
       inkscape:collect="always" />
    <linearGradient
       id="linearGradient8918">
      <stop
         style="stop-color:#cee14b"
         offset="0"
         id="stop8920" />
      <stop
         style="stop-color:#9db029"
         offset="1"
         id="stop8922" />
    </linearGradient>
    <radialGradient
       r="9.82225"
       fy="17.257843"
       fx="25.968998"
       cy="17.257854"
       cx="25.969097"
       gradientTransform="matrix(6.718136e-2,2.42191,-1.629357,4.51789e-2,52.36869,-50.34012)"
       gradientUnits="userSpaceOnUse"
       id="radialGradient9203"
       xlink:href="#linearGradient8918"
       inkscape:collect="always" />
    <radialGradient
       r="10.081216"
       fy="-3.4420195"
       fx="62.225393"
       cy="-3.4420195"
       cx="62.225393"
       gradientTransform="matrix(1,0,0,0.930233,0.311259,0.486131)"
       gradientUnits="userSpaceOnUse"
       id="radialGradient9201"
       xlink:href="#linearGradient8740"
       inkscape:collect="always" />
    <radialGradient
       r="2.97195"
       fy="17.573889"
       fx="24.478539"
       cy="17.573915"
       cx="24.478569"
       gradientTransform="matrix(0.222034,8.004376,-0.597156,1.656095e-2,29.85665,-181.6002)"
       gradientUnits="userSpaceOnUse"
       id="radialGradient9199"
       xlink:href="#linearGradient8912"
       inkscape:collect="always" />
    <radialGradient
       r="10.081216"
       fy="-3.4420195"
       fx="62.225393"
       cy="-3.4420195"
       cx="62.225393"
       gradientTransform="matrix(1,0,0,0.930233,0,-0.240141)"
       gradientUnits="userSpaceOnUse"
       id="radialGradient8820"
       xlink:href="#linearGradient8740"
       inkscape:collect="always" />
    <linearGradient
       id="linearGradient8912">
      <stop
         id="stop8914"
         offset="0"
         style="stop-color:#cee14b" />
      <stop
         id="stop8916"
         offset="1"
         style="stop-color:#9db029" />
    </linearGradient>
    <radialGradient
       r="2.97195"
       fy="17.573889"
       fx="24.478539"
       cy="17.573915"
       cx="24.478569"
       gradientTransform="matrix(0.222034,8.004376,-0.597156,1.656095e-2,29.5454,-182.3268)"
       gradientUnits="userSpaceOnUse"
       id="radialGradient9197"
       xlink:href="#linearGradient8912"
       inkscape:collect="always" />
    <radialGradient
       r="10.081216"
       fy="-3.4420195"
       fx="62.225393"
       cy="-3.4420195"
       cx="62.225393"
       gradientTransform="matrix(1,0,0,0.930233,0,0.589884)"
       gradientUnits="userSpaceOnUse"
       id="radialGradient9195"
       xlink:href="#linearGradient8740"
       inkscape:collect="always" />
    <radialGradient
       r="4.13475"
       fy="14.542329"
       fx="25.135332"
       cy="14.542349"
       cx="25.135374"
       gradientTransform="matrix(0.159592,5.753335,-0.8072,2.23703e-2,32.87305,-130.867)"
       gradientUnits="userSpaceOnUse"
       id="radialGradient9193"
       xlink:href="#linearGradient8930"
       inkscape:collect="always" />
    <radialGradient
       r="10.081216"
       fy="-3.4420195"
       fx="62.225393"
       cy="-3.4420195"
       cx="62.225393"
       gradientTransform="matrix(1,0,0,0.930233,0,-0.240141)"
       gradientUnits="userSpaceOnUse"
       id="radialGradient8816"
       xlink:href="#linearGradient8740"
       inkscape:collect="always" />
    <linearGradient
       id="linearGradient8930">
      <stop
         style="stop-color:#cee14b"
         offset="0"
         id="stop8932" />
      <stop
         style="stop-color:#9db029"
         offset="1"
         id="stop8934" />
    </linearGradient>
    <radialGradient
       r="4.13475"
       fy="14.542329"
       fx="25.135332"
       cy="14.542349"
       cx="25.135374"
       gradientTransform="matrix(0.159592,5.753335,-0.8072,2.23703e-2,32.87305,-131.6974)"
       gradientUnits="userSpaceOnUse"
       id="radialGradient9191"
       xlink:href="#linearGradient8930"
       inkscape:collect="always" />
    <radialGradient
       r="10.081216"
       fy="-3.4420195"
       fx="62.225393"
       cy="-3.4420195"
       cx="62.225393"
       gradientTransform="matrix(0.891018,0,0,0.828854,1.579517,2.39052)"
       gradientUnits="userSpaceOnUse"
       id="radialGradient9189"
       xlink:href="#linearGradient8740"
       inkscape:collect="always" />
    <radialGradient
       r="8.61745"
       fy="18.944481"
       fx="24.652485"
       cy="18.94449"
       cx="24.652573"
       gradientTransform="matrix(6.822876e-2,2.459669,-1.754905,4.868429e-2,55.12882,-46.82188)"
       gradientUnits="userSpaceOnUse"
       id="radialGradient9187"
       xlink:href="#linearGradient8924"
       inkscape:collect="always" />
    <radialGradient
       r="10.081216"
       fy="-3.4420195"
       fx="62.225393"
       cy="-3.4420195"
       cx="62.225393"
       gradientTransform="matrix(1,0,0,0.930233,0,-0.240141)"
       gradientUnits="userSpaceOnUse"
       id="radialGradient8812"
       xlink:href="#linearGradient8740"
       inkscape:collect="always" />
    <linearGradient
       id="linearGradient8924">
      <stop
         style="stop-color:#cee14b"
         offset="0"
         id="stop8926" />
      <stop
         style="stop-color:#9db029"
         offset="1"
         id="stop8928" />
    </linearGradient>
    <radialGradient
       r="8.61745"
       fy="18.944481"
       fx="24.652485"
       cy="18.94449"
       cx="24.652573"
       gradientTransform="matrix(7.657394e-2,2.760516,-1.969551,5.463895e-2,60.09901,-55.47179)"
       gradientUnits="userSpaceOnUse"
       id="radialGradient9185"
       xlink:href="#linearGradient8924"
       inkscape:collect="always" />
    <radialGradient
       r="10.081216"
       fy="-3.4420195"
       fx="62.225393"
       cy="-3.4420195"
       cx="62.225393"
       gradientTransform="matrix(1,0,0,0.930233,0,-0.240141)"
       gradientUnits="userSpaceOnUse"
       id="radialGradient8810"
       xlink:href="#linearGradient8740"
       inkscape:collect="always" />
    <radialGradient
       r="10.081216"
       fy="-3.4420195"
       fx="62.225393"
       cy="-3.4420195"
       cx="62.225393"
       gradientTransform="matrix(1,0,0,0.930233,0,-0.240141)"
       gradientUnits="userSpaceOnUse"
       id="radialGradient8808"
       xlink:href="#linearGradient8740"
       inkscape:collect="always" />
    <radialGradient
       r="10.081216"
       fy="-3.4420195"
       fx="62.225393"
       cy="-3.4420195"
       cx="62.225393"
       gradientTransform="matrix(1,0,0,0.930233,0,-0.240141)"
       gradientUnits="userSpaceOnUse"
       id="radialGradient8806"
       xlink:href="#linearGradient8740"
       inkscape:collect="always" />
    <radialGradient
       r="10.081216"
       fy="-3.4420195"
       fx="62.225393"
       cy="-3.4420195"
       cx="62.225393"
       gradientTransform="matrix(1,0,0,0.930233,0,-0.240141)"
       gradientUnits="userSpaceOnUse"
       id="radialGradient8804"
       xlink:href="#linearGradient8740"
       inkscape:collect="always" />
    <radialGradient
       r="10.081216"
       fy="-3.4420195"
       fx="62.225393"
       cy="-3.4420195"
       cx="62.225393"
       gradientTransform="matrix(1,0,0,0.930233,0,-0.240141)"
       gradientUnits="userSpaceOnUse"
       id="radialGradient8802"
       xlink:href="#linearGradient8740"
       inkscape:collect="always" />
    <radialGradient
       r="10.081216"
       fy="-3.4420195"
       fx="62.225393"
       cy="-3.4420195"
       cx="62.225393"
       gradientTransform="matrix(1,0,0,0.930233,0,-0.240141)"
       gradientUnits="userSpaceOnUse"
       id="radialGradient8800"
       xlink:href="#linearGradient8740"
       inkscape:collect="always" />
    <radialGradient
       r="10.081216"
       fy="-3.4420195"
       fx="62.225393"
       cy="-3.4420195"
       cx="62.225393"
       gradientTransform="matrix(1,0,0,0.930233,0,-0.240141)"
       gradientUnits="userSpaceOnUse"
       id="radialGradient8798"
       xlink:href="#linearGradient8740"
       inkscape:collect="always" />
    <radialGradient
       r="10.081216"
       fy="-3.4420195"
       fx="62.225393"
       cy="-3.4420195"
       cx="62.225393"
       gradientTransform="matrix(1,0,0,0.930233,0,-0.240141)"
       gradientUnits="userSpaceOnUse"
       id="radialGradient8796"
       xlink:href="#linearGradient8740"
       inkscape:collect="always" />
    <radialGradient
       r="10.081216"
       fy="-3.4420195"
       fx="62.225393"
       cy="-3.4420195"
       cx="62.225393"
       gradientTransform="matrix(1,0,0,0.930233,0,-0.240141)"
       gradientUnits="userSpaceOnUse"
       id="radialGradient8794"
       xlink:href="#linearGradient8740"
       inkscape:collect="always" />
    <radialGradient
       r="10.081216"
       fy="-3.4420195"
       fx="62.225393"
       cy="-3.4420195"
       cx="62.225393"
       gradientTransform="matrix(1,0,0,0.930233,0,-0.240141)"
       gradientUnits="userSpaceOnUse"
       id="radialGradient8792"
       xlink:href="#linearGradient8740"
       inkscape:collect="always" />
    <radialGradient
       r="10.081216"
       fy="-3.4420195"
       fx="62.225393"
       cy="-3.4420195"
       cx="62.225393"
       gradientTransform="matrix(1,0,0,0.930233,0,-0.240141)"
       gradientUnits="userSpaceOnUse"
       id="radialGradient9183"
       xlink:href="#linearGradient8740"
       inkscape:collect="always" />
    <radialGradient
       r="10.081216"
       fy="-3.4420195"
       fx="62.225393"
       cy="-3.4420195"
       cx="62.225393"
       gradientTransform="matrix(1,0,0,0.930233,0,-0.240141)"
       gradientUnits="userSpaceOnUse"
       id="radialGradient8788"
       xlink:href="#linearGradient8740"
       inkscape:collect="always" />
    <radialGradient
       r="10.081216"
       fy="-3.4420195"
       fx="62.225393"
       cy="-3.4420195"
       cx="62.225393"
       gradientTransform="matrix(1,0,0,0.930233,0,-0.240141)"
       gradientUnits="userSpaceOnUse"
       id="radialGradient8786"
       xlink:href="#linearGradient8740"
       inkscape:collect="always" />
    <radialGradient
       r="10.081216"
       fy="-3.4420195"
       fx="62.225393"
       cy="-3.4420195"
       cx="62.225393"
       gradientTransform="matrix(1,0,0,0.930233,0,0.79739)"
       gradientUnits="userSpaceOnUse"
       id="radialGradient9181"
       xlink:href="#linearGradient8740"
       inkscape:collect="always" />
    <radialGradient
       r="10.081216"
       fy="-3.4420195"
       fx="62.225393"
       cy="-3.4420195"
       cx="62.225393"
       gradientTransform="matrix(1,0,0,0.930233,0,-0.240141)"
       gradientUnits="userSpaceOnUse"
       id="radialGradient8782"
       xlink:href="#linearGradient8740"
       inkscape:collect="always" />
    <radialGradient
       r="10.081216"
       fy="-3.4420195"
       fx="62.225393"
       cy="-3.4420195"
       cx="62.225393"
       gradientTransform="matrix(1,0,0,0.930233,0,-0.240141)"
       gradientUnits="userSpaceOnUse"
       id="radialGradient8780"
       xlink:href="#linearGradient8740"
       inkscape:collect="always" />
    <radialGradient
       r="10.081216"
       fy="-3.4420195"
       fx="62.225393"
       cy="-3.4420195"
       cx="62.225393"
       gradientTransform="matrix(1,0,0,0.930233,0,-0.240141)"
       gradientUnits="userSpaceOnUse"
       id="radialGradient8778"
       xlink:href="#linearGradient8740"
       inkscape:collect="always" />
    <radialGradient
       r="10.081216"
       fy="-3.4420195"
       fx="62.225393"
       cy="-3.4420195"
       cx="62.225393"
       gradientTransform="matrix(1,0,0,0.930233,0,-0.240141)"
       gradientUnits="userSpaceOnUse"
       id="radialGradient9179"
       xlink:href="#linearGradient8740"
       inkscape:collect="always" />
    <radialGradient
       r="10.081216"
       fy="-3.4420195"
       fx="62.225393"
       cy="-3.4420195"
       cx="62.225393"
       gradientTransform="matrix(1,0,0,0.930233,0,-0.240141)"
       gradientUnits="userSpaceOnUse"
       id="radialGradient8774"
       xlink:href="#linearGradient8740"
       inkscape:collect="always" />
    <radialGradient
       r="10.081216"
       fy="-3.4420195"
       fx="62.225393"
       cy="-3.4420195"
       cx="62.225393"
       gradientTransform="matrix(1,0,0,0.930233,0,-0.240141)"
       gradientUnits="userSpaceOnUse"
       id="radialGradient8772"
       xlink:href="#linearGradient8740"
       inkscape:collect="always" />
    <radialGradient
       r="10.081216"
       fy="-3.4420195"
       fx="62.225393"
       cy="-3.4420195"
       cx="62.225393"
       gradientTransform="matrix(1,0,0,0.930233,0,-0.240141)"
       gradientUnits="userSpaceOnUse"
       id="radialGradient8770"
       xlink:href="#linearGradient8740"
       inkscape:collect="always" />
    <radialGradient
       r="10.081216"
       fy="-3.4420195"
       fx="62.225393"
       cy="-3.4420195"
       cx="62.225393"
       gradientTransform="matrix(1,0,0,0.930233,0,-0.240141)"
       gradientUnits="userSpaceOnUse"
       id="radialGradient9177"
       xlink:href="#linearGradient8740"
       inkscape:collect="always" />
    <radialGradient
       r="10.081216"
       fy="-3.4420195"
       fx="62.225393"
       cy="-3.4420195"
       cx="62.225393"
       gradientTransform="matrix(1,0,0,0.930233,0,-0.240141)"
       gradientUnits="userSpaceOnUse"
       id="radialGradient8766"
       xlink:href="#linearGradient8740"
       inkscape:collect="always" />
    <radialGradient
       r="10.081216"
       fy="-3.4420195"
       fx="62.225393"
       cy="-3.4420195"
       cx="62.225393"
       gradientTransform="matrix(1,0,0,0.930233,0,-0.240141)"
       gradientUnits="userSpaceOnUse"
       id="radialGradient8764"
       xlink:href="#linearGradient8740"
       inkscape:collect="always" />
    <radialGradient
       r="10.081216"
       fy="-3.4420195"
       fx="62.225393"
       cy="-3.4420195"
       cx="62.225393"
       gradientTransform="matrix(1,0,0,0.930233,0,-0.240141)"
       gradientUnits="userSpaceOnUse"
       id="radialGradient9175"
       xlink:href="#linearGradient8740"
       inkscape:collect="always" />
    <radialGradient
       r="10.081216"
       fy="-3.4420195"
       fx="62.225393"
       cy="-3.4420195"
       cx="62.225393"
       gradientTransform="matrix(1,0,0,0.930233,0,-0.240141)"
       gradientUnits="userSpaceOnUse"
       id="radialGradient8760"
       xlink:href="#linearGradient8740"
       inkscape:collect="always" />
    <radialGradient
       r="10.081216"
       fy="-3.4420195"
       fx="62.225393"
       cy="-3.4420195"
       cx="62.225393"
       gradientTransform="matrix(1,0,0,0.930233,0,-0.240141)"
       gradientUnits="userSpaceOnUse"
       id="radialGradient8758"
       xlink:href="#linearGradient8740"
       inkscape:collect="always" />
    <radialGradient
       r="10.081216"
       fy="-3.4420195"
       fx="62.225393"
       cy="-3.4420195"
       cx="62.225393"
       gradientTransform="matrix(1,0,0,0.930233,0,-0.240141)"
       gradientUnits="userSpaceOnUse"
       id="radialGradient8756"
       xlink:href="#linearGradient8740"
       inkscape:collect="always" />
    <radialGradient
       r="10.081216"
       fy="-3.4420195"
       fx="62.225393"
       cy="-3.4420195"
       cx="62.225393"
       gradientTransform="matrix(1,0,0,0.930233,0,-0.240141)"
       gradientUnits="userSpaceOnUse"
       id="radialGradient9173"
       xlink:href="#linearGradient8740"
       inkscape:collect="always" />
    <radialGradient
       r="10.081216"
       fy="-3.4420195"
       fx="62.225393"
       cy="-3.4420195"
       cx="62.225393"
       gradientTransform="matrix(1,0,0,0.930233,0,-0.240141)"
       gradientUnits="userSpaceOnUse"
       id="radialGradient8752"
       xlink:href="#linearGradient8740"
       inkscape:collect="always" />
    <radialGradient
       r="10.081216"
       fy="-3.4420195"
       fx="62.225393"
       cy="-3.4420195"
       cx="62.225393"
       gradientTransform="matrix(1,0,0,0.930233,0,-0.240141)"
       gradientUnits="userSpaceOnUse"
       id="radialGradient8750"
       xlink:href="#linearGradient8740"
       inkscape:collect="always" />
    <linearGradient
       id="linearGradient8740"
       inkscape:collect="always">
      <stop
         id="stop8742"
         offset="0"
         style="stop-color:#ffffff;stop-opacity:1;" />
      <stop
         id="stop8744"
         offset="1"
         style="stop-color:#ffffff;stop-opacity:0;" />
    </linearGradient>
    <radialGradient
       r="10.081216"
       fy="-3.4420195"
       fx="62.225393"
       cy="-3.4420195"
       cx="62.225393"
       gradientTransform="matrix(1,0,0,0.930233,0,-0.240141)"
       gradientUnits="userSpaceOnUse"
       id="radialGradient8748"
       xlink:href="#linearGradient8740"
       inkscape:collect="always" />
    <linearGradient
       inkscape:collect="always"
       id="linearGradient4873">
      <stop
         style="stop-color:#ffffff;stop-opacity:1;"
         offset="0"
         id="stop4875" />
      <stop
         style="stop-color:#ffffff;stop-opacity:0;"
         offset="1"
         id="stop4877" />
    </linearGradient>
    <linearGradient
       inkscape:collect="always"
       xlink:href="#linearGradient4873"
       id="linearGradient4879"
       x1="62.200409"
       y1="-12.963596"
       x2="62.200409"
       y2="6.8052397"
       gradientUnits="userSpaceOnUse"
       gradientTransform="matrix(1.0105396,0,0,1.0105166,-0.7055706,0.1763703)" />
    <linearGradient
       id="linearGradient8647">
      <stop
         id="stop8649"
         offset="0"
         style="stop-color:#8fb1dc;stop-opacity:1;" />
      <stop
         id="stop8651"
         offset="1"
         style="stop-color:#3465a4;stop-opacity:1;" />
    </linearGradient>
    <radialGradient
       r="9.7552835"
       fy="-8.7256308"
       fx="62.200352"
       cy="-8.7256308"
       cx="62.200352"
       gradientTransform="matrix(1.1281223,0,0,1.1281218,-8.0191522,1.2305282)"
       gradientUnits="userSpaceOnUse"
       id="radialGradient9171"
       xlink:href="#linearGradient8647"
       inkscape:collect="always" />
    <linearGradient
       id="linearGradient8838"
       inkscape:collect="always">
      <stop
         id="stop8840"
         offset="0"
         style="stop-color:#000000;stop-opacity:1;" />
      <stop
         id="stop8842"
         offset="1"
         style="stop-color:#000000;stop-opacity:0;" />
    </linearGradient>
    <radialGradient
       r="10.625"
       fy="4.625"
       fx="62.625"
       cy="4.625"
       cx="62.625"
       gradientTransform="matrix(1,0,0,0.341176,0,3.047059)"
       gradientUnits="userSpaceOnUse"
       id="radialGradient9169"
       xlink:href="#linearGradient8838"
       inkscape:collect="always" />
  </defs>
  <sodipodi:namedview
     id="base"
     pagecolor="#ffffff"
     bordercolor="#666666"
     borderopacity="1.0"
     inkscape:pageopacity="0.0"
     inkscape:pageshadow="2"
     inkscape:zoom="7"
     inkscape:cx="24"
     inkscape:cy="24"
     inkscape:current-layer="layer1"
     showgrid="true"
     inkscape:grid-bbox="true"
     inkscape:document-units="px"
     inkscape:window-width="641"
     inkscape:window-height="690"
     inkscape:window-x="1037"
     inkscape:window-y="25" />
  <metadata
     id="metadata8061">
    <rdf:RDF>
      <cc:Work
         rdf:about="">
        <dc:format>image/svg+xml</dc:format>
        <dc:type
           rdf:resource="http://purl.org/dc/dcmitype/StillImage" />
      </cc:Work>
    </rdf:RDF>
  </metadata>
  <g
     id="layer1"
     inkscape:label="Layer 1"
     inkscape:groupmode="layer">
    <g
       inkscape:label="Layer 1"
       id="g3020"
       transform="matrix(1.673435,0,0,1.673435,-3.189256,-2.6680421)">
      <g
         transform="matrix(1.284706,0,0,1.284706,-63.89629,19.96894)"
         id="g8936"
         style="display:inline">
        <path
           sodipodi:type="arc"
           style="opacity:0.56043958;fill:url(#radialGradient9169);fill-opacity:1;fill-rule:evenodd;stroke:none;stroke-width:0.99999988;stroke-linecap:butt;stroke-linejoin:round;marker:none;marker-start:none;marker-mid:none;marker-end:none;stroke-miterlimit:4;stroke-dasharray:none;stroke-dashoffset:0;stroke-opacity:1;visibility:visible;display:inline;overflow:visible"
           id="path8836"
           sodipodi:cx="62.625"
           sodipodi:cy="4.625"
           sodipodi:rx="10.625"
           sodipodi:ry="3.625"
           d="M 73.25,4.625 A 10.625,3.625 0 1 1 52,4.625 A 10.625,3.625 0 1 1 73.25,4.625 z"
           transform="matrix(0.9850108,0,0,1.1548402,0.4641642,-2.0682345)" />
        <path
           style="fill:url(#radialGradient9171);fill-opacity:1;fill-rule:nonzero;stroke:#204a87;stroke-width:0.46520078;stroke-miterlimit:4;stroke-dasharray:none"
           d="M 71.453317,-3.3717777 C 71.453317,1.7662103 67.287981,5.9314029 62.150583,5.9314029 C 57.012713,5.9314029 52.847614,1.7661632 52.847614,-3.3717777 C 52.847614,-8.5095302 57.012713,-12.674299 62.150583,-12.674299 C 67.287981,-12.674299 71.453317,-8.5095302 71.453317,-3.3717777 L 71.453317,-3.3717777 z"
           id="path6495" />
        <path
           id="path8655"
           d="M 70.988079,-3.3717001 C 70.988079,1.5093697 67.031025,5.4662873 62.150516,5.4662873 C 57.26956,5.4662873 53.31273,1.5093248 53.31273,-3.3717001 C 53.31273,-8.2525461 57.26956,-12.209062 62.150516,-12.209062 C 67.031025,-12.209062 70.988079,-8.2525461 70.988079,-3.3717001 L 70.988079,-3.3717001 z"
           style="opacity:0.5;fill:none;fill-opacity:1;fill-rule:nonzero;stroke:url(#linearGradient4879);stroke-width:0.46514398;stroke-miterlimit:4;stroke-dasharray:none;stroke-opacity:1" />
        <image
           style="opacity:0.75;fill:#ffffff;fill-rule:nonzero;stroke:url(#radialGradient8748);stroke-miterlimit:4"
           width="10.784556"
           height="16.411282"
           href="62169F0D.png"
           id="image6522"
           x="61.522053"
           y="-11.413214" />
        <image
           style="opacity:0.75;fill:#ffffff;fill-rule:nonzero;stroke:url(#radialGradient8750);stroke-miterlimit:4"
           width="2.3444688"
           height="2.3444688"
           href="62169F0E.png"
           id="image6530"
           x="61.990948"
           y="-10.94432" />
        <g
           transform="matrix(0.468894,0,0,0.468894,50.39042,-14.57365)"
           style="fill:#9db029;fill-rule:nonzero;stroke:url(#radialGradient8752);stroke-miterlimit:4"
           id="g6532">
          <path
             d="M 26.0703,9.2363 L 25.9971,9.7295 L 26.5069,10.0586 L 27.378,9.4829 L 26.9425,8.9892 L 26.3605,9.3188 L 26.0705,9.2363"
             id="path6534"
             style="fill:#9db029;stroke:url(#radialGradient9173)" />
        </g>
        <image
           style="opacity:0.75;fill:#ffffff;fill-rule:nonzero;stroke:url(#radialGradient8756);stroke-miterlimit:4"
           width="5.6267252"
           height="4.6889377"
           href="62169F0F.png"
           id="image6538"
           x="58.708691"
           y="-12.819895" />
        <image
           style="opacity:0.75;fill:#ffffff;fill-rule:nonzero;stroke:url(#radialGradient8758);stroke-miterlimit:4"
           width="2.3444688"
           height="2.3444688"
           href="62169F10.png"
           id="image6546"
           x="62.928734"
           y="-9.5376387" />
        <g
           transform="matrix(0.468894,0,0,0.468894,49.7717,-14.57365)"
           style="fill:#9db029;fill-rule:nonzero;stroke:url(#radialGradient8760);stroke-miterlimit:4"
           id="g6548">
          <path
             d="M 28.833,12.7749 L 28.542,12.0337 L 28.0322,12.1987 L 28.1787,13.103 L 28.833,12.7749"
             id="path6550"
             style="fill:#9db029;stroke:url(#radialGradient9175)" />
        </g>
        <image
           style="opacity:0.75;fill:#ffffff;fill-rule:nonzero;stroke:url(#radialGradient8764);stroke-miterlimit:4"
           width="2.3444688"
           height="3.2822564"
           href="62169F11.png"
           id="image6554"
           x="63.397629"
           y="-10.006532" />
        <g
           transform="matrix(0.468894,0,0,0.468894,49.94848,-14.57365)"
           style="fill:#9db029;fill-rule:nonzero;stroke:url(#radialGradient8766);stroke-miterlimit:4"
           id="g6556">
          <path
             d="M 29.123,12.6089 L 28.9775,13.5972 L 29.7773,13.4322 L 30.3584,12.857 L 29.8496,12.3629 C 29.6787,11.9078 29.4824,11.483 29.2685,11.0465 L 28.833,11.0465 L 28.833,11.5397 L 29.123,11.8688 L 29.123,12.609"
             id="path6558"
             style="fill:#9db029;stroke:url(#radialGradient9177)" />
        </g>
        <image
           style="opacity:0.75;fill:#ffffff;fill-rule:nonzero;stroke:url(#radialGradient8770);stroke-miterlimit:4"
           width="9.8467684"
           height="17.34907"
           href="62169F12.png"
           id="image6562"
           x="52.144176"
           y="-11.413214" />
        <image
           style="opacity:0.75;fill:#ffffff;fill-rule:nonzero;stroke:url(#radialGradient8772);stroke-miterlimit:4"
           width="2.3444688"
           height="2.3444688"
           href="62169F13.png"
           id="image6570"
           x="57.770901"
           y="-10.94432" />
        <g
           transform="matrix(0.468894,0,0,0.468894,50.39042,-14.57365)"
           style="fill:#9db029;fill-rule:nonzero;stroke:url(#radialGradient8774);stroke-miterlimit:4"
           id="g6572">
          <path
             d="M 16.7656,9.5649 L 17.4922,10.0586 L 18.0742,10.0586 L 18.0742,9.4829 L 17.3476,9.1538 L 16.7656,9.5649"
             id="path6574"
             style="fill:#9db029;stroke:url(#radialGradient9179)" />
        </g>
        <image
           style="opacity:0.75;fill:#ffffff;fill-rule:nonzero;stroke:url(#radialGradient8778);stroke-miterlimit:4"
           width="4.2200437"
           height="3.2822564"
           href="62169F14.png"
           id="image6578"
           x="56.36422"
           y="-11.882107" />
        <image
           style="opacity:0.75;fill:#ffffff;fill-rule:nonzero;stroke:url(#radialGradient8780);stroke-miterlimit:4"
           width="3.7511499"
           height="2.8133626"
           href="2D44FCEC.png"
           id="image6606"
           x="57.30201"
           y="-12.819895" />
        <g
           transform="matrix(0.468894,0,0,0.468894,50.96494,-14.52946)"
           style="fill:#9db029;fill-rule:nonzero;stroke:url(#radialGradient8782);stroke-miterlimit:4"
           id="g6608">
          <path
             d="M 17.4922,7.887132 L 17.856,7.558532 L 18.5831,7.393932 C 19.0811,7.151732 19.5811,6.988632 20.1095,6.817732 L 19.8195,6.324032 L 18.881,6.458832 L 18.4376,6.900732 L 17.7066,7.006732 L 17.0567,7.311932 L 16.7408,7.464732 L 16.5479,7.723032 L 17.4922,7.887132"
             id="path6610"
             style="fill:#9db029;stroke:url(#radialGradient9181)" />
        </g>
        <image
           style="opacity:0.75;fill:#ffffff;fill-rule:nonzero;stroke:url(#radialGradient8786);stroke-miterlimit:4"
           width="2.3444688"
           height="2.3444688"
           href="2D44FCED.png"
           id="image6614"
           x="58.239796"
           y="-8.5998507" />
        <g
           transform="matrix(0.468894,0,0,0.468894,50.56718,-14.30851)"
           style="fill:#9db029;fill-rule:nonzero;stroke:url(#radialGradient8788);stroke-miterlimit:4"
           id="g6616">
          <path
             d="M 18.7285,14.6665 L 19.165,14.0083 L 18.5102,13.5151 L 18.7285,14.6665"
             id="path6618"
             style="fill:#9db029;stroke:url(#radialGradient9183)" />
        </g>
        <image
           style="opacity:0.15750002;fill:#ffffff;fill-rule:nonzero;stroke:url(#radialGradient8792);stroke-miterlimit:4"
           width="10.784556"
           height="16.411282"
           href="2D44FCEE.png"
           id="image6624"
           x="61.522053"
           y="-11.413214" />
        <image
           style="opacity:0.15750002;fill:#ffffff;fill-rule:nonzero;stroke:url(#radialGradient8794);stroke-miterlimit:4"
           width="2.3444688"
           height="2.3444688"
           href="2D44FCEF.png"
           id="image6632"
           x="61.990948"
           y="-10.94432" />
        <image
           style="opacity:0.15750002;fill:#ffffff;fill-rule:nonzero;stroke:url(#radialGradient8796);stroke-miterlimit:4"
           width="5.6267252"
           height="4.6889377"
           href="2D44FCF0.png"
           id="image6640"
           x="58.708691"
           y="-12.819895" />
        <image
           style="opacity:0.15750002;fill:#ffffff;fill-rule:nonzero;stroke:url(#radialGradient8798);stroke-miterlimit:4"
           width="2.3444688"
           height="2.3444688"
           href="2D44FCF1.png"
           id="image6648"
           x="62.928734"
           y="-9.5376387" />
        <image
           style="opacity:0.15750002;fill:#ffffff;fill-rule:nonzero;stroke:url(#radialGradient8800);stroke-miterlimit:4"
           width="2.3444688"
           height="3.2822564"
           href="2D44FCF2.png"
           id="image6656"
           x="63.397629"
           y="-10.006532" />
        <image
           style="opacity:0.15750002;fill:#ffffff;fill-rule:nonzero;stroke:url(#radialGradient8802);stroke-miterlimit:4"
           width="9.8467684"
           height="17.34907"
           href="2D44FCF3.png"
           id="image6664"
           x="52.144176"
           y="-11.413214" />
        <image
           style="opacity:0.15750002;fill:#ffffff;fill-rule:nonzero;stroke:url(#radialGradient8804);stroke-miterlimit:4"
           width="2.3444688"
           height="2.3444688"
           href="2D44FCF4.png"
           id="image6672"
           x="57.770901"
           y="-10.94432" />
        <image
           style="opacity:0.15750002;fill:#ffffff;fill-rule:nonzero;stroke:url(#radialGradient8806);stroke-miterlimit:4"
           width="4.2200437"
           height="3.2822564"
           href="2D44FCF5.png"
           id="image6680"
           x="56.36422"
           y="-11.882107" />
        <image
           style="opacity:0.15750002;fill:#ffffff;fill-rule:nonzero;stroke:url(#radialGradient8808);stroke-miterlimit:4"
           width="3.7511499"
           height="2.8133626"
           href="2D44FD11.png"
           id="image6708"
           x="57.30201"
           y="-12.819895" />
        <image
           style="opacity:0.15750002;fill:#ffffff;fill-rule:nonzero;stroke:url(#radialGradient8810);stroke-miterlimit:4"
           width="2.3444688"
           height="2.3444688"
           href="2D44FD12.png"
           id="image6716"
           x="58.239796"
           y="-8.5998507" />
        <g
           transform="matrix(0.468894,0,0,0.468894,50.74397,-14.61784)"
           style="fill:url(#radialGradient9185);fill-opacity:1;fill-rule:nonzero;stroke:url(#radialGradient8812);stroke-miterlimit:4"
           id="g6564">
          <path
             d="M 17.943241,27.768799 L 17.424668,26.742079 L 16.453191,26.522353 L 15.935064,25.130138 L 14.639881,25.276354 L 13.539117,24.470606 L 12.372685,25.496524 L 12.372685,25.658333 C 12.019842,25.55649 11.586095,25.54259 11.271922,25.349417 L 11.012635,24.616733 L 11.012635,23.810095 L 10.235579,23.883158 C 10.300445,23.369754 10.364776,22.85724 10.430088,22.343925 L 9.9762924,22.343925 L 9.523388,22.930393 L 9.0695925,23.149672 L 8.4217333,22.784177 L 8.3568672,21.977538 L 8.4865103,21.097836 L 9.4584328,20.365152 L 10.23549,20.365152 L 10.364687,19.9249 L 11.336164,20.144179 L 12.0488,21.024772 L 12.178443,19.557711 L 13.409207,18.531793 L 13.862557,17.431921 L 14.769256,17.065623 L 15.287383,16.332939 L 16.452924,16.111966 L 17.036363,15.233155 C 16.45337,15.233155 15.870376,15.233155 15.287383,15.233155 L 16.388503,14.719751 L 17.165115,14.719751 L 18.26668,14.352562 L 18.396323,13.914003 L 18.007394,13.546815 L 17.554044,13.399797 L 17.683687,12.960347 L 17.35998,12.300815 L 16.582478,12.593158 L 16.712121,12.007136 L 15.805421,11.493731 L 15.093231,12.739285 L 15.157651,13.179537 L 14.445461,13.473662 L 13.991665,14.426428 L 13.797601,13.546726 L 12.566838,13.033321 L 12.372329,12.37379 L 13.991665,11.420133 L 14.704301,10.760601 L 14.769167,9.9544084 L 14.380684,9.7342382 L 13.862557,9.6607292 L 13.53885,10.467367 C 13.53885,10.467367 12.9972,10.573488 12.857934,10.607881 C 11.079373,12.246819 7.4857189,15.784785 6.650835,22.463945 C 6.6838918,22.618804 7.2560145,23.516772 7.2560145,23.516772 L 8.6160643,24.322519 L 9.9761142,24.689708 L 10.559553,25.423194 L 11.465807,26.082725 L 11.983934,26.009662 L 12.372418,26.184569 L 12.372418,26.302896 L 11.854647,27.695557 L 11.465718,28.282025 L 11.595361,28.57615 L 11.271654,29.674241 L 12.437641,31.800833 L 13.603181,32.827553 L 14.121754,33.560237 L 14.056531,35.100362 L 14.445461,35.979173 L 14.056531,37.665514 C 14.056531,37.665514 14.026058,37.655089 14.075688,37.823848 C 14.125763,37.992695 16.150958,39.116893 16.27971,39.021198 C 16.408017,38.92372 16.517701,38.83845 16.517701,38.83845 L 16.388503,38.472954 L 16.906274,37.95955 L 17.100783,37.446145 L 17.943063,37.15202 L 18.590476,35.538832 L 18.396413,35.100273 L 18.848871,34.440741 L 19.820794,34.219769 L 20.339366,33.046833 L 20.209723,31.581554 L 20.98678,30.481681 L 21.116423,29.381808 C 20.053082,28.854504 18.998473,28.311518 17.943063,27.76862"
             id="path6566"
             style="fill:url(#radialGradient9187);fill-opacity:1;stroke:url(#radialGradient9189)" />
        </g>
        <g
           transform="matrix(0.468894,0,0,0.468894,50.523,-14.44107)"
           style="fill:url(#radialGradient9191);fill-opacity:1;fill-rule:nonzero;stroke:url(#radialGradient8816);stroke-miterlimit:4"
           id="g6540">
          <path
             d="M 26.8701,6.6933256 L 24.9795,5.9526256 L 22.7998,6.1992256 L 20.1094,6.9394256 L 19.6006,7.4335256 L 21.2725,8.5849256 L 21.2725,9.2431256 L 20.6182,9.9013256 L 21.4912,11.630324 L 22.0713,11.300224 L 22.7998,10.148825 C 23.9228,9.8016256 24.9297,9.4081256 25.9971,8.9144256 L 26.8701,6.6932256"
             id="path6542"
             style="fill:url(#radialGradient9193);fill-opacity:1;stroke:url(#radialGradient9195)" />
        </g>
        <g
           transform="matrix(0.468894,0,0,0.468894,50.83236,-14.75043)"
           style="fill:url(#radialGradient9197);fill-opacity:1;fill-rule:nonzero;stroke:url(#radialGradient8820);stroke-miterlimit:4"
           id="g6580">
          <path
             d="M 15.187259,9.6334723 L 14.823459,10.538271 L 15.550559,10.538271 L 15.914359,9.7154723 C 16.227859,9.4937723 16.539859,9.2706723 16.859159,9.0572723 L 17.586259,9.3043723 C 18.070659,9.6334723 18.555059,9.9625723 19.039859,10.291172 L 19.767359,9.6334723 L 18.967059,9.3043723 L 18.603259,8.5636723 L 17.222359,8.3990723 L 17.149559,7.9874723 L 16.495259,8.1524723 L 16.204859,8.7282723 L 15.841059,7.9875723 L 15.696059,8.3166723 L 15.768859,9.1394723 L 15.187259,9.6334723"
             id="path6582"
             style="fill:url(#radialGradient9199);fill-opacity:1;stroke:url(#radialGradient9201)" />
        </g>
        <g
           transform="matrix(0.468894,0,0,0.468894,50.12526,-14.48526)"
           style="fill:url(#radialGradient9203);fill-opacity:1;fill-rule:nonzero;stroke:url(#radialGradient8824);stroke-miterlimit:4"
           id="g6626">
          <path
             d="M 42.893123,20.729176 C 42.893123,20.97037 42.893123,20.729176 42.893123,20.729176 L 42.392832,21.295848 C 42.086175,20.934471 41.741875,20.630568 41.392249,20.313169 L 40.624781,20.4261 L 39.923602,19.633475 L 39.923602,20.614409 L 40.524337,21.068977 L 40.924185,21.521801 L 41.458539,20.917485 C 41.593045,21.169421 41.725716,21.421357 41.859304,21.673293 L 41.859304,22.428275 L 41.257651,23.107877 L 40.156625,23.863685 L 39.322775,24.69579 L 38.788421,24.089638 L 39.055598,23.410035 L 38.522071,22.80572 L 37.621014,20.87975 L 36.853546,20.011838 L 36.652658,20.237791 L 36.953898,21.333492 L 37.52057,21.975451 C 37.844212,22.909744 38.164366,23.802721 38.58937,24.69579 C 39.248406,24.69579 39.869708,24.625828 40.524245,24.54338 L 40.524245,25.072409 L 39.723541,27.036481 L 38.989217,27.86675 L 38.388482,29.152504 C 38.388482,29.857264 38.388482,30.562024 38.388482,31.266692 L 38.58937,32.098797 L 38.255812,32.475415 L 37.52057,32.929065 L 36.753102,33.571024 L 37.3879,34.288362 L 36.519988,35.045089 L 36.686721,35.534638 L 35.384807,37.008702 L 34.517813,37.008702 L 33.783489,37.462352 L 33.315425,37.462352 L 33.315425,36.858036 L 33.116373,35.647568 C 32.858102,34.889006 32.589181,34.13586 32.315668,33.382715 C 32.315668,32.826785 32.348813,32.276272 32.382049,31.720433 L 32.716526,30.965452 L 32.248461,30.05806 L 32.282524,28.811785 L 31.647726,28.094447 L 31.965125,27.056129 L 31.448674,26.470176 L 30.5467,26.470176 L 30.246378,26.130375 L 29.345321,26.697506 L 28.978619,26.28104 L 28.143851,26.998746 C 27.577179,26.356327 27.009588,25.714368 26.44209,25.072409 L 25.774974,23.485414 L 26.375709,22.579859 L 26.042151,22.202414 L 26.775556,20.463835 C 27.378127,19.714271 28.007508,18.995188 28.644142,18.273443 L 29.779231,17.971285 L 31.047083,17.820619 L 31.914995,18.04749 L 33.14961,19.292847 L 33.583611,18.80238 L 34.183428,18.727093 L 35.318517,19.104538 L 36.18643,19.104538 L 36.787165,18.575509 L 37.054342,18.198064 L 36.452688,17.820619 L 35.451188,17.745332 C 35.173269,17.359808 34.914998,16.954543 34.58502,16.611988 L 34.250544,16.762653 L 34.116955,17.745332 L 33.51622,17.065729 L 33.38355,16.309003 L 32.716434,15.781811 L 32.448339,15.781811 L 33.116281,16.536792 L 32.849104,17.216395 L 32.315577,17.367061 L 32.649135,16.687458 L 32.047481,16.386218 L 31.514872,15.781903 L 30.512453,16.007855 L 30.379783,16.309095 L 29.779048,16.687458 L 29.44549,17.518645 L 28.61164,17.933733 L 28.24402,17.518645 L 27.844172,17.518645 L 27.844172,16.158521 L 28.712084,15.704871 L 29.3792,15.704871 L 29.244694,15.176761 L 28.712084,14.647732 L 29.612315,14.458504 L 30.112606,13.89275 L 30.512453,13.212229 L 31.247695,13.212229 L 31.046807,12.684119 L 31.514872,12.381961 L 31.514872,12.986276 L 32.515454,13.212229 L 33.516037,12.381961 L 33.583244,12.003598 L 34.450238,11.399741 C 34.13642,11.438762 33.822602,11.467407 33.515945,11.550866 L 33.515945,10.870437 L 33.849503,10.114996 L 33.515945,10.114996 L 32.782907,10.794599 L 32.582019,11.172503 L 32.782907,11.701991 L 32.448431,12.607546 L 31.914903,12.305388 L 31.448674,11.777278 L 30.713433,12.305388 L 30.446256,11.097216 L 31.714107,10.266488 L 31.714107,9.8128376 L 32.515638,9.284268 L 33.783489,8.981651 L 34.651401,9.284268 L 36.252719,9.5864259 L 35.852871,10.03925 L 34.984959,10.03925 L 35.852871,10.945724 L 36.519988,10.190742 L 36.72262,9.8585606 C 36.72262,9.8585606 39.281551,12.15206 40.743955,14.660861 C 42.206359,17.170489 42.893123,20.128441 42.893123,20.729176 z"
             id="path6628"
             style="fill:url(#radialGradient9205);fill-opacity:1;stroke:url(#radialGradient9207)" />
        </g>
      </g>
    </g>
  </g>
</svg>
