<?xml version="1.0" encoding="UTF-8" standalone="no"?>
<!-- Created with Inkscape (http://www.inkscape.org/) -->

<svg
   xmlns:dc="http://purl.org/dc/elements/1.1/"
   xmlns:cc="http://creativecommons.org/ns#"
   xmlns:rdf="http://www.w3.org/1999/02/22-rdf-syntax-ns#"
   xmlns:svg="http://www.w3.org/2000/svg"
   xmlns="http://www.w3.org/2000/svg"
   xmlns:xlink="http://www.w3.org/1999/xlink"
   xmlns:sodipodi="http://sodipodi.sourceforge.net/DTD/sodipodi-0.dtd"
   xmlns:inkscape="http://www.inkscape.org/namespaces/inkscape"
   width="48"
   height="48"
   id="svg1306"
   sodipodi:version="0.32"
   inkscape:version="0.47pre4 r22446"
   sodipodi:docname="link_handler.svg"
   inkscape:export-filename="/home/lapo/Desktop/insert-link-16.png"
   inkscape:export-xdpi="90.000031"
   inkscape:export-ydpi="90.000031"
   version="1.0"
   inkscape:output_extension="org.inkscape.output.svg.inkscape">
  <defs
     id="defs1308">
    <inkscape:perspective
       sodipodi:type="inkscape:persp3d"
       inkscape:vp_x="0 : 24 : 1"
       inkscape:vp_y="0 : 1000 : 0"
       inkscape:vp_z="48 : 24 : 1"
       inkscape:persp3d-origin="24 : 16 : 1"
       id="perspective118" />
    <linearGradient
       inkscape:collect="always"
       id="linearGradient3346">
      <stop
         style="stop-color:#555753;stop-opacity:1"
         offset="0"
         id="stop3349" />
      <stop
         style="stop-color:#d3d7cf;stop-opacity:0;"
         offset="1"
         id="stop3351" />
    </linearGradient>
    <linearGradient
       id="linearGradient3325"
       inkscape:collect="always">
      <stop
         id="stop3327"
         offset="0"
         style="stop-color:#babdb6;stop-opacity:1" />
      <stop
         id="stop3333"
         offset="1"
         style="stop-color:#d3d7cf;stop-opacity:0;" />
    </linearGradient>
    <linearGradient
       inkscape:collect="always"
       id="linearGradient3284">
      <stop
         style="stop-color:#ce5c00;stop-opacity:1;"
         offset="0"
         id="stop3286" />
      <stop
         style="stop-color:#f57900;stop-opacity:1"
         offset="1"
         id="stop3288" />
    </linearGradient>
    <linearGradient
       inkscape:collect="always"
       id="linearGradient3276">
      <stop
         style="stop-color:white;stop-opacity:1;"
         offset="0"
         id="stop3278" />
      <stop
         style="stop-color:white;stop-opacity:0;"
         offset="1"
         id="stop3280" />
    </linearGradient>
    <linearGradient
       id="linearGradient3269">
      <stop
         id="stop3271"
         offset="0"
         style="stop-color:#fecb81;stop-opacity:1" />
      <stop
         id="stop3273"
         offset="1"
         style="stop-color:#fcaf3e;stop-opacity:1" />
    </linearGradient>
    <linearGradient
       id="linearGradient2397"
       inkscape:collect="always">
      <stop
         id="stop2399"
         offset="0"
         style="stop-color:#555753;stop-opacity:1" />
      <stop
         id="stop2401"
         offset="1"
         style="stop-color:#888a85;stop-opacity:0;" />
    </linearGradient>
    <linearGradient
       id="linearGradient2391"
       inkscape:collect="always">
      <stop
         id="stop2393"
         offset="0"
         style="stop-color:#555753;stop-opacity:1" />
      <stop
         id="stop2395"
         offset="1"
         style="stop-color:#888a85;stop-opacity:0;" />
    </linearGradient>
    <linearGradient
       id="linearGradient2379"
       inkscape:collect="always">
      <stop
         id="stop2381"
         offset="0"
         style="stop-color:#555753;stop-opacity:1" />
      <stop
         id="stop2383"
         offset="1"
         style="stop-color:#888a85;stop-opacity:0;" />
    </linearGradient>
    <linearGradient
       inkscape:collect="always"
       id="linearGradient3487">
      <stop
         style="stop-color:white;stop-opacity:1"
         offset="0"
         id="stop3489" />
      <stop
         style="stop-color:#eeeeec;stop-opacity:0;"
         offset="1"
         id="stop3491" />
    </linearGradient>
    <linearGradient
       id="linearGradient3473">
      <stop
         style="stop-color:#888a85;stop-opacity:1"
         offset="0"
         id="stop3475" />
      <stop
         id="stop3481"
         offset="0.5"
         style="stop-color:#eeeeec;stop-opacity:1;" />
      <stop
         style="stop-color:#cecec8;stop-opacity:1;"
         offset="1"
         id="stop3477" />
    </linearGradient>
    <linearGradient
       inkscape:collect="always"
       id="linearGradient3303">
      <stop
         style="stop-color:#888a85;stop-opacity:1"
         offset="0"
         id="stop3305" />
      <stop
         style="stop-color:#eeeeec;stop-opacity:1"
         offset="1"
         id="stop3307" />
    </linearGradient>
    <linearGradient
       inkscape:collect="always"
       id="linearGradient3417">
      <stop
         style="stop-color:white;stop-opacity:1"
         offset="0"
         id="stop3419" />
      <stop
         style="stop-color:#eeeeec;stop-opacity:0;"
         offset="1"
         id="stop3421" />
    </linearGradient>
    <linearGradient
       id="linearGradient3397"
       inkscape:collect="always">
      <stop
         id="stop3399"
         offset="0"
         style="stop-color:#555753;stop-opacity:1" />
      <stop
         id="stop3401"
         offset="1"
         style="stop-color:#d3d7cf;stop-opacity:0;" />
    </linearGradient>
    <linearGradient
       id="linearGradient3387">
      <stop
         style="stop-color:#8f9388;stop-opacity:1;"
         offset="0"
         id="stop3389" />
      <stop
         id="stop3354"
         offset="0.5"
         style="stop-color:#c6cac2;stop-opacity:1;" />
      <stop
         style="stop-color:#d3d7cf;stop-opacity:0;"
         offset="1"
         id="stop3391" />
    </linearGradient>
    <linearGradient
       inkscape:collect="always"
       id="linearGradient3377">
      <stop
         style="stop-color:#555753;stop-opacity:1"
         offset="0"
         id="stop3379" />
      <stop
         style="stop-color:#888a85;stop-opacity:0;"
         offset="1"
         id="stop3381" />
    </linearGradient>
    <linearGradient
       inkscape:collect="always"
       id="linearGradient3359">
      <stop
         style="stop-color:white;stop-opacity:1;"
         offset="0"
         id="stop3361" />
      <stop
         style="stop-color:white;stop-opacity:0;"
         offset="1"
         id="stop3363" />
    </linearGradient>
    <linearGradient
       inkscape:collect="always"
       id="linearGradient3351">
      <stop
         style="stop-color:white;stop-opacity:1;"
         offset="0"
         id="stop3353" />
      <stop
         style="stop-color:white;stop-opacity:0;"
         offset="1"
         id="stop3355" />
    </linearGradient>
    <linearGradient
       inkscape:collect="always"
       id="linearGradient3327">
      <stop
         style="stop-color:white;stop-opacity:1;"
         offset="0"
         id="stop3329" />
      <stop
         style="stop-color:white;stop-opacity:0;"
         offset="1"
         id="stop3331" />
    </linearGradient>
    <linearGradient
       inkscape:collect="always"
       id="linearGradient3188">
      <stop
         style="stop-color:black;stop-opacity:1;"
         offset="0"
         id="stop3190" />
      <stop
         style="stop-color:black;stop-opacity:0;"
         offset="1"
         id="stop3192" />
    </linearGradient>
    <radialGradient
       inkscape:collect="always"
       xlink:href="#linearGradient3487"
       id="radialGradient2504"
       gradientUnits="userSpaceOnUse"
       gradientTransform="matrix(0.21225,0,0,0.254807,12.01156,16.32913)"
       cx="7.0126991"
       cy="22.25555"
       fx="7.0126991"
       fy="22.25555"
       r="13" />
    <linearGradient
       inkscape:collect="always"
       xlink:href="#linearGradient3303"
       id="linearGradient2506"
       gradientUnits="userSpaceOnUse"
       x1="23.467106"
       y1="20.201925"
       x2="23.467106"
       y2="17.015749" />
    <linearGradient
       inkscape:collect="always"
       xlink:href="#linearGradient3397"
       id="linearGradient2508"
       gradientUnits="userSpaceOnUse"
       x1="32.309578"
       y1="15.875"
       x2="44.187737"
       y2="15.875" />
    <linearGradient
       inkscape:collect="always"
       xlink:href="#linearGradient3377"
       id="linearGradient2510"
       gradientUnits="userSpaceOnUse"
       x1="37.124252"
       y1="13.375"
       x2="47.5625"
       y2="13.375" />
    <linearGradient
       inkscape:collect="always"
       xlink:href="#linearGradient3359"
       id="linearGradient2512"
       gradientUnits="userSpaceOnUse"
       x1="37.551125"
       y1="26.433243"
       x2="46.821011"
       y2="26.433243" />
    <linearGradient
       inkscape:collect="always"
       xlink:href="#linearGradient3325"
       id="linearGradient2514"
       gradientUnits="userSpaceOnUse"
       x1="36.122208"
       y1="15.875"
       x2="47.312737"
       y2="15.875" />
    <linearGradient
       inkscape:collect="always"
       xlink:href="#linearGradient2397"
       id="linearGradient2516"
       gradientUnits="userSpaceOnUse"
       x1="41.125"
       y1="13.375"
       x2="47.5625"
       y2="13.375" />
    <radialGradient
       inkscape:collect="always"
       xlink:href="#linearGradient3417"
       id="radialGradient2518"
       gradientUnits="userSpaceOnUse"
       gradientTransform="matrix(1.027139,7.049762e-7,-2.341676e-7,0.341179,-0.857269,11.25477)"
       cx="31.349806"
       cy="14.914701"
       fx="31.349794"
       fy="14.914677"
       r="12" />
    <linearGradient
       inkscape:collect="always"
       xlink:href="#linearGradient3351"
       id="linearGradient2520"
       gradientUnits="userSpaceOnUse"
       x1="35.176235"
       y1="17.240854"
       x2="47.651093"
       y2="17.240854" />
    <linearGradient
       inkscape:collect="always"
       xlink:href="#linearGradient3327"
       id="linearGradient2522"
       gradientUnits="userSpaceOnUse"
       x1="35.253414"
       y1="14.589205"
       x2="48.08326"
       y2="14.589205" />
    <linearGradient
       inkscape:collect="always"
       xlink:href="#linearGradient3359"
       id="linearGradient2524"
       gradientUnits="userSpaceOnUse"
       x1="37.551125"
       y1="26.433243"
       x2="46.258511"
       y2="26.433243" />
    <linearGradient
       inkscape:collect="always"
       xlink:href="#linearGradient3346"
       id="linearGradient2526"
       gradientUnits="userSpaceOnUse"
       x1="34.122208"
       y1="15.8125"
       x2="44.853527"
       y2="16.0625" />
    <linearGradient
       inkscape:collect="always"
       xlink:href="#linearGradient2391"
       id="linearGradient2528"
       gradientUnits="userSpaceOnUse"
       x1="37.5"
       y1="13.4375"
       x2="47.5625"
       y2="13.375" />
    <linearGradient
       inkscape:collect="always"
       xlink:href="#linearGradient3359"
       id="linearGradient2530"
       gradientUnits="userSpaceOnUse"
       x1="37.551125"
       y1="26.433243"
       x2="44.822086"
       y2="26.433243" />
    <linearGradient
       inkscape:collect="always"
       xlink:href="#linearGradient3387"
       id="linearGradient2532"
       gradientUnits="userSpaceOnUse"
       x1="29.861185"
       y1="15.875"
       x2="46.562737"
       y2="15.875" />
    <linearGradient
       inkscape:collect="always"
       xlink:href="#linearGradient2379"
       id="linearGradient2534"
       gradientUnits="userSpaceOnUse"
       x1="41.125"
       y1="13.375"
       x2="47.5625"
       y2="13.375" />
    <radialGradient
       inkscape:collect="always"
       xlink:href="#linearGradient3417"
       id="radialGradient2536"
       gradientUnits="userSpaceOnUse"
       gradientTransform="matrix(0.751224,2.345941e-6,-7.16423e-7,0.229414,8.256114,12.93155)"
       cx="35.973373"
       cy="14.052355"
       fx="35.973362"
       fy="14.05233"
       r="12" />
    <linearGradient
       inkscape:collect="always"
       xlink:href="#linearGradient3351"
       id="linearGradient2538"
       gradientUnits="userSpaceOnUse"
       x1="35.176235"
       y1="17.240854"
       x2="47.651093"
       y2="17.240854" />
    <linearGradient
       inkscape:collect="always"
       xlink:href="#linearGradient3327"
       id="linearGradient2540"
       gradientUnits="userSpaceOnUse"
       x1="35.253414"
       y1="14.589205"
       x2="48.08326"
       y2="14.589205" />
    <linearGradient
       inkscape:collect="always"
       xlink:href="#linearGradient3359"
       id="linearGradient2542"
       gradientUnits="userSpaceOnUse"
       x1="37.551125"
       y1="26.433243"
       x2="44.571289"
       y2="26.433243" />
    <linearGradient
       inkscape:collect="always"
       xlink:href="#linearGradient3473"
       id="linearGradient2544"
       gradientUnits="userSpaceOnUse"
       x1="20"
       y1="24"
       x2="20"
       y2="19.121248" />
    <linearGradient
       inkscape:collect="always"
       xlink:href="#linearGradient3269"
       id="linearGradient2546"
       gradientUnits="userSpaceOnUse"
       x1="22.750002"
       y1="40.000755"
       x2="23.062502"
       y2="36.472179" />
    <linearGradient
       inkscape:collect="always"
       xlink:href="#linearGradient3284"
       id="linearGradient2548"
       gradientUnits="userSpaceOnUse"
       x1="17.25"
       y1="41.147343"
       x2="17.25"
       y2="36.103439" />
    <linearGradient
       inkscape:collect="always"
       xlink:href="#linearGradient3276"
       id="linearGradient2550"
       gradientUnits="userSpaceOnUse"
       x1="18.875"
       y1="35.183414"
       x2="18.875"
       y2="43.978611" />
    <radialGradient
       inkscape:collect="always"
       xlink:href="#linearGradient3188"
       id="radialGradient2552"
       gradientUnits="userSpaceOnUse"
       gradientTransform="matrix(1,0,0,0.194656,0,34.62977)"
       cx="23.8125"
       cy="43"
       fx="23.8125"
       fy="43"
       r="16.375" />
  </defs>
  <sodipodi:namedview
     id="base"
     pagecolor="#ffffff"
     bordercolor="#666"
     borderopacity="1"
     inkscape:pageopacity="0.0"
     inkscape:pageshadow="2"
     inkscape:zoom="1.4142136"
     inkscape:cx="-71.544452"
     inkscape:cy="31.751968"
     inkscape:current-layer="layer1"
     showgrid="true"
     inkscape:grid-bbox="true"
     inkscape:document-units="px"
     fill="#fcaf3e"
     stroke="#555753"
     showguides="true"
     inkscape:guide-bbox="true"
     inkscape:window-width="1085"
     inkscape:window-height="760"
     inkscape:window-x="189"
     inkscape:window-y="97"
     inkscape:showpageshadow="false"
     showborder="true"
     inkscape:grid-points="true"
     width="48px"
     height="48px"
     inkscape:window-maximized="0">
    <inkscape:grid
       id="GridFromPre046Settings"
       type="xygrid"
       originx="0px"
       originy="0px"
       spacingx="0.5px"
       spacingy="0.5px"
       color="#0000ff"
       empcolor="#0000ff"
       opacity="0.2"
       empopacity="0.4"
       empspacing="2" />
  </sodipodi:namedview>
  <metadata
     id="metadata1311">
    <rdf:RDF>
      <cc:Work
         rdf:about="">
        <dc:format>image/svg+xml</dc:format>
        <dc:type
           rdf:resource="http://purl.org/dc/dcmitype/StillImage" />
        <dc:title>Insert Link</dc:title>
        <dc:creator>
          <cc:Agent>
            <dc:title>Lapo Calamandrei</dc:title>
          </cc:Agent>
        </dc:creator>
        <dc:source>http://www.gnome.org</dc:source>
        <dc:contributor>
          <cc:Agent>
            <dc:title />
          </cc:Agent>
        </dc:contributor>
        <cc:license
           rdf:resource="http://creativecommons.org/licenses/GPL/2.0/" />
        <dc:subject>
          <rdf:Bag>
            <rdf:li>insert</rdf:li>
            <rdf:li>link</rdf:li>
            <rdf:li>anchor</rdf:li>
            <rdf:li>url</rdf:li>
            <rdf:li>generic</rdf:li>
          </rdf:Bag>
        </dc:subject>
      </cc:Work>
      <cc:License
         rdf:about="http://creativecommons.org/licenses/GPL/2.0/">
        <cc:permits
           rdf:resource="http://web.resource.org/cc/Reproduction" />
        <cc:permits
           rdf:resource="http://web.resource.org/cc/Distribution" />
        <cc:requires
           rdf:resource="http://web.resource.org/cc/Notice" />
        <cc:permits
           rdf:resource="http://web.resource.org/cc/DerivativeWorks" />
        <cc:requires
           rdf:resource="http://web.resource.org/cc/ShareAlike" />
        <cc:requires
           rdf:resource="http://web.resource.org/cc/SourceCode" />
      </cc:License>
    </rdf:RDF>
  </metadata>
  <g
     id="layer1"
     inkscape:label="Layer 1"
     inkscape:groupmode="layer">
    <g
       id="g3410"
       transform="matrix(0.98906755,0.88877484,-0.87874223,1.0003597,16.178189,-17.616754)">
      <rect
         y="16.499998"
         x="15.499967"
         height="5.0000014"
         width="17.000036"
         id="rect2308"
         style="fill:url(#linearGradient2506);fill-opacity:1;stroke:#555753;stroke-width:0.99999952;stroke-linecap:round;stroke-linejoin:miter;stroke-miterlimit:4;stroke-opacity:1;stroke-dasharray:none;stroke-dashoffset:1.4" />
      <path
         sodipodi:nodetypes="ccccc"
         id="path2387"
         d="m 26.5,22.5 c 0,3 5.201962,5.000001 6.9375,5 l 17.0625,0 0,-5 -24,0 z"
         style="fill:url(#linearGradient2508);fill-opacity:1;stroke:url(#linearGradient2510);stroke-width:0.99999917;stroke-linecap:round;stroke-linejoin:miter;stroke-miterlimit:4;stroke-opacity:1;stroke-dasharray:none;stroke-dashoffset:1.4" />
      <path
         sodipodi:nodetypes="ccc"
         id="path3315"
         d="m 49.5,23.5 -14.59375,0 c -0.402974,0.324101 -0.877334,0.5 -1.375,0.5"
         style="opacity:0.7;fill:none;stroke:url(#linearGradient2512);stroke-width:0.99999917;stroke-linecap:round;stroke-linejoin:miter;stroke-miterlimit:4;stroke-opacity:1;stroke-dasharray:none;stroke-dashoffset:1.4" />
      <path
         id="rect2342"
         d="M 11.1875,18.5 C 10.768143,19.213373 10.5,20.075257 10.5,21 c 0,2.492998 1.766265,4.499999 3.96875,4.5 l 19.0625,0 c 2.202485,0 3.968751,-2.007001 3.96875,-4.5 0,-0.924743 -0.268143,-1.786627 -0.6875,-2.5 L 34,18.5 c -1.211875,0 -2.205146,0.85874 -2.4375,2 L 30,20.5 25.53125,20.5 18,20.5 c -1.211876,1e-6 -2.205146,-0.85874 -2.4375,-2 l -4.375,0 z"
         style="fill:#d3d7cf;fill-opacity:1;stroke:#888a85;stroke-width:0.99999911;stroke-linecap:round;stroke-linejoin:miter;stroke-miterlimit:4;stroke-opacity:1;stroke-dasharray:none;stroke-dashoffset:1.4" />
      <path
         id="path3301"
         d="m 17.5,17.5 13,0"
         style="opacity:0.5;fill:none;stroke:#ffffff;stroke-width:1px;stroke-linecap:butt;stroke-linejoin:miter;stroke-opacity:1" />
      <path
         sodipodi:nodetypes="ccccccc"
         id="path2389"
         d="m 32.4375,13.5 c -2.110715,0 -5.798132,3.08704 -5.9375,7 l 8.96875,0 0,-2 15.03125,0 0,-5 -18.0625,0 z"
         style="fill:url(#linearGradient2514);fill-opacity:1;stroke:url(#linearGradient2516);stroke-width:0.99999917;stroke-linecap:round;stroke-linejoin:miter;stroke-miterlimit:4;stroke-opacity:1;stroke-dasharray:none;stroke-dashoffset:1.4" />
      <path
         d="m 32.4375,13.96875 c -0.826833,0 -2.235751,0.681052 -3.375,1.875 -1.033483,1.083104 -1.837153,2.571494 -2.03125,4.1875 L 35,20.03125 35,18.5 a 0.46879688,0.46879688 0 0 1 0.46875,-0.46875 l 14.5625,0 0,-4.0625 -17.59375,0 z"
         id="path3407"
         style="opacity:0.8;fill:url(#radialGradient2518);fill-opacity:1;stroke:none"
         inkscape:original="M 32.4375 13.5 C 30.326785 13.5 26.639368 16.58704 26.5 20.5 L 35.46875 20.5 L 35.46875 18.5 L 50.5 18.5 L 50.5 13.5 L 32.4375 13.5 z "
         inkscape:radius="-0.46875"
         sodipodi:type="inkscape:offset" />
      <path
         sodipodi:nodetypes="cscc"
         id="path3311"
         d="M 30.65625,22 C 30.562069,21.681452 30.5,21.350165 30.5,21 c 0,-1.921703 1.578298,-3.5 3.5,-3.5 l 15.5,0"
         style="opacity:0.6;fill:none;stroke:url(#linearGradient2520);stroke-width:0.99999917;stroke-linecap:round;stroke-linejoin:miter;stroke-miterlimit:4;stroke-opacity:1;stroke-dasharray:none;stroke-dashoffset:1.4" />
      <path
         sodipodi:nodetypes="ccscc"
         id="path3313"
         d="m 49.5,14.5 -17.0625,0 c -0.567839,0 -1.933132,0.600658 -3,1.71875 C 28.370632,17.336842 27.55885,18.847695 27.5,20.5 l 0,1.5"
         style="fill:none;stroke:url(#linearGradient2522);stroke-width:0.99999917;stroke-linecap:round;stroke-linejoin:miter;stroke-miterlimit:4;stroke-opacity:1;stroke-dasharray:none;stroke-dashoffset:1.4" />
      <path
         sodipodi:nodetypes="cscc"
         id="path3317"
         d="m 28.21875,24 c 0.402721,0.450694 0.936985,0.871288 1.59375,1.25 1.374593,0.792634 3.141359,1.25 3.625,1.25 l 16.0625,0"
         style="opacity:0.4;fill:none;stroke:url(#linearGradient2524);stroke-width:0.99999917;stroke-linecap:round;stroke-linejoin:miter;stroke-miterlimit:4;stroke-opacity:1;stroke-dasharray:none;stroke-dashoffset:1.4" />
      <g
         transform="matrix(-1,0,0,1,48,0)"
         id="g3264">
        <path
           style="fill:url(#linearGradient2526);fill-opacity:1;stroke:url(#linearGradient2528);stroke-width:0.99999917;stroke-linecap:round;stroke-linejoin:miter;stroke-miterlimit:4;stroke-opacity:1;stroke-dasharray:none;stroke-dashoffset:1.4"
           d="m 26.5,22.5 c 0,3 5.201962,5.000001 6.9375,5 l 17.0625,0 0,-5 -24,0 z"
           id="path3250"
           sodipodi:nodetypes="ccccc" />
        <path
           style="opacity:0.7;fill:none;stroke:url(#linearGradient2530);stroke-width:0.99999917;stroke-linecap:round;stroke-linejoin:miter;stroke-miterlimit:4;stroke-opacity:1;stroke-dasharray:none;stroke-dashoffset:1.4"
           d="m 49.5,23.5 -14.59375,0 c -0.402974,0.324101 -0.877334,0.5 -1.375,0.5"
           id="path3252"
           sodipodi:nodetypes="ccc" />
        <path
           style="fill:url(#linearGradient2532);fill-opacity:1;stroke:url(#linearGradient2534);stroke-width:0.99999917;stroke-linecap:round;stroke-linejoin:miter;stroke-miterlimit:4;stroke-opacity:1;stroke-dasharray:none;stroke-dashoffset:1.4"
           d="m 32.4375,13.5 c -2.110715,0 -5.798132,3.08704 -5.9375,7 l 8.96875,0 0,-2 15.03125,0 0,-5 -18.0625,0 z"
           id="path3254"
           sodipodi:nodetypes="ccccccc" />
        <path
           sodipodi:type="inkscape:offset"
           inkscape:radius="-0.46875"
           inkscape:original="M 32.4375 13.5 C 30.326785 13.5 26.639368 16.58704 26.5 20.5 L 35.46875 20.5 L 35.46875 18.5 L 50.5 18.5 L 50.5 13.5 L 32.4375 13.5 z "
           style="opacity:0.7;fill:url(#radialGradient2536);fill-opacity:1;stroke:none"
           id="path3256"
           d="m 32.4375,13.96875 c -0.826833,0 -2.235751,0.681052 -3.375,1.875 -1.033483,1.083104 -1.837153,2.571494 -2.03125,4.1875 L 35,20.03125 35,18.5 a 0.46879688,0.46879688 0 0 1 0.46875,-0.46875 l 14.5625,0 0,-4.0625 -17.59375,0 z" />
        <path
           style="opacity:0.6;fill:none;stroke:url(#linearGradient2538);stroke-width:0.99999917;stroke-linecap:round;stroke-linejoin:miter;stroke-miterlimit:4;stroke-opacity:1;stroke-dasharray:none;stroke-dashoffset:1.4"
           d="M 30.65625,22 C 30.562069,21.681452 30.5,21.350165 30.5,21 c 0,-1.921703 1.578298,-3.5 3.5,-3.5 l 15.5,0"
           id="path3258"
           sodipodi:nodetypes="cscc" />
        <path
           style="fill:none;stroke:url(#linearGradient2540);stroke-width:0.99999917;stroke-linecap:round;stroke-linejoin:miter;stroke-miterlimit:4;stroke-opacity:1;stroke-dasharray:none;stroke-dashoffset:1.4"
           d="m 49.5,14.5 -17.0625,0 c -0.567839,0 -1.933132,0.600658 -3,1.71875 C 28.370632,17.336842 27.55885,18.847695 27.5,20.5 l 0,1.5"
           id="path3260"
           sodipodi:nodetypes="ccscc" />
        <path
           style="opacity:0.5;fill:none;stroke:url(#linearGradient2542);stroke-width:0.99999917;stroke-linecap:round;stroke-linejoin:miter;stroke-miterlimit:4;stroke-opacity:1;stroke-dasharray:none;stroke-dashoffset:1.4"
           d="m 28.21875,24 c 0.402721,0.450694 0.936985,0.871288 1.59375,1.25 1.374593,0.792634 3.141359,1.25 3.625,1.25 l 16.0625,0"
           id="path3262"
           sodipodi:nodetypes="cscc" />
      </g>
      <path
         sodipodi:nodetypes="csccscccccc"
         id="path2369"
         d="M 11.1875,18.5 C 10.768143,19.213373 10.5,20.075257 10.5,21 c -10e-7,2.492999 1.766265,4.5 3.96875,4.5 l 19.0625,0 c 2.202485,0 3.968751,-2.007001 3.96875,-4.5 0,-0.924743 -0.268143,-1.786627 -0.6875,-2.5 L 34,18.5 c -1.211875,0 -2.205146,0.85874 -2.4375,2 l -15.125,0 C 16.205146,19.35874 15.211875,18.5 14,18.5 l -2.8125,0 z"
         style="fill:url(#linearGradient2544);fill-opacity:1;stroke:#555753;stroke-width:0.99999911;stroke-linecap:round;stroke-linejoin:round;stroke-miterlimit:4;stroke-opacity:1;stroke-dasharray:none;stroke-dashoffset:1.4" />
      <path
         sodipodi:nodetypes="cccsssssccssssssccsccscc"
         id="path3299"
         d="m 35.8125,18 0,0 z m -24.25,1 c -0.222326,0.430873 -0.440293,0.902367 -0.53125,1.40625 C 10.996251,20.600139 11,20.795284 11,21 c -10e-7,1.128418 0.401404,2.125855 1.03125,2.84375 0.157292,0.179772 0.315348,0.326549 0.5,0.46875 0.184652,0.142201 0.386524,0.275285 0.59375,0.375 C 13.539199,24.886185 13.994066,25 14.46875,25 l 19.0625,0 c 0.476038,0 0.929298,-0.11307 1.34375,-0.3125 0.207226,-0.09971 0.409098,-0.232799 0.59375,-0.375 0.184652,-0.142201 0.342708,-0.288978 0.5,-0.46875 C 36.598596,23.125854 37,22.128418 37,21 c 0,-0.183418 -0.01107,-0.355105 -0.03125,-0.53125 -0.0032,-0.01956 0.0035,-0.04305 0,-0.0625 C 36.877793,19.902367 36.659826,19.430873 36.4375,19 l -1.0625,0 c 0.377188,0.511977 0.625,1.196919 0.625,2 10e-7,1.794054 -1.182922,3 -2.46875,3 l -19.0625,0 C 13.182922,23.999999 12,22.794053 12,21 c 0,-0.803081 0.247812,-1.488023 0.625,-2 l -1.0625,0 z"
         style="opacity:0.5;fill:#ffffff;fill-opacity:1;stroke:none" />
      <path
         sodipodi:nodetypes="ccccccssccssc"
         id="rect3343"
         d="m 15,19.25 0,1.3125 C 15,21.350226 15.649774,22 16.4375,22 l 15.125,0 C 32.350226,22 33,21.350226 33,20.5625 L 33,19.25 c -0.481727,0.278997 -0.820899,0.771035 -0.9375,1.34375 C 32.04967,20.66098 32.00479,20.695863 31.96875,20.75 31.904537,20.908347 31.750768,21 31.5625,21 l -15.125,0 C 16.262617,21.0031 16.123355,20.888349 16.03125,20.75 15.99521,20.69586 15.95033,20.66098 15.9375,20.59375 15.820899,20.021035 15.481727,19.528997 15,19.25 z"
         style="opacity:0.8;fill:#ffffff;fill-opacity:1;stroke:none" />
    </g>
    <path
       sodipodi:type="inkscape:offset"
       inkscape:radius="-0.49999997"
       inkscape:original="M 11.1875 18.5 C 10.768143 19.213373 10.5 20.075257 10.5 21 C 10.499999 23.492999 12.266265 25.5 14.46875 25.5 L 33.53125 25.5 C 35.733735 25.5 37.500001 23.492999 37.5 21 C 37.5 20.075257 37.231857 19.213373 36.8125 18.5 L 34 18.5 C 32.788125 18.5 31.794854 19.35874 31.5625 20.5 L 16.4375 20.5 C 16.205146 19.35874 15.211875 18.5 14 18.5 L 11.1875 18.5 z "
       style="opacity:1;fill:url(#radialGradient2504);fill-opacity:1;stroke:none;stroke-width:0.99999911;stroke-linecap:round;stroke-linejoin:round;stroke-miterlimit:4;stroke-dasharray:none;stroke-dashoffset:1.4;stroke-opacity:1"
       id="path3485"
       d="M 11.5,19 C 11.198127,19.592213 11,20.27145 11,21 C 10.999999,23.256835 12.570013,25 14.46875,25 L 33.53125,25 C 35.429987,25 37.000001,23.256835 37,21 C 37,20.27145 36.801873,19.592213 36.5,19 L 34,19 C 33.024326,19 32.249062,19.677406 32.0625,20.59375 C 32.016889,20.832791 31.805816,21.004288 31.5625,21 L 16.4375,21 C 16.194184,21.004288 15.983111,20.832791 15.9375,20.59375 C 15.750938,19.677406 14.975674,19 14,19 L 11.5,19 z " />
  </g>
</svg>
