<?xml version="1.0" encoding="utf-8"?>
<!-- Generator: Adobe Illustrator 15.0.0, SVG Export Plug-In . SVG Version: 6.00 Build 0)  -->
<!DOCTYPE svg PUBLIC "-//W3C//DTD SVG 1.1//EN" "http://www.w3.org/Graphics/SVG/1.1/DTD/svg11.dtd">
<svg version="1.1"
	 id="Layer_1" xmlns:dc="http://purl.org/dc/elements/1.1/" xmlns:cc="http://creativecommons.org/ns#" xmlns:rdf="http://www.w3.org/1999/02/22-rdf-syntax-ns#" xmlns:svg="http://www.w3.org/2000/svg" xmlns:sodipodi="http://sodipodi.sourceforge.net/DTD/sodipodi-0.dtd" xmlns:inkscape="http://www.inkscape.org/namespaces/inkscape" inkscape:version="0.47 r22583" sodipodi:docname="list_todo.svg"
	 xmlns="http://www.w3.org/2000/svg" xmlns:xlink="http://www.w3.org/1999/xlink" x="0px" y="0px" width="489.309px"
	 height="494.244px" viewBox="0 0 489.309 494.244" enable-background="new 0 0 489.309 494.244" xml:space="preserve">
<inkscape:perspective  sodipodi:type="inkscape:persp3d" inkscape:vp_x="0 : 247.12199 : 1" inkscape:vp_y="0 : 1000 : 0" inkscape:vp_z="489.31 : 247.12199 : 1" id="perspective248" inkscape:persp3d-origin="244.655 : 164.748 : 1">
	</inkscape:perspective>
<inkscape:perspective  sodipodi:type="inkscape:persp3d" inkscape:vp_x="0 : 24 : 1" inkscape:vp_y="0 : 1000 : 0" inkscape:vp_z="48 : 24 : 1" id="perspective3079" inkscape:persp3d-origin="24 : 16 : 1">
	</inkscape:perspective>
<inkscape:perspective  sodipodi:type="inkscape:persp3d" inkscape:vp_x="0 : 0.5 : 1" inkscape:vp_y="0 : 1000 : 0" inkscape:vp_z="1 : 0.5 : 1" id="perspective2910" inkscape:persp3d-origin="0.5 : 0.33333333 : 1">
	</inkscape:perspective>
<inkscape:perspective  sodipodi:type="inkscape:persp3d" inkscape:vp_x="0 : 0.5 : 1" inkscape:vp_y="0 : 1000 : 0" inkscape:vp_z="1 : 0.5 : 1" id="perspective2871" inkscape:persp3d-origin="0.5 : 0.33333333 : 1">
	</inkscape:perspective>
<inkscape:perspective  sodipodi:type="inkscape:persp3d" inkscape:vp_x="0 : 0.5 : 1" inkscape:vp_y="0 : 1000 : 0" inkscape:vp_z="1 : 0.5 : 1" id="perspective2949" inkscape:persp3d-origin="0.5 : 0.33333333 : 1">
	</inkscape:perspective>
<inkscape:perspective  sodipodi:type="inkscape:persp3d" inkscape:vp_x="0 : 0.5 : 1" inkscape:vp_y="0 : 1000 : 0" inkscape:vp_z="1 : 0.5 : 1" id="perspective4045" inkscape:persp3d-origin="0.5 : 0.33333333 : 1">
	</inkscape:perspective>
<inkscape:perspective  sodipodi:type="inkscape:persp3d" inkscape:vp_x="0 : 0.5 : 1" inkscape:vp_y="0 : 1000 : 0" inkscape:vp_z="1 : 0.5 : 1" id="perspective2935" inkscape:persp3d-origin="0.5 : 0.33333333 : 1">
	</inkscape:perspective>
<inkscape:perspective  sodipodi:type="inkscape:persp3d" inkscape:vp_x="0 : 0.5 : 1" inkscape:vp_y="0 : 1000 : 0" inkscape:vp_z="1 : 0.5 : 1" id="perspective3899" inkscape:persp3d-origin="0.5 : 0.33333333 : 1">
	</inkscape:perspective>
<inkscape:perspective  sodipodi:type="inkscape:persp3d" inkscape:vp_x="0 : 0.5 : 1" inkscape:vp_y="0 : 1000 : 0" inkscape:vp_z="1 : 0.5 : 1" id="perspective3738" inkscape:persp3d-origin="0.5 : 0.33333333 : 1">
	</inkscape:perspective>
<inkscape:perspective  sodipodi:type="inkscape:persp3d" inkscape:vp_x="0 : 24 : 1" inkscape:vp_y="0 : 1000 : 0" inkscape:vp_z="48 : 24 : 1" id="perspective57" inkscape:persp3d-origin="24 : 16 : 1">
	</inkscape:perspective>
<inkscape:perspective  sodipodi:type="inkscape:persp3d" inkscape:vp_x="0 : 0.5 : 1" inkscape:vp_y="0 : 1000 : 0" inkscape:vp_z="1 : 0.5 : 1" id="perspective3254" inkscape:persp3d-origin="0.5 : 0.33333333 : 1">
	</inkscape:perspective>
<inkscape:perspective  sodipodi:type="inkscape:persp3d" inkscape:vp_x="0 : 0.5 : 1" inkscape:vp_y="0 : 1000 : 0" inkscape:vp_z="1 : 0.5 : 1" id="perspective2880" inkscape:persp3d-origin="0.5 : 0.33333333 : 1">
	</inkscape:perspective>
<inkscape:perspective  sodipodi:type="inkscape:persp3d" inkscape:vp_x="0 : 0.5 : 1" inkscape:vp_y="0 : 1000 : 0" inkscape:vp_z="1 : 0.5 : 1" id="perspective2949-7" inkscape:persp3d-origin="0.5 : 0.33333333 : 1">
	</inkscape:perspective>
<inkscape:perspective  sodipodi:type="inkscape:persp3d" inkscape:vp_x="0 : 0.5 : 1" inkscape:vp_y="0 : 1000 : 0" inkscape:vp_z="1 : 0.5 : 1" id="perspective4045-3" inkscape:persp3d-origin="0.5 : 0.33333333 : 1">
	</inkscape:perspective>
<inkscape:perspective  sodipodi:type="inkscape:persp3d" inkscape:vp_x="0 : 0.5 : 1" inkscape:vp_y="0 : 1000 : 0" inkscape:vp_z="1 : 0.5 : 1" id="perspective2935-8" inkscape:persp3d-origin="0.5 : 0.33333333 : 1">
	</inkscape:perspective>
<inkscape:perspective  sodipodi:type="inkscape:persp3d" inkscape:vp_x="0 : 0.5 : 1" inkscape:vp_y="0 : 1000 : 0" inkscape:vp_z="1 : 0.5 : 1" id="perspective3899-8" inkscape:persp3d-origin="0.5 : 0.33333333 : 1">
	</inkscape:perspective>
<inkscape:perspective  sodipodi:type="inkscape:persp3d" inkscape:vp_x="0 : 0.5 : 1" inkscape:vp_y="0 : 1000 : 0" inkscape:vp_z="1 : 0.5 : 1" id="perspective3738-1" inkscape:persp3d-origin="0.5 : 0.33333333 : 1">
	</inkscape:perspective>
<inkscape:perspective  sodipodi:type="inkscape:persp3d" inkscape:vp_x="0 : 24 : 1" inkscape:vp_y="0 : 1000 : 0" inkscape:vp_z="48 : 24 : 1" id="perspective57-2" inkscape:persp3d-origin="24 : 16 : 1">
	</inkscape:perspective>
<inkscape:perspective  sodipodi:type="inkscape:persp3d" inkscape:vp_x="0 : 0.5 : 1" inkscape:vp_y="0 : 1000 : 0" inkscape:vp_z="1 : 0.5 : 1" id="perspective3667" inkscape:persp3d-origin="0.5 : 0.33333333 : 1">
	</inkscape:perspective>
<inkscape:perspective  sodipodi:type="inkscape:persp3d" inkscape:vp_x="0 : 0.5 : 1" inkscape:vp_y="0 : 1000 : 0" inkscape:vp_z="1 : 0.5 : 1" id="perspective3830" inkscape:persp3d-origin="0.5 : 0.33333333 : 1">
	</inkscape:perspective>
<inkscape:perspective  sodipodi:type="inkscape:persp3d" inkscape:vp_x="0 : 526.18109 : 1" inkscape:vp_y="0 : 1000 : 0" inkscape:vp_z="744.09448 : 526.18109 : 1" id="perspective2390" inkscape:persp3d-origin="372.04724 : 350.78739 : 1">
	</inkscape:perspective>
<inkscape:perspective  sodipodi:type="inkscape:persp3d" inkscape:vp_x="0 : 526.18109 : 1" inkscape:vp_y="0 : 1000 : 0" inkscape:vp_z="744.09448 : 526.18109 : 1" id="perspective10" inkscape:persp3d-origin="372.04724 : 350.78739 : 1">
	</inkscape:perspective>
<inkscape:perspective  sodipodi:type="inkscape:persp3d" inkscape:vp_x="0 : 0.5 : 1" inkscape:vp_y="0 : 1000 : 0" inkscape:vp_z="1 : 0.5 : 1" id="perspective3353" inkscape:persp3d-origin="0.5 : 0.33333333 : 1">
	</inkscape:perspective>
<inkscape:perspective  sodipodi:type="inkscape:persp3d" inkscape:vp_x="0 : 0.5 : 1" inkscape:vp_y="0 : 1000 : 0" inkscape:vp_z="1 : 0.5 : 1" id="perspective3353-3" inkscape:persp3d-origin="0.5 : 0.33333333 : 1">
	</inkscape:perspective>
<inkscape:perspective  sodipodi:type="inkscape:persp3d" inkscape:vp_x="0 : 0.5 : 1" inkscape:vp_y="0 : 1000 : 0" inkscape:vp_z="1 : 0.5 : 1" id="perspective3389" inkscape:persp3d-origin="0.5 : 0.33333333 : 1">
	</inkscape:perspective>
<inkscape:perspective  sodipodi:type="inkscape:persp3d" inkscape:vp_x="0 : 0.5 : 1" inkscape:vp_y="0 : 1000 : 0" inkscape:vp_z="1 : 0.5 : 1" id="perspective3414" inkscape:persp3d-origin="0.5 : 0.33333333 : 1">
	</inkscape:perspective>
<inkscape:perspective  sodipodi:type="inkscape:persp3d" inkscape:vp_x="0 : 0.5 : 1" inkscape:vp_y="0 : 1000 : 0" inkscape:vp_z="1 : 0.5 : 1" id="perspective3283" inkscape:persp3d-origin="0.5 : 0.33333333 : 1">
	</inkscape:perspective>
<inkscape:perspective  sodipodi:type="inkscape:persp3d" inkscape:vp_x="0 : 0.5 : 1" inkscape:vp_y="0 : 1000 : 0" inkscape:vp_z="1 : 0.5 : 1" id="perspective3283-0" inkscape:persp3d-origin="0.5 : 0.33333333 : 1">
	</inkscape:perspective>
<inkscape:perspective  sodipodi:type="inkscape:persp3d" inkscape:vp_x="0 : 0.5 : 1" inkscape:vp_y="0 : 1000 : 0" inkscape:vp_z="1 : 0.5 : 1" id="perspective3285" inkscape:persp3d-origin="0.5 : 0.33333333 : 1">
	</inkscape:perspective>
<inkscape:perspective  sodipodi:type="inkscape:persp3d" inkscape:vp_x="0 : 0.5 : 1" inkscape:vp_y="0 : 1000 : 0" inkscape:vp_z="1 : 0.5 : 1" id="perspective3285-0" inkscape:persp3d-origin="0.5 : 0.33333333 : 1">
	</inkscape:perspective>
<inkscape:perspective  sodipodi:type="inkscape:persp3d" inkscape:vp_x="0 : 0.5 : 1" inkscape:vp_y="0 : 1000 : 0" inkscape:vp_z="1 : 0.5 : 1" id="perspective3287" inkscape:persp3d-origin="0.5 : 0.33333333 : 1">
	</inkscape:perspective>
<inkscape:perspective  sodipodi:type="inkscape:persp3d" inkscape:vp_x="0 : 0.5 : 1" inkscape:vp_y="0 : 1000 : 0" inkscape:vp_z="1 : 0.5 : 1" id="perspective3312" inkscape:persp3d-origin="0.5 : 0.33333333 : 1">
	</inkscape:perspective>
<inkscape:perspective  sodipodi:type="inkscape:persp3d" inkscape:vp_x="0 : 0.5 : 1" inkscape:vp_y="0 : 1000 : 0" inkscape:vp_z="1 : 0.5 : 1" id="perspective3337" inkscape:persp3d-origin="0.5 : 0.33333333 : 1">
	</inkscape:perspective>
<rect x="168.315" y="85.676" width="295.289" height="37.697"/>
<path fill="#B3B3B3" d="M463.604,77.172H168.315c-4.697,0-8.504,3.807-8.504,8.504v37.697c0,4.697,3.807,8.504,8.504,8.504h295.289
	c4.696,0,8.504-3.807,8.504-8.504V85.676C472.108,80.979,468.3,77.172,463.604,77.172z M168.315,85.676h295.289v37.697H168.315
	V85.676z"/>
<rect x="170.246" y="228.356" width="295.29" height="37.696"/>
<path fill="#B3B3B3" d="M465.536,219.853h-295.29c-4.697,0-8.504,3.808-8.504,8.504v37.696c0,4.696,3.807,8.504,8.504,8.504h295.29
	c4.696,0,8.504-3.808,8.504-8.504v-37.696C474.04,223.66,470.232,219.853,465.536,219.853z M170.246,228.356h295.29v37.696h-295.29
	V228.356z"/>
<rect x="171.839" y="374.138" width="295.29" height="37.697"/>
<path fill="#B3B3B3" d="M467.129,365.634h-295.29c-4.697,0-8.504,3.808-8.504,8.504v37.697c0,4.696,3.807,8.504,8.504,8.504h295.29
	c4.696,0,8.504-3.808,8.504-8.504v-37.697C475.633,369.441,471.826,365.634,467.129,365.634z M171.839,374.138h295.29v37.697
	h-295.29V374.138z"/>
<polygon points="52.021,146.7 40.284,146.7 40.284,54.405 52.021,54.405 52.021,40.21 26.718,40.21 26.718,160.894 52.021,160.894 
	"/>
<path fill="#B3B3B3" d="M52.021,62.909c4.697,0,8.504-3.807,8.504-8.504V40.21c0-4.697-3.807-8.504-8.504-8.504H26.718
	c-4.697,0-8.504,3.807-8.504,8.504v120.684c0,4.697,3.807,8.504,8.504,8.504h25.303c4.697,0,8.504-3.807,8.504-8.504V146.7
	c0-4.697-3.807-8.504-8.504-8.504h-3.233V62.909H52.021z M52.021,160.894H26.718V40.21h25.303v14.194H40.284V146.7h11.737V160.894z"
	/>
<polygon points="110.095,40.21 84.792,40.21 84.792,54.276 96.529,54.276 96.529,146.7 84.792,146.7 84.792,160.894 
	110.095,160.894 "/>
<path fill="#B3B3B3" d="M110.095,31.707H84.792c-4.697,0-8.504,3.807-8.504,8.504v14.066c0,4.697,3.807,8.504,8.504,8.504h3.233
	v75.416h-3.233c-4.697,0-8.504,3.807-8.504,8.504v14.194c0,4.697,3.807,8.504,8.504,8.504h25.303c4.697,0,8.504-3.807,8.504-8.504
	V40.21C118.599,35.514,114.792,31.707,110.095,31.707z M84.792,146.7h11.737V54.276H84.792V40.21h25.303v120.684H84.792V146.7z"/>
<polygon points="54.059,294.372 42.322,294.372 42.322,202.078 54.059,202.078 54.059,187.883 28.756,187.883 28.756,308.567 
	54.059,308.567 "/>
<path fill="#B3B3B3" d="M54.059,210.582c4.697,0,8.504-3.807,8.504-8.504v-14.194c0-4.697-3.807-8.504-8.504-8.504H28.756
	c-4.697,0-8.504,3.807-8.504,8.504v120.684c0,4.696,3.807,8.504,8.504,8.504h25.303c4.697,0,8.504-3.808,8.504-8.504v-14.195
	c0-4.696-3.807-8.504-8.504-8.504h-3.233v-75.287H54.059z M54.059,308.567H28.756V187.883h25.303v14.194H42.322v92.294h11.737
	V308.567z"/>
<polygon points="112.132,187.883 86.83,187.883 86.83,201.949 98.566,201.949 98.566,294.372 86.83,294.372 86.83,308.567 
	112.132,308.567 "/>
<path fill="#B3B3B3" d="M112.132,179.379H86.83c-4.697,0-8.504,3.807-8.504,8.504v14.066c0,4.697,3.807,8.504,8.504,8.504h3.233
	v75.415H86.83c-4.697,0-8.504,3.808-8.504,8.504v14.195c0,4.696,3.807,8.504,8.504,8.504h25.303c4.697,0,8.504-3.808,8.504-8.504
	V187.883C120.636,183.187,116.829,179.379,112.132,179.379z M86.83,294.372h11.737v-92.423H86.83v-14.066h25.303v120.684H86.83
	V294.372z"/>
<polygon points="29.416,458.034 54.719,458.034 54.719,443.84 42.982,443.84 42.982,351.545 54.719,351.545 54.719,337.351 
	29.416,337.351 "/>
<path fill="#B3B3B3" d="M54.719,360.049c4.697,0,8.504-3.808,8.504-8.504v-14.194c0-4.696-3.807-8.504-8.504-8.504H29.416
	c-4.697,0-8.504,3.808-8.504,8.504v120.684c0,4.696,3.807,8.504,8.504,8.504h25.303c4.697,0,8.504-3.808,8.504-8.504V443.84
	c0-4.696-3.807-8.504-8.504-8.504h-3.233v-75.287H54.719z M54.719,458.034H29.416V337.351h25.303v14.194H42.982v92.295h11.737
	V458.034z"/>
<polygon points="87.49,351.416 99.227,351.416 99.227,443.84 87.49,443.84 87.49,458.034 112.792,458.034 112.792,337.351 
	87.49,337.351 "/>
<path fill="#B3B3B3" d="M112.792,328.847H87.49c-4.697,0-8.504,3.808-8.504,8.504v14.065c0,4.696,3.807,8.504,8.504,8.504h3.233
	v75.416H87.49c-4.697,0-8.504,3.808-8.504,8.504v14.194c0,4.696,3.807,8.504,8.504,8.504h25.303c4.697,0,8.504-3.808,8.504-8.504
	V337.351C121.296,332.654,117.489,328.847,112.792,328.847z M87.49,443.84h11.737v-92.424H87.49v-14.065h25.303v120.684H87.49
	V443.84z"/>
</svg>
