<?xml version="1.0" encoding="UTF-8" standalone="no"?>
<svg
   height="16"
   width="16"
   version="1.1"
   id="svg8"
   sodipodi:docname="ct_c.svg"
   inkscape:version="1.1 (c68e22c387, 2021-05-23)"
   xmlns:inkscape="http://www.inkscape.org/namespaces/inkscape"
   xmlns:sodipodi="http://sodipodi.sourceforge.net/DTD/sodipodi-0.dtd"
   xmlns="http://www.w3.org/2000/svg"
   xmlns:svg="http://www.w3.org/2000/svg">
  <defs
     id="defs12" />
  <sodipodi:namedview
     id="namedview10"
     pagecolor="#ffffff"
     bordercolor="#666666"
     borderopacity="1.0"
     inkscape:pageshadow="2"
     inkscape:pageopacity="0.0"
     inkscape:pagecheckerboard="0"
     showgrid="true"
     inkscape:zoom="35.885669"
     inkscape:cx="8.0951535"
     inkscape:cy="8.0951535"
     inkscape:window-width="1920"
     inkscape:window-height="1001"
     inkscape:window-x="-9"
     inkscape:window-y="41"
     inkscape:window-maximized="1"
     inkscape:current-layer="svg8">
    <inkscape:grid
       type="xygrid"
       id="grid829" />
  </sodipodi:namedview>
  <g
     fill="#1d70f7"
     id="g6">
    <path
       d="M 8.6978066,4.6240844 A 4.6879578,4.6879578 0 0 0 4.0098488,9.3120422 4.6879578,4.6879578 0 0 0 8.6978066,14 4.6879578,4.6879578 0 0 0 12.009808,12.624084 L 11.181229,11.795488 A 3.5159684,3.5159684 0 0 1 8.6978066,12.828011 3.5159684,3.5159684 0 0 1 5.1818383,9.3120422 3.5159684,3.5159684 0 0 1 8.6978066,5.7960738 3.5159684,3.5159684 0 0 1 11.1824,6.8274246 L 12.009808,6 A 4.6879578,4.6879578 0 0 0 8.6978066,4.6240844 Z"
       fill-rule="evenodd"
       id="path4"
       style="stroke-width:1.17199" />
  </g>
</svg>
