<svg xmlns="http://www.w3.org/2000/svg" viewBox="0 0 16 16">
  <defs id="defs3051">
    <style type="text/css" id="current-color-scheme">
      .ColorScheme-Text {
        color:#232629;
      }
      </style>
  </defs>
 <path style="fill:currentColor;fill-opacity:1;stroke:none" 
     d="M 5 2 C 4.567 2.75 4.34825 2.75 4.78125 3.5 L 7.40625 8 L 5.90625 10.21875 C 5.63425 10.08075 5.325 10 5 10 C 3.895 10 3 10.895 3 12 C 3 13.105 3.895 14 5 14 C 6.105 14 7 13.105 7 12 C 7 11.595 6.86325 11.22125 6.65625 10.90625 C 6.65125 10.89825 6.66125 10.882 6.65625 10.875 L 7.09375 10.25 C 7.89575 10.225 8.008 9.65725 8.5 9.65625 C 8.511 9.65625 8.52025 9.65525 8.53125 9.65625 L 8.5625 9.71875 L 9.34375 10.875 L 9.34375 10.90625 C 9.13775 11.22125 8.9980469 11.595 8.9980469 12 C 8.9980469 13.105 9.8930469 14 10.998047 14 C 12.103047 14 12.998047 13.105 12.998047 12 C 12.998047 10.895 12.103047 10 10.998047 10 C 10.673047 10 10.36475 10.08075 10.09375 10.21875 L 8.59375 8 C 8.59375 8 11.22875 3.492 11.21875 3.5 C 11.65175 2.75 11.431047 2.75 10.998047 2 L 7.9980469 7.125 L 5 2 z M 7.9980469 8 L 8 8 C 8.276 8 8.5 8.224 8.5 8.5 C 8.5 8.754 8.3075 8.968 8.0625 9 L 7.9375 9 C 7.6925 8.968 7.4980469 8.754 7.4980469 8.5 C 7.4980469 8.224 7.7220469 8 7.9980469 8 z M 4.9980469 11 C 5.5500469 11 5.9980469 11.448 5.9980469 12 C 5.9980469 12.552 5.5500469 13 4.9980469 13 C 4.4460469 13 3.9980469 12.552 3.9980469 12 C 3.9980469 11.448 4.4460469 11 4.9980469 11 z M 10.998047 11 C 11.550047 11 11.998047 11.448 11.998047 12 C 11.998047 12.552 11.550047 13 10.998047 13 C 10.446047 13 9.9980469 12.552 9.9980469 12 C 9.9980469 11.448 10.446047 11 10.998047 11 z "
     class="ColorScheme-Text"
     />
</svg>
