<?xml version="1.0" encoding="UTF-8" standalone="no"?>
<svg
   viewBox="0 0 16 16"
   version="1.1"
   id="svg6"
   sodipodi:docname="ct_find_replace.svg"
   inkscape:version="1.1 (c68e22c387, 2021-05-23)"
   xmlns:inkscape="http://www.inkscape.org/namespaces/inkscape"
   xmlns:sodipodi="http://sodipodi.sourceforge.net/DTD/sodipodi-0.dtd"
   xmlns="http://www.w3.org/2000/svg"
   xmlns:svg="http://www.w3.org/2000/svg">
  <sodipodi:namedview
     id="namedview8"
     pagecolor="#ffffff"
     bordercolor="#666666"
     borderopacity="1.0"
     inkscape:pageshadow="2"
     inkscape:pageopacity="0.0"
     inkscape:pagecheckerboard="0"
     showgrid="false"
     inkscape:zoom="47.1875"
     inkscape:cx="7.989404"
     inkscape:cy="7.989404"
     inkscape:window-width="1826"
     inkscape:window-height="1046"
     inkscape:window-x="83"
     inkscape:window-y="-11"
     inkscape:window-maximized="1"
     inkscape:current-layer="svg6">
    <inkscape:grid
       type="xygrid"
       id="grid913" />
  </sodipodi:namedview>
  <defs
     id="defs3051">
    <style
       type="text/css"
       id="current-color-scheme">
      .ColorScheme-Text {
        color:#232629;
      }
      </style>
  </defs>
  <path
     id="path845"
     style="color:#000000;fill:#232629;fill-opacity:1;-inkscape-stroke:none"
     d="M 8,2.0117188 C 5.0371781,2.0117188 2.5686769,4.1724104 2.0859375,7 h 1.015625 C 3.5674617,4.7196903 5.5792381,3.0117188 8,3.0117188 10.420762,3.0117185 12.432538,4.7196902 12.898438,7 h 0.103515 0.912109 0.08789 V 3 h -1 V 4.7050781 C 11.926586,3.0840111 10.08623,2.0117186 8,2.0117188 Z M 2,9 v 4 h 1 v -1.679688 c 1.0755719,1.619756 2.9147732,2.691407 5,2.691407 2.97101,0 5.444914,-2.172627 5.917969,-5.011719 H 12.902344 C 12.4454,11.291926 10.428975,13.011719 8,13.011719 5.5710256,13.011719 3.5545996,11.291926 3.0976562,9 H 3 2.0820312 Z" />
</svg>
