<?xml version="1.0" encoding="UTF-8" standalone="no"?>
<svg
   viewBox="0 0 16 16"
   version="1.1"
   id="svg6"
   sodipodi:docname="ct_fmt-txt-small.svg"
   inkscape:version="1.1 (c68e22c387, 2021-05-23)"
   xmlns:inkscape="http://www.inkscape.org/namespaces/inkscape"
   xmlns:sodipodi="http://sodipodi.sourceforge.net/DTD/sodipodi-0.dtd"
   xmlns="http://www.w3.org/2000/svg"
   xmlns:svg="http://www.w3.org/2000/svg">
  <sodipodi:namedview
     id="namedview8"
     pagecolor="#ffffff"
     bordercolor="#666666"
     borderopacity="1.0"
     inkscape:pageshadow="2"
     inkscape:pageopacity="0.0"
     inkscape:pagecheckerboard="0"
     showgrid="true"
     inkscape:zoom="37.211494"
     inkscape:cx="7.7664175"
     inkscape:cy="10.400012"
     inkscape:window-width="1824"
     inkscape:window-height="1046"
     inkscape:window-x="85"
     inkscape:window-y="-11"
     inkscape:window-maximized="1"
     inkscape:current-layer="svg6">
    <inkscape:grid
       type="xygrid"
       id="grid825" />
  </sodipodi:namedview>
  <defs
     id="defs3051">
    <style
       type="text/css"
       id="current-color-scheme">
      .ColorScheme-Text {
        color:#232629;
      }
      </style>
  </defs>
  <g
     aria-label="s"
     transform="scale(1.0584502,0.94477757)"
     id="text14326"
     style="font-size:11.759px;line-height:1.25;letter-spacing:0px;word-spacing:0px;fill:#232629;stroke-width:0.293972">
    <path
       d="m 7.2385649,14.784639 q -1.0851811,0 -2.4057719,-0.401919 v -1.469875 q 1.1311147,0.648812 2.2679712,0.648812 1.18279,0 1.18279,-0.700487 0,-0.310052 -0.2813433,-0.499528 Q 7.7208677,12.172166 7.0433472,12.028623 L 6.5782695,11.925273 Q 4.7294424,11.51187 4.7294424,10.02477 q 0,-0.9531216 0.6832622,-1.4698746 0.6890039,-0.5224946 1.9923696,-0.5224946 0.5052695,0 0.9990557,0.086125 0.4995278,0.086126 1.0277641,0.2698599 V 9.8582611 Q 8.9266245,9.5424677 8.4615469,9.3989252 8.0022109,9.2553827 7.5141665,9.2553827 q -0.5741699,0 -0.8842217,0.1665093 -0.3100517,0.1665093 -0.3100517,0.4478525 0,0.2583765 0.2870849,0.4478525 0.2928267,0.183734 0.9416387,0.333019 l 0.5454614,0.132059 q 0.9186719,0.218184 1.3435576,0.700487 0.4306274,0.482303 0.4306274,1.274657 0,2.02682 -2.6296982,2.02682 z"
       style="font-weight:bold;font-family:Hack;-inkscape-font-specification:'Hack Bold'"
       id="path840" />
  </g>
  <path
     style="color:#3daee9;fill:currentColor;fill-opacity:1;stroke:none"
     d="M 5.49975,1.9975 H 10.5 l -2.49975,3 z"
     class="ColorScheme-Highlight"
     id="path6" />
</svg>
