<?xml version="1.0" encoding="UTF-8" standalone="no"?>
<svg
   viewBox="0 0 16 16"
   version="1.1"
   id="svg6"
   sodipodi:docname="ct_find_selnsub_test.svg"
   inkscape:version="1.1 (c68e22c387, 2021-05-23)"
   xmlns:inkscape="http://www.inkscape.org/namespaces/inkscape"
   xmlns:sodipodi="http://sodipodi.sourceforge.net/DTD/sodipodi-0.dtd"
   xmlns="http://www.w3.org/2000/svg"
   xmlns:svg="http://www.w3.org/2000/svg">
  <sodipodi:namedview
     id="namedview8"
     pagecolor="#ffffff"
     bordercolor="#666666"
     borderopacity="1.0"
     inkscape:pageshadow="2"
     inkscape:pageopacity="0.0"
     inkscape:pagecheckerboard="0"
     showgrid="false"
     inkscape:zoom="23.59375"
     inkscape:cx="13.986755"
     inkscape:cy="11.782781"
     inkscape:window-width="1826"
     inkscape:window-height="1046"
     inkscape:window-x="83"
     inkscape:window-y="-11"
     inkscape:window-maximized="1"
     inkscape:current-layer="svg6">
    <inkscape:grid
       type="xygrid"
       id="grid825" />
  </sodipodi:namedview>
  <defs
     id="defs3051">
    <style
       type="text/css"
       id="current-color-scheme">
      .ColorScheme-Text {
        color:#232629;
      }
      </style>
  </defs>
  <path
     id="path4"
     style="fill:currentColor;fill-opacity:1;stroke:none"
     class="ColorScheme-Text"
     d="M 8.0117188 2.0117188 C 4.703936 2.0117188 2.0117188 4.703936 2.0117188 8.0117188 C 2.0117188 11.319501 4.703936 14.011719 8.0117188 14.011719 C 9.4851936 14.011719 10.835241 13.47668 11.880859 12.591797 L 13.292969 14.003906 L 14 13.296875 L 12.587891 11.884766 C 13.474905 10.838566 14.011719 9.4871725 14.011719 8.0117188 C 14.011719 4.703936 11.319501 2.0117188 8.0117188 2.0117188 z M 8.0117188 3.0117188 C 10.779062 3.0117188 13.011719 5.2443757 13.011719 8.0117188 C 13.011719 10.779062 10.779062 13.011719 8.0117188 13.011719 C 5.2443757 13.011719 3.0117188 10.779062 3.0117188 8.0117188 C 3.0117188 5.2443757 5.2443757 3.0117188 8.0117188 3.0117188 z " />
  <path
     id="path843"
     style="fill:#9d072c;fill-opacity:1;stroke:none;stroke-width:0.617109;stroke-opacity:1"
     d="M 5.9863281 5.7539062 C 4.9207764 5.7471436 4.1720413 6.3077509 4.0117188 7.4257812 C 3.829012 8.6999101 4.4275809 10.182374 5.7207031 10.361328 C 6.4074381 10.638145 7.1163739 10.441054 7.6914062 10 L 6 10 L 6 7 L 8 7 L 8 6.3417969 C 7.7115481 6.1544026 7.3585832 6.0035268 6.9492188 5.8945312 C 6.6072192 5.803472 6.2846826 5.7557998 5.9863281 5.7539062 z " />
  <path
     id="path847"
     style="fill:#232629;fill-opacity:1;stroke-width:0.453597"
     d="M 6.3671875 6.3222656 C 6.2988864 6.3247053 6.2303391 6.3328872 6.1621094 6.34375 C 6.111402 6.578119 6.1481082 6.8102348 6.25 7 L 7.6796875 7 C 7.7253198 6.9220776 7.7599992 6.835469 7.7832031 6.7421875 C 7.3224312 6.4872241 6.8452955 6.3051877 6.3671875 6.3222656 z " />
  <path
     style="fill:none;fill-opacity:0.945098;stroke:#27ae60;stroke-width:0.68039;stroke-linecap:round;stroke-opacity:1;stop-color:#000000"
     d="M 6.9304348,6.5770589 C 7.0831835,6.1852722 7.44087,5.8745448 7.946705,5.482758"
     id="path849"
     sodipodi:nodetypes="cc" />
  <path
     id="path851"
     style="opacity:0.5;fill:#ffffff;fill-opacity:1;stroke:none;stroke-width:0.796877;stroke-linecap:round;stroke-opacity:1;stop-color:#000000"
     d="M 5.3457031 6.2148438 A 0.89572178 0.60846442 20.77829 0 0 4.9746094 6.3242188 A 0.89572178 0.60846442 20.77829 0 0 5.0507812 7.2285156 A 0.89572178 0.60846442 20.77829 0 0 6 7.5039062 L 6 7 L 6.4863281 7 A 0.89572178 0.60846442 20.77829 0 0 6.1953125 6.5019531 A 0.89572178 0.60846442 20.77829 0 0 5.3457031 6.2148438 z " />
  <path
     d="m 8.985015,5.9875859 v 2 h -2 v 1 h 2 V 10.987586 H 9.9850149 V 8.9875859 h 2.0000001 v -1 H 9.9850149 v -2 z"
     style="color:#232629;fill:currentColor;fill-opacity:1;stroke:none"
     id="path866" />
</svg>
