<?xml version="1.0" encoding="UTF-8" standalone="no"?>
<svg
   viewBox="0 0 16 16"
   version="1.1"
   id="svg6"
   sodipodi:docname="ct_find_again.svg"
   inkscape:version="1.1 (c68e22c387, 2021-05-23)"
   xmlns:inkscape="http://www.inkscape.org/namespaces/inkscape"
   xmlns:sodipodi="http://sodipodi.sourceforge.net/DTD/sodipodi-0.dtd"
   xmlns="http://www.w3.org/2000/svg"
   xmlns:svg="http://www.w3.org/2000/svg">
  <sodipodi:namedview
     id="namedview8"
     pagecolor="#ffffff"
     bordercolor="#666666"
     borderopacity="1.0"
     inkscape:pageshadow="2"
     inkscape:pageopacity="0.0"
     inkscape:pagecheckerboard="0"
     showgrid="false"
     inkscape:zoom="47.1875"
     inkscape:cx="8.2013245"
     inkscape:cy="8.1377483"
     inkscape:window-width="1826"
     inkscape:window-height="1046"
     inkscape:window-x="83"
     inkscape:window-y="-11"
     inkscape:window-maximized="1"
     inkscape:current-layer="svg6">
    <inkscape:grid
       type="xygrid"
       id="grid825" />
  </sodipodi:namedview>
  <defs
     id="defs3051">
    <style
       type="text/css"
       id="current-color-scheme">
      .ColorScheme-Text {
        color:#232629;
      }
      </style>
  </defs>
  <path
     d="m 7.1678842,5.0198557 -0.70703,0.7070312 0.949218,0.9492189 1.1718748,1.171875 -1.1718748,1.1718751 -0.949218,0.9492213 0.70703,0.7070318 L 8.117103,9.7268869 9.996019,7.8479808 8.117103,5.9690748 Z"
     style="color:#232629;fill:currentColor;fill-opacity:1;stroke:none"
     id="path868" />
  <path
     id="path4"
     style="color:#232629;fill:currentColor;fill-opacity:1;stroke:none"
     class="ColorScheme-Text"
     d="m 8.0117188,2.0117188 c -3.3077828,0 -6,2.6922172 -6,6 0,3.3077822 2.6922172,6.0000002 6,6.0000002 1.4734748,0 2.8235222,-0.535039 3.8691402,-1.419922 l 1.41211,1.412109 L 14,13.296875 12.587891,11.884766 c 0.887014,-1.0462 1.423828,-2.3975935 1.423828,-3.8730472 0,-3.3077828 -2.692218,-6 -6.0000002,-6 z m 0,1 c 2.7673432,0 5.0000002,2.2326569 5.0000002,5 0,2.7673432 -2.232657,5.0000002 -5.0000002,5.0000002 -2.7673431,0 -5,-2.232657 -5,-5.0000002 0,-2.7673431 2.2326569,-5 5,-5 z" />
</svg>
