<?xml version="1.0" encoding="UTF-8"?>
<svg xmlns:rdf="http://www.w3.org/1999/02/22-rdf-syntax-ns#" xmlns="http://www.w3.org/2000/svg" xmlns:cc="http://creativecommons.org/ns#" xmlns:xlink="http://www.w3.org/1999/xlink" xmlns:dc="http://purl.org/dc/elements/1.1/" xmlns:svg="http://www.w3.org/2000/svg" id="svg2" xml:space="preserve" overflow="visible" viewBox="0 0 48 48" version="1.0" enable-background="new 0 0 128 129.396"><defs id="defs365"><radialGradient id="radialGradient5031" xlink:href="#linearGradient5060" gradientUnits="userSpaceOnUse" cy="486.65" cx="605.71" gradientTransform="matrix(-2.7744 0 0 1.9697 112.76 -872.89)" r="117.14"/><linearGradient id="linearGradient5060"><stop id="stop5062" offset="0"/><stop id="stop5064" stop-opacity="0" offset="1"/></linearGradient><radialGradient id="radialGradient5029" xlink:href="#linearGradient5060" gradientUnits="userSpaceOnUse" cy="486.65" cx="605.71" gradientTransform="matrix(2.7744 0 0 1.9697 -1891.6 -872.89)" r="117.14"/><linearGradient id="linearGradient5027" x1="302.86" gradientUnits="userSpaceOnUse" y1="366.65" gradientTransform="matrix(2.7744 0 0 1.9697 -1892.2 -872.89)" x2="302.86" y2="609.51"><stop id="stop5050" stop-opacity="0" offset="0"/><stop id="stop5056" offset=".5"/><stop id="stop5052" stop-opacity="0" offset="1"/></linearGradient><linearGradient id="linearGradient1514" x1="52.006" gradientUnits="userSpaceOnUse" y1="166.13" gradientTransform="matrix(.33692 0 0 .16689 17.983 15.462)" x2="14.049" y2="-42.219"><stop id="stop17" stop-color="#ccc" offset="0"/><stop id="stop19" stop-color="#fff" offset=".9831"/></linearGradient><linearGradient id="XMLID_39_" x1="64.388" gradientUnits="userSpaceOnUse" y1="65.124" gradientTransform="matrix(.35410 0 0 .35410 1.6387 -.083649)" x2="64.388" y2="35.569">
						<stop id="stop336" stop-color="#fff" offset="0"/>
						<stop id="stop338" stop-color="#FF6200" offset=".8539"/>
						<stop id="stop340" stop-color="#F25D00" offset="1"/>
						<midPointStop id="midPointStop335" stop-color="#FFFFFF" offset="0"/>
						<midPointStop id="midPointStop337" stop-color="#FFFFFF" offset="0.5"/>
						<midPointStop id="midPointStop339" stop-color="#FF6200" offset="0.8539"/>
						<midPointStop id="midPointStop341" stop-color="#FF6200" offset="0.5"/>
						<midPointStop id="midPointStop343" stop-color="#F25D00" offset="1"/>
					</linearGradient><radialGradient id="radialGradient2305" gradientUnits="userSpaceOnUse" cy="24.203" cx="7.5327" gradientTransform="matrix(4.1001 -1.6273e-17 2.1254e-14 4.2013 -25.415 -78.54)" r="8.2452"><stop id="stop2301" stop-color="#fff" offset="0"/><stop id="stop2303" stop-color="#fff" stop-opacity="0" offset="1"/></radialGradient><radialGradient id="radialGradient2313" gradientUnits="userSpaceOnUse" cy="36.778" cx="19.986" gradientTransform="matrix(1.1253 0 0 .98274 -3.4287 .56579)" r="1.0821"><stop id="stop2309" stop-color="#edd400" offset="0"/><stop id="stop2311" stop-color="#980" offset="1"/></radialGradient><radialGradient id="radialGradient2325" gradientUnits="userSpaceOnUse" cy="37.426" cx="20.444" gradientTransform="matrix(1.1253 0 0 .98274 -3.4287 .73111)" r="1.0821"><stop id="stop2321" offset="0"/><stop id="stop2323" stop-opacity="0" offset="1"/></radialGradient><linearGradient id="linearGradient2335" x1="17.603" gradientUnits="userSpaceOnUse" y1="26.057" gradientTransform="matrix(.89879 0 0 1.0719 .47802 -2.0808)" x2="17.683" y2="32.654"><stop id="stop2331" stop-opacity=".18557" offset="0"/><stop id="stop2333" stop-color="#fff" offset="1"/></linearGradient><radialGradient id="radialGradient2339" gradientUnits="userSpaceOnUse" cy="19.554" cx="11.681" gradientTransform="matrix(4.1001 1.6273e-17 2.1254e-14 -4.2013 -5.1981 105.35)" r="8.2452"><stop id="stop2343" offset="0"/><stop id="stop2345" stop-opacity="0" offset="1"/></radialGradient><radialGradient id="radialGradient2374" gradientUnits="userSpaceOnUse" cy="30.443" cx="29.913" gradientTransform="matrix(3.7515 -2.192e-22 1.7233e-22 3.1478 -82.009 -65.707)" r="4.0019"><stop id="stop2370" stop-color="#fff" offset="0"/><stop id="stop2372" stop-color="#fff" stop-opacity="0" offset="1"/></radialGradient><radialGradient id="radialGradient2384" gradientUnits="userSpaceOnUse" cy="10.578" cx="24.195" gradientTransform="matrix(1.1253 -3.5854e-8 4.2698e-8 1.3401 -3.0067 1.3554)" r="15.243"><stop id="stop2380" stop-color="#575757" offset="0"/><stop id="stop2382" stop-color="#575757" stop-opacity="0" offset="1"/></radialGradient><linearGradient id="linearGradient2412" x1="17.85" gradientUnits="userSpaceOnUse" y1="28.939" gradientTransform="matrix(.88878 0 0 1.0893 2.411 -1.5243)" x2="19.04" y2="41.032"><stop id="stop2408" stop-color="#7c7e79" offset="0"/><stop id="stop2414" stop-color="#848681" offset=".17241"/><stop id="stop2410" stop-color="#898c86" offset="1"/></linearGradient></defs>
	<g id="g5022" transform="matrix(.021582 0 0 .018595 43.123 41.638)"><rect id="rect4173" opacity=".40206" style="color:black" height="478.36" width="1339.6" y="-150.7" x="-1559.3" fill="url(#linearGradient5027)"/><path id="path5058" opacity=".40206" style="color:black" fill="url(#radialGradient5029)" d="m-219.62-150.68v478.33c142.88 0.9 345.4-107.17 345.4-239.2 0-132.02-159.44-239.13-345.4-239.13z"/><path id="path5018" opacity=".40206" style="color:black" fill="url(#radialGradient5031)" d="m-1559.3-150.68v478.33c-142.8 0.9-345.4-107.17-345.4-239.2 0-132.02 159.5-239.13 345.4-239.13z"/></g><path id="rect1512" style="color:#000000" fill="url(#linearGradient1514)" stroke="#757575" d="m21.62 8.1834h5.957c0.84 0 13.887 15.436 13.887 16.341l-0.444 18.497c0 0.905-0.676 1.634-1.516 1.634h-31.457c-0.8398 0-1.5158-0.729-1.5158-1.634l0.0565-18.497c0-0.905 14.192-16.341 15.032-16.341z"/><path id="path5" d="m46.964 45.736h-45.325l-0.0003-45.325 45.325-0.00032v45.325z" fill="none"/><path id="path2327" fill="url(#linearGradient2335)" fill-rule="evenodd" clip-rule="evenodd" d="m23 29l-0.046 15.091h-11.843l-0.111-15.091h12z"/><path id="path2357" opacity=".3125" style="color:#000000" d="m21.78 9.4056h5.56c0.783 0 13 14.399 13 15.244l-0.347 18.212c0 0.459-0.143 0.654-0.512 0.654l-31.387 0.014c-0.3689 0-0.5843-0.08-0.5843-0.454l0.2154-18.426c0-0.845 13.272-15.244 14.055-15.244z" stroke="#fff" fill="none"/><path id="path23" opacity=".2" d="m7.2075 27.943l-0.0542 2.595 18.368-13.179 15.287 11.154 0.071-0.311-16.37-15.904-17.302 15.645z" fill-rule="evenodd" clip-rule="evenodd" fill="url(#radialGradient2384)"/><path id="path188" fill="url(#linearGradient2412)" fill-rule="evenodd" clip-rule="evenodd" d="m22 30v14.091h-9.811l-0.189-14.091h10z"/><path id="path2315" opacity=".40909" d="m19.577 36.448c0.673 0 1.216 0.474 1.216 1.058 0 0.59-0.543 1.069-1.216 1.069-0.672 0-1.219-0.479-1.219-1.069 0.001-0.584 0.547-1.058 1.219-1.058z" fill-rule="evenodd" clip-rule="evenodd" fill="url(#radialGradient2325)"/><path id="path217" fill="url(#radialGradient2313)" fill-rule="evenodd" clip-rule="evenodd" d="m19.462 35.932c0.673 0 1.217 0.475 1.217 1.059 0 0.59-0.544 1.068-1.217 1.068-0.672 0-1.218-0.478-1.218-1.068 0-0.584 0.546-1.059 1.218-1.059z"/><path id="path342" d="m24.448 11.559l18.927 17.17 0.494 0.392 0.404-0.171-0.373-0.762-0.277-0.223-19.175-15.573-19.39 15.744-0.2374 0.144-0.2167 0.707 0.4334 0.129 0.3846-0.309 19.026-17.248z" fill="url(#XMLID_39_)"/><path id="path362" stroke="#a40000" fill="#ef2929" d="m24.33 2.2713l-21.882 18.102-0.6243 7.166 1.9999 2.064s20.407-17.157 20.624-17.328l19.632 17.543 1.899-2.324-1.616-7.111-19.915-18.216-0.118 0.1043z"/>
<path id="path1536" opacity=".40909" style="color:#000000" fill="url(#radialGradient2305)" d="m2.8413 20.613l-0.2915 6.623 21.819-18.256-0.07-5.8933-21.458 17.526z"/><path id="path2337" opacity=".13636" style="color:#000000" fill="url(#radialGradient2339)" d="m24.484 8.751l0.099-5.8411 19.329 17.652 1.492 6.501-20.92-18.312z"/><path id="rect2361" opacity=".31818" style="color:#000000" d="m27.102 27.72h9.04c0.771 0 1.391 0.62 1.391 1.391l-0.008 9.079c0 0.771-0.596 1.266-1.367 1.266h-9.056c-0.77 0-1.391-0.62-1.391-1.391v-8.954c0-0.771 0.621-1.391 1.391-1.391z" stroke="#fff" fill="none"/><rect id="rect3263" style="color:#000000" rx=".38128" ry=".38128" height="9.9625" width="10.001" stroke="#757575" y="28.514" x="26.508" fill="#3465a4"/><path id="rect2363" opacity=".39773" style="color:#000000" fill="url(#radialGradient2374)" d="m27.107 34.408c3.618 0.331 5.528-1.445 8.868-1.552l0.025-3.85-8.912-0.006 0.019 5.408z"/><metadata><rdf:RDF><cc:Work><dc:format>image/svg+xml</dc:format><dc:type rdf:resource="http://purl.org/dc/dcmitype/StillImage"/><cc:license rdf:resource="http://creativecommons.org/licenses/publicdomain/"/><dc:publisher><cc:Agent rdf:about="http://openclipart.org/"><dc:title>Openclipart</dc:title></cc:Agent></dc:publisher><dc:title>tango go home</dc:title><dc:date>2010-03-10T10:25:42</dc:date><dc:description>Home icon from &lt;A href="http://tango.freedesktop.org/Tango_Desktop_Project"&gt; Tango Project &lt;/A&gt; \n&lt;BR&gt;&lt;BR&gt;\nSince version 0.8.90 Tango Project icons are Public Domain: &lt;A href="http://tango.freedesktop.org/Frequently_Asked_Questions#Terms_of_Use.3F"&gt; Tango Project FAQ &lt;/A&gt;</dc:description><dc:source>http://openclipart.org/detail/30805/tango-go-home-by-warszawianka</dc:source><dc:creator><cc:Agent><dc:title>warszawianka</dc:title></cc:Agent></dc:creator><dc:subject><rdf:Bag><rdf:li>architecture</rdf:li><rdf:li>building</rdf:li><rdf:li>clip art</rdf:li><rdf:li>clipart</rdf:li><rdf:li>externalsource</rdf:li><rdf:li>home</rdf:li><rdf:li>house</rdf:li><rdf:li>icon</rdf:li><rdf:li>tango</rdf:li></rdf:Bag></dc:subject></cc:Work><cc:License rdf:about="http://creativecommons.org/licenses/publicdomain/"><cc:permits rdf:resource="http://creativecommons.org/ns#Reproduction"/><cc:permits rdf:resource="http://creativecommons.org/ns#Distribution"/><cc:permits rdf:resource="http://creativecommons.org/ns#DerivativeWorks"/></cc:License></rdf:RDF></metadata></svg>